<svg width="16" height="16" viewBox="0 0 16 16" fill="none" xmlns="http://www.w3.org/2000/svg">
<path d="M5.79274 10.2643H3.57898C3.30989 10.2643 3.11242 10.1471 2.98658 9.91282C2.86073 9.67851 2.87776 9.44976 3.03766 9.22657L9.02899 0.584519C9.13044 0.443453 9.25725 0.349131 9.40943 0.301553C9.5616 0.253964 9.71378 0.261086 9.86594 0.32292C10.0181 0.378475 10.1394 0.478359 10.2297 0.62257C10.3201 0.76677 10.3541 0.920514 10.3319 1.0838L9.66306 6.39395H12.4362C12.7164 6.39395 12.9151 6.5198 13.0323 6.77149C13.1494 7.02319 13.1225 7.25749 12.9515 7.4744L6.40071 15.3527C6.29927 15.4826 6.16968 15.5659 6.01194 15.6023C5.85421 15.6388 5.70167 15.623 5.55433 15.5549C5.41327 15.493 5.30349 15.3931 5.22498 15.2552C5.14648 15.1173 5.11834 14.9636 5.14056 14.794L5.79274 10.2643Z" fill="currentColor"/>
</svg>
