<svg width="110" height="40" viewBox="0 0 110 40" fill="none" xmlns="http://www.w3.org/2000/svg">
<path d="M21.6167 23.9939L33.5932 30.8471C33.689 30.9011 33.7973 30.9294 33.9073 30.9291C34.0174 30.9288 34.1254 30.8999 34.2209 30.8454C34.3164 30.7908 34.3961 30.7124 34.452 30.6179C34.508 30.5233 34.5384 30.4159 34.5401 30.3061L34.5422 17.686C34.541 17.576 34.511 17.4682 34.4552 17.3733C34.3994 17.2785 34.3197 17.1998 34.224 17.1451C34.1284 17.0904 34.0201 17.0616 33.9098 17.0615C33.7996 17.0614 33.6912 17.0901 33.5955 17.1447L21.6167 23.9939Z" fill="#31CB9E"/>
<path d="M32.8973 14.1909L24.9469 8.12719C24.862 8.06361 24.7626 8.02222 24.6577 8.00678C24.5527 7.99135 24.4455 8.00235 24.3459 8.0388C24.2463 8.07525 24.1575 8.13599 24.0874 8.21547C24.0173 8.29496 23.9683 8.39067 23.9448 8.49389L21.0378 21.9941L32.8327 15.2365C32.924 15.1856 33.0009 15.1127 33.0565 15.0244C33.1122 14.9362 33.1447 14.8354 33.1511 14.7313C33.1575 14.6272 33.1377 14.5232 33.0933 14.4288C33.0489 14.3344 32.9815 14.2526 32.8973 14.1909Z" fill="#31CB9E"/>
<path d="M24.9416 39.8701L32.9124 33.7998C32.9948 33.7369 33.0604 33.6548 33.1035 33.5606C33.1466 33.4665 33.1659 33.3632 33.1595 33.2599C33.1532 33.1566 33.1215 33.0564 33.0672 32.9683C33.0129 32.8801 32.9377 32.8065 32.8482 32.7542L21.0371 26.002L23.9489 39.5031C23.9702 39.6066 24.0176 39.703 24.0866 39.7832C24.1556 39.8633 24.2439 39.9247 24.3432 39.9614C24.4425 39.9981 24.5495 40.009 24.6542 39.993C24.7589 39.9771 24.8578 39.9348 24.9416 39.8701Z" fill="#31CB9E"/>
<path d="M18.5462 23.9934L21.6832 9.44767C21.7105 9.32168 21.6981 9.19037 21.6478 9.07167C21.5974 8.95296 21.5116 8.85264 21.402 8.7844C21.2924 8.71617 21.1644 8.68334 21.0354 8.69039C20.9064 8.69745 20.7828 8.74405 20.6813 8.82384L12.6554 14.94C12.4521 15.0952 12.2874 15.295 12.1741 15.5241C12.0609 15.7532 12.0022 16.0052 12.0025 16.2606L12 31.7515C11.9995 32.0069 12.0582 32.259 12.1713 32.4881C12.2845 32.7172 12.4492 32.9171 12.6524 33.0723L20.6764 39.1819C20.7786 39.2584 20.9015 39.3023 21.0292 39.3078C21.1568 39.3132 21.2831 39.2801 21.3915 39.2126C21.4998 39.1452 21.5853 39.0466 21.6365 38.9299C21.6877 38.8131 21.7023 38.6836 21.6785 38.5584L18.5462 23.9934Z" fill="#31CB9E"/>
<path d="M81.0098 19.7517C81.5833 19.74 82.1496 19.8799 82.6512 20.1573C83.1529 20.4347 83.572 20.8396 83.866 21.331L82.8737 22.0936C82.6616 21.7742 82.3824 21.5048 82.0555 21.304C81.7395 21.1158 81.3775 21.0185 81.0095 21.0228C80.6777 21.0155 80.3511 21.1062 80.0708 21.2836C79.9379 21.3709 79.8307 21.4918 79.76 21.634C79.6893 21.7762 79.6577 21.9346 79.6685 22.093C79.6642 22.2433 79.6964 22.3925 79.7623 22.5277C79.826 22.6499 79.9123 22.7589 80.0168 22.8488C80.1349 22.95 80.2656 23.0355 80.4056 23.1033C80.5576 23.1793 80.723 23.2618 80.9018 23.3508L81.8941 23.806C82.204 23.9466 82.5041 24.1076 82.7926 24.2879C83.041 24.4408 83.2667 24.6277 83.4632 24.8431C83.6384 25.0388 83.7788 25.2629 83.8787 25.5057C83.9804 25.7656 84.0305 26.0428 84.0262 26.3218C84.0317 26.6891 83.9536 27.0528 83.7977 27.3855C83.6501 27.6965 83.4348 27.9707 83.1675 28.1881C82.8862 28.4138 82.5657 28.5861 82.2221 28.6963C81.8433 28.8194 81.4469 28.8804 81.0485 28.8768C80.3564 28.8899 79.6741 28.7116 79.0773 28.3615C78.508 28.0211 78.0368 27.5392 77.7097 26.9629L78.7156 26.2005C78.8421 26.3897 78.9834 26.5687 79.1382 26.7358C79.2928 26.904 79.4659 27.0544 79.6542 27.184C79.8463 27.3157 80.0562 27.4194 80.2776 27.492C80.5224 27.5704 80.7783 27.6088 81.0353 27.6057C81.4306 27.6244 81.8205 27.5089 82.1414 27.278C82.2795 27.1726 82.39 27.0354 82.4637 26.8783C82.5373 26.7211 82.5718 26.5485 82.5644 26.3752C82.5674 26.2206 82.5353 26.0674 82.4705 25.927C82.4062 25.7955 82.3148 25.6791 82.2022 25.5854C82.0754 25.4805 81.9384 25.3886 81.7931 25.3111C81.6366 25.2265 81.4601 25.1396 81.2635 25.0503L80.2851 24.5952C80.0093 24.467 79.7407 24.324 79.4804 24.1668C79.2392 24.0226 79.0182 23.8471 78.8232 23.6448C78.6377 23.4519 78.4879 23.2277 78.3808 22.9826C78.2697 22.718 78.215 22.4332 78.2201 22.1464C78.215 21.8035 78.2909 21.4643 78.4415 21.1561C78.5869 20.8645 78.7926 20.6069 79.045 20.4004C79.3078 20.1866 79.608 20.0233 79.9304 19.9187C80.2788 19.8053 80.6434 19.7489 81.0098 19.7517Z" fill="white"/>
<path d="M91.9111 26.417L93.615 22.1624L95.1035 22.1627L92.1922 28.879H91.7095L89.6315 24.49L87.5793 28.8782H87.0962L84.1741 22.1609L85.6761 22.1611L87.4051 26.4564L89.404 22.0146H89.8867L91.9111 26.417Z" fill="white"/>
<path d="M98.3756 22.0168C98.7494 22.0124 99.1212 22.0713 99.4753 22.191C99.793 22.2993 100.083 22.4751 100.326 22.7062C100.572 22.9478 100.762 23.2402 100.883 23.5628C101.024 23.9461 101.092 24.3522 101.084 24.7603L101.083 28.7341L99.7691 28.734V27.9982C99.5288 28.2802 99.2258 28.5023 98.8841 28.6467C98.4979 28.8082 98.0823 28.8879 97.6636 28.8808C97.3434 28.8847 97.0246 28.8394 96.7182 28.7467C96.4534 28.6667 96.2073 28.5347 95.9942 28.3586C95.7971 28.1946 95.639 27.9889 95.5314 27.7564C95.4215 27.5126 95.3666 27.2477 95.3708 26.9804C95.3607 26.7158 95.4153 26.4527 95.5298 26.2138C95.6443 25.9749 95.8153 25.7674 96.028 25.6091C96.546 25.2506 97.1688 25.0742 97.7983 25.1077L99.6621 25.1078L99.6625 24.6796C99.6852 24.4897 99.6644 24.2971 99.6017 24.1163C99.5389 23.9355 99.4359 23.7713 99.3003 23.636C99.1647 23.5007 99.0002 23.3979 98.819 23.3353C98.6378 23.2726 98.4447 23.2519 98.2543 23.2745C97.9023 23.2663 97.5546 23.3542 97.2489 23.5285C96.9341 23.7227 96.6532 23.9667 96.4172 24.2511L95.6126 23.4214C95.9204 22.9674 96.3411 22.6009 96.8334 22.3578C97.3148 22.1287 97.8423 22.0121 98.3756 22.0168ZM97.9586 27.7971C98.1827 27.7985 98.4053 27.7601 98.6158 27.6834C98.8154 27.6113 98.9996 27.5024 99.1589 27.3623C99.3151 27.2247 99.4409 27.0561 99.5282 26.8673C99.6182 26.6723 99.664 26.4598 99.6622 26.2451V26.1247L97.9725 26.1245C97.6707 26.1061 97.3701 26.1758 97.1074 26.325C97.0087 26.3903 96.9289 26.4802 96.8759 26.5859C96.823 26.6916 96.7988 26.8092 96.8057 26.9272C96.7993 27.0552 96.8269 27.1827 96.8858 27.2966C96.9446 27.4106 97.0326 27.507 97.1408 27.5761C97.3853 27.7293 97.6701 27.8062 97.9586 27.7971H97.9586Z" fill="white"/>
<path d="M106.113 22.0169C106.558 22.0129 106.999 22.1019 107.407 22.2781C107.796 22.4456 108.145 22.6916 108.433 23.0006C108.724 23.316 108.951 23.684 109.103 24.0847C109.268 24.5184 109.35 24.979 109.344 25.4427C109.349 25.9085 109.267 26.3712 109.103 26.8074C108.951 27.2118 108.721 27.5823 108.426 27.8978C108.129 28.2127 107.771 28.4626 107.372 28.6318C106.974 28.8011 106.545 28.8858 106.112 28.8808C105.682 28.8858 105.256 28.8038 104.858 28.6398C104.491 28.4884 104.166 28.2495 103.913 27.9439L103.912 31.1416L102.505 31.1415L102.506 22.1635L103.807 22.1637L103.806 23.1137C104.051 22.7634 104.384 22.4841 104.772 22.3043C105.192 22.1089 105.65 22.0107 106.113 22.0169ZM105.885 23.3013C105.64 23.3019 105.398 23.3448 105.167 23.4282C104.931 23.513 104.714 23.645 104.531 23.8164C104.334 24.0029 104.179 24.2284 104.075 24.4784C103.951 24.7842 103.892 25.1121 103.9 25.4417C103.892 25.7708 103.949 26.0982 104.067 26.4052C104.169 26.6571 104.322 26.8851 104.517 27.0744C104.699 27.2493 104.915 27.3838 105.153 27.4691C105.388 27.5535 105.635 27.5966 105.884 27.5964C106.153 27.5979 106.42 27.5456 106.669 27.4427C106.911 27.3429 107.13 27.1949 107.313 27.0077C107.5 26.8138 107.646 26.584 107.742 26.3322C107.947 25.7658 107.947 25.1458 107.742 24.5793C107.647 24.3287 107.504 24.0992 107.32 23.9036C107.139 23.7153 106.923 23.5651 106.683 23.4621C106.431 23.3537 106.159 23.2989 105.885 23.3013V23.3013Z" fill="white"/>
<path d="M45.0373 28.7245L43.616 28.7244L43.6175 19.8936L45.0388 19.8937L45.0373 28.7245ZM46.8485 24.0284L50.9379 28.7255L49.1811 28.7251L45.0782 24.0282L48.7938 19.8943L50.5371 19.8947L46.8485 24.0284Z" fill="white"/>
<path d="M54.0626 29.4759C53.8553 30.0142 53.5108 30.4891 53.0631 30.8538C52.6463 31.1478 52.1448 31.298 51.6347 31.2818C51.4509 31.2812 51.2673 31.2701 51.0848 31.2483C50.904 31.2271 50.7248 31.1935 50.5485 31.1479V29.9571C50.7095 29.9747 50.8526 29.9881 50.9779 29.9972C51.1028 30.006 51.2234 30.0104 51.3397 30.0105C51.6215 30.0159 51.9002 29.9516 52.1511 29.8234C52.438 29.6392 52.657 29.3668 52.7752 29.0475L53.0432 28.4321L50.416 22.1562L51.9311 22.1566L53.8081 26.947L55.7668 22.1572L57.2684 22.1574L54.0626 29.4759Z" fill="white"/>
<path d="M59.4139 22.9599C59.6724 22.6597 59.9958 22.4219 60.3597 22.2644C60.7549 22.0918 61.1823 22.0052 61.6136 22.0103C62.0464 22.0055 62.4755 22.0904 62.8737 22.2597C63.2719 22.4291 63.6304 22.6791 63.9267 22.994C64.222 23.3097 64.452 23.6804 64.6037 24.0848C64.7676 24.521 64.8493 24.9837 64.8447 25.4496C64.8496 25.9133 64.7677 26.3738 64.6033 26.8076C64.4511 27.2081 64.2234 27.576 63.9327 27.8913C63.6461 28.1992 63.2991 28.445 62.9133 28.6136C62.5074 28.7901 62.0687 28.8789 61.626 28.8742C61.1615 28.8799 60.7015 28.7839 60.2783 28.593C59.887 28.4185 59.5508 28.141 59.3058 27.7901V28.7267L58.0054 28.7265L58.0069 18.6914L59.4147 18.6916L59.4139 22.9599ZM61.3854 23.2947C61.1362 23.2946 60.8888 23.3375 60.6543 23.4216C60.4166 23.5071 60.1996 23.6416 60.0174 23.8163C59.8225 24.0056 59.6695 24.2335 59.5682 24.4853C59.4492 24.7922 59.3922 25.1196 59.4004 25.4486C59.3923 25.7804 59.4516 26.1103 59.5745 26.4187C59.6773 26.6714 59.8327 26.8995 60.0306 27.0878C60.213 27.2588 60.4301 27.3889 60.6671 27.4692C60.898 27.5486 61.1405 27.5893 61.3847 27.5898C61.6589 27.5921 61.9307 27.5375 62.1826 27.4293C62.4225 27.3263 62.6393 27.1762 62.8199 26.9878C63.0036 26.7924 63.1472 26.5629 63.2425 26.3123C63.4475 25.746 63.4476 25.126 63.2428 24.5596C63.1469 24.3077 63.0009 24.0778 62.8135 23.8837C62.6308 23.6967 62.4118 23.5487 62.1698 23.4488C61.9213 23.3456 61.6546 23.2932 61.3854 23.2947V23.2947Z" fill="white"/>
<path d="M69.1904 22.0119C69.6081 22.008 70.0225 22.0854 70.4105 22.2396C70.7714 22.3803 71.0993 22.5938 71.3738 22.8666C71.6483 23.1394 71.8635 23.4657 72.006 23.8252C72.16 24.2056 72.2375 24.6125 72.2338 25.0228C72.2342 25.1928 72.2229 25.3627 72.2 25.5313C72.1844 25.6577 72.1599 25.7828 72.1264 25.9058L67.2181 25.905C67.2907 26.4046 67.5493 26.8585 67.9425 27.1763C68.3492 27.4872 68.8513 27.6481 69.3634 27.6314C69.7228 27.6367 70.0793 27.566 70.4094 27.4242C70.7285 27.2821 71.0229 27.0902 71.2816 26.8558L71.9651 27.8193C71.6213 28.146 71.2217 28.4088 70.7851 28.595C70.3266 28.7863 69.8337 28.8819 69.3368 28.8759C68.8505 28.8801 68.368 28.7915 67.9151 28.6149C67.4973 28.4547 67.1166 28.2113 66.7963 27.8995C66.4759 27.5877 66.2225 27.214 66.0517 26.8013C65.871 26.3738 65.7797 25.914 65.7833 25.4501C65.7798 24.9867 65.8689 24.5273 66.0453 24.0986C66.2118 23.6909 66.4579 23.3203 66.7692 23.0084C67.0797 22.6994 67.4461 22.452 67.849 22.2793C68.2728 22.0984 68.7295 22.0074 69.1904 22.0119ZM69.1495 23.2027C68.6987 23.1913 68.2594 23.346 67.9158 23.6374C67.5675 23.9418 67.3314 24.354 67.2455 24.808L70.826 24.8086C70.8311 24.5846 70.7876 24.3622 70.6985 24.1567C70.6093 23.9511 70.4766 23.7672 70.3096 23.6176C69.9868 23.3423 69.574 23.1947 69.1495 23.2027Z" fill="white"/>
<path d="M76.8074 22.0929C76.9084 22.0919 77.0092 22.0987 77.1092 22.1131C77.194 22.1264 77.2722 22.142 77.3437 22.1599L77.3433 23.4042L76.9144 23.404C76.6618 23.403 76.4107 23.4414 76.1701 23.5179C75.9431 23.588 75.7331 23.704 75.5531 23.8588C75.3746 24.0159 75.2327 24.21 75.1373 24.4275C75.0297 24.6789 74.977 24.9503 74.9826 25.2236L74.9823 28.7291L73.5745 28.7289L73.5756 22.1593L74.876 22.1595L74.8757 23.0427C75.097 22.7401 75.3896 22.4965 75.7276 22.3335C76.0647 22.1728 76.4339 22.0905 76.8074 22.0929Z" fill="white"/>
<path d="M10.7812 21.5625V19.6875C9.13256 19.6875 7.51028 20.1016 6.06328 20.8917L4.93828 19.9519L5.55469 18.6305C6.52706 16.548 7.03108 14.2777 7.03125 11.9794C7.03128 10.3118 7.69377 8.71245 8.87297 7.53328C10.9953 5.41106 13.8737 4.21879 16.875 4.21875C19.8763 4.21879 22.7547 5.41106 24.877 7.53328L25.3125 7.96875V11.25L15 21.5625H10.7812Z" fill="#C52C37"/>
<path d="M4.93911 19.9519L5.55552 18.6305C6.52757 16.5479 7.03127 14.2776 7.03115 11.9794C7.03118 10.3118 7.69366 8.71245 8.87286 7.53328C10.1382 6.26953 11.685 5.32368 13.3865 4.77328C13.8382 4.71716 14.293 4.68852 14.7482 4.6875C14.9752 4.68895 15.2017 4.70728 15.426 4.74234C19.7554 5.39297 21.4818 10.74 18.5197 13.9659C16.2322 16.4616 13.4061 19.2188 10.7811 20.9011V19.6875C9.13246 19.6875 7.51017 20.1016 6.06318 20.8917L4.93911 19.9519Z" fill="#ED4241"/>
<path d="M10.7812 21.5625L11.7188 25.7812C15.7836 25.0805 19.5651 23.2376 22.6218 20.468C25.6784 17.6984 27.884 14.1163 28.9809 10.14L29.0625 9.84375L25.3125 7.96875L24.8414 8.86828C21.8178 14.6405 16.8314 19.1425 10.7812 21.5625Z" fill="#C1CFE8"/>
<path d="M10.3125 19.6872H11.25V18.4333C11.2494 16.52 11.5578 14.6191 12.1631 12.8041L11.2725 12.5078C10.6355 14.4184 10.3113 16.4193 10.3125 18.4333V19.6872Z" fill="#C52C37"/>
<path d="M3.75 25.3125C2.1967 25.3125 0.9375 24.0533 0.9375 22.5C0.9375 20.9467 2.1967 19.6875 3.75 19.6875C5.3033 19.6875 6.5625 20.9467 6.5625 22.5C6.5625 24.0533 5.3033 25.3125 3.75 25.3125Z" fill="#C1CFE8"/>
<path d="M25.3126 7.96875L28.9656 9.79687C27.8373 12.9557 25.9934 15.8107 23.5782 18.1384C21.163 20.466 18.242 22.2034 15.0437 23.2144C14.6861 23.3267 14.309 23.3634 13.9364 23.3223C13.5638 23.2812 13.2038 23.1631 12.8793 22.9756C12.5547 22.788 12.2727 22.535 12.0511 22.2327C11.8295 21.9304 11.6731 21.5853 11.5918 21.2194C17.2841 18.7283 21.9575 14.3719 24.8415 8.86828L25.3126 7.96875Z" fill="#D7E0EF"/>
<path d="M3.75018 19.6875C4.26629 19.6877 4.77229 19.8306 5.21221 20.1005C5.54112 20.6383 5.67952 21.2712 5.60513 21.8972C5.53074 22.5233 5.24789 23.1061 4.80209 23.5519C4.35629 23.9977 3.77347 24.2806 3.14742 24.355C2.52137 24.4293 1.8885 24.2909 1.35065 23.962C1.09003 23.536 0.947703 23.0482 0.938336 22.5489C0.928969 22.0496 1.0529 21.5568 1.29736 21.1214C1.54182 20.6859 1.89796 20.3235 2.3291 20.0714C2.76024 19.8194 3.25078 19.6869 3.75018 19.6875Z" fill="#D7E0EF"/>
</svg>
