<?xml version="1.0" encoding="utf-8"?>
<!-- Generator: Adobe Illustrator 16.0.0, SVG Export Plug-In . SVG Version: 6.00 Build 0)  -->
<!DOCTYPE svg PUBLIC "-//W3C//DTD SVG 1.1//EN" "http://www.w3.org/Graphics/SVG/1.1/DTD/svg11.dtd">
<svg version="1.1" xmlns="http://www.w3.org/2000/svg" xmlns:xlink="http://www.w3.org/1999/xlink" x="0px" y="0px" width="952px"
	 height="261.35px" viewBox="0 0 952 261.35" enable-background="new 0 0 952 261.35" xml:space="preserve">
<g id="Background">
</g>
<g id="Logos_and_symbols">
	<g id="SYMBOL_VER_3">
	</g>
	<g id="SYMBOL_VER_3_3_">
	</g>
	<g id="SYMBOL_VER_4">
	</g>
	<g id="SYMBOL_VER_4_1_">
		<g id="SYMBOL_VER_4_3_">
		</g>
	</g>
	<g id="SYMBOL_VER_5_1_">
	</g>
	<g id="off_2_1_">
	</g>
	<g id="VER_3_1_">
		<g id="SYMBOL_VER_2_1_">
		</g>
	</g>
	<g id="VER_3">
		<g id="SYMBOL_VER_2">
		</g>
	</g>
	<g id="off_2">
	</g>
	<g id="SYMBOL_VER_5">
	</g>
	<g id="SYMBOL_VER_1">
	</g>
	<g id="SYMBOL_VER_1_1_">
	</g>
	<g id="SYMBOL_VER_1-1_3_">
	</g>
	<g id="SYMBOL_VER_1-1_2_">
	</g>
	<g id="SYMBOL_VER_1-1">
	</g>
	<g id="SYMBOL_VER_1-1_1_">
		<g id="_x31_-3">
		</g>
		<g id="Symbol_-_Original_14_">
		</g>
		<g id="Symbol_-_Original_13_">
		</g>
		<g id="Symbol_-_Original_6_">
		</g>
		<g id="Symbol_-_Original_4_">
		</g>
		<g id="One_color_version_-_White_3_">
			<g id="Symbol_-_Original_15_">
			</g>
		</g>
		<g id="One_color_version_-_White">
			<g id="Symbol_-_Original">
			</g>
		</g>
		<g id="Symbol_-_Monochromatic_3_">
			<g id="_x33__7_">
			</g>
		</g>
		<g id="Symbol_-_Monochromatic">
			<g id="_x33__3_">
			</g>
		</g>
		<g id="_x33__2_">
		</g>
		<g id="_x33__1_">
		</g>
		<g id="_x33_">
		</g>
		<g id="Symbol_-_Original_10_">
			<path fill="#2D374B" d="M142.52,125.108l11.935-20.252l32.17,50.105l0.015,9.616l-0.105-66.169
				c-0.076-1.618-0.935-3.098-2.305-3.971l-57.918-33.314c-1.354-0.666-3.073-0.658-4.425,0.021c-0.183,0.092-0.354,0.191-0.518,0.3
				l-0.202,0.127L64.948,94.149l-0.218,0.1c-0.281,0.128-0.564,0.293-0.831,0.483c-1.066,0.764-1.774,1.895-2.003,3.162
				c-0.034,0.192-0.06,0.388-0.071,0.586l0.088,53.921l29.965-46.443c3.772-6.158,11.992-8.143,19.623-8.034l8.955,0.236
				l-52.767,84.623l6.22,3.581l53.399-88.118l23.603-0.086l-53.261,90.342l22.195,12.767l2.652,1.524
				c1.122,0.456,2.444,0.479,3.575,0.07l58.732-34.036l-11.229,6.507L142.52,125.108z M147.073,190.693l-22.417-35.185
				l13.685-23.222l29.441,46.405L147.073,190.693z"/>
			<polygon fill="#28A0F0" points="124.655,155.509 147.073,190.693 167.781,178.692 138.34,132.287 			"/>
			<path fill="#28A0F0" d="M186.64,164.578l-0.015-9.616l-32.17-50.105l-11.935,20.252l31.056,50.226l11.229-6.507
				c1.101-0.894,1.768-2.207,1.838-3.623L186.64,164.578z"/>
			<path fill="#FFFFFF" d="M51.832,173.646l15.857,9.137l52.767-84.623l-8.955-0.236c-7.63-0.108-15.85,1.876-19.623,8.034
				l-29.965,46.443l-10.081,15.489V173.646z"/>
			<polygon fill="#FFFFFF" points="150.911,98.16 127.308,98.246 73.909,186.364 92.574,197.11 97.649,188.502 			"/>
			<path fill="#96BEDC" d="M196.586,98.038c-0.197-4.936-2.87-9.454-7.056-12.085l-58.677-33.744
				c-4.141-2.085-9.314-2.088-13.463-0.001c-0.49,0.247-57.062,33.057-57.062,33.057c-0.783,0.375-1.537,0.822-2.246,1.33
				c-3.737,2.679-6.015,6.841-6.25,11.413v69.883l10.081-15.489L61.825,98.48c0.012-0.197,0.037-0.392,0.071-0.583
				c0.228-1.269,0.937-2.4,2.003-3.165c0.267-0.19,57.804-33.496,57.987-33.588c1.353-0.679,3.071-0.687,4.425-0.021l57.918,33.314
				c1.37,0.873,2.229,2.353,2.305,3.971v66.795c-0.07,1.416-0.63,2.729-1.731,3.623l-11.229,6.507l-5.794,3.358l-20.708,12.001
				l-21.001,12.17c-1.131,0.409-2.454,0.386-3.575-0.07l-24.847-14.291l-5.076,8.608l22.33,12.856
				c0.738,0.42,1.396,0.792,1.936,1.096c0.836,0.469,1.406,0.782,1.607,0.88c1.587,0.771,3.87,1.219,5.928,1.219
				c1.886,0,3.726-0.346,5.467-1.028l60.999-35.325c3.501-2.713,5.561-6.804,5.746-11.235V98.038z"/>
		</g>
		<g id="Symbol_-_Original_1_">
		</g>
		<g id="Symbol_-_Original_2_">
		</g>
		<g id="_x34__1_">
		</g>
		<g id="Symbol_-_Monochromatic_2_">
			<g id="_x33__6_">
			</g>
		</g>
		<g id="One_color_version_-_White_2_">
			<g id="Symbol_-_Original_11_">
			</g>
		</g>
		<g id="Symbol_-_Original_5_">
			<g id="Symbol_-_Original_12_">
			</g>
		</g>
		<g id="One_color_version_-_White_1_">
			<g id="Symbol_-_Original_9_">
			</g>
		</g>
	</g>
	<g id="SYMBOL_VER_1_2_">
		<g id="SYMBOL_VER_2_4_">
		</g>
		<g id="SYMBOL_VER_2-1-1_1_">
		</g>
		<g id="SYMBOL_VER_2-2-1_1_">
		</g>
		<g id="SYMBOL_VER_2-3-1_4_">
		</g>
		<g id="New_Symbol_1_">
			<g id="SYMBOL_VER_2-3-1_3_">
			</g>
		</g>
		<g id="New_Symbol">
			<g id="SYMBOL_VER_2-3-1_1_">
			</g>
		</g>
	</g>
	<g id="SYMBOL_VER_2_2_">
	</g>
	<g id="SYMBOL_VER_4_2_">
	</g>
	<g id="SYMBOL_VER_3_2_">
	</g>
	<g id="SYMBOL_VER_3_1_">
	</g>
	<g id="SYMBOL_VER_1-1-1_1_">
	</g>
	<g id="SYMBOL_VER_1-1-1">
	</g>
	<g id="SYMBOL_VER_1-1-1_2_2_">
	</g>
	<g id="SYMBOL_VER_1-1-1_2">
	</g>
	<g id="SYMBOL_VER_1-1-1_2_1_">
	</g>
	<g>
		<path fill="#2D364D" d="M259.603,107.099c1.758,0,3.238,0.359,4.441,1.076c1.203,0.718,2.383,2.117,3.541,4.2l22.977,41.719
			c0.23,0.463,0.289,0.845,0.174,1.146c-0.115,0.302-0.451,0.451-1.006,0.451h-8.816c-0.787,0-1.318-0.301-1.598-0.902l-4.928-8.955
			h-32.625l-4.791,8.955c-0.324,0.602-0.855,0.902-1.596,0.902h-9.023c-0.604,0-0.961-0.149-1.076-0.451
			c-0.117-0.301-0.059-0.683,0.172-1.146l22.77-41.719c1.156-2.083,2.291-3.482,3.402-4.2c1.109-0.717,2.404-1.076,3.887-1.076
			H259.603z M246.136,137.781h23.879l-11.037-20.339c-0.186-0.323-0.441-0.486-0.764-0.486h-0.416c-0.324,0-0.58,0.163-0.764,0.486
			L246.136,137.781z"/>
		<path fill="#2D364D" d="M363.454,107.099c5.322,0,9.141,1.204,11.455,3.61c2.313,2.406,3.471,5.97,3.471,10.689v3.957
			c0,3.98-0.811,7.127-2.43,9.44c-1.621,2.314-4.26,3.795-7.914,4.442l11.871,14.717c0.23,0.232,0.299,0.579,0.207,1.041
			c-0.094,0.463-0.463,0.694-1.109,0.694h-8.955c-0.602,0-1.02-0.069-1.25-0.208c-0.232-0.139-0.463-0.37-0.693-0.694
			l-10.969-14.438h-22.422v13.813c0,1.019-0.51,1.527-1.527,1.527h-7.496c-1.064,0-1.598-0.509-1.598-1.527v-44.981
			c0-1.389,0.695-2.083,2.084-2.083H363.454z M334.716,131.881h26.588c2.359,0,4.025-0.509,4.996-1.527
			c0.973-1.018,1.459-2.568,1.459-4.651v-2.915c0-2.082-0.486-3.633-1.459-4.651c-0.971-1.017-2.637-1.526-4.996-1.526h-25.686
			c-0.602,0-0.902,0.277-0.902,0.833V131.881z"/>
		<path fill="#2D364D" d="M456.007,107.099c4.768,0,8.156,0.949,10.17,2.847s3.02,4.767,3.02,8.607v3.332
			c0,3.888-1.48,6.826-4.441,8.815c3.191,1.852,4.789,4.837,4.789,8.955v4.026c0,1.852-0.209,3.518-0.625,4.998
			c-0.416,1.481-1.1,2.741-2.047,3.783c-0.949,1.041-2.211,1.839-3.783,2.395c-1.574,0.556-3.518,0.833-5.832,0.833h-41.232
			c-1.389,0-2.084-0.694-2.084-2.082v-44.427c0-1.389,0.695-2.083,2.084-2.083H456.007z M424.562,127.299h28.461
			c2.314,0,3.887-0.347,4.721-1.041c0.832-0.694,1.25-1.712,1.25-3.055v-2.359c0-1.435-0.406-2.487-1.215-3.159
			c-0.811-0.67-2.117-1.006-3.922-1.006h-28.393c-0.602,0-0.902,0.302-0.902,0.902V127.299z M424.562,134.865v10.344
			c0,0.602,0.301,0.902,0.902,0.902h28.461c1.852,0,3.17-0.336,3.957-1.007c0.787-0.67,1.18-1.746,1.18-3.228v-2.639
			c0-1.434-0.428-2.521-1.283-3.262c-0.857-0.74-2.441-1.111-4.756-1.111H424.562z"/>
		<path fill="#2D364D" d="M513.603,107.099c1.018,0,1.527,0.51,1.527,1.527v45.537c0,1.019-0.51,1.527-1.527,1.527h-7.498
			c-1.064,0-1.596-0.509-1.596-1.527v-45.537c0-1.018,0.531-1.527,1.596-1.527H513.603z"/>
		<path fill="#2D364D" d="M604.509,107.099c1.064,0,1.598,0.51,1.598,1.527v6.803c0,1.065-0.533,1.597-1.598,1.597h-21.797v37.138
			c0,1.019-0.51,1.527-1.527,1.527h-7.566c-1.018,0-1.525-0.509-1.525-1.527v-37.138h-21.797c-1.066,0-1.598-0.531-1.598-1.597
			v-6.803c0-1.018,0.531-1.527,1.598-1.527H604.509z"/>
		<path fill="#2D364D" d="M678.964,107.099c5.322,0,9.141,1.204,11.455,3.61c2.313,2.406,3.471,5.97,3.471,10.689v3.957
			c0,3.98-0.811,7.127-2.43,9.44c-1.621,2.314-4.26,3.795-7.914,4.442l11.871,14.717c0.23,0.232,0.299,0.579,0.207,1.041
			c-0.094,0.463-0.463,0.694-1.109,0.694h-8.955c-0.602,0-1.02-0.069-1.25-0.208c-0.232-0.139-0.463-0.37-0.693-0.694
			l-10.969-14.438h-22.422v13.813c0,1.019-0.51,1.527-1.527,1.527h-7.496c-1.064,0-1.598-0.509-1.598-1.527v-44.981
			c0-1.389,0.695-2.083,2.084-2.083H678.964z M650.226,131.881h26.588c2.359,0,4.025-0.509,4.996-1.527
			c0.973-1.018,1.459-2.568,1.459-4.651v-2.915c0-2.082-0.486-3.633-1.459-4.651c-0.971-1.017-2.637-1.526-4.996-1.526h-25.686
			c-0.602,0-0.902,0.277-0.902,0.833V131.881z"/>
		<path fill="#2D364D" d="M737.53,107.099c1.018,0,1.527,0.51,1.527,1.527v27.697c0,1.852,0.15,3.391,0.451,4.616
			c0.301,1.227,0.799,2.198,1.492,2.915c0.695,0.719,1.633,1.228,2.813,1.527c1.18,0.302,2.672,0.451,4.477,0.451h19.229
			c1.805,0,3.297-0.149,4.477-0.451c1.182-0.3,2.117-0.809,2.813-1.527c0.693-0.717,1.18-1.688,1.457-2.915
			c0.277-1.226,0.416-2.765,0.416-4.616v-27.697c0-1.018,0.51-1.527,1.527-1.527h7.566c1.018,0,1.527,0.51,1.527,1.527v28.738
			c0,3.332-0.346,6.167-1.041,8.504c-0.693,2.337-1.816,4.234-3.367,5.692c-1.551,1.457-3.563,2.511-6.039,3.158
			c-2.475,0.648-5.473,0.972-8.988,0.972h-19.992c-3.518,0-6.502-0.323-8.955-0.972c-2.453-0.647-4.455-1.701-6.004-3.158
			c-1.551-1.458-2.686-3.355-3.402-5.692s-1.076-5.172-1.076-8.504v-28.738c0-1.018,0.531-1.527,1.598-1.527H737.53z"/>
		<path fill="#2D364D" d="M836.747,107.099c1.018,0,1.896,0.069,2.637,0.209c0.74,0.139,1.389,0.405,1.943,0.798
			c0.557,0.394,1.053,0.927,1.492,1.597c0.439,0.671,0.891,1.562,1.355,2.673l14.438,33.319c0.184,0.417,0.51,0.625,0.973,0.625
			h0.832c0.463,0,0.787-0.208,0.973-0.625l14.438-33.319c0.463-1.111,0.914-2.002,1.354-2.673c0.439-0.67,0.938-1.203,1.492-1.597
			c0.557-0.393,1.191-0.659,1.91-0.798c0.717-0.14,1.584-0.209,2.604-0.209h7.428c2.404,0,4.025,0.545,4.857,1.632
			c0.834,1.088,1.25,2.95,1.25,5.588v39.845c0,1.019-0.531,1.527-1.596,1.527h-7.08c-1.02,0-1.527-0.509-1.527-1.527v-36.235
			c0-0.462-0.186-0.694-0.557-0.694h-0.625c-0.463,0-0.764,0.186-0.902,0.556l-14.021,31.099c-0.555,1.249-1.123,2.303-1.701,3.158
			c-0.578,0.857-1.203,1.563-1.873,2.117c-0.672,0.556-1.436,0.949-2.291,1.181c-0.857,0.231-1.863,0.347-3.02,0.347h-3.332
			c-1.158,0-2.164-0.115-3.02-0.347c-0.857-0.231-1.621-0.625-2.291-1.181c-0.672-0.555-1.297-1.26-1.875-2.117
			c-0.578-0.855-1.145-1.909-1.699-3.158l-14.023-31.099c-0.139-0.37-0.439-0.556-0.902-0.556h-0.625
			c-0.371,0-0.555,0.232-0.555,0.694v36.235c0,1.019-0.51,1.527-1.527,1.527h-7.08c-1.064,0-1.598-0.509-1.598-1.527v-39.845
			c0-2.638,0.418-4.5,1.25-5.588c0.834-1.087,2.475-1.632,4.93-1.632H836.747z"/>
	</g>
	<g id="Symbol_-_Original_7_">
	</g>
	<g id="Symbol_-_Original_8_">
	</g>
	<g id="SYMBOL_VER_2-1-1">
	</g>
	<g id="SYMBOL_VER_2-2-1">
	</g>
	<g id="SYMBOL_VER_2-3-1">
	</g>
	<g id="SYMBOL_VER_5-1_1_">
	</g>
	<g id="SYMBOL_VER_5-1">
	</g>
	<g id="SYMBOL_VER_5-2_1_">
	</g>
	<g id="SYMBOL_VER_5-2">
	</g>
	<g id="Symbol_-_Monochromatic_1_">
		<g id="_x33__4_">
		</g>
	</g>
</g>
</svg>
