<svg width="20" height="20" viewBox="0 0 20 20" fill="none" xmlns="http://www.w3.org/2000/svg">
<path fill-rule="evenodd" clip-rule="evenodd" d="M13.7501 5.83325H6.25008C5.79008 5.83325 5.41675 6.20659 5.41675 6.66659V7.49992C5.41675 7.95992 5.79008 8.33325 6.25008 8.33325H13.7501C14.2101 8.33325 14.5834 7.95992 14.5834 7.49992V6.66659C14.5834 6.20659 14.2101 5.83325 13.7501 5.83325Z" stroke="#31CB9E" stroke-linecap="round" stroke-linejoin="round"/>
<path d="M12.9924 5.83336L13.8224 4.17336C14.3508 3.11669 13.2533 1.98419 12.1808 2.47919L9.99993 3.48586L7.8191 2.47919C6.7466 1.98419 5.6491 3.11586 6.17743 4.17336L7.00743 5.83336" stroke="#31CB9E" stroke-linecap="round" stroke-linejoin="round"/>
<path d="M6.45823 8.33345L5.0274 10.6226C4.0099 12.251 4.11406 14.341 5.28906 15.8601V15.8601C6.1574 16.9835 7.4974 17.6401 8.9174 17.6401H11.0832C12.5024 17.6401 13.8424 16.9826 14.7107 15.8601V15.8601C15.8866 14.341 15.9907 12.251 14.9732 10.6218C14.5191 9.89429 14.0207 9.09762 13.5424 8.33179" stroke="#31CB9E" stroke-linecap="round" stroke-linejoin="round"/>
<path d="M10.3576 10.7142V10.1192" stroke="#FCD04D" stroke-linecap="round" stroke-linejoin="round"/>
<path d="M10.3576 14.2832V14.8782" stroke="#FCD04D" stroke-linecap="round" stroke-linejoin="round"/>
<path d="M9.32508 13.8584C9.47925 14.1109 9.74258 14.285 10.0601 14.285H10.3576H10.7117C11.1734 14.285 11.5467 13.9109 11.5467 13.45C11.5467 13.0667 11.2859 12.7325 10.9142 12.6392L9.79925 12.3592C9.42841 12.2659 9.16675 11.9317 9.16675 11.5484C9.16675 11.0867 9.54091 10.7134 10.0017 10.7134H10.3559H10.6534C10.9709 10.7134 11.2334 10.8867 11.3876 11.1384" stroke="#FCD04D" stroke-linecap="round" stroke-linejoin="round"/>
</svg>
