<svg width="20" height="21" viewBox="0 0 20 21" fill="none" xmlns="http://www.w3.org/2000/svg">
<path d="M17.3846 3.30768C18.1493 3.30768 18.7692 2.68777 18.7692 1.92307C18.7692 1.15837 18.1493 0.538452 17.3846 0.538452C16.6199 0.538452 16 1.15837 16 1.92307C16 2.68777 16.6199 3.30768 17.3846 3.30768Z" fill="#FCD884"/>
<path d="M8.38469 18.5385C8.76731 18.5385 9.077 18.8486 9.077 19.2308C9.077 19.6129 8.76731 19.9231 8.38469 19.9231C8.00254 19.9231 7.69238 19.6129 7.69238 19.2308C7.69238 18.8486 8.00254 18.5385 8.38469 18.5385Z" fill="#FCD884"/>
<path d="M2.61546 13.4615C3.12546 13.4615 3.53854 13.8751 3.53854 14.3846C3.53854 14.8946 3.12546 15.3077 2.61546 15.3077C2.10592 15.3077 1.69238 14.8946 1.69238 14.3846C1.69238 13.8751 2.10592 13.4615 2.61546 13.4615Z" fill="#FCD884"/>
<path d="M6.62242 3.94227C6.6155 5.09612 7.08119 6.1475 7.84319 6.91965C7.07058 6.15811 6.01965 5.69196 4.86581 5.69888C4.73012 5.69981 4.59535 5.70673 4.46242 5.72058C4.30319 5.60011 4.15135 5.46765 4.00735 5.32181C3.0815 4.38442 2.65319 3.10181 2.79304 1.86811C4.03042 1.74488 5.33658 2.16304 6.26242 3.10135C6.40135 3.24211 6.52827 3.39073 6.64319 3.54535H6.64365C6.63027 3.67642 6.62335 3.80888 6.62242 3.94227Z" fill="#FCD884"/>
<path d="M8.20659 0.641846C9.16843 1.42969 9.79613 2.64908 9.78736 3.96677C9.78459 4.41954 9.7094 4.85569 9.57187 5.26415C9.31017 6.04369 8.82233 6.72354 8.18494 7.23123C8.0654 7.13338 7.9514 7.02954 7.8434 6.91969C7.0814 6.14754 6.61571 5.09615 6.62263 3.94231C6.62356 3.80892 6.63048 3.67646 6.64387 3.54538C6.7569 2.38415 7.33336 1.33692 8.20659 0.641846Z" fill="#E2B23B"/>
<path d="M10.5635 9.6405C10.6733 9.7485 10.7772 9.8625 10.875 9.98203C10.3673 10.6194 9.68751 11.1068 8.90793 11.369C8.499 11.506 8.06331 11.5817 7.61008 11.5845C6.29285 11.5928 5.07346 10.9651 4.28516 10.0037C4.77439 9.38988 5.43716 8.92234 6.19131 8.65973C6.6307 8.50604 7.10146 8.4225 7.58654 8.41927C8.74039 8.41234 9.79085 8.8785 10.5635 9.6405Z" fill="#E2B23B"/>
<path d="M13.6476 6.08289C14.6094 6.87073 15.237 8.09012 15.2283 9.40781C15.2255 9.86058 15.1503 10.2967 15.0132 10.7052C14.7511 11.4847 14.2637 12.1646 13.6258 12.6723C13.5063 12.5744 13.3923 12.4706 13.2843 12.3607C12.5223 11.5886 12.0566 10.5371 12.0636 9.38335C12.0668 8.89827 12.1503 8.42796 12.304 7.98858C12.5666 7.23442 13.0337 6.57166 13.6476 6.08289Z" fill="#E2B23B"/>
<path d="M16.0041 15.0806C16.114 15.1886 16.2178 15.3026 16.3157 15.4222C15.5421 16.3937 14.3689 17.0168 13.0508 17.025C11.7335 17.0334 10.5141 16.4057 9.72583 15.4443C10.2151 14.83 10.8778 14.3624 11.632 14.1003C12.0714 13.9466 12.5417 13.863 13.0268 13.8598C14.1806 13.8529 15.2315 14.3191 16.0041 15.0806Z" fill="#E2B23B"/>
<path d="M16.3673 8.80273C17.3291 9.59058 17.9568 10.81 17.948 12.1277C17.9402 13.4454 17.3171 14.6186 16.3456 15.3921C16.226 15.2943 16.112 15.1904 16.004 15.0806C15.242 14.3084 14.7764 13.257 14.7833 12.1032C14.7865 11.6186 14.87 11.1483 15.0237 10.7089C15.2859 9.95473 15.7534 9.2915 16.3673 8.80273Z" fill="#FFD24D"/>
<path d="M13.2844 12.3607C13.3943 12.4687 13.4981 12.5827 13.596 12.7022C13.0883 13.3397 12.4084 13.8275 11.6284 14.0897C11.2199 14.2267 10.7843 14.3024 10.331 14.3052C9.0138 14.3135 7.79441 13.6858 7.0061 12.7244C7.49487 12.1101 8.1581 11.643 8.9118 11.3804C9.35164 11.2267 9.82195 11.1432 10.307 11.14C11.4613 11.133 12.5118 11.5992 13.2844 12.3607Z" fill="#FFD24D"/>
<path d="M10.9268 3.36218C11.8887 4.15003 12.5168 5.36941 12.5076 6.68711C12.5053 7.13988 12.4296 7.57603 12.2925 7.98449C12.0308 8.76403 11.543 9.44388 10.9056 9.95157C10.7861 9.85372 10.672 9.74988 10.5641 9.64003C9.80161 8.86788 9.33638 7.81695 9.34284 6.66311C9.34607 6.17803 9.42961 5.70772 9.5833 5.26834C9.84592 4.51418 10.313 3.85095 10.9268 3.36218Z" fill="#FFD24D"/>
<path d="M7.84325 6.9197C7.9531 7.0277 8.05694 7.1417 8.15479 7.26124C7.6471 7.89862 6.96725 8.38647 6.18771 8.64862C5.77879 8.7857 5.3431 8.86139 4.88986 8.86416C3.57263 8.87247 2.35325 8.24477 1.56494 7.28339C2.2591 6.41108 3.30402 5.83554 4.46248 5.72062C4.5954 5.70677 4.73017 5.69985 4.86586 5.69893C6.01971 5.69201 7.07063 6.15816 7.84325 6.9197Z" fill="#FFD24D"/>
<path d="M17.8226 5.93106C17.8388 5.97952 17.8466 6.02844 17.8466 6.07691C17.8466 6.27029 17.7239 6.45029 17.5305 6.51491C17.4825 6.53106 17.4331 6.53844 17.3851 6.53844C17.1918 6.53844 17.0112 6.41614 16.9471 6.22275C16.9309 6.17429 16.9231 6.12491 16.9231 6.07644C16.9231 5.88352 17.0454 5.70352 17.2388 5.63891C17.4806 5.5586 17.7419 5.68921 17.8226 5.93106Z" fill="black"/>
<path d="M17.8226 19.3157C17.8388 19.3642 17.8466 19.4131 17.8466 19.4615C17.8466 19.6549 17.7239 19.8349 17.5305 19.8995C17.4825 19.9157 17.4331 19.9231 17.3851 19.9231C17.1918 19.9231 17.0112 19.8008 16.9471 19.6074C16.9309 19.5589 16.9231 19.5095 16.9231 19.4611C16.9231 19.2681 17.0454 19.0882 17.2388 19.0235C17.4806 18.9432 17.7419 19.0739 17.8226 19.3157Z" fill="black"/>
<path d="M13.6688 0.392608C13.685 0.441069 13.6928 0.489992 13.6928 0.538454C13.6928 0.731838 13.5701 0.911838 13.3767 0.976454C13.3287 0.992607 13.2793 0.999992 13.2313 0.999992C13.0379 0.999992 12.8574 0.877684 12.7933 0.6843C12.7771 0.635838 12.7693 0.586454 12.7693 0.537992C12.7693 0.345069 12.8916 0.165069 13.085 0.100454C13.3268 0.0201459 13.5881 0.150761 13.6688 0.392608Z" fill="black"/>
<path d="M7.20716 16.0849C7.22331 16.1333 7.23116 16.1823 7.23116 16.2307C7.23116 16.4241 7.10839 16.6041 6.915 16.6687C6.86654 16.6849 6.81762 16.6923 6.76916 16.6923C6.57577 16.6923 6.39577 16.5699 6.33116 16.3766C6.315 16.3281 6.30762 16.2792 6.30762 16.2307C6.30762 16.0373 6.42992 15.8573 6.62331 15.7927C6.86516 15.7124 7.12639 15.843 7.20716 16.0849Z" fill="black"/>
<path d="M2.13025 9.62344C2.14641 9.6719 2.15425 9.72083 2.15425 9.76929C2.15425 9.96267 2.03148 10.1427 1.8381 10.2073C1.78964 10.2234 1.74071 10.2308 1.69225 10.2308C1.49887 10.2308 1.31887 10.1085 1.25425 9.91514C1.2381 9.86667 1.23071 9.81775 1.23071 9.76929C1.23071 9.5759 1.35302 9.3959 1.54641 9.33129C1.78825 9.25098 2.04948 9.3816 2.13025 9.62344Z" fill="black"/>
<path d="M1.66883 1.31571C1.68498 1.36417 1.69236 1.4131 1.69236 1.46156C1.69236 1.65494 1.57006 1.83494 1.37667 1.89956C1.32821 1.91571 1.27883 1.92356 1.23083 1.92356C1.03744 1.92356 0.857441 1.80079 0.792825 1.60787C0.776672 1.5594 0.769287 1.51048 0.769287 1.46202C0.769287 1.26863 0.891595 1.08817 1.08498 1.02402C1.32683 0.94325 1.58806 1.07387 1.66883 1.31571Z" fill="black"/>
<path d="M16.3457 15.8537C16.242 15.8537 16.1383 15.8188 16.0534 15.7493C15.9207 15.6406 15.7934 15.5246 15.675 15.4041C14.7952 14.5126 14.3145 13.3391 14.3219 12.1005C14.3254 11.5709 14.415 11.0516 14.5882 10.5565C14.8796 9.71818 15.3956 8.98659 16.08 8.44165C16.25 8.30624 16.4916 8.30785 16.6599 8.44567C17.7649 9.35079 18.419 10.7284 18.4097 12.1307C18.4013 13.5405 17.7538 14.861 16.6332 15.7532C16.5491 15.8202 16.4473 15.8537 16.3457 15.8537ZM16.3638 9.42214C15.9599 9.82091 15.6506 10.3118 15.4598 10.8605C15.32 11.2602 15.2478 11.6791 15.2449 12.1064C15.239 13.0983 15.6253 14.0396 16.3327 14.7564C16.3385 14.7623 16.3443 14.7682 16.3501 14.7741C17.0708 14.0724 17.4807 13.1263 17.4866 12.125C17.4933 11.126 17.0792 10.1415 16.3638 9.42214Z" fill="black"/>
<path d="M13.0251 17.4867C11.6341 17.4867 10.2674 16.8325 9.36903 15.7369C9.23108 15.5687 9.22937 15.3269 9.36493 15.1567C9.91037 14.4719 10.642 13.9558 11.4806 13.6644C11.9748 13.4915 12.4943 13.4018 13.0238 13.3983L13.0522 13.3982C14.2792 13.3982 15.4426 13.879 16.3282 14.7519C16.4484 14.87 16.5646 14.9973 16.673 15.1298C16.8106 15.2981 16.8123 15.5395 16.6769 15.7096C15.7848 16.83 14.4643 17.4777 13.0538 17.4866L13.0251 17.4867ZM10.3455 15.4405C11.0594 16.1495 12.0353 16.5636 13.0251 16.5636L13.048 16.5635C14.0497 16.5572 14.996 16.1472 15.6977 15.4265C15.692 15.4209 15.6863 15.4153 15.6807 15.4097C14.9684 14.7077 14.0351 14.3213 13.0521 14.3213L13.0296 14.3214C12.6024 14.3242 12.1834 14.3964 11.7845 14.5359C11.2355 14.7267 10.7446 15.0363 10.3455 15.4405Z" fill="black"/>
<path d="M13.6259 13.1339C13.5222 13.1339 13.4186 13.099 13.3336 13.0295C13.201 12.9209 13.0738 12.8048 12.9553 12.6843C12.0755 11.7927 11.5947 10.6192 11.6021 9.38059C11.6057 8.85079 11.6953 8.33128 11.8685 7.83619C12.1605 6.99767 12.6764 6.26631 13.3602 5.72184C13.5304 5.58638 13.7719 5.58799 13.9402 5.72585C15.0451 6.63098 15.6993 8.00853 15.69 9.41087C15.6869 9.90342 15.6065 10.3884 15.4509 10.852C15.1632 11.7076 14.6316 12.4618 13.9134 13.0334C13.8292 13.1005 13.7275 13.1339 13.6259 13.1339ZM13.644 6.70233C13.2405 7.10087 12.9311 7.59162 12.7399 8.14044C12.6002 8.5399 12.528 8.95893 12.5252 9.3865C12.5192 10.3784 12.9055 11.3197 13.6129 12.0366C13.6187 12.0425 13.6245 12.0484 13.6304 12.0543C14.062 11.6343 14.3858 11.1234 14.5758 10.5582C14.7001 10.1878 14.7644 9.79971 14.7669 9.40505C14.7735 8.40619 14.3594 7.42168 13.644 6.70233Z" fill="black"/>
<path d="M10.3051 14.7668C8.91416 14.7668 7.54745 14.1127 6.64907 13.0171C6.51116 12.8489 6.5094 12.6073 6.64482 12.4371C7.18897 11.7532 7.92033 11.2371 8.75982 10.9446C9.2551 10.7715 9.7747 10.682 10.3039 10.6784L10.3323 10.6783C11.5592 10.6783 12.7226 11.1591 13.6083 12.032C13.7284 12.1501 13.8444 12.2773 13.953 12.4099C14.0907 12.5782 14.0923 12.8197 13.9569 12.9898C13.3848 13.7081 12.6304 14.2398 11.7754 14.5272C11.3106 14.6832 10.8256 14.7637 10.3338 14.7667L10.3051 14.7668ZM7.62545 12.7206C8.33936 13.4296 9.31533 13.8438 10.3051 13.8438L10.328 13.8437C10.7218 13.8412 11.1099 13.7768 11.4815 13.6521C12.0464 13.4623 12.5574 13.1384 12.9777 12.7067C12.972 12.7011 12.9664 12.6955 12.9607 12.6899C12.2484 11.9879 11.3152 11.6015 10.3324 11.6015L10.3098 11.6016C9.8827 11.6044 9.46348 11.6766 9.06397 11.8162C8.51465 12.0075 8.0238 12.317 7.62545 12.7206Z" fill="black"/>
<path d="M10.9055 10.4131C10.8018 10.4131 10.6981 10.3783 10.6131 10.3087C10.4805 10.2001 10.3532 10.084 10.2348 9.96358C9.35522 9.07281 8.87425 7.89949 8.88118 6.66053C8.88473 6.1306 8.97436 5.61109 9.14753 5.11595C9.43969 4.27696 9.95555 3.54547 10.6392 3.00113C10.8094 2.86567 11.0509 2.86729 11.2192 3.00515C12.3247 3.91069 12.9789 5.28833 12.969 6.69035C12.9665 7.18092 12.8861 7.66604 12.7299 8.13132C12.4431 8.98595 11.9116 9.7402 11.193 10.3126C11.1088 10.3797 11.0071 10.4131 10.9055 10.4131ZM10.9232 3.98158C10.5197 4.38012 10.2103 4.87106 10.0191 5.4201C9.8793 5.81966 9.80707 6.23869 9.80425 6.66621C9.79872 7.65838 10.1851 8.59955 10.8923 9.31576C10.8981 9.32167 10.904 9.32758 10.9099 9.33344C11.3416 8.91312 11.6653 8.40229 11.8549 7.8376C11.9797 7.46569 12.044 7.07781 12.046 6.68477C12.053 5.68567 11.6389 4.70116 10.9232 3.98158Z" fill="black"/>
<path d="M7.5844 12.0461C6.19346 12.0461 4.82675 11.3919 3.92837 10.2963C3.79037 10.1281 3.7887 9.88623 3.92435 9.71606C4.46961 9.03183 5.2011 8.51587 6.03967 8.22381C6.53421 8.05083 7.05391 7.96124 7.58361 7.95769L7.612 7.95764C8.83886 7.95764 10.0022 8.43856 10.8877 9.31184C11.0078 9.4299 11.1239 9.5572 11.2324 9.68975C11.37 9.85803 11.3716 10.0995 11.2362 10.2696C10.6643 10.9875 9.91018 11.5189 9.05518 11.8064C8.58977 11.9624 8.10474 12.043 7.61306 12.046L7.5844 12.0461ZM4.90494 10C5.6188 10.7089 6.59477 11.123 7.5844 11.123L7.60729 11.1229C8.00098 11.1205 8.38927 11.056 8.76132 10.9313C9.32601 10.7415 9.83684 10.4178 10.2569 9.98633C10.2513 9.98075 10.2457 9.97512 10.24 9.96958C9.52784 9.26721 8.59471 8.88072 7.612 8.88072L7.58943 8.88077C7.16195 8.88363 6.74274 8.95577 6.34383 9.09533C5.79492 9.2865 5.30398 9.59606 4.90494 10Z" fill="black"/>
<path d="M4.46212 6.18211C4.36511 6.18211 4.26736 6.15165 4.18405 6.08865C4.00552 5.95365 3.83563 5.80476 3.67899 5.64608C2.67994 4.63458 2.17732 3.20279 2.33452 1.81615C2.35903 1.60005 2.531 1.43044 2.74742 1.40888C4.169 1.26719 5.60591 1.77885 6.59106 2.77716C6.74254 2.93071 6.88474 3.0965 7.01369 3.26999C7.16577 3.47459 7.12322 3.7637 6.91862 3.91573C6.71406 4.06781 6.42491 4.02525 6.27288 3.82065C6.16945 3.6815 6.0554 3.54853 5.93397 3.42544C5.23262 2.71467 4.24354 2.31138 3.22908 2.30851C3.2252 3.29482 3.62439 4.27716 4.3358 4.99739C4.46143 5.12464 4.59772 5.24404 4.74094 5.35241C4.94425 5.50619 4.98435 5.79567 4.83057 5.99893C4.73979 6.11898 4.60179 6.18211 4.46212 6.18211Z" fill="black"/>
<path d="M8.18482 7.69272C8.08111 7.69272 7.97745 7.65787 7.89253 7.58837C7.75988 7.47981 7.63259 7.36369 7.51416 7.24318C6.63433 6.35167 6.15359 5.17817 6.16097 3.93949C6.16199 3.79027 6.16997 3.64203 6.1846 3.49853C6.30774 2.2336 6.94005 1.06 7.91911 0.280688C8.08928 0.145319 8.3308 0.147027 8.49899 0.28475C9.604 1.18987 10.2581 2.56747 10.2488 3.96981C10.2458 4.46297 10.1652 4.94809 10.0092 5.41138C9.72239 6.2656 9.19093 7.01984 8.4724 7.59215C8.38817 7.65926 8.28649 7.69272 8.18482 7.69272ZM8.20305 1.26137C7.58473 1.87323 7.18951 2.70261 7.10306 3.5901C7.09116 3.70683 7.08479 3.82567 7.084 3.94549C7.07805 4.93738 7.46436 5.87864 8.17176 6.59546C8.17753 6.60132 8.18334 6.60718 8.18916 6.61304C8.62097 6.19272 8.9446 5.68189 9.1342 5.11724C9.25896 4.74681 9.32334 4.35889 9.3257 3.96395C9.33239 2.96513 8.91834 1.98067 8.20305 1.26137Z" fill="black"/>
<path d="M4.86393 9.32575C3.473 9.32575 2.10629 8.67166 1.2079 7.57601C1.07 7.40778 1.06824 7.16617 1.20366 6.996C1.98107 6.01906 3.15218 5.38675 4.41675 5.2613C4.55844 5.24653 4.70918 5.23841 4.86255 5.2374L4.89103 5.2373C6.11798 5.2373 7.28143 5.71804 8.16707 6.59095C8.28726 6.70915 8.40333 6.8364 8.51175 6.96886C8.64947 7.13714 8.65109 7.37866 8.51558 7.54874C7.94346 8.26703 7.1893 8.79858 6.33463 9.08603C5.86912 9.24203 5.38409 9.32261 4.89246 9.32561L4.86393 9.32575ZM2.18452 7.2797C2.89838 7.98863 3.8743 8.40267 4.86393 8.40267L4.88683 8.40258C5.28052 8.40018 5.66876 8.3357 6.0409 8.211C6.60541 8.02112 7.11624 7.6974 7.53652 7.26558C7.53084 7.25995 7.52516 7.25432 7.51949 7.24873C6.80729 6.54678 5.87396 6.16038 4.89103 6.16038L4.86846 6.16043C4.74518 6.16126 4.62444 6.16772 4.51007 6.17963C3.62272 6.26769 2.795 6.6629 2.18452 7.2797Z" fill="black"/>
<path d="M17.6409 17.2087C17.5227 17.2087 17.4046 17.1636 17.3145 17.0735L15.9894 15.7485C15.8092 15.5682 15.8092 15.276 15.9894 15.0957C16.1697 14.9155 16.4619 14.9155 16.6422 15.0957L17.9673 16.4208C18.1475 16.601 18.1475 16.8933 17.9673 17.0735C17.8771 17.1637 17.759 17.2087 17.6409 17.2087Z" fill="black"/>
<path d="M2.61533 15.7692C1.85185 15.7692 1.23071 15.1481 1.23071 14.3846C1.23071 13.6211 1.85185 13 2.61533 13C3.37881 13 3.99994 13.6211 3.99994 14.3846C3.99994 15.1481 3.37881 15.7692 2.61533 15.7692ZM2.61533 13.9231C2.36084 13.9231 2.15379 14.1301 2.15379 14.3846C2.15379 14.6391 2.36084 14.8462 2.61533 14.8462C2.86982 14.8462 3.07687 14.6391 3.07687 14.3846C3.07687 14.1301 2.86982 13.9231 2.61533 13.9231Z" fill="black"/>
<path d="M8.38456 20.3846C7.74833 20.3846 7.23071 19.867 7.23071 19.2308C7.23071 18.5945 7.74833 18.0769 8.38456 18.0769C9.02079 18.0769 9.53841 18.5945 9.53841 19.2308C9.53841 19.867 9.02079 20.3846 8.38456 20.3846ZM8.38456 19C8.25731 19 8.15379 19.1035 8.15379 19.2308C8.15379 19.358 8.25731 19.4615 8.38456 19.4615C8.51181 19.4615 8.61533 19.358 8.61533 19.2308C8.61533 19.1035 8.51181 19 8.38456 19Z" fill="black"/>
<path d="M17.3847 3.76921C16.3668 3.76921 15.5386 2.94103 15.5386 1.92306C15.5386 0.905089 16.3668 0.0769043 17.3847 0.0769043C18.4027 0.0769043 19.2309 0.905089 19.2309 1.92306C19.2309 2.94103 18.4027 3.76921 17.3847 3.76921ZM17.3847 0.999981C16.8757 0.999981 16.4617 1.41407 16.4617 1.92306C16.4617 2.43204 16.8757 2.84614 17.3847 2.84614C17.8937 2.84614 18.3078 2.43204 18.3078 1.92306C18.3078 1.41407 17.8937 0.999981 17.3847 0.999981Z" fill="black"/>
</svg>
