<svg width="32" height="32" viewBox="0 0 32 32" fill="none" xmlns="http://www.w3.org/2000/svg">
<path d="M6.15385 7.07707C5.13424 7.07707 4.30769 6.25052 4.30769 5.23092C4.30769 4.21132 5.13424 3.38477 6.15385 3.38477C7.17345 3.38477 8 4.21132 8 5.23092C8 6.25052 7.17345 7.07707 6.15385 7.07707Z" fill="#FCD884"/>
<path d="M18.1538 27.3848C17.6437 27.3848 17.2308 27.7983 17.2308 28.3078C17.2308 28.8174 17.6437 29.2309 18.1538 29.2309C18.6634 29.2309 19.0769 28.8174 19.0769 28.3078C19.0769 27.7983 18.6634 27.3848 18.1538 27.3848Z" fill="#FCD884"/>
<path d="M25.8461 20.6157C25.1661 20.6157 24.6154 21.1671 24.6154 21.8465C24.6154 22.5265 25.1661 23.0773 25.8461 23.0773C26.5255 23.0773 27.0769 22.5265 27.0769 21.8465C27.0769 21.1671 26.5255 20.6157 25.8461 20.6157Z" fill="#FCD884"/>
<path d="M20.5034 7.92303C20.5126 9.46149 19.8917 10.8633 18.8757 11.8929C19.9058 10.8775 21.307 10.2559 22.8455 10.2652C23.0264 10.2664 23.2061 10.2756 23.3834 10.2941C23.5957 10.1335 23.7981 9.95687 23.9901 9.76241C25.2246 8.51256 25.7957 6.80241 25.6092 5.15749C23.9594 4.99318 22.2178 5.55072 20.9834 6.80179C20.7981 6.98949 20.6289 7.18764 20.4757 7.39379H20.475C20.4929 7.56856 20.5021 7.74518 20.5034 7.92303Z" fill="#FCD884"/>
<path d="M18.3914 3.52246C17.1089 4.57292 16.272 6.19877 16.2837 7.95569C16.2874 8.55938 16.3876 9.14092 16.571 9.68554C16.9199 10.7249 17.5704 11.6314 18.4202 12.3083C18.5796 12.1778 18.7316 12.0394 18.8756 11.8929C19.8916 10.8634 20.5125 9.46154 20.5033 7.92308C20.5021 7.74523 20.4929 7.56861 20.475 7.39385C20.3243 5.84554 19.5557 4.44923 18.3914 3.52246Z" fill="#E2B23B"/>
<path d="M15.2486 15.5205C15.1021 15.6645 14.9636 15.8165 14.8332 15.9759C15.5101 16.8257 16.4165 17.4756 17.4559 17.8251C18.0012 18.0079 18.5821 18.1087 19.1864 18.1125C20.9427 18.1236 22.5686 17.2867 23.6196 16.0048C22.9673 15.1863 22.0836 14.563 21.0781 14.2128C20.4922 14.0079 19.8646 13.8965 19.2178 13.8922C17.6793 13.883 16.2787 14.5045 15.2486 15.5205Z" fill="#E2B23B"/>
<path d="M11.1367 10.7773C9.85421 11.8278 9.01735 13.4537 9.02898 15.2106C9.03274 15.8143 9.13298 16.3958 9.31575 16.9404C9.66529 17.9798 10.3151 18.8863 11.1657 19.5632C11.325 19.4327 11.477 19.2943 11.621 19.1478C12.637 18.1183 13.258 16.7164 13.2487 15.178C13.2444 14.5312 13.133 13.9041 12.9281 13.3183C12.5779 12.3127 11.9551 11.429 11.1367 10.7773Z" fill="#E2B23B"/>
<path d="M7.9944 22.7743C7.84794 22.9183 7.70948 23.0703 7.57902 23.2297C8.6104 24.5251 10.1747 25.3559 11.9322 25.3669C13.6886 25.378 15.3144 24.541 16.3655 23.2592C15.7131 22.4401 14.8295 21.8167 13.8239 21.4672C13.238 21.2623 12.611 21.1509 11.9642 21.1466C10.4258 21.1374 9.02455 21.759 7.9944 22.7743Z" fill="#E2B23B"/>
<path d="M7.51021 14.4038C6.22775 15.4543 5.39083 17.0801 5.40252 18.837C5.41298 20.594 6.24375 22.1583 7.53914 23.1897C7.69852 23.0592 7.85058 22.9207 7.99452 22.7743C9.01052 21.7447 9.63144 20.3429 9.62221 18.8044C9.61791 18.1583 9.50652 17.5312 9.3016 16.9453C8.95206 15.9398 8.32868 15.0555 7.51021 14.4038Z" fill="#FFD24D"/>
<path d="M11.6209 19.1478C11.4744 19.2918 11.3359 19.4438 11.2055 19.6031C11.8824 20.453 12.7889 21.1034 13.8289 21.453C14.3735 21.6358 14.9544 21.7367 15.5587 21.7404C17.315 21.7515 18.9409 20.9146 19.9919 19.6327C19.3403 18.8136 18.4559 18.1908 17.451 17.8407C16.8646 17.6358 16.2375 17.5244 15.5907 17.5201C14.0516 17.5109 12.651 18.1324 11.6209 19.1478Z" fill="#FFD24D"/>
<path d="M14.7644 7.14941C13.4819 8.19988 12.6444 9.82572 12.6567 11.5826C12.6598 12.1863 12.7607 12.7679 12.9435 13.3125C13.2924 14.3519 13.9428 15.2583 14.7927 15.9353C14.9521 15.8048 15.1041 15.6663 15.2481 15.5199C16.2647 14.4903 16.885 13.0891 16.8764 11.5506C16.8721 10.9039 16.7607 10.2768 16.5558 9.69095C16.2056 8.68541 15.5828 7.80111 14.7644 7.14941Z" fill="#FFD24D"/>
<path d="M18.8757 11.8929C18.7293 12.0369 18.5908 12.1889 18.4604 12.3483C19.1373 13.1982 20.0437 13.8486 21.0831 14.1982C21.6284 14.3809 22.2093 14.4819 22.8136 14.4855C24.5699 14.4966 26.1957 13.6597 27.2468 12.3779C26.3213 11.2148 24.9281 10.4474 23.3834 10.2942C23.2062 10.2757 23.0265 10.2665 22.8456 10.2652C21.3071 10.256 19.9059 10.8775 18.8757 11.8929Z" fill="#FFD24D"/>
<path d="M5.5699 10.5749C5.54837 10.6395 5.5379 10.7048 5.5379 10.7694C5.5379 11.0272 5.7016 11.2672 5.95944 11.3534C6.02344 11.3749 6.08929 11.3848 6.15329 11.3848C6.41107 11.3848 6.65175 11.2217 6.73729 10.9638C6.75883 10.8992 6.76929 10.8334 6.76929 10.7688C6.76929 10.5115 6.60621 10.2715 6.34836 10.1854C6.0259 10.0783 5.6776 10.2524 5.5699 10.5749Z" fill="black"/>
<path d="M5.5699 28.4211C5.54837 28.4857 5.5379 28.5509 5.5379 28.6156C5.5379 28.8734 5.7016 29.1134 5.95944 29.1996C6.02344 29.2211 6.08929 29.2309 6.15329 29.2309C6.41107 29.2309 6.65175 29.0679 6.73729 28.81C6.75883 28.7454 6.76929 28.6796 6.76929 28.6149C6.76929 28.3577 6.60621 28.1177 6.34836 28.0316C6.0259 27.9245 5.6776 28.0986 5.5699 28.4211Z" fill="black"/>
<path d="M11.1082 3.19014C11.0867 3.25476 11.0762 3.31999 11.0762 3.3846C11.0762 3.64245 11.2399 3.88245 11.4978 3.9686C11.5618 3.99014 11.6276 3.99999 11.6916 3.99999C11.9494 3.99999 12.1901 3.83691 12.2756 3.57907C12.2972 3.51445 12.3076 3.44861 12.3076 3.38399C12.3076 3.12676 12.1445 2.88676 11.8867 2.8006C11.5642 2.69353 11.2159 2.86768 11.1082 3.19014Z" fill="black"/>
<path d="M19.7237 24.113C19.7022 24.1776 19.6917 24.2428 19.6917 24.3075C19.6917 24.5653 19.8554 24.8053 20.1132 24.8915C20.1779 24.913 20.2431 24.9228 20.3077 24.9228C20.5656 24.9228 20.8056 24.7598 20.8917 24.5019C20.9132 24.4373 20.9231 24.3721 20.9231 24.3075C20.9231 24.0496 20.76 23.8096 20.5022 23.7235C20.1797 23.6164 19.8314 23.7905 19.7237 24.113Z" fill="black"/>
<path d="M26.493 15.4978C26.4715 15.5624 26.461 15.6276 26.461 15.6922C26.461 15.9501 26.6247 16.1901 26.8825 16.2762C26.9472 16.2978 27.0124 16.3076 27.077 16.3076C27.3348 16.3076 27.5748 16.1445 27.661 15.8867C27.6825 15.8221 27.6924 15.7568 27.6924 15.6922C27.6924 15.4344 27.5293 15.1944 27.2715 15.1082C26.949 15.0011 26.6007 15.1753 26.493 15.4978Z" fill="black"/>
<path d="M27.1082 4.42079C27.0867 4.4854 27.0768 4.55063 27.0768 4.61525C27.0768 4.87309 27.2399 5.11309 27.4978 5.19925C27.5624 5.22079 27.6282 5.23125 27.6922 5.23125C27.9501 5.23125 28.1901 5.06755 28.2762 4.81032C28.2978 4.74571 28.3076 4.68048 28.3076 4.61586C28.3076 4.35802 28.1445 4.1174 27.8867 4.03186C27.5642 3.92417 27.2159 4.09832 27.1082 4.42079Z" fill="black"/>
<path d="M7.53898 23.8047C7.67725 23.8047 7.81547 23.7583 7.92876 23.6655C8.10568 23.5207 8.27541 23.3659 8.43319 23.2054C9.6063 22.0166 10.2473 20.4519 10.2374 18.8004C10.2327 18.0943 10.1132 17.4019 9.8823 16.7419C9.49375 15.6241 8.80581 14.6486 7.89332 13.922C7.66655 13.7415 7.34445 13.7436 7.12008 13.9274C5.64673 15.1342 4.77455 16.971 4.78698 18.8407C4.79818 20.7205 5.6615 22.4811 7.15565 23.6707C7.26784 23.7601 7.40347 23.8047 7.53898 23.8047ZM7.51485 15.2294C8.05338 15.7611 8.46581 16.4155 8.72021 17.1471C8.90661 17.6801 9.00291 18.2386 9.00667 18.8083C9.01461 20.1309 8.49953 21.386 7.55633 22.3417C7.54864 22.3496 7.54088 22.3574 7.53313 22.3652C6.57215 21.4297 6.02568 20.1682 6.01775 18.8331C6.00888 17.5012 6.56101 16.1884 7.51485 15.2294Z" fill="black"/>
<path d="M11.9667 25.9821C13.8213 25.9821 15.6436 25.1099 16.8414 23.6491C17.0254 23.4247 17.0277 23.1024 16.8469 22.8755C16.1197 21.9624 15.1442 21.2743 14.026 20.8857C13.367 20.6551 12.6744 20.5356 11.9684 20.5309L11.9306 20.5308C10.2946 20.5308 8.7433 21.1718 7.5625 22.3357C7.40225 22.4932 7.24742 22.6629 7.1028 22.8396C6.9193 23.0639 6.91708 23.3859 7.09763 23.6127C8.28705 25.1065 10.0478 25.9701 11.9285 25.982L11.9667 25.9821ZM15.5395 23.2538C14.5877 24.1991 13.2864 24.7513 11.9667 24.7513L11.9362 24.7512C10.6006 24.7428 9.33887 24.1961 8.4033 23.2352C8.4108 23.2277 8.41837 23.2202 8.42594 23.2128C9.37566 22.2767 10.6201 21.7615 11.9307 21.7615L11.9606 21.7617C12.5303 21.7655 13.089 21.8617 13.6208 22.0477C14.3528 22.3021 15.0074 22.7149 15.5395 23.2538Z" fill="black"/>
<path d="M11.1655 20.1783C11.3038 20.1783 11.442 20.1319 11.5553 20.0391C11.732 19.8944 11.9017 19.7396 12.0597 19.5789C13.2328 18.3901 13.8738 16.8255 13.8639 15.174C13.8592 14.4676 13.7397 13.7749 13.5088 13.1148C13.1194 11.9967 12.4315 11.0216 11.5198 10.2956C11.2929 10.115 10.9709 10.1172 10.7465 10.301C9.27325 11.5078 8.40107 13.3445 8.41344 15.2143C8.4175 15.8711 8.52476 16.5177 8.73221 17.1359C9.11578 18.2766 9.82464 19.2822 10.7822 20.0444C10.8945 20.1338 11.0301 20.1783 11.1655 20.1783ZM11.1414 11.6029C11.6795 12.1343 12.092 12.7887 12.3469 13.5204C12.5331 14.053 12.6294 14.6117 12.6332 15.1818C12.6412 16.5044 12.1261 17.7595 11.1829 18.7153C11.1752 18.7232 11.1674 18.7311 11.1596 18.7389C10.5841 18.1789 10.1524 17.4977 9.89898 16.7441C9.73326 16.2502 9.64753 15.7328 9.64427 15.2066C9.63541 13.8748 10.1876 12.5621 11.1414 11.6029Z" fill="black"/>
<path d="M15.5932 22.3556C17.4478 22.3556 19.2701 21.4834 20.4679 20.0226C20.6518 19.7983 20.6541 19.4762 20.4736 19.2493C19.748 18.3375 18.7729 17.6493 17.6536 17.2593C16.9932 17.0285 16.3004 16.9092 15.5949 16.9044L15.5569 16.9043C13.9211 16.9043 12.3698 17.5453 11.189 18.7092C11.0288 18.8666 10.8741 19.0363 10.7293 19.2131C10.5458 19.4374 10.5435 19.7595 10.7242 19.9863C11.487 20.944 12.4928 21.6529 13.6328 22.0361C14.2526 22.2441 14.8992 22.3515 15.555 22.3555L15.5932 22.3556ZM19.1661 19.6273C18.2142 20.5727 16.9129 21.1249 15.5931 21.1249L15.5626 21.1247C15.0376 21.1215 14.5202 21.0356 14.0247 20.8693C13.2715 20.6162 12.5901 20.1844 12.0298 19.6087C12.0373 19.6013 12.0448 19.5938 12.0523 19.5864C13.0021 18.6503 14.2464 18.1351 15.5568 18.1351L15.587 18.1353C16.1564 18.139 16.7154 18.2353 17.248 18.4214C17.9805 18.6765 18.6349 19.0892 19.1661 19.6273Z" fill="black"/>
<path d="M14.7925 16.5508C14.9308 16.5508 15.069 16.5044 15.1823 16.4116C15.3592 16.2668 15.529 16.112 15.6867 15.9514C16.8595 14.7637 17.5008 13.1993 17.4916 11.5474C17.4869 10.8408 17.3674 10.1481 17.1365 9.48793C16.7469 8.36929 16.0591 7.39396 15.1475 6.66818C14.9206 6.48756 14.5986 6.48972 14.3742 6.67353C12.9002 7.88092 12.028 9.71778 12.0411 11.5871C12.0445 12.2412 12.1517 12.8881 12.3599 13.5084C12.7424 14.6479 13.451 15.6536 14.4091 16.4168C14.5214 16.5062 14.657 16.5508 14.7925 16.5508ZM14.769 7.97544C15.3069 8.50683 15.7195 9.16141 15.9744 9.89347C16.1608 10.4262 16.2571 10.9849 16.2608 11.5549C16.2682 12.8778 15.753 14.1327 14.8101 15.0877C14.8023 15.0956 14.7945 15.1034 14.7867 15.1113C14.211 14.5508 13.7794 13.8697 13.5267 13.1168C13.3603 12.6209 13.2745 12.1037 13.2718 11.5797C13.2626 10.2476 13.8147 8.93489 14.769 7.97544Z" fill="black"/>
<path d="M19.2209 18.7281C21.0755 18.7281 22.8977 17.8559 24.0956 16.3951C24.2796 16.1708 24.2818 15.8483 24.1009 15.6214C23.3739 14.7091 22.3986 14.0212 21.2805 13.6317C20.6211 13.4011 19.9282 13.2817 19.2219 13.2769L19.1841 13.2769C17.5483 13.2769 15.9971 13.9181 14.8165 15.0825C14.6564 15.2399 14.5016 15.4096 14.3569 15.5863C14.1734 15.8107 14.1712 16.1327 14.3518 16.3594C15.1144 17.3167 16.1198 18.0252 17.2598 18.4085C17.8804 18.6165 18.5271 18.724 19.1827 18.728L19.2209 18.7281ZM22.7935 16C21.8417 16.9452 20.5404 17.4973 19.2209 17.4973L19.1904 17.4972C18.6654 17.494 18.1477 17.4081 17.6517 17.2418C16.8987 16.9886 16.2176 16.5571 15.6575 15.9818C15.665 15.9743 15.6725 15.9668 15.6801 15.9594C16.6296 15.0229 17.8738 14.5076 19.1841 14.5076L19.2142 14.5077C19.7841 14.5115 20.3431 14.6077 20.875 14.7938C21.6069 15.0487 22.2614 15.4614 22.7935 16Z" fill="black"/>
<path d="M23.3839 10.9095C23.5133 10.9095 23.6436 10.8689 23.7547 10.7849C23.9927 10.6049 24.2192 10.4063 24.4281 10.1948C25.7602 8.8461 26.4303 6.93706 26.2207 5.08819C26.188 4.80007 25.9587 4.57392 25.6702 4.54518C23.7747 4.35626 21.8589 5.03847 20.5453 6.36955C20.3434 6.57429 20.1538 6.79533 19.9818 7.02665C19.7791 7.29945 19.8358 7.68493 20.1086 7.88764C20.3813 8.09041 20.7669 8.03367 20.9696 7.76087C21.1075 7.57533 21.2595 7.39804 21.4215 7.23392C22.3566 6.28622 23.6754 5.7485 25.028 5.74469C25.0331 7.05976 24.5009 8.36955 23.5523 9.32985C23.3848 9.49952 23.2031 9.65872 23.0122 9.80321C22.7411 10.0083 22.6876 10.3942 22.8927 10.6652C23.0137 10.8253 23.1977 10.9095 23.3839 10.9095Z" fill="black"/>
<path d="M18.4203 12.9238C18.5586 12.9238 18.6968 12.8773 18.81 12.7846C18.9869 12.6399 19.1566 12.4851 19.3145 12.3244C20.4876 11.1357 21.1286 9.57105 21.1188 7.91948C21.1174 7.72053 21.1068 7.52287 21.0873 7.33154C20.9231 5.64496 20.08 4.08016 18.7746 3.04108C18.5477 2.86059 18.2257 2.86286 18.0014 3.0465C16.5281 4.25333 15.6559 6.09013 15.6683 7.95991C15.6723 8.61745 15.7798 9.26428 15.9878 9.882C16.3702 11.021 17.0788 12.0266 18.0369 12.7897C18.1492 12.8792 18.2848 12.9238 18.4203 12.9238ZM18.396 4.34865C19.2204 5.16446 19.7474 6.27031 19.8627 7.45363C19.8785 7.60927 19.887 7.76773 19.8881 7.92748C19.896 9.25 19.3809 10.505 18.4377 11.4608C18.43 11.4686 18.4223 11.4764 18.4145 11.4842C17.8388 10.9238 17.4073 10.2427 17.1545 9.48982C16.9881 8.99591 16.9023 8.47868 16.8992 7.9521C16.8902 6.62034 17.4423 5.30773 18.396 4.34865Z" fill="black"/>
<path d="M22.8478 15.1012C24.7024 15.1012 26.5247 14.229 27.7226 12.7682C27.9064 12.5439 27.9088 12.2217 27.7282 11.9948C26.6917 10.6922 25.1302 9.84916 23.4441 9.6819C23.2552 9.66221 23.0542 9.65138 22.8497 9.65003L22.8117 9.6499C21.1758 9.6499 19.6245 10.2909 18.4437 11.4548C18.2834 11.6124 18.1286 11.782 17.9841 11.9586C17.8005 12.183 17.7983 12.505 17.979 12.7318C18.7418 13.6895 19.7474 14.3983 20.8869 14.7815C21.5076 14.9895 22.1543 15.097 22.8098 15.101L22.8478 15.1012ZM26.4204 12.3731C25.4686 13.3183 24.1674 13.8704 22.8478 13.8704L22.8173 13.8703C22.2924 13.8671 21.7747 13.7811 21.2786 13.6148C20.5259 13.3617 19.8448 12.93 19.2844 12.3543C19.292 12.3468 19.2995 12.3393 19.3071 12.3318C20.2567 11.3959 21.5011 10.8807 22.8117 10.8807L22.8418 10.8807C23.0062 10.8818 23.1672 10.8905 23.3197 10.9063C24.5028 11.0237 25.6064 11.5507 26.4204 12.3731Z" fill="black"/>
<path d="M5.8122 25.6118C5.96974 25.6118 6.12715 25.5517 6.24734 25.4316L8.01411 23.6648C8.25441 23.4245 8.25441 23.0348 8.01411 22.7944C7.77374 22.5542 7.3842 22.5542 7.14377 22.7944L5.377 24.5612C5.13669 24.8015 5.13669 25.1912 5.377 25.4316C5.49724 25.5517 5.65472 25.6118 5.8122 25.6118Z" fill="black"/>
<path d="M25.8462 23.6923C26.8642 23.6923 27.6924 22.8641 27.6924 21.8462C27.6924 20.8282 26.8642 20 25.8462 20C24.8283 20 24.0001 20.8282 24.0001 21.8462C24.0001 22.8641 24.8283 23.6923 25.8462 23.6923ZM25.8462 21.2308C26.1856 21.2308 26.4616 21.5068 26.4616 21.8462C26.4616 22.1855 26.1856 22.4615 25.8462 22.4615C25.5069 22.4615 25.2308 22.1855 25.2308 21.8462C25.2308 21.5068 25.5069 21.2308 25.8462 21.2308Z" fill="black"/>
<path d="M18.1539 29.846C19.0022 29.846 19.6924 29.1558 19.6924 28.3075C19.6924 27.4592 19.0022 26.769 18.1539 26.769C17.3056 26.769 16.6155 27.4592 16.6155 28.3075C16.6155 29.1558 17.3056 29.846 18.1539 29.846ZM18.1539 27.9998C18.3236 27.9998 18.4616 28.1378 18.4616 28.3075C18.4616 28.4772 18.3236 28.6152 18.1539 28.6152C17.9843 28.6152 17.8462 28.4772 17.8462 28.3075C17.8462 28.1378 17.9843 27.9998 18.1539 27.9998Z" fill="black"/>
<path d="M6.15394 7.69212C7.51123 7.69212 8.61548 6.58787 8.61548 5.23058C8.61548 3.87329 7.51123 2.76904 6.15394 2.76904C4.79665 2.76904 3.6924 3.87329 3.6924 5.23058C3.6924 6.58787 4.79665 7.69212 6.15394 7.69212ZM6.15394 3.99981C6.83259 3.99981 7.38471 4.55194 7.38471 5.23058C7.38471 5.90923 6.83259 6.46135 6.15394 6.46135C5.47529 6.46135 4.92317 5.90923 4.92317 5.23058C4.92317 4.55194 5.47529 3.99981 6.15394 3.99981Z" fill="black"/>
</svg>
