<svg xmlns="http://www.w3.org/2000/svg" width="20" height="20" viewBox="0 0 20 20" fill="none">
    <g clip-path="url(#clip0_10090_3211)">
        <path
            d="M14.4873 2.75642C15.1246 2.75642 15.6412 2.23983 15.6412 1.60258C15.6412 0.965325 15.1246 0.44873 14.4873 0.44873C13.8501 0.44873 13.3335 0.965325 13.3335 1.60258C13.3335 2.23983 13.8501 2.75642 14.4873 2.75642Z"
            fill="#FCD884" />
        <path
            d="M3.84638 12.8848C4.27138 12.8848 4.61561 13.2294 4.61561 13.654C4.61561 14.079 4.27138 14.4232 3.84638 14.4232C3.42176 14.4232 3.07715 14.079 3.07715 13.654C3.07715 13.2294 3.42176 12.8848 3.84638 12.8848Z"
            fill="#FCD884" />
        <g opacity="0.6">
            <path
                d="M6.83907 2.20166C7.64061 2.8582 8.16368 3.87435 8.15638 4.97243C8.15407 5.34974 8.09141 5.7132 7.9768 6.05358C7.75872 6.7032 7.35218 7.26974 6.82103 7.69281C6.72141 7.61127 6.62641 7.52474 6.53641 7.4332C5.90141 6.78974 5.51334 5.91358 5.51911 4.95204C5.51988 4.84089 5.52565 4.73051 5.5368 4.62128C5.63099 3.65358 6.11138 2.78089 6.83907 2.20166Z"
                fill="#E2B23B" />
            <path
                d="M5.51893 4.95207C5.51316 5.91361 5.90124 6.78977 6.53624 7.43323C5.89239 6.79861 5.01662 6.41015 4.05508 6.41592C3.94201 6.41669 3.8297 6.42246 3.71893 6.434C3.58624 6.33361 3.4597 6.22323 3.3397 6.10169C2.56816 5.32053 2.21124 4.25169 2.32778 3.22361C3.35893 3.12092 4.44739 3.46938 5.21893 4.2513C5.3347 4.36861 5.44047 4.49246 5.53624 4.6213H5.53662C5.52547 4.73054 5.5197 4.84092 5.51893 4.95207Z"
                fill="#FCD884" />
            <path
                d="M8.80321 9.70062C8.89475 9.79062 8.98129 9.88562 9.06283 9.98523C8.63975 10.5164 8.07325 10.9225 7.4236 11.141C7.08283 11.2552 6.71975 11.3183 6.34206 11.3206C5.24437 11.3275 4.22821 10.8045 3.57129 10.0033C3.97898 9.49177 4.53129 9.10216 5.15975 8.88331C5.5259 8.75523 5.91821 8.68562 6.32244 8.68292C7.28398 8.67716 8.15937 9.06562 8.80321 9.70062Z"
                fill="#E2B23B" />
            <path
                d="M11.3733 6.73584C12.1748 7.39238 12.6979 8.40853 12.6906 9.50661C12.6882 9.88392 12.6256 10.2474 12.5114 10.5878C12.2929 11.2374 11.8867 11.8039 11.3552 12.227C11.2556 12.1455 11.1606 12.0589 11.0706 11.9674C10.4356 11.3239 10.0475 10.4477 10.0533 9.48622C10.056 9.08199 10.1256 8.69007 10.2537 8.32392C10.4725 7.69545 10.8617 7.14315 11.3733 6.73584Z"
                fill="#E2B23B" />
            <path
                d="M13.3369 14.234C13.4284 14.324 13.515 14.419 13.5965 14.5186C12.9519 15.3282 11.9742 15.8474 10.8758 15.8543C9.77806 15.8612 8.7619 15.3382 8.10498 14.537C8.51271 14.0251 9.06498 13.6355 9.69348 13.417C10.0596 13.2889 10.4516 13.2193 10.8558 13.2166C11.8173 13.2109 12.6931 13.5993 13.3369 14.234Z"
                fill="#E2B23B" />
            <path
                d="M13.6399 9.00244C14.4414 9.65898 14.9645 10.6751 14.9572 11.7732C14.9507 12.8713 14.4314 13.849 13.6218 14.4936C13.5222 14.4121 13.4272 14.3255 13.3372 14.234C12.7022 13.5905 12.3141 12.7144 12.3199 11.7528C12.3226 11.349 12.3922 10.9571 12.5203 10.5909C12.7387 9.96244 13.1283 9.40975 13.6399 9.00244Z"
                fill="#FFD24D" />
            <path
                d="M11.0708 11.9673C11.1623 12.0573 11.2489 12.1523 11.3304 12.2519C10.9073 12.7831 10.3408 13.1896 9.69079 13.4081C9.35037 13.5223 8.98733 13.5854 8.60964 13.5877C7.51194 13.5946 6.49579 13.0716 5.83887 12.2704C6.24617 11.7584 6.79887 11.3692 7.42694 11.1504C7.79348 11.0223 8.18541 10.9527 8.58964 10.95C9.55156 10.9442 10.4269 11.3327 11.0708 11.9673Z"
                fill="#FFD24D" />
            <path
                d="M9.10619 4.46851C9.90773 5.12504 10.4312 6.1412 10.4235 7.23928C10.4216 7.61658 10.3585 7.98004 10.2443 8.32043C10.0262 8.97005 9.61965 9.53658 9.0885 9.95966C8.98888 9.87812 8.89384 9.79158 8.80388 9.70004C8.1685 9.05658 7.7808 8.18081 7.78619 7.21928C7.78888 6.81504 7.8585 6.42312 7.98657 6.05697C8.20542 5.42851 8.59465 4.87581 9.10619 4.46851Z"
                fill="#FFD24D" />
            <path
                d="M6.53612 7.43314C6.62766 7.52314 6.7142 7.61814 6.79574 7.71776C6.37266 8.24891 5.80612 8.65545 5.15651 8.87391C4.81574 8.98814 4.45266 9.05122 4.07497 9.05353C2.97728 9.06045 1.96112 8.53737 1.3042 7.73622C1.88266 7.0093 2.75343 6.52968 3.71882 6.43391C3.82958 6.42237 3.94189 6.4166 4.05497 6.41583C5.01651 6.41007 5.89228 6.79853 6.53612 7.43314Z"
                fill="#FFD24D" />
            <path
                d="M14.8526 6.60938C14.8661 6.64976 14.8726 6.69053 14.8726 6.73092C14.8726 6.89207 14.7703 7.04207 14.6092 7.09592C14.5692 7.10938 14.528 7.11553 14.488 7.11553C14.3269 7.11553 14.1765 7.01361 14.123 6.85246C14.1096 6.81207 14.103 6.77092 14.103 6.73053C14.103 6.56976 14.205 6.41976 14.3661 6.36592C14.5676 6.29899 14.7853 6.40784 14.8526 6.60938Z"
                fill="black" />
            <path
                d="M14.8526 17.7632C14.8661 17.8036 14.8726 17.8443 14.8726 17.8847C14.8726 18.0459 14.7703 18.1959 14.6092 18.2497C14.5692 18.2632 14.528 18.2693 14.488 18.2693C14.3269 18.2693 14.1765 18.1674 14.123 18.0063C14.1096 17.9659 14.103 17.9247 14.103 17.8843C14.103 17.7235 14.205 17.5736 14.3661 17.5197C14.5676 17.4528 14.7853 17.5616 14.8526 17.7632Z"
                fill="black" />
            <path
                d="M11.3907 1.9939C11.4042 2.03429 11.4107 2.07505 11.4107 2.11544C11.4107 2.27659 11.3084 2.42659 11.1473 2.48044C11.1073 2.4939 11.0661 2.50005 11.0261 2.50005C10.865 2.50005 10.7146 2.39813 10.6611 2.23698C10.6477 2.19659 10.6411 2.15544 10.6411 2.11505C10.6411 1.95429 10.743 1.80429 10.9042 1.75044C11.1057 1.68352 11.3234 1.79236 11.3907 1.9939Z"
                fill="black" />
            <path
                d="M6.00645 15.0708C6.01991 15.1112 6.02645 15.152 6.02645 15.1923C6.02645 15.3535 5.92414 15.5035 5.76299 15.5573C5.72261 15.5708 5.68184 15.577 5.64145 15.577C5.4803 15.577 5.3303 15.475 5.27645 15.3139C5.26299 15.2735 5.25684 15.2327 5.25684 15.1923C5.25684 15.0312 5.35876 14.8812 5.51991 14.8273C5.72145 14.7604 5.93914 14.8693 6.00645 15.0708Z"
                fill="black" />
            <path
                d="M1.77549 9.68628C1.78896 9.72667 1.79549 9.76744 1.79549 9.80782C1.79549 9.96898 1.69319 10.119 1.53203 10.1728C1.49165 10.1863 1.45088 10.1924 1.41049 10.1924C1.24934 10.1924 1.09934 10.0905 1.04549 9.92936C1.03203 9.88898 1.02588 9.84821 1.02588 9.80782C1.02588 9.64667 1.1278 9.49667 1.28896 9.44282C1.49049 9.3759 1.70819 9.48475 1.77549 9.68628Z"
                fill="black" />
            <path
                d="M1.39073 2.76324C1.40419 2.80362 1.41034 2.84439 1.41034 2.88477C1.41034 3.04593 1.30842 3.19593 1.14727 3.24977C1.10688 3.26324 1.06573 3.26977 1.02573 3.26977C0.864575 3.26977 0.714575 3.16747 0.660729 3.0067C0.647267 2.96631 0.641113 2.92554 0.641113 2.88516C0.641113 2.724 0.743036 2.57362 0.90419 2.52016C1.10573 2.45285 1.32342 2.5617 1.39073 2.76324Z"
                fill="black" />
            <path
                d="M13.6217 14.8781C13.5352 14.8781 13.4489 14.849 13.3781 14.7911C13.2675 14.7005 13.1614 14.6038 13.0628 14.5035C12.3296 13.7605 11.929 12.7826 11.9351 11.7504C11.9381 11.3091 12.0128 10.8763 12.1571 10.4638C12.3999 9.76517 12.8299 9.15551 13.4002 8.7014C13.5419 8.58855 13.7432 8.5899 13.8835 8.70474C14.8043 9.45901 15.3494 10.607 15.3417 11.7756C15.3347 12.9504 14.7951 14.0508 13.8612 14.7943C13.7911 14.8502 13.7064 14.8781 13.6217 14.8781ZM13.6367 9.51847C13.3002 9.85078 13.0424 10.2598 12.8834 10.7171C12.7669 11.0502 12.7067 11.3992 12.7044 11.7553C12.6994 12.5819 13.0213 13.3664 13.6108 13.9637C13.6156 13.9686 13.6205 13.9735 13.6253 13.9784C14.2259 13.3937 14.5675 12.6052 14.5724 11.7708C14.578 10.9384 14.2329 10.1179 13.6367 9.51847Z"
                fill="black" />
            <path
                d="M10.8546 16.2391C9.69547 16.2391 8.55655 15.694 7.8079 14.781C7.69293 14.6408 7.69151 14.4393 7.80447 14.2975C8.25901 13.7268 8.8687 13.2967 9.56755 13.0538C9.9794 12.9098 10.4123 12.8351 10.8535 12.8321L10.8772 12.832C11.8997 12.832 12.8692 13.2327 13.6072 13.9601C13.7074 14.0586 13.8042 14.1646 13.8945 14.2751C14.0092 14.4153 14.0106 14.6165 13.8978 14.7582C13.1544 15.6919 12.0539 16.2316 10.8785 16.239L10.8546 16.2391ZM8.62159 14.534C9.21651 15.1248 10.0298 15.4699 10.8546 15.4699L10.8737 15.4698C11.7084 15.4645 12.497 15.1229 13.0817 14.5223C13.077 14.5176 13.0723 14.513 13.0676 14.5083C12.474 13.9233 11.6962 13.6013 10.8771 13.6013L10.8584 13.6013C10.5024 13.6037 10.1532 13.6639 9.82078 13.7801C9.36332 13.9391 8.95416 14.1971 8.62159 14.534Z"
                fill="black" />
            <path
                d="M11.355 12.6118C11.2686 12.6118 11.1822 12.5827 11.1114 12.5248C11.001 12.4343 10.8949 12.3376 10.7962 12.2371C10.063 11.4941 9.66234 10.5162 9.66853 9.48403C9.67149 9.04253 9.74618 8.60961 9.89049 8.19703C10.1338 7.49826 10.5638 6.8888 11.1336 6.43507C11.2754 6.32218 11.4766 6.32353 11.6169 6.43841C12.5377 7.19268 13.0828 8.34064 13.0751 9.50926C13.0725 9.91972 13.0055 10.3238 12.8758 10.7102C12.6361 11.4232 12.1931 12.0517 11.5946 12.5281C11.5244 12.5839 11.4397 12.6118 11.355 12.6118ZM11.3701 7.25214C11.0338 7.58426 10.776 7.99322 10.6167 8.45057C10.5003 8.78345 10.4401 9.13264 10.4377 9.48895C10.4327 10.3156 10.7546 11.1 11.3442 11.6974C11.349 11.7023 11.3538 11.7072 11.3587 11.7121C11.7184 11.3621 11.9882 10.9363 12.1466 10.4653C12.2502 10.1567 12.3038 9.8333 12.3058 9.50441C12.3113 8.67203 11.9662 7.85161 11.3701 7.25214Z"
                fill="black" />
            <path
                d="M8.58799 13.9725C7.42887 13.9725 6.28995 13.4274 5.54129 12.5144C5.42637 12.3742 5.42491 12.1729 5.53776 12.031C5.99122 11.4612 6.60068 11.031 7.30026 10.7873C7.71299 10.6431 8.14599 10.5685 8.58695 10.5655L8.61068 10.5654C9.63306 10.5654 10.6026 10.966 11.3406 11.6935C11.4407 11.7919 11.5374 11.8979 11.6279 12.0084C11.7426 12.1486 11.744 12.3499 11.6311 12.4917C11.1544 13.0902 10.5257 13.5333 9.81322 13.7728C9.42587 13.9028 9.02172 13.9699 8.61187 13.9724L8.58799 13.9725ZM6.35495 12.2673C6.94987 12.8582 7.76318 13.2033 8.58803 13.2033L8.6071 13.2032C8.93526 13.2012 9.25864 13.1475 9.56833 13.0436C10.0391 12.8854 10.4649 12.6155 10.8151 12.2557C10.8104 12.251 10.8058 12.2464 10.801 12.2417C10.2074 11.6567 9.42976 11.3347 8.61072 11.3347L8.59187 11.3348C8.23599 11.3371 7.88664 11.3973 7.55372 11.5136C7.09595 11.6731 6.68691 11.931 6.35495 12.2673Z"
                fill="black" />
            <path
                d="M9.08835 10.3444C9.00193 10.3444 8.91554 10.3153 8.84474 10.2574C8.73416 10.1668 8.62808 10.0701 8.52947 9.96977C7.79647 9.22746 7.39566 8.2497 7.40143 7.21723C7.40439 6.77562 7.47908 6.3427 7.62339 5.93008C7.86685 5.23093 8.29674 4.62135 8.86647 4.16773C9.00828 4.05485 9.20954 4.0562 9.34977 4.17108C10.271 4.9257 10.8162 6.07373 10.808 7.24208C10.8059 7.65089 10.7389 8.05516 10.6087 8.44289C10.3697 9.15508 9.92681 9.78362 9.32797 10.2606C9.25781 10.3165 9.17304 10.3444 9.08835 10.3444ZM9.10308 4.98477C8.76685 5.31689 8.50901 5.726 8.34966 6.18354C8.2332 6.5165 8.17301 6.8657 8.17066 7.22196C8.16604 8.04877 8.48804 8.83308 9.07739 9.42993C9.08224 9.43485 9.08712 9.43977 9.09201 9.44466C9.45181 9.09439 9.72154 8.6687 9.87951 8.19812C9.98351 7.8882 10.0371 7.56497 10.0388 7.23743C10.0446 6.40485 9.69951 5.58443 9.10308 4.98477Z"
                fill="black" />
            <path
                d="M6.32041 11.7051C5.1613 11.7051 4.02237 11.16 3.27372 10.247C3.15872 10.1068 3.15734 9.90525 3.27037 9.76344C3.72476 9.19325 4.33434 8.76329 5.03314 8.5199C5.44526 8.37575 5.87834 8.3011 6.31976 8.29813L6.34341 8.2981C7.3658 8.2981 8.33526 8.69887 9.07314 9.4266C9.17322 9.52498 9.26999 9.63106 9.36037 9.74152C9.47511 9.88175 9.47645 10.083 9.36357 10.2247C8.88699 10.823 8.25857 11.2658 7.54607 11.5054C7.15822 11.6354 6.75403 11.7026 6.3443 11.7051L6.32041 11.7051ZM4.08753 10.0001C4.68241 10.5908 5.49572 10.9359 6.32041 10.9359L6.33949 10.9358C6.66757 10.9338 6.99114 10.8801 7.30118 10.7762C7.77176 10.6179 8.19745 10.3483 8.54753 9.98867C8.54284 9.98402 8.53814 9.97933 8.53341 9.97471C7.93995 9.3894 7.16234 9.06733 6.34341 9.06733L6.3246 9.06737C5.96837 9.06975 5.61903 9.12987 5.2866 9.24617C4.82918 9.40548 4.42007 9.66344 4.08753 10.0001Z"
                fill="black" />
            <path
                d="M3.71852 6.81861C3.63767 6.81861 3.55621 6.79323 3.48679 6.74073C3.33802 6.62823 3.19644 6.50415 3.0659 6.37192C2.23336 5.529 1.81452 4.33584 1.94552 3.1803C1.96594 3.00023 2.10925 2.85888 2.2896 2.84092C3.47425 2.72284 4.67167 3.14923 5.49263 3.98115C5.61886 4.10911 5.73736 4.24727 5.84483 4.39184C5.97156 4.56234 5.9361 4.80327 5.7656 4.92996C5.59513 5.05669 5.35417 5.02123 5.22748 4.85073C5.14129 4.73477 5.04625 4.62396 4.94506 4.52138C4.3606 3.92907 3.53636 3.593 2.69098 3.59061C2.68775 4.41254 3.0204 5.23115 3.61325 5.83134C3.71794 5.93738 3.83152 6.03688 3.95086 6.12719C4.12029 6.25534 4.15371 6.49657 4.02556 6.66596C3.9499 6.766 3.8349 6.81861 3.71852 6.81861Z"
                fill="black" />
            <path
                d="M6.82089 8.07749C6.73446 8.07749 6.64808 8.04845 6.57731 7.99053C6.46677 7.90007 6.36069 7.8033 6.262 7.70287C5.52881 6.95995 5.12819 5.98203 5.13435 4.9498C5.13519 4.82545 5.14185 4.70191 5.15404 4.58234C5.25665 3.52822 5.78358 2.55022 6.59946 1.9008C6.74127 1.78799 6.94254 1.78941 7.08269 1.90418C8.00354 2.65845 8.54866 3.80645 8.54089 4.97507C8.53839 5.38603 8.47119 5.7903 8.34119 6.17637C8.10219 6.88822 7.65931 7.51676 7.06054 7.99368C6.99035 8.0496 6.90562 8.07749 6.82089 8.07749ZM6.83608 2.71803C6.32081 3.22791 5.99146 3.91907 5.91942 4.65864C5.9095 4.75591 5.90419 4.85495 5.90354 4.9548C5.89858 5.78137 6.2205 6.56576 6.81 7.16311C6.81481 7.16799 6.81965 7.17287 6.8245 7.17776C7.18435 6.82749 7.45404 6.4018 7.61204 5.93126C7.716 5.62257 7.76965 5.2993 7.77162 4.97018C7.77719 4.13784 7.43215 3.31745 6.83608 2.71803Z"
                fill="black" />
            <path
                d="M4.05332 9.43829C2.8942 9.43829 1.75528 8.89321 1.00663 7.98017C0.891704 7.83998 0.890242 7.63863 1.00309 7.49683C1.65093 6.68271 2.62686 6.15579 3.68066 6.05125C3.79874 6.03894 3.92436 6.03217 4.05216 6.03133L4.0759 6.03125C5.09836 6.03125 6.0679 6.43187 6.80593 7.15929C6.90609 7.25779 7.00282 7.36383 7.09316 7.47421C7.20793 7.61444 7.20928 7.81571 7.09636 7.95744C6.61959 8.55602 5.99113 8.99898 5.2789 9.23852C4.89097 9.36852 4.48678 9.43567 4.07709 9.43817L4.05332 9.43829ZM1.82047 7.73325C2.41536 8.32402 3.22863 8.66906 4.05332 8.66906L4.0724 8.66898C4.40047 8.66698 4.72401 8.61325 5.03413 8.50933C5.50455 8.3511 5.93024 8.08133 6.28047 7.72148C6.27574 7.71679 6.27101 7.7121 6.26628 7.70744C5.67278 7.12248 4.89501 6.80048 4.0759 6.80048L4.05709 6.80052C3.95436 6.80121 3.85374 6.8066 3.75843 6.81652C3.01897 6.8899 2.3292 7.21925 1.82047 7.73325Z"
                fill="black" />
            <path
                d="M14.7007 16.0075C14.6023 16.0075 14.5039 15.9699 14.4288 15.8948L13.3246 14.7906C13.1744 14.6404 13.1744 14.3969 13.3246 14.2466C13.4748 14.0965 13.7182 14.0965 13.8685 14.2466L14.9728 15.3509C15.1229 15.5011 15.1229 15.7446 14.9728 15.8948C14.8976 15.97 14.7992 16.0075 14.7007 16.0075Z"
                fill="black" />
        </g>
        <path
            d="M3.84623 14.8077C3.21 14.8077 2.69238 14.2901 2.69238 13.6538C2.69238 13.0176 3.21 12.5 3.84623 12.5C4.48246 12.5 5.00008 13.0176 5.00008 13.6538C5.00008 14.2901 4.48246 14.8077 3.84623 14.8077ZM3.84623 13.2692C3.63415 13.2692 3.46161 13.4418 3.46161 13.6538C3.46161 13.8659 3.63415 14.0385 3.84623 14.0385C4.05831 14.0385 4.23084 13.8659 4.23084 13.6538C4.23084 13.4418 4.05831 13.2692 3.84623 13.2692Z"
            fill="black" />
        <path
            d="M14.4872 3.14113C13.6389 3.14113 12.9487 2.45098 12.9487 1.60267C12.9487 0.754363 13.6389 0.064209 14.4872 0.064209C15.3355 0.064209 16.0257 0.754363 16.0257 1.60267C16.0257 2.45098 15.3355 3.14113 14.4872 3.14113ZM14.4872 0.83344C14.063 0.83344 13.718 1.17852 13.718 1.60267C13.718 2.02682 14.063 2.3719 14.4872 2.3719C14.9113 2.3719 15.2564 2.02682 15.2564 1.60267C15.2564 1.17852 14.9113 0.83344 14.4872 0.83344Z"
            fill="black" />
        <path
            d="M12.6506 3.87142C12.0756 4.73334 11.8719 5.85793 12.1995 6.90605C12.3118 7.26625 12.4778 7.59559 12.6868 7.88769C13.085 8.44535 13.6392 8.86854 14.2708 9.11814C14.3422 9.01107 14.4078 8.90057 14.4672 8.78674C14.8867 7.98594 15.0021 7.03467 14.7159 6.11669C14.6827 6.0106 14.645 5.90671 14.6024 5.80549C14.2299 4.90745 13.5156 4.213 12.6506 3.87142Z"
            fill="#E2B23B" />
        <path
            d="M14.7161 6.11662C15.0023 7.03459 14.8869 7.98587 14.4674 8.78667C14.898 7.99175 15.6222 7.36456 16.5435 7.08939C16.6519 7.05711 16.761 7.02985 16.8703 7.00855C16.9679 6.8738 17.0568 6.73128 17.136 6.58001C17.6459 5.60766 17.6753 4.48117 17.2637 3.53189C16.2475 3.73468 15.3082 4.38571 14.7985 5.3588C14.722 5.50479 14.657 5.65412 14.603 5.80531L14.6027 5.80542C14.6452 5.90664 14.683 6.01053 14.7161 6.11662Z"
            fill="#FCD884" />
        <path
            d="M12.961 11.6172C12.8997 11.73 12.8447 11.8461 12.7958 11.9652C13.3555 12.3497 14.0159 12.5728 14.701 12.5921C15.0603 12.6019 15.426 12.5562 15.7879 12.4481C16.8398 12.1343 17.659 11.3374 18.0534 10.3794C17.5142 10.0091 16.8722 9.79773 16.2072 9.77187C15.8196 9.75626 15.4241 9.80419 15.0367 9.91962C14.1153 10.1948 13.3915 10.8219 12.961 11.6172Z"
            fill="#E2B23B" />
        <path
            d="M9.63733 9.53183C9.06236 10.3938 8.85873 11.5183 9.18623 12.5665C9.29862 12.9266 9.46464 13.256 9.67326 13.5482C10.0718 14.1058 10.6257 14.5291 11.2576 14.7785C11.3291 14.6715 11.3947 14.561 11.454 14.4471C11.8735 13.6463 11.989 12.695 11.7027 11.7771C11.5821 11.3913 11.4012 11.0367 11.1718 10.7239C10.779 10.1867 10.2455 9.77207 9.63733 9.53183Z"
            fill="#E2B23B" />
        <path
            d="M9.94774 17.2765C9.88646 17.3893 9.83142 17.5054 9.78251 17.6245C10.6354 18.2107 11.7221 18.4219 12.7747 18.1078C13.8266 17.794 14.6458 16.9971 15.0402 16.0391C14.5008 15.6685 13.8589 15.457 13.194 15.4315C12.8064 15.4159 12.4112 15.4638 12.0238 15.5792C11.1025 15.8544 10.3783 16.4816 9.94774 17.2765Z"
            fill="#E2B23B" />
        <path
            d="M8.13148 12.3612C7.5565 13.2231 7.35284 14.3477 7.68037 15.3958C8.00718 16.4442 8.7892 17.2277 9.75172 17.6079C9.82319 17.5008 9.88883 17.3903 9.94815 17.2765C10.3677 16.4757 10.4831 15.5244 10.1969 14.6064C10.0764 14.221 9.89541 13.8664 9.66602 13.5536C9.27362 13.0163 8.73963 12.6014 8.13148 12.3612Z"
            fill="#FFD24D" />
        <path
            d="M11.4541 14.4471C11.3928 14.5599 11.3378 14.676 11.2888 14.7951C11.8486 15.1796 12.5091 15.403 13.1946 15.4223C13.5535 15.4322 13.9191 15.3865 14.281 15.2785C15.3329 14.9647 16.1521 14.1677 16.5466 13.2097C16.0076 12.8389 15.3653 12.628 14.7007 12.6021C14.3128 12.5866 13.9176 12.6344 13.5302 12.7498C12.6085 13.0251 11.8846 13.6522 11.4541 14.4471Z"
            fill="#FFD24D" />
        <path
            d="M11.1442 6.70151C10.5692 7.56343 10.3652 8.68813 10.6931 9.73613C10.8051 10.0964 10.9715 10.4257 11.1801 10.7179C11.5783 11.2755 12.1325 11.6987 12.7641 11.9483C12.8355 11.8413 12.9012 11.7307 12.9605 11.6169C13.3804 10.816 13.4955 9.86522 13.2097 8.94714C13.0891 8.5613 12.9081 8.20677 12.6787 7.89395C12.286 7.35674 11.7523 6.94175 11.1442 6.70151Z"
            fill="#FFD24D" />
        <path
            d="M14.4673 8.78671C14.406 8.89951 14.3509 9.01564 14.302 9.13472C14.8617 9.51923 15.5223 9.74268 16.2074 9.762C16.5666 9.77178 16.9323 9.72612 17.2942 9.61807C18.3461 9.30426 19.1653 8.50734 19.5598 7.54931C18.7943 7.02291 17.8215 6.81838 16.8702 7.00859C16.7609 7.02989 16.6518 7.05716 16.5434 7.08943C15.622 7.3646 14.8978 7.99179 14.4673 8.78671Z"
            fill="#FFD24D" />
        <path
            d="M6.27295 10.4264C6.27186 10.4689 6.27751 10.5098 6.2893 10.5484C6.33634 10.7026 6.47798 10.8162 6.64783 10.8206C6.69002 10.8218 6.73118 10.8157 6.76944 10.804C6.92353 10.757 7.03765 10.6156 7.04174 10.4459C7.04283 10.4033 7.03707 10.362 7.02528 10.3234C6.97835 10.1696 6.83708 10.0559 6.66723 10.0515C6.45493 10.0463 6.27849 10.214 6.27295 10.4264Z"
            fill="black" />
        <path
            d="M8.23633 5.00155C8.23524 5.04411 8.24089 5.08501 8.25268 5.12364C8.29972 5.27777 8.44136 5.39137 8.61121 5.39583C8.6534 5.39703 8.69456 5.3909 8.73282 5.37923C8.88691 5.33219 9.00103 5.1908 9.00512 5.02106C9.00621 4.9785 9.00045 4.93723 8.98866 4.89861C8.94173 4.74484 8.80046 4.63113 8.6306 4.62667C8.41831 4.62149 8.24187 4.78915 8.23633 5.00155Z"
            fill="black" />
        <path
            d="M17.2036 15.9371C17.2025 15.9797 17.2082 16.0206 17.22 16.0592C17.267 16.2133 17.4086 16.3269 17.5785 16.3314C17.6211 16.3325 17.6618 16.3264 17.7005 16.3147C17.8546 16.2676 17.9683 16.1263 17.9728 15.9565C17.9739 15.9139 17.9678 15.8731 17.9561 15.8345C17.909 15.6804 17.7677 15.5667 17.5979 15.5622C17.3856 15.557 17.2092 15.7247 17.2036 15.9371Z"
            fill="black" />
        <path
            d="M18.0253 2.81826C18.0242 2.86082 18.0303 2.90161 18.0421 2.94023C18.0891 3.09437 18.2304 3.20808 18.4002 3.21254C18.4428 3.21362 18.484 3.20786 18.5223 3.19619C18.6764 3.14914 18.79 3.00751 18.7946 2.83802C18.7957 2.79546 18.7897 2.75468 18.7779 2.71605C18.7308 2.56191 18.5895 2.44783 18.4197 2.44374C18.2073 2.4382 18.0309 2.60585 18.0253 2.81826Z"
            fill="black" />
        <path
            d="M9.86378 17.9759C9.94644 17.9507 10.0206 17.8977 10.0714 17.8216C10.1507 17.7027 10.2239 17.5792 10.289 17.4545C10.7733 16.5299 10.871 15.4776 10.5638 14.4921C10.4322 14.0709 10.2344 13.6788 9.97596 13.3264C9.53975 12.7291 8.95055 12.2715 8.27252 12.0036C8.10402 11.9371 7.91188 11.9971 7.81128 12.1479C7.15072 13.1381 6.96447 14.3952 7.31303 15.5107C7.66268 16.6323 8.49997 17.5272 9.61018 17.9657C9.69356 17.9987 9.78277 18.0007 9.86378 17.9759ZM8.2848 12.8542C8.70373 13.0737 9.06967 13.3897 9.35523 13.7807C9.56389 14.0652 9.72336 14.3815 9.82955 14.7214C10.0756 15.5106 9.99668 16.3548 9.60723 17.0982C9.60407 17.1043 9.60086 17.1104 9.59765 17.1165C8.8525 16.7326 8.29569 16.0782 8.04736 15.2815C7.79905 14.487 7.8896 13.6015 8.2848 12.8542Z"
            fill="black" />
        <path
            d="M12.9078 18.4697C14.0165 18.1313 14.9467 17.2774 15.3962 16.1857C15.4652 16.018 15.4078 15.8249 15.2583 15.7222C14.657 15.3091 13.9483 15.0757 13.209 15.0474C12.773 15.0298 12.3372 15.0848 11.9143 15.2107L11.8917 15.2176C10.9137 15.516 10.1033 16.1823 9.6098 17.0935C9.54275 17.2169 9.48116 17.3466 9.42695 17.4786C9.35818 17.6461 9.41559 17.839 9.5649 17.9416C10.5485 18.6176 11.7585 18.8126 12.8849 18.4766L12.9078 18.4697ZM14.5458 16.1869C14.1493 16.9257 13.4722 17.4932 12.6833 17.7339L12.665 17.7394C11.8651 17.9781 11.0111 17.8815 10.2765 17.4778C10.2796 17.4719 10.2828 17.4661 10.286 17.4602C10.6829 16.7274 11.3328 16.1924 12.1163 15.9533L12.1342 15.9479C12.4754 15.8462 12.827 15.8018 13.1788 15.816C13.6628 15.8345 14.1294 15.9618 14.5458 16.1869Z"
            fill="black" />
        <path
            d="M11.3697 15.1464C11.4523 15.1211 11.5265 15.0681 11.5773 14.992C11.6565 14.8733 11.7298 14.7498 11.7948 14.6249C12.2792 13.7003 12.3769 12.648 12.0697 11.6625C11.938 11.2411 11.7402 10.8489 11.4817 10.4964C11.045 9.8991 10.4559 9.44168 9.77843 9.17405C9.60984 9.10748 9.41773 9.16752 9.31715 9.31833C8.65663 10.3085 8.47036 11.5656 8.81889 12.6811C8.94114 13.0729 9.12323 13.4399 9.36002 13.7716C9.79744 14.3835 10.4046 14.8553 11.1161 15.1362C11.1995 15.1692 11.2887 15.1711 11.3697 15.1464ZM9.79071 10.0246C10.2093 10.2441 10.5753 10.56 10.8612 10.9509C11.0697 11.2353 11.2292 11.5517 11.3354 11.8918C11.5815 12.6809 11.5026 13.5252 11.1131 14.2686C11.11 14.2747 11.1068 14.2809 11.1035 14.287C10.6573 14.0572 10.275 13.7287 9.98601 13.3245C9.79684 13.0595 9.6512 12.7659 9.55324 12.4519C9.30496 11.6574 9.39555 10.772 9.79071 10.0246Z"
            fill="black" />
        <path
            d="M14.4142 15.6401C15.5228 15.3017 16.453 14.4479 16.9025 13.3561C16.9715 13.1884 16.9141 12.9954 16.7648 12.8928C16.1647 12.4801 15.4563 12.2466 14.716 12.2177C14.2792 12.2002 13.8432 12.2553 13.4206 12.3812L13.3979 12.388C12.42 12.6865 11.6097 13.3526 11.1161 14.2639C11.0492 14.3872 10.9876 14.5168 10.9333 14.6489C10.8645 14.8165 10.922 15.0094 11.0713 15.1121C11.702 15.5454 12.4326 15.7856 13.184 15.8067C13.5924 15.818 13.9986 15.7642 14.3913 15.647L14.4142 15.6401ZM16.0522 13.3572C15.6557 14.0961 14.9785 14.6636 14.1896 14.9043L14.1713 14.9098C13.8569 15.0037 13.5319 15.0467 13.2054 15.0378C12.709 15.0238 12.2229 14.8901 11.7829 14.6482C11.786 14.6423 11.7891 14.6365 11.7923 14.6307C12.1892 13.8979 12.8391 13.3629 13.6224 13.1238L13.6405 13.1184C13.9815 13.0167 14.3332 12.9723 14.6856 12.9864C15.17 13.0052 15.6365 13.1325 16.0522 13.3572Z"
            fill="black" />
        <path
            d="M12.8761 12.3161C12.9588 12.2909 13.0329 12.2379 13.0837 12.1618C13.163 12.0429 13.2363 11.9194 13.3013 11.7947C13.7857 10.8707 13.8836 9.81854 13.5767 8.83273C13.4449 8.41122 13.2471 8.01895 12.9887 7.66644C12.5517 7.06881 11.9626 6.61127 11.2853 6.34372C11.1167 6.27715 10.9246 6.33719 10.824 6.48801C10.1631 7.47869 9.97689 8.73585 10.3258 9.85092C10.4471 10.2413 10.6292 10.6084 10.8669 10.9413C11.3034 11.5526 11.9105 12.0245 12.6225 12.3059C12.7059 12.3389 12.7951 12.3408 12.8761 12.3161ZM11.2975 7.19425C11.716 7.41375 12.082 7.72977 12.368 8.12087C12.5766 8.40533 12.7361 8.72174 12.8423 9.06181C13.0881 9.85126 13.0091 10.6954 12.6196 11.4383C12.6164 11.4444 12.6132 11.4505 12.61 11.4566C12.1636 11.2267 11.7813 10.8983 11.4929 10.4943C11.3029 10.2282 11.1573 9.93472 11.0601 9.62193C10.8115 8.82731 10.9021 7.94189 11.2975 7.19425Z"
            fill="black" />
        <path
            d="M15.9205 12.8097C17.0291 12.4713 17.9593 11.6175 18.4089 10.5257C18.4779 10.358 18.4204 10.1649 18.2709 10.0622C17.6699 9.64951 16.9613 9.41623 16.2219 9.38743C15.7857 9.36986 15.3496 9.42488 14.9266 9.55091L14.904 9.55777C13.9261 9.85622 13.1159 10.5225 12.6225 11.434C12.5555 11.5573 12.494 11.687 12.4398 11.819C12.371 11.9866 12.4284 12.1795 12.5778 12.2821C13.2082 12.7152 13.9385 12.9553 14.6899 12.9765C15.0988 12.9876 15.505 12.9338 15.8976 12.8166L15.9205 12.8097ZM17.5584 10.5271C17.1619 11.2657 16.4847 11.8332 15.696 12.074L15.6777 12.0795C15.3633 12.1733 15.0382 12.2164 14.7113 12.2075C14.215 12.1935 13.7291 12.0599 13.2893 11.8181C13.2925 11.8123 13.2956 11.8065 13.2988 11.8007C13.6955 11.0676 14.3452 10.5326 15.1285 10.2935L15.1465 10.288C15.4879 10.1863 15.8396 10.1419 16.1915 10.1561C16.6755 10.1749 17.1421 10.3022 17.5584 10.5271Z"
            fill="black" />
        <path
            d="M16.9826 7.3765C17.0599 7.3529 17.1304 7.30484 17.1815 7.23436C17.2909 7.08334 17.3901 6.92334 17.4764 6.75876C18.0266 5.70952 18.0789 4.44607 17.6163 3.3791C17.5442 3.21283 17.3659 3.11947 17.1881 3.15494C16.0206 3.38782 14.9998 4.14518 14.4575 5.18052C14.3741 5.33976 14.3011 5.50648 14.2405 5.67613C14.1691 5.8762 14.2733 6.09628 14.4734 6.16768C14.6734 6.23913 14.8935 6.13488 14.9649 5.93482C15.0135 5.79875 15.072 5.66502 15.1389 5.53737C15.525 4.80025 16.2152 4.23821 17.0231 3.98915C17.2661 4.77433 17.1869 5.65439 16.7951 6.4015C16.7259 6.53349 16.6463 6.66181 16.5585 6.78302C16.4339 6.95505 16.4724 7.19553 16.6444 7.32013C16.7459 7.39372 16.8713 7.41048 16.9826 7.3765Z"
            fill="black" />
        <path
            d="M14.3828 9.48613C14.4655 9.4609 14.5396 9.40791 14.5904 9.33185C14.6697 9.21306 14.7429 9.08954 14.808 8.96468C15.2924 8.04009 15.3901 6.98781 15.0829 6.00234C15.0458 5.88365 15.0033 5.76744 14.9568 5.65663C14.5509 4.67838 13.7614 3.8968 12.7915 3.51383C12.6229 3.44733 12.4309 3.50744 12.3303 3.65813C11.6698 4.64835 11.4835 5.90548 11.8321 7.02093C11.9544 7.41326 12.1367 7.7803 12.3737 8.11162C12.8101 8.72269 13.4172 9.19457 14.1291 9.47593C14.2126 9.50892 14.3018 9.51086 14.3828 9.48613ZM12.8038 4.36453C13.4454 4.7018 13.9622 5.26671 14.247 5.95304C14.2849 6.04318 14.3189 6.13635 14.3486 6.23166C14.5947 7.02079 14.5157 7.86498 14.1263 8.60839C14.1231 8.61447 14.1199 8.62055 14.1167 8.62664C13.6703 8.39667 13.2881 8.06825 12.9996 7.66433C12.81 7.39943 12.6644 7.1059 12.5664 6.79169C12.3181 5.99723 12.4086 5.11185 12.8038 4.36453Z"
            fill="black" />
        <path
            d="M17.4274 9.97987C18.536 9.6415 19.4662 8.7877 19.9157 7.69589C19.9847 7.52825 19.9273 7.33525 19.778 7.23256C18.9207 6.64302 17.8335 6.42393 16.7951 6.63157C16.6785 6.65427 16.5564 6.68446 16.4339 6.72096L16.4112 6.72781C15.4333 7.02629 14.6229 7.69248 14.1294 8.60366C14.0623 8.72711 14.0008 8.85676 13.9466 8.98871C13.8777 9.15634 13.9352 9.34923 14.0846 9.45183C14.7153 9.88516 15.4457 10.1254 16.1968 10.1466C16.6058 10.1577 17.012 10.1039 17.4046 9.9867L17.4274 9.97987ZM19.0652 7.69729C18.6687 8.43598 17.9916 9.0034 17.2028 9.24414L17.1845 9.24964C16.8702 9.34349 16.545 9.38655 16.2181 9.37768C15.722 9.36366 15.2361 9.22991 14.796 8.98798C14.7992 8.98211 14.8024 8.97624 14.8055 8.9704C15.2024 8.23767 15.8523 7.70265 16.6357 7.46354L16.6537 7.45809C16.7522 7.42876 16.85 7.40454 16.9441 7.38621C17.6727 7.24054 18.4286 7.35418 19.0652 7.69729Z"
            fill="black" />
        <path
            d="M9.16099 19.371C9.25516 19.3423 9.33829 19.2776 9.38822 19.1839L10.122 17.8054C10.2218 17.6179 10.1507 17.385 9.96322 17.2851C9.7757 17.1854 9.54285 17.2564 9.44295 17.4439L8.70916 18.8224C8.60935 19.0099 8.68045 19.2428 8.86795 19.3427C8.96176 19.3926 9.06685 19.3997 9.16099 19.371Z"
            fill="black" />
    </g>
    <defs>
        <clipPath id="clip0_10090_3211">
            <rect width="20" height="20" fill="white" />
        </clipPath>
    </defs>
</svg>