<svg width="12" height="12" viewBox="0 0 12 12" fill="none" xmlns="http://www.w3.org/2000/svg">
<circle cx="6" cy="6" r="6" fill="url(#paint0_linear_15276_13619)"/>
<path fill-rule="evenodd" clip-rule="evenodd" d="M8.5498 8.19046C8.65336 8.24639 8.66247 8.38327 8.56738 8.4512L6.44531 9.96781C6.34772 10.0375 6.2055 9.98838 6.17969 9.87601L5.40527 6.50101L8.5498 8.19046ZM5.31152 2.20609C5.43513 2.11774 5.6096 2.22097 5.57715 2.36331L4.74316 6.00003L5.57715 9.63675C5.60972 9.77914 5.43516 9.88232 5.31152 9.79398L3.17383 8.26663C3.06439 8.18827 3.00015 8.06658 3 7.93753V4.06351C3 3.93426 3.06419 3.81189 3.17383 3.73343L5.31152 2.20609ZM8.74902 4.28519C8.86066 4.22515 9 4.30038 9 4.42093V7.57816C8.99998 7.69868 8.86063 7.77388 8.74902 7.7139L5.55957 6.00003L8.74902 4.28519ZM6.17969 2.12406C6.20548 2.01165 6.34771 1.96251 6.44531 2.03226L8.56641 3.54788C8.66144 3.61592 8.65162 3.75281 8.54785 3.80863L5.40527 5.49808L6.17969 2.12406Z" fill="white"/>
<defs>
<linearGradient id="paint0_linear_15276_13619" x1="0" y1="0" x2="0" y2="12" gradientUnits="userSpaceOnUse">
<stop stop-color="#31CB9E"/>
<stop offset="0.04" stop-color="#2FC99E"/>
<stop offset="0.63" stop-color="#18B2A1"/>
<stop offset="1" stop-color="#0FAAA2"/>
</linearGradient>
</defs>
</svg>
