<svg width="16" height="17" viewBox="0 0 16 17" fill="none" xmlns="http://www.w3.org/2000/svg">
<path d="M7.5 0.634378C7.8094 0.455745 8.1906 0.455745 8.5 0.634378L14.4282 4.05703C14.7376 4.23566 14.9282 4.56579 14.9282 4.92305V11.7684C14.9282 12.1256 14.7376 12.4557 14.4282 12.6344L8.5 16.057C8.1906 16.2357 7.8094 16.2357 7.5 16.057L1.5718 12.6344C1.2624 12.4557 1.0718 12.1256 1.0718 11.7684V4.92305C1.0718 4.56579 1.2624 4.23566 1.5718 4.05703L7.5 0.634378Z" fill="url(#paint0_radial_11054_75462)" stroke="#FB3291"/>
<path d="M6.7666 10.6172C7.02321 10.577 7.4513 10.5901 7.68652 10.6504C8.06426 10.7443 8.40678 10.9453 8.58496 11.1934C8.75596 11.4347 8.83372 11.643 8.91211 12.1055C8.94062 12.2864 8.97627 12.4744 8.9834 12.5146C9.04042 12.7557 9.1545 12.9434 9.29688 13.0439C9.51785 13.1981 9.90346 13.2044 10.2812 13.0703C10.3452 13.0502 10.4023 13.0305 10.4023 13.0371C10.4158 13.0509 10.2238 13.1712 10.0957 13.2314C9.9175 13.3186 9.77449 13.3457 9.58203 13.3457C9.24009 13.3456 8.94801 13.1778 8.71289 12.8428C8.663 12.7757 8.56306 12.5814 8.47754 12.4004C8.22811 11.8575 8.09972 11.6966 7.80762 11.5156C7.55104 11.3614 7.2231 11.3275 6.97363 11.4414C6.64586 11.5888 6.56029 11.9842 6.78809 12.2256C6.8807 12.3261 7.05182 12.4066 7.19434 12.4268C7.45791 12.4603 7.68623 12.2664 7.68652 12.0186C7.68652 11.8577 7.62225 11.7632 7.45117 11.6895C7.22308 11.5956 6.97334 11.7033 6.98047 11.9111C6.98057 11.9981 7.02366 12.0516 7.11621 12.0918C7.17296 12.1185 7.1731 12.1189 7.13086 12.1123C6.92415 12.0721 6.87414 11.83 7.03809 11.6758C7.23781 11.4885 7.65827 11.5688 7.80078 11.8301C7.8578 11.9373 7.86434 12.152 7.81445 12.2861C7.69328 12.5811 7.35123 12.7356 7.00195 12.6484C6.7668 12.5881 6.66689 12.5277 6.38184 12.2529C5.88287 11.7702 5.69035 11.6758 4.97754 11.5752L4.84277 11.5557L4.99219 11.4219C5.51958 11.0063 6.16793 10.7111 6.7666 10.6172ZM10.2168 8.2168C10.231 8.2168 10.2737 8.23696 10.3164 8.26367C10.4019 8.31731 10.5809 8.41086 11.0371 8.64551C11.6144 8.94046 11.9418 9.16922 12.1699 9.43066C12.3694 9.6585 12.4908 9.91961 12.5479 10.2412C12.5835 10.4221 12.5625 10.8578 12.5127 11.0391C12.3559 11.6089 11.9988 12.0647 11.4785 12.3262C11.4006 12.3661 11.3369 12.3932 11.3291 12.3936C11.322 12.3936 11.3508 12.3265 11.3936 12.2461C11.5645 11.9042 11.5853 11.5757 11.457 11.207C11.3786 10.9791 11.2146 10.7038 10.8867 10.2412C10.495 9.70534 10.4025 9.5644 10.3027 9.37012C10.1175 8.98811 10.0742 8.62599 10.1738 8.28418C10.188 8.25081 10.2026 8.21709 10.2168 8.2168ZM1 0.345703C1.02138 0.345703 5.66177 5.1455 5.99707 5.50781L6.08984 5.60156L6.08203 5.75586C6.0749 5.96369 6.00379 6.10433 5.83984 6.24512C5.65452 6.41271 5.41919 6.49995 5.05566 6.54688C4.83505 6.57368 4.75663 6.60744 4.66406 6.70117C4.57857 6.78828 4.54287 6.90233 4.52148 7.18359C4.48585 7.62601 4.4289 7.80752 4.20801 8.24316C3.99417 8.66553 3.95166 8.81991 3.9873 9.04785C4.0301 9.31595 4.1933 9.51762 4.57812 9.76562C4.87011 9.95317 5.00582 10.0734 5.07715 10.2207C5.11992 10.3146 5.12695 10.3487 5.12695 10.5029C5.12692 10.7441 5.08408 10.8375 4.91309 11.0117C4.63513 11.2933 4.12949 11.5212 3.5166 11.6553C3.25999 11.7089 3.24512 11.7089 3.24512 11.6553C3.24464 11.5878 3.145 11.4068 2.98145 11.166C2.78919 10.8914 2.7109 10.7506 2.63965 10.5361C2.56124 10.2948 2.53262 10.1337 2.54688 9.87891C2.56113 9.63772 2.5897 9.53042 2.68945 9.34277C2.76786 9.18858 2.81791 9.12153 3.13867 8.74609C3.68751 8.10921 3.87989 7.73373 3.95117 7.2041C4.01532 6.72818 4.10056 6.49993 4.29297 6.29883C4.40702 6.17815 4.43555 6.1311 4.43555 6.04395C4.43447 6.0021 4.25619 5.67254 3.70898 4.75684C2.83944 3.29545 2.83965 3.29519 2.86816 3.30859C2.8759 3.31618 3.28164 3.89924 3.75879 4.60254C4.38606 5.52102 4.66436 5.90353 4.72852 5.96387C4.82117 6.05092 4.95634 6.10449 5.07031 6.10449C5.17011 6.10449 5.37677 6.0507 5.47656 5.99707C5.6547 5.90321 5.69773 5.77567 5.59082 5.6416C5.46052 5.47841 2.90233 2.53029 1.24219 0.633789C1.10824 0.474657 0.995368 0.348248 1 0.345703ZM3.33789 9.79883C3.21671 9.72521 3.03125 9.75886 3.03125 9.85938C3.03137 9.88607 3.04629 9.91243 3.08887 9.92578C3.1529 9.95924 3.15994 9.99295 3.11035 10.0664C3.06047 10.1401 3.05994 10.208 3.12402 10.2549C3.22382 10.3286 3.35938 10.2877 3.43066 10.167C3.50889 10.0396 3.46612 9.87923 3.33789 9.79883ZM9.61133 7.98242C9.70383 8.08291 9.77479 8.20369 9.83887 8.37109C9.88872 8.49837 9.88867 8.5386 9.88867 8.74609C9.88867 8.94719 9.88162 8.99446 9.83887 9.1084C9.76763 9.2893 9.68244 9.41693 9.54004 9.55762C9.28349 9.80561 8.94809 9.93964 8.4707 10C8.38518 10.0067 8.14253 10.0266 7.92871 10.04C7.39411 10.0669 7.03756 10.1212 6.7168 10.2285C6.67409 10.2419 6.63114 10.2547 6.62402 10.248C6.6117 10.2338 6.83132 10.1133 7.00879 10.0332C7.25824 9.91924 7.51515 9.85946 8.07812 9.76562C8.35612 9.7254 8.64161 9.67135 8.71289 9.64453C9.41826 9.4367 9.76715 8.92097 9.65332 8.29102C9.63906 8.19045 9.60342 8.06242 9.58203 8.00879L9.54688 7.9082L9.61133 7.98242ZM8.87012 6.16504C9.15517 6.37949 9.4756 6.47409 10.3662 6.59473C10.8864 6.66845 11.1862 6.72149 11.457 6.80859C12.3195 7.07676 12.8541 7.62692 12.9824 8.37109C13.0181 8.58564 12.9965 8.99446 12.9395 9.20898C12.8896 9.37631 12.7479 9.68366 12.7119 9.69141C12.7048 9.69141 12.6904 9.65813 12.6904 9.60449C12.6761 9.32297 12.5268 9.05448 12.2773 8.84668C11.978 8.60533 11.5923 8.42466 10.6514 8.06934C9.24037 7.53309 8.74127 7.07037 8.74121 6.28613C8.74121 6.17216 8.74902 6.07812 8.74902 6.07812C8.75753 6.07954 8.80713 6.11896 8.87012 6.16504ZM6.31836 6.6416C6.4325 6.60822 6.65294 6.62807 6.75977 6.68164C6.96637 6.78215 7.11648 7.00318 7.08105 7.16406C7.04543 7.35841 6.71021 7.51941 6.31836 7.51953C6.11877 7.51953 6.04716 7.4923 5.96875 7.39844C5.91904 7.33793 5.90425 7.14432 5.93262 7.03711C5.98251 6.8628 6.14729 6.68853 6.31836 6.6416ZM6.70312 6.74902C6.51082 6.63514 6.21825 6.72831 6.21777 6.90234C6.21777 6.9895 6.36818 7.08398 6.51074 7.08398C6.60338 7.08384 6.7317 7.03012 6.77441 6.97656C6.83126 6.89625 6.80963 6.80932 6.70312 6.74902ZM5.61914 3.26953C5.75455 3.24942 6.0681 3.27633 6.28906 3.32324C6.80228 3.43721 7.26598 3.73182 7.75781 4.24805L7.88574 4.38867L8.07129 4.3623C8.8625 4.24163 9.67537 4.3349 10.3525 4.62988C10.5379 4.71035 10.8296 4.87189 10.8652 4.91211C10.8795 4.92573 10.9008 5.01259 10.915 5.09961C10.9649 5.41462 10.9438 5.6491 10.8369 5.83008C10.7799 5.93064 10.7798 5.95777 10.8154 6.04492C10.844 6.11183 10.9295 6.1581 11.0078 6.1582C11.1789 6.1582 11.3578 5.90409 11.4434 5.54883L11.4785 5.4082L11.543 5.47461C11.9064 5.85665 12.1915 6.38631 12.2344 6.76172L12.248 6.8623L12.1846 6.77539C12.0776 6.62119 11.9772 6.52075 11.8418 6.43359C11.5995 6.27949 11.343 6.23273 10.666 6.19922C10.053 6.1657 9.70347 6.11801 9.36133 6.01074C8.77701 5.82974 8.47745 5.59518 7.78613 4.73047C7.47979 4.34854 7.2871 4.14105 7.09473 3.9668C6.67424 3.58472 6.2538 3.38321 5.70508 3.30273C5.55549 3.28264 5.54802 3.27623 5.61914 3.26953ZM11.208 3.46289C11.2145 3.46413 11.1998 3.51064 11.1787 3.56348C11.1217 3.71097 11.1147 3.91965 11.1504 4.1543C11.2002 4.45559 11.2225 4.49587 11.5645 4.82422C11.7211 4.97827 11.9062 5.1724 11.9775 5.25293L12.0986 5.40039L11.9775 5.29395C11.8278 5.15986 11.4856 4.90461 11.4072 4.87109C11.3574 4.8443 11.3501 4.84442 11.3145 4.87793C11.286 4.90475 11.2793 4.94543 11.2793 5.13965C11.2721 5.44116 11.229 5.62888 11.1221 5.82324C11.0652 5.92358 11.0578 5.90355 11.1074 5.79004C11.1431 5.70289 11.1504 5.66227 11.1504 5.37402C11.1504 4.79075 11.0793 4.64969 10.6445 4.41504C10.5376 4.3547 10.352 4.26762 10.2451 4.2207C10.1323 4.17428 10.0475 4.13456 10.0527 4.13379C10.067 4.12038 10.4874 4.23471 10.6514 4.30176C10.9008 4.39562 10.9441 4.40221 10.9727 4.39551C10.994 4.37541 11.0085 4.32154 11.0156 4.1543C11.0299 3.89954 11.0651 3.73135 11.1436 3.57715C11.1721 3.51685 11.2009 3.46289 11.208 3.46289ZM5.63379 3.58398C5.76214 3.60417 5.983 3.68482 6.08984 3.74512C6.37482 3.90598 6.50288 4.12732 6.62402 4.67676C6.65966 4.83766 6.71006 5.0256 6.73145 5.08594C6.7671 5.18651 6.90258 5.42088 7.0166 5.56836C7.09501 5.67563 7.04441 5.72923 6.86621 5.71582C6.59546 5.6888 6.23217 5.45474 5.99707 5.15332C5.69776 4.76456 5.5052 4.16107 5.54785 3.71191L5.5625 3.57129L5.63379 3.58398Z" fill="white"/>
<defs>
<radialGradient id="paint0_radial_11054_75462" cx="0" cy="0" r="1" gradientUnits="userSpaceOnUse" gradientTransform="translate(6 5.8457) rotate(59.0362) scale(11.6619)">
<stop stop-color="#FF479F"/>
<stop offset="1" stop-color="#B0125E"/>
</radialGradient>
</defs>
</svg>
