<svg width="24" height="24" viewBox="0 0 24 24" fill="none" xmlns="http://www.w3.org/2000/svg">
<circle cx="12" cy="12" r="11.5" fill="#505050" stroke="#737373"/>
<mask id="mask0_6729_45623" style="mask-type:alpha" maskUnits="userSpaceOnUse" x="1" y="1" width="22" height="22">
<circle cx="12" cy="12" r="11" fill="#505050"/>
</mask>
<g mask="url(#mask0_6729_45623)">
<path fill-rule="evenodd" clip-rule="evenodd" d="M4.76387 11.0959L10.7597 15.6689C10.8233 15.7154 10.8741 15.7771 10.9076 15.8483C10.941 15.9195 10.956 15.998 10.9512 16.0764C10.9463 16.1549 10.9218 16.2309 10.8798 16.2975C10.8379 16.3641 10.7799 16.4191 10.7111 16.4574L1.81587 21.5537L4.00819 11.3725C4.02591 11.2946 4.06288 11.2224 4.11571 11.1625C4.16855 11.1026 4.23558 11.0568 4.31069 11.0293C4.38581 11.0018 4.46662 10.9935 4.54577 11.0051C4.62492 11.0168 4.6999 11.048 4.76387 11.0959ZM11.2844 28.2294L2.25218 23.0611L11.286 17.8957C11.3582 17.8545 11.4399 17.8329 11.5231 17.833C11.6062 17.833 11.6879 17.8548 11.7601 17.896C11.8322 17.9373 11.8923 17.9966 11.9344 18.0681C11.9765 18.1397 11.9991 18.221 12 18.3039L11.9985 27.8215C11.9971 27.9043 11.9742 27.9853 11.932 28.0566C11.8898 28.1279 11.8298 28.187 11.7577 28.2281C11.6857 28.2693 11.6042 28.291 11.5212 28.2913C11.4382 28.2915 11.3566 28.2702 11.2844 28.2294ZM4.75995 35.0348L10.7711 30.4568C10.8333 30.4094 10.8828 30.3475 10.9153 30.2765C10.9478 30.2055 10.9623 30.1276 10.9575 30.0497C10.9527 29.9718 10.9288 29.8962 10.8879 29.8297C10.8469 29.7632 10.7902 29.7078 10.7227 29.6683L1.81535 24.576L4.01128 34.758C4.02736 34.8361 4.0631 34.9087 4.11512 34.9692C4.16714 35.0297 4.23374 35.076 4.30864 35.1036C4.38354 35.1313 4.46427 35.1395 4.54323 35.1275C4.62218 35.1155 4.69677 35.0835 4.75995 35.0348ZM2.30264 12.0927L-0.0631218 23.0624L2.29906 34.0467C2.31707 34.1412 2.30603 34.2388 2.2674 34.3269C2.22877 34.4149 2.16436 34.4892 2.08262 34.5401C2.00088 34.591 1.90563 34.616 1.80939 34.6118C1.71315 34.6077 1.62041 34.5746 1.54334 34.5169L-4.50796 29.9094C-4.66127 29.7923 -4.78543 29.6415 -4.87078 29.4687C-4.95612 29.296 -5.00034 29.1059 -5 28.9133L-4.99809 17.2307C-4.99838 17.0381 -4.95409 16.848 -4.86869 16.6753C-4.78329 16.5025 -4.65908 16.3518 -4.50573 16.2348L1.54707 11.6222C1.62358 11.5621 1.71684 11.5269 1.81412 11.5216C1.91139 11.5163 2.00794 11.541 2.09059 11.5925C2.17324 11.6439 2.23795 11.7196 2.2759 11.8091C2.31386 11.8987 2.32319 11.9977 2.30264 12.0927Z" fill="#313131"/>
<path fill-rule="evenodd" clip-rule="evenodd" d="M23.7639 9.09592L29.7597 13.6689C29.8233 13.7154 29.8741 13.7771 29.9076 13.8483C29.941 13.9195 29.956 13.998 29.9512 14.0764C29.9463 14.1549 29.9218 14.2309 29.8798 14.2975C29.8379 14.3641 29.7799 14.4191 29.7111 14.4574L20.8159 19.5537L23.0082 9.37247C23.0259 9.29463 23.0629 9.22245 23.1157 9.1625C23.1685 9.10256 23.2356 9.05675 23.3107 9.02926C23.3858 9.00178 23.4666 8.99347 23.5458 9.00512C23.6249 9.01676 23.6999 9.04797 23.7639 9.09592ZM30.0322 26.3965L21 21.2281L30.0339 16.0627C30.1061 16.0216 30.1878 15.9999 30.2709 16C30.3541 16.0001 30.4357 16.0218 30.5079 16.063C30.58 16.1043 30.6401 16.1636 30.6822 16.2351C30.7243 16.3067 30.7469 16.388 30.7478 16.4709L30.7463 25.9885C30.7449 26.0713 30.722 26.1523 30.6798 26.2236C30.6376 26.2949 30.5776 26.354 30.5056 26.3952C30.4335 26.4363 30.352 26.4581 30.269 26.4583C30.186 26.4585 30.1044 26.4372 30.0322 26.3965ZM23.7599 33.0348L29.7711 28.4568C29.8333 28.4094 29.8828 28.3475 29.9153 28.2765C29.9478 28.2055 29.9623 28.1276 29.9575 28.0497C29.9527 27.9718 29.9288 27.8962 29.8879 27.8297C29.8469 27.7632 29.7902 27.7078 29.7227 27.6683L20.8153 22.576L23.0113 32.758C23.0274 32.8361 23.0631 32.9087 23.1151 32.9692C23.1671 33.0297 23.2337 33.076 23.3086 33.1036C23.3835 33.1313 23.4643 33.1395 23.5432 33.1275C23.6222 33.1155 23.6968 33.0835 23.7599 33.0348ZM21.3026 10.0927L18.9369 21.0624L21.2991 32.0467C21.3171 32.1412 21.306 32.2388 21.2674 32.3269C21.2288 32.4149 21.1644 32.4892 21.0826 32.5401C21.0009 32.591 20.9056 32.616 20.8094 32.6118C20.7131 32.6077 20.6204 32.5746 20.5433 32.5169L14.492 27.9094C14.3387 27.7923 14.2146 27.6415 14.1292 27.4687C14.0439 27.296 13.9997 27.1059 14 26.9133L14.0019 15.2307C14.0016 15.0381 14.0459 14.848 14.1313 14.6753C14.2167 14.5025 14.3409 14.3518 14.4943 14.2348L20.5471 9.62222C20.6236 9.56205 20.7168 9.52691 20.8141 9.52159C20.9114 9.51627 21.0079 9.54102 21.0906 9.59249C21.1732 9.64395 21.238 9.71961 21.2759 9.80913C21.3139 9.89865 21.3232 9.99768 21.3026 10.0927Z" fill="#313131"/>
<path fill-rule="evenodd" clip-rule="evenodd" d="M12.7639 -10.9041L18.7597 -6.33108C18.8233 -6.28458 18.8741 -6.2229 18.9076 -6.1517C18.941 -6.08049 18.956 -6.00205 18.9512 -5.92356C18.9463 -5.84507 18.9218 -5.76906 18.8798 -5.70249C18.8379 -5.63591 18.7799 -5.58092 18.7111 -5.54255L9.81587 -0.446294L12.0082 -10.6275C12.0259 -10.7054 12.0629 -10.7776 12.1157 -10.8375C12.1685 -10.8974 12.2356 -10.9432 12.3107 -10.9707C12.3858 -10.9982 12.4666 -11.0065 12.5458 -10.9949C12.6249 -10.9832 12.6999 -10.952 12.7639 -10.9041ZM19.2844 6.22944L10.2522 1.0611L19.286 -4.10431C19.3582 -4.14545 19.4399 -4.16707 19.5231 -4.16701C19.6062 -4.16696 19.6879 -4.14523 19.7601 -4.10399C19.8322 -4.06274 19.8923 -4.00341 19.9344 -3.93186C19.9765 -3.86032 19.9991 -3.77905 20 -3.6961L19.9985 5.82147C19.9971 5.90426 19.9742 5.98528 19.932 6.05658C19.8898 6.12788 19.8298 6.187 19.7577 6.22815C19.6857 6.26929 19.6042 6.29105 19.5212 6.29128C19.4382 6.2915 19.3566 6.2702 19.2844 6.22944ZM12.7599 13.0348L18.7711 8.45681C18.8333 8.4094 18.8828 8.34747 18.9153 8.27647C18.9478 8.20547 18.9623 8.12759 18.9575 8.04968C18.9527 7.97177 18.9288 7.89623 18.8879 7.82972C18.8469 7.76321 18.7902 7.70777 18.7227 7.66828L9.81535 2.57605L12.0113 12.758C12.0274 12.8361 12.0631 12.9087 12.1151 12.9692C12.1671 13.0297 12.2337 13.076 12.3086 13.1036C12.3835 13.1313 12.4643 13.1395 12.5432 13.1275C12.6222 13.1155 12.6968 13.0835 12.7599 13.0348ZM10.3026 -9.90731L7.93688 1.0624L10.2991 12.0467C10.3171 12.1412 10.306 12.2388 10.2674 12.3269C10.2288 12.4149 10.1644 12.4892 10.0826 12.5401C10.0009 12.591 9.90563 12.616 9.80939 12.6118C9.71315 12.6077 9.62041 12.5746 9.54334 12.5169L3.49204 7.90936C3.33873 7.7923 3.21457 7.64152 3.12922 7.46875C3.04388 7.29597 2.99966 7.10588 3 6.91326L3.00191 -4.76929C3.00162 -4.96191 3.04591 -5.15199 3.13131 -5.32473C3.21671 -5.49748 3.34092 -5.64823 3.49427 -5.76523L9.54707 -10.3778C9.62358 -10.4379 9.71684 -10.4731 9.81412 -10.4784C9.91139 -10.4837 10.0079 -10.459 10.0906 -10.4075C10.1732 -10.3561 10.238 -10.2804 10.2759 -10.1909C10.3139 -10.1013 10.3232 -10.0023 10.3026 -9.90731Z" fill="#313131"/>
</g>
<path opacity="0.4" d="M11.773 5.94043C12.6207 5.94043 13.3691 6.07425 14.0181 6.3419C14.6803 6.5968 15.1969 6.96641 15.5677 7.45072C15.9386 7.93504 16.124 8.51494 16.124 9.19043C16.124 9.92965 15.9518 10.5542 15.6075 11.064C15.2763 11.561 14.826 11.9434 14.2565 12.211C13.7002 12.4787 13.0777 12.6507 12.3889 12.7272V14.7728H10.7399V11.9051C11.6273 11.7777 12.3426 11.612 12.8856 11.4081C13.4287 11.1914 13.826 10.9238 14.0777 10.6051C14.3293 10.2738 14.4551 9.86592 14.4551 9.38161C14.4551 8.78259 14.2234 8.29827 13.7598 7.92866C13.2962 7.55906 12.5942 7.37425 11.6538 7.37425C10.7797 7.37425 10.0644 7.61004 9.50813 8.08161C8.96508 8.54043 8.64058 9.17131 8.53462 9.97425L7.12402 9.19043C7.26972 8.54043 7.54786 7.97327 7.95846 7.48896C8.3823 6.9919 8.9121 6.60955 9.54786 6.3419C10.1969 6.07425 10.9386 5.94043 11.773 5.94043ZM11.5346 16.4551C11.9187 16.4551 12.23 16.5698 12.4684 16.7993C12.7068 17.0287 12.826 17.3282 12.826 17.6978C12.826 18.0674 12.7068 18.3669 12.4684 18.5963C12.23 18.8257 11.9187 18.9404 11.5346 18.9404C11.1505 18.9404 10.8393 18.8257 10.6008 18.5963C10.3624 18.3669 10.2432 18.0674 10.2432 17.6978C10.2432 17.3282 10.3624 17.0287 10.6008 16.7993C10.8393 16.5698 11.1505 16.4551 11.5346 16.4551Z" fill="white"/>
</svg>
