<svg width="32" height="32" viewBox="0 0 32 32" fill="none" xmlns="http://www.w3.org/2000/svg">
    <path fill-rule="evenodd" clip-rule="evenodd"
        d="M21.9922 19.4985H18.3662V21.5981C18.5528 21.5515 18.7445 21.5191 18.9404 21.5005C19.1456 21.4725 19.3558 21.4585 19.5703 21.4585C19.9621 21.4585 20.3446 21.5189 20.7178 21.6401C21.1003 21.7614 21.4363 21.9435 21.7256 22.186C22.0243 22.4287 22.2631 22.7322 22.4404 23.0962C22.6177 23.4602 22.7061 23.8853 22.7061 24.3706C22.706 24.8465 22.6124 25.2761 22.4258 25.6587C22.2485 26.0504 22.006 26.3813 21.6982 26.6519C21.3902 26.9319 21.0308 27.1427 20.6201 27.2827C20.2096 27.432 19.7755 27.5063 19.3184 27.5063C18.9171 27.5063 18.5435 27.4547 18.1982 27.3521C17.8624 27.2494 17.5543 27.105 17.2744 26.9185C16.9945 26.7412 16.7468 26.5311 16.5322 26.2886C16.3269 26.0459 16.1493 25.7887 16 25.5181L17.0361 24.7759C17.2881 25.1678 17.5864 25.495 17.9316 25.7563C18.2863 26.0177 18.735 26.1479 19.2764 26.1479C19.5469 26.1479 19.799 26.1059 20.0322 26.022C20.2653 25.938 20.4659 25.8171 20.6338 25.6587C20.8111 25.5094 20.9467 25.3265 21.04 25.1118C21.1426 24.8973 21.1943 24.6548 21.1943 24.3843C21.1943 23.8523 21.0071 23.4465 20.6338 23.1665C20.2699 22.8866 19.7475 22.7466 19.0664 22.7466H16.9385V18.1548H21.9922V19.4985ZM11.332 18.0005C11.7613 18.0005 12.1532 18.0661 12.5078 18.1968C12.8718 18.3274 13.185 18.5137 13.4463 18.7563C13.7075 18.9896 13.9079 19.2697 14.0479 19.5962C14.1972 19.9229 14.2725 20.278 14.2725 20.6606C14.2724 20.9965 14.2155 21.3089 14.1035 21.5981C13.9915 21.8875 13.8376 22.163 13.6416 22.4243C13.4456 22.6763 13.213 22.9195 12.9424 23.1528C12.6811 23.3861 12.3958 23.6188 12.0879 23.8521L11.3877 24.3706H14.6084V25.644H8V25.3081L10.8145 23.2085C11.085 23.0032 11.3371 22.8115 11.5703 22.6343C11.8127 22.4478 12.0177 22.2612 12.1855 22.0747C12.3629 21.8881 12.5038 21.6921 12.6064 21.4868C12.7091 21.2815 12.7598 21.0523 12.7598 20.8003C12.7597 20.4084 12.6337 20.0681 12.3818 19.7788C12.1298 19.4895 11.766 19.3442 11.29 19.3442C11.0476 19.3442 10.833 19.3864 10.6465 19.4702C10.4692 19.5449 10.3143 19.6525 10.1836 19.7925C10.053 19.9231 9.95495 20.0772 9.88965 20.2544C9.82435 20.4317 9.79201 20.6137 9.79199 20.8003C9.79199 20.9776 9.81564 21.1972 9.8623 21.4585H8.40625C8.36896 21.328 8.34093 21.1974 8.32227 21.0669C8.31293 20.9269 8.30762 20.7956 8.30762 20.6743C8.30764 20.3385 8.37773 20.012 8.51758 19.6948C8.65757 19.3682 8.8588 19.0787 9.12012 18.8267C9.38145 18.5747 9.69893 18.3735 10.0723 18.2241C10.4455 18.0749 10.8655 18.0005 11.332 18.0005ZM19.5635 9.35596C20.1141 9.35597 20.6319 9.45926 21.1172 9.66455C21.6025 9.86054 22.0223 10.1361 22.377 10.4907C22.7409 10.836 23.0261 11.2463 23.2314 11.7222C23.4461 12.1981 23.5537 12.7116 23.5537 13.2622C23.5537 13.8128 23.4461 14.3263 23.2314 14.8022C23.0261 15.2689 22.741 15.68 22.377 16.0347C22.0131 16.3892 21.5887 16.6692 21.1035 16.8745C20.6183 17.0705 20.1003 17.1684 19.5498 17.1685C18.9991 17.1685 18.4805 17.0705 17.9951 16.8745C17.5192 16.6692 17.0993 16.3892 16.7354 16.0347C16.3807 15.68 16.1008 15.2689 15.8955 14.8022C15.6902 14.3263 15.5869 13.8128 15.5869 13.2622C15.5869 12.7116 15.6902 12.1981 15.8955 11.7222C16.1008 11.2464 16.3808 10.836 16.7354 10.4907C17.0994 10.1361 17.5244 9.86055 18.0098 9.66455C18.495 9.45931 19.0129 9.35596 19.5635 9.35596ZM11.332 9.35596C11.7613 9.35596 12.1532 9.42164 12.5078 9.55225C12.8718 9.68291 13.185 9.87013 13.4463 10.1128C13.7075 10.3461 13.9079 10.6261 14.0479 10.9526C14.1971 11.2792 14.2724 11.6336 14.2725 12.0161C14.2725 12.3521 14.2155 12.6653 14.1035 12.9546C13.9915 13.2438 13.8375 13.5195 13.6416 13.7808C13.4457 14.0325 13.2128 14.2752 12.9424 14.5083C12.681 14.7416 12.3959 14.9752 12.0879 15.2085L11.3877 15.7261H14.6084V17.0005H8V16.6646L10.8145 14.564C11.0849 14.3588 11.3371 14.1679 11.5703 13.9907C11.8129 13.8041 12.0176 13.6168 12.1855 13.4302C12.3629 13.2435 12.5038 13.0476 12.6064 12.8423C12.709 12.6371 12.7597 12.4085 12.7598 12.1567C12.7598 11.7647 12.6338 11.4236 12.3818 11.1343C12.1298 10.8451 11.7659 10.7007 11.29 10.7007C11.0475 10.7007 10.8331 10.7428 10.6465 10.8267C10.4692 10.9013 10.3143 11.0089 10.1836 11.1489C10.0531 11.2795 9.95491 11.4337 9.88965 11.6108C9.82443 11.788 9.79199 11.9702 9.79199 12.1567C9.79202 12.3339 9.81571 12.553 9.8623 12.814H8.40625C8.36897 12.6834 8.34091 12.5529 8.32227 12.4224C8.31294 12.2825 8.30763 12.152 8.30762 12.0308C8.30762 11.6948 8.37759 11.3676 8.51758 11.0503C8.65758 10.7236 8.85878 10.4341 9.12012 10.1821C9.38141 9.93023 9.69904 9.72986 10.0723 9.58057C10.4456 9.43128 10.8654 9.35596 11.332 9.35596ZM19.5771 10.7144C19.2132 10.7144 18.8816 10.78 18.583 10.9106C18.2845 11.0413 18.0237 11.219 17.7998 11.4429C17.5851 11.6669 17.4163 11.9371 17.2949 12.2544C17.1736 12.5623 17.1133 12.8983 17.1133 13.2622C17.1133 13.626 17.1737 13.9622 17.2949 14.27C17.4163 14.578 17.5851 14.8492 17.7998 15.0825C18.0237 15.3064 18.2845 15.4841 18.583 15.6147C18.8816 15.7454 19.2132 15.81 19.5771 15.8101C19.9223 15.8101 20.2444 15.7453 20.543 15.6147C20.8509 15.4841 21.1125 15.3065 21.3271 15.0825C21.5511 14.8492 21.7244 14.578 21.8457 14.27C21.9762 13.9622 22.041 13.626 22.041 13.2622C22.041 12.8983 21.9763 12.5623 21.8457 12.2544C21.7244 11.9371 21.5511 11.6668 21.3271 11.4429C21.1125 11.2189 20.851 11.0413 20.543 10.9106C20.2444 10.78 19.9224 10.7144 19.5771 10.7144Z"
        fill="#31CB9E" />
    <path fill-rule="evenodd" clip-rule="evenodd"
        d="M14.8636 7.39963C15.1387 7.42255 15.3434 7.66361 15.3206 7.93869L15.2181 9.16428C15.1949 9.43917 14.954 9.64312 14.679 9.62033C14.404 9.59741 14.1993 9.35627 14.222 9.08127L14.3245 7.85568C14.3476 7.58072 14.5886 7.37686 14.8636 7.39963ZM15.4974 7.14279C15.6628 6.92191 15.9756 6.87686 16.1966 7.04221L17.181 7.77853C17.4019 7.94395 17.4468 8.25669 17.2815 8.47775C17.1162 8.69873 16.8034 8.74436 16.5823 8.57932L15.598 7.84299C15.3768 7.67757 15.332 7.36391 15.4974 7.14279ZM14.0062 6.65256C14.2678 6.56485 14.551 6.70553 14.639 6.96701C14.7267 7.22881 14.5863 7.51301 14.3245 7.6008L13.1585 7.99142C12.8968 8.07887 12.6134 7.93766 12.5257 7.67599C12.4379 7.41419 12.5793 7.13096 12.8411 7.04318L14.0062 6.65256ZM13.3812 4.60568C13.5992 4.43641 13.9129 4.47562 14.0823 4.69357L14.8362 5.66428C15.0057 5.8823 14.9664 6.19599 14.7483 6.36545C14.5303 6.53476 14.2166 6.49553 14.0472 6.27756L13.2933 5.30685C13.1238 5.08883 13.1631 4.77515 13.3812 4.60568ZM16.4124 4.6467C16.6075 4.45163 16.9242 4.45188 17.1194 4.6467C17.3147 4.84194 17.3147 5.15846 17.1194 5.35373L16.2503 6.22287C16.055 6.41813 15.7385 6.41813 15.5433 6.22287C15.3484 6.02757 15.3481 5.71096 15.5433 5.51584L16.4124 4.6467Z"
        fill="#FCD04D" />
    <path fill-rule="evenodd" clip-rule="evenodd"
        d="M24.6258 19.269C24.3746 19.1547 24.2639 18.8584 24.378 18.607L24.8855 17.4879C24.9997 17.2365 25.2964 17.125 25.5478 17.2392C25.7992 17.3533 25.9107 17.65 25.7966 17.9015L25.2881 19.0202C25.174 19.2717 24.8773 19.3832 24.6258 19.269ZM23.9438 19.2971C23.7138 19.4496 23.4039 19.3874 23.2512 19.1576L22.5718 18.1331C22.4192 17.903 22.4817 17.5921 22.7117 17.4395C22.9418 17.2869 23.2523 17.3501 23.4049 17.5803L24.0843 18.6048C24.2367 18.8349 24.1738 19.1445 23.9438 19.2971ZM25.182 20.2609C24.9061 20.2553 24.6868 20.027 24.6922 19.751C24.6976 19.475 24.926 19.2558 25.2021 19.2612L26.4306 19.2852C26.7065 19.2906 26.9259 19.5183 26.9208 19.7942C26.9154 20.0702 26.6875 20.2906 26.4115 20.2853L25.182 20.2609ZM25.0831 22.3991C24.8208 22.4851 24.5388 22.3418 24.4526 22.0796L24.0679 20.9125C23.9816 20.6502 24.1245 20.3671 24.3868 20.2808C24.6491 20.1945 24.9322 20.3375 25.0185 20.5997L25.402 21.7674C25.4883 22.0298 25.3454 22.3128 25.0831 22.3991ZM22.2416 21.3397C21.9921 21.4577 21.694 21.3514 21.5758 21.1019C21.4577 20.8524 21.5642 20.5543 21.8136 20.436L22.9244 19.9099C23.1739 19.7917 23.472 19.8982 23.5903 20.1477C23.7085 20.3972 23.602 20.6953 23.3525 20.8135L22.2416 21.3397Z"
        fill="#8F92FF" />
</svg>