<svg width="325" height="180" viewBox="0 0 325 180" fill="none" xmlns="http://www.w3.org/2000/svg">
<path d="M61.5036 136.907L60.3358 137.026V126.114L61.5036 125.994V136.907Z" fill="#BE1E2D"/>
<path d="M59.8907 125.657V136.57L60.3358 137.027V126.114L59.8907 125.657Z" fill="#F95568"/>
<path d="M59.8907 125.657L61.0585 125.538L61.5035 125.994L60.3358 126.114L59.8907 125.657Z" fill="#FFB3C2"/>
<path d="M70.493 131.775L54.9556 133.366V104.612L70.493 103.021V131.775Z" fill="#F23645"/>
<path d="M50.9014 100.452V129.205L54.9555 133.366V104.612L50.9014 100.452Z" fill="#F96274"/>
<path d="M50.9014 100.452L66.4388 98.8608L70.4929 103.022L54.9555 104.612L50.9014 100.452Z" fill="#FFB3BC"/>
<path d="M61.5036 102.049L60.3358 102.169V69.1986L61.5036 69.0791V102.049Z" fill="#BE1E2D"/>
<path d="M59.8907 68.7422V101.712L60.3358 102.169V69.1989L59.8907 68.7422Z" fill="#F95568"/>
<path d="M59.8907 68.7422L61.0585 68.6226L61.5035 69.0794L60.3358 69.1989L59.8907 68.7422Z" fill="#FFB3C2"/>
<path d="M163.307 104.141L162.139 104.26V85.5599L163.307 85.4404V104.141Z" fill="#BE1E2D"/>
<path d="M161.694 85.1035V103.804L162.139 104.26V85.5602L161.694 85.1035Z" fill="#F95568"/>
<path d="M161.694 85.1034L162.861 84.9839L163.306 85.4406L162.139 85.5601L161.694 85.1034Z" fill="#FFB3C2"/>
<path d="M172.296 91.2206L156.758 92.8115V75.5186L172.296 73.9277V91.2206Z" fill="#F23645"/>
<path d="M152.704 71.3579V88.6508L156.758 92.8115V75.5186L152.704 71.3579Z" fill="#F96274"/>
<path d="M152.704 71.358L168.242 69.7671L172.296 73.9278L156.758 75.5187L152.704 71.358Z" fill="#FFB3BC"/>
<path d="M163.307 72.9558L162.139 73.0754V48.7836L163.307 48.6641V72.9558Z" fill="#BE1E2D"/>
<path d="M161.694 48.3271V72.6188L162.139 73.0757V48.7839L161.694 48.3271Z" fill="#F95568"/>
<path d="M161.694 48.3266L162.861 48.207L163.306 48.6638L162.139 48.7834L161.694 48.3266Z" fill="#FFB3C2"/>
<path d="M290.56 102.127L289.392 102.246V70.0272L290.56 69.9077V102.127Z" fill="#BE1E2D"/>
<path d="M288.947 69.5703V101.79L289.392 102.246V70.027L288.947 69.5703Z" fill="#F95568"/>
<path d="M288.947 69.5703L290.115 69.4507L290.56 69.9075L289.392 70.027L288.947 69.5703Z" fill="#FFB3C2"/>
<path d="M299.549 89.207L284.012 90.7979V59.9859L299.549 58.395V89.207Z" fill="#F23645"/>
<path d="M279.958 55.8252V86.6372L284.012 90.7979V59.9859L279.958 55.8252Z" fill="#F96274"/>
<path d="M279.958 55.8252L295.495 54.2344L299.549 58.3951L284.012 59.9859L279.958 55.8252Z" fill="#FFB3BC"/>
<path d="M290.56 57.423L289.392 57.5427V33.2509L290.56 33.1313V57.423Z" fill="#BE1E2D"/>
<path d="M288.947 32.7939V57.0856L289.392 57.5425V33.2507L288.947 32.7939Z" fill="#F95568"/>
<path d="M288.947 32.7939L290.115 32.6743L290.56 33.1311L289.392 33.2506L288.947 32.7939Z" fill="#FFB3C2"/>
<path d="M214.208 146.617L213.04 146.737V117.411L214.208 117.292V146.617Z" fill="#BE1E2D"/>
<path d="M212.595 116.955V146.28L213.04 146.737V117.411L212.595 116.955Z" fill="#F95568"/>
<path d="M212.595 116.954L213.763 116.835L214.208 117.292L213.04 117.411L212.595 116.954Z" fill="#FFB3C2"/>
<path d="M223.197 123.072L207.66 124.663V91.9125L223.197 90.3218V123.072Z" fill="#F23645"/>
<path d="M203.606 87.7515V120.502L207.66 124.663V91.9121L203.606 87.7515Z" fill="#F96274"/>
<path d="M203.606 87.7515L219.143 86.1606L223.197 90.3214L207.66 91.9121L203.606 87.7515Z" fill="#FFB3BC"/>
<path d="M214.208 89.3492L213.04 89.4687V52.9051L214.208 52.7856V89.3492Z" fill="#BE1E2D"/>
<path d="M212.595 52.4487V89.0123L213.04 89.469V52.9055L212.595 52.4487Z" fill="#F95568"/>
<path d="M212.595 52.4482L213.763 52.3286L214.208 52.7854L213.04 52.9049L212.595 52.4482Z" fill="#FFB3C2"/>
<path d="M188.757 166.795L187.589 166.915V126.224L188.757 126.104V166.795Z" fill="#BE1E2D"/>
<path d="M187.144 125.767V166.458L187.589 166.915V126.223L187.144 125.767Z" fill="#F95568"/>
<path d="M187.144 125.766L188.312 125.647L188.757 126.104L187.589 126.223L187.144 125.766Z" fill="#FFB3C2"/>
<path d="M197.747 131.884L182.209 133.474V85.3609L197.747 83.77V131.884Z" fill="#F23645"/>
<path d="M178.155 81.2002V129.314L182.209 133.474V85.3609L178.155 81.2002Z" fill="#F96274"/>
<path d="M178.155 81.2002L193.692 79.6094L197.747 83.7701L182.209 85.361L178.155 81.2002Z" fill="#FFB3BC"/>
<path d="M188.757 82.7975L187.589 82.9171V75.5185L188.757 75.3989V82.7975Z" fill="#BE1E2D"/>
<path d="M187.144 75.062V82.4606L187.589 82.9174V75.5188L187.144 75.062Z" fill="#F95568"/>
<path d="M187.144 75.0619L188.312 74.9424L188.757 75.3991L187.589 75.5187L187.144 75.0619Z" fill="#FFB3C2"/>
<path d="M86.9544 144.066L85.7866 144.185V123.74L86.9544 123.621V144.066Z" fill="#BE1E2D"/>
<path d="M85.3416 123.284V143.729L85.7866 144.186V123.741L85.3416 123.284Z" fill="#F95568"/>
<path d="M85.3416 123.284L86.5093 123.164L86.9543 123.621L85.7866 123.741L85.3416 123.284Z" fill="#FFB3C2"/>
<path d="M95.9437 129.401L80.4062 130.992V113.608L95.9437 112.017V129.401Z" fill="#F23645"/>
<path d="M76.3521 109.447V126.832L80.4062 130.992V113.608L76.3521 109.447Z" fill="#F96274"/>
<path d="M76.3521 109.447L91.8896 107.856L95.9436 112.017L80.4062 113.608L76.3521 109.447Z" fill="#FFB3BC"/>
<path d="M86.9544 111.045L85.7866 111.164V93.9691L86.9544 93.8496V111.045Z" fill="#BE1E2D"/>
<path d="M85.3416 93.5122V110.708L85.7866 111.164V93.9689L85.3416 93.5122Z" fill="#F95568"/>
<path d="M85.3416 93.5122L86.5093 93.3926L86.9543 93.8494L85.7866 93.9689L85.3416 93.5122Z" fill="#FFB3C2"/>
<path d="M10.6022 179.377L9.43445 179.497V166.805L10.6022 166.686V179.377Z" fill="#089981"/>
<path d="M8.98938 166.348V179.04L9.43442 179.497V166.805L8.98938 166.348Z" fill="#1EC6A5"/>
<path d="M8.98938 166.348L10.1571 166.229L10.6022 166.685L9.43442 166.805L8.98938 166.348Z" fill="#FFB3C2"/>
<path d="M19.5915 172.466L4.05396 174.057V138.161L19.5915 136.57V172.466Z" fill="#089981"/>
<path d="M0 134V169.896L4.05403 174.057V138.16L0 134Z" fill="#1EC6A5"/>
<path d="M0 134L15.5374 132.409L19.5916 136.57L4.05403 138.161L0 134Z" fill="#60F4D7"/>
<path d="M10.6022 135.597L9.43445 135.717V110.333L10.6022 110.214V135.597Z" fill="#089981"/>
<path d="M8.98938 109.876V135.26L9.43442 135.717V110.333L8.98938 109.876Z" fill="#1EC6A5"/>
<path d="M8.98938 109.876L10.1571 109.757L10.6022 110.214L9.43442 110.333L8.98938 109.876Z" fill="#60F4D7"/>
<path d="M36.053 169.51L34.8853 169.629V144.246L36.053 144.126V169.51Z" fill="#089981"/>
<path d="M34.4402 143.789V169.173L34.8852 169.629V144.246L34.4402 143.789Z" fill="#1EC6A5"/>
<path d="M34.4402 143.789L35.6079 143.669L36.053 144.126L34.8852 144.246L34.4402 143.789Z" fill="#FFB3C2"/>
<path d="M45.0423 149.907L29.5049 151.497V95.9873L45.0423 94.3965V149.907Z" fill="#089981"/>
<path d="M25.4507 91.8262V147.336L29.5048 151.497V95.9869L25.4507 91.8262Z" fill="#1EC6A5"/>
<path d="M25.4507 91.8262L40.9882 90.2354L45.0422 94.3961L29.5048 95.9869L25.4507 91.8262Z" fill="#60F4D7"/>
<path d="M36.053 93.4243L34.8853 93.5439V81.5507L36.053 81.4312V93.4243Z" fill="#089981"/>
<path d="M34.4402 81.0938V93.0869L34.8852 93.5437V81.5505L34.4402 81.0938Z" fill="#1EC6A5"/>
<path d="M34.4402 81.0937L35.6079 80.9741L36.053 81.4309L34.8852 81.5504L34.4402 81.0937Z" fill="#60F4D7"/>
<path d="M112.405 113.836L111.237 113.955V102.333L112.405 102.214V113.836Z" fill="#089981"/>
<path d="M110.792 101.877V113.499L111.237 113.955V102.334L110.792 101.877Z" fill="#1EC6A5"/>
<path d="M110.792 101.877L111.96 101.757L112.405 102.214L111.237 102.334L110.792 101.877Z" fill="#FFB3C2"/>
<path d="M121.394 107.995L105.857 109.585V86.0756L121.394 84.4849V107.995Z" fill="#089981"/>
<path d="M101.803 81.915V105.425L105.857 109.585V86.0756L101.803 81.915Z" fill="#1EC6A5"/>
<path d="M101.803 81.9151L117.34 80.3242L121.394 84.4849L105.857 86.0757L101.803 81.9151Z" fill="#60F4D7"/>
<path d="M112.405 83.5124L111.237 83.6319V74.6474L112.405 74.5278V83.5124Z" fill="#089981"/>
<path d="M110.792 74.1909V83.1754L111.237 83.6321V74.6476L110.792 74.1909Z" fill="#1EC6A5"/>
<path d="M110.792 74.1909L111.96 74.0713L112.405 74.528L111.237 74.6476L110.792 74.1909Z" fill="#60F4D7"/>
<path d="M137.856 109.328L136.688 109.447V93.4623L137.856 93.3428V109.328Z" fill="#089981"/>
<path d="M136.243 93.0054V108.99L136.688 109.447V93.4621L136.243 93.0054Z" fill="#1EC6A5"/>
<path d="M136.243 93.0053L137.411 92.8857L137.856 93.3426L136.688 93.4621L136.243 93.0053Z" fill="#FFB3C2"/>
<path d="M146.845 99.1233L131.308 100.714V25.4175L146.845 23.8267V99.1233Z" fill="#089981"/>
<path d="M127.254 21.2568V96.5534L131.308 100.714V25.4176L127.254 21.2568Z" fill="#1EC6A5"/>
<path d="M127.254 21.2569L142.791 19.666L146.845 23.8267L131.308 25.4176L127.254 21.2569Z" fill="#60F4D7"/>
<path d="M137.856 22.8546L136.688 22.9742V9.38024L137.856 9.26074V22.8546Z" fill="#089981"/>
<path d="M136.243 8.92334V22.5172L136.688 22.974V9.38006L136.243 8.92334Z" fill="#1EC6A5"/>
<path d="M136.243 8.92332L137.411 8.80371L137.856 9.26053L136.688 9.38003L136.243 8.92332Z" fill="#60F4D7"/>
<path d="M239.658 115.783L238.491 115.902V103.151L239.658 103.031V115.783Z" fill="#089981"/>
<path d="M238.046 102.694V115.446L238.491 115.903V103.151L238.046 102.694Z" fill="#1EC6A5"/>
<path d="M238.046 102.694L239.213 102.575L239.658 103.031L238.491 103.151L238.046 102.694Z" fill="#FFB3C2"/>
<path d="M248.648 108.812L233.11 110.403V85.8326L248.648 84.2417V108.812Z" fill="#089981"/>
<path d="M229.056 81.6719V106.242L233.11 110.403V85.8326L229.056 81.6719Z" fill="#1EC6A5"/>
<path d="M229.056 81.6719L244.594 80.0811L248.648 84.2418L233.11 85.8326L229.056 81.6719Z" fill="#60F4D7"/>
<path d="M239.658 83.2693L238.491 83.3889V58.0052L239.658 57.8857V83.2693Z" fill="#089981"/>
<path d="M238.046 57.5483V82.9319L238.491 83.3887V58.0051L238.046 57.5483Z" fill="#1EC6A5"/>
<path d="M238.046 57.5488L239.213 57.4292L239.658 57.886L238.491 58.0055L238.046 57.5488Z" fill="#60F4D7"/>
<path d="M265.109 125.403L263.942 125.523V87.1904L265.109 87.0708V125.403Z" fill="#089981"/>
<path d="M263.496 86.7339V125.066L263.941 125.523V87.1906L263.496 86.7339Z" fill="#1EC6A5"/>
<path d="M263.496 86.7334L264.664 86.6138L265.109 87.0705L263.941 87.1901L263.496 86.7334Z" fill="#FFB3C2"/>
<path d="M274.098 92.851L258.561 94.4418V35.4585L274.098 33.8677V92.851Z" fill="#089981"/>
<path d="M254.507 31.2979V90.2812L258.561 94.4419V35.4586L254.507 31.2979Z" fill="#1EC6A5"/>
<path d="M254.507 31.2979L270.044 29.707L274.099 33.8677L258.561 35.4586L254.507 31.2979Z" fill="#60F4D7"/>
<path d="M265.109 32.8956L263.942 33.0152V26.5742L265.109 26.4546V32.8956Z" fill="#089981"/>
<path d="M263.496 26.1177V32.5588L263.941 33.0155V26.5745L263.496 26.1177Z" fill="#1EC6A5"/>
<path d="M263.496 26.1171L264.664 25.9976L265.109 26.4543L263.941 26.5739L263.496 26.1171Z" fill="#60F4D7"/>
<path d="M316.011 89.5773L314.843 89.697V72.9424L316.011 72.8228V89.5773Z" fill="#089981"/>
<path d="M314.398 72.4858V89.2404L314.843 89.6973V72.9427L314.398 72.4858Z" fill="#1EC6A5"/>
<path d="M314.398 72.4857L315.566 72.3662L316.011 72.8229L314.843 72.9425L314.398 72.4857Z" fill="#FFB3C2"/>
<path d="M325 78.6037L309.463 80.1945V13.9732L325 12.3823V78.6037Z" fill="#089981"/>
<path d="M305.408 9.81201V76.0334L309.463 80.1941V13.9727L305.408 9.81201Z" fill="#1EC6A5"/>
<path d="M305.408 9.81206L320.946 8.22119L325 12.3819L309.463 13.9728L305.408 9.81206Z" fill="#60F4D7"/>
<path d="M316.011 11.4093L314.843 11.5289V0.576148L316.011 0.456543V11.4093Z" fill="#089981"/>
<path d="M314.398 0.119629V11.0725L314.843 11.5292V0.576449L314.398 0.119629Z" fill="#1EC6A5"/>
<path d="M314.398 0.119504L315.566 0L316.011 0.456719L314.843 0.576324L314.398 0.119504Z" fill="#60F4D7"/>
</svg>
