<svg width="24" height="25" viewBox="0 0 24 25" fill="none" xmlns="http://www.w3.org/2000/svg">
<path d="M4 3.72754C4 2.07068 5.34315 0.727539 7 0.727539L18 0.727539L23 5.72754L23 21.7275C23 23.3844 21.6569 24.7275 20 24.7275L7 24.7275C5.34315 24.7275 4 23.3844 4 21.7275L4 3.72754Z" fill="#31CB9E" fill-opacity="0.3"/>
<path d="M23 5.72754L19 5.72754C18.4477 5.72754 18 5.27982 18 4.72754V0.727539L23 5.72754Z" fill="#31CB9E"/>
<path d="M1.03893 9.50102C1.08191 8.83177 1.61174 8.32334 2.27409 8.2183C3.0083 8.10185 3.96438 7.92533 4.70097 7.7023C5.60487 7.4286 6.83927 6.8847 7.58863 6.53944C8.00799 6.34623 8.49201 6.34623 8.91137 6.53944C9.66073 6.8847 10.8951 7.4286 11.799 7.7023C12.5356 7.92533 13.4917 8.10185 14.2259 8.2183C14.8883 8.32334 15.4181 8.83177 15.4611 9.50102C15.6449 12.3638 15.4456 19.8611 8.66673 22.0992C8.39952 22.1874 8.10048 22.1874 7.83327 22.0992C1.05441 19.8611 0.855076 12.3638 1.03893 9.50102Z" fill="#31CB9E"/>
<path fill-rule="evenodd" clip-rule="evenodd" d="M7.35622 8.10465C7.92209 7.83947 8.57793 7.83947 9.14381 8.10465C9.68781 8.35958 10.4263 8.68622 10.9696 8.85659C11.3739 8.98339 11.8898 9.0922 12.3564 9.17555C13.205 9.32713 13.9462 10.0004 13.9862 10.9462C14.0361 12.1267 13.9811 14.0657 13.3085 15.9377C12.6311 17.8228 11.3154 19.6651 8.84659 20.5577C8.46304 20.6963 8.03698 20.6963 7.65343 20.5577C5.18466 19.6651 3.86889 17.8228 3.19154 15.9377C2.51893 14.0657 2.46394 12.1267 2.51384 10.9462C2.55381 10.0004 3.29506 9.32713 4.14364 9.17555C4.61024 9.0922 5.12609 8.98339 5.53041 8.85659C6.07368 8.68622 6.81221 8.35958 7.35622 8.10465ZM8.71946 9.01015C8.42245 8.87096 8.07757 8.87096 7.78056 9.01015C7.23523 9.26571 6.44318 9.61836 5.82965 9.81077C5.36415 9.95675 4.79886 10.0743 4.31949 10.16C3.84633 10.2445 3.52967 10.5927 3.51294 10.9884C3.46556 12.1094 3.52247 13.9013 4.13264 15.5995C4.73807 17.2846 5.87596 18.8517 7.99343 19.6172C8.15727 19.6765 8.34275 19.6765 8.50659 19.6172C10.6241 18.8517 11.762 17.2846 12.3674 15.5995C12.9776 13.9013 13.0345 12.1094 12.9871 10.9884C12.9704 10.5927 12.6537 10.2445 12.1805 10.16C11.7012 10.0743 11.1359 9.95675 10.6704 9.81077C10.0568 9.61836 9.2648 9.26571 8.71946 9.01015Z" fill="#065F44"/>
</svg>
