<?xml version="1.0" encoding="utf-8"?>
<svg version="1.1" id="Layer_1" xmlns="http://www.w3.org/2000/svg" xmlns:xlink="http://www.w3.org/1999/xlink" x="0px"
	y="0px" viewBox="0 0 512 512" style="enable-background:new 0 0 512 512;" xml:space="preserve" fill="white">
	<g>
		<path d="M221.87,17.07v17.07c51.89,0.01,98.72,20.98,132.74,54.98c34,34.03,54.98,80.85,54.99,132.75
		c-0.01,51.89-20.99,98.72-54.99,132.74c-34.03,34-80.85,54.98-132.74,54.99c-51.9-0.01-98.72-20.99-132.75-54.99
		c-34-34.03-54.97-80.85-54.98-132.74c0.01-51.9,20.98-98.73,54.98-132.75c34.03-34,80.85-54.97,132.75-54.98V17.07V0
		C99.32,0.01,0.01,99.32,0,221.87C0.01,344.4,99.32,443.72,221.87,443.73c122.53-0.01,221.85-99.33,221.87-221.87
		C443.72,99.32,344.4,0.01,221.87,0V17.07z" />
		<path d="M363.4,387.53L482.87,507c6.67,6.67,17.47,6.67,24.14,0s6.67-17.47,0-24.14L387.53,363.4c-6.67-6.67-17.47-6.67-24.14,0
		S356.73,380.87,363.4,387.53" />
		<path
			d="M153.6,187.73V153.6l34.13,0c9.43,0,17.07-7.64,17.07-17.07c0-9.43-7.64-17.07-17.07-17.07l-51.2,0
		c-4.49,0-8.89,1.82-12.07,5c-3.18,3.18-5,7.57-5,12.07v51.2c0,9.43,7.64,17.07,17.07,17.07C145.96,204.8,153.6,197.16,153.6,187.73
		L153.6,187.73z M256,153.6h34.13l0,34.13c0,9.43,7.64,17.07,17.07,17.07c9.43,0,17.07-7.64,17.07-17.07l0-51.2
		c0-4.49-1.82-8.89-5-12.07c-3.18-3.18-7.57-5-12.07-5H256c-9.43,0-17.07,7.64-17.07,17.07C238.93,145.96,246.57,153.6,256,153.6
		L256,153.6z M119.47,256v51.2c0,4.49,1.82,8.89,5,12.07c3.18,3.18,7.57,5,12.07,5h51.2c9.43,0,17.07-7.64,17.07-17.07
		c0-9.43-7.64-17.07-17.07-17.07l-34.13,0l0-34.13c0-9.43-7.64-17.07-17.07-17.07C127.11,238.93,119.47,246.57,119.47,256
		L119.47,256z M290.13,256v34.13l-34.13,0c-9.43,0-17.07,7.64-17.07,17.07c0,9.43,7.64,17.07,17.07,17.07l51.2,0
		c4.49,0,8.89-1.82,12.07-5s5-7.57,5-12.07V256c0-9.43-7.64-17.07-17.07-17.07C297.77,238.93,290.13,246.57,290.13,256L290.13,256z" />
	</g>
</svg>