<svg xmlns="http://www.w3.org/2000/svg" width="16" height="16" viewBox="0 0 16 16" fill="none">
    <path fill-rule="evenodd" clip-rule="evenodd"
        d="M9.64089 3.40962C8.92461 2.19625 7.07382 2.19717 6.3602 3.41013L2.73965 9.54407C2.06606 10.6858 2.90669 12.1667 4.38012 12.1667H11.6194C13.0934 12.1667 13.9338 10.6852 13.2611 9.54299M13.2611 9.54299L9.64089 3.40962L13.2611 9.54299ZM5.49852 2.90268C6.59937 1.03215 9.39927 1.0332 10.502 2.90127L14.1223 9.03468C15.2299 10.9145 13.7835 13.1667 11.6194 13.1667H4.38012C2.21775 13.1667 0.768929 10.9162 1.87839 9.0359L5.49852 2.90268Z"
        fill="#FF537B" />
    <path fill-rule="evenodd" clip-rule="evenodd"
        d="M8.0001 4.83333C8.27624 4.83333 8.5001 5.05719 8.5001 5.33333V7.33333C8.5001 7.60948 8.27624 7.83333 8.0001 7.83333C7.72396 7.83333 7.5001 7.60948 7.5001 7.33333V5.33333C7.5001 5.05719 7.72396 4.83333 8.0001 4.83333Z"
        fill="#FF537B" />
    <path fill-rule="evenodd" clip-rule="evenodd"
        d="M7.3808 10.0051C7.37656 9.65963 7.65674 9.38 7.99945 9.38C8.34586 9.38 8.61945 9.66214 8.61945 10C8.61945 10.3342 8.34948 10.62 8.00078 10.62C7.66457 10.62 7.38353 10.3491 7.3808 10.0051ZM8.3807 9.99197L8.38076 9.99789L8.38075 9.99495L8.3807 9.99197Z"
        fill="#FF537B" />
</svg>