<svg width="160" height="57" viewBox="0 0 160 57" fill="none" xmlns="http://www.w3.org/2000/svg">
<path d="M68.1674 23.8673H65.6709L61.2764 39.238H66.1455L69.8592 26.2606C70.0655 25.7036 69.983 25.064 69.6323 24.5688C69.3022 24.1149 68.7451 23.8467 68.1674 23.8673Z" fill="#3A3A3A"/>
<path d="M71.5723 20.4219C71.139 21.8042 69.8805 22.7739 68.4362 22.8564C67.4459 22.8977 66.6206 22.1549 66.5794 21.1646C66.5587 20.917 66.6 20.6488 66.7032 20.4219C67.1364 19.0395 68.395 18.0698 69.8392 17.9873C70.4375 17.946 71.0152 18.2349 71.3866 18.73C71.5517 18.9776 71.6754 19.2665 71.6961 19.5553C71.7167 19.8442 71.6754 20.133 71.5723 20.4219Z" fill="#3A3A3A"/>
<path d="M91.4818 23.0421C90.5121 23.0421 89.5631 23.2278 88.6759 23.5785C88.2426 23.7642 87.8506 24.0118 87.4586 24.28L88.5727 20.36C88.7584 19.8029 88.6965 19.1633 88.3458 18.6888C88.1807 18.4618 87.9538 18.2762 87.7062 18.1524C87.4586 18.0286 87.1698 17.9667 86.8809 17.9873H84.4876L78.4219 39.2381H83.1672L85.4986 31.0679C85.7462 29.995 86.2826 29.0253 87.046 28.2413C87.6237 27.643 88.4283 27.2923 89.2536 27.3129C89.9138 27.251 90.5534 27.6224 90.8216 28.2413C91.1105 29.1698 91.0692 30.1601 90.7391 31.0679L88.4283 39.2175H93.2355L95.5257 31.233C96.2272 29.3142 96.2065 27.2097 95.4638 25.3322C94.721 23.8261 93.153 22.939 91.4818 23.0421Z" fill="#3A3A3A"/>
<path d="M134.747 23.001C132.498 22.9597 130.29 23.5993 128.413 24.8372C127.587 23.5993 126.184 22.9185 124.699 23.0216C123.729 23.0216 122.78 23.2073 121.893 23.558C121.377 23.785 120.882 24.0945 120.428 24.4452C120.304 23.5787 119.52 22.9597 118.654 23.0216H116.281L111.66 39.2176H116.405L118.757 31.0268C119.005 29.9539 119.541 28.9842 120.304 28.2002C120.593 27.9114 120.923 27.6638 121.315 27.4987C121.687 27.3337 122.099 27.2511 122.512 27.2718C122.842 27.2305 123.172 27.313 123.44 27.4781C123.709 27.6432 123.936 27.9114 124.059 28.2002C124.348 29.1286 124.307 30.119 123.977 31.0268L121.645 39.2176H126.453L128.805 31.0268C129.052 29.9745 129.589 28.9842 130.352 28.2002C130.93 27.6019 131.734 27.2511 132.56 27.2718C133.241 27.2099 133.86 27.5813 134.128 28.2002C134.417 29.1286 134.375 30.119 134.045 31.0268L131.693 39.2176H136.5L138.791 31.1918C139.492 29.2731 139.471 27.1686 138.729 25.2911C138.007 23.785 136.418 22.8772 134.747 23.001Z" fill="#3A3A3A"/>
<path d="M96.8875 32.244L99.5283 23.001H104.336L101.695 32.244C100.911 34.9675 103.469 34.9674 103.469 34.9674C105.099 34.9468 106.502 33.8327 106.915 32.244L109.555 23.001H114.301L111.66 32.244C110.484 36.4529 106.605 39.3208 102.252 39.2176C102.252 39.2176 94.7624 39.7128 96.8875 32.244Z" fill="#3A3A3A"/>
<path d="M155.131 31.2127C155.832 29.2939 155.812 27.1895 155.069 25.312C154.326 23.8059 152.758 22.9187 151.108 23.0425C150.138 23.0218 149.189 23.2075 148.302 23.5789C147.869 23.7646 147.477 23.9915 147.085 24.2804L148.199 20.381C148.384 19.8239 148.322 19.205 147.972 18.7098C147.807 18.4828 147.58 18.2972 147.312 18.1734C147.064 18.0496 146.775 17.9877 146.486 18.0083H144.114L140.09 32.1205C137.883 39.8368 145.682 39.2591 145.682 39.2591C145.682 39.2591 152.8 39.3829 155.131 31.2127ZM150.365 31.0476C150.097 32.1618 149.56 33.1933 148.776 34.0393C148.488 34.3487 148.157 34.5757 147.765 34.7407C147.394 34.9058 146.981 34.9883 146.569 34.9677C145.888 35.0502 145.228 34.6582 144.959 34.0186C144.691 33.0283 144.774 31.9761 145.145 31.027C145.393 29.9541 145.929 28.9845 146.693 28.2004C147.27 27.6021 148.075 27.2514 148.9 27.272C149.56 27.2101 150.2 27.5815 150.468 28.2004C150.736 29.1495 150.716 30.1398 150.365 31.0476Z" fill="#3A3A3A"/>
<path d="M78.6694 20.3602C78.7725 20.092 78.7932 19.7825 78.7519 19.4937C78.7106 19.2048 78.6075 18.916 78.4424 18.6684C78.1123 18.2145 77.5759 17.9463 77.0188 17.9669H74.543L69.4263 35.9166C68.7248 38.3925 69.9421 39.0114 71.0975 39.1146C71.9228 39.1765 72.8924 39.2177 73.8415 39.2177C74.4605 39.2177 75.0588 39.1971 75.554 39.1765L76.0491 39.1558L77.1426 35.3183H74.9969C74.4192 35.3183 74.4811 35.112 74.5224 34.9057L76.73 27.1481H77.3283C78.0091 27.1275 78.6487 26.9005 79.1852 26.4879C79.7629 26.0752 80.1755 25.4563 80.3818 24.7754L80.7532 23.4963H77.7822L78.6694 20.3602Z" fill="#3A3A3A"/>
<path d="M61.8746 31.2127C62.5761 29.2939 62.5555 27.1895 61.8128 25.312C61.07 23.8265 59.502 22.9187 57.8514 23.0425C56.8817 23.0218 55.9327 23.2075 55.0455 23.5789C54.6122 23.7646 54.2202 23.9915 53.8282 24.2804L54.9423 20.381C55.128 19.8239 55.0661 19.205 54.7154 18.7098C54.5503 18.4828 54.3234 18.2972 54.0758 18.1734C53.8282 18.0496 53.5394 17.9877 53.2505 18.0083H50.8572L46.834 32.1205C44.6264 39.8368 52.4253 39.2591 52.4253 39.2591C52.4253 39.2591 59.5226 39.3829 61.8746 31.2127ZM57.1087 31.0476C56.8405 32.1618 56.3041 33.1933 55.52 34.0393C54.9423 34.6376 54.1377 34.9883 53.3124 34.9677C52.6316 35.0502 51.9714 34.6582 51.6825 34.0186C51.4143 33.0283 51.4968 31.9761 51.8682 31.027C52.1158 29.9541 52.6522 28.9845 53.4156 28.2004C53.9933 27.6021 54.7979 27.2514 55.6232 27.272C56.2834 27.2101 56.923 27.5815 57.1912 28.2004C57.4801 29.1495 57.4594 30.1398 57.1087 31.0476Z" fill="#3A3A3A"/>
<path d="M4.62169 24.2801C3.87894 25.9926 4.68358 27.9938 6.39603 28.716C6.87056 28.9223 7.38636 29.0048 7.92279 28.9842H9.11943L12.5237 17.0796H6.70551L4.62169 24.2801Z" fill="#D62817"/>
<path d="M36.7656 21.6805C35.1976 18.5444 32.4535 17.0383 28.5748 17.0383H21.3536L17.97 29.0048H23.1073C23.9326 28.881 24.7372 29.3143 25.0673 30.0776C25.4387 31.233 25.3974 32.4916 24.9642 33.6469C24.6341 35.0499 23.9532 36.3497 22.9835 37.4226C22.2614 38.1859 21.2711 38.6192 20.2189 38.5986C19.3523 38.7017 18.527 38.2066 18.1969 37.4019C17.8668 36.164 17.9494 34.8436 18.4239 33.6469L24.7166 11.4471C25.1292 10.2711 24.9642 8.99188 24.2627 7.96029C23.5612 6.99059 22.4058 6.45416 21.2092 6.51606H14.215L5.92098 35.7514C1.38198 51.7411 17.4542 50.5651 17.4542 50.5651C17.4542 50.5651 32.0822 50.8952 36.91 33.9358C38.313 28.9429 38.2717 24.8165 36.7656 21.6805Z" fill="#EC7000"/>
<path d="M36.9103 33.8738C38.3339 28.9221 38.2927 24.8164 36.7659 21.701C35.1979 18.5856 32.4538 17.1001 28.5751 17.1001H23.1283L19.7446 29.0047H23.087C23.9123 28.8809 24.7169 29.3142 25.047 30.0569C25.4184 31.2123 25.3771 32.4502 24.9439 33.5849" fill="url(#paint0_linear_16732_166447)"/>
<defs>
<linearGradient id="paint0_linear_16732_166447" x1="30.6196" y1="29.1166" x2="26.5943" y2="22.6279" gradientUnits="userSpaceOnUse">
<stop stop-color="#D62616" stop-opacity="0"/>
<stop offset="1" stop-color="#D62616"/>
</linearGradient>
</defs>
</svg>
