<svg width="160" height="26" viewBox="0 0 160 26" fill="none" xmlns="http://www.w3.org/2000/svg">
<path d="M14.999 0.584485C17.7731 0.405814 20.5942 0.960635 23.0862 2.20193C26.7631 4.00745 29.6876 7.27055 31.07 11.1167C31.6812 12.8188 32.0103 14.6149 32.0103 16.4204V23.1253C32.0103 23.398 32.0197 23.6801 31.9539 23.9434C31.8035 24.6205 31.3239 25.2129 30.6844 25.5044C30.2424 25.7113 29.7346 25.7395 29.2645 25.6643C28.2394 25.4762 27.4495 24.517 27.4401 23.4826C27.4307 21.4044 27.4401 19.3261 27.4401 17.2385C27.4589 16.6461 27.4589 16.016 27.1392 15.4988C26.622 14.5396 25.3619 14.0789 24.3557 14.4926C23.5 14.7935 22.8793 15.6587 22.8699 16.5708C22.8605 18.6867 22.8699 20.7931 22.8699 22.8996C22.8699 23.2945 22.8887 23.6989 22.7759 24.075C22.5596 24.8179 21.9389 25.4198 21.196 25.6267C20.218 25.8994 19.099 25.4668 18.6006 24.564C18.2621 24.0186 18.2903 23.3603 18.2997 22.7585C18.2903 20.6615 18.3091 18.5644 18.2903 16.4674C18.2715 15.4048 17.3969 14.4456 16.3343 14.3045C15.6478 14.2011 14.9237 14.4268 14.4253 14.9158C13.974 15.339 13.7201 15.9502 13.7201 16.5708V22.6833C13.7107 23.2005 13.7765 23.7271 13.579 24.2067C13.2781 25.0812 12.3941 25.7207 11.4632 25.6925C10.5134 25.7489 9.58241 25.0906 9.2815 24.1973C9.11223 23.7553 9.14984 23.2851 9.14984 22.8149C9.14984 20.7085 9.15925 18.6021 9.14984 16.4862C9.14044 15.4424 8.33172 14.4926 7.30671 14.3045C6.38514 14.1071 5.36013 14.5773 4.88995 15.4142C4.69247 15.7621 4.58903 16.1665 4.58903 16.5614V23.4074C4.59843 24.075 4.28811 24.7333 3.7803 25.1565C3.0092 25.8335 1.7585 25.8712 0.940374 25.2505C0.347939 24.8461 0 24.1597 0 23.445V16.5144C0.00940374 13.8908 0.667666 11.2765 1.91836 8.97262C2.94337 7.09188 4.34453 5.40861 6.0278 4.07327C8.56681 2.01385 11.7453 0.781964 14.999 0.584485Z" fill="#5D45DC"/>
<path d="M77.327 8.62471C76.161 8.62471 75.0419 8.62471 73.8571 8.62471C73.9793 6.18914 74.4871 3.99807 76.7158 2.61572C78.9257 1.24277 81.3612 0.932447 83.8909 1.13933C85.2638 1.25217 86.5991 1.54369 87.8592 2.12672C90.0691 3.14233 91.16 4.88202 91.16 7.29878C91.1694 11.5869 91.16 15.8844 91.16 20.1725C91.16 21.7523 91.4797 22.0439 93.0595 21.884C93.2288 21.8652 93.398 21.837 93.5767 21.8088C93.5955 21.8934 93.6143 21.9592 93.6143 22.025C93.6143 22.8808 93.6143 23.7365 93.6143 24.6299C92.3542 25.053 91.0941 25.1847 89.8246 24.8462C88.9031 24.5923 88.3106 23.9246 87.9909 23.0406C87.831 22.5893 87.737 22.1191 87.5865 21.5925C87.4549 21.7429 87.342 21.884 87.2104 22.0062C84.4739 24.7803 81.2108 25.9464 77.3741 24.9778C74.6564 24.2913 72.7756 21.7994 72.7098 18.9876C72.691 18.0849 72.7662 17.1633 72.9825 16.2888C73.4809 14.2576 74.9197 13.0351 76.7534 12.2169C78.0417 11.6339 79.4147 11.4646 80.797 11.2954C82.4145 11.0885 84.0319 10.891 85.6494 10.6653C86.7496 10.5149 87.3044 9.93183 87.4737 8.82219C87.8216 6.62171 86.8436 5.13592 84.6902 4.60931C83.4113 4.29899 82.1041 4.24256 80.8064 4.48706C78.8881 4.835 77.816 5.91643 77.4399 7.82539C77.4211 8.06989 77.3835 8.32379 77.327 8.62471ZM87.5489 12.8846C85.9503 13.7498 84.3987 13.9566 82.8376 14.1917C81.5211 14.3986 80.1858 14.5867 78.9257 15.0004C77.233 15.5553 76.4807 16.947 76.6218 18.809C76.744 20.3606 77.8066 21.6113 79.4711 21.884C82.0571 22.3166 84.3516 21.6019 86.1572 19.6835C86.6838 19.1287 87.1069 18.32 87.2198 17.5677C87.4549 16.0725 87.4455 14.5397 87.5489 12.8846Z" fill="#5D45DC"/>
<path d="M136.947 17.3612C136.863 17.7373 136.816 18.057 136.721 18.358C135.217 22.9094 132.198 24.8747 128.521 25.2791C122.146 25.9844 118.506 21.8091 117.566 17.38C116.823 13.863 116.927 10.3648 118.469 7.05466C119.926 3.93261 122.277 1.87319 125.776 1.26195C129.951 0.528457 135.885 2.58788 136.881 9.13288C137.135 10.8162 137.192 12.537 137.352 14.3143C131.869 14.3143 126.537 14.3143 121.149 14.3143C121.29 16.7123 121.666 18.9504 123.415 20.6995C124.139 21.4236 125.07 21.7715 126.076 21.9408C129.368 22.5144 132.067 20.944 133.139 17.7937C133.252 17.4552 133.402 17.3518 133.75 17.3612C134.794 17.38 135.838 17.3612 136.947 17.3612ZM121.281 11.2299C125.334 11.2299 129.358 11.2299 133.411 11.2299C133.28 9.82876 133.026 8.51224 132.377 7.28975C131.747 6.10488 130.807 5.25854 129.528 4.82597C125.334 3.3872 120.998 6.73493 121.281 11.2299Z" fill="#5D45DC"/>
<path d="M145.674 24.5167C144.413 24.5167 143.219 24.5167 141.987 24.5167C141.987 16.8903 141.987 9.28268 141.987 1.64684C143.144 1.64684 144.291 1.64684 145.485 1.64684C145.485 2.68125 145.485 3.67805 145.485 4.85351C145.749 4.55259 145.918 4.36452 146.078 4.18585C148.579 1.32711 151.739 0.574811 155.312 1.45876C157.804 2.07001 159.187 3.82851 159.657 6.29229C159.854 7.29849 159.967 8.3329 159.977 9.35791C160.014 14.2667 159.995 19.1754 159.995 24.0842C159.995 24.2158 159.977 24.3569 159.967 24.5167C158.726 24.5167 157.494 24.5167 156.196 24.5167C156.196 24.2911 156.196 24.0936 156.196 23.8961C156.196 19.3165 156.225 14.7274 156.178 10.1478C156.168 9.13222 156.027 8.0884 155.736 7.11982C155.256 5.51178 153.977 4.65604 152.294 4.59961C149.238 4.49617 146.802 6.11362 146.059 8.8501C145.796 9.82809 145.711 10.8813 145.702 11.9063C145.664 15.8841 145.683 19.8713 145.674 23.8491C145.674 24.0466 145.674 24.2534 145.674 24.5167Z" fill="#5D45DC"/>
<path d="M97.1782 1.64699C98.3913 1.64699 99.5386 1.64699 100.733 1.64699C100.733 4.83486 100.733 8.01332 100.733 11.3328C100.959 11.1166 101.09 11.0037 101.222 10.8815C104.128 7.91929 107.043 4.9477 109.939 1.97612C110.184 1.72222 110.428 1.60938 110.785 1.60938C112.149 1.62818 113.522 1.61878 115.027 1.61878C114.82 1.83506 114.707 1.96672 114.585 2.09837C112.027 4.66559 109.478 7.23281 106.902 9.79063C106.61 10.0727 106.601 10.2608 106.808 10.5994C109.601 15.0473 112.375 19.4953 115.158 23.9527C115.262 24.1125 115.356 24.2724 115.487 24.5075C115.299 24.5263 115.158 24.5451 115.017 24.5451C113.748 24.5451 112.478 24.5357 111.209 24.5545C110.861 24.5639 110.691 24.4323 110.522 24.1501C108.397 20.5673 106.253 16.9939 104.118 13.4111C104.024 13.2512 103.921 13.1007 103.798 12.9127C102.811 13.8907 101.852 14.8404 100.902 15.8184C100.78 15.9407 100.752 16.1852 100.752 16.3827C100.742 18.8935 100.742 21.3948 100.742 23.9056C100.742 24.0937 100.742 24.2818 100.742 24.5545C100.037 24.5545 99.3599 24.5639 98.6828 24.5545C98.1939 24.5451 97.545 24.6768 97.2629 24.4229C97.0184 24.1972 97.1688 23.5201 97.1688 23.0405C97.1688 16.1382 97.1688 9.23581 97.1688 2.33346C97.1783 2.10777 97.1782 1.89149 97.1782 1.64699Z" fill="#5D45DC"/>
<path d="M56.2252 1.61889C53.3383 4.47763 50.536 7.27054 47.7148 10.0634C50.7428 14.9158 53.705 19.6647 56.733 24.517C56.4885 24.5264 56.3381 24.5452 56.1782 24.5452C54.9463 24.5452 53.705 24.5358 52.4731 24.5546C52.1158 24.564 51.9183 24.4324 51.7396 24.1314C49.6144 20.5486 47.4703 16.9752 45.3357 13.3924C45.2511 13.2419 45.157 13.1009 45.016 12.8752C44.4705 13.4394 44.0004 14.0412 43.4079 14.4832C42.2136 15.386 41.8563 16.5144 41.9503 17.9908C42.0726 19.9374 41.9786 21.9028 41.9786 23.8587C41.9786 24.0656 41.9786 24.2631 41.9786 24.4982C40.7843 24.4982 39.637 24.4982 38.4521 24.4982C38.4521 16.8906 38.4521 9.28294 38.4521 1.63769C39.6088 1.63769 40.7467 1.63769 41.9597 1.63769C41.9597 4.82556 41.9597 8.00403 41.9597 11.1825C42.035 11.2295 42.1102 11.2859 42.1854 11.333C42.2795 11.1731 42.3359 10.9756 42.4581 10.8534C45.3451 7.89118 48.2508 4.94781 51.1378 1.98563C51.3917 1.72233 51.6456 1.59068 52.0312 1.60008C53.2348 1.62829 54.4385 1.60948 55.6328 1.60948C55.8021 1.61889 55.9713 1.61889 56.2252 1.61889Z" fill="#5D45DC"/>
<path d="M63.2688 5.40914C65.0555 2.7949 66.9551 0.613234 70.4815 1.24328C70.4815 2.57862 70.4815 3.90454 70.4815 5.15524C69.5411 5.22107 68.6195 5.19286 67.745 5.37153C65.5727 5.82291 63.8989 7.8071 63.5697 10.1956C63.5039 10.6658 63.4757 11.1548 63.4757 11.6344C63.4663 15.7156 63.4757 19.8063 63.4757 23.8875C63.4757 24.085 63.4757 24.2919 63.4757 24.5175C62.225 24.5175 61.0401 24.5175 59.7988 24.5175C59.7988 16.9005 59.7988 9.30229 59.7988 1.65705C60.9367 1.65705 62.0745 1.65705 63.2782 1.65705C63.2688 2.87954 63.2688 4.08322 63.2688 5.40914Z" fill="#5D45DC"/>
</svg>
