<svg width="160" height="49" viewBox="0 0 160 49" fill="none" xmlns="http://www.w3.org/2000/svg">
<path d="M60.002 39.2202V29.7133H60.0772L66.225 39.2202H73.3505L65.9618 29.0583L72.3963 20.6638L74.5395 17.8489H67.4892L65.4252 20.653L60.0772 28.9086H60.002V3.22266L54.061 4.74797V39.2202H60.002Z" fill="#3A3A3A"/>
<path d="M80.1814 39.22V30.0422C80.1814 28.4156 80.5431 27.1299 81.2665 26.1852C81.99 25.2405 82.9941 24.7682 84.2788 24.7682C85.2268 24.7682 91.7214 24.7682 91.7214 24.7682V20.001C91.7214 20.001 85.6719 20.001 85.3467 20.001C82.9145 20.001 81.1917 20.9644 80.2562 23.567H80.1814V20.001H74.269V39.22H80.1814Z" fill="#3A3A3A"/>
<path d="M91.6974 48.3719C95.467 48.3719 98.288 45.8647 100.16 40.8503L107.949 20.001H102.089L98.4753 31.7829C98.1757 32.7506 97.9697 33.5989 97.8574 34.3278H97.7825C97.6577 33.335 97.4829 32.4741 97.2582 31.7452L94.3036 22.042C93.9344 20.8296 92.8159 20.001 91.5485 20.001H87.1289L94.9178 39.2668L93.9068 41.6609C93.3076 43.1062 92.2466 43.8288 90.7238 43.8288C89.8001 43.8288 88.9451 43.5963 88.1587 43.1313V47.8818C89.0824 48.2085 90.2619 48.3719 91.6974 48.3719Z" fill="#3A3A3A"/>
<path d="M112.392 40.4402C113.563 40.4402 114.692 40.3229 115.78 40.0882C116.868 39.8535 117.829 39.4792 118.663 38.9653C119.496 38.4515 120.164 37.7854 120.667 36.9671C121.17 36.1488 121.421 35.1623 121.421 34.0078C121.421 33.1831 121.297 32.4726 121.049 31.8763C120.801 31.28 120.444 30.7598 119.98 30.3158C119.515 29.8717 118.959 29.4847 118.31 29.1549C117.661 28.825 116.935 28.5205 116.134 28.2414C115.688 28.0891 115.24 27.9401 114.788 27.7942C114.336 27.6483 113.926 27.4833 113.557 27.2994C113.188 27.1154 112.889 26.8965 112.66 26.6428C112.431 26.389 112.308 26.2369 112.308 25.8817C112.308 25.6152 112.392 25.4145 112.545 25.2051C112.698 24.9958 112.908 24.8245 113.175 24.6913C113.442 24.5581 113.751 24.4566 114.101 24.3868C114.451 24.317 114.823 24.2821 115.217 24.2821H120.237V20.001H114.969C113.862 20.001 112.796 20.1183 111.772 20.353C110.748 20.5878 109.838 20.9557 109.043 21.4568C108.247 21.958 107.611 22.6019 107.134 23.3885C106.657 24.1751 106.418 25.114 106.418 26.2051C106.418 27.0044 106.523 27.6958 106.733 28.2795C106.943 28.8631 107.248 29.3769 107.649 29.821C108.05 30.265 108.546 30.6552 109.138 30.9914C109.73 31.3276 110.414 31.6416 111.19 31.9334C111.673 32.1237 112.176 32.295 112.698 32.4472C113.22 32.5995 113.7 32.7708 114.139 32.9611C114.578 33.1514 114.937 33.3734 115.217 33.6272C115.497 33.8809 115.637 34.1981 115.637 34.5787C115.637 35.175 115.329 35.6191 114.712 35.9109C114.094 36.2027 113.251 36.3486 112.182 36.3486C111.304 36.3486 110.372 36.2027 109.386 35.9109C108.4 35.6191 107.411 35.175 106.418 34.5787V39.4506C108.25 40.1104 110.242 40.4402 112.392 40.4402Z" fill="#3A3A3A"/>
<path d="M128.752 39.8304C130.533 39.8304 131.866 39.598 132.75 39.1333V34.7242C132.08 35.0885 131.43 35.2706 130.798 35.2706C129.194 35.2706 128.392 34.2657 128.392 32.2559V24.2797H132.75V20.0013H128.392V14.2051L122.423 15.9009V20.0013H119.278V24.2797H122.423V33.2922C122.423 37.651 124.533 39.8304 128.752 39.8304Z" fill="#3A3A3A"/>
<path fill-rule="evenodd" clip-rule="evenodd" d="M145.116 36.3008C143.825 38.4505 141.913 39.5253 139.38 39.5253C137.512 39.5253 136.042 38.9973 134.97 37.9412C133.898 36.8851 133.362 35.476 133.362 33.7138C133.362 29.9894 135.575 27.8397 140.001 27.2648L145.229 26.5712C145.229 24.4715 144.088 23.4217 141.806 23.4217C139.512 23.4217 137.33 24.1028 135.262 25.4651V21.0033C136.089 20.5784 137.221 20.2035 138.656 19.8785C140.092 19.5536 141.399 19.3911 142.577 19.3911C148.069 19.3911 150.815 22.1219 150.815 27.5835V39.0566H145.192V36.3008H145.116ZM139.54 34.6792C140.01 35.1104 140.647 35.326 141.449 35.326C142.565 35.326 143.474 34.9417 144.176 34.1731C144.878 33.4044 145.229 32.4327 145.229 31.2579V29.9644L141.731 30.4143C139.8 30.6643 138.835 31.5329 138.835 33.0201C138.835 33.695 139.07 34.2481 139.54 34.6792Z" fill="#3A3A3A"/>
<path d="M157.454 39.8304C158.479 39.8304 159.206 39.7649 160 39.5354V34.6504H159.835C159.074 34.7487 158.776 34.7487 158.148 34.7487C157.784 34.7487 157.553 34.3881 157.553 33.9619V10.2393H151.733V34.6176C151.733 38.0272 153.552 39.8304 157.454 39.8304Z" fill="#3A3A3A"/>
<path d="M27.7528 1.05401C27.7528 0.326269 28.4744 -0.182343 29.1616 0.0610893L38.598 3.40393C39.2827 3.6465 39.523 4.49087 39.0681 5.05639L29.6317 16.789C29.0076 17.5651 27.7528 17.1246 27.7528 16.1295V1.05401Z" fill="#1DE9B6"/>
<path d="M10.101 12.6161C9.33316 13.0606 9.4244 14.1949 10.2535 14.5115L24.4906 19.9479C25.1818 20.2118 25.9235 19.7024 25.9235 18.9638V5.2853C25.9235 4.47327 25.0419 3.96647 24.3381 4.37391L10.101 12.6161Z" fill="#1DE9B6"/>
<path d="M0.00356463 27.5459C-0.0550137 28.2684 0.617896 28.8328 1.3209 28.6508L22.4428 23.1826C23.4379 22.925 23.5147 21.5442 22.5542 21.1784L2.49525 13.5367C1.83768 13.2862 1.12328 13.7359 1.06651 14.4361L0.00356463 27.5459Z" fill="#1DE9B6"/>
<path d="M22.4425 27.0983C22.7256 26.3017 22.0009 25.5135 21.1814 25.7266L6.9765 29.4202C6.18023 29.6272 5.91689 30.6235 6.50722 31.1956L16.0972 40.4895C16.6491 41.0243 17.5705 40.8094 17.8276 40.0858L22.4425 27.0983Z" fill="#1DE9B6"/>
<path d="M30.29 21.6917C29.5166 21.5335 29.1844 20.615 29.6785 20.0003L39.6189 7.63242C40.1796 6.93477 41.3014 7.20767 41.4775 8.08459L44.4941 23.1027C44.6427 23.8422 43.9874 24.4934 43.2471 24.342L30.29 21.6917Z" fill="#1DE9B6"/>
<path d="M31.4625 24.2095C30.4608 24.0039 29.7807 25.1975 30.4698 25.9515L43.4235 40.126C44.0266 40.7859 45.1272 40.4446 45.2494 39.5598L46.7956 28.362C46.8716 27.8123 46.5072 27.298 45.9625 27.1862L31.4625 24.2095Z" fill="#1DE9B6"/>
<path d="M25.7744 29.1097C25.7527 27.9381 24.1184 27.6717 23.7244 28.7756L18.033 44.7195C17.7576 45.4908 18.4305 46.267 19.2349 46.1061L25.1994 44.9129C25.6999 44.8128 26.0569 44.3697 26.0475 43.8603L25.7744 29.1097Z" fill="#1DE9B6"/>
<path d="M27.8045 29.2618C27.7864 28.2928 28.9784 27.8155 29.6364 28.5283L39.1231 38.8052C39.6863 39.4154 39.3548 40.4058 38.5371 40.5554L29.2737 42.2511C28.6331 42.3684 28.0399 41.8843 28.0278 41.2344L27.8045 29.2618Z" fill="#1DE9B6"/>
</svg>
