<svg width="160" height="38" viewBox="0 0 160 38" fill="none" xmlns="http://www.w3.org/2000/svg">
<path d="M107.431 11.5425H95.0496L98.6231 0.551758H87.6266L75.7224 37.1952H98.6059C101.185 37.1953 103.699 36.3787 105.786 34.8626C107.872 33.3465 109.426 31.2086 110.223 28.7554L113.216 19.5629C113.517 18.6466 113.597 17.6721 113.449 16.719C113.301 15.766 112.93 14.8614 112.366 14.0792C111.802 13.297 111.061 12.6594 110.203 12.2185C109.345 11.7777 108.395 11.546 107.431 11.5425ZM102.317 19.2469L99.8411 26.8652C99.4431 28.0923 98.6666 29.1619 97.6231 29.9205C96.5796 30.6791 95.3227 31.0878 94.0326 31.088H88.701L93.0674 17.6497H101.157C101.35 17.6492 101.54 17.6945 101.711 17.7818C101.883 17.869 102.032 17.9958 102.145 18.1518C102.259 18.3077 102.333 18.4882 102.363 18.6786C102.393 18.869 102.377 19.0638 102.317 19.2469Z" fill="#023F97"/>
<path d="M126.718 0.551758L124.333 7.88274H135.33L137.708 0.551758H126.718Z" fill="#023F97"/>
<path d="M114.808 37.1952H125.804L134.135 11.5425H123.144L114.808 37.1952Z" fill="#023F97"/>
<path d="M150.624 17.6497H158.018L160 11.5425H152.606L156.179 0.551758H145.183L135.876 29.1978C135.578 30.115 135.502 31.0895 135.654 32.0418C135.805 32.994 136.179 33.897 136.746 34.6769C137.313 35.4567 138.057 36.0914 138.916 36.5291C139.775 36.9668 140.726 37.195 141.69 37.1952H153.893L155.881 31.088H147.929C147.738 31.0876 147.549 31.0418 147.379 30.9545C147.208 30.8671 147.061 30.7406 146.949 30.5853C146.837 30.4301 146.763 30.2504 146.734 30.0612C146.704 29.8719 146.72 29.6784 146.78 29.4965L150.624 17.6497Z" fill="#023F97"/>
<path d="M31.3861 13.3408L43.4109 0.551758H30.53L20.6079 31.088H12.3577C12.1663 31.0854 11.9783 31.038 11.8086 30.9496C11.6389 30.8613 11.4923 30.7343 11.3806 30.579C11.2688 30.4237 11.1951 30.2443 11.1652 30.0553C11.1353 29.8663 11.1502 29.673 11.2086 29.4908L20.6021 0.551758H9.60567L0.298301 29.2092C0.000953746 30.1249 -0.0754868 31.098 0.0752273 32.0489C0.225941 32.9997 0.599532 33.9015 1.16546 34.6803C1.73139 35.4592 2.4736 36.093 3.33141 36.5301C4.18922 36.9672 5.13829 37.1951 6.10104 37.1952H29.6165L37.9472 11.5425L31.3861 13.3408Z" fill="#0062DF"/>
<path d="M72.0628 0.551758H46.7835L50.5524 13.3408L45.1576 11.5482L36.7925 37.1952H47.789L51.759 24.9807H63.646C66.2244 24.9796 68.7364 24.1625 70.8222 22.6464C72.9079 21.1304 74.4603 18.9932 75.2572 16.5409L77.8598 8.53771C78.1557 7.62251 78.2312 6.65037 78.0803 5.70045C77.9293 4.75053 77.5561 3.8497 76.9911 3.07132C76.426 2.29294 75.6852 1.65901 74.8288 1.22118C73.9723 0.783345 73.0246 0.553978 72.0628 0.551758V0.551758ZM66.961 8.25044L64.8812 14.6564C64.4821 15.8825 63.7052 16.9508 62.6619 17.7083C61.6185 18.4659 60.3621 18.8737 59.0727 18.8735H53.7411L57.7111 6.659H65.8062C65.9982 6.65846 66.1876 6.70354 66.3587 6.79052C66.5299 6.8775 66.678 7.00389 66.7907 7.15929C66.9035 7.31469 66.9777 7.49465 67.0073 7.68435C67.0369 7.87405 67.021 8.06808 66.961 8.25044Z" fill="#0062DF"/>
</svg>
