<?xml version="1.0" encoding="UTF-8"?>
<svg version="1.1" xmlns="http://www.w3.org/2000/svg" width="200" height="200">
<path d="M0 0 C16.33545576 8.55832885 31.64641391 22.3326705 43.125 36.6875 C43.90230469 37.615625 44.67960938 38.54375 45.48046875 39.5 C53.32269253 49.05948813 62.9342485 61.56503573 61.89453125 74.5703125 C56.69636064 95.62686146 37.61173281 115.50417505 21.125 128.6875 C20.196875 129.46480469 19.26875 130.24210938 18.3125 131.04296875 C8.75301187 138.88519253 -3.75253573 148.4967485 -16.7578125 147.45703125 C-37.81436146 142.25886064 -57.69167505 123.17423281 -70.875 106.6875 C-71.65230469 105.759375 -72.42960937 104.83125 -73.23046875 103.875 C-81.07269253 94.31551187 -90.6842485 81.80996427 -89.64453125 68.8046875 C-84.03939698 46.09962585 -62.84099656 25.31777196 -44.875 11.6875 C-43.92109375 10.91792969 -42.9671875 10.14835937 -41.984375 9.35546875 C-28.76068475 -1.08155379 -16.06125552 -7.82667835 0 0 Z M-24.75 36.3125 C-32.87583468 40.42652322 -40.53509808 45.30007349 -47.875 50.6875 C-48.42124023 51.08404785 -48.96748047 51.4805957 -49.53027344 51.88916016 C-53.19839188 54.71869029 -55.37379408 57.29070963 -56.875 61.6875 C-55.25313411 77.1478839 -43.86419855 93.4404957 -34.875 105.6875 C-34.47845215 106.23374023 -34.0819043 106.77998047 -33.67333984 107.34277344 C-30.84380971 111.01089188 -28.27179037 113.18629408 -23.875 114.6875 C-8.4146161 113.06563411 7.8779957 101.67669855 20.125 92.6875 C20.67124023 92.29095215 21.21748047 91.8944043 21.78027344 91.48583984 C25.44839188 88.65630971 27.62379408 86.08429037 29.125 81.6875 C27.50313411 66.2271161 16.11419855 49.9345043 7.125 37.6875 C6.72845215 37.14125977 6.3319043 36.59501953 5.92333984 36.03222656 C-3.09726775 24.33818002 -13.72752519 30.92438883 -24.75 36.3125 Z " fill="#836DF9" transform="translate(113.875,28.3125)"/>
</svg>
