<svg width="252" height="252" viewBox="0 0 252 252" fill="none" xmlns="http://www.w3.org/2000/svg">
<mask id="mask0_4864_1939" style="mask-type:luminance" maskUnits="userSpaceOnUse" x="0" y="0" width="252" height="252">
<path d="M125.999 251.394C195.253 251.394 251.393 195.253 251.393 126C251.393 56.7468 195.253 0.606079 125.999 0.606079C56.7462 0.606079 0.605469 56.7468 0.605469 126C0.605469 195.253 56.7462 251.394 125.999 251.394Z" fill="white"/>
</mask>
<g mask="url(#mask0_4864_1939)">
<path d="M263.267 -11.2672H-11.2676V263.267H263.267V-11.2672Z" fill="url(#paint0_linear_4864_1939)"/>
</g>
<path d="M162.264 153.059L197.741 132.574C199.62 131.489 200.782 129.471 200.782 127.301V86.3354C200.782 84.1696 199.615 82.1472 197.741 81.0618L162.264 60.5767C160.385 59.4912 158.056 59.4964 156.177 60.5767L120.7 81.0618C118.821 82.1472 117.659 84.1696 117.659 86.3354V159.546L92.781 173.908L67.9029 159.546V130.818L92.781 116.456L109.191 125.928V106.657L95.8222 98.9408C94.9006 98.4084 93.8459 98.1268 92.7758 98.1268C91.7058 98.1268 90.651 98.4084 89.7346 98.9408L54.2581 119.426C52.379 120.511 51.2168 122.529 51.2168 124.7V165.665C51.2168 167.83 52.3842 169.853 54.2581 170.938L89.7346 191.423C91.6085 192.504 93.9432 192.504 95.8222 191.423L131.299 170.943C133.178 169.858 134.34 167.836 134.34 165.67V92.4589L134.791 92.2029L159.218 78.0973L184.096 92.4589V121.187L159.218 135.549L142.834 126.087V145.359L156.177 153.064C158.056 154.145 160.385 154.145 162.264 153.064V153.059Z" fill="white"/>
<defs>
<linearGradient id="paint0_linear_4864_1939" x1="-61.4385" y1="11.2966" x2="221.974" y2="184.732" gradientUnits="userSpaceOnUse">
<stop stop-color="#A229C5"/>
<stop offset="1" stop-color="#7B3FE4"/>
</linearGradient>
</defs>
</svg>
