<?xml version="1.0" encoding="UTF-8"?>
<svg version="1.1" xmlns="http://www.w3.org/2000/svg" width="152" height="152">
<path d="M0 0 C50.16 0 100.32 0 152 0 C152 50.16 152 100.32 152 152 C101.84 152 51.68 152 0 152 C0 101.84 0 51.68 0 0 Z " fill="#CBFE00" transform="translate(0,0)"/>
<path d="M0 0 C1.084021 0.00523682 2.16804199 0.01047363 3.28491211 0.01586914 C4.45473633 0.0190918 5.62456055 0.02231445 6.82983398 0.02563477 C8.0615332 0.03401367 9.29323242 0.04239258 10.56225586 0.05102539 C12.41560547 0.05779297 12.41560547 0.05779297 14.30639648 0.06469727 C17.37089703 0.07652931 20.43530307 0.09301366 23.49975586 0.11352539 C22.94360596 0.75402832 22.94360596 0.75402832 22.3762207 1.4074707 C16.85503806 7.80189269 11.66380179 14.42973599 6.49975586 21.11352539 C5.8178418 21.98750977 5.13592773 22.86149414 4.43334961 23.76196289 C-10.39415835 43.38751623 -20.61366164 65.74444208 -30.50024414 88.11352539 C-31.82024414 88.11352539 -33.14024414 88.11352539 -34.50024414 88.11352539 C-34.09454018 82.05694481 -32.49230458 77.21240296 -30.26367188 71.58642578 C-25.49620736 59.42501533 -23.4808149 48.80689702 -24.10180664 35.71801758 C-24.32844238 26.54736415 -21.47220169 21.90994206 -15.50024414 15.11352539 C-14.91702393 14.40301025 -14.33380371 13.69249512 -13.73291016 12.96044922 C-12.20717234 11.10675558 -10.64564213 9.29347728 -9.06274414 7.48852539 C-8.53487305 6.87879883 -8.00700195 6.26907227 -7.46313477 5.64086914 C-2.67514553 0.12146691 -2.67514553 0.12146691 0 0 Z " fill="#030400" transform="translate(63.500244140625,44.886474609375)"/>
<path d="M0 0 C0.67289063 -0.01611328 1.34578125 -0.03222656 2.0390625 -0.04882812 C7.15276566 -0.05376413 10.55144057 0.9823022 15 3.3125 C19.82088398 9.57964917 19.49198934 16.71618461 19 24.3125 C17.95302924 31.30932901 13.05901562 36.11387449 8.578125 41.2578125 C5.54803452 44.84801062 2.94396428 48.61932384 0.375 52.546875 C-0.07875 53.12953125 -0.5325 53.7121875 -1 54.3125 C-1.66 54.3125 -2.32 54.3125 -3 54.3125 C-3 43.4225 -3 32.5325 -3 21.3125 C-17.85 20.8175 -17.85 20.8175 -33 20.3125 C-15.52555192 -0.07435609 -15.52555192 -0.07435609 0 0 Z " fill="#040500" transform="translate(100,18.6875)"/>
<path d="M0 0 C0.33 0 0.66 0 1 0 C3.39376417 33.13522021 3.39376417 33.13522021 -7.49609375 47.578125 C-13.17024435 53.80958782 -21.49312855 55.66709948 -29.375 57.8125 C-30.16777344 58.04130859 -30.96054687 58.27011719 -31.77734375 58.50585938 C-32.53917969 58.71662109 -33.30101562 58.92738281 -34.0859375 59.14453125 C-34.7670459 59.33378174 -35.4481543 59.52303223 -36.14990234 59.71801758 C-38 60 -38 60 -41 59 C-29.84323783 37.86705091 -16.92015888 17.10112315 0 0 Z " fill="#030400" transform="translate(91,50)"/>
<path d="M0 0 C0.33 0 0.66 0 1 0 C1 4.29 1 8.58 1 13 C-3.29 13 -7.58 13 -12 13 C-9.82987456 11.37240592 -7.65215544 9.7539636 -5.4375 8.1875 C-2.67647838 5.70966008 -1.46004309 3.38115243 0 0 Z " fill="#000000" transform="translate(151,139)"/>
<path d="M0 0 C1.62759408 2.17012544 3.2460364 4.34784456 4.8125 6.5625 C7.29033992 9.32352162 9.61884757 10.53995691 13 12 C13 12.33 13 12.66 13 13 C8.71 13 4.42 13 0 13 C0 8.71 0 4.42 0 0 Z " fill="#000000" transform="translate(0,139)"/>
<path d="M0 0 C4.29 0 8.58 0 13 0 C13 4.29 13 8.58 13 13 C11.37240592 10.82987456 9.7539636 8.65215544 8.1875 6.4375 C5.70966008 3.67647838 3.38115243 2.46004309 0 1 C0 0.67 0 0.34 0 0 Z " fill="#000000" transform="translate(139,0)"/>
<path d="M0 0 C4.29 0 8.58 0 13 0 C10.82987456 1.62759408 8.65215544 3.2460364 6.4375 4.8125 C3.67647838 7.29033992 2.46004309 9.61884757 1 13 C0.67 13 0.34 13 0 13 C0 8.71 0 4.42 0 0 Z " fill="#000000" transform="translate(0,0)"/>
</svg>
