<svg width="32" height="32" viewBox="0 0 32 32" xmlns="http://www.w3.org/2000/svg">
<path fill="#222" d="M18.6167 15.9939L30.5932 22.8471C30.689 22.9011 30.7973 22.9294 30.9073 22.9291C31.0174 22.9288 31.1254 22.8999 31.2209 22.8454C31.3164 22.7908 31.3961 22.7124 31.452 22.6179C31.508 22.5233 31.5384 22.4159 31.5401 22.3061L31.5422 9.68595C31.541 9.57596 31.511 9.46819 31.4552 9.37333C31.3994 9.27846 31.3197 9.19979 31.224 9.1451C31.1284 9.09041 31.0201 9.0616 30.9098 9.06152C30.7996 9.06145 30.6912 9.09011 30.5955 9.14467L18.6167 15.9939Z" />
<path fill="#222" d="M29.897 6.19093L21.9466 0.127188C21.8618 0.0636125 21.7624 0.022221 21.6574 0.00678378C21.5525 -0.00865345 21.4453 0.00235411 21.3457 0.0388042C21.2461 0.0752542 21.1572 0.135988 21.0872 0.215474C21.0171 0.29496 20.9681 0.390671 20.9446 0.493891L18.0376 13.9941L29.8325 7.23651C29.9237 7.18563 30.0007 7.11271 30.0563 7.02443C30.1119 6.93616 30.1444 6.83536 30.1509 6.73129C30.1573 6.62722 30.1374 6.5232 30.0931 6.42879C30.0487 6.33437 29.9813 6.25258 29.897 6.19093Z" />
<path fill="#222" d="M21.9416 31.8701L29.9124 25.7998C29.9948 25.7369 30.0604 25.6548 30.1035 25.5606C30.1466 25.4665 30.1659 25.3632 30.1595 25.2599C30.1532 25.1566 30.1215 25.0564 30.0672 24.9683C30.0129 24.8801 29.9377 24.8065 29.8482 24.7542L18.0371 18.002L20.9489 31.5031C20.9702 31.6066 21.0176 31.703 21.0866 31.7832C21.1556 31.8633 21.2439 31.9247 21.3432 31.9614C21.4425 31.9981 21.5495 32.009 21.6542 31.993C21.7589 31.9771 21.8578 31.9348 21.9416 31.8701Z" />
<path fill="#222" d="M15.5462 15.9934L18.6832 1.44767C18.7105 1.32168 18.6981 1.19037 18.6478 1.07167C18.5974 0.952962 18.5116 0.852642 18.402 0.784404C18.2924 0.716167 18.1644 0.683335 18.0354 0.690393C17.9064 0.69745 17.7828 0.744052 17.6813 0.823836L9.6554 6.94001C9.45206 7.09516 9.28735 7.29504 9.17411 7.5241C9.06087 7.75316 9.00215 8.00521 9.00253 8.26062L9 23.7515C8.99954 24.0069 9.05818 24.259 9.17135 24.4881C9.28451 24.7172 9.44915 24.9171 9.65244 25.0723L17.6764 31.1819C17.7786 31.2584 17.9015 31.3023 18.0292 31.3078C18.1568 31.3132 18.2831 31.2801 18.3915 31.2126C18.4998 31.1452 18.5853 31.0466 18.6365 30.9299C18.6877 30.8131 18.7023 30.6836 18.6785 30.5584L15.5462 15.9934Z" />
</svg>
