<svg width="100" height="28" viewBox="0 0 100 28" fill="none" xmlns="http://www.w3.org/2000/svg">
<path d="M18.6353 13.9944L29.3898 19.9909C29.4758 20.0381 29.573 20.0629 29.6718 20.0626C29.7706 20.0623 29.8677 20.0371 29.9534 19.9894C30.0392 19.9416 30.1107 19.873 30.1609 19.7903C30.2112 19.7076 30.2385 19.6136 30.2401 19.5175L30.2419 8.47487C30.2408 8.37863 30.2139 8.28433 30.1638 8.20133C30.1136 8.11832 30.0421 8.04948 29.9562 8.00162C29.8703 7.95377 29.773 7.92856 29.674 7.9285C29.575 7.92843 29.4777 7.95351 29.3918 8.00125L18.6353 13.9944Z" fill="#31CB9E"/>
<path d="M28.7648 5.41706L21.6257 0.11129C21.5495 0.0556609 21.4602 0.0194434 21.366 0.00593581C21.2718 -0.00757177 21.1755 0.00205985 21.0861 0.0339536C20.9967 0.0658474 20.9168 0.11899 20.8539 0.18854C20.791 0.25809 20.747 0.341838 20.7259 0.432154L18.1155 12.2448L28.7069 6.33194C28.7888 6.28742 28.8579 6.22362 28.9079 6.14638C28.9578 6.06914 28.987 5.98094 28.9928 5.88988C28.9985 5.79881 28.9807 5.7078 28.9409 5.62519C28.901 5.54258 28.8405 5.47101 28.7648 5.41706V5.41706Z" fill="#31CB9E"/>
<path d="M21.6209 27.8862L28.7784 22.5746C28.8524 22.5196 28.9113 22.4478 28.95 22.3654C28.9887 22.283 29.006 22.1927 29.0003 22.1023C28.9946 22.0119 28.9661 21.9242 28.9174 21.8471C28.8686 21.7699 28.8011 21.7056 28.7207 21.6598L18.1149 15.7516L20.7295 27.565C20.7487 27.6556 20.7912 27.7399 20.8532 27.8101C20.9151 27.8803 20.9944 27.9339 21.0836 27.9661C21.1728 27.9982 21.2689 28.0077 21.3629 27.9938C21.4569 27.9798 21.5457 27.9428 21.6209 27.8862V27.8862Z" fill="#31CB9E"/>
<path d="M15.8783 13.994L18.6951 1.2665C18.7196 1.15626 18.7085 1.04136 18.6633 0.937496C18.6181 0.833628 18.541 0.745848 18.4426 0.68614C18.3442 0.626432 18.2293 0.597705 18.1134 0.60388C17.9976 0.610055 17.8866 0.650831 17.7955 0.720643L10.5885 6.07229C10.4059 6.20805 10.258 6.38295 10.1563 6.58338C10.0547 6.7838 10.0019 7.00434 10.0023 7.22783L10 20.7824C9.99959 21.0058 10.0522 21.2264 10.1539 21.4269C10.2555 21.6273 10.4033 21.8023 10.5859 21.9381L17.791 27.284C17.8828 27.3509 17.9932 27.3893 18.1078 27.3941C18.2224 27.3989 18.3358 27.3699 18.4331 27.3108C18.5305 27.2518 18.6072 27.1656 18.6532 27.0634C18.6992 26.9613 18.7123 26.848 18.6909 26.7384L15.8783 13.994Z" fill="#31CB9E"/>
<path d="M71.9681 10.2829C72.483 10.2727 72.9915 10.3951 73.442 10.6378C73.8924 10.8806 74.2688 11.2349 74.5328 11.6648L73.6417 12.3321C73.4513 12.0527 73.2006 11.8169 72.907 11.6412C72.6233 11.4766 72.2982 11.3914 71.9678 11.3951C71.6698 11.3888 71.3766 11.4682 71.1249 11.6234C71.0056 11.6997 70.9092 11.8055 70.8458 11.93C70.7823 12.0544 70.7539 12.193 70.7636 12.3316C70.7597 12.4631 70.7887 12.5936 70.8479 12.712C70.905 12.8189 70.9826 12.9142 71.0764 12.993C71.1824 13.0814 71.2998 13.1563 71.4255 13.2156C71.562 13.2821 71.7105 13.3543 71.871 13.4322L72.7621 13.8304C73.0404 13.9534 73.3099 14.0943 73.5689 14.2521C73.792 14.3859 73.9947 14.5495 74.1711 14.7379C74.3284 14.9092 74.4545 15.1053 74.5442 15.3177C74.6355 15.5451 74.6805 15.7877 74.6767 16.0318C74.6816 16.3531 74.6115 16.6714 74.4714 16.9625C74.3389 17.2346 74.1456 17.4746 73.9056 17.6648C73.653 17.8623 73.3652 18.013 73.0566 18.1095C72.7165 18.2172 72.3605 18.2706 72.0028 18.2674C71.3813 18.2789 70.7686 18.1228 70.2328 17.8165C69.7215 17.5186 69.2984 17.097 69.0047 16.5927L69.9079 15.9256C70.0215 16.0912 70.1484 16.2478 70.2874 16.394C70.4262 16.5412 70.5817 16.6728 70.7508 16.7862C70.9233 16.9015 71.1117 16.9922 71.3106 17.0557C71.5304 17.1243 71.7602 17.1579 71.991 17.1552C72.3459 17.1716 72.696 17.0705 72.9842 16.8685C73.1082 16.7762 73.2074 16.6562 73.2736 16.5187C73.3397 16.3812 73.3707 16.2302 73.364 16.0785C73.3667 15.9433 73.3379 15.8092 73.2797 15.6863C73.222 15.5713 73.1399 15.4694 73.0388 15.3875C72.9249 15.2956 72.8019 15.2152 72.6714 15.1475C72.5309 15.0734 72.3724 14.9974 72.1959 14.9193L71.3173 14.521C71.0696 14.4089 70.8284 14.2837 70.5947 14.1462C70.3781 14.02 70.1796 13.8664 70.0046 13.6894C69.838 13.5206 69.7035 13.3244 69.6073 13.11C69.5076 12.8784 69.4584 12.6293 69.463 12.3783C69.4584 12.0783 69.5266 11.7815 69.6619 11.5118C69.7924 11.2566 69.9771 11.0313 70.2038 10.8506C70.4397 10.6635 70.7093 10.5206 70.9988 10.4291C71.3117 10.3299 71.639 10.2805 71.9681 10.2829V10.2829Z" fill="white"/>
<path d="M81.7569 16.1148L83.2869 12.392L84.6235 12.3923L82.0093 18.269H81.5759L79.7099 14.4287L77.8671 18.2684H77.4334L74.8094 12.3907L76.1581 12.3909L77.7107 16.1493L79.5057 12.2628H79.9391L81.7569 16.1148Z" fill="white"/>
<path d="M87.5617 12.2643C87.8973 12.2605 88.2312 12.312 88.5491 12.4167C88.8345 12.5114 89.0952 12.6653 89.3135 12.8675C89.5344 13.0789 89.705 13.3347 89.8133 13.617C89.9399 13.9524 90.0011 14.3077 89.9939 14.6649L89.9932 18.1419L88.813 18.1418V17.498C88.5972 17.7448 88.3251 17.9391 88.0183 18.0655C87.6715 18.2068 87.2983 18.2765 86.9224 18.2702C86.6349 18.2736 86.3485 18.2341 86.0734 18.1529C85.8356 18.0829 85.6146 17.9675 85.4233 17.8133C85.2463 17.6698 85.1044 17.4899 85.0078 17.2865C84.909 17.0731 84.8598 16.8413 84.8635 16.6074C84.8545 16.3759 84.9035 16.1457 85.0063 15.9366C85.1091 15.7276 85.2626 15.546 85.4536 15.4075C85.9188 15.0938 86.478 14.9395 87.0433 14.9688L88.7169 14.9689L88.7173 14.5943C88.7377 14.428 88.719 14.2595 88.6627 14.1013C88.6063 13.9431 88.5138 13.7994 88.3921 13.6811C88.2703 13.5627 88.1225 13.4727 87.9598 13.4179C87.7971 13.3631 87.6238 13.3449 87.4528 13.3647C87.1367 13.3576 86.8245 13.4345 86.55 13.587C86.2673 13.7569 86.0151 13.9705 85.8031 14.2193L85.0806 13.4933C85.357 13.0961 85.7348 12.7754 86.1769 12.5626C86.6092 12.3622 87.0828 12.2601 87.5617 12.2643V12.2643ZM87.1873 17.322C87.3885 17.3233 87.5883 17.2896 87.7774 17.2226C87.9566 17.1595 88.122 17.0641 88.265 16.9416C88.4054 16.8212 88.5183 16.6737 88.5967 16.5084C88.6775 16.3378 88.7186 16.1519 88.717 15.964V15.8587L87.1997 15.8585C86.9288 15.8424 86.6588 15.9034 86.4229 16.034C86.3343 16.0911 86.2626 16.1698 86.2151 16.2622C86.1675 16.3547 86.1458 16.4577 86.152 16.5609C86.1462 16.6729 86.171 16.7844 86.2239 16.8841C86.2767 16.9838 86.3557 17.0682 86.4529 17.1287C86.6725 17.2627 86.9282 17.33 87.1873 17.322H87.1873Z" fill="white"/>
<path d="M94.5098 12.265C94.9093 12.2615 95.3052 12.3394 95.6719 12.4936C96.0205 12.6401 96.3342 12.8554 96.5929 13.1258C96.8539 13.4018 97.0582 13.7237 97.1948 14.0743C97.3425 14.4538 97.4159 14.8568 97.4112 15.2626C97.4153 15.6702 97.3418 16.0751 97.1945 16.4567C97.0582 16.8105 96.8515 17.1348 96.5862 17.4109C96.3201 17.6863 95.9981 17.905 95.6405 18.0531C95.2829 18.2012 94.8975 18.2754 94.5088 18.271C94.1227 18.2753 93.7397 18.2036 93.3829 18.0601C93.053 17.9276 92.7615 17.7185 92.5339 17.4512L92.5336 20.2492L91.2694 20.249L91.2708 12.3933L92.4385 12.3935L92.4382 13.2247C92.6579 12.9182 92.9572 12.6739 93.3057 12.5165C93.6825 12.3456 94.0941 12.2596 94.5098 12.265V12.265ZM94.3049 13.3889C94.0852 13.3894 93.8671 13.427 93.6606 13.5C93.4481 13.5741 93.2535 13.6897 93.0887 13.8396C92.9121 14.0028 92.7726 14.2001 92.6792 14.4189C92.5682 14.6865 92.5149 14.9733 92.5225 15.2618C92.515 15.5497 92.5661 15.8362 92.6728 16.1048C92.7637 16.3252 92.9011 16.5247 93.0762 16.6903C93.2395 16.8434 93.4343 16.9611 93.6478 17.0357C93.8583 17.1095 94.0804 17.1472 94.3043 17.1471C94.5459 17.1484 94.7854 17.1027 95.0086 17.0126C95.226 16.9252 95.4228 16.7958 95.5869 16.632C95.7552 16.4623 95.8863 16.2612 95.9725 16.0409C96.1566 15.5454 96.1567 15.0028 95.9728 14.5072C95.8872 14.2879 95.7583 14.087 95.5934 13.9159C95.4313 13.7511 95.2368 13.6197 95.0214 13.5296C94.7953 13.4347 94.5512 13.3868 94.3049 13.3889V13.3889Z" fill="white"/>
<path d="M39.6662 18.1337L38.3899 18.1335L38.3913 10.4066L39.6675 10.4067L39.6662 18.1337ZM41.2926 14.0245L44.9647 18.1345L43.3872 18.1342L39.7029 14.0244L43.0394 10.4072L44.6048 10.4075L41.2926 14.0245Z" fill="white"/>
<path d="M47.7705 18.791C47.5844 19.262 47.2751 19.6776 46.8731 19.9966C46.4988 20.2539 46.0485 20.3854 45.5904 20.3712C45.4254 20.3707 45.2605 20.3609 45.0967 20.3418C44.9343 20.3233 44.7733 20.2939 44.6151 20.254V19.2121C44.7596 19.2275 44.8882 19.2392 45.0006 19.2471C45.1128 19.2548 45.2211 19.2587 45.3255 19.2588C45.5785 19.2635 45.8288 19.2073 46.0541 19.0951C46.3117 18.9339 46.5084 18.6956 46.6146 18.4162L46.8552 17.8777L44.4961 12.3863L45.8566 12.3867L47.542 16.5782L49.3009 12.3871L50.6493 12.3873L47.7705 18.791Z" fill="white"/>
<path d="M52.5758 13.0899C52.8079 12.8272 53.0983 12.6191 53.4251 12.4812C53.7799 12.3303 54.1637 12.2545 54.551 12.2589C54.9397 12.2547 55.325 12.329 55.6825 12.4772C56.0401 12.6254 56.362 12.8441 56.628 13.1197C56.8932 13.3959 57.0998 13.7202 57.236 14.0741C57.3831 14.4558 57.4565 14.8607 57.4524 15.2683C57.4568 15.674 57.3833 16.077 57.2357 16.4565C57.0989 16.807 56.8945 17.1289 56.6334 17.4048C56.3761 17.6742 56.0645 17.8893 55.7181 18.0368C55.3536 18.1912 54.9597 18.269 54.5621 18.2649C54.1451 18.2698 53.732 18.1858 53.3519 18.0188C53.0006 17.8661 52.6987 17.6232 52.4787 17.3163V18.1358L51.311 18.1356L51.3123 9.35489L52.5764 9.35505L52.5758 13.0899ZM54.3461 13.3828C54.1223 13.3827 53.9002 13.4202 53.6896 13.4938C53.4761 13.5686 53.2813 13.6863 53.1177 13.8392C52.9427 14.0048 52.8052 14.2042 52.7143 14.4245C52.6074 14.6931 52.5562 14.9796 52.5636 15.2674C52.5564 15.5577 52.6096 15.8464 52.72 16.1162C52.8123 16.3374 52.9519 16.537 53.1295 16.7018C53.2933 16.8514 53.4882 16.9652 53.7011 17.0355C53.9084 17.1049 54.1261 17.1406 54.3454 17.141C54.5917 17.143 54.8357 17.0952 55.0619 17.0006C55.2774 16.9104 55.472 16.7791 55.6342 16.6143C55.7992 16.4432 55.9281 16.2424 56.0137 16.0232C56.1978 15.5277 56.1979 14.9852 56.014 14.4896C55.9279 14.2692 55.7967 14.068 55.6285 13.8982C55.4644 13.7345 55.2677 13.605 55.0505 13.5176C54.8273 13.4273 54.5878 13.3815 54.3461 13.3828V13.3828Z" fill="white"/>
<path d="M61.3546 12.2602C61.7296 12.2569 62.1018 12.3245 62.4502 12.4594C62.7742 12.5826 63.0687 12.7694 63.3152 13.0081C63.5617 13.2468 63.7549 13.5323 63.8829 13.8469C64.0212 14.1797 64.0907 14.5358 64.0874 14.8947C64.0878 15.0436 64.0776 15.1922 64.0571 15.3397C64.0431 15.4503 64.021 15.5598 63.9911 15.6673L59.5836 15.6667C59.6487 16.1038 59.881 16.501 60.234 16.7791C60.5992 17.0511 61.0501 17.1919 61.51 17.1773C61.8327 17.1819 62.1528 17.1201 62.4492 16.996C62.7358 16.8717 63.0001 16.7038 63.2324 16.4986L63.8461 17.3417C63.5374 17.6276 63.1786 17.8575 62.7866 18.0204C62.3748 18.1878 61.9322 18.2715 61.486 18.2662C61.0494 18.2699 60.6161 18.1924 60.2094 18.0378C59.8343 17.8977 59.4924 17.6847 59.2048 17.4118C58.9171 17.139 58.6896 16.8121 58.5361 16.451C58.3739 16.0769 58.2919 15.6746 58.2952 15.2686C58.292 14.8632 58.372 14.4612 58.5304 14.0861C58.6799 13.7294 58.9009 13.4051 59.1805 13.1321C59.4593 12.8618 59.7883 12.6453 60.1501 12.4942C60.5306 12.3359 60.9408 12.2563 61.3546 12.2602V12.2602ZM61.3179 13.3022C60.913 13.2922 60.5186 13.4276 60.2101 13.6826C59.8973 13.9489 59.6853 14.3096 59.6082 14.7068L62.8233 14.7073C62.8279 14.5114 62.7888 14.3168 62.7088 14.1369C62.6287 13.957 62.5096 13.7961 62.3596 13.6652C62.0697 13.4243 61.6991 13.2952 61.3179 13.3022V13.3022Z" fill="white"/>
<path d="M68.1943 12.3313C68.285 12.3305 68.3756 12.3364 68.4653 12.349C68.5414 12.3607 68.6117 12.3743 68.6759 12.39L68.6756 13.4788L68.2904 13.4786C68.0636 13.4777 67.8381 13.5113 67.6221 13.5782C67.4182 13.6396 67.2296 13.7411 67.068 13.8766C66.9078 14.014 66.7803 14.1838 66.6946 14.3741C66.598 14.5941 66.5507 14.8316 66.5558 15.0707L66.5554 18.1381L65.2913 18.1379L65.2923 12.3895L66.46 12.3897L66.4597 13.1625C66.6584 12.8977 66.9212 12.6845 67.2247 12.5419C67.5274 12.4012 67.8589 12.3293 68.1943 12.3313V12.3313Z" fill="white"/>
</svg>
