<svg width="28" height="28" viewBox="0 0 28 28" fill="none" xmlns="http://www.w3.org/2000/svg">
<path fill="#222" d="M16.8135 13.9949L26.5444 19.5631C26.6222 19.607 26.7102 19.6299 26.7996 19.6297C26.889 19.6294 26.9768 19.606 27.0544 19.5617C27.132 19.5174 27.1967 19.4537 27.2422 19.3768C27.2877 19.3 27.3123 19.2127 27.3138 19.1235L27.3154 8.86965C27.3145 8.78028 27.2901 8.69272 27.2447 8.61565C27.1994 8.53857 27.1346 8.47464 27.0569 8.43021C26.9792 8.38577 26.8912 8.36237 26.8016 8.3623C26.712 8.36224 26.624 8.38553 26.5462 8.42986L16.8135 13.9949Z" />
<path fill="#222" d="M25.979 6.03013L19.5193 1.10334C19.4504 1.05169 19.3696 1.01805 19.2844 1.00551C19.1991 0.992969 19.112 1.00191 19.0311 1.03153C18.9502 1.06114 18.878 1.11049 18.821 1.17507C18.7641 1.23965 18.7243 1.31742 18.7052 1.40129L16.3433 12.3702L25.9266 6.87966C26.0007 6.83832 26.0633 6.77907 26.1085 6.70735C26.1537 6.63563 26.1801 6.55373 26.1853 6.46917C26.1905 6.38461 26.1744 6.3001 26.1383 6.22339C26.1023 6.14668 26.0475 6.08022 25.979 6.03013Z" />
<path fill="#222" d="M19.5147 26.8948L25.9909 21.9627C26.0579 21.9116 26.1112 21.8449 26.1462 21.7684C26.1813 21.6919 26.1969 21.608 26.1917 21.524C26.1866 21.4401 26.1608 21.3587 26.1167 21.2871C26.0726 21.2154 26.0115 21.1557 25.9388 21.1131L16.3423 15.627L18.7081 26.5966C18.7254 26.6807 18.7639 26.759 18.82 26.8242C18.876 26.8893 18.9478 26.9392 19.0285 26.969C19.1092 26.9988 19.1961 27.0077 19.2812 26.9947C19.3663 26.9817 19.4466 26.9473 19.5147 26.8948Z" />
<path fill="#222" d="M14.3188 13.995L16.8676 2.1766C16.8897 2.07423 16.8797 1.96755 16.8388 1.8711C16.7979 1.77465 16.7282 1.69314 16.6391 1.63769C16.5501 1.58225 16.4461 1.55558 16.3413 1.56131C16.2365 1.56704 16.136 1.60491 16.0536 1.66973L9.53251 6.63912C9.3673 6.76518 9.23347 6.92759 9.14147 7.1137C9.04946 7.29981 9.00175 7.5046 9.00205 7.71212L9 20.2985C8.99963 20.506 9.04727 20.7108 9.13922 20.8969C9.23117 21.0831 9.36494 21.2455 9.53011 21.3716L16.0496 26.3357C16.1326 26.3978 16.2325 26.4335 16.3362 26.4379C16.4399 26.4424 16.5425 26.4154 16.6306 26.3606C16.7186 26.3058 16.788 26.2257 16.8296 26.1309C16.8713 26.036 16.8831 25.9308 16.8637 25.8291L14.3188 13.995Z" />
</svg>
