<?xml version="1.0" encoding="UTF-8"?>
<svg version="1.1" xmlns="http://www.w3.org/2000/svg" width="64" height="64">
<path d="M0 0 C8.34468007 4.97590182 13.53387008 11.86345977 16.109375 21.2578125 C17.10789012 32.35758522 16.45884702 41.9922991 9.359375 51.0703125 C3.70168013 57.1280464 -3.34488592 60.84888618 -11.625 61.59375 C-22.35447774 61.83515993 -31.19802606 60.58332943 -39.359375 52.9609375 C-46.75303791 44.73737365 -48.47252567 36.02335615 -48.203125 25.24609375 C-47.72879865 16.86039919 -44.11592977 9.8548755 -37.890625 4.2578125 C-27.15195714 -3.81766573 -12.32399863 -5.91386512 0 0 Z " fill="#783610" transform="translate(47.890625,2.7421875)"/>
<path d="M0 0 C3.58448695 2.64940339 4.79913674 4.23671961 5.9375 8.5625 C6 12 6 12 5.02734375 13.8828125 C3.77594936 16.46173173 3.7299754 18.45797653 3.625 21.3125 C3.12675942 27.44657663 1.96411605 31.13079407 -2.5859375 35.53515625 C-8.46150769 39.9852189 -14.90059125 39.97797978 -22 39 C-27.80486711 37.10535588 -31.39131404 33.04803655 -34.1875 27.75 C-35.14847956 24.49745378 -35.47614205 21.36113225 -35.75390625 17.98828125 C-35.89644924 15.9288014 -35.89644924 15.9288014 -37 14 C-37.44851142 9.5148858 -37.68822212 6.28970203 -35.0625 2.5 C-31.3833541 -0.50338441 -29.57061013 -0.56273972 -24.98828125 -0.30859375 C-23 0 -23 0 -21 1 C-19.37834248 1.12148305 -17.75115673 1.17543652 -16.125 1.1875 C-15.26132812 1.20167969 -14.39765625 1.21585938 -13.5078125 1.23046875 C-0.03070884 -0.00808127 -0.03070884 -0.00808127 0 0 Z " fill="#7E3E1A" transform="translate(48,14)"/>
<path d="M0 0 C3.58448695 2.64940339 4.79913674 4.23671961 5.9375 8.5625 C6 12 6 12 5.02734375 13.8828125 C3.77594936 16.46173173 3.7299754 18.45797653 3.625 21.3125 C3.12675942 27.44657663 1.96411605 31.13079407 -2.5859375 35.53515625 C-8.46150769 39.9852189 -14.90059125 39.97797978 -22 39 C-27.80486711 37.10535588 -31.39131404 33.04803655 -34.1875 27.75 C-35.14847956 24.49745378 -35.47614205 21.36113225 -35.75390625 17.98828125 C-35.89644924 15.9288014 -35.89644924 15.9288014 -37 14 C-37.44851142 9.5148858 -37.68822212 6.28970203 -35.0625 2.5 C-31.3833541 -0.50338441 -29.57061013 -0.56273972 -24.98828125 -0.30859375 C-23 0 -23 0 -21 1 C-19.37834248 1.12148305 -17.75115673 1.17543652 -16.125 1.1875 C-15.26132812 1.20167969 -14.39765625 1.21585938 -13.5078125 1.23046875 C-0.03070884 -0.00808127 -0.03070884 -0.00808127 0 0 Z M-31.75 3.5625 C-34.32193059 5.87593221 -34.32193059 5.87593221 -34.4375 9.4375 C-34.17353104 12.88238925 -34.17353104 12.88238925 -33 15.4375 C-32 18 -32 18 -32.125 21.9375 C-32.22454723 26.34246504 -30.91340169 28.62658751 -28 32 C-24.28196325 35.44598529 -21.44147663 36.28328838 -16.5 36.4375 C-11.98068521 36.25353875 -8.76936955 35.66613944 -5 33 C-0.30723397 27.79990791 0.19459678 24.44378332 0.62109375 17.62890625 C1 15 1 15 3 12 C2.91753154 8.12398253 2.42082539 6.46891972 -0.1875 3.5625 C-2.92989341 1.71006766 -2.92989341 1.71006766 -6.1875 2.1875 C-8.92162967 2.88522924 -8.92162967 2.88522924 -11 4 C-12.62165752 4.12148305 -14.24884327 4.17543652 -15.875 4.1875 C-17.17050781 4.20876953 -17.17050781 4.20876953 -18.4921875 4.23046875 C-21.15686764 3.98558381 -22.64825056 3.20443848 -25 2 C-28.9475115 1.67066039 -28.9475115 1.67066039 -31.75 3.5625 Z " fill="#F2ECE9" transform="translate(48,14)"/>
<path d="M0 0 C0.33 0 0.66 0 1 0 C1 3.96 1 7.92 1 12 C-0.98 12.99 -0.98 12.99 -3 14 C-2.88617347 12.04098546 -2.75858875 10.0827662 -2.625 8.125 C-2.55539063 7.03445312 -2.48578125 5.94390625 -2.4140625 4.8203125 C-2 2 -2 2 0 0 Z " fill="#F7F3F1" transform="translate(50,29)"/>
<path d="M0 0 C2.375 -0.125 2.375 -0.125 5 0 C7 2 7 2 7 6 C4.03824877 5.38722388 2.61941217 4.74627478 0 3 C0 2.01 0 1.02 0 0 Z " fill="#F8F5F3" transform="translate(40,20)"/>
<path d="M0 0 C1.2065625 0.0309375 1.2065625 0.0309375 2.4375 0.0625 C2.125 1.9375 2.125 1.9375 1.4375 4.0625 C-1.5625 6.0625 -1.5625 6.0625 -4.5625 6.0625 C-3.48963568 0.08511307 -3.48963568 0.08511307 0 0 Z " fill="#F9F6F4" transform="translate(21.5625,19.9375)"/>
<path d="M0 0 C1.65 0.33 3.3 0.66 5 1 C5 1.99 5 2.98 5 4 C3.02 4 1.04 4 -1 4 C-0.67 2.68 -0.34 1.36 0 0 Z " fill="#EBE2DC" transform="translate(37,35)"/>
<path d="M0 0 C2 0.25 2 0.25 4 1 C4.33 1.99 4.66 2.98 5 4 C3.02 4 1.04 4 -1 4 C-1 1 -1 1 0 0 Z " fill="#EFE8E3" transform="translate(24,35)"/>
</svg>
