<?xml version="1.0" encoding="UTF-8"?>
<svg version="1.1" xmlns="http://www.w3.org/2000/svg" width="128" height="128">
<path d="M0 0 C42.24 0 84.48 0 128 0 C128 42.24 128 84.48 128 128 C85.76 128 43.52 128 0 128 C0 85.76 0 43.52 0 0 Z " fill="#010100" transform="translate(0,0)"/>
<path d="M0 0 C1.38474133 -0.00591651 2.76947754 -0.01316642 4.15420532 -0.02168274 C7.05099207 -0.03353693 9.94700927 -0.02690244 12.84375 -0.00756836 C16.53845916 0.015283 20.23086283 -0.01142828 23.92534447 -0.05263042 C26.78412221 -0.07833184 29.64235758 -0.0755951 32.50120926 -0.06473732 C34.51960641 -0.06254656 36.53798124 -0.08540717 38.5562439 -0.10881042 C45.72050661 -0.01828431 50.23712605 0.54020728 55.66860962 5.41349792 C56.2851088 6.04992973 56.2851088 6.04992973 56.9140625 6.69921875 C53.1039816 20.42353772 53.1039816 20.42353772 48.5 23.10546875 C45.99742386 24.3743806 43.48115325 25.56738699 40.9140625 26.69921875 C41.6978125 27.48296875 42.4815625 28.26671875 43.2890625 29.07421875 C44.83072917 30.61588542 46.37239583 32.15755208 47.9140625 33.69921875 C47.55298801 38.85742572 45.94412358 44.56731728 42.9140625 48.69921875 C35.27877486 54.21126364 28.71809876 55.55031968 19.46484375 55.28515625 C18.32621384 55.27666656 17.18758392 55.26817688 16.01445007 55.25942993 C12.41747909 55.22614225 8.82284301 55.15090468 5.2265625 55.07421875 C2.771517 55.04408754 0.31643598 55.01671732 -2.13867188 54.9921875 C-8.12187536 54.92643206 -14.10373957 54.82633295 -20.0859375 54.69921875 C-19.48865651 49.53074722 -18.31681575 44.80179677 -16.65234375 39.8671875 C-16.41434555 39.149366 -16.17634735 38.43154449 -15.93113708 37.69197083 C-15.43058994 36.18762499 -14.92705299 34.68427093 -14.4206543 33.18188477 C-13.64574671 30.87872123 -12.88384414 28.5715297 -12.12304688 26.26367188 C-11.63358251 24.79791973 -11.14337445 23.33241567 -10.65234375 21.8671875 C-10.4251918 21.17763474 -10.19803986 20.48808197 -9.96400452 19.77763367 C-8.97292987 16.86203544 -8.29353232 14.90681357 -6.0859375 12.69921875 C-3.4459375 14.67921875 -0.8059375 16.65921875 1.9140625 18.69921875 C0.23446541 27.93700276 -2.84623312 35.52005634 -6.0859375 44.69921875 C7.1140625 44.69921875 20.3140625 44.69921875 33.9140625 44.69921875 C34.2440625 42.38921875 34.5740625 40.07921875 34.9140625 37.69921875 C35.9040625 35.38921875 36.8940625 33.07921875 37.9140625 30.69921875 C28.6740625 30.69921875 19.4340625 30.69921875 9.9140625 30.69921875 C10.5740625 27.72921875 11.2340625 24.75921875 11.9140625 21.69921875 C21.4840625 21.69921875 31.0540625 21.69921875 40.9140625 21.69921875 C41.9040625 17.24421875 41.9040625 17.24421875 42.9140625 12.69921875 C43.2440625 12.03921875 43.5740625 11.37921875 43.9140625 10.69921875 C21.1440625 10.69921875 -1.6259375 10.69921875 -25.0859375 10.69921875 C-23.4359375 9.04921875 -21.7859375 7.39921875 -20.0859375 5.69921875 C-18.88203369 4.32866333 -18.88203369 4.32866333 -17.65380859 2.93041992 C-12.76215438 -1.03162804 -5.96512009 -0.03770395 0 0 Z " fill="#F4F50A" transform="translate(49.0859375,36.30078125)"/>
<path d="M0 0 C9.57 0 19.14 0 29 0 C28.34 0.66 27.68 1.32 27 2 C27.33 2.66 27.66 3.32 28 4 C27.67 4.99 27.34 5.98 27 7 C17.76 7 8.52 7 -1 7 C-0.67 4.69 -0.34 2.38 0 0 Z " fill="#FCFD07" transform="translate(61,59)"/>
<path d="M0 0 C23.1 0.33 46.2 0.66 70 1 C69.67 1.66 69.34 2.32 69 3 C68.42006287 2.99555878 67.84012573 2.99111755 67.24261475 2.98654175 C61.20815494 2.94230431 55.17374118 2.91213184 49.13916016 2.89013672 C46.88686248 2.88007747 44.63457786 2.86642854 42.38232422 2.84912109 C39.14547502 2.82486969 35.90879845 2.8135161 32.671875 2.8046875 C31.16074127 2.78920364 31.16074127 2.78920364 29.61907959 2.77340698 C28.67840637 2.77325592 27.73773315 2.77310486 26.76855469 2.77294922 C25.52945343 2.76628738 25.52945343 2.76628738 24.26531982 2.75949097 C21.77802236 3.02356737 20.15066625 3.75429493 18 5 C18 4.01 18 3.02 18 2 C12.06 2 6.12 2 0 2 C0 1.34 0 0.68 0 0 Z " fill="#0D0805" transform="translate(23,46)"/>
<path d="M0 0 C1.05692047 0.00636726 1.05692047 0.00636726 2.13519287 0.01286316 C4.37698212 0.02960337 6.61785931 0.06724471 8.859375 0.10546875 C10.38279948 0.12052171 11.90623811 0.13420905 13.4296875 0.14648438 C17.15654441 0.17949084 20.88287063 0.23124021 24.609375 0.29296875 C24.609375 0.62296875 24.609375 0.95296875 24.609375 1.29296875 C23.69647705 1.29707764 22.7835791 1.30118652 21.84301758 1.30541992 C18.44102722 1.33246277 15.04082439 1.38160737 11.6394043 1.44555664 C10.17011553 1.46868868 8.70066208 1.48312115 7.23120117 1.48852539 C5.11273155 1.49785154 2.99683435 1.53891002 0.87890625 1.5859375 C-0.39364014 1.60164795 -1.66618652 1.6173584 -2.97729492 1.63354492 C-7.21655694 2.45253117 -8.5778124 4.11908734 -11.390625 7.29296875 C-14.203125 8.10546875 -14.203125 8.10546875 -16.390625 8.29296875 C-8.22650286 -0.09793456 -8.22650286 -0.09793456 0 0 Z " fill="#FFFF11" transform="translate(42.390625,36.70703125)"/>
<path d="M0 0 C7.26 0.33 14.52 0.66 22 1 C21.67 1.99 21.34 2.98 21 4 C20.01 4.33 19.02 4.66 18 5 C18 4.01 18 3.02 18 2 C12.06 2 6.12 2 0 2 C0 1.34 0 0.68 0 0 Z " fill="#181508" transform="translate(23,46)"/>
<path d="M0 0 C0.66 0.33 1.32 0.66 2 1 C-4.14285714 7.71428571 -4.14285714 7.71428571 -9 8 C-6.14723863 5.06799526 -3.34920216 2.35684596 0 0 Z " fill="#E0E01A" transform="translate(35,37)"/>
</svg>
