<svg xmlns="http://www.w3.org/2000/svg" width="20" height="20" viewBox="0 0 20 20" fill="none">
  <path
    d="M11.9213 16.6097V18.8507L9.97226 20L8.08059 18.8507V16.6097L9.97226 17.7589L11.9213 16.6097ZM1.48655 8.85027L3.37822 9.99954V13.8505L6.64658 15.8043V18.0453L1.48655 14.9998V8.85027ZM18.4571 8.85027V14.9998L13.2397 18.0453V15.8043L16.5081 13.8505V9.99954L18.4571 8.85027ZM13.2397 5.80472L15.1887 6.95398V9.19505L11.9203 11.1488V15.0572L10.0287 16.2065L8.13699 15.0572V11.1488L4.75398 9.19505V6.95398L6.70298 5.80472L9.97134 7.75847L13.2397 5.80472ZM4.75491 10.8049L6.64658 11.9542V14.1953L4.75491 13.046V10.8049ZM15.1896 10.8049V13.046L13.2979 14.1953V11.9542L15.1896 10.8049ZM3.37822 3.85097L5.32722 5.00023L3.37822 6.1495V8.39056L1.48655 7.2413V5.00023L3.37822 3.85097ZM16.5645 3.85097L18.5135 5.00023V7.2413L16.5645 8.39056V6.1495L14.6728 5.00023L16.5645 3.85097ZM9.97134 3.85097L11.9203 5.00023L9.97134 6.1495L8.07967 5.00023L9.97134 3.85097ZM9.97134 0L15.1887 3.04555L13.297 4.19482L10.0287 2.24107L6.70298 4.19482L4.81131 3.04555L9.97134 0Z"
    fill="#F3BA2F"
  />
</svg>
