<?xml version="1.0" encoding="UTF-8"?>
<svg version="1.1" xmlns="http://www.w3.org/2000/svg" width="360" height="360">
<path d="M0 0 C0.78761719 0.68707031 1.57523437 1.37414063 2.38671875 2.08203125 C3.18464844 2.75878906 3.98257812 3.43554688 4.8046875 4.1328125 C9.80280532 8.44442167 14.21360153 12.97312411 18.38671875 18.08203125 C19.22074219 19.09007812 20.05476563 20.098125 20.9140625 21.13671875 C45.16629853 50.89631431 59.23504338 86.61250269 60.38671875 125.08203125 C60.4139502 125.81115723 60.44118164 126.5402832 60.46923828 127.29150391 C62.03106982 173.13469753 44.08551218 215.86796622 13.07983398 249.19287109 C-10.70619243 274.34939227 -40.13277007 290.71448179 -73.61328125 299.08203125 C-74.34828857 299.26910645 -75.0832959 299.45618164 -75.84057617 299.64892578 C-81.78620031 301.07629889 -87.71294453 301.71416291 -93.80078125 302.20703125 C-94.81962402 302.29049805 -95.8384668 302.37396484 -96.88818359 302.45996094 C-135.69464646 305.48159876 -176.89826947 296.56165323 -208.61328125 273.08203125 C-209.14115234 272.69402344 -209.66902344 272.30601562 -210.21289062 271.90625 C-217.71102725 266.36835308 -224.84322625 260.49746432 -231.61328125 254.08203125 C-232.50789063 253.24027344 -233.4025 252.39851563 -234.32421875 251.53125 C-265.47709148 221.38190118 -283.16074229 178.10856154 -284.03271484 135.01342773 C-284.27094806 85.64442364 -265.40114565 42.29618655 -231.05078125 7.08203125 C-222.97880687 -1.00347374 -214.13263241 -7.63702511 -204.61328125 -13.91796875 C-203.97036133 -14.3469043 -203.32744141 -14.77583984 -202.66503906 -15.21777344 C-140.67386145 -56.07781844 -55.64687211 -47.29558043 0 0 Z M-216.8359375 42.7109375 C-225.56728285 53.07124251 -232.0219955 64.79617345 -237.61328125 77.08203125 C-238.08507812 78.10167969 -238.556875 79.12132812 -239.04296875 80.171875 C-245.02392234 94.30698581 -248.29966937 110.73745007 -248.61328125 126.08203125 C-248.65195313 126.85160156 -248.690625 127.62117187 -248.73046875 128.4140625 C-249.84440517 164.74076687 -235.29582562 199.42935238 -210.76147461 225.7890625 C-191.42075758 246.15123731 -163.956058 262.8352172 -135.61328125 266.08203125 C-134.18876544 266.2653405 -132.76428995 266.44896315 -131.33984375 266.6328125 C-129.76460115 266.82649522 -128.18907566 267.01789046 -126.61328125 267.20703125 C-125.88931152 267.29509033 -125.1653418 267.38314941 -124.41943359 267.47387695 C-89.40835922 271.34178947 -55.90238989 260.63012878 -27.98828125 239.70703125 C-7.94798301 223.526346 7.22017987 204.34805287 16.38671875 180.08203125 C16.84820312 178.89738281 17.3096875 177.71273437 17.78515625 176.4921875 C20.45293749 169.39095478 22.43168624 162.60291226 23.38671875 155.08203125 C23.48082031 154.39963379 23.57492187 153.71723633 23.671875 153.01416016 C28.79602301 115.02898071 20.40443484 78.72667437 -2.47265625 47.81640625 C-5.96206624 43.35913071 -9.72536447 39.192911 -13.61328125 35.08203125 C-14.29132813 34.36273438 -14.969375 33.6434375 -15.66796875 32.90234375 C-18.05760888 30.40296746 -18.05760888 30.40296746 -20.61328125 28.08203125 C-21.27328125 28.08203125 -21.93328125 28.08203125 -22.61328125 28.08203125 C-22.61328125 27.42203125 -22.61328125 26.76203125 -22.61328125 26.08203125 C-24.57764969 24.45835796 -26.53125768 22.98007591 -28.61328125 21.51953125 C-29.24049072 21.07770508 -29.8677002 20.63587891 -30.51391602 20.18066406 C-90.08765797 -21.02028002 -168.95466168 -11.87111469 -216.8359375 42.7109375 Z " fill="#3AFB9C" transform="translate(291.61328125,48.91796875)"/>
<path d="M0 0 C0.95751953 1.67626953 0.95751953 1.67626953 1 4 C-0.70752889 6.28204806 -2.36048211 8.18036338 -4.3515625 10.19140625 C-5.20637711 11.07118385 -5.20637711 11.07118385 -6.07846069 11.96873474 C-7.29431828 13.20994464 -8.51709378 14.44440925 -9.74609375 15.67260742 C-11.59656419 17.53389792 -13.40339207 19.4311095 -15.2109375 21.33398438 C-22.64816535 28.94900114 -28.15833795 32.6705404 -39 34 C-55.05326186 38.35298176 -67.35586374 46.67785266 -76 61 C-78.75521064 65.80631189 -80.87238742 70.48891639 -81.6262207 76.00708008 C-83.35332757 88.08013659 -87.73365959 94.74991493 -96.61767578 102.94848633 C-98.53328015 104.71824637 -100.39054501 106.53668294 -102.24609375 108.36914062 C-103.44235694 109.52390297 -104.64147289 110.6757191 -105.84375 111.82421875 C-106.40114868 112.3635051 -106.95854736 112.90279144 -107.53283691 113.4584198 C-111.39096637 116.98871435 -111.39096637 116.98871435 -114.27929688 117.04223633 C-116.80149148 115.51453361 -117.4034776 113.27431805 -118.38671875 110.59375 C-123.83066264 87.56968159 -119.18086086 62.35163659 -107.1875 42.1875 C-92.51362008 19.67643422 -71.84371078 4.24372939 -45.625 -2.125 C-31.9682778 -4.97015046 -12.88102402 -6.61941512 0 0 Z " fill="#3AFB9C" transform="translate(206,89)"/>
<path d="M0 0 C0.99 0.33 1.98 0.66 3 1 C6.20646005 7.53624548 6.72805505 13.79345879 7 21 C7.03254883 21.66854004 7.06509766 22.33708008 7.09863281 23.02587891 C8.19447082 47.39443822 0.37525074 70.64653105 -16 89 C-29.33313683 103.51238716 -45.37920003 114.97289136 -65 119 C-65.7734375 119.20238281 -66.546875 119.40476562 -67.34375 119.61328125 C-80.52593076 122.67938975 -99.32961704 123.33909219 -112 118 C-113.15527344 115.93457031 -113.15527344 115.93457031 -114 114 C-110.34252599 110.16857902 -106.66195158 106.36145214 -102.95874023 102.57421875 C-101.70418857 101.28461653 -100.45600913 99.98878154 -99.21459961 98.68652344 C-97.42148589 96.80781785 -95.60610206 94.95325681 -93.78515625 93.1015625 C-93.24101578 92.52129303 -92.69687531 91.94102356 -92.13624573 91.34317017 C-87.81206799 87.01475767 -83.97138493 85.87381085 -78 85 C-61.61483579 81.16285278 -47.99127027 73.90776942 -38.59375 59.640625 C-35.20250535 54.02179807 -32.25778119 48.59347006 -31.40014648 42.00830078 C-29.53718332 28.51635144 -23.60338233 21.82931572 -13.75 12.875 C-12.41604232 11.61147269 -11.08528534 10.34455737 -9.7578125 9.07421875 C-6.5406619 6.00928392 -3.28408671 2.993035 0 0 Z " fill="#39FC9C" transform="translate(267,152)"/>
<path d="M0 0 C3.5 1.75 3.5 1.75 6 4 C6.7425 4.598125 7.485 5.19625 8.25 5.8125 C11.61309156 10.01636445 12.23083236 14.38713025 11.8125 19.625 C11.28303817 23.31232343 10.38189918 26.04644502 8 29 C7.34 29 6.68 29 6 29 C6 29.66 6 30.32 6 31 C4.125 33.125 4.125 33.125 2 35 C1.34 35 0.68 35 0 35 C0 35.66 0 36.32 0 37 C-0.66 37 -1.32 37 -2 37 C-2 37.66 -2 38.32 -2 39 C-2.66 39 -3.32 39 -4 39 C-4 39.66 -4 40.32 -4 41 C-4.66 41 -5.32 41 -6 41 C-6 41.66 -6 42.32 -6 43 C-6.66 43 -7.32 43 -8 43 C-8 43.66 -8 44.32 -8 45 C-8.66 45 -9.32 45 -10 45 C-10 45.66 -10 46.32 -10 47 C-10.66 47 -11.32 47 -12 47 C-12 47.66 -12 48.32 -12 49 C-12.66 49 -13.32 49 -14 49 C-14 49.66 -14 50.32 -14 51 C-14.66 51 -15.32 51 -16 51 C-16 51.66 -16 52.32 -16 53 C-16.66 53 -17.32 53 -18 53 C-18 53.66 -18 54.32 -18 55 C-18.66 55 -19.32 55 -20 55 C-20 55.66 -20 56.32 -20 57 C-21.875 59.125 -21.875 59.125 -24 61 C-24.66 61 -25.32 61 -26 61 C-26 61.66 -26 62.32 -26 63 C-26.66 63 -27.32 63 -28 63 C-28 63.66 -28 64.32 -28 65 C-28.66 65 -29.32 65 -30 65 C-30 65.66 -30 66.32 -30 67 C-30.66 67 -31.32 67 -32 67 C-32 67.66 -32 68.32 -32 69 C-36.791204 73.51437888 -42.09950739 77.94060009 -48.93359375 78.0234375 C-55.1540192 77.57660165 -59.12594119 75.07665976 -63.3125 70.4375 C-65.63555838 67.08197122 -66.21171665 64.31294196 -66.375 60.3125 C-66.42398438 59.50425781 -66.47296875 58.69601563 -66.5234375 57.86328125 C-64.91767536 49.07952267 -57.11471459 42.69090987 -51.0625 36.69921875 C-50.09462177 35.73186038 -49.12726448 34.76398053 -48.16040039 33.79560852 C-46.14449427 31.77979155 -44.12357565 29.76918941 -42.09863281 27.76245117 C-39.51116507 25.19774498 -36.93499971 22.6220293 -34.36225891 20.04255962 C-32.37058939 18.04754133 -30.37395116 16.05755785 -28.3757019 14.06913185 C-26.96370972 12.66282298 -25.55518481 11.25303557 -24.14672852 9.84318542 C-23.28233154 8.98832047 -22.41793457 8.13345551 -21.52734375 7.25268555 C-20.39413696 6.12638985 -20.39413696 6.12638985 -19.23803711 4.9773407 C-13.14183405 -0.4087498 -7.92849327 -0.97895914 0 0 Z " fill="#39FC9C" transform="translate(260,88)"/>
<path d="M0 0 C5.00317742 2.82828873 7.4563565 5.87234083 9.71875 11.12109375 C11.2673339 16.79923472 10.57011899 21.04767573 7.71875 26.12109375 C4.45761543 30.10255714 0.83189406 33.68867494 -2.828125 37.296875 C-3.88404352 38.35362353 -4.93914482 39.41118921 -5.99346924 40.4695282 C-8.19805998 42.67696653 -10.41111452 44.8754305 -12.63085938 47.06762695 C-15.46504466 49.86771081 -18.27869676 52.68741699 -21.08649826 55.51392841 C-23.2599 57.69793483 -25.44300126 59.87203242 -27.62918854 62.04323387 C-28.67010141 63.07899135 -29.70823613 64.11754908 -30.74343109 65.15902138 C-32.19536957 66.61645496 -33.65969624 68.06022747 -35.12792969 69.5012207 C-35.95605164 70.32314407 -36.78417358 71.14506744 -37.63739014 71.99189758 C-41.33883615 74.9728062 -45.11939316 76.94649445 -49.94140625 77.3359375 C-56.81293695 76.54263883 -60.85453681 74.81015432 -65.59375 69.55859375 C-67.8917984 64.87738405 -68.99884447 60.32877933 -68.28125 55.12109375 C-64.84661176 47.74463114 -58.84805247 42.24824584 -53.16015625 36.6015625 C-52.17232773 35.61170846 -51.18494451 34.62140984 -50.19798279 33.63069153 C-48.13934338 31.5676554 -46.0754433 29.51007641 -44.00756836 27.45629883 C-41.36687653 24.83274242 -38.73994578 22.19588246 -36.11679173 19.5548048 C-34.08468042 17.51182214 -32.04543995 15.47607612 -30.00401115 13.44240761 C-29.0326457 12.47303255 -28.06347372 11.50145402 -27.09662056 10.52757835 C-25.74300764 9.16629111 -24.37864862 7.81571536 -23.01391602 6.46557617 C-21.85739281 5.31263313 -21.85739281 5.31263313 -20.67750549 4.13639832 C-14.5630848 -1.0059665 -7.60226749 -2.9289558 0 0 Z " fill="#3BFA9B" transform="translate(156.28125,193.87890625)"/>
<path d="M0 0 C1.6719931 6.40481227 0.77933266 10.0939181 -2 16 C-2.66 16 -3.32 16 -4 16 C-5.97368244 24.03570707 -6.19255 31.88844431 -6.1875 40.125 C-6.18814453 41.13755859 -6.18878906 42.15011719 -6.18945312 43.19335938 C-6.14420792 49.51534839 -5.75237494 55.72299386 -5 62 C-4.34 62 -3.68 62 -3 62 C-3 60.68 -3 59.36 -3 58 C-2.34 58 -1.68 58 -1 58 C0 61 0 61 -1 64 C0.65 63.34 2.3 62.68 4 62 C1.525 64.97 1.525 64.97 -1 68 C-2.89453125 67.71875 -2.89453125 67.71875 -5 67 C-12.35321596 51.74888541 -10.56225935 29.39116071 -5.26904297 13.85449219 C-3.61683366 9.19379732 -1.84149832 4.58884695 0 0 Z " fill="#4ED794" transform="translate(95,138)"/>
<path d="M0 0 C0.99 0.33 1.98 0.66 3 1 C5.26415094 6.20754717 5.26415094 6.20754717 4 10 C2.45428722 7.68143083 1.20381448 5.49361571 0 3 C-3.68794165 6.38770217 -7.33174118 9.81571893 -10.94360352 13.28442383 C-12.17335716 14.45441675 -13.41374112 15.6133538 -14.6652832 16.76000977 C-22.66892448 24.10976926 -27.35787074 29.58279603 -28.58154297 40.58618164 C-30.18602619 53.67573176 -39.49997394 66.88336289 -49.5625 75.08984375 C-54.48459837 78.70272119 -54.48459837 78.70272119 -57 80 C-57.99 79.67 -58.98 79.34 -60 79 C-59.34773437 78.55269531 -58.69546875 78.10539062 -58.0234375 77.64453125 C-45.7811774 69.17606519 -36.92994907 60.37615247 -32 46 C-31.77228777 44.6739025 -31.57389722 43.34254143 -31.40014648 42.00830078 C-29.53718332 28.51635144 -23.60338233 21.82931572 -13.75 12.875 C-12.41604232 11.61147269 -11.08528534 10.34455737 -9.7578125 9.07421875 C-6.5406619 6.00928392 -3.28408671 2.993035 0 0 Z " fill="#53D998" transform="translate(267,152)"/>
<path d="M0 0 C0.33 0 0.66 0 1 0 C0.9592334 0.77899658 0.9184668 1.55799316 0.87646484 2.3605957 C0.11085944 17.69415871 -0.6353459 32.80201986 2 48 C2.11972168 48.69915527 2.23944336 49.39831055 2.36279297 50.11865234 C4.70525044 63.02454863 8.93256192 76.72573825 15.80859375 87.953125 C16.20175781 88.62859375 16.59492187 89.3040625 17 90 C16.67 90.66 16.34 91.32 16 92 C7.87205094 82.96894549 5.05881182 71.43646667 2 60 C1.68804687 58.88238281 1.37609375 57.76476562 1.0546875 56.61328125 C-2.09120593 44.44203337 -2.06561109 31.99379739 -2.125 19.5 C-2.13213013 18.28171509 -2.13213013 18.28171509 -2.1394043 17.03881836 C-2.09806807 2.09806807 -2.09806807 2.09806807 0 0 Z " fill="#54D99A" transform="translate(44,156)"/>
<path d="M0 0 C0.66 0.33 1.32 0.66 2 1 C1.53398376 1.3259465 1.06796753 1.65189301 0.58782959 1.98771667 C-5.3203368 6.25371258 -10.44685465 11.10860254 -15.609375 16.23828125 C-16.49860657 17.11848434 -17.38783813 17.99868744 -18.30401611 18.90556335 C-20.17233384 20.75944231 -22.03791194 22.61608592 -23.90087891 24.4753418 C-25.79950213 26.36964386 -27.70611072 28.25528641 -29.62060547 30.13354492 C-32.40033406 32.86435983 -35.16287341 35.61154448 -37.921875 38.36328125 C-38.77295837 39.19483231 -39.62404175 40.02638336 -40.50091553 40.88313293 C-46.09266125 46.5176419 -50.74285065 52.0849409 -51.171875 60.28515625 C-51.03265625 61.20167969 -50.8934375 62.11820313 -50.75 63.0625 C-50.62109375 64.00222656 -50.4921875 64.94195312 -50.359375 65.91015625 C-50.24078125 66.59980469 -50.1221875 67.28945312 -50 68 C-52 67 -52 67 -53 64 C-53.2734375 61.80078125 -53.2734375 61.80078125 -53.375 59.3125 C-53.42398438 58.50425781 -53.47296875 57.69601563 -53.5234375 56.86328125 C-51.91488749 48.06427262 -44.08925373 41.66555784 -38.02734375 35.6640625 C-37.05706993 34.69430846 -36.08731685 33.72403313 -35.11805725 32.75326538 C-33.09795504 30.73325231 -31.07284056 28.71845349 -29.04370117 26.70751953 C-26.44715185 24.1337622 -23.86193745 21.54896152 -21.28012753 18.96042824 C-19.28420663 16.96116404 -17.28332794 14.96692385 -15.28082466 12.97425461 C-13.86268586 11.56181285 -12.44802892 10.14587796 -11.03343201 8.72988892 C-10.1689595 7.87494843 -9.304487 7.02000793 -8.41381836 6.13916016 C-7.65612656 5.38607574 -6.89843475 4.63299133 -6.11778259 3.85708618 C-4.11915574 2.10448781 -2.4910478 0.91444281 0 0 Z " fill="#52D399" transform="translate(247,89)"/>
<path d="M0 0 C0.87840996 3.09720845 0.99435406 4.90645403 0 8 C-0.66 8 -1.32 8 -2 8 C-2.16873478 9.43725871 -2.33490737 10.87481838 -2.5 12.3125 C-2.63921875 13.51326172 -2.63921875 13.51326172 -2.78125 14.73828125 C-3.04813463 17.11896555 -3.04813463 17.11896555 -3 20 C-5.88834003 22.10770759 -7.38462395 23 -11 23 C-11.31324219 24.01707031 -11.31324219 24.01707031 -11.6328125 25.0546875 C-13.45928914 28.98944004 -16.0188741 31.88883009 -18.875 35.125 C-19.44565186 35.77863525 -20.01630371 36.43227051 -20.60424805 37.10571289 C-26.0054532 43.19200694 -31.85644362 48.67558447 -38 54 C-38.66 53.67 -39.32 53.34 -40 53 C-39.02160156 52.11699219 -38.04320312 51.23398437 -37.03515625 50.32421875 C-21.16197326 35.85811061 -8.27370998 19.94434967 0 0 Z " fill="#53DA99" transform="translate(305,234)"/>
<path d="M0 0 C0.33 0.66 0.66 1.32 1 2 C0.33532234 3.52966913 -0.41080422 5.02405024 -1.1875 6.5 C-3.69599452 11.6883343 -4.79191326 16.57686033 -5.8125 22.1875 C-7.24263709 29.75918159 -9.45115442 34.45395671 -16 39 C-16 35.30581799 -14.71820705 33.22163822 -13 30 C-12.34 30 -11.68 30 -11 30 C-11 29.34 -11 28.68 -11 28 C-10.34 28 -9.68 28 -9 28 C-9.04640625 27.00097656 -9.0928125 26.00195312 -9.140625 24.97265625 C-8.9929986 20.80221054 -8.11367459 17.33314349 -6.75 13.4375 C-6.54503906 12.80392578 -6.34007813 12.17035156 -6.12890625 11.51757812 C-4.63605671 7.12498145 -2.68542672 3.72402124 0 0 Z " fill="#4EDA9A" transform="translate(129,148)"/>
<path d="M0 0 C1.32 0 2.64 0 4 0 C4.495 1.98 4.495 1.98 5 4 C-8.57816352 7.63816822 -25.42183648 7.63816822 -39 4 C-39 3.67 -39 3.34 -39 3 C-37.88963379 3.01571045 -36.77926758 3.0314209 -35.63525391 3.04760742 C-31.52416205 3.10181869 -27.4131019 3.13631775 -23.30175781 3.16479492 C-21.52077933 3.17990173 -19.73983816 3.20038835 -17.95898438 3.22631836 C-15.40225022 3.26261943 -12.8460069 3.27970688 -10.2890625 3.29296875 C-9.49005524 3.30845261 -8.69104797 3.32393646 -7.86782837 3.33988953 C-5.38935852 3.37576435 -5.38935852 3.37576435 -2 3 C-1.34 2.01 -0.68 1.02 0 0 Z " fill="#56DB9B" transform="translate(197,267)"/>
<path d="M0 0 C0.66 0.33 1.32 0.66 2 1 C0.68 3.31 -0.64 5.62 -2 8 C-2.495 7.01 -2.495 7.01 -3 6 C-8.13186195 6.58346751 -12.75256104 7.76691704 -17.625 9.5 C-23.82743136 11.67956925 -29.20290368 13.14213369 -35.8125 13.0625 C-37.27623047 13.04896484 -37.27623047 13.04896484 -38.76953125 13.03515625 C-39.87361328 13.01775391 -39.87361328 13.01775391 -41 13 C-41 12.67 -41 12.34 -41 12 C-40.33097656 11.91363281 -39.66195312 11.82726562 -38.97265625 11.73828125 C-26.19873469 9.86934508 -13.95178597 6.20893606 -2.22265625 0.8203125 C-1.12244141 0.41425781 -1.12244141 0.41425781 0 0 Z " fill="#56DE9F" transform="translate(239,303)"/>
<path d="M0 0 C0.33 0.66 0.66 1.32 1 2 C-3.55067346 8.53642188 -8.1133675 14.61005211 -14 20 C-16 17 -16 17 -15.625 13.8125 C-15.41875 12.884375 -15.2125 11.95625 -15 11 C-13.02253397 10.26919734 -11.01927511 9.60578253 -9 9 C-8.34 9.33 -7.68 9.66 -7 10 C-6.67 8.68 -6.34 7.36 -6 6 C-5.34 6 -4.68 6 -4 6 C-2.61061923 4.03852126 -1.2739589 2.03833424 0 0 Z " fill="#48EC9C" transform="translate(259,227)"/>
<path d="M0 0 C0.66 0.33 1.32 0.66 2 1 C2.4140625 3.28515625 2.4140625 3.28515625 2.625 6.0625 C2.69976562 6.98160156 2.77453125 7.90070313 2.8515625 8.84765625 C2.92503906 9.91306641 2.92503906 9.91306641 3 11 C3.66 11 4.32 11 5 11 C5 9.68 5 8.36 5 7 C5.66 7 6.32 7 7 7 C8 10 8 10 7 13 C8.65 12.34 10.3 11.68 12 11 C10.35 12.98 8.7 14.96 7 17 C5.10546875 16.7265625 5.10546875 16.7265625 3 16 C0.693808 11.04595792 -0.55629212 6.43542156 -1 1 C-0.67 0.67 -0.34 0.34 0 0 Z " fill="#47EC9F" transform="translate(87,189)"/>
<path d="M0 0 C1 3 1 3 -0.44140625 6.2578125 C-1.13683017 7.5531738 -1.84459309 8.84196259 -2.5625 10.125 C-2.92730469 10.79281494 -3.29210937 11.46062988 -3.66796875 12.14868164 C-6.50914028 17.28402467 -9.58364083 22.22486161 -13 27 C-13.66 26.67 -14.32 26.34 -15 26 C-14.67 24.88625 -14.34 23.7725 -14 22.625 C-12.911357 19.30540283 -12.911357 19.30540283 -13 17 C-11.35 16.67 -9.7 16.34 -8 16 C-7.67 15.01 -7.34 14.02 -7 13 C-5.9997206 11.25757781 -4.9985434 9.51562494 -3.984375 7.78125 C-2.77681561 5.59614254 -1.89060608 3.32927743 -1 1 C-0.67 0.67 -0.34 0.34 0 0 Z " fill="#49EDA0" transform="translate(335,250)"/>
<path d="M0 0 C1.0828125 1.0209375 1.0828125 1.0209375 2.1875 2.0625 C4.80045174 4.33121453 4.80045174 4.33121453 7.625 3.625 C8.40875 3.41875 9.1925 3.2125 10 3 C10.99 3.66 11.98 4.32 13 5 C13 5.66 13 6.32 13 7 C14.64846769 6.55123384 16.29373455 6.09069512 17.9375 5.625 C19.31228516 5.24214844 19.31228516 5.24214844 20.71484375 4.8515625 C23.16745087 4.23339896 23.16745087 4.23339896 24 2 C24.99 2.33 25.98 2.66 27 3 C23.02709836 6.50550145 19.50323102 8.93681547 14.05078125 9.03515625 C9.12222604 8.65025956 5.86244523 7.21870436 2 4 C0.625 1.75 0.625 1.75 0 0 Z " fill="#52D79A" transform="translate(197,157)"/>
<path d="M0 0 C6.73432123 0.56384057 12.63458974 2.34558126 19 4.5625 C20.44826172 5.0565332 20.44826172 5.0565332 21.92578125 5.56054688 C24.28629806 6.36686202 26.64416717 7.18012163 29 8 C29 8.33 29 8.66 29 9 C25.7 9 22.4 9 19 9 C18.34 7.68 17.68 6.36 17 5 C15.11119601 4.70176779 13.21566787 4.42121874 11.30859375 4.28125 C7.36187792 3.80043183 3.71592153 2.36766556 0 1 C0 0.67 0 0.34 0 0 Z " fill="#54DB9B" transform="translate(215,12)"/>
<path d="M0 0 C5.445 1.485 5.445 1.485 11 3 C11.33 4.32 11.66 5.64 12 7 C10.56640625 8.921875 10.56640625 8.921875 8.5625 10.75 C7.90378906 11.36359375 7.24507812 11.9771875 6.56640625 12.609375 C6.04949219 13.06828125 5.53257812 13.5271875 5 14 C3.9453125 12.171875 3.9453125 12.171875 3 10 C3.875 7.25 3.875 7.25 5 5 C5.66 5.33 6.32 5.66 7 6 C6.67 6.99 6.34 7.98 6 9 C6.66 9 7.32 9 8 9 C8 7.35 8 5.7 8 4 C5.69 3.67 3.38 3.34 1 3 C0.67 2.01 0.34 1.02 0 0 Z " fill="#50E49E" transform="translate(195,86)"/>
<path d="M0 0 C4.35357978 4.35357978 3.1826056 13.4049556 3.1875 19.3125 C3.19974609 20.10978516 3.21199219 20.90707031 3.22460938 21.72851562 C3.2345502 25.66839641 3.23353688 27.64969468 1 31 C0.67 20.77 0.34 10.54 0 0 Z " fill="#4DD196" transform="translate(271,163)"/>
<path d="M0 0 C4.62644904 -0.04950925 9.25274318 -0.08577116 13.87939453 -0.10986328 C15.45266405 -0.11990887 17.02591496 -0.13354781 18.59912109 -0.15087891 C20.86300252 -0.17519096 23.12663666 -0.18649747 25.390625 -0.1953125 C26.09181458 -0.20563507 26.79300415 -0.21595764 27.51544189 -0.22659302 C31.18563476 -0.22743257 33.88089213 -0.02112595 37 2 C37 2.66 37 3.32 37 4 C36.36473389 3.94013916 35.72946777 3.88027832 35.07495117 3.81860352 C27.49286442 3.1154618 19.90522977 2.51302977 12.3125 1.9375 C11.12205078 1.84662109 9.93160156 1.75574219 8.70507812 1.66210938 C5.80343852 1.44069912 2.90174614 1.22000878 0 1 C0 0.67 0 0.34 0 0 Z " fill="#5FD7A3" transform="translate(173,42)"/>
<path d="M0 0 C4.00564839 4.13917 5.74477468 8.29051512 6 14 C5.31385627 16.93922564 4.30161748 19.24657842 3 22 C1.38834101 15.7309197 0.81903263 10.42971124 2 4 C1.34 4 0.68 4 0 4 C0 2.68 0 1.36 0 0 Z " fill="#48DE9C" transform="translate(161,198)"/>
<path d="M0 0 C0 0.33 0 0.66 0 1 C-1.71896484 1.48919922 -1.71896484 1.48919922 -3.47265625 1.98828125 C-5.00267223 2.4294515 -6.53261635 2.87087106 -8.0625 3.3125 C-8.81466797 3.52583984 -9.56683594 3.73917969 -10.34179688 3.95898438 C-13.97932801 5.01402587 -17.43003866 6.13985213 -20.87109375 7.73046875 C-24 9 -24 9 -27 8 C-26.67 7.01 -26.34 6.02 -26 5 C-25.39414063 4.89042969 -24.78828125 4.78085937 -24.1640625 4.66796875 C-19.59287308 3.80295906 -15.18262543 2.7964042 -10.75 1.375 C-7.04878354 0.21326171 -3.91403389 -0.30900268 0 0 Z " fill="#53D89A" transform="translate(150,46)"/>
<path d="M0 0 C0.33 0.99 0.66 1.98 1 3 C4.3 2.34 7.6 1.68 11 1 C8.1738742 3.8261258 7.10010438 4.5739659 3.5 5.75 C2.7265625 6.01296875 1.953125 6.2759375 1.15625 6.546875 C-1 7 -1 7 -4 6 C-3.67 4.35 -3.34 2.7 -3 1 C-2.01 0.67 -1.02 0.34 0 0 Z " fill="#45F29E" transform="translate(253,328)"/>
<path d="M0 0 C2.4375 0.8125 2.4375 0.8125 5 2 C5.33 2.99 5.66 3.98 6 5 C7.9812585 5.72045764 9.98504093 6.38001259 12 7 C14.8125 8.3125 14.8125 8.3125 17 10 C17.8125 12.6875 17.8125 12.6875 18 15 C14.35062536 13.39531044 11.51278072 11.14380135 8.4375 8.625 C7.48746094 7.85414063 6.53742188 7.08328125 5.55859375 6.2890625 C3.34137102 4.30540979 1.66153897 2.4503504 0 0 Z " fill="#57E0A0" transform="translate(61,303)"/>
<path d="M0 0 C-7 4 -14 8 -21 12 C-20.67 11.01 -20.34 10.02 -20 9 C-19.34 9 -18.68 9 -18 9 C-18 8.34 -18 7.68 -18 7 C-16.35 6.67 -14.7 6.34 -13 6 C-13 5.01 -13 4.02 -13 3 C-11.35 2.67 -9.7 2.34 -8 2 C-8 1.34 -8 0.68 -8 0 C-4.71303767 -0.79953138 -3.28976808 -1.09658936 0 0 Z " fill="#51E09F" transform="translate(119,58)"/>
<path d="M0 0 C2.33333333 0.33333333 4.66666667 0.66666667 7 1 C8.175625 1.144375 9.35125 1.28875 10.5625 1.4375 C13.88455308 1.98110869 16.84423523 2.84545191 20 4 C20 4.66 20 5.32 20 6 C22.97 6.495 22.97 6.495 26 7 C22.45265056 8.24881179 20.32383554 7.73522457 16.796875 6.56640625 C15.8171875 6.24736328 14.8375 5.92832031 13.828125 5.59960938 C12.81234375 5.25736328 11.7965625 4.91511719 10.75 4.5625 C9.203125 4.05493164 9.203125 4.05493164 7.625 3.53710938 C5.0801334 2.7006023 2.53882926 1.85462088 0 1 C0 0.67 0 0.34 0 0 Z " fill="#52DE9C" transform="translate(116,339)"/>
<path d="M0 0 C0.98120464 3.05263664 0.98120464 4.94736336 0 8 C-0.66 8 -1.32 8 -2 8 C-2.16873478 9.43725871 -2.33490737 10.87481838 -2.5 12.3125 C-2.5928125 13.11300781 -2.685625 13.91351563 -2.78125 14.73828125 C-3.04813463 17.11896555 -3.04813463 17.11896555 -3 20 C-5.375 21.75 -5.375 21.75 -8 23 C-8.66 22.67 -9.32 22.34 -10 22 C-9.4225 21.05125 -8.845 20.1025 -8.25 19.125 C-5.66337914 14.61217212 -3.85483867 9.84751954 -2 5 C-1.33573671 3.33237399 -0.66973114 1.66543761 0 0 Z " fill="#42F99F" transform="translate(305,234)"/>
<path d="M0 0 C1 2 1 2 0.47094727 3.87939453 C0.17244873 4.62302246 -0.1260498 5.36665039 -0.43359375 6.1328125 C-0.75263672 6.93847656 -1.07167969 7.74414062 -1.40039062 8.57421875 C-1.91375977 9.83685547 -1.91375977 9.83685547 -2.4375 11.125 C-2.77587891 11.97449219 -3.11425781 12.82398438 -3.46289062 13.69921875 C-4.30176957 15.80232371 -5.14771125 17.90230155 -6 20 C-6.33 20 -6.66 20 -7 20 C-7.78829088 9.01648035 -7.78829088 9.01648035 -4.625 4.9375 C-3.75875 4.298125 -2.8925 3.65875 -2 3 C-1.34 2.01 -0.68 1.02 0 0 Z " fill="#4BE09C" transform="translate(56,119)"/>
<path d="M0 0 C0.66 0 1.32 0 2 0 C2 0.66 2 1.32 2 2 C3.65 1.34 5.3 0.68 7 0 C5.23570801 4.97209562 2.6060834 9.43438061 0 14 C-0.89456246 10.86245371 -0.8663835 9.14064018 0 6 C-0.33 5.67 -0.66 5.34 -1 5 C-1 2 -1 2 0 0 Z " fill="#4CEA9F" transform="translate(58,105)"/>
<path d="M0 0 C0.66 0.33 1.32 0.66 2 1 C-1.63 4.63 -5.26 8.26 -9 12 C-9.66 10.68 -10.32 9.36 -11 8 C-9.68 7.67 -8.36 7.34 -7 7 C-6.67 5.68 -6.34 4.36 -6 3 C-5.34 3 -4.68 3 -4 3 C-3.67 2.34 -3.34 1.68 -3 1 C-2.01 0.67 -1.02 0.34 0 0 Z " fill="#4DE49D" transform="translate(157,224)"/>
<path d="M0 0 C-16.70842825 8.81548975 -16.70842825 8.81548975 -25 10 C-22.55213773 7.55213773 -20.25682658 6.69919356 -17.0625 5.375 C-15.47115234 4.70597656 -15.47115234 4.70597656 -13.84765625 4.0234375 C-11 3 -11 3 -8 3 C-7.67 2.01 -7.34 1.02 -7 0 C-4.05610218 -1.17755913 -3.10046087 -1.03348696 0 0 Z " fill="#53D998" transform="translate(229,260)"/>
<path d="M0 0 C6.57118999 -0.46751549 10.76812709 -0.4844625 16 4 C18.375 6.125 18.375 6.125 20 8 C20 8.66 20 9.32 20 10 C19.34 10 18.68 10 18 10 C17.2575 9.21625 16.515 8.4325 15.75 7.625 C12.85173338 4.85847277 10.830469 3.97988742 7 3 C7 2.67 7 2.34 7 2 C4.69 1.67 2.38 1.34 0 1 C0 0.67 0 0.34 0 0 Z " fill="#52E29C" transform="translate(250,88)"/>
<path d="M0 0 C-3.16474305 3.25516428 -6.32752791 6.32008793 -10 9 C-10.66 9 -11.32 9 -12 9 C-12 8.34 -12 7.68 -12 7 C-11.34 6.67 -10.68 6.34 -10 6 C-9.71125 5.195625 -9.4225 4.39125 -9.125 3.5625 C-8 1 -8 1 -6.125 -0.375 C-3.6665651 -1.09806909 -2.38500154 -0.85178626 0 0 Z " fill="#4CE89E" transform="translate(241,250)"/>
<path d="M0 0 C0.99 0.99 1.98 1.98 3 3 C-2.20499434 8.64910648 -7.33742742 10.61276433 -15 11 C-17.33203125 10.53515625 -17.33203125 10.53515625 -19 10 C-14.52058201 8.04178449 -10.23245237 7.2909806 -5.42578125 6.5625 C-2.83424639 6.18698058 -2.83424639 6.18698058 -1 4 C-0.3574765 1.93125966 -0.3574765 1.93125966 0 0 Z " fill="#5ECD98" transform="translate(182,112)"/>
<path d="M0 0 C1.86830885 6.30554236 0.72428835 10.21088726 -2 16 C-2.66 16 -3.32 16 -4 16 C-3.6083965 10.04492601 -2.62875405 5.37180176 0 0 Z " fill="#4BE79D" transform="translate(95,138)"/>
<path d="M0 0 C2.60009655 4.44435109 2.24482203 8.10776239 1 13 C-1.0625 16.0625 -1.0625 16.0625 -3 18 C-2.83628906 17.47921875 -2.67257812 16.9584375 -2.50390625 16.421875 C-1.85941341 13.3243125 -1.90588411 10.41158906 -1.9375 7.25 C-1.94652344 6.07953125 -1.95554687 4.9090625 -1.96484375 3.703125 C-1.97644531 2.81109375 -1.98804688 1.9190625 -2 1 C-1.34 0.67 -0.68 0.34 0 0 Z " fill="#55E19F" transform="translate(270,99)"/>
<path d="M0 0 C3.16115776 1.36983503 3.9927092 1.9890638 6 5 C8.05003955 6.19232613 8.05003955 6.19232613 10 7 C10 7.66 10 8.32 10 9 C10.99 8.67 11.98 8.34 13 8 C13 9.32 13 10.64 13 12 C12.34 12 11.68 12 11 12 C11 11.34 11 10.68 11 10 C10.42765625 9.73445313 9.8553125 9.46890625 9.265625 9.1953125 C6.8923988 7.94323109 4.87786714 6.5063648 2.75 4.875 C2.04359375 4.33617188 1.3371875 3.79734375 0.609375 3.2421875 C0.07828125 2.83226563 -0.4528125 2.42234375 -1 2 C-0.67 1.34 -0.34 0.68 0 0 Z " fill="#55ECA1" transform="translate(258,65)"/>
<path d="M0 0 C1.05711427 3.19957435 0.95184778 4.96645088 -0.21484375 8.109375 C-0.48876953 8.86347656 -0.76269531 9.61757812 -1.04492188 10.39453125 C-1.48674805 11.56048828 -1.48674805 11.56048828 -1.9375 12.75 C-2.22818359 13.54277344 -2.51886719 14.33554688 -2.81835938 15.15234375 C-3.53594814 17.10512629 -4.26670906 19.05305941 -5 21 C-5.33 21 -5.66 21 -6 21 C-6 18.36 -6 15.72 -6 13 C-5.34 13 -4.68 13 -4 13 C-3.87882812 12.39671875 -3.75765625 11.7934375 -3.6328125 11.171875 C-3.46523438 10.37265625 -3.29765625 9.5734375 -3.125 8.75 C-2.88136719 7.56664062 -2.88136719 7.56664062 -2.6328125 6.359375 C-2.00849925 4.03168856 -1.15161458 2.10968048 0 0 Z " fill="#53DE9B" transform="translate(345,223)"/>
<path d="M0 0 C0.66 0.33 1.32 0.66 2 1 C0.69118353 2.66956087 -0.62214826 4.33558304 -1.9375 6 C-2.66839844 6.928125 -3.39929688 7.85625 -4.15234375 8.8125 C-4.76207031 9.534375 -5.37179688 10.25625 -6 11 C-6.33 11 -6.66 11 -7 11 C-7.36585366 5.51219512 -7.36585366 5.51219512 -5.75 3.25 C-3.87310069 1.90935764 -2.15460248 0.83403967 0 0 Z " fill="#4EE6A0" transform="translate(137,137)"/>
<path d="M0 0 C-0.92652701 1.17539996 -1.86663387 2.34010577 -2.8125 3.5 C-3.33457031 4.1496875 -3.85664062 4.799375 -4.39453125 5.46875 C-6 7 -6 7 -9 7 C-8.02086745 1.32103121 -5.73500486 -0.46500039 0 0 Z " fill="#4AE89E" transform="translate(124,259)"/>
<path d="M0 0 C0.66 0.33 1.32 0.66 2 1 C-1.96 4.96 -5.92 8.92 -10 13 C-10.33 11.68 -10.66 10.36 -11 9 C-9.68 8.67 -8.36 8.34 -7 8 C-7 7.01 -7 6.02 -7 5 C-4.625 3.4375 -4.625 3.4375 -2 2 C-1.34 1.34 -0.68 0.68 0 0 Z " fill="#51DD9B" transform="translate(142,239)"/>
<path d="M0 0 C1 3 1 3 -0.65234375 6.57421875 C-1.40387723 7.95092168 -2.1660567 9.32185409 -2.9375 10.6875 C-3.51661133 11.7403418 -3.51661133 11.7403418 -4.10742188 12.81445312 C-5.06261773 14.54795672 -6.03015386 16.27465009 -7 18 C-7.33 18 -7.66 18 -8 18 C-8.38347912 14.64455768 -8.27514436 13.36053398 -6.1875 10.625 C-5.465625 9.75875 -4.74375 8.8925 -4 8 C-2.87769661 5.70659741 -1.95716197 3.37011535 -1 1 C-0.67 0.67 -0.34 0.34 0 0 Z " fill="#56DB9C" transform="translate(335,250)"/>
<path d="M0 0 C-0.8125 2.4375 -0.8125 2.4375 -2 5 C-2.99 5.33 -3.98 5.66 -5 6 C-5.33 5.34 -5.66 4.68 -6 4 C-5.67 3.34 -5.34 2.68 -5 2 C-7.31 2.33 -9.62 2.66 -12 3 C-11 1 -11 1 -9.2578125 0.33203125 C-8.55398437 0.16058594 -7.85015625 -0.01085937 -7.125 -0.1875 C-6.42632812 -0.36667969 -5.72765625 -0.54585937 -5.0078125 -0.73046875 C-3 -1 -3 -1 0 0 Z " fill="#45F29C" transform="translate(113,25)"/>
<path d="M0 0 C0.33 0 0.66 0 1 0 C1.49914707 6.73848545 0.19940966 12.0098644 -3 18 C-3.66 18.33 -4.32 18.66 -5 19 C-4.23915412 14.81134319 -3.12177302 10.77515205 -1.9375 6.6875 C-1.57527344 5.43324219 -1.21304687 4.17898437 -0.83984375 2.88671875 C-0.42412109 1.45779297 -0.42412109 1.45779297 0 0 Z " fill="#54DB98" transform="translate(313,210)"/>
<path d="M0 0 C0.33 0.99 0.66 1.98 1 3 C1.66 3.66 2.32 4.32 3 5 C2.113125 5.391875 1.22625 5.78375 0.3125 6.1875 C-3.12129608 8.06636955 -5.36541769 10.13295455 -8 13 C-6.40956621 7.91061189 -3.2553049 4.12543357 0 0 Z " fill="#4DE29D" transform="translate(44,74)"/>
<path d="M0 0 C-5.445 4.455 -5.445 4.455 -11 9 C-11.66 8.01 -12.32 7.02 -13 6 C-11.02 5.34 -9.04 4.68 -7 4 C-7 2.68 -7 1.36 -7 0 C-2.25 -1.125 -2.25 -1.125 0 0 Z " fill="#50DE9F" transform="translate(98,71)"/>
<path d="M0 0 C-1.32 2.31 -2.64 4.62 -4 7 C-4.33 6.34 -4.66 5.68 -5 5 C-5.99 4.67 -6.98 4.34 -8 4 C-7 1 -7 1 -4.5625 -0.25 C-2 -1 -2 -1 0 0 Z " fill="#4EF0A2" transform="translate(241,304)"/>
<path d="M0 0 C2.64 0 5.28 0 8 0 C8 0.66 8 1.32 8 2 C10.97 2.495 10.97 2.495 14 3 C14 3.66 14 4.32 14 5 C9.15311808 4.21824485 4.6233633 2.60155722 0 1 C0 0.67 0 0.34 0 0 Z " fill="#51E4A0" transform="translate(221,49)"/>
<path d="M0 0 C2.16099373 2.16099373 2.71563716 3.5210418 3.6875 6.375 C3.95949219 7.14585938 4.23148437 7.91671875 4.51171875 8.7109375 C5.04278009 11.20055308 4.81115526 12.61553018 4 15 C3.67 13.35 3.34 11.7 3 10 C2.34 10 1.68 10 1 10 C0.67 6.7 0.34 3.4 0 0 Z " fill="#51D898" transform="translate(340,119)"/>
<path d="M0 0 C2.96659857 3.55991828 5.381348 7.65222543 7 12 C6.67 12.66 6.34 13.32 6 14 C2.15870308 9.17375515 0.37742233 6.16456476 0 0 Z " fill="#51D99C" transform="translate(331,99)"/>
<path d="M0 0 C0.99 0 1.98 0 3 0 C3 0.66 3 1.32 3 2 C4.32 2.33 5.64 2.66 7 3 C7 4.65 7 6.3 7 8 C1.125 3.375 1.125 3.375 0 0 Z " fill="#4FEB9F" transform="translate(48,289)"/>
<path d="M0 0 C1.0828125 1.0209375 1.0828125 1.0209375 2.1875 2.0625 C4.80045174 4.33121453 4.80045174 4.33121453 7.625 3.625 C8.40875 3.41875 9.1925 3.2125 10 3 C10.99 3.66 11.98 4.32 13 5 C13 5.66 13 6.32 13 7 C4.86265342 6.65225015 4.86265342 6.65225015 1.4375 4.0625 C0 2 0 2 0 0 Z " fill="#4BE79D" transform="translate(197,157)"/>
<path d="M0 0 C4.875 2.625 4.875 2.625 6 6 C5.38125 5.814375 4.7625 5.62875 4.125 5.4375 C1.95839822 4.76313824 1.95839822 4.76313824 0 6 C-0.38218767 4.34385343 -0.71395102 2.67542976 -1 1 C-0.67 0.67 -0.34 0.34 0 0 Z " fill="#47EF9F" transform="translate(297,55)"/>
<path d="M0 0 C2.60608273 2.5162178 4.89381685 5.05134359 7 8 C6.67 8.66 6.34 9.32 6 10 C3 8.375 3 8.375 0 6 C-0.375 2.75 -0.375 2.75 0 0 Z " fill="#54E49D" transform="translate(65,255)"/>
<path d="M0 0 C0.66 0.33 1.32 0.66 2 1 C2.4140625 3.72265625 2.4140625 3.72265625 2.625 7.0625 C2.69976562 8.16722656 2.77453125 9.27195313 2.8515625 10.41015625 C2.90054688 11.26480469 2.94953125 12.11945313 3 13 C1.12396022 10.18594033 0.50907198 8.59075334 -0.1875 5.375 C-0.36667969 4.57835937 -0.54585938 3.78171875 -0.73046875 2.9609375 C-0.81941406 2.31382812 -0.90835938 1.66671875 -1 1 C-0.67 0.67 -0.34 0.34 0 0 Z " fill="#54E09B" transform="translate(87,189)"/>
<path d="M0 0 C2 0 2 0 3.47265625 1.35546875 C8.72144401 7.40382614 8.72144401 7.40382614 9 12 C5.45340661 8.71611723 2.60087007 5.06119467 0 1 C0 0.67 0 0.34 0 0 Z " fill="#5BE4A3" transform="translate(284,90)"/>
<path d="M0 0 C1.13199353 0.9080162 2.25532363 1.82683826 3.375 2.75 C4.00148438 3.26046875 4.62796875 3.7709375 5.2734375 4.296875 C7.08312318 6.08199481 8.00117455 7.67949644 9 10 C5.5625 8.75 5.5625 8.75 2 7 C1.125 5 1.125 5 1 3 C0.67 2.01 0.34 1.02 0 0 Z " fill="#4DE2A2" transform="translate(303,61)"/>
<path d="M0 0 C3.39417765 3.12621626 5.6062718 5.56541027 7 10 C5.68 9.34 4.36 8.68 3 8 C3 7.01 3 6.02 3 5 C2.01 4.67 1.02 4.34 0 4 C0 2.68 0 1.36 0 0 Z " fill="#56DF9B" transform="translate(316,76)"/>
<path d="M0 0 C1.62580966 0.11398665 3.25067157 0.24155659 4.875 0.375 C5.77992188 0.44460937 6.68484375 0.51421875 7.6171875 0.5859375 C10 1 10 1 12 3 C10.37581255 3.08090971 8.75048255 3.13914995 7.125 3.1875 C5.76761719 3.23970703 5.76761719 3.23970703 4.3828125 3.29296875 C3.20332031 3.14794922 3.20332031 3.14794922 2 3 C1.34 2.01 0.68 1.02 0 0 Z " fill="#4BEE9F" transform="translate(232,18)"/>
<path d="M0 0 C2.875 0.625 2.875 0.625 6 2 C7.375 5.125 7.375 5.125 8 8 C3.79373966 6.49776416 2.26099979 3.71449966 0 0 Z " fill="#4BEBA2" transform="translate(71,310)"/>
<path d="M0 0 C0.66 0 1.32 0 2 0 C2.33 1.65 2.66 3.3 3 5 C1.68 5.99 0.36 6.98 -1 8 C-1.04241723 5.66705225 -1.04092937 3.33297433 -1 1 C-0.67 0.67 -0.34 0.34 0 0 Z " fill="#47EF9C" transform="translate(305,290)"/>
<path d="M0 0 C0.87840996 3.09720845 0.99435406 4.90645403 0 8 C-0.66 8 -1.32 8 -2 8 C-2.66 9.65 -3.32 11.3 -4 13 C-4.33 12.34 -4.66 11.68 -5 11 C-4.00390625 8.3984375 -4.00390625 8.3984375 -2.5625 5.375 C-2.08941406 4.37210938 -1.61632812 3.36921875 -1.12890625 2.3359375 C-0.75636719 1.56507813 -0.38382812 0.79421875 0 0 Z " fill="#53DA9A" transform="translate(305,234)"/>
<path d="M0 0 C3.3 0.33 6.6 0.66 10 1 C10 1.33 10 1.66 10 2 C8.9275 2.12375 7.855 2.2475 6.75 2.375 C3.15316971 2.7855624 3.15316971 2.7855624 0.75 4.125 C0.1725 4.41375 -0.405 4.7025 -1 5 C-1.99 4.67 -2.98 4.34 -4 4 C-3.34 3.525625 -2.68 3.05125 -2 2.5625 C-1.34 2.046875 -0.68 1.53125 0 1 C0 0.67 0 0.34 0 0 Z " fill="#3CF6A4" transform="translate(248,88)"/>
<path d="M0 0 C2.49361571 1.20381448 4.68143083 2.45428722 7 4 C7 4.99 7 5.98 7 7 C6.34 7 5.68 7 5 7 C4.67 6.34 4.34 5.68 4 5 C2.35636866 4.27840576 0.68949614 3.60648579 -1 3 C-0.67 2.01 -0.34 1.02 0 0 Z " fill="#53E79F" transform="translate(284,44)"/>
<path d="M0 0 C1.32 0.66 2.64 1.32 4 2 C3.67 2.99 3.34 3.98 3 5 C-0.3 5 -3.6 5 -7 5 C-7 4.67 -7 4.34 -7 4 C-4.69 4 -2.38 4 0 4 C-0.33 3.01 -0.66 2.02 -1 1 C-0.67 0.67 -0.34 0.34 0 0 Z " fill="#47F8A2" transform="translate(195,345)"/>
<path d="M0 0 C1.32 0 2.64 0 4 0 C4.33 1.32 4.66 2.64 5 4 C2.69 4 0.38 4 -2 4 C-1.34 2.68 -0.68 1.36 0 0 Z " fill="#49EE9F" transform="translate(197,267)"/>
<path d="M0 0 C0.66 0 1.32 0 2 0 C0.68938409 4.23429756 -0.94356259 8.07407404 -3 12 C-3.88336837 9.5332355 -4.1312406 8.36140628 -3.22265625 5.859375 C-2.83980469 5.16328125 -2.45695312 4.4671875 -2.0625 3.75 C-1.68222656 3.04359375 -1.30195313 2.3371875 -0.91015625 1.609375 C-0.60980469 1.07828125 -0.30945313 0.5471875 0 0 Z " fill="#50D396" transform="translate(265,214)"/>
<path d="M0 0 C2.125 0.375 2.125 0.375 4 1 C2.35 2.65 0.7 4.3 -1 6 C-1.625 4.125 -1.625 4.125 -2 2 C-1.34 1.34 -0.68 0.68 0 0 Z " fill="#48EB9E" transform="translate(100,194)"/>
<path d="M0 0 C2.97 0.495 2.97 0.495 6 1 C6 1.66 6 2.32 6 3 C7.32 3.33 8.64 3.66 10 4 C10 4.66 10 5.32 10 6 C6.40992874 4.66654496 3.20429093 3.1056769 0 1 C0 0.67 0 0.34 0 0 Z " fill="#58E1A2" transform="translate(247,60)"/>
<path d="M0 0 C0 0.66 0 1.32 0 2 C-5.75 2.125 -5.75 2.125 -8 1 C-8 0.34 -8 -0.32 -8 -1 C-4.37673261 -2.2077558 -3.35853631 -1.54311128 0 0 Z " fill="#4EE9A5" transform="translate(210,44)"/>
<path d="M0 0 C0.99 0.99 1.98 1.98 3 3 C-1.30769231 7.92307692 -1.30769231 7.92307692 -4.8125 8.3125 C-5.534375 8.209375 -6.25625 8.10625 -7 8 C-6.38125 7.71125 -5.7625 7.4225 -5.125 7.125 C-2.86674235 6.06279958 -2.86674235 6.06279958 -1 4 C-0.3574765 1.93125966 -0.3574765 1.93125966 0 0 Z " fill="#4DDB99" transform="translate(182,112)"/>
<path d="M0 0 C-5.75 4 -5.75 4 -8 4 C-8 3.01 -8 2.02 -8 1 C-2.25 -1.125 -2.25 -1.125 0 0 Z " fill="#50E39F" transform="translate(272,325)"/>
<path d="M0 0 C0.99 0 1.98 0 3 0 C3 0.66 3 1.32 3 2 C3.66 2 4.32 2 5 2 C5.33 3.65 5.66 5.3 6 7 C1.125 3.375 1.125 3.375 0 0 Z " fill="#51E69D" transform="translate(40,279)"/>
<path d="M0 0 C1.98 0 3.96 0 6 0 C4.35 1.65 2.7 3.3 1 5 C0 1.125 0 1.125 0 0 Z " fill="#52E79E" transform="translate(139,132)"/>
<path d="M0 0 C0.33 0.66 0.66 1.32 1 2 C0.22265625 3.9453125 0.22265625 3.9453125 -0.9375 6.125 C-1.31777344 6.84945312 -1.69804688 7.57390625 -2.08984375 8.3203125 C-2.39019531 8.87460938 -2.69054687 9.42890625 -3 10 C-3.66 10 -4.32 10 -5 10 C-3.66511872 6.40608886 -2.03977277 3.24509304 0 0 Z " fill="#54DC98" transform="translate(101,128)"/>
<path d="M0 0 C0.33 0.66 0.66 1.32 1 2 C1.99 2.33 2.98 2.66 4 3 C4.33 4.98 4.66 6.96 5 9 C1.7457985 6.16569547 0.4793247 4.31392226 0 0 Z " fill="#40FAA4" transform="translate(35,267)"/>
<path d="M0 0 C0.33 0 0.66 0 1 0 C1.66 2.64 2.32 5.28 3 8 C2.01 8.495 2.01 8.495 1 9 C1 8.34 1 7.68 1 7 C0.34 7 -0.32 7 -1 7 C-0.67 4.69 -0.34 2.38 0 0 Z " fill="#48EC9F" transform="translate(307,229)"/>
</svg>
