<?xml version="1.0" encoding="UTF-8"?>
<svg version="1.1" xmlns="http://www.w3.org/2000/svg" width="128" height="128">
<path d="M0 0 C13.4049791 10.08466889 22.8895283 24.50756459 25.4140625 41.22265625 C27.18485288 61.98721061 23.29842818 79.57058598 9.65625 95.8125 C-1.52088628 107.82694788 -16.23240541 115.81854174 -32.78515625 116.55859375 C-53.04635469 116.8915543 -69.39297325 112.35679155 -84.5859375 98.22265625 C-98.11616884 84.40360224 -103.01172963 68.53868692 -102.95166016 49.61206055 C-102.62380549 31.62065989 -94.95829184 16.37822505 -82.15625 3.84375 C-58.82102307 -16.61785106 -25.26462465 -17.36465894 0 0 Z " fill="#091D1B" transform="translate(102.5859375,11.77734375)"/>
<path d="M0 0 C5.91687191 1.93203981 8.8731179 5.84712033 12 11 C14.55472919 16.11936044 15.67238685 21.29567684 16 27 C16.06445312 27.969375 16.12890625 28.93875 16.1953125 29.9375 C16.58182107 40.65667089 14.63458856 51.07977449 7.56640625 59.4765625 C4.19186764 62.75853272 1.13843508 63.81371062 -3.4375 64.5625 C-8.43079932 63.77408432 -10.79219725 61.83803332 -14 58 C-17.0087718 53.42276095 -19.77630702 48.70597768 -22.03515625 43.7109375 C-22.94245161 41.71866604 -22.94245161 41.71866604 -25.625 40.75 C-29.5515166 39.87744076 -33.01364104 39.23955 -37 40 C-41.61142408 42.95131141 -44.42168662 46.65182747 -47.5078125 51.1328125 C-49.97826329 54.22410956 -52.01438352 55.83223549 -55.9375 56.5 C-60.16220396 55.81025241 -61.40310447 54.36894555 -64 51 C-68.98717023 40.92219129 -69.54314539 28.64798665 -66 18 C-63.875 14.875 -63.875 14.875 -61 13 C-56.93677611 12.27910544 -54.64805009 12.00437386 -51.10546875 14.14453125 C-48.16109784 16.57572204 -45.70715825 19.28588034 -43.3125 22.25 C-40.07865553 26.09565288 -38.53694253 26.86027795 -33.5625 27.3125 C-28.68300154 26.88447382 -26.29953509 25.48632658 -23.09765625 21.82421875 C-20.37313838 18.15601312 -18.27558653 14.21594442 -16.17578125 10.171875 C-12.49874005 3.4330744 -8.25024218 -1.17860603 0 0 Z " fill="#6BD7AF" transform="translate(88,32)"/>
</svg>
