<?xml version="1.0" encoding="UTF-8"?>
<svg version="1.1" xmlns="http://www.w3.org/2000/svg" width="171" height="171">
<path d="M0 0 C3.9429464 1.46596725 5.01834588 3.37308275 6.75 7.125 C7.17796875 8.03507812 7.6059375 8.94515625 8.046875 9.8828125 C8.36140625 10.58148438 8.6759375 11.28015625 9 12 C5.21179916 14.00661684 1.41888948 16.0041624 -2.375 18 C-3.99535156 18.85851563 -3.99535156 18.85851563 -5.6484375 19.734375 C-6.6796875 20.27578125 -7.7109375 20.8171875 -8.7734375 21.375 C-9.72653809 21.87773438 -10.67963867 22.38046875 -11.66162109 22.8984375 C-14 24 -14 24 -16 24 C-15.67 24.763125 -15.34 25.52625 -15 26.3125 C-14 29 -14 29 -14 32 C-13.22285645 31.72736328 -12.44571289 31.45472656 -11.64501953 31.17382812 C-8.13945849 29.94601599 -4.63225993 28.72295032 -1.125 27.5 C0.09832031 27.07074219 1.32164062 26.64148438 2.58203125 26.19921875 C3.74863281 25.79316406 4.91523438 25.38710938 6.1171875 24.96875 C7.19597168 24.59169922 8.27475586 24.21464844 9.38623047 23.82617188 C12 23 12 23 14 23 C14.50471197 24.76949612 15.00360685 26.54065223 15.5 28.3125 C15.7784375 29.29863281 16.056875 30.28476563 16.34375 31.30078125 C17 34 17 34 17 37 C10.34141024 38.57074425 3.71392842 39.70072723 -3.0625 40.625 C-4.50399414 40.82609375 -4.50399414 40.82609375 -5.97460938 41.03125 C-8.31597687 41.35741065 -10.65774764 41.68026702 -13 42 C-13.495 39.525 -13.495 39.525 -14 37 C-14.6705542 37.18175781 -15.3411084 37.36351562 -16.03198242 37.55078125 C-19.08212147 38.37364626 -22.13474191 39.18690786 -25.1875 40 C-26.24259766 40.28617188 -27.29769531 40.57234375 -28.38476562 40.8671875 C-29.40634766 41.13789062 -30.42792969 41.40859375 -31.48046875 41.6875 C-32.88655396 42.06455078 -32.88655396 42.06455078 -34.32104492 42.44921875 C-36.96253273 42.9922969 -39.31217316 43.1023122 -42 43 C-42.99 39.535 -42.99 39.535 -44 36 C-36.60730761 30.83684976 -28.85711302 26.40355979 -21 22 C-21.66 20.35 -22.32 18.7 -23 17 C-15.61673273 10.88338806 -7.93040253 5.36980234 0 0 Z " fill="#3F8582" transform="translate(153,35)"/>
<path d="M0 0 C3 5.75 3 5.75 3 8 C-8.385 14.435 -8.385 14.435 -20 21 C-19.505 23.97 -19.505 23.97 -19 27 C-26.38326727 33.11661194 -34.06959747 38.63019766 -42 44 C-45.60541233 40.56122437 -47.71817694 37.40065877 -50 33 C-50 32.34 -50 31.68 -50 31 C-42.08 27.04 -34.16 23.08 -26 19 C-26.66 17.02 -27.32 15.04 -28 13 C-34.49483812 14.25338981 -40.57611297 16.12177532 -46.76977539 18.41088867 C-50.18262933 19.61843186 -52.56372161 20.42817616 -56 19 C-57.23324723 14.45240084 -58.05466946 10.71865769 -58 6 C-54.10529437 5.32663096 -50.20907067 4.66248416 -46.3125 4 C-45.20970703 3.80921875 -44.10691406 3.6184375 -42.97070312 3.421875 C-41.90400391 3.24140625 -40.83730469 3.0609375 -39.73828125 2.875 C-38.75899658 2.70742187 -37.77971191 2.53984375 -36.77075195 2.3671875 C-34.14088643 2.01867065 -31.64876878 1.93235387 -29 2 C-28.67 3.65 -28.34 5.3 -28 7 C-27.22285645 6.78794922 -26.44571289 6.57589844 -25.64501953 6.35742188 C-22.13904924 5.4023454 -18.63204422 4.45112508 -15.125 3.5 C-13.90167969 3.16613281 -12.67835937 2.83226563 -11.41796875 2.48828125 C-10.25136719 2.17246094 -9.08476563 1.85664062 -7.8828125 1.53125 C-6.80402832 1.23798828 -5.72524414 0.94472656 -4.61376953 0.64257812 C-2 0 -2 0 0 0 Z " fill="#3F8582" transform="translate(59,92)"/>
<path d="M0 0 C1.44213867 2.00952148 1.44213867 2.00952148 2.91796875 4.62109375 C3.44970703 5.55630859 3.98144531 6.49152344 4.52929688 7.45507812 C5.07650391 8.43927734 5.62371094 9.42347656 6.1875 10.4375 C6.74630859 11.41783203 7.30511719 12.39816406 7.88085938 13.40820312 C12 20.71603136 12 20.71603136 12 23 C13.98 22.01 15.96 21.02 18 20 C18.40839111 20.55461914 18.81678223 21.10923828 19.23754883 21.68066406 C21.09568513 24.20390921 22.95408989 26.72695651 24.8125 29.25 C25.45509766 30.12269531 26.09769531 30.99539062 26.75976562 31.89453125 C27.38173828 32.73886719 28.00371094 33.58320313 28.64453125 34.453125 C29.21534424 35.22817383 29.78615723 36.00322266 30.37426758 36.80175781 C31.45974286 38.26948862 32.59377733 39.7024879 33.7722168 41.09667969 C34.17738525 41.72477539 34.58255371 42.35287109 35 43 C33.67708855 46.96873434 32.08850262 47.29905037 28.4375 49.1875 C27.42558594 49.71730469 26.41367188 50.24710938 25.37109375 50.79296875 C24.58863281 51.19128906 23.80617187 51.58960938 23 52 C22.71278076 51.45061768 22.42556152 50.90123535 22.12963867 50.33520508 C20.81713603 47.82682556 19.50233934 45.3196554 18.1875 42.8125 C17.73568359 41.94818359 17.28386719 41.08386719 16.81835938 40.19335938 C14.64861867 36.05976577 12.47075119 31.96469377 10 28 C7.69 28.33 5.38 28.66 3 29 C3.24234375 29.74161377 3.4846875 30.48322754 3.734375 31.24731445 C4.82745543 34.60091674 5.91380219 37.95666252 7 41.3125 C7.3815625 42.47974609 7.763125 43.64699219 8.15625 44.84960938 C8.5171875 45.96787109 8.878125 47.08613281 9.25 48.23828125 C9.58515625 49.26993408 9.9203125 50.30158691 10.265625 51.36450195 C11 54 11 54 11 57 C9.23050388 57.50471197 7.45934777 58.00360685 5.6875 58.5 C4.70136719 58.7784375 3.71523437 59.056875 2.69921875 59.34375 C0 60 0 60 -3 60 C-3.67310593 55.9385397 -4.33735482 51.87567904 -5 47.8125 C-5.19078125 46.66201172 -5.3815625 45.51152344 -5.578125 44.32617188 C-5.75859375 43.21435547 -5.9390625 42.10253906 -6.125 40.95703125 C-6.29257813 39.93585205 -6.46015625 38.91467285 -6.6328125 37.86254883 C-6.97414707 35.20154628 -7.06884702 32.67857932 -7 30 C-5.68 29.67 -4.36 29.34 -3 29 C-4.16928866 21.46116525 -5.98261785 14.26902725 -8.1953125 6.96875 C-9 4 -9 4 -9 1 C-3.375 -1.125 -3.375 -1.125 0 0 Z " fill="#3F8582" transform="translate(101,110)"/>
<path d="M0 0 C1.95807275 6.07002553 2.81957717 12.12150566 3.625 18.4375 C3.82609375 19.96407227 3.82609375 19.96407227 4.03125 21.52148438 C4.35887154 24.01374822 4.6816584 26.50653678 5 29 C3.35 29.66 1.7 30.32 0 31 C2.31 39.91 4.62 48.82 7 58 C4.36 58.99 1.72 59.98 -1 61 C-3.17373046 57.3791912 -5.33777229 53.75268765 -7.5 50.125 C-8.12003906 49.09246094 -8.74007812 48.05992188 -9.37890625 46.99609375 C-9.96542969 46.00996094 -10.55195312 45.02382813 -11.15625 44.0078125 C-11.70087891 43.09660645 -12.24550781 42.18540039 -12.80664062 41.24658203 C-14 39 -14 39 -14 37 C-14.8971875 37.495 -14.8971875 37.495 -15.8125 38 C-18 39 -18 39 -21 39 C-22.74032871 36.8672736 -24.2815143 34.77571942 -25.8125 32.5 C-26.7008877 31.21159422 -27.59020705 29.92383034 -28.48046875 28.63671875 C-29.12508057 27.69771729 -29.12508057 27.69771729 -29.78271484 26.73974609 C-31.75458661 23.92154348 -33.88671709 21.23229445 -36.0390625 18.55078125 C-37 17 -37 17 -37 14 C-34.91796875 12.359375 -34.91796875 12.359375 -32.1875 10.75 C-31.29417969 10.20859375 -30.40085937 9.6671875 -29.48046875 9.109375 C-27 8 -27 8 -24 9 C-22.7890625 10.90185547 -22.7890625 10.90185547 -21.625 13.3671875 C-21.19703125 14.25277344 -20.7690625 15.13835938 -20.328125 16.05078125 C-19.67070313 17.44876953 -19.67070313 17.44876953 -19 18.875 C-18.13060619 20.70839812 -17.25580799 22.53924561 -16.375 24.3671875 C-15.99085937 25.18300293 -15.60671875 25.99881836 -15.2109375 26.83935547 C-14.02256421 28.95973925 -12.80159217 30.38650759 -11 32 C-9.35 31.34 -7.7 30.68 -6 30 C-8.37028851 20.90425874 -11.15698081 11.95607231 -14 3 C-4.58997722 -0.44419134 -4.58997722 -0.44419134 0 0 Z " fill="#3F8582" transform="translate(72,1)"/>
<path d="M0 0 C3.66060821 0.58536753 5.54535164 2.083239 8.25 4.5625 C8.95640625 5.20316406 9.6628125 5.84382813 10.390625 6.50390625 C10.92171875 6.99761719 11.4528125 7.49132812 12 8 C10.56741228 11.27196452 8.81174684 13.43203956 6.28466797 15.94238281 C5.52403046 16.70286926 4.76339294 17.46335571 3.97970581 18.24688721 C3.15882477 19.05744568 2.33794373 19.86800415 1.4921875 20.703125 C0.65156769 21.54091492 -0.18905212 22.37870483 -1.05514526 23.24188232 C-3.74044001 25.91598431 -6.43260655 28.58304724 -9.125 31.25 C-10.94707155 33.06204062 -12.76869177 34.87453518 -14.58984375 36.6875 C-19.05467252 41.13028036 -23.52516283 45.56730165 -28 50 C-30.49361571 48.79618552 -32.68143083 47.54571278 -35 46 C-33.40193652 39.91117584 -30.1388717 34.9335245 -26.875 29.625 C-26.31167969 28.69816406 -25.74835938 27.77132812 -25.16796875 26.81640625 C-23.78393957 24.54096845 -22.39451078 22.2690237 -21 20 C-18.525 20.99 -18.525 20.99 -16 22 C-10.39553361 14.83381472 -4.88576509 7.68614264 0 0 Z " fill="#3F8582" transform="translate(134,16)"/>
<path d="M0 0 C9.38203908 2.16677807 18.7371917 4.35919936 28 7 C29.22596039 10.67788118 28.84310077 11.78449613 28 16 C8.86 16 -10.28 16 -30 16 C-30 3 -30 3 -29 2 C-8.14754098 2.42622951 -8.14754098 2.42622951 -1 6 C-0.67 4.02 -0.34 2.04 0 0 Z " fill="#3F8582" transform="translate(30,70)"/>
<path d="M0 0 C2.31 1.65 4.62 3.3 7 5 C2.69821605 13.89687136 -2.02620087 22.46627358 -7 31 C-8.98 30.34 -10.96 29.68 -13 29 C-13.40839111 29.55985596 -13.81678223 30.11971191 -14.23754883 30.6965332 C-16.09316691 33.23717287 -17.95278431 35.7748584 -19.8125 38.3125 C-20.45509766 39.19357422 -21.09769531 40.07464844 -21.75976562 40.98242188 C-22.38173828 41.82998047 -23.00371094 42.67753906 -23.64453125 43.55078125 C-24.21534424 44.33106689 -24.78615723 45.11135254 -25.37426758 45.9152832 C-27 48 -27 48 -30 51 C-33.3 48.36 -36.6 45.72 -40 43 C-37.96855658 38.93711315 -36.04893481 36.87483361 -32.8125 33.75 C-29.65466186 30.69374267 -26.64839244 27.63367463 -23.7890625 24.296875 C-19.30406362 19.10961404 -14.43168099 14.3236091 -9.5625 9.5 C-8.64017578 8.5821875 -7.71785156 7.664375 -6.76757812 6.71875 C-4.51400101 4.47684945 -2.25810925 2.237334 0 0 Z " fill="#3F8582" transform="translate(65,104)"/>
<path d="M0 0 C2.64 0 5.28 0 8 0 C8 19.47 8 38.94 8 59 C-2.125 59 -2.125 59 -6 58 C-5.32489224 48.61955539 -4.21844445 39.32169156 -3 30 C-5.475 29.01 -5.475 29.01 -8 28 C-7.02581666 24.17195663 -6.04713196 20.34509603 -5.06420898 16.51928711 C-4.73027733 15.21687242 -4.39759068 13.91413788 -4.06616211 12.61108398 C-3.59033219 10.74119333 -3.1096924 8.8725287 -2.62890625 7.00390625 C-2.34088135 5.87799072 -2.05285645 4.7520752 -1.75610352 3.59204102 C-1 1 -1 1 0 0 Z " fill="#3F8582" transform="translate(78,112)"/>
<path d="M0 0 C6.08882416 1.59806348 11.0664755 4.8611283 16.375 8.125 C17.30183594 8.68832031 18.22867188 9.25164062 19.18359375 9.83203125 C21.45903155 11.21606043 23.7309763 12.60548922 26 14 C25.34 15.65 24.68 17.3 24 19 C31.20412299 24.84936535 38.54990225 30.47003054 46 36 C43.16091489 40.69540998 40.27919092 43.55906155 36 47 C30.75274271 41.86848988 25.51898157 36.7236223 20.3021307 31.56119156 C17.87940395 29.16458129 15.45223829 26.77285081 13.0144043 24.39160156 C10.21328328 21.65509685 7.43238518 18.89854901 4.65234375 16.140625 C3.77223129 15.28631897 2.89211884 14.43201294 1.9853363 13.55181885 C1.18443069 12.75129089 0.38352509 11.95076294 -0.44165039 11.12597656 C-1.15446671 10.42426331 -1.86728302 9.72255005 -2.60169983 8.99957275 C-4 7 -4 7 -3.8200531 4.85150146 C-2.8798909 2.72881978 -1.74178759 1.51459791 0 0 Z " fill="#3F8582" transform="translate(109,99)"/>
<path d="M0 0 C3.27196452 1.43258772 5.43203956 3.18825316 7.94238281 5.71533203 C9.08311249 6.8562883 9.08311249 6.8562883 10.24688721 8.02029419 C11.05744568 8.84117523 11.86800415 9.66205627 12.703125 10.5078125 C13.54091492 11.34843231 14.37870483 12.18905212 15.24188232 13.05514526 C17.91598431 15.74044001 20.58304724 18.43260655 23.25 21.125 C25.06204062 22.94707155 26.87453518 24.76869177 28.6875 26.58984375 C33.13028036 31.05467252 37.56730165 35.52516283 42 40 C40.61410019 43.09162264 39.50816459 44.49183541 37 47 C28.75 42.38 20.5 37.76 12 33 C12.33 30.69 12.66 28.38 13 26 C12.2589502 25.47829224 12.2589502 25.47829224 11.50292969 24.94604492 C9.2515108 23.3604903 7.00074986 21.77400417 4.75 20.1875 C3.97269531 19.64029297 3.19539063 19.09308594 2.39453125 18.52929688 C1.64042969 17.99755859 0.88632812 17.46582031 0.109375 16.91796875 C-0.58188477 16.43094482 -1.27314453 15.9439209 -1.98535156 15.44213867 C-4.01319476 13.99055484 -6.01061534 12.50374075 -8 11 C-6.63629701 8.00779732 -5.05091917 5.70973471 -2.875 3.25 C-2.33617187 2.63640625 -1.79734375 2.0228125 -1.2421875 1.390625 C-0.62730469 0.70226562 -0.62730469 0.70226562 0 0 Z " fill="#3F8582" transform="translate(24,25)"/>
<path d="M0 0 C4.29 0 8.58 0 13 0 C14.00131865 4.0052746 13.89215375 5.88296559 13.22265625 9.859375 C12.94711914 11.53193359 12.94711914 11.53193359 12.66601562 13.23828125 C12.46685547 14.39714844 12.26769531 15.55601563 12.0625 16.75 C11.86720703 17.92433594 11.67191406 19.09867188 11.47070312 20.30859375 C10.98763371 23.20701025 10.49714131 26.10396967 10 29 C11.65 29.33 13.3 29.66 15 30 C14.3850185 36.60132039 12.82360905 42.65462154 10.9375 49 C10.65583984 49.96550781 10.37417969 50.93101563 10.08398438 51.92578125 C9.39475721 54.28550816 8.69999989 56.64345085 8 59 C4.04 58.505 4.04 58.505 0 58 C0 38.86 0 19.72 0 0 Z " fill="#3F8582" transform="translate(85,0)"/>
<path d="M0 0 C19.14 0 38.28 0 58 0 C58 10 58 10 57 14 C56.36497559 13.90912109 55.72995117 13.81824219 55.07568359 13.72460938 C52.17604783 13.31211332 49.27555158 12.90600407 46.375 12.5 C44.87646484 12.28537109 44.87646484 12.28537109 43.34765625 12.06640625 C38.53055443 11.39647818 33.87803213 10.80021711 29 11 C28.67 12.32 28.34 13.64 28 15 C21.39867961 14.3850185 15.34537846 12.82360905 9 10.9375 C8.03449219 10.65583984 7.06898437 10.37417969 6.07421875 10.08398438 C3.71449184 9.39475721 1.35654915 8.69999989 -1 8 C-0.67 5.36 -0.34 2.72 0 0 Z " fill="#3F8582" transform="translate(113,85)"/>
<path d="M0 0 C2.97 0.99 5.94 1.98 9 3 C8.35856108 9.44149223 6.45254731 15.30457383 4.4375 21.4375 C4.10814453 22.45521484 3.77878906 23.47292969 3.43945312 24.52148438 C2.63136468 27.01601826 1.81809872 29.50873483 1 32 C-0.58624235 31.57316761 -2.1689098 31.13303842 -3.75 30.6875 C-4.63171875 30.44386719 -5.5134375 30.20023438 -6.421875 29.94921875 C-9 29 -9 29 -13 26 C-8.71 17.42 -4.42 8.84 0 0 Z " fill="#3F8582" transform="translate(59,135)"/>
<path d="M0 0 C5.2627046 0.87711743 8.33121544 1.8523591 13 4 C12.39320291 7.83097267 11.25191853 10.84967736 9.49609375 14.30078125 C9.00302734 15.27724609 8.50996094 16.25371094 8.00195312 17.25976562 C7.48568359 18.26716797 6.96941406 19.27457031 6.4375 20.3125 C5.91736328 21.33923828 5.39722656 22.36597656 4.86132812 23.42382812 C3.57959638 25.9520146 2.29233939 28.477224 1 31 C-3.61691161 30.47535095 -5.09987886 29.92509086 -9 27 C-6.03 18.09 -3.06 9.18 0 0 Z " fill="#3F8582" transform="translate(111,4)"/>
<path d="M0 0 C9.97444751 2.19091911 19.4303554 5.49642159 29 9 C28.54554036 10.41791408 28.08625056 11.83428046 27.625 13.25 C27.24214844 14.43335937 27.24214844 14.43335937 26.8515625 15.640625 C26.04826333 17.86627958 25.10288338 19.90931672 24 22 C18.2352986 20.31743375 13.03449897 17.68308192 7.6875 15 C6.76904297 14.54882812 5.85058594 14.09765625 4.90429688 13.6328125 C4.03224609 13.19710937 3.16019531 12.76140625 2.26171875 12.3125 C1.46725342 11.91675781 0.67278809 11.52101563 -0.14575195 11.11328125 C-2 10 -2 10 -3 8 C-2.44140625 6.0546875 -2.44140625 6.0546875 -1.5625 3.875 C-1.27503906 3.15054688 -0.98757812 2.42609375 -0.69140625 1.6796875 C-0.46324219 1.12539062 -0.23507813 0.57109375 0 0 Z " fill="#3F8582" transform="translate(138,102)"/>
<path d="M0 0 C3.0007008 1.41518558 6.00042767 2.83242433 9 4.25 C9.83917969 4.64574219 10.67835937 5.04148437 11.54296875 5.44921875 C16.72943306 7.90173288 21.87807837 10.41532658 27 13 C25.68 15.97 24.36 18.94 23 22 C16.50121609 20.64909235 10.24896681 18.92169754 3.9375 16.875 C3.07189453 16.59785156 2.20628906 16.32070313 1.31445312 16.03515625 C-0.7915314 15.36031038 -2.89628687 14.68188659 -5 14 C-4.46515599 8.65155992 -2.53309233 4.64203897 0 0 Z " fill="#3F8582" transform="translate(9,46)"/>
</svg>
