<?xml version="1.0" encoding="UTF-8"?>
<svg version="1.1" xmlns="http://www.w3.org/2000/svg" width="512" height="512">
<path d="M0 0 C41.25 0 82.5 0 125 0 C125 6.6 125 13.2 125 20 C83.75 20 42.5 20 0 20 C0 18.02 0 16.04 0 14 C-39.6 14 -79.2 14 -120 14 C-120 11.36 -120 8.72 -120 6 C-80.4 6 -40.8 6 0 6 C0 4.02 0 2.04 0 0 Z " fill="#FFFFFF" transform="translate(387,246)"/>
<path d="M0 0 C0.59423828 1.76586914 0.59423828 1.76586914 1.0703125 4.03515625 C1.24433594 4.84404297 1.41835938 5.65292969 1.59765625 6.48632812 C1.77167969 7.33646484 1.94570313 8.18660156 2.125 9.0625 C2.39763672 10.34350586 2.39763672 10.34350586 2.67578125 11.65039062 C3.12476342 13.76533296 3.56335351 15.88247647 4 18 C-3.22667312 19.38071658 -10.44323856 20.52070432 -17.74462891 21.42041016 C-18.75590347 21.54749863 -19.76717804 21.6745871 -20.80909729 21.80552673 C-24.11452204 22.21995781 -27.42049715 22.62977538 -30.7265625 23.0390625 C-33.04342039 23.32755303 -35.36026383 23.61615969 -37.67709351 23.90487671 C-42.51655721 24.50712706 -47.35632211 25.10688621 -52.19628906 25.70507812 C-58.3848956 26.47031457 -64.57248702 27.24344883 -70.75985146 28.01865578 C-75.53786749 28.61610843 -80.31649887 29.20851832 -85.09531784 29.79951096 C-87.3767906 30.0824316 -89.65804733 30.36710021 -91.93907547 30.65358353 C-95.13014585 31.05376606 -98.3220092 31.44692225 -101.51416016 31.83837891 C-102.44634872 31.95679642 -103.37853729 32.07521393 -104.338974 32.19721985 C-109.93746249 32.87475373 -115.3601739 33.10650135 -121 33 C-121.33 31.35 -121.66 29.7 -122 28 C-123.26913239 28.18524734 -124.53826477 28.37049469 -125.84585571 28.56135559 C-138.63873852 30.41623616 -151.44503202 32.11043226 -164.2734375 33.69921875 C-166.22206175 33.9415081 -168.1706802 34.1838441 -170.11929321 34.42622375 C-174.15422535 34.92756629 -178.1893534 35.42729645 -182.22460938 35.92602539 C-187.38383592 36.56395838 -192.54232185 37.20768948 -197.7006588 37.85277081 C-201.70320092 38.35238515 -205.70621421 38.84813969 -209.70936966 39.34281349 C-211.6128615 39.57865514 -213.51618295 39.81587657 -215.41932297 40.05454063 C-218.06861616 40.38636169 -220.71852494 40.71276001 -223.36865234 41.0378418 C-224.1427092 41.13598679 -224.91676605 41.23413177 -225.71427917 41.33525085 C-230.18038063 41.87636063 -234.50095226 42.09138524 -239 42 C-240.35439668 39.29120665 -240.06501451 36.99066732 -240 34 C-225.18832938 32.17242081 -210.37640451 30.34691345 -195.5641737 28.52388 C-188.68678489 27.67738779 -181.8094812 26.83021487 -174.93237305 25.98144531 C-168.29957782 25.16283068 -161.66655248 24.34610534 -155.03338051 23.5305481 C-152.49868319 23.21858707 -149.96406462 22.90598562 -147.42952538 22.59274292 C-143.8883612 22.15520128 -140.34692766 21.71990697 -136.80541992 21.28515625 C-135.75022156 21.15424591 -134.69502319 21.02333557 -133.60784912 20.88845825 C-132.64451157 20.7706601 -131.68117401 20.65286194 -130.68864441 20.53149414 C-129.85073459 20.42825333 -129.01282476 20.32501251 -128.14952374 20.21864319 C-126 20 -126 20 -123 20 C-123 18.02 -123 16.04 -123 14 C-107.25902896 12.01951702 -91.5171979 10.04602912 -75.77430153 8.0809164 C-68.46499731 7.16836339 -61.15599548 6.25350397 -53.84765625 5.33325195 C-47.47939475 4.53137862 -41.11061343 3.73379461 -34.74116457 2.94140583 C-31.36709164 2.52150224 -27.9933226 2.09942237 -24.62016678 1.67220879 C-20.85895128 1.19694034 -17.09686683 0.72925943 -13.33447266 0.26342773 C-12.21022385 0.11957138 -11.08597504 -0.02428497 -9.92765808 -0.17250061 C-8.90679611 -0.29733826 -7.88593414 -0.4221759 -6.83413696 -0.55079651 C-5.94368494 -0.66233346 -5.05323292 -0.77387041 -4.1357975 -0.88878727 C-2 -1 -2 -1 0 0 Z " fill="#FFFFFF" transform="translate(504,190)"/>
<path d="M0 0 C12.58161364 0.62791645 25.01380362 2.12113515 37.5078125 3.6875 C39.64912068 3.95303337 41.79046869 4.21824571 43.93185425 4.4831543 C48.38816561 5.03532304 52.84411837 5.59027138 57.29980469 6.14746094 C63.0076291 6.86115645 68.71610929 7.56943463 74.42483711 8.27586365 C78.83276521 8.82163825 83.24044307 9.36941066 87.64803696 9.9178772 C89.75391259 10.17984263 91.85984128 10.44138197 93.96582413 10.70248413 C96.89949558 11.06667638 99.83284517 11.4333564 102.76611328 11.80078125 C104.06433266 11.96134506 104.06433266 11.96134506 105.38877869 12.12515259 C109.29559296 12.61705469 113.15103563 13.14919495 117 14 C117.33 12.35 117.66 10.7 118 9 C131.64806345 9.6044217 145.12869882 11.22727357 158.6796875 12.90625 C161.02853704 13.1941951 163.37742487 13.48182801 165.72634888 13.76916504 C170.61302714 14.36799582 175.49928599 14.97010855 180.38525391 15.57470703 C186.65701857 16.35057959 192.9296928 17.11879909 199.20268059 17.88471222 C204.03612212 18.4755777 208.86911344 19.07005871 213.70196915 19.66569519 C216.01678856 19.95061464 218.33173767 20.23448237 220.64681625 20.51728821 C223.86380071 20.91088935 227.08015814 21.30926027 230.29638672 21.70898438 C231.73466324 21.8835743 231.73466324 21.8835743 233.20199585 22.06169128 C234.07352295 22.17100479 234.94505005 22.2803183 235.84298706 22.39294434 C236.98157071 22.53341312 236.98157071 22.53341312 238.14315605 22.67671967 C240 23 240 23 242 24 C241.91038941 25.48011981 241.80226028 26.95911751 241.6875 28.4375 C241.62949219 29.26121094 241.57148438 30.08492188 241.51171875 30.93359375 C241.05171859 33.69008328 240.36610855 36.05592591 239.46801758 38.69165039 C239.05728752 39.90311485 239.05728752 39.90311485 238.63825989 41.13905334 C238.32232124 42.06022194 238.32232124 42.06022194 238 43 C227.97864942 41.81685012 217.95785644 40.62903708 207.9375 39.4375 C207.1888052 39.34847412 206.4401104 39.25944824 205.66872787 39.16772461 C175.75763709 35.60930667 145.87290696 31.86674743 116 28 C116 26.02 116 24.04 116 22 C114.82507996 21.88834503 113.65015991 21.77669006 112.43963623 21.66165161 C99.20694969 20.38314439 86.01925958 18.82790828 72.828125 17.1796875 C70.68197141 16.91329658 68.53579169 16.64711614 66.3895874 16.38113403 C60.81319549 15.68948335 55.23715685 14.99502563 49.66119385 14.29992676 C43.94231391 13.58753537 38.22309492 12.87787655 32.50390625 12.16796875 C21.33560923 10.78127826 10.16768454 9.39161387 -1 8 C-0.67 5.36 -0.34 2.72 0 0 Z " fill="#FFFFFF" transform="translate(265,280)"/>
<path d="M0 0 C9.85516369 2.41260793 19.70926744 4.82951865 29.5625 7.25 C30.29428844 7.42976379 31.02607689 7.60952759 31.78004074 7.79473877 C58.56020342 14.37486641 85.29876791 21.10577245 112 28 C112.33 26.35 112.66 24.7 113 23 C120.46448109 24.27287607 127.80194118 25.83797112 135.14697266 27.67382812 C136.72705109 28.06446693 136.72705109 28.06446693 138.33905029 28.46299744 C141.7816652 29.31532729 145.22294421 30.17289924 148.6640625 31.03125 C151.06731483 31.62901578 153.47058455 32.22671164 155.87387085 32.82434082 C160.88905324 34.07253871 165.90347671 35.32373668 170.91748047 36.57666016 C177.35747761 38.18533022 183.80009927 39.78309016 190.24344826 41.37827301 C195.19630112 42.60630745 200.1472955 43.84170367 205.09778976 45.07920837 C207.47429293 45.6719837 209.85147493 46.26204416 212.22932816 46.84938049 C215.53719782 47.66724792 218.84233574 48.49535406 222.14697266 49.32617188 C223.13597565 49.56830917 224.12497864 49.81044647 225.14395142 50.05992126 C226.03815796 50.28696243 226.9323645 50.5140036 227.85366821 50.7479248 C228.63488855 50.94259087 229.41610889 51.13725693 230.22100258 51.33782196 C232 52 232 52 233 54 C232.37915039 55.69580078 232.37915039 55.69580078 231.34765625 57.6953125 C230.98349609 58.41074219 230.61933594 59.12617188 230.24414062 59.86328125 C229.85419922 60.60964844 229.46425781 61.35601562 229.0625 62.125 C228.48338867 63.25615234 228.48338867 63.25615234 227.89257812 64.41015625 C226.93547868 66.27709097 225.96863894 68.13902628 225 70 C219.2952573 69.38692567 213.88672786 68.36139675 208.33105469 66.94628906 C207.50369812 66.73959595 206.67634155 66.53290283 205.82391357 66.31994629 C203.10542688 65.63963177 200.38866839 64.95266746 197.671875 64.265625 C195.75834372 63.78537247 193.8447065 63.30554188 191.93096924 62.82611084 C186.89392555 61.56304089 181.85831703 60.29433966 176.82299805 59.02441406 C171.76564595 57.7499308 166.7069996 56.48060798 161.6484375 55.2109375 C154.17212724 53.33392321 146.69656866 51.45395481 139.22167969 49.57128906 C129.15090187 47.03504808 119.07595913 44.51556799 109 42 C109.33 40.02 109.66 38.04 110 36 C108.42991432 35.66000473 108.42991432 35.66000473 106.82810974 35.31314087 C94.57192262 32.63679441 82.39417196 29.68424171 70.22265625 26.6484375 C68.1929142 26.14324987 66.1631645 25.63809299 64.13340759 25.13296509 C59.92192273 24.08417619 55.7109419 23.03338953 51.50024414 21.98144531 C46.10146761 20.63311173 40.70081693 19.29244592 35.29970646 17.95349693 C31.1269639 16.91772577 26.9555454 15.87670081 22.78448296 14.83418655 C20.79182174 14.3370727 18.79867564 13.84189824 16.80504036 13.34870529 C14.03535837 12.66297067 11.26761769 11.96988521 8.50024414 11.27490234 C7.67904083 11.07331009 6.85783752 10.87171783 6.01174927 10.66401672 C2.55576737 9.78880669 -0.00632553 8.99578298 -3 7 C-2.01 4.69 -1.02 2.38 0 0 Z " fill="#FFFFFF" transform="translate(259,302)"/>
<path d="M0 0 C1.19963643 2.43218059 2.38484438 4.86970578 3.5625 7.3125 C3.90474609 8.00279297 4.24699219 8.69308594 4.59960938 9.40429688 C7.11328125 14.66015625 7.11328125 14.66015625 6 18 C4.07371712 18.82204723 4.07371712 18.82204723 1.49612427 19.4617157 C0.52304321 19.70985016 -0.45003784 19.95798462 -1.4526062 20.21363831 C-2.52898346 20.4740239 -3.60536072 20.73440948 -4.71435547 21.00268555 C-5.8410968 21.28597717 -6.96783813 21.5692688 -8.12872314 21.86114502 C-11.87187974 22.79884934 -15.61934831 23.71792451 -19.3671875 24.63671875 C-21.95958194 25.28159325 -24.55172426 25.9274092 -27.14358521 26.57441711 C-32.5840143 27.93037335 -38.02675639 29.2766786 -43.47119141 30.61645508 C-50.46102437 32.33656726 -57.4470169 34.07176469 -64.43185234 35.8120451 C-71.07563567 37.46729296 -77.72139318 39.11456741 -84.3671875 40.76171875 C-85.64212948 41.07828619 -86.91707146 41.39485363 -88.23064804 41.72101402 C-91.82845776 42.61298073 -95.42743446 43.50005908 -99.02685547 44.38549805 C-100.09918427 44.65195633 -101.17151306 44.91841461 -102.27633667 45.19294739 C-103.25505737 45.43262238 -104.23377808 45.67229736 -105.24215698 45.91923523 C-106.09351667 46.12919475 -106.94487637 46.33915426 -107.82203484 46.55547619 C-110 47 -110 47 -113 47 C-113.33 45.35 -113.66 43.7 -114 42 C-114.80955139 42.20551987 -115.61910278 42.41103973 -116.45318604 42.62278748 C-134.85147961 47.29324594 -153.25093937 51.95906822 -171.65219116 56.61785889 C-179.36763731 58.5714924 -187.08219503 60.52845476 -194.79418945 62.49568176 C-198.17081366 63.35624387 -201.54851074 64.2125195 -204.92663574 65.06716919 C-206.38102898 65.43621875 -207.83489783 65.80734171 -209.28820801 66.18063354 C-211.23504031 66.68047342 -213.18386441 67.17253708 -215.1328125 67.6640625 C-216.16293457 67.92654785 -217.19305664 68.1890332 -218.25439453 68.45947266 C-220.91606599 68.98347591 -223.29580664 69.10584048 -226 69 C-226.99 66.69 -227.98 64.38 -229 62 C-158.9431839 44.21175102 -158.9431839 44.21175102 -136.19555664 38.50457764 C-134.5286867 38.08615645 -132.86201837 37.66693124 -131.19555664 37.24688721 C-128.94735482 36.68048554 -126.69842931 36.1170678 -124.44921875 35.5546875 C-123.23580811 35.25030762 -122.02239746 34.94592773 -120.7722168 34.63232422 C-118 34 -118 34 -116 34 C-116.495 31.03 -116.495 31.03 -117 28 C-102.4851659 24.34208378 -87.96864709 20.69091496 -73.4501009 17.04776001 C-66.7088448 15.35600217 -59.96815563 13.66204532 -53.22875977 11.96289062 C-46.72676817 10.32359753 -40.22325868 8.6904622 -33.71877098 7.06109619 C-31.23552259 6.43797174 -28.75279348 5.81277413 -26.27059364 5.18548584 C-22.7980336 4.30829284 -19.32371238 3.43844112 -15.84887695 2.5703125 C-14.81957062 2.30849182 -13.79026428 2.04667114 -12.72976685 1.7769165 C-11.78050827 1.54132019 -10.83124969 1.30572388 -9.85322571 1.06298828 C-8.62124938 0.75326584 -8.62124938 0.75326584 -7.36438465 0.43728638 C-4.86025116 -0.02584616 -2.54089606 -0.07684753 0 0 Z " fill="#FFFFFF" transform="translate(485,140)"/>
<path d="M0 0 C2.65440528 2.01751354 4.5245285 4.57846227 6.47265625 7.24682617 C6.88386719 7.78500977 7.29507813 8.32319336 7.71875 8.87768555 C10.72265625 12.92447619 10.72265625 12.92447619 10.72265625 16.30932617 C9.69760986 16.68927734 8.67256348 17.06922852 7.61645508 17.46069336 C-15.1642947 25.90798752 -37.92133225 34.41653886 -60.65234375 42.99682617 C-61.78827972 43.42547974 -62.9242157 43.8541333 -64.09457397 44.29577637 C-66.31171494 45.13260603 -68.52872416 45.96978486 -70.74559021 46.80734253 C-72.83111622 47.59507471 -74.91701086 48.38183178 -77.00331116 49.16751099 C-81.21342907 50.75591531 -85.41730753 52.35188537 -89.59082031 54.03442383 C-90.75838867 54.50283691 -91.92595703 54.97125 -93.12890625 55.45385742 C-94.07846191 55.84549072 -95.02801758 56.23712402 -96.00634766 56.640625 C-98.27734375 57.30932617 -98.27734375 57.30932617 -101.27734375 56.30932617 C-101.96484375 54.24682617 -101.96484375 54.24682617 -102.27734375 52.30932617 C-103.31576416 52.73383057 -104.35418457 53.15833496 -105.42407227 53.59570312 C-121.79459432 60.23758583 -138.34002744 66.41261772 -154.87866211 72.61981201 C-161.06076763 74.94060505 -167.24133994 77.26547982 -173.42215157 79.58971596 C-175.54698522 80.38840701 -177.67212939 81.18626648 -179.79734802 81.9839325 C-180.46303582 82.23413304 -181.12872362 82.48433359 -181.81458378 82.74211597 C-183.1112716 83.22899549 -184.40843707 83.71460511 -185.70611477 84.19884014 C-188.82168493 85.36538808 -191.92071767 86.56185467 -194.9992981 87.82217407 C-196.15654388 88.29013397 -197.31378967 88.75809387 -198.50610352 89.24023438 C-199.52495132 89.6627095 -200.54379913 90.08518463 -201.59352112 90.52046204 C-204.401811 91.34591121 -205.61639465 91.4512256 -208.27734375 90.30932617 C-211.27734375 86.9878976 -211.27734375 86.9878976 -211.27734375 84.30932617 C-210.71328323 84.09651505 -210.14922272 83.88370392 -209.56806946 83.66444397 C-193.67654478 77.66876453 -177.7854304 71.67199837 -161.89459229 65.67449951 C-158.40681216 64.3581884 -154.91898746 63.04199546 -151.43115234 61.72583008 C-146.19035841 59.7481148 -140.94976185 57.76987743 -135.70932007 55.79122925 C-133.76132606 55.05580702 -131.81326741 54.32055599 -129.86514282 53.58547974 C-127.15861878 52.56420217 -124.45232718 51.54231102 -121.74609375 50.52026367 C-120.95575241 50.22219315 -120.16541107 49.92412262 -119.35112 49.61701965 C-118.61972305 49.3406517 -117.88832611 49.06428375 -117.13476562 48.77954102 C-116.46179443 48.52581726 -115.78882324 48.27209351 -115.09545898 48.01068115 C-113.53017233 47.40685716 -111.98098193 46.76160217 -110.43554688 46.10864258 C-108.27734375 45.30932617 -108.27734375 45.30932617 -105.27734375 45.30932617 C-106.26734375 42.33932617 -106.26734375 42.33932617 -107.27734375 39.30932617 C-93.04682043 33.54001091 -78.72991882 28.0420299 -64.33984375 22.68432617 C-60.12713547 21.1152677 -55.91482098 19.5451625 -51.703125 17.97338867 C-50.65841034 17.5836084 -49.61369568 17.19382812 -48.537323 16.79223633 C-41.69438039 14.23229999 -34.87631657 11.61417386 -28.0703125 8.95776367 C-25.52627144 7.97091705 -22.98189274 6.98494516 -20.43746948 5.99908447 C-18.83938853 5.37595937 -17.24341892 4.74739028 -15.64968872 4.11322021 C-13.46285207 3.24324049 -11.26965418 2.39169518 -9.07421875 1.54370117 C-7.85057617 1.06126953 -6.62693359 0.57883789 -5.36621094 0.08178711 C-2.27734375 -0.69067383 -2.27734375 -0.69067383 0 0 Z " fill="#FFFFFF" transform="translate(456.27734375,96.690673828125)"/>
<path d="M0 0 C3.53599219 0.40304626 6.72354533 1.53842416 10.04174805 2.78735352 C11.02838943 3.15661453 12.01503082 3.52587555 13.03157043 3.90632629 C14.63049385 4.51150337 14.63049385 4.51150337 16.26171875 5.12890625 C17.38523239 5.55076706 18.50874603 5.97262787 19.66630554 6.40727234 C22.711196 7.55161384 25.75475083 8.69941917 28.79766083 9.84901428 C31.31852964 10.80073754 33.84043233 11.74970363 36.36234665 12.69865227 C52.71178478 18.85094078 69.04857778 25.03690301 85.375 31.25 C86.27221771 31.59128937 87.16943542 31.93257874 88.09384155 32.28421021 C90.59172165 33.23500535 93.08897415 34.18742529 95.5859375 35.140625 C96.31656906 35.41879562 97.04720062 35.69696625 97.79997253 35.98356628 C102.76759093 37.88379546 102.76759093 37.88379546 105 39 C105.33 37.35 105.66 35.7 106 34 C109.65350582 34.64210802 112.9715201 35.62837702 116.4440918 36.92675781 C117.51633499 37.32561691 118.58857819 37.72447601 119.6933136 38.13542175 C121.42873665 38.78768486 121.42873665 38.78768486 123.19921875 39.453125 C125.01663826 40.13131035 125.01663826 40.13131035 126.87077332 40.82319641 C130.13721037 42.04239055 133.40179803 43.26646415 136.66597748 44.49168777 C139.36165945 45.50289026 142.05837296 46.5113259 144.75506973 47.51981831 C164.53934137 54.91950462 184.29294681 62.39688048 204 70 C206.46071091 70.94720472 208.92176407 71.89351597 211.3828125 72.83984375 C212.46191895 73.25484131 213.54102539 73.66983887 214.65283203 74.09741211 C215.81468018 74.54419312 215.81468018 74.54419312 217 75 C217 79.71944629 215.44637646 81.64159522 212.6875 85.1875 C212.08131836 86.00637695 212.08131836 86.00637695 211.46289062 86.84179688 C209.38208 89.57222643 208.32634645 90.89121785 205 92 C203.11978149 91.55130005 203.11978149 91.55130005 200.96728516 90.73095703 C200.15013031 90.42475937 199.33297546 90.11856171 198.49105835 89.80308533 C197.1535704 89.28567528 197.1535704 89.28567528 195.7890625 88.7578125 C194.84930573 88.40276138 193.90954895 88.04771027 192.9413147 87.68190002 C189.83248373 86.50499881 186.72881235 85.31506691 183.625 84.125 C181.47005511 83.30618234 179.31477751 82.4882398 177.15917969 81.67114258 C172.68482675 79.97382218 168.21238857 78.27158453 163.74121094 76.56591797 C157.24324336 74.08924799 150.73633243 71.6368582 144.2265625 69.19140625 C141.20313714 68.05455299 138.17978059 66.9175169 135.15643311 65.78045654 C133.23796136 65.05902028 131.31938438 64.33786379 129.4006958 63.61700439 C119.52920291 59.90518769 109.68903719 56.17063839 100 52 C100.99 49.03 100.99 49.03 102 46 C101.16952148 45.89324951 100.33904297 45.78649902 99.48339844 45.67651367 C95.55488409 44.91355367 91.97742187 43.62639998 88.265625 42.17578125 C87.49856232 41.88148727 86.73149963 41.5871933 85.94119263 41.28398132 C83.37549851 40.29850976 80.81283825 39.30537225 78.25 38.3125 C75.4832794 37.24800414 72.71575085 36.18562615 69.94821167 35.1232605 C67.94594749 34.35448184 65.94394089 33.58503202 63.94216919 32.81497192 C51.4233174 28.00136403 38.87966311 23.25317387 26.33728027 18.50131226 C22.39026965 17.00591026 18.44362437 15.5095459 14.49707031 14.01293945 C8.3315298 11.67489825 2.1658318 9.3372729 -4 7 C-2.92598892 4.08482708 -2.22189824 2.22189824 0 0 Z " fill="#FFFFFF" transform="translate(249,324)"/>
<path d="M0 0 C4.65956431 1.27079027 7.13023225 3.9270517 10.3515625 7.32421875 C12.03246032 9.12804034 12.03246032 9.12804034 14.4375 10.75 C14.953125 11.1625 15.46875 11.575 16 12 C16 12.99 16 13.98 16 15 C15.49364014 15.25056152 14.98728027 15.50112305 14.46557617 15.75927734 C4.4634133 20.71596217 -5.49405739 25.74085794 -15.35864258 30.96630859 C-22.38437846 34.6857737 -29.43977408 38.34648397 -36.5 42 C-44.42735428 46.10483255 -52.34978021 50.21815309 -60.25 54.375 C-61.00224854 54.76921143 -61.75449707 55.16342285 -62.52954102 55.56958008 C-66.16314975 57.47936338 -69.77323263 59.42111767 -73.35546875 61.42578125 C-74.04543945 61.80750488 -74.73541016 62.18922852 -75.44628906 62.58251953 C-76.73144723 63.29569092 -78.01123681 64.01866538 -79.28417969 64.75341797 C-81.76833845 66.12586963 -83.47317676 67.03769284 -86.34765625 66.83203125 C-88 66 -88 66 -89 64 C-92.29274117 65.28014678 -95.47243663 66.67211315 -98.6328125 68.25 C-99.51090576 68.68803955 -100.38899902 69.1260791 -101.29370117 69.57739258 C-102.22802979 70.04685303 -103.1623584 70.51631348 -104.125 71 C-105.10637939 71.49201904 -106.08775879 71.98403809 -107.09887695 72.4909668 C-113.92612265 75.92637462 -120.70843012 79.43879494 -127.46142578 83.01757812 C-134.45203486 86.72163303 -141.47364043 90.36427879 -148.5 94 C-159.35785858 99.6206374 -170.19096059 105.28608635 -181 111 C-182.65 109.35 -184.3 107.7 -186 106 C-184.75069389 102.25208167 -183.12415819 101.7564244 -179.73062134 100.01860046 C-178.98678192 99.65023575 -178.2429425 99.28187103 -177.4765625 98.90234375 C-176.70831146 98.51202469 -175.94006042 98.12170563 -175.14852905 97.71955872 C-172.64510048 96.44992478 -170.13511025 95.19386421 -167.625 93.9375 C-165.90178695 93.06587858 -164.17913057 92.19315575 -162.45703125 91.31933594 C-159.10228624 89.61754091 -155.74571419 87.91944588 -152.38769531 86.22412109 C-147.56408247 83.78450037 -142.7716436 81.28970955 -138 78.75 C-132.55109085 75.85818607 -127.08389477 73.00373758 -121.6015625 70.17578125 C-120.94613464 69.83757355 -120.29070679 69.49936584 -119.61541748 69.15090942 C-116.33857483 67.46054145 -113.06062676 65.77236021 -109.78125 64.08691406 C-108.5754952 63.46554453 -107.36976493 62.84412739 -106.1640625 62.22265625 C-105.09623535 61.67359619 -104.0284082 61.12453613 -102.92822266 60.55883789 C-100.99904541 59.53184133 -99.10021012 58.44537098 -97.23974609 57.29858398 C-95 56 -95 56 -93 56 C-93.99 53.03 -93.99 53.03 -95 50 C-83.01978972 43.66697775 -71.00514293 37.4029045 -58.97094727 31.1730957 C-51.78527603 27.45090893 -44.61500085 23.7016485 -37.46142578 19.91821289 C-32.46214327 17.28021311 -27.44595975 14.67627968 -22.421875 12.0859375 C-21.42823441 11.57337654 -21.42823441 11.57337654 -20.41452026 11.05046082 C-17.08841153 9.33510771 -13.76112057 7.62210487 -10.43212891 5.91235352 C-9.21253226 5.28408068 -7.99296698 4.65574695 -6.7734375 4.02734375 C-5.68466309 3.46781006 -4.59588867 2.90827637 -3.47412109 2.33178711 C-1.12359303 1.21941887 -1.12359303 1.21941887 0 0 Z " fill="#FFFFFF" transform="translate(417,58)"/>
<path d="M0 0 C4.66512223 0.5557979 8.11442228 1.84348038 12.26171875 4.02734375 C12.84496414 4.33152725 13.42820953 4.63571075 14.02912903 4.94911194 C15.91948222 5.93740735 17.80341713 6.9373108 19.6875 7.9375 C21.00741781 8.63030976 22.32773399 9.32236107 23.6484375 10.01367188 C27.4373335 11.99964713 31.21894914 13.99913058 35 16 C36.70413297 16.89769396 38.40851348 17.79491839 40.11328125 18.69140625 C42.29466598 19.83885221 44.475592 20.98709488 46.65454102 22.13916016 C51.51944797 24.7084408 56.40026715 27.24604082 61.2890625 29.76953125 C61.93304993 30.10201874 62.57703735 30.43450623 63.24053955 30.77706909 C66.44765215 32.43233855 69.65577416 34.08561539 72.86523438 35.73632812 C78.75033457 38.76873465 84.59851289 41.83164806 90.32373047 45.15893555 C91.98536077 46.14948762 91.98536077 46.14948762 94 46 C94.66 45.01 95.32 44.02 96 43 C99.63559169 43.58715168 102.46546385 44.57292519 105.7109375 46.30078125 C106.61392578 46.77708984 107.51691406 47.25339844 108.44726562 47.74414062 C109.41341797 48.26169922 110.37957031 48.77925781 111.375 49.3125 C113.45564068 50.41292774 115.53637236 51.51318343 117.6171875 52.61328125 C118.67905273 53.17740723 119.74091797 53.7415332 120.83496094 54.32275391 C125.71050551 56.90644653 130.60550329 59.45245113 135.5 62 C137.4167742 62.99979386 139.33344055 63.99979452 141.25 65 C142.19875 65.495 143.1475 65.99 144.125 66.5 C147 68 149.875 69.5 152.75 71 C154.17517944 71.7434668 154.17517944 71.7434668 155.62915039 72.50195312 C157.532215 73.49499713 159.4350498 74.48848166 161.33764648 75.48242188 C166.33556106 78.09263925 171.33807348 80.69348812 176.34765625 83.28125 C177.38792969 83.82007813 178.42820312 84.35890625 179.5 84.9140625 C181.4868116 85.94294708 183.47501382 86.96915246 185.46484375 87.9921875 C190.17294697 90.43392584 194.66477995 92.94154193 199 96 C194.72706118 101.23435005 190.18419194 105.67106815 185 110 C181.70725883 108.71985322 178.52756337 107.32788685 175.3671875 105.75 C174.48909424 105.31196045 173.61100098 104.8739209 172.70629883 104.42260742 C171.77197021 103.95314697 170.8376416 103.48368652 169.875 103 C168.40293091 102.26197144 168.40293091 102.26197144 166.90112305 101.5090332 C160.07387735 98.07362538 153.29156988 94.56120506 146.53857422 90.98242188 C139.54796354 87.27836612 132.52627825 83.6358806 125.5 80 C117.36628239 75.78741755 109.23534323 71.56994858 101.125 67.3125 C99.98514648 66.71598633 99.98514648 66.71598633 98.82226562 66.10742188 C95.14610661 64.17313435 91.53638927 62.18424043 88 60 C88.50603992 57.83125748 88.99983813 56.00032373 90 54 C89.22527344 53.78085937 88.45054687 53.56171875 87.65234375 53.3359375 C82.71298866 51.52924291 78.20093621 49.09092504 73.5625 46.625 C71.49094773 45.53373586 69.41933137 44.44259339 67.34765625 43.3515625 C66.2920752 42.7937207 65.23649414 42.23587891 64.14892578 41.66113281 C59.27500836 39.09002612 54.38725669 36.54563021 49.5 34 C47.58847197 33.00273774 45.67701388 32.00534142 43.765625 31.0078125 C39.88069541 28.9808353 35.99522192 26.95490553 32.109375 24.9296875 C20.05814949 18.64765506 8.02081614 12.34003372 -4 6 C-2.68 4.02 -1.36 2.04 0 0 Z " fill="#FFFFFF" transform="translate(234,344)"/>
<path d="M0 0 C1.94458008 0.93969727 1.94458008 0.93969727 3.76953125 2.06640625 C4.43017578 2.46923828 5.09082031 2.87207031 5.77148438 3.28710938 C6.44501953 3.70798828 7.11855469 4.12886719 7.8125 4.5625 C8.50537109 4.98724609 9.19824219 5.41199219 9.91210938 5.84960938 C11.61216951 6.89309456 13.30665476 7.94565296 15 9 C10.8152217 13.65258888 6.09632502 16.61408714 0.75 19.8125 C-1.14300978 20.96436838 -3.03488936 22.11809571 -4.92578125 23.2734375 C-5.91787598 23.87897461 -6.9099707 24.48451172 -7.93212891 25.10839844 C-13.14167661 28.32052446 -18.28891909 31.62883956 -23.4375 34.9375 C-25.55338437 36.29557455 -27.66926979 37.65364747 -29.78515625 39.01171875 C-30.82172363 39.6773584 -31.85829102 40.34299805 -32.92626953 41.02880859 C-40.38731373 45.81359579 -47.86950642 50.56513711 -55.35253906 55.31542969 C-58.07991387 57.05084892 -60.80195341 58.79442261 -63.5234375 60.5390625 C-65.26556293 61.65113891 -67.00774785 62.76312213 -68.75 63.875 C-69.9572876 64.65278809 -69.9572876 64.65278809 -71.18896484 65.44628906 C-71.9258252 65.91518555 -72.66268555 66.38408203 -73.421875 66.8671875 C-74.06737305 67.28081543 -74.71287109 67.69444336 -75.37792969 68.12060547 C-77 69 -77 69 -79 69 C-79.33 67.68 -79.66 66.36 -80 65 C-88.94663432 69.49383696 -97.20021554 74.95722867 -105.55859375 80.44140625 C-110.96680307 83.9887473 -116.4145115 87.4713192 -121.875 90.9375 C-122.77919678 91.51169678 -123.68339355 92.08589355 -124.61499023 92.67749023 C-126.461921 93.85001762 -128.30900878 95.02229771 -130.15625 96.19433594 C-133.10576695 98.06715766 -136.05318397 99.94324413 -139 101.8203125 C-139.98371582 102.44687744 -140.96743164 103.07344238 -141.98095703 103.71899414 C-143.85182262 104.91073584 -145.72259715 106.10262051 -147.59326172 107.29467773 C-149.27510509 108.36547569 -150.95822524 109.4342718 -152.64282227 110.50073242 C-154.20419018 111.49383033 -155.75950726 112.4965113 -157.30834961 113.5090332 C-158.01741455 113.96753662 -158.72647949 114.42604004 -159.45703125 114.8984375 C-160.07553955 115.30368652 -160.69404785 115.70893555 -161.33129883 116.12646484 C-163 117 -163 117 -165.8125 117.0625 C-168.41230078 115.79973962 -169.35631094 114.33130683 -171 112 C-164.07335021 107.04093397 -156.99677692 102.41302804 -149.75 97.9375 C-147.62193684 96.61532181 -145.49434275 95.29238837 -143.3671875 93.96875 C-142.30209961 93.30617188 -141.23701172 92.64359375 -140.13964844 91.9609375 C-132.65371131 87.2854284 -125.22302441 82.5225766 -117.78369141 77.7734375 C-114.85264036 75.90611994 -111.91707142 74.04607342 -108.98046875 72.1875 C-107.98998535 71.55980713 -106.99950195 70.93211426 -105.97900391 70.28540039 C-104.0929136 69.0903713 -102.20592881 67.89675229 -100.31787109 66.70483398 C-95.43378423 63.60667804 -90.67044139 60.41228167 -86 57 C-86.99 54.525 -86.99 54.525 -88 52 C-86.88367188 51.29617187 -85.76734375 50.59234375 -84.6171875 49.8671875 C-73.93347026 43.1274972 -63.26708249 36.36109161 -52.61328125 29.57421875 C-48.88369421 27.19836732 -45.15185402 24.82612159 -41.41796875 22.45703125 C-40.50047852 21.87429443 -39.58298828 21.29155762 -38.63769531 20.69116211 C-36.80866929 19.53016053 -34.97860443 18.37079378 -33.14746094 17.21313477 C-28.50379829 14.26844441 -23.90198234 11.2766664 -19.34765625 8.1953125 C-17.98374756 7.28084351 -17.98374756 7.28084351 -16.59228516 6.34790039 C-14.86338644 5.18517864 -13.14249765 4.01042794 -11.43115234 2.82202148 C-10.65852051 2.30454346 -9.88588867 1.78706543 -9.08984375 1.25390625 C-8.41816162 0.79314697 -7.74647949 0.3323877 -7.05444336 -0.14233398 C-4.29858021 -1.29282088 -2.82107639 -0.87592783 0 0 Z " fill="#FFFFFF" transform="translate(378,30)"/>
<path d="M0 0 C2.57854148 0.93145161 4.68098698 2.19070685 6.99951172 3.65698242 C8.43447998 4.55912476 8.43447998 4.55912476 9.8984375 5.47949219 C11.43733643 6.45873657 11.43733643 6.45873657 13.00732422 7.45776367 C14.0757959 8.13186279 15.14426758 8.80596191 16.24511719 9.50048828 C19.54462348 11.58452793 22.8390282 13.676427 26.13232422 15.77026367 C28.033347 16.97602261 29.93438769 18.18175333 31.83544922 19.38745117 C36.34965385 22.25399735 40.85870373 25.12855218 45.36621094 28.00561523 C50.18128006 31.07739985 55.00083085 34.14214061 59.81982422 37.20776367 C61.55291691 38.31059718 63.2859905 39.41346071 65.01904297 40.51635742 C65.84710449 41.03955566 66.67516602 41.56275391 67.52832031 42.10180664 C69.40425823 43.30377174 71.26485763 44.52979705 73.11523438 45.77075195 C74.09669434 46.42156738 75.0781543 47.07238281 76.08935547 47.74291992 C77.42897339 48.64602905 77.42897339 48.64602905 78.7956543 49.56738281 C79.95230591 50.16280884 79.95230591 50.16280884 81.13232422 50.77026367 C82.12232422 50.44026367 83.11232422 50.11026367 84.13232422 49.77026367 C84.62732422 48.78026367 84.62732422 48.78026367 85.13232422 47.77026367 C88.57602003 49.05506066 91.57246375 50.5460132 94.65966797 52.53588867 C95.52269531 53.08889648 96.38572266 53.6419043 97.27490234 54.21166992 C98.19722656 54.80850586 99.11955078 55.4053418 100.06982422 56.02026367 C102.05803389 57.29641686 104.04631718 58.57245537 106.03466797 59.84838867 C107.04899902 60.50129883 108.06333008 61.15420898 109.10839844 61.8269043 C113.7726252 64.82442125 118.45272985 67.79681968 123.13232422 70.77026367 C124.96574481 71.93679321 126.79907788 73.10346031 128.63232422 74.27026367 C129.99357422 75.13651367 129.99357422 75.13651367 131.38232422 76.02026367 C134.13232422 77.77026367 136.88232422 79.52026367 139.63232422 81.27026367 C140.54151611 81.84873047 141.45070801 82.42719727 142.38745117 83.02319336 C144.20409767 84.17946147 146.02034731 85.33635334 147.83618164 86.49389648 C152.67159967 89.57513255 157.51525227 92.64239581 162.37060547 95.69213867 C163.38703125 96.33280273 164.40345703 96.9734668 165.45068359 97.63354492 C167.41173527 98.86927612 169.37519478 100.10119634 171.34130859 101.32885742 C172.21722656 101.88186523 173.09314453 102.43487305 173.99560547 103.00463867 C174.77202393 103.49158203 175.54844238 103.97852539 176.34838867 104.48022461 C178.13232422 105.77026367 178.13232422 105.77026367 179.13232422 107.77026367 C176.39445861 109.47808101 173.64036502 111.15775841 170.88232422 112.83276367 C170.10501953 113.3180957 169.32771484 113.80342773 168.52685547 114.3034668 C167.77275391 114.75786133 167.01865234 115.21225586 166.24169922 115.68041992 C165.20480957 116.31669312 165.20480957 116.31669312 164.14697266 116.96582031 C161.60388237 117.98126899 160.66045197 117.769538 158.13232422 116.77026367 C156.51447948 115.88524546 154.92973306 114.93864167 153.37060547 113.95385742 C152.42942871 113.3627417 151.48825195 112.77162598 150.51855469 112.16259766 C149.50422363 111.51750244 148.48989258 110.87240723 147.44482422 110.20776367 C146.38408691 109.5388208 145.32334961 108.86987793 144.23046875 108.18066406 C140.85970024 106.05119679 137.49462742 103.91305775 134.13232422 101.77026367 C133.07029785 101.09350586 132.00827148 100.41674805 130.9140625 99.71948242 C125.69554886 96.38971996 120.4826048 93.05136553 115.27294922 89.70776367 C109.27691794 85.85996174 103.26921006 82.03073563 97.25732422 78.20776367 C95.96640869 77.38683228 95.96640869 77.38683228 94.64941406 76.54931641 C92.99957427 75.50030852 91.34967369 74.45139623 89.69970703 73.40258789 C85.17629841 70.52663601 80.65436459 67.64836629 76.13232422 64.77026367 C76.46232422 62.79026367 76.79232422 60.81026367 77.13232422 58.77026367 C76.30547119 58.24408447 76.30547119 58.24408447 75.46191406 57.70727539 C66.82340495 52.21004232 58.18489583 46.71280924 49.54638672 41.21557617 C48.65089111 40.64572998 47.75539551 40.07588379 46.83276367 39.48876953 C45.02134946 38.33602162 43.20998943 37.18318856 41.39868164 36.03027344 C36.75256196 33.07312625 32.10546153 30.11754035 27.45654297 27.16479492 C23.7625677 24.81853971 20.07133387 22.46806776 16.38232422 20.11401367 C12.93251944 17.91266114 9.47368255 15.72669371 6.00732422 13.55151367 C4.44468322 12.56215301 2.88217564 11.57258156 1.31982422 10.58276367 C0.60205811 10.13715088 -0.11570801 9.69153809 -0.85522461 9.23242188 C-5.75433797 6.11027712 -5.75433797 6.11027712 -6.86767578 2.77026367 C-2.44535228 -0.30079431 -2.44535228 -0.30079431 0 0 Z " fill="#FFFFFF" transform="translate(213.86767578125,365.229736328125)"/>
<path d="M0 0 C2.00124376 0.71155334 3.98192199 1.48364574 5.9375 2.3125 C6.92105469 2.68375 7.90460938 3.055 8.91796875 3.4375 C11.28391673 4.34516975 13.61484896 5.30019413 15.9375 6.3125 C8.96517115 13.50974268 1.35024148 19.83170049 -6.55639648 25.96337891 C-10.83159479 29.29708696 -14.9702155 32.75738888 -19.0625 36.3125 C-24.18809199 40.76331421 -29.43499409 45.0033855 -34.80151367 49.15917969 C-39.71284177 52.98468633 -44.43037066 57.00956115 -49.13330078 61.08691406 C-53.65251523 64.99451523 -58.28513924 68.72316017 -63.0625 72.3125 C-64.7125 71.3225 -66.3625 70.3325 -68.0625 69.3125 C-69.06216797 70.13041016 -69.06216797 70.13041016 -70.08203125 70.96484375 C-71.46455078 72.09599609 -71.46455078 72.09599609 -72.875 73.25 C-73.88949219 74.08015625 -74.90398437 74.9103125 -75.94921875 75.765625 C-77.84705246 77.31845111 -79.74551951 78.87048871 -81.64453125 80.421875 C-87.29459131 85.03912838 -92.93118849 89.67240794 -98.5625 94.3125 C-104.20385151 98.96086482 -109.8493185 103.60384424 -115.51171875 108.2265625 C-117.30926165 109.69652867 -119.10320489 111.1709021 -120.89453125 112.6484375 C-122.75396846 114.17973873 -124.61957565 115.70358827 -126.4921875 117.21875 C-128.12291614 118.5471247 -129.73504446 119.89894016 -131.3203125 121.28125 C-133.19461167 122.84910482 -134.87817689 124.2179486 -137.0625 125.3125 C-140.84117018 124.75269701 -142.38173129 123.99326871 -145.0625 121.3125 C-139.10185131 115.75014351 -132.96088186 110.59733881 -126.51904297 105.61206055 C-122.25814449 102.29694634 -118.13732065 98.85311463 -114.0625 95.3125 C-108.93972398 90.8640369 -103.69556465 86.62636932 -98.33227539 82.47241211 C-92.77226865 78.14100643 -87.44174962 73.56147754 -82.12109375 68.94140625 C-79.4894743 66.66088917 -76.79835238 64.4675569 -74.0625 62.3125 C-75.0525 59.8375 -75.0525 59.8375 -76.0625 57.3125 C-70.3962817 52.10440148 -64.64225111 47.08927719 -58.6015625 42.3203125 C-50.40690851 35.84023227 -42.39777563 29.12054197 -34.33520508 22.47729492 C-23.35525346 13.43173692 -23.35525346 13.43173692 -19.59765625 10.43359375 C-16.97186981 8.29506543 -16.97186981 8.29506543 -14.37109375 5.66015625 C-6.70950972 -1.5872881 -6.70950972 -1.5872881 0 0 Z " fill="#FFFFFF" transform="translate(331.0625,9.6875)"/>
<path d="M0 0 C3.56261692 1.88669612 6.33588418 4.3212138 9.33203125 6.99609375 C10.57987177 8.08822 11.82857885 9.17935689 13.078125 10.26953125 C13.69284668 10.80803711 14.30756836 11.34654297 14.94091797 11.90136719 C19.10852834 15.51706012 23.4221017 18.95881336 27.70703125 22.43359375 C29.54106379 23.93273875 31.37439106 25.43274697 33.20703125 26.93359375 C34.56828125 28.04734375 34.56828125 28.04734375 35.95703125 29.18359375 C44.20703125 35.93359375 44.20703125 35.93359375 46.94140625 38.171875 C48.82543935 39.71263088 50.71091537 41.25162365 52.59765625 42.7890625 C57.69019468 46.94240327 62.74097741 51.12968042 67.70703125 55.43359375 C68.30515625 55.10359375 68.90328125 54.77359375 69.51953125 54.43359375 C71.70703125 53.43359375 71.70703125 53.43359375 74.70703125 53.43359375 C76.81890222 55.04489503 78.78771708 56.67469064 80.76953125 58.43359375 C81.95221627 59.45938199 83.13581654 60.48411592 84.3203125 61.5078125 C85.19163818 62.26457275 85.19163818 62.26457275 86.08056641 63.03662109 C88.16485609 64.82682007 90.30120452 66.54295353 92.45703125 68.24609375 C99.29380741 73.66644157 105.99756226 79.24935429 112.72705078 84.80175781 C116.20466005 87.66789103 119.69342689 90.52026676 123.18359375 93.37109375 C124.88858495 94.76464693 126.59166384 96.16054258 128.29296875 97.55859375 C136.04143092 103.92096738 143.86900724 110.18221428 151.70703125 116.43359375 C150.70703125 119.43359375 150.70703125 119.43359375 149.00463867 120.35668945 C146.63905465 121.16892863 144.27357708 121.97396346 141.89453125 122.74609375 C140.66379883 123.18018555 140.66379883 123.18018555 139.40820312 123.62304688 C138.61349609 123.88666016 137.81878906 124.15027344 137 124.421875 C136.27321045 124.66462158 135.5464209 124.90736816 134.79760742 125.1574707 C131.27811679 125.6223246 129.25382378 123.84003312 126.515625 121.8046875 C125.73316406 121.16660156 124.95070313 120.52851563 124.14453125 119.87109375 C123.25765625 119.15050781 122.37078125 118.42992187 121.45703125 117.6875 C120.54953125 116.94371094 119.64203125 116.19992187 118.70703125 115.43359375 C117.88203125 114.76199219 117.05703125 114.09039062 116.20703125 113.3984375 C109.77840934 108.15558274 103.38188055 102.8735085 96.97973633 97.59838867 C90.29397803 92.09049423 83.59827549 86.59489424 76.875 81.1328125 C71.3905678 76.66873978 65.98676758 72.13845908 60.70703125 67.43359375 C61.36703125 65.78359375 62.02703125 64.13359375 62.70703125 62.43359375 C54.77224725 55.68461213 46.78839505 49.0070646 38.70703125 42.43359375 C36.87323246 40.93416283 35.03990182 39.43415917 33.20703125 37.93359375 C31.84578125 36.81984375 31.84578125 36.81984375 30.45703125 35.68359375 C27.70703125 33.43359375 24.95703125 31.18359375 22.20703125 28.93359375 C21.29566406 28.18851562 20.38429687 27.4434375 19.4453125 26.67578125 C17.64870857 25.20466762 15.85435668 23.73079847 14.0625 22.25390625 C10.04644473 18.94933369 6.0236533 15.66487642 1.90234375 12.4921875 C1.25821533 11.99444824 0.61408691 11.49670898 -0.04956055 10.98388672 C-1.32026929 10.00478707 -2.59508541 9.03099129 -3.87426758 8.06298828 C-5.38357403 6.8989259 -6.84354555 5.67142232 -8.29296875 4.43359375 C-8.29296875 3.77359375 -8.29296875 3.11359375 -8.29296875 2.43359375 C-3.03023441 -0.74852469 -3.03023441 -0.74852469 0 0 Z " fill="#FFFFFF" transform="translate(194.29296875,377.56640625)"/>
<path d="M0 0 C1.88372061 1.61113752 3.5926082 3.21332904 5.31933594 4.97875977 C5.83685928 5.49584503 6.35438263 6.0129303 6.8875885 6.54568481 C8.59372597 8.25390966 10.28899592 9.97250895 11.984375 11.69140625 C13.16627559 12.87890296 14.34884096 14.06573835 15.53204346 15.25193787 C18.64252102 18.3738629 21.74388392 21.50469244 24.84344482 24.63745117 C28.00867181 27.83338097 31.18242168 31.0208219 34.35546875 34.20898438 C40.57869148 40.46436954 46.79231978 46.72919325 53 53 C54.65 52.01 56.3 51.02 58 50 C81.1 73.1 104.2 96.2 128 120 C127.67 120.66 127.34 121.32 127 122 C124.43745494 122.48383718 121.96089411 122.84382435 119.375 123.125 C118.32505859 123.25455078 118.32505859 123.25455078 117.25390625 123.38671875 C115.16589122 123.63077246 113.0978453 123.85825986 111 124 C109.92863297 124.11673065 108.85726593 124.2334613 107.75343323 124.35372925 C102.9315885 123.89931128 100.89579923 121.84068135 97.69750977 118.4921875 C97.11127335 117.90697327 96.52503693 117.32175903 95.92103577 116.71881104 C93.99409357 114.78700538 92.09310894 112.83163003 90.19140625 110.875 C88.85773052 109.52826387 87.52249726 108.18306853 86.18577576 106.83935547 C82.67668067 103.30357069 79.18911531 99.7472711 75.70562744 96.1862793 C72.1452986 92.55426326 68.56499813 88.94205438 64.98632812 85.328125 C57.97120062 78.23798959 50.97865939 71.12602021 44 64 C44.99 62.35 45.98 60.7 47 59 C43.7318517 55.70687173 40.46023304 52.41724235 37.18554688 49.13061523 C36.07524416 48.0153271 34.96584571 46.89913789 33.85742188 45.78198242 C28.43533825 40.31830339 23.01652255 34.92536006 17.15820312 29.92456055 C12.50079561 25.77135428 8.12631746 21.3122556 3.71533203 16.90063477 C1.98096686 15.16849124 0.23870409 13.4445469 -1.50390625 11.72070312 C-2.60725787 10.62027978 -3.71014039 9.51938584 -4.8125 8.41796875 C-5.33424805 7.90340622 -5.85599609 7.38884369 -6.39355469 6.85868835 C-10 3.22886878 -10 3.22886878 -10 1 C-3.60281782 -1.47163857 -3.60281782 -1.47163857 0 0 Z " fill="#FFFFFF" transform="translate(169,388)"/>
<path d="M0 0 C0.98846924 0.18445175 1.97693848 0.3689035 2.99536133 0.5589447 C5.01336009 0.96466149 7.01171258 1.46742301 9 2 C4.75170758 7.07180756 0.31642618 11.83741455 -4.375 16.5 C-4.99632812 17.12519531 -5.61765625 17.75039063 -6.2578125 18.39453125 C-6.88171875 19.01714844 -7.505625 19.63976562 -8.1484375 20.28125 C-8.69677246 20.82845703 -9.24510742 21.37566406 -9.81005859 21.93945312 C-11.70655852 23.72389676 -13.64315947 25.41912307 -15.61767578 27.11547852 C-20.62570886 31.47801159 -25.28797034 36.16277978 -29.96875 40.87109375 C-31.35012146 42.25458763 -31.35012146 42.25458763 -32.75939941 43.66603088 C-35.18147554 46.09188477 -37.60053079 48.52072852 -40.0189209 50.95025635 C-42.49773837 53.43939116 -44.97946797 55.92561895 -47.4609375 58.41210938 C-52.31010924 63.27193458 -57.15608863 68.13493178 -62 73 C-63.65 72.01 -65.3 71.02 -67 70 C-67.65653061 70.68095734 -68.31306122 71.36191467 -68.98948669 72.06350708 C-75.182548 78.4796291 -81.40451217 84.86644773 -87.65586758 91.22580147 C-90.86886963 94.49619516 -94.07085694 97.7760102 -97.24975586 101.07958984 C-100.31851552 104.26794139 -103.41344839 107.42858827 -106.52827644 110.57192612 C-107.71133015 111.77529354 -108.88466346 112.98829814 -110.04784966 114.21088028 C-119.21747501 123.82962263 -119.21747501 123.82962263 -123.78860474 124.26654053 C-126.10218067 123.76729683 -127.93688363 123.14623779 -130 122 C-128.638932 118.86601612 -127.20571197 117.08407225 -124.56640625 114.93530273 C-119.05952167 110.26917157 -114.02319292 105.14799775 -108.9375 100.03515625 C-107.8954026 98.99118934 -106.85308091 97.94744628 -105.81054688 96.90391541 C-103.09255554 94.18214078 -100.3775831 91.45737477 -97.66326904 88.73193359 C-94.88282982 85.94118927 -92.09948971 83.15334129 -89.31640625 80.36523438 C-83.87479158 74.91295642 -78.43636897 69.45750891 -73 64 C-73.99 62.35 -74.98 60.7 -76 59 C-68.50452708 51.10942105 -60.96283343 43.26628233 -53.35990906 35.47910213 C-49.83024685 31.86097022 -46.31800937 28.22890068 -42.84179688 24.55932617 C-39.48177821 21.01362615 -36.08102279 17.51200012 -32.6489563 14.03604317 C-31.35172189 12.70756391 -30.06946078 11.36428015 -28.80343628 10.00602531 C-19.45226165 0.00210709 -13.73943742 -3.04584444 0 0 Z " fill="#FFFFFF" transform="translate(289,1)"/>
<path d="M0 0 C3.51085928 -0.65966041 6.49896909 -0.77964134 10 0 C13.62526513 2.83637853 16.22617837 6.35049218 19 10 C20.49589646 11.81588822 21.99589594 13.6284043 23.5 15.4375 C25.00149134 17.29045919 26.50151542 19.1446084 28 21 C30.53298027 24.10540519 33.07166169 27.20612509 35.61181641 30.30566406 C36.64578878 31.56767044 37.67923322 32.83010938 38.71240234 34.09277344 C40.59826187 36.39655883 42.4864459 38.69842322 44.375 41 C45.28608521 42.1139917 45.28608521 42.1139917 46.21557617 43.25048828 C46.79154541 43.95157715 47.36751465 44.65266602 47.9609375 45.375 C48.47446777 46.00148438 48.98799805 46.62796875 49.51708984 47.2734375 C50.94234108 48.93286732 52.43203795 50.47586842 54 52 C55.65 51.34 57.3 50.68 59 50 C64.8969783 56.9330829 70.75960687 63.88790702 76.5078125 70.9453125 C79.55603688 74.68153736 82.62104748 78.4037321 85.6875 82.125 C86.28046875 82.84478027 86.8734375 83.56456055 87.484375 84.30615234 C89.3227614 86.53756288 91.16134962 88.76880697 93 91 C96.59370662 95.36094499 100.1870646 99.72217004 103.77734375 104.0859375 C105.80709222 106.55290883 107.84076825 109.01651923 109.87890625 111.4765625 C111.11447266 112.97316406 111.11447266 112.97316406 112.375 114.5 C113.08398438 115.3559375 113.79296875 116.211875 114.5234375 117.09375 C116 119 116 119 116 120 C111.32754286 120.1260933 106.67302606 120.09281085 102 120 C100.87722656 120.01546875 99.75445312 120.0309375 98.59765625 120.046875 C92.09626036 119.70013389 88.51815723 118.11640896 84.23071289 113.35961914 C82.17433524 110.88162063 80.21147565 108.3486214 78.29882812 105.75830078 C76.57866977 103.42962024 74.7602882 101.18634642 72.9375 98.9375 C72.31746094 98.15246094 71.69742188 97.36742187 71.05859375 96.55859375 C68.5918847 93.49275992 66.05130316 90.49548001 63.5 87.5 C59.50574569 82.81010943 55.60344684 78.06347779 51.796875 73.21875 C50.08514321 71.10513336 48.28227074 69.12209125 46.4375 67.125 C45.633125 66.09375 44.82875 65.0625 44 64 C44.34765625 62.0546875 44.34765625 62.0546875 45 60 C45 55.04637573 43.13541009 53.35424097 40 49.875 C38.97806053 48.7066958 37.9572343 47.53741694 36.9375 46.3671875 C36.43347656 45.79323242 35.92945313 45.21927734 35.41015625 44.62792969 C33.54048349 42.46951938 31.76570746 40.2439199 30 38 C26.90926212 34.09857677 23.72615678 30.28913983 20.5 26.5 C15.89175435 21.08317938 11.39790865 15.58977886 7 10 C6.32453125 9.14792969 5.6490625 8.29585938 4.953125 7.41796875 C0 1.1275 0 1.1275 0 0 Z " fill="#FFFFFF" transform="translate(127,392)"/>
<path d="M0 0 C-2.78068497 4.33631292 -5.81474098 8.29053965 -9.1875 12.1875 C-10.16868636 13.33402168 -11.14914452 14.48116691 -12.12890625 15.62890625 C-12.8561792 16.4799292 -12.8561792 16.4799292 -13.59814453 17.34814453 C-17.13094628 21.51096875 -20.55535999 25.7642763 -24 30 C-34.9311454 43.39013651 -45.91150156 56.73979103 -57 70 C-59 69 -61 68 -63 67 C-63.22816406 67.53882812 -63.45632812 68.07765625 -63.69140625 68.6328125 C-65.39643519 71.7171335 -67.63028147 74.23555478 -69.9375 76.875 C-73.87848768 81.45008 -77.68405222 86.09620818 -81.375 90.875 C-85.87706116 96.69046901 -90.612178 102.26621156 -95.49755859 107.76318359 C-98.09924662 110.71078436 -100.40605334 113.59479953 -102.51953125 116.9140625 C-105 120 -105 120 -107.89453125 120.68359375 C-109.33892578 120.56177734 -109.33892578 120.56177734 -110.8125 120.4375 C-111.78832031 120.37433594 -112.76414063 120.31117187 -113.76953125 120.24609375 C-114.87361328 120.12427734 -114.87361328 120.12427734 -116 120 C-111.66020776 114.06044121 -107.07223672 108.35169815 -102.38818359 102.68115234 C-100.85702752 100.82685394 -99.32872706 98.97022574 -97.80078125 97.11328125 C-92.90282543 91.16173988 -88.00200368 85.21258392 -83.09375 79.26953125 C-82.46041748 78.50205566 -81.82708496 77.73458008 -81.17456055 76.94384766 C-79.96062036 75.47285838 -78.7459733 74.0024521 -77.53051758 72.53271484 C-76.46096364 71.23621938 -75.39763105 69.93455168 -74.34228516 68.62646484 C-73.27658398 67.3351405 -72.1394525 66.10283345 -70.98046875 64.89453125 C-70.65691406 64.26933594 -70.33335937 63.64414062 -70 63 C-70.34417969 62.03191406 -70.68835938 61.06382813 -71.04296875 60.06640625 C-71.35878906 59.05449219 -71.67460937 58.04257812 -72 57 C-70.61328125 54.46484375 -70.61328125 54.46484375 -68.3125 51.9375 C-67.47460938 50.98875 -66.63671875 50.04 -65.7734375 49.0625 C-65.3206543 48.56492188 -64.86787109 48.06734375 -64.40136719 47.5546875 C-62.01356328 44.90563955 -59.73342853 42.16607032 -57.4375 39.4375 C-56.96715332 38.88344482 -56.49680664 38.32938965 -56.01220703 37.75854492 C-52.70253614 33.8584785 -49.48859812 29.89263638 -46.3125 25.8828125 C-42.5371361 21.17636223 -38.6829813 16.53461795 -34.8347168 11.88769531 C-33.96327026 10.83340332 -33.96327026 10.83340332 -33.07421875 9.7578125 C-32.29437622 8.81639404 -32.29437622 8.81639404 -31.4987793 7.85595703 C-30.44189618 6.54720553 -29.43727016 5.19540611 -28.47314453 3.81689453 C-25.7800273 0.49535353 -21.75026045 0.82224627 -17.71875 0.3046875 C-11.80636193 -0.17973085 -5.92647359 -0.15993482 0 0 Z " fill="#FFFFFF" transform="translate(243,0)"/>
<path d="M0 0 C4.73108514 0.12603301 8.59684651 0.64658516 12.09375 4.01953125 C14.22461098 6.93199902 16.12679806 9.9151492 18 13 C18.72834518 14.16019001 19.4588844 15.31900502 20.19140625 16.4765625 C21.39481431 18.38569459 22.59194716 20.29784126 23.77490234 22.21972656 C28.4061963 29.7418358 33.28481723 37.10169748 38.17407227 44.45800781 C38.79983154 45.40772461 39.42559082 46.35744141 40.0703125 47.3359375 C40.63508301 48.18720215 41.19985352 49.0384668 41.78173828 49.91552734 C43 52 43 52 43 54 C43.598125 53.67 44.19625 53.34 44.8125 53 C47 52 47 52 50 52 C51.64692722 54.28296068 53.07970942 56.51761109 54.5 58.9375 C55.39575287 60.41750432 56.29293571 61.89664393 57.19140625 63.375 C57.65434082 64.14199219 58.11727539 64.90898437 58.59423828 65.69921875 C60.80804666 69.32251332 63.11970778 72.88015135 65.4375 76.4375 C66.35943085 77.85673456 67.28130547 79.27600564 68.203125 80.6953125 C68.66267578 81.40204102 69.12222656 82.10876953 69.59570312 82.83691406 C71.02079415 85.03202993 72.44086238 87.23031561 73.859375 89.4296875 C74.80206786 90.89063498 75.744776 92.35157261 76.6875 93.8125 C77.3676416 94.86727539 77.3676416 94.86727539 78.06152344 95.94335938 C81.50877972 101.27571659 85.04332138 106.54207343 88.63671875 111.77734375 C90 114 90 114 90 116 C80.03804614 114.82800543 65.90904872 112.95657456 58.96875 105.078125 C56.80303199 102.06124179 55.09907859 98.80703912 53.38769531 95.51708984 C50.74489175 90.72340499 47.65455562 86.19861984 44.6600647 81.61956787 C42.90598881 78.9313667 41.17041304 76.23172558 39.44140625 73.52734375 C38.85045166 72.60687256 38.25949707 71.68640137 37.65063477 70.73803711 C35.93548503 67.89298397 34.44687872 64.98915301 33 62 C34.32 61.34 35.64 60.68 37 60 C31.01128601 50.02711038 24.87004189 40.17189778 18.5 30.4375 C17.86755371 29.47102539 17.23510742 28.50455078 16.58349609 27.50878906 C14.14536495 23.78799164 11.70382829 20.06945593 9.25830078 16.35351562 C7.68919621 13.96733249 6.12541768 11.57773799 4.5625 9.1875 C4.09585938 8.48230225 3.62921875 7.77710449 3.1484375 7.05053711 C0 2.22676758 0 2.22676758 0 0 Z " fill="#FFFFFF" transform="translate(100,388)"/>
<path d="M0 0 C-1.62330365 4.73234284 -4.19760712 8.60980176 -6.9375 12.75 C-7.93631393 14.27596573 -8.93500855 15.80200957 -9.93359375 17.328125 C-10.44390137 18.10478516 -10.95420898 18.88144531 -11.47998047 19.68164062 C-13.83707836 23.276726 -16.16797565 26.88862162 -18.5 30.5 C-19.40869137 31.90505322 -20.31754636 33.31000063 -21.2265625 34.71484375 C-21.6793457 35.41464355 -22.13212891 36.11444336 -22.59863281 36.83544922 C-24.05166254 39.07979792 -25.5061614 41.3231892 -26.9609375 43.56640625 C-27.44884766 44.31921875 -27.93675781 45.07203125 -28.43945312 45.84765625 C-29.3621039 47.27117459 -30.28524039 48.69437831 -31.20898438 50.1171875 C-34.1879869 54.71491742 -37.10956394 59.34610443 -40 64 C-41.65 63.34 -43.3 62.68 -45 62 C-50.01397753 68.61060725 -54.57041108 75.37987345 -58.91967773 82.43676758 C-63.04400156 89.1171209 -67.32316589 95.69229424 -71.62182617 102.26147461 C-72.41036987 103.46815796 -72.41036987 103.46815796 -73.21484375 104.69921875 C-73.71056885 105.45033936 -74.20629395 106.20145996 -74.71704102 106.9753418 C-76.11927792 109.11749013 -76.11927792 109.11749013 -77.5234375 112 C-79 114 -79 114 -81.69921875 114.92578125 C-82.68535156 115.05339844 -83.67148438 115.18101563 -84.6875 115.3125 C-85.68136719 115.45300781 -86.67523438 115.59351562 -87.69921875 115.73828125 C-88.45847656 115.82464844 -89.21773438 115.91101563 -90 116 C-88.62023773 112.21438914 -86.87418851 109.05699638 -84.6484375 105.703125 C-83.62955444 104.15842529 -83.62955444 104.15842529 -82.59008789 102.58251953 C-82.22899933 102.03936096 -81.86791077 101.49620239 -81.49588013 100.93658447 C-79.57749286 98.04999375 -77.67463941 95.15317674 -75.76953125 92.2578125 C-75.37718796 91.6623764 -74.98484467 91.06694031 -74.58061218 90.45346069 C-70.35953839 84.04159254 -66.20359318 77.58872704 -62.0625 71.125 C-61.38300293 70.06829102 -60.70350586 69.01158203 -60.00341797 67.92285156 C-59.06006592 66.44896973 -59.06006592 66.44896973 -58.09765625 64.9453125 C-57.54601807 64.08437988 -56.99437988 63.22344727 -56.42602539 62.33642578 C-55.16163173 60.26482035 -54.04401846 58.18918312 -53 56 C-54.32 55.34 -55.64 54.68 -57 54 C-53.07936146 46.70355874 -48.73728783 39.76925634 -44.1262207 32.89160156 C-41.36553864 28.74886566 -38.76019799 24.66835531 -36.55078125 20.203125 C-32.09725606 11.57923602 -28.18094939 7.37032343 -18.86645508 3.98730469 C-6.31757267 0 -6.31757267 0 0 0 Z " fill="#FFFFFF" transform="translate(190,8)"/>
<path d="M0 0 C7.51507307 2.5456569 11.95176419 5.00837723 15.62597656 12.14794922 C16.0587793 13.06850098 16.49158203 13.98905273 16.9375 14.9375 C17.92998624 16.89764377 18.92350903 18.85726297 19.91796875 20.81640625 C20.41731934 21.82719238 20.91666992 22.83797852 21.43115234 23.87939453 C24.06571723 29.11982533 26.91751473 34.23972236 29.75 39.375 C30.76661792 41.23643723 31.78233677 43.09836596 32.796875 44.9609375 C33.22323242 45.74259277 33.64958984 46.52424805 34.08886719 47.32958984 C34.38954102 47.8808252 34.69021484 48.43206055 35 49 C37.475 48.505 37.475 48.505 40 48 C43.89805058 54.04162468 47.28563751 60.22856441 50.5625 66.625 C54.78754122 74.79907472 59.08695951 82.92577544 63.5 91 C64.23778687 92.35085693 64.23778687 92.35085693 64.99047852 93.72900391 C67.06461332 97.51387966 69.15712591 101.27890286 71.34375 105 C73 108 73 108 73 110 C66.94461316 108.36231608 61.82412711 105.24258988 56.4375 102.125 C55.50486328 101.59519531 54.57222656 101.06539063 53.61132812 100.51953125 C46.5637737 96.47082928 41.30226757 93.34561648 37.5546875 85.87890625 C37.25813263 85.2971312 36.96157776 84.71535614 36.65603638 84.11595154 C35.71789417 82.27018172 34.79602309 80.41686191 33.875 78.5625 C32.9434278 76.71360205 32.00856766 74.86640608 31.07254028 73.01976013 C30.22498755 71.34349914 29.38545678 69.66318914 28.54638672 67.98266602 C27.06204688 65.00632539 27.06204688 65.00632539 25.30126953 62.35913086 C24 60 24 60 24 56 C25.98 55.505 25.98 55.505 28 55 C26.11079812 51.4666606 24.22064254 47.93383288 22.3298645 44.40133667 C21.65287966 43.13613025 20.97618178 41.87077024 20.29977417 40.60525513 C16.60169115 33.68640018 12.88845447 26.77736139 9.109375 19.90234375 C8.51084717 18.81050781 7.91231934 17.71867187 7.2956543 16.59375 C6.15651236 14.51925684 5.01228793 12.44754498 3.86254883 10.37890625 C3.35232178 9.44820313 2.84209473 8.5175 2.31640625 7.55859375 C1.86724854 6.74704834 1.41809082 5.93550293 0.95532227 5.09936523 C0 3 0 3 0 0 Z " fill="#FFFFFF" transform="translate(70,377)"/>
<path d="M0 0 C-1.458079 3.82294764 -3.17775593 7.42395848 -5.0546875 11.05859375 C-5.35253143 11.63609375 -5.65037537 12.21359375 -5.95724487 12.80859375 C-6.92711127 14.6863168 -7.90080127 16.56202143 -8.875 18.4375 C-9.20681274 19.07817413 -9.53862549 19.71884827 -9.88049316 20.37893677 C-15.31620859 30.87104424 -20.90108142 41.27443277 -26.609375 51.62109375 C-28.49283273 55.04270863 -30.28770852 58.48980247 -32 62 C-33.65 61.34 -35.3 60.68 -37 60 C-38.19222322 62.08073647 -39.37933766 64.16410767 -40.5625 66.25 C-40.94946045 66.93151123 -41.3364209 67.61302246 -41.73510742 68.31518555 C-44.50316921 73.23225545 -47.17255212 78.19638221 -49.796875 83.19140625 C-50.46534671 84.45869404 -51.1338855 85.72594645 -51.80249023 86.99316406 C-52.80727707 88.89827713 -53.80854237 90.80486347 -54.79959106 92.71716309 C-55.73964914 94.53074687 -56.69105746 96.33797348 -57.64453125 98.14453125 C-58.19471924 99.20003174 -58.74490723 100.25553223 -59.31176758 101.34301758 C-62.70417917 106.68207982 -67.2682495 107.99388733 -73 110 C-71.756333 106.03013943 -70.30885961 102.40406929 -68.3828125 98.71875 C-67.86364258 97.72174072 -67.34447266 96.72473145 -66.80957031 95.69750977 C-66.25366211 94.64233154 -65.69775391 93.58715332 -65.125 92.5 C-64.26793457 90.86212524 -64.26793457 90.86212524 -63.39355469 89.19116211 C-58.04882559 79.01369899 -52.55996698 68.91594635 -47.00878906 58.84985352 C-46.31578099 57.57905919 -45.64732965 56.29465931 -45 55 C-46.65 54.34 -48.3 53.68 -50 53 C-48.17947994 49.26506485 -46.33264906 45.54730495 -44.44140625 41.84765625 C-42.76074411 38.5559372 -41.18593734 35.23356914 -39.65234375 31.87109375 C-33.74688837 19.4671861 -27.41455716 13.09878939 -15.1015625 7.04150391 C-13.18227502 6.09033286 -11.32495796 5.07957792 -9.46875 4.01171875 C-2.45977011 0 -2.45977011 0 0 0 Z " fill="#FFFFFF" transform="translate(143,25)"/>
<path d="M0 0 C7.07308837 3.28178152 11.35819042 6.41715746 14.26171875 13.80859375 C15.11256412 16.34793846 15.91722158 18.87536824 16.6875 21.4375 C17.11555479 22.75572708 17.54717396 24.07280228 17.98242188 25.38867188 C19.02377273 28.58292786 20.02786723 31.78414011 21 35 C22.98 35 24.96 35 27 35 C33.6 53.81 40.2 72.62 47 92 C41.17648086 92 36.09837915 85.48150583 31.90185547 81.68359375 C30.14229873 80.12596817 28.33906813 78.65437577 26.50390625 77.1875 C15.47672138 67.88877942 12.00762887 55.50345215 8 42 C8.66 41.34 9.32 40.68 10 40 C10.99 40 11.98 40 13 40 C12.60619141 38.85934082 12.21238281 37.71868164 11.80664062 36.54345703 C10.34993867 32.32153524 8.89725632 28.09823975 7.44580078 23.87451172 C6.81636822 22.04470543 6.18583799 20.21527636 5.55419922 18.38623047 C4.64784295 15.76106984 3.74540942 13.13458946 2.84375 10.5078125 C2.55939087 9.68693146 2.27503174 8.86605042 1.98205566 8.02029419 C0 2.22774341 0 2.22774341 0 0 Z " fill="#FFFFFF" transform="translate(49,364)"/>
<path d="M0 0 C0.66 0 1.32 0 2 0 C-0.09423278 7.2516958 -2.47451363 14.36888923 -5.01171875 21.4765625 C-5.57135063 23.05345352 -5.57135063 23.05345352 -6.14228821 24.66220093 C-7.32174636 27.98394903 -8.50456485 31.30448874 -9.6875 34.625 C-10.49306193 36.89184771 -11.29840262 39.15877405 -12.10351562 41.42578125 C-14.06645435 46.95143223 -16.03214532 52.47609796 -18 58 C-19.65 57.67 -21.3 57.34 -23 57 C-23.52522595 58.2690242 -24.04458795 59.54047334 -24.5625 60.8125 C-24.93117188 61.71097656 -25.29984375 62.60945313 -25.6796875 63.53515625 C-26.71131195 66.2424074 -27.63102155 68.92583807 -28.5078125 71.68359375 C-33.35847233 86.52955261 -33.35847233 86.52955261 -38.9375 90.1875 C-41.27734375 91.35546875 -41.27734375 91.35546875 -43 92 C-43.66 91.67 -44.32 91.34 -45 91 C-44.64172119 89.99098633 -44.28344238 88.98197266 -43.91430664 87.94238281 C-42.58366383 84.19336856 -41.25545686 80.44349517 -39.92797852 76.69335938 C-39.35344629 75.07137955 -38.77825657 73.44963247 -38.20239258 71.828125 C-37.37407623 69.49540321 -36.54813944 67.16185062 -35.72265625 64.828125 C-35.46533218 64.10506165 -35.20800812 63.38199829 -34.94288635 62.63702393 C-33.81671614 59.44662151 -32.78532088 56.29003417 -32 53 C-33.32 52.67 -34.64 52.34 -36 52 C-35.44510443 48.94807434 -34.76725398 46.00412379 -34 43 C-33.68933594 41.72769531 -33.37867188 40.45539063 -33.05859375 39.14453125 C-29.58439383 26.62721472 -22.72224686 19.32149893 -13 11 C-12.42862305 10.50935059 -11.85724609 10.01870117 -11.26855469 9.51318359 C-8.90633962 7.5062263 -6.51268107 5.55031025 -4.07421875 3.63671875 C-1.94131787 2.01937377 -1.94131787 2.01937377 0 0 Z " fill="#FFFFFF" transform="translate(94,55)"/>
<path d="M0 0 C1.33277084 4.37532668 0.39206578 8.01325563 -0.58203125 12.37890625 C-0.75627121 13.1873851 -0.93051117 13.99586395 -1.11003113 14.82884216 C-1.47995045 16.53518708 -1.85426692 18.24058386 -2.23266602 19.94506836 C-2.81063657 22.55408828 -3.37214341 25.16626043 -3.93164062 27.77929688 C-4.29329504 29.43771309 -4.65589353 31.09592378 -5.01953125 32.75390625 C-5.27123833 33.92585289 -5.27123833 33.92585289 -5.5280304 35.12147522 C-6.30520645 38.58562498 -7.00920464 41.01380697 -9 44 C-10.65 43.67 -12.3 43.34 -14 43 C-14.1546875 44.85625 -14.1546875 44.85625 -14.3125 46.75 C-14.52635152 48.50193747 -14.75699719 50.25186757 -15 52 C-15.12632813 52.93972656 -15.25265625 53.87945312 -15.3828125 54.84765625 C-17.09450691 63.9967834 -21.78765612 69.42633781 -28 76 C-28.66 75.67 -29.32 75.34 -30 75 C-27.36 64.11 -24.72 53.22 -22 42 C-22.99 41.34 -23.98 40.68 -25 40 C-23.49695354 34.6464525 -21.02342752 30.31257404 -18.125 25.625 C-17.64828857 24.84785645 -17.17157715 24.07071289 -16.68041992 23.27001953 C-11.60837487 15.14388407 -5.89010323 7.54508861 0 0 Z " fill="#FFFFFF" transform="translate(52,98)"/>
<path d="M0 0 C5.40897939 1.80299313 8.22689464 6.17914884 11 11 C13.28211568 17.5833086 15 25.03256526 15 32 C16.98 31.67 18.96 31.34 21 31 C22.12587092 35.97938698 23.24670157 40.95987283 24.36303711 45.94140625 C24.74286508 47.63311773 25.12402755 49.3245302 25.5065918 51.015625 C26.05875905 53.45754326 26.60599153 55.90052496 27.15234375 58.34375 C27.3221727 59.08991577 27.49200165 59.83608154 27.66697693 60.6048584 C28.73088986 65.39070976 29.45824481 70.12661112 30 75 C21.77709826 67.00630807 15.73311736 57.85901143 10 48 C9.51901855 47.17483887 9.03803711 46.34967773 8.54248047 45.49951172 C6.54859373 42.00535994 4.82716285 38.96682399 4 35 C5.485 34.505 5.485 34.505 7 34 C4.69 22.78 2.38 11.56 0 0 Z " fill="#FFFFFF" transform="translate(23,339)"/>
<path d="M0 0 C0.33 0 0.66 0 1 0 C2.57542103 31.02367564 2.57542103 31.02367564 -5.98681641 44.26318359 C-7.74207694 47.27208081 -8.79137382 50.51439629 -9.875 53.8125 C-11.03014704 57.32236986 -11.9438864 59.9158296 -14 63 C-13.69090167 47.29218486 -11.50060878 11.50060878 0 0 Z " fill="#FFFFFF" transform="translate(14,158)"/>
<path d="M0 0 C1.67382666 2.51073999 2.55674283 4.27807801 3.515625 7.0625 C3.79462646 7.85309814 4.07362793 8.64369629 4.36108398 9.45825195 C4.65442627 10.29702881 4.94776855 11.13580566 5.25 12 C7.19592708 17.54102349 9.08502235 22.44702769 12.4375 27.3125 C17.22870974 35.26819575 15.46130228 46.06138118 15 55 C14.34 55 13.68 55 13 55 C8.86309421 42.97492639 5.32797834 30.91762279 2.5625 18.5 C2.30388184 17.34975342 2.04526367 16.19950684 1.77880859 15.0144043 C0.6706815 9.88808229 -0.13281194 5.2657746 0 0 Z " fill="#FFFFFF" transform="translate(0,291)"/>
</svg>
