<?xml version="1.0" encoding="UTF-8"?>
<svg version="1.1" xmlns="http://www.w3.org/2000/svg" width="468" height="468">
<path d="M0 0 C10.38942892 9.30180731 20.33065153 19.21942131 28.72265625 30.375 C29.20798828 31.01099121 29.69332031 31.64698242 30.19335938 32.30224609 C37.93295526 42.48926583 44.69925578 52.90401102 50.61132812 64.25048828 C51.65256248 66.24100263 52.72288296 68.21277112 53.80078125 70.18359375 C64.19298974 89.57680798 70.39488993 110.89485317 74.72265625 132.375 C74.90054687 133.21869141 75.0784375 134.06238281 75.26171875 134.93164062 C86.57774493 190.74838881 72.84234566 253.90007998 42.22265625 301.375 C40.43004142 304.07131646 38.58973293 306.7298111 36.72265625 309.375 C36.2539209 310.0443457 35.78518555 310.71369141 35.30224609 311.40332031 C27.91568233 321.85699532 19.64907319 331.2192274 10.72265625 340.375 C9.74082662 341.39707894 8.75905251 342.41921121 7.77734375 343.44140625 C1.78831185 349.57547169 -4.46167262 355.17785217 -11.27734375 360.375 C-11.92058594 360.86758301 -12.56382812 361.36016602 -13.2265625 361.86767578 C-23.4056912 369.59845121 -33.81681879 376.3570518 -45.15283203 382.26367188 C-47.14334638 383.30490623 -49.11511487 384.37522671 -51.0859375 385.453125 C-70.47915173 395.84533349 -91.79719692 402.04723368 -113.27734375 406.375 C-114.12103516 406.55289062 -114.96472656 406.73078125 -115.83398438 406.9140625 C-171.65073256 418.23008868 -234.80242373 404.49468941 -282.27734375 373.875 C-284.97366021 372.08238517 -287.63215485 370.24207668 -290.27734375 368.375 C-290.94668945 367.90626465 -291.61603516 367.4375293 -292.30566406 366.95458984 C-302.75933907 359.56802608 -312.12157115 351.30141694 -321.27734375 342.375 C-322.29942269 341.39317037 -323.32155496 340.41139626 -324.34375 339.4296875 C-330.47781544 333.4406556 -336.08019592 327.19067113 -341.27734375 320.375 C-341.76992676 319.73175781 -342.26250977 319.08851563 -342.77001953 318.42578125 C-350.50079496 308.24665255 -357.25939555 297.83552496 -363.16601562 286.49951172 C-364.20724998 284.50899737 -365.27757046 282.53722888 -366.35546875 280.56640625 C-376.74767724 261.17319202 -382.94957743 239.85514683 -387.27734375 218.375 C-387.45523437 217.53130859 -387.633125 216.68761719 -387.81640625 215.81835938 C-399.13243243 160.00161119 -385.39703316 96.84992002 -354.77734375 49.375 C-352.98472892 46.67868354 -351.14442043 44.0201889 -349.27734375 41.375 C-348.8086084 40.7056543 -348.33987305 40.03630859 -347.85693359 39.34667969 C-340.47036983 28.89300468 -332.20376069 19.5307726 -323.27734375 10.375 C-322.29551412 9.35292106 -321.31374001 8.33078879 -320.33203125 7.30859375 C-314.34299935 1.17452831 -308.09301488 -4.42785217 -301.27734375 -9.625 C-300.63410156 -10.11758301 -299.99085938 -10.61016602 -299.328125 -11.11767578 C-289.1489963 -18.84845121 -278.73786871 -25.6070518 -267.40185547 -31.51367188 C-265.41134112 -32.55490623 -263.43957263 -33.62522671 -261.46875 -34.703125 C-242.07553577 -45.09533349 -220.75749058 -51.29723368 -199.27734375 -55.625 C-198.43365234 -55.80289063 -197.58996094 -55.98078125 -196.72070312 -56.1640625 C-127.12533246 -70.27350209 -52.53079728 -46.07433715 0 0 Z " fill="#7967E5" transform="translate(390.27734375,58.625)"/>
<path d="M0 0 C19.15086387 -0.11319713 38.30145369 -0.20516355 57.45256805 -0.25906086 C66.34626813 -0.28475987 75.23974442 -0.31974997 84.13330078 -0.37719727 C91.8917601 -0.42728827 99.65005721 -0.45935123 107.40867376 -0.47044247 C111.51069586 -0.47691814 115.61225424 -0.49196051 119.71412659 -0.52865028 C123.58840812 -0.563018 127.46204251 -0.57297256 131.33646202 -0.56553841 C132.74560268 -0.56689503 134.15476887 -0.57658227 135.56377602 -0.59602737 C152.43914106 -0.81715832 169.51116675 4.25500964 182.09375 15.9609375 C195.78413856 30.60516461 200.55467677 45.97801402 200.1875 65.6875 C200.125625 70.410625 200.06375 75.13375 200 80 C186.8 80 173.6 80 160 80 C160 92.87 160 105.74 160 119 C116.935 119.495 116.935 119.495 73 120 C80.88210035 127.9151445 80.88210035 127.9151445 89.08789062 135.34179688 C92.39927709 138.2134691 95.56545106 141.23929741 98.75 144.25 C105.4495214 150.55708081 112.20304042 156.79812306 119 163 C120.97971935 164.81190208 122.95904849 166.62421515 124.9375 168.4375 C125.43096924 168.88971924 125.92443848 169.34193848 126.43286133 169.80786133 C132.85308359 175.69471449 139.24800757 181.60898979 145.64550781 187.52050781 C151.42124684 192.85697495 157.20049542 198.18935718 163 203.5 C168.24055409 208.29880834 173.46522593 213.11458172 178.68359375 217.9375 C180.96432188 220.04508562 183.24856659 222.14877554 185.53515625 224.25 C186.11531494 224.78375244 186.69547363 225.31750488 187.29321289 225.86743164 C188.39448363 226.8804873 189.49648152 227.89275332 190.59936523 228.90405273 C193.81220876 231.8618842 196.9200048 234.90477334 200 238 C192.4459127 238.1627727 184.89200899 238.28686114 177.33656311 238.3626852 C173.82742009 238.39909381 170.31948375 238.44840628 166.81103516 238.52807617 C162.76974462 238.61926296 158.72970498 238.65275482 154.6875 238.68359375 C153.4382373 238.71972275 152.18897461 238.75585175 150.90185547 238.79307556 C144.96487041 238.79573432 140.98612516 238.66702084 136.38574219 234.6809082 C135.23511256 233.47459156 134.10579632 232.24754273 133 231 C131.72368442 229.79644412 130.43831264 228.60235583 129.140625 227.421875 C127.8426669 226.19906531 126.54581739 224.97507798 125.25 223.75 C118.5504786 217.44291919 111.79695958 211.20187694 105 205 C103.02028065 203.18809792 101.04095151 201.37578485 99.0625 199.5625 C98.56903076 199.11028076 98.07556152 198.65806152 97.56713867 198.19213867 C92.24628489 193.31332239 86.94331665 188.41517912 81.64111328 183.51611328 C78.92822415 181.00985896 76.21406708 178.50497855 73.5 176 C70.23764315 172.98897128 66.97556408 169.97764474 63.71484375 166.96484375 C57.71947275 161.42633925 51.71574946 155.89729169 45.69311523 150.38842773 C42.10136561 147.10136561 42.10136561 147.10136561 41 146 C40.67 176.36 40.34 206.72 40 238 C26.8 238 13.6 238 0 238 C-0.04529398 224.64733521 -0.08194103 211.29472195 -0.10362434 197.94199753 C-0.11403441 191.7409249 -0.12814271 185.53990784 -0.15087891 179.33886719 C-0.17270652 173.34772449 -0.18458948 167.35663504 -0.18975449 161.36545563 C-0.19343249 159.08667412 -0.20061445 156.80789532 -0.21146011 154.52913666 C-0.34622548 125.02418379 -0.34622548 125.02418379 5.6875 113.75 C6.04126709 113.0681665 6.39503418 112.38633301 6.75952148 111.68383789 C9.55490028 106.46367267 12.75740572 102.14483865 17 98 C17.77730469 97.11828125 17.77730469 97.11828125 18.5703125 96.21875 C28.09999252 85.72229085 42.09303366 80.22737923 56 79 C59.48587967 78.86948139 62.96709771 78.87318643 66.45507812 78.88647461 C67.47061768 78.88632858 68.48615723 78.88618256 69.5324707 78.8860321 C72.8654194 78.88672482 76.19831115 78.89448704 79.53125 78.90234375 C81.8515215 78.90421021 84.17179339 78.90563304 86.49206543 78.90663147 C92.58131001 78.91043869 98.67053052 78.92025358 104.75976562 78.93133545 C110.98046544 78.94158823 117.20116916 78.94613736 123.421875 78.95117188 C135.61459388 78.96187752 147.80729493 78.9789323 160 79 C159.97701992 74.99876194 159.89946345 71.00031861 159.8125 67 C159.80669922 65.87464844 159.80089844 64.74929687 159.79492188 63.58984375 C159.5781526 55.35261145 158.32952206 50.23135998 152.39299774 44.42943287 C146.23832347 39.71180878 139.10620821 40.29024907 131.68945312 40.34057617 C130.24985369 40.33211272 128.8102657 40.32146392 127.37069702 40.30880737 C123.48270396 40.28076442 119.59526455 40.28311406 115.707201 40.29110122 C111.63654645 40.29423487 107.56606559 40.26916689 103.4954834 40.24714661 C95.79628695 40.20975309 88.09726711 40.1975614 80.3979888 40.1945222 C71.62884056 40.18982627 62.85986868 40.15688582 54.09079838 40.12162435 C36.06050891 40.04975252 18.03043056 40.01691099 0 40 C0 26.8 0 13.6 0 0 Z " fill="#FEFDFE" transform="translate(138,115)"/>
</svg>
