<svg width="70" height="25" viewBox="0 0 70 25" fill="none" xmlns="http://www.w3.org/2000/svg">
<path d="M13.9518 0.528809H0V4.52876H13.9518C15.0525 4.52876 15.9449 5.42435 15.9449 6.52878V8.52881H6.10167C2.7318 8.52881 0 11.2606 0 14.6305V24.5287H3.98624V15.1228L14.0744 24.5282H19.9321L7.06057 12.5288H15.9449V8.54827H19.9321V6.52878C19.9321 3.21507 17.2538 0.528809 13.9518 0.528809Z" fill="#3A1344"/>
<path d="M26.8463 0.528809H22.8429V24.5287H26.8463V0.528809Z" fill="#3A1344"/>
<path d="M29.779 8.48151C29.779 11.7952 32.4572 14.4815 35.7593 14.4815H42.5106C43.6112 14.4815 44.5036 15.3832 44.5036 16.4878L44.5036 18.5287C44.5036 19.6333 43.6111 20.5288 42.5104 20.5288H29.779V24.5287H42.5104C45.8125 24.5287 48.4908 21.8424 48.4908 18.5287L48.4909 16.4878C48.4909 13.1741 45.8126 10.4878 42.5106 10.4878H35.7593C34.6586 10.4878 33.7662 9.58605 33.7662 8.48151L33.7663 6.52878C33.7663 5.42435 34.6587 4.52876 35.7594 4.52876H47.2705V0.528809H35.7594C32.4573 0.528809 29.7791 3.21507 29.7791 6.52878L29.779 8.48151Z" fill="#3A1344"/>
<path d="M50.7218 6.52878L50.7217 8.54827H54.709L54.709 6.52878C54.709 5.42435 55.6015 4.52876 56.7021 4.52876H69.5718V0.528809H56.7021C53.4 0.528809 50.7218 3.21507 50.7218 6.52878Z" fill="#3A1344"/>
<path d="M56.8402 10.4878H68.2162V14.4815L56.8402 14.4877C55.7396 14.4877 54.8472 15.3832 54.8472 16.4878L54.8472 18.5288C54.8472 19.6333 55.7397 20.5288 56.8403 20.5288H69.5718V24.5288H56.8403C53.5382 24.5288 50.86 21.8424 50.86 18.5288L50.8599 16.4878C50.8599 13.174 53.5382 10.4878 56.8402 10.4878Z" fill="#3A1344"/>
</svg>
