<?xml version="1.0" encoding="UTF-8"?>
<svg version="1.1" xmlns="http://www.w3.org/2000/svg" width="1768" height="2500">
<path d="M0 0 C0.99160879 -0.00165078 1.98321757 -0.00330156 3.00487511 -0.00500236 C6.31855173 -0.00930686 9.63218346 -0.00653249 12.94586116 -0.00377727 C15.35948332 -0.00542787 17.77310521 -0.00751458 20.18672666 -0.00999737 C25.44624992 -0.0143977 30.70576039 -0.01569913 35.96528431 -0.01426902 C43.83918653 -0.01214383 51.71307904 -0.01576696 59.58697976 -0.0204838 C73.00798373 -0.02835001 86.42898504 -0.03144548 99.84999114 -0.03192973 C113.45053834 -0.03243228 127.05108257 -0.03508082 140.65162879 -0.04033732 C141.51076934 -0.04066746 142.36990989 -0.04099759 143.255085 -0.04133773 C146.7542774 -0.04268774 150.2534698 -0.04405041 153.75266219 -0.04542983 C195.17227417 -0.06172889 236.59188557 -0.06811807 278.01150021 -0.0728777 C298.63848717 -0.07526137 319.26547381 -0.07896494 339.89246052 -0.0829148 C406.06591088 -0.0955792 472.23936122 -0.10636292 538.41281277 -0.10975526 C541.57530435 -0.1099175 544.73779593 -0.11008306 547.90028752 -0.11024964 C554.24265361 -0.11058344 560.58501971 -0.11091392 566.92738581 -0.1112442 C574.3526648 -0.1116311 581.77794379 -0.11202071 589.20322278 -0.11241527 C591.32839326 -0.11252769 593.45356374 -0.1126391 595.57873421 -0.11274952 C663.8239144 -0.11629854 732.06908406 -0.13137529 800.31426023 -0.15468726 C849.35502238 -0.17143239 898.39578254 -0.18690541 947.43654758 -0.19142222 C948.44542274 -0.19151571 949.4542979 -0.1916092 950.49374504 -0.19170551 C972.64285669 -0.19372472 994.79196831 -0.19488063 1016.94108005 -0.1952341 C1024.86687911 -0.19537027 1032.79267818 -0.19557926 1040.71847725 -0.19582735 C1042.69018554 -0.19588891 1044.66189384 -0.19594723 1046.63360214 -0.1960023 C1078.03172974 -0.19692153 1109.42984634 -0.20688268 1140.82797033 -0.22145979 C1172.46127588 -0.23608729 1204.09456795 -0.24111048 1235.72787628 -0.23304025 C1240.1037348 -0.23192494 1244.47959333 -0.23091426 1248.85545188 -0.22996593 C1249.71320169 -0.22977596 1250.57095149 -0.22958599 1251.45469371 -0.22939027 C1265.01033117 -0.22666168 1278.5659436 -0.23398231 1292.12157562 -0.24553929 C1305.46654687 -0.25670601 1318.8114829 -0.25708547 1332.15645472 -0.24616911 C1339.96945026 -0.24009658 1347.78233922 -0.2421032 1355.59532459 -0.25642108 C1361.41395548 -0.2661542 1367.23248753 -0.26002608 1373.0511102 -0.24801075 C1375.37695872 -0.24559267 1377.70281952 -0.24810385 1380.02865447 -0.25640723 C1436.95654182 -0.44613943 1487.47682879 18.42230305 1528.13450271 58.63790441 C1547.62640919 78.24398411 1561.4318345 102.16562542 1570.60764724 128.1276505 C1570.8574031 128.83421788 1571.10715896 129.54078526 1571.36448318 130.26876378 C1578.71906822 151.68478499 1580.20167748 173.63806159 1580.1110118 196.11136174 C1580.11519391 198.7635652 1580.12096286 201.41572345 1580.12862927 204.0679149 C1580.14207944 209.81027677 1580.1409642 215.55248617 1580.12989509 221.29485101 C1580.11339973 229.89134742 1580.12027969 238.48772217 1580.13142566 247.08422163 C1580.14975684 261.74144618 1580.14925935 276.39861505 1580.13830215 291.05584455 C1580.1272749 305.89744816 1580.12499357 320.73901517 1580.13325149 335.580621 C1580.13376818 336.5200368 1580.13428487 337.4594526 1580.13481722 338.42733554 C1580.13695044 342.25379044 1580.13914529 346.08024531 1580.14141832 349.90670013 C1580.1625473 385.50077859 1580.16402301 421.09483253 1580.15282851 456.68891454 C1580.15249733 457.74245308 1580.15216615 458.79599161 1580.15182493 459.88145556 C1580.15149322 460.93669015 1580.1511615 461.99192473 1580.15081973 463.07913612 C1580.14072054 495.24843249 1580.13812442 527.41771872 1580.1429103 559.58701634 C1580.14322022 561.74257224 1580.14352885 563.89812813 1580.14383618 566.05368403 C1580.14507809 574.71632241 1580.14635276 583.37896078 1580.14767524 592.04159914 C1580.15134298 616.25612725 1580.15362559 640.4706554 1580.15481979 664.68518376 C1580.15487437 665.78778693 1580.15492895 666.89039009 1580.15498519 668.02640547 C1580.15662191 703.15159365 1580.15211678 738.27677831 1580.14342147 773.40196538 C1580.14299998 775.1104383 1580.14299998 775.1104383 1580.14256997 776.85342582 C1580.13799037 795.34887613 1580.13311243 813.84432636 1580.12820927 832.33977658 C1580.10878445 905.69144095 1580.10968605 979.04307611 1580.12913162 1052.39474034 C1580.13401652 1070.88093874 1580.13886078 1089.36713714 1580.14342147 1107.85333562 C1580.14370326 1108.99165216 1580.14398506 1110.12996869 1580.14427539 1111.30277967 C1580.15290221 1146.39189266 1580.15655683 1181.48100322 1580.15481979 1216.57011724 C1580.15473828 1218.22280211 1580.15473828 1218.22280211 1580.15465513 1219.90887456 C1580.15340513 1244.09665817 1580.1508704 1268.28444153 1580.14717778 1292.47222489 C1580.14586125 1301.12704349 1580.14460892 1309.7818621 1580.14337493 1318.43668072 C1580.14306538 1320.58970516 1580.14275045 1322.74272959 1580.14243015 1324.89575402 C1580.1376589 1357.05512211 1580.14171547 1389.21447878 1580.15182493 1421.37384544 C1580.15232171 1422.95415324 1580.15232171 1422.95415324 1580.15282851 1424.56638646 C1580.15332461 1426.14376933 1580.15332461 1426.14376933 1580.15383072 1427.75301852 C1580.16487136 1463.24599755 1580.16078945 1498.73894719 1580.13970554 1534.23192203 C1580.1374962 1538.04617465 1580.13534938 1541.86042731 1580.13325149 1545.67467999 C1580.13273066 1546.61074018 1580.13220983 1547.54680037 1580.13167322 1548.51122602 C1580.1237953 1563.31041279 1580.12926419 1578.10956291 1580.14032751 1592.90874637 C1580.15092984 1607.47386512 1580.14715586 1622.03892228 1580.12827116 1636.60403325 C1580.11763271 1645.13356575 1580.11775585 1653.66292898 1580.13419755 1662.19245322 C1580.14403722 1667.87108098 1580.13914469 1673.54957809 1580.12273013 1679.2281902 C1580.11384882 1682.43830069 1580.11304544 1685.64801601 1580.1259962 1688.85812201 C1580.20093536 1708.86392579 1578.64265969 1728.72536454 1572.42014724 1747.8776505 C1572.12535476 1748.81044835 1571.83056228 1749.7432462 1571.52683669 1750.70431066 C1558.59005365 1790.28865536 1533.02038545 1821.57160317 1500.42405349 1846.71407628 C1497.35075903 1849.10579334 1494.32661351 1851.55830615 1491.29514724 1854.0026505 C1485.98258507 1858.27486477 1480.6005563 1862.44399583 1475.17014724 1866.5651505 C1468.88302941 1871.33763478 1462.72922753 1876.24593224 1456.62742263 1881.25240636 C1451.1676935 1885.71470431 1445.58267943 1889.99447492 1439.96311599 1894.2526505 C1435.09892141 1897.95192828 1430.33176092 1901.75145466 1425.60764724 1905.6276505 C1419.49461685 1910.64347031 1413.2651931 1915.4773061 1406.96311599 1920.2526505 C1402.09892141 1923.95192828 1397.33176092 1927.75145466 1392.60764724 1931.6276505 C1386.49461685 1936.64347031 1380.2651931 1941.4773061 1373.96311599 1946.2526505 C1369.09892141 1949.95192828 1364.33176092 1953.75145466 1359.60764724 1957.6276505 C1353.49461685 1962.64347031 1347.2651931 1967.4773061 1340.96311599 1972.2526505 C1336.09892141 1975.95192828 1331.33176092 1979.75145466 1326.60764724 1983.6276505 C1321.18891392 1988.07379066 1315.69427096 1992.39441501 1310.10764724 1996.6276505 C1303.74729103 2001.44735801 1297.5210363 2006.40441882 1291.34812576 2011.46139073 C1287.29739533 2014.77352643 1283.20636824 2018.01805122 1279.04514724 2021.1901505 C1274.4289521 2024.71049612 1269.87817813 2028.29798863 1265.35764724 2031.9401505 C1260.02474805 2036.23437054 1254.62484633 2040.42691011 1249.17014724 2044.5651505 C1242.8829486 2049.33752455 1236.72922338 2054.24593564 1230.62742263 2059.25240636 C1225.1676935 2063.71470431 1219.58267943 2067.99447492 1213.96311599 2072.2526505 C1209.09892141 2075.95192828 1204.33176092 2079.75145466 1199.60764724 2083.6276505 C1193.49461685 2088.64347031 1187.2651931 2093.4773061 1180.96311599 2098.2526505 C1176.09892141 2101.95192828 1171.33176092 2105.75145466 1166.60764724 2109.6276505 C1160.49461685 2114.64347031 1154.2651931 2119.4773061 1147.96311599 2124.2526505 C1143.09892141 2127.95192828 1138.33176092 2131.75145466 1133.60764724 2135.6276505 C1127.49461685 2140.64347031 1121.2651931 2145.4773061 1114.96311599 2150.2526505 C1110.09892141 2153.95192828 1105.33176092 2157.75145466 1100.60764724 2161.6276505 C1095.18891392 2166.07379066 1089.69427096 2170.39441501 1084.10764724 2174.6276505 C1077.74729103 2179.44735801 1071.5210363 2184.40441882 1065.34812576 2189.46139073 C1061.29739533 2192.77352643 1057.20636824 2196.01805122 1053.04514724 2199.1901505 C1048.4289521 2202.71049612 1043.87817813 2206.29798863 1039.35764724 2209.9401505 C1034.02474805 2214.23437054 1028.62484633 2218.42691011 1023.17014724 2222.5651505 C1016.8829486 2227.33752455 1010.72922338 2232.24593564 1004.62742263 2237.25240636 C999.1676935 2241.71470431 993.58267943 2245.99447492 987.96311599 2250.2526505 C983.09892141 2253.95192828 978.33176092 2257.75145466 973.60764724 2261.6276505 C967.49461685 2266.64347031 961.2651931 2271.4773061 954.96311599 2276.2526505 C950.09892141 2279.95192828 945.33176092 2283.75145466 940.60764724 2287.6276505 C934.49461685 2292.64347031 928.2651931 2297.4773061 921.96311599 2302.2526505 C917.09892141 2305.95192828 912.33176092 2309.75145466 907.60764724 2313.6276505 C901.49461685 2318.64347031 895.2651931 2323.4773061 888.96311599 2328.2526505 C884.09892141 2331.95192828 879.33176092 2335.75145466 874.60764724 2339.6276505 C869.18891392 2344.07379066 863.69427096 2348.39441501 858.10764724 2352.6276505 C851.74729103 2357.44735801 845.5210363 2362.40441882 839.34812576 2367.46139073 C835.29739533 2370.77352643 831.20636824 2374.01805122 827.04514724 2377.1901505 C822.4289453 2380.7105013 817.87834955 2384.29819476 813.35764724 2387.9401505 C806.54793714 2393.41889192 799.63002832 2398.74505042 792.66624099 2404.026088 C790.15145571 2405.93645379 787.66320711 2407.87125603 785.20530349 2409.854213 C772.91357189 2419.72142873 759.51255027 2426.97724543 744.60764724 2432.1276505 C743.95215896 2432.35436437 743.29667068 2432.58107823 742.62131912 2432.81466222 C706.63898337 2444.94441496 667.50532382 2442.3982384 632.97092849 2426.8151505 C622.06549112 2421.3434328 612.19401016 2414.66776519 602.60764724 2407.1276505 C601.48674177 2406.25240932 600.36564127 2405.37741787 599.24436599 2404.5026505 C596.28579016 2402.18897213 593.33660379 2399.86361452 590.3898738 2397.53487706 C587.4668485 2395.22688831 584.53694873 2392.92766428 581.60764724 2390.6276505 C580.44094668 2389.71102698 579.27428003 2388.79436028 578.10764724 2387.8776505 C577.53014724 2387.4239005 576.95264724 2386.9701505 576.35764724 2386.5026505 C574.60764724 2385.1276505 572.85764724 2383.7526505 571.10764724 2382.3776505 C570.53022781 2381.92398107 569.95280837 2381.47031163 569.35789138 2381.00289464 C568.19034314 2380.08550041 567.02286275 2379.16801983 565.85544997 2378.25045323 C562.95281934 2375.96920805 560.0490545 2373.68943836 557.14280349 2371.41280675 C551.79069626 2367.21764708 546.45122399 2363.0093647 541.15256912 2358.74679112 C535.22093373 2353.97528632 529.23429729 2349.29225322 523.17014724 2344.6901505 C516.88302941 2339.91766622 510.72922753 2335.00936876 504.62742263 2330.00289464 C499.86252434 2326.10848973 495.01228334 2322.34409607 490.10764724 2318.6276505 C483.83918439 2313.87777701 477.70687684 2308.99112094 471.62717849 2304.0026505 C466.86231731 2300.10838282 462.01219206 2296.3440269 457.10764724 2292.6276505 C450.83918439 2287.87777701 444.70687684 2282.99112094 438.62717849 2278.0026505 C433.86231731 2274.10838282 429.01219206 2270.3440269 424.10764724 2266.6276505 C417.83918439 2261.87777701 411.70687684 2256.99112094 405.62717849 2252.0026505 C400.86231672 2248.10838233 396.01218432 2244.34403834 391.10764724 2240.6276505 C384.74729103 2235.80794299 378.5210363 2230.85088218 372.34812576 2225.79391026 C368.29739533 2222.48177456 364.20636824 2219.23724978 360.04514724 2216.0651505 C355.4289521 2212.54480488 350.87817813 2208.95731237 346.35764724 2205.3151505 C341.02474805 2201.02093045 335.62484633 2196.82839089 330.17014724 2192.6901505 C323.8829486 2187.91777645 317.72922338 2183.00936535 311.62742263 2178.00289464 C306.86252434 2174.10848973 302.01228334 2170.34409607 297.10764724 2166.6276505 C290.83918439 2161.87777701 284.70687684 2156.99112094 278.62717849 2152.0026505 C273.86231731 2148.10838282 269.01219206 2144.3440269 264.10764724 2140.6276505 C257.83918439 2135.87777701 251.70687684 2130.99112094 245.62717849 2126.0026505 C240.86231731 2122.10838282 236.01219206 2118.3440269 231.10764724 2114.6276505 C224.83918439 2109.87777701 218.70687684 2104.99112094 212.62717849 2100.0026505 C207.86231731 2096.10838282 203.01219206 2092.3440269 198.10764724 2088.6276505 C191.83918439 2083.87777701 185.70687684 2078.99112094 179.62717849 2074.0026505 C174.86231672 2070.10838233 170.01218432 2066.34403834 165.10764724 2062.6276505 C158.74729103 2057.80794299 152.5210363 2052.85088218 146.34812576 2047.79391026 C142.29739533 2044.48177456 138.20636824 2041.23724978 134.04514724 2038.0651505 C129.4289521 2034.54480488 124.87817813 2030.95731237 120.35764724 2027.3151505 C115.02474805 2023.02093045 109.62484633 2018.82839089 104.17014724 2014.6901505 C97.8829486 2009.91777645 91.72922338 2005.00936535 85.62742263 2000.00289464 C80.86252434 1996.10848973 76.01228334 1992.34409607 71.10764724 1988.6276505 C64.83918439 1983.87777701 58.70687684 1978.99112094 52.62717849 1974.0026505 C47.86231731 1970.10838282 43.01219206 1966.3440269 38.10764724 1962.6276505 C31.83918439 1957.87777701 25.70687684 1952.99112094 19.62717849 1948.0026505 C14.86231731 1944.10838282 10.01219206 1940.3440269 5.10764724 1936.6276505 C-1.16081561 1931.87777701 -7.29312316 1926.99112094 -13.37282151 1922.0026505 C-18.13768269 1918.10838282 -22.98780794 1914.3440269 -27.89235276 1910.6276505 C-34.16081561 1905.87777701 -40.29312316 1900.99112094 -46.37282151 1896.0026505 C-51.13768328 1892.10838233 -55.98781568 1888.34403834 -60.89235276 1884.6276505 C-67.25270897 1879.80794299 -73.4789637 1874.85088218 -79.65187424 1869.79391026 C-83.70261394 1866.48176698 -87.79380399 1863.23748593 -91.95485276 1860.0651505 C-98.60740297 1854.98711961 -105.14735815 1849.77638817 -111.66139573 1844.52218175 C-113.22603195 1843.26164548 -114.7952529 1842.00680518 -116.36500901 1840.7526505 C-152.98315625 1811.24738078 -177.65571315 1772.72240166 -186.39235276 1726.1276505 C-186.65145623 1724.81251557 -186.65145623 1724.81251557 -186.91579411 1723.47081225 C-189.01551917 1711.17139961 -188.67150922 1698.81258649 -188.64962167 1686.37441754 C-188.65231664 1683.73388312 -188.65580358 1681.09336034 -188.66024613 1678.45282936 C-188.66832284 1672.70496931 -188.66901923 1666.95714547 -188.66483425 1661.20928182 C-188.65860353 1652.60436838 -188.66392255 1643.999488 -188.67143166 1635.39457695 C-188.68388894 1620.72688593 -188.68684539 1606.05920672 -188.68459672 1591.3915112 C-188.68234697 1576.52958922 -188.68441891 1561.66767726 -188.69174165 1546.80575681 C-188.69220095 1545.86662793 -188.69266026 1544.92749906 -188.69313348 1543.95991173 C-188.69501679 1540.13488805 -188.69692817 1536.30986439 -188.69887586 1532.48484075 C-188.71916006 1492.59082865 -188.72528767 1452.69682217 -188.72646008 1412.8028055 C-188.72658958 1408.50917146 -188.72672546 1404.21553741 -188.7268669 1399.92190337 C-188.72690091 1398.8564141 -188.72693492 1397.79092483 -188.72696996 1396.69314801 C-188.72778703 1373.07727793 -188.73216739 1349.46140891 -188.73717859 1325.8455394 C-188.73923532 1316.11990954 -188.74121539 1306.39427966 -188.74321109 1296.66864979 C-188.74343227 1295.59403282 -188.74365345 1294.51941584 -188.74388133 1293.41223472 C-188.75652913 1231.83303986 -188.7647796 1170.2538457 -188.76386422 1108.67464948 C-188.76383266 1106.37028189 -188.76380119 1104.0659143 -188.7637698 1101.76154671 C-188.76362304 1091.35762957 -188.7634467 1080.95371244 -188.76326203 1070.5497953 C-188.76317979 1065.91047221 -188.76309949 1061.27114912 -188.76301941 1056.63182603 C-188.76297862 1054.30976133 -188.76293658 1051.98769664 -188.76289329 1049.66563194 C-188.76153294 976.24703875 -188.77616512 902.82846485 -188.80397385 829.40987706 C-188.810976 810.91328046 -188.81791496 792.41668385 -188.82450265 773.9200871 C-188.82490839 772.78115079 -188.82531414 771.64221447 -188.82573219 770.46876494 C-188.8381642 735.3597492 -188.84569371 700.25073504 -188.84821862 665.1417172 C-188.84829852 664.03925608 -188.84837842 662.93679497 -188.84846075 661.80092595 C-188.85016739 637.59791482 -188.85068966 613.3949038 -188.85011999 589.19189262 C-188.84992703 580.5313317 -188.84982294 571.87077078 -188.84976253 563.21020986 C-188.84974671 561.05571286 -188.8497263 558.90121586 -188.84970129 556.74671887 C-188.8493488 522.43277852 -188.86073808 488.11885471 -188.87800892 453.80491911 C-188.89531851 419.23823527 -188.89968299 384.6715743 -188.88648628 350.10488795 C-188.88466178 345.32444361 -188.8829752 340.54399923 -188.88137025 335.76355481 C-188.88105007 334.82649136 -188.8807299 333.88942791 -188.88040002 332.9239686 C-188.87570082 318.10868225 -188.88439339 303.29343557 -188.89871262 288.47815668 C-188.91252371 273.89692106 -188.91197206 259.31574379 -188.89632835 244.73450941 C-188.88759114 236.19529523 -188.88964719 227.65625329 -188.90806192 219.11705353 C-188.9192156 213.43192578 -188.9156226 207.74692543 -188.90049635 202.0618073 C-188.89234457 198.84796874 -188.89228451 195.63452795 -188.90599773 192.42069894 C-189.11992521 138.6539818 -169.58671088 91.72103851 -131.88649338 53.60518956 C-97.54383935 19.46246042 -48.28709904 -0.11553689 0 0 Z " fill="#004CE3" transform="translate(188.3923527598381,29.872349500656128)"/>
<path d="M0 0 C3.67712168 0.00862847 7.35421136 -0.00041962 11.03133139 -0.00706416 C17.4553553 -0.01629898 23.87930067 -0.01455376 30.30332353 -0.00533163 C39.85612745 0.00834407 49.40887176 0.00467798 58.96168013 -0.00229023 C76.02678844 -0.01418222 93.09185967 -0.00915774 110.15696592 0.00298804 C125.08692757 0.01354141 140.01687662 0.01806134 154.94684198 0.01669253 C156.43472455 0.01656648 156.43472455 0.01656648 157.95266534 0.01643789 C161.97953852 0.01608562 166.0064117 0.0157016 170.03328487 0.01527231 C207.76874122 0.01131169 245.50417527 0.02400537 283.23962525 0.04479888 C316.74895414 0.06317682 350.25826169 0.06897822 383.76759508 0.06352747 C385.92035264 0.06318104 388.07311021 0.06283494 390.22586777 0.06248918 C391.29016394 0.06231819 392.35446011 0.06214719 393.45100769 0.06197102 C398.8087948 0.06111744 404.16658191 0.06029366 409.52436903 0.05950201 C410.58143508 0.05934493 411.63850114 0.05918785 412.7275995 0.05902601 C440.75308563 0.05503502 468.7785697 0.06051258 496.80405459 0.06901331 C499.81984368 0.06992032 502.83563277 0.07082597 505.85142187 0.07172854 C507.85189523 0.07232964 509.8523686 0.07293826 511.85284196 0.07355445 C525.78834334 0.07777275 539.72384069 0.07835538 553.6593425 0.07644895 C571.61408626 0.07400484 589.56880839 0.07808764 607.52354624 0.09365895 C617.01440846 0.10170061 626.50523467 0.10431704 635.99609903 0.0990166 C642.33957167 0.09603452 648.68301254 0.1003577 655.02647758 0.11056517 C658.63774392 0.11617824 662.24893696 0.11871776 665.86020382 0.1123986 C669.75870978 0.10565924 673.65709594 0.11449716 677.55559614 0.12472571 C678.66473518 0.12032922 679.77387422 0.11593274 680.91662353 0.11140303 C688.89433616 0.15119246 696.56270777 1.12036554 704.43287828 2.3792013 C705.85819432 2.57276258 707.28390296 2.7634878 708.71022203 2.9495138 C747.98797411 8.90195862 786.56108344 32.39504752 810.33912828 64.2229513 C823.67371078 82.47429022 833.8404442 101.88228237 839.80787828 123.7542013 C840.04659654 124.60119593 840.28531481 125.44819056 840.53126695 126.32085169 C845.6412922 146.3377354 844.73619648 167.52730565 844.72364571 188.02549053 C844.72323216 192.25266503 844.73432706 196.47981348 844.74376085 200.70697535 C844.76025519 208.96057985 844.76586506 217.21415576 844.76698561 225.46777538 C844.76794137 232.1861624 844.77207775 238.90454013 844.77838686 245.62292422 C844.79596565 264.73528553 844.8052307 283.84762453 844.80372591 302.95999399 C844.80360604 304.50011025 844.80360604 304.50011025 844.80348375 306.07133997 C844.80336111 307.61336932 844.80336111 307.61336932 844.80323599 309.18655078 C844.80242346 325.83839511 844.82156165 342.49014892 844.84976048 359.14196709 C844.87858915 376.30313219 844.8922954 393.46425328 844.89057293 410.62544317 C844.8899126 420.23484023 844.89524755 429.84414229 844.91692903 439.45351733 C844.93527264 447.63484349 844.93938113 455.81603157 844.92591019 463.99736956 C844.91944699 468.15870577 844.91901744 472.3197781 844.93661669 476.48108805 C845.03363351 500.97206038 844.09396615 525.18166772 835.43287828 548.3792013 C834.99201891 549.60123255 834.55115953 550.8232638 834.09694078 552.0823263 C818.05057937 594.45890506 786.32580919 626.70938304 745.34303453 645.30498255 C729.37370412 652.24996952 712.53308459 655.56839957 695.43287828 658.3792013 C696.03422594 658.45847865 696.6355736 658.53775599 697.25514391 658.61943568 C725.07070259 662.42489004 751.42124283 671.03286704 774.43287828 687.3792013 C774.98475817 687.76882044 775.53663805 688.15843958 776.10524156 688.55986536 C792.24257812 700.13961546 806.65339796 714.68520165 817.43287828 731.3792013 C817.85472399 732.02647181 818.27656969 732.67374232 818.7111986 733.34062708 C835.06063822 758.7916255 844.80651237 788.0162906 844.68011644 818.35860194 C844.68170893 819.71904261 844.68417686 821.07948249 844.68743285 822.4399202 C844.69378594 826.14046912 844.68782563 829.84090696 844.67966857 833.54144848 C844.67304405 837.54692443 844.6780503 841.5523889 844.68155077 845.55786646 C844.6865737 853.38910842 844.68097535 861.2203079 844.67170047 869.05154457 C844.66127953 878.18095827 844.66138763 887.31036296 844.66187305 896.43978148 C844.66237288 912.73307358 844.65323299 929.02634599 844.63868883 945.31963099 C844.62459838 961.11292891 844.61751833 976.90620951 844.61818102 992.6995138 C844.61822097 993.67260051 844.61826093 994.64568721 844.6183021 995.64826139 C844.61834245 996.61970301 844.61838281 997.59114462 844.61842438 998.59202386 C844.61911504 1016.59911754 844.6132201 1034.60620391 844.60427117 1052.61329521 C844.601261 1058.9702172 844.60019235 1065.32713784 844.59973886 1071.68406046 C844.59905518 1079.43411918 844.59456895 1087.18416555 844.58540605 1094.93421903 C844.58080439 1098.88494625 844.57773653 1102.83565773 844.57900026 1106.78638781 C844.58010262 1110.40835314 844.57653261 1114.03028378 844.56935174 1117.65224188 C844.56670501 1119.571146 844.5688858 1121.49005495 844.57128378 1123.4089594 C844.54033965 1134.54041361 843.61689203 1144.96253428 840.87037828 1155.7542013 C840.60789293 1156.78859339 840.34540758 1157.82298548 840.07496813 1158.88872279 C831.78396599 1190.39982405 816.36048722 1215.45159237 793.43287828 1238.3792013 C792.92885485 1238.91802943 792.42483141 1239.45685755 791.90553453 1240.0120138 C787.72697553 1244.43364687 783.04567604 1248.12945118 778.24708727 1251.84306849 C773.44588334 1255.56311149 768.73682843 1259.38170869 764.05787828 1263.2542013 C762.61653169 1264.44567972 761.17512526 1265.63708576 759.73365953 1266.82842005 C759.02032457 1267.41800501 758.30698961 1268.00758997 757.57203844 1268.61504115 C748.7331747 1275.90443048 739.82563292 1283.09975389 730.79152086 1290.14555872 C725.36401028 1294.39640646 720.05861111 1298.79032698 714.74952867 1303.18755091 C709.80753493 1307.27171864 704.80062224 1311.25811651 699.74147203 1315.19560755 C695.07188784 1318.8440526 690.49647748 1322.59934844 685.93287828 1326.3792013 C680.12473702 1331.1897012 674.26065887 1335.9121429 668.3152025 1340.55156458 C663.95847483 1343.95435592 659.66770217 1347.43041074 655.39772203 1350.9417013 C646.83095558 1357.98473459 638.24140197 1364.99699785 629.49537828 1371.8167013 C623.49457522 1376.49651875 617.6232484 1381.32278272 611.76271227 1386.17656458 C606.67400445 1390.38181217 601.51938595 1394.49058086 596.3152025 1398.55156458 C591.95847483 1401.95435592 587.66770217 1405.43041074 583.39772203 1408.9417013 C574.27903669 1416.43848609 565.12282028 1423.88142919 555.8061693 1431.13115443 C552.51508439 1433.70463436 549.27267668 1436.32723609 546.06178453 1439.00029505 C545.31340319 1439.62299281 544.56502184 1440.24569056 543.79396227 1440.88725794 C542.34833946 1442.09423224 540.90618979 1443.30538403 539.46827867 1444.52153529 C532.39832169 1450.42692862 525.4425404 1455.71146107 516.05787828 1456.7542013 C508.87854505 1456.01151166 504.25905774 1452.77765865 499.65944078 1447.3557638 C496.13098271 1441.66977722 496.14777689 1436.02436103 496.17954519 1429.56061877 C496.17644792 1428.57198902 496.17335065 1427.58335928 496.17015952 1426.56477106 C496.16217085 1423.23758656 496.16845063 1419.91058068 496.17459276 1416.58339442 C496.17173914 1414.17946055 496.1680017 1411.7755276 496.16345426 1409.37159634 C496.15554211 1404.13722604 496.15380665 1398.90289092 496.15746668 1393.66851748 C496.16285657 1385.88412706 496.15676349 1378.09977543 496.14817789 1370.31538937 C496.13399534 1357.2157621 496.12866317 1344.11614561 496.12791803 1331.01651133 C496.12673929 1313.11352493 496.11153594 1295.21056927 496.09242286 1277.30759402 C496.08352299 1268.96433521 496.07525351 1260.62107576 496.06710127 1252.27781618 C496.06628351 1251.44251604 496.06546576 1250.6072159 496.06462323 1249.74660364 C496.04528025 1229.85981615 496.03174403 1209.97302555 496.0195482 1190.08623255 C496.01901141 1189.21606207 496.01847462 1188.3458916 496.01792156 1187.44935232 C496.0054352 1167.16174822 495.99465458 1146.87414375 495.9858568 1126.58653773 C495.98278702 1119.5568136 495.97969462 1112.52708948 495.97657945 1105.49736536 C495.97600673 1104.19600694 495.97600673 1104.19600694 495.97542244 1102.86835844 C495.96665236 1083.04413095 495.95547626 1063.21990999 495.93544844 1043.39569033 C495.93460577 1042.5613503 495.93376311 1041.72701028 495.93289491 1040.86738722 C495.9244094 1032.53503425 495.91541382 1024.20268196 495.90570313 1015.87033032 C495.90094199 1011.77008337 495.89632643 1007.66983626 495.89181497 1003.56958903 C495.89092709 1002.76267346 495.89003921 1001.95575789 495.88912443 1001.12439033 C495.87522197 988.16493158 495.87254975 975.20549378 495.87449463 962.24602869 C495.8762946 949.20494109 495.86758667 936.16389542 495.84818623 923.1228218 C495.83702463 915.38626471 495.8341434 907.64980952 495.84338258 899.91324935 C495.84938245 894.1188292 495.83963989 888.32451696 495.82406821 882.53011855 C495.82020982 880.19887012 495.8213167 877.86760653 495.82812509 875.53636485 C495.93041698 837.46629733 486.69479528 804.05279154 459.43287828 776.3792013 C445.72241025 762.64744372 429.11331877 752.79250228 410.55787828 747.1292013 C409.79265856 746.89499476 409.02743883 746.66078822 408.23903063 746.4194845 C393.52332083 742.17521205 379.60300486 740.93456999 364.38405016 740.97514857 C362.42424806 740.9694321 360.46444928 740.96246296 358.50465563 740.95435084 C353.23245794 740.93655708 347.9604279 740.93756015 342.68820932 740.94329322 C338.27420557 740.94640145 333.86023327 740.94027541 329.44623401 740.93425448 C319.03615604 740.92025974 308.62616026 740.9217317 298.21608141 740.93315638 C287.49126979 740.94466654 276.7667074 740.93050181 266.04192856 740.90375991 C256.80841849 740.88160218 247.57498668 740.8749647 238.34145191 740.88083632 C232.83719341 740.88420279 227.33309513 740.88180964 221.82885912 740.86458529 C216.6608891 740.84911432 211.49328972 740.85307348 206.32533434 740.87189043 C204.43231442 740.8755741 202.53926699 740.87247435 200.64627245 740.86200465 C198.05709662 740.84877943 195.46914563 740.86035459 192.88002184 740.87799586 C191.76406232 740.86358835 191.76406232 740.86358835 190.62555816 740.84888978 C184.62931974 740.9326317 179.37640497 742.66813642 174.89995697 746.79106183 C170.97163522 751.25667386 169.1825558 755.47793678 169.1838226 761.38322849 C169.17685228 762.86984466 169.17685228 762.86984466 169.16974115 764.38649348 C169.17482007 765.47004826 169.17989899 766.55360304 169.18513182 767.66999281 C169.18263374 768.82990124 169.18013566 769.98980966 169.17756188 771.18486682 C169.17261987 774.41472485 169.17666566 777.64443028 169.1844135 780.87427826 C169.19061855 784.38425574 169.18518942 787.89421785 169.18118867 791.40419585 C169.17575819 797.55938323 169.17768744 803.71453424 169.18438318 809.86971987 C169.19427388 819.02271424 169.19265404 828.17568085 169.18842703 837.32867832 C169.18196459 851.78175287 169.1825054 866.23481676 169.18797758 880.6878914 C169.19664512 903.62910785 169.18791065 926.5702916 169.17363594 949.51150407 C169.16821482 958.3353467 169.16333066 967.15918967 169.15840795 975.98303259 C169.15785772 976.96339872 169.15730748 977.94376485 169.15674057 978.95383904 C169.1437197 1002.29606471 169.13559132 1025.63829126 169.12941149 1048.98051966 C169.12899857 1050.51277977 169.12899857 1050.51277977 169.12857732 1052.07599463 C169.12221629 1075.91111387 169.11926536 1099.74622985 169.1231859 1123.58134974 C169.12335342 1124.6065552 169.12352094 1125.63176065 169.12369354 1126.68803294 C169.12455144 1131.85757594 169.12544969 1137.02711893 169.12636286 1142.19666192 C169.12654327 1143.21834712 169.12672368 1144.24003231 169.12690955 1145.29267766 C169.12727533 1147.35485597 169.12764444 1149.41703427 169.12801689 1151.47921258 C169.13406682 1185.53534874 169.12332675 1219.5914459 169.09353311 1253.64757019 C169.08934776 1258.45511374 169.08538357 1263.26265744 169.08156946 1268.07020129 C169.08081643 1269.01638748 169.08006339 1269.96257367 169.07928754 1270.93743218 C169.06771054 1286.17835309 169.07436174 1301.41921462 169.0881587 1316.66013149 C169.10171627 1331.97180827 169.0975971 1347.28339605 169.07518898 1362.59506326 C169.06244311 1371.69614805 169.06375724 1380.79698234 169.08497767 1389.89805263 C169.097787 1395.97462484 169.09255228 1402.05100722 169.07256947 1408.12755966 C169.06170265 1411.59170355 169.05878466 1415.05535538 169.07789146 1418.51947467 C169.09429459 1422.25040841 169.08012579 1425.98001029 169.05814817 1429.71088637 C169.0763018 1431.32568329 169.0763018 1431.32568329 169.09482217 1432.97310237 C169.00271928 1440.53825485 167.21343494 1445.3949901 161.99025238 1450.89953991 C157.74368962 1454.74779349 153.7200726 1456.12027364 148.12037828 1456.7542013 C139.13274035 1455.84020422 133.30322783 1450.91020692 126.65162828 1445.14092005 C123.43683765 1442.35352365 120.10803415 1439.73484195 116.74537828 1437.1292013 C109.97225827 1431.85199667 103.35126202 1426.40010591 96.73365953 1420.92998255 C87.18208542 1413.03542423 77.56292455 1405.23367069 67.79152086 1397.61284388 C62.36851277 1393.36552251 57.06747076 1388.9753167 51.76271227 1384.58183802 C46.67400445 1380.37659044 41.51938595 1376.26782174 36.3152025 1372.20683802 C31.95847483 1368.80404669 27.66770217 1365.32799187 23.39772203 1361.8167013 C14.83095558 1354.77366801 6.24140197 1347.76140475 -2.50462172 1340.9417013 C-8.50993585 1336.25836582 -14.3856183 1331.42839014 -20.25047133 1326.57085169 C-24.64113901 1322.94231143 -29.07218816 1319.3775676 -33.56712172 1315.8792013 C-38.80826416 1311.80006735 -43.95232699 1307.61558812 -49.06712172 1303.3792013 C-54.87526298 1298.5687014 -60.73934113 1293.84625971 -66.6847975 1289.20683802 C-71.04152517 1285.80404669 -75.33229783 1282.32799187 -79.60227797 1278.8167013 C-88.24980083 1271.70727539 -96.92314726 1264.63429083 -105.75462172 1257.7542013 C-112.51771879 1252.47769957 -119.06064589 1246.96742449 -125.56712172 1241.3792013 C-126.34055922 1240.73080286 -127.11399672 1240.08240443 -127.91087172 1239.41435755 C-156.04702482 1215.5527354 -176.06018139 1175.34198031 -179.10543332 1138.63938249 C-179.69663423 1130.57970577 -179.71086692 1122.54143899 -179.70413611 1114.46630228 C-179.70639684 1112.7788692 -179.70908972 1111.09143666 -179.71217194 1109.40400488 C-179.71936122 1104.77921803 -179.72040125 1100.15444748 -179.72039472 1095.5296558 C-179.72146906 1090.49333995 -179.72826591 1085.45703118 -179.73430142 1080.42071927 C-179.74534815 1070.43723168 -179.75101843 1060.4537476 -179.7550103 1050.47025498 C-179.76002971 1038.50953612 -179.77075869 1026.54882403 -179.78149203 1014.58810917 C-179.80709089 985.68216981 -179.82217186 956.77622737 -179.8350025 927.87028022 C-179.83925593 918.2948538 -179.84382364 908.71942756 -179.84858582 899.14400137 C-179.87349628 848.93725768 -179.89554877 798.7305134 -179.9077762 748.52376486 C-179.90867355 744.85081293 -179.90958825 741.17786101 -179.91050393 737.50490909 C-179.91068555 736.77633652 -179.91086716 736.04776396 -179.91105428 735.29711343 C-179.91289687 727.9160558 -179.91476275 720.53499817 -179.91665237 713.15394055 C-179.91703042 711.67405495 -179.91740671 710.19416935 -179.91778125 708.71428375 C-179.92980761 661.20006207 -179.95949214 613.68587705 -180.00119636 566.17167264 C-180.0311636 532.01938324 -180.05878308 497.86710139 -180.06847403 463.71479929 C-180.06867458 463.01181558 -180.06887514 462.30883186 -180.06908177 461.5845456 C-180.07343325 446.1490413 -180.07637844 430.71353704 -180.07800828 415.27803221 C-180.07868458 409.06675756 -180.0795401 402.85548294 -180.08044645 396.64420832 C-180.08054055 395.96446027 -180.08063465 395.28471222 -180.08073159 394.58436575 C-180.08383823 372.72738682 -180.10231344 350.87045468 -180.12879642 329.01349259 C-180.1561408 306.3709249 -180.16544061 283.7284039 -180.1541418 261.08581982 C-180.14817505 248.04461873 -180.15602399 235.0035998 -180.18397264 221.96242636 C-180.20128202 213.23808574 -180.20022719 204.51386871 -180.18460495 195.78952532 C-180.17623089 190.82721023 -180.17547614 185.86524159 -180.19721641 180.90295927 C-180.41179316 128.70408056 -167.09070748 84.88467368 -130.25462172 46.7542013 C-116.00559967 32.82948132 -99.50747646 22.84388223 -81.56712172 14.3792013 C-80.59516859 13.91642786 -79.62321547 13.45365443 -78.62180922 12.97685755 C-72.45552767 10.2275041 -66.08848872 8.18822244 -59.62962172 6.2542013 C-58.85078627 6.01234095 -58.07195082 5.7704806 -57.2695143 5.52129115 C-38.54248836 0.14121222 -19.32800307 -0.06322605 0 0 Z " fill="#FEFEFE" transform="translate(551.5671217171475,403.62079869862646)"/>
<path d="M0 0 C1.03759909 -0.00507454 2.07519818 -0.01014909 3.14423966 -0.0153774 C4.28274298 -0.01587516 5.4212463 -0.01637292 6.59424973 -0.01688576 C8.41013206 -0.02345914 8.41013206 -0.02345914 10.26269889 -0.03016531 C13.62449565 -0.04122371 16.98624594 -0.04777578 20.34805417 -0.05234647 C23.9732655 -0.05830804 27.59845973 -0.06991634 31.22365952 -0.08063698 C39.97849427 -0.1051459 48.73333467 -0.11978469 57.48819315 -0.13269705 C59.96098055 -0.13640969 62.43376739 -0.14038285 64.90655422 -0.14444971 C80.26362995 -0.16968387 95.62070658 -0.19173597 110.97779846 -0.20417786 C114.53392922 -0.20710752 118.09005995 -0.21006919 121.64619064 -0.21308327 C122.53004274 -0.21382932 123.41389484 -0.21457537 124.32453033 -0.21534403 C138.64552157 -0.22800035 152.96638873 -0.26122836 167.28732195 -0.3028851 C181.99120941 -0.34530519 196.69503332 -0.36887285 211.39898181 -0.37409842 C219.65441516 -0.37751215 227.9096545 -0.38926297 236.16502762 -0.42220116 C243.19483449 -0.45020369 250.22440756 -0.4612001 257.25426587 -0.4500057 C260.8401935 -0.44481975 264.4256315 -0.44770078 268.01148796 -0.47247124 C271.90165994 -0.49911932 275.79116497 -0.48690117 279.68140793 -0.47098732 C280.81098836 -0.48486941 281.9405688 -0.49875149 283.10437894 -0.51305425 C289.99763586 -0.44351893 294.55861418 0.64881316 299.89179611 5.13701439 C301.95038986 7.26982689 301.95038986 7.26982689 303.32929611 9.26201439 C303.80238205 9.92459251 304.27546799 10.58717064 304.76288986 11.26982689 C306.71461153 14.49793401 307.01734941 17.15768019 307.02043056 20.83991528 C307.02365501 21.8126054 307.02687946 22.78529552 307.03020161 23.7874611 C307.02865301 24.85863842 307.02710441 25.92981575 307.02550888 27.03345299 C307.02777444 28.169533 307.03003999 29.30561302 307.0323742 30.4761197 C307.03873152 34.30360584 307.03788371 38.13105673 307.03705978 41.95854759 C307.03950571 44.69486183 307.04342417 47.43117356 307.0472374 50.16748619 C307.05555318 56.84337084 307.05829273 63.51924666 307.05884977 70.19513605 C307.05932487 75.62591488 307.06137929 81.05669081 307.0645504 86.48746872 C307.07336253 101.89333443 307.07796936 117.29919317 307.07721993 132.70506141 C307.07715999 133.95153805 307.07715999 133.95153805 307.07709885 135.22319603 C307.07705797 136.05519932 307.07701709 136.8872026 307.07697497 137.74441811 C307.0765692 151.20455614 307.08611961 164.66466609 307.10023721 178.12479601 C307.11462702 191.95405234 307.12150584 205.78329502 307.12064344 219.61255902 C307.12031218 227.37292838 307.12302754 235.13326838 307.13382149 242.89363098 C307.1429612 249.50712575 307.14507371 256.12057787 307.13831206 262.73407624 C307.13506315 266.10389824 307.13603293 269.47357238 307.14366531 272.84339714 C307.17840816 289.25215608 306.88195661 304.65864723 302.20429611 320.51201439 C301.94446945 321.40195091 301.68464279 322.29188744 301.4169426 323.20879173 C296.29421232 340.19124359 288.37080335 354.57286913 276.89179611 368.13701439 C276.20343674 368.96072533 275.51507736 369.78443626 274.80585861 370.63310814 C253.19068463 395.6427228 223.15209258 408.04135261 190.89179611 411.13701439 C184.10892036 411.58192859 177.32336193 411.55980281 170.52900314 411.54106712 C168.60772434 411.5467917 166.68644893 411.55376387 164.76517868 411.56186485 C159.62556185 411.57956132 154.48611783 411.57867548 149.34647989 411.57292247 C145.03655867 411.56980236 140.72666933 411.57595263 136.4167527 411.58196121 C126.25492295 411.59592138 116.09317748 411.5945109 105.93134689 411.58305931 C95.46884116 411.5715292 85.0065903 411.5857549 74.54411805 411.61245579 C65.52279907 411.63461129 56.50156016 411.64125217 47.48021591 411.63537937 C42.10794875 411.63201518 36.73584576 411.63439192 31.36360168 411.6516304 C26.32523143 411.6670998 21.28724135 411.66314406 16.24888611 411.64432526 C14.40423784 411.64064238 12.55956133 411.64373906 10.71493912 411.65421104 C8.19175946 411.6674405 5.6698358 411.65585805 3.14670944 411.63821983 C2.42239294 411.64782484 1.69807644 411.65742985 0.95181096 411.66732591 C-5.28087584 411.57804141 -10.40222097 409.47210003 -15.13164139 405.39092064 C-15.57765701 404.83275658 -16.02367264 404.27459251 -16.48320389 403.69951439 C-16.94468826 403.14392845 -17.40617264 402.58834251 -17.88164139 402.01592064 C-20.75469557 397.61484082 -21.35907895 393.82005889 -21.36547279 388.60952091 C-21.36897887 387.96456646 -21.37248494 387.31961201 -21.37609726 386.65511349 C-21.38541098 384.49109144 -21.38048812 382.32733852 -21.37562943 380.16330528 C-21.3793657 378.59726518 -21.38396714 377.03122694 -21.38936007 375.46519166 C-21.40160826 371.15931392 -21.40132746 366.85351376 -21.39897132 362.54762256 C-21.39856361 357.90469339 -21.40959789 353.26178924 -21.41908646 348.61887169 C-21.43570739 339.52154601 -21.4411965 330.42424624 -21.44231121 321.32690664 C-21.44326117 313.93292526 -21.44736882 306.53895243 -21.45371246 299.14497375 C-21.47132783 278.18677466 -21.48055087 257.22859607 -21.47905152 236.27038952 C-21.4789716 235.14026 -21.47889169 234.01013049 -21.47880936 232.84575462 C-21.4787276 231.714247 -21.47864583 230.58273938 -21.4785616 229.41694365 C-21.4777486 211.0770952 -21.49688881 192.73732887 -21.52508609 174.39750417 C-21.55380304 155.57129479 -21.56762704 136.74512548 -21.56589854 117.91889364 C-21.56523423 107.3473869 -21.57074453 96.77596624 -21.59225464 86.20447922 C-21.61045078 77.2039275 -21.61482666 68.20350089 -21.60123579 59.20293876 C-21.59469824 54.61054606 -21.59461731 50.01839346 -21.61194229 45.42602348 C-21.62764331 41.22087945 -21.62483994 37.0161665 -21.60737403 32.81103317 C-21.60429756 31.29086001 -21.60796087 29.77065492 -21.61909418 28.25051942 C-21.68017418 19.3181585 -21.70035261 11.86369872 -15.10820389 5.07842064 C-14.44820389 4.62338158 -13.78820389 4.16834251 -13.10820389 3.69951439 C-12.44820389 3.22642845 -11.78820389 2.75334251 -11.10820389 2.26592064 C-7.48352512 0.21995938 -4.11248617 0.01069295 0 0 Z " fill="#004CE3" transform="translate(741.1082038879395,568.8629856109619)"/>
</svg>
