<svg id="svg" version="1.1" xmlns="http://www.w3.org/2000/svg" xmlns:xlink="http://www.w3.org/1999/xlink" width="400" height="400" viewBox="0, 0, 400,400"><g id="svgg"><path id="path0" d="M128.977 79.087 C 78.672 84.341,58.240 147.373,95.676 181.820 C 101.899 187.547,107.799 187.494,110.223 181.690 C 111.600 178.393,110.818 176.420,106.240 171.641 C 102.088 167.306,99.311 163.793,97.226 160.236 C 81.590 133.566,97.535 100.034,128.640 94.173 C 132.759 93.397,284.666 93.270,286.850 94.041 C 288.528 94.634,290.638 96.803,291.126 98.437 C 291.432 99.460,291.520 113.977,291.520 163.449 L 291.520 227.144 292.880 227.366 C 295.206 227.747,300.197 229.450,303.040 230.834 C 304.536 231.561,305.870 232.206,306.004 232.267 C 306.139 232.327,306.211 201.800,306.164 164.428 L 306.080 96.480 305.211 93.920 C 302.636 86.329,296.449 80.756,288.893 79.221 C 286.092 78.652,134.362 78.525,128.977 79.087 M111.680 131.339 L 111.680 138.560 115.995 138.560 L 120.309 138.560 120.405 212.880 C 120.511 295.105,120.325 287.758,122.465 294.554 C 127.219 309.653,140.966 320.116,157.950 321.562 C 165.311 322.189,285.095 322.139,288.349 321.508 C 323.067 314.772,335.845 272.234,310.575 247.520 C 308.955 245.936,307.209 244.428,306.695 244.169 C 306.181 243.909,304.914 243.136,303.879 242.449 C 299.935 239.831,294.430 237.593,288.960 236.385 C 285.512 235.623,165.664 235.093,160.972 235.819 C 156.513 236.509,152.372 239.596,150.345 243.742 L 149.280 245.920 149.280 258.097 L 149.280 270.273 150.468 272.676 C 153.541 278.895,158.323 281.274,167.760 281.278 L 172.160 281.280 172.160 274.080 L 172.160 266.880 167.840 266.880 L 163.520 266.880 163.520 258.560 L 163.520 250.240 167.309 250.240 C 188.955 250.240,201.620 275.673,189.132 294.063 C 174.651 315.386,143.991 310.239,135.878 285.123 L 135.205 283.040 135.043 207.840 L 134.880 132.640 133.982 130.811 C 132.802 128.407,130.820 126.412,128.466 125.256 L 126.560 124.320 119.120 124.219 L 111.680 124.117 111.680 131.339 M160.640 133.923 L 160.640 141.126 206.343 141.043 L 252.047 140.960 253.377 140.080 C 257.450 137.384,257.118 129.730,252.830 127.465 L 251.419 126.720 206.030 126.720 L 160.640 126.720 160.640 133.923 M160.640 168.480 L 160.640 175.680 213.360 175.678 C 248.638 175.677,266.474 175.567,267.270 175.346 C 272.430 173.913,273.485 165.143,268.851 162.204 L 267.395 161.280 214.017 161.280 L 160.640 161.280 160.640 168.480 M160.640 202.720 L 160.640 209.920 206.093 209.920 C 250.844 209.920,251.565 209.910,252.794 209.283 C 257.975 206.640,257.159 197.401,251.609 195.859 C 250.792 195.632,235.850 195.523,205.520 195.522 L 160.640 195.520 160.640 202.720 M284.800 250.572 C 315.075 255.331,317.279 298.077,287.680 306.429 C 285.126 307.150,257.718 307.395,220.901 307.028 L 198.441 306.803 200.008 304.759 C 211.223 290.126,211.533 269.183,200.771 253.105 C 199.819 251.683,199.040 250.456,199.040 250.380 C 199.040 250.067,282.783 250.255,284.800 250.572 " stroke="none" fill="#1c0404" fill-rule="evenodd"></path><path id="path1" d="M130.400 94.121 C 106.848 97.063,88.934 119.284,91.510 142.359 C 92.723 153.226,97.189 162.057,106.095 171.200 C 110.275 175.491,110.824 176.397,110.841 179.040 C 110.870 183.452,107.576 186.442,102.973 186.182 C 100.295 186.031,100.166 185.819,104.240 188.262 C 109.434 191.377,115.935 194.301,119.280 195.026 L 120.320 195.251 120.320 167.065 L 120.320 138.880 116.000 138.880 L 111.680 138.880 111.680 131.334 L 111.680 123.788 118.968 123.894 L 126.256 124.000 128.383 125.048 C 131.018 126.346,133.421 128.875,134.457 131.441 L 135.200 133.280 135.362 208.320 L 135.523 283.360 136.262 285.748 C 143.789 310.096,175.220 314.781,189.153 293.632 C 201.152 275.418,188.820 250.590,167.760 250.565 L 163.840 250.560 163.840 258.560 L 163.840 266.560 168.160 266.560 L 172.480 266.560 172.480 273.920 L 172.480 281.280 166.909 281.280 C 157.548 281.280,153.313 279.036,150.141 272.394 L 148.960 269.920 148.861 258.921 C 148.721 243.499,149.861 240.449,157.103 236.861 L 159.487 235.680 221.903 235.590 C 291.114 235.491,287.373 235.387,293.952 237.589 C 297.634 238.821,301.671 240.763,304.400 242.615 L 306.240 243.864 306.240 238.233 L 306.240 232.602 302.640 230.873 C 299.591 229.409,296.317 228.327,292.080 227.384 L 291.200 227.188 291.193 163.114 C 291.186 101.477,291.163 98.990,290.594 97.737 C 289.844 96.086,288.001 94.557,286.220 94.108 C 284.516 93.679,133.837 93.691,130.400 94.121 M251.609 126.739 C 257.164 128.282,258.188 137.454,253.136 140.424 L 251.680 141.280 206.000 141.364 L 160.320 141.449 160.320 133.924 L 160.320 126.400 205.360 126.402 C 235.802 126.403,250.792 126.512,251.609 126.739 M268.003 161.557 C 273.061 163.855,273.463 171.949,268.665 174.878 L 267.090 175.840 213.705 175.925 L 160.320 176.011 160.320 168.485 L 160.320 160.960 213.520 160.967 C 264.286 160.974,266.779 161.001,268.003 161.557 M252.772 196.146 C 257.627 198.623,257.663 206.944,252.830 209.495 L 251.419 210.240 205.870 210.240 L 160.320 210.240 160.320 202.880 L 160.320 195.520 205.933 195.520 C 250.573 195.520,251.572 195.533,252.772 196.146 " stroke="none" fill="#fbebdb" fill-rule="evenodd"></path><path id="path2" d="M182.775 126.640 C 195.213 126.686,215.661 126.686,228.215 126.640 C 240.769 126.594,230.592 126.556,205.600 126.556 C 180.608 126.556,170.337 126.594,182.775 126.640 M135.197 207.200 C 135.197 247.152,135.234 263.544,135.280 243.626 C 135.325 223.708,135.325 191.020,135.280 170.986 C 135.234 150.952,135.197 167.248,135.197 207.200 M113.666 138.797 C 114.846 138.858,116.862 138.859,118.146 138.798 C 119.430 138.737,118.464 138.687,116.000 138.686 C 113.536 138.686,112.486 138.736,113.666 138.797 M186.455 175.920 C 200.917 175.966,224.677 175.966,239.255 175.920 C 253.833 175.874,242.000 175.836,212.960 175.836 C 183.920 175.836,171.993 175.874,186.455 175.920 M110.794 179.200 C 110.794 179.816,110.860 180.068,110.941 179.760 C 111.021 179.452,111.021 178.948,110.941 178.640 C 110.860 178.332,110.794 178.584,110.794 179.200 M165.371 250.476 C 166.301 250.541,167.741 250.540,168.571 250.475 C 169.401 250.409,168.640 250.356,166.880 250.357 C 165.120 250.358,164.441 250.411,165.371 250.476 M199.360 250.665 C 199.360 250.730,200.153 251.967,201.122 253.415 C 212.183 269.939,211.462 289.418,199.171 306.160 L 198.642 306.880 230.441 306.960 C 291.147 307.113,286.472 307.299,292.398 304.492 C 316.285 293.175,313.341 258.816,287.840 251.290 C 286.086 250.772,199.360 250.160,199.360 250.665 M184.320 256.740 C 184.320 256.795,184.788 257.263,185.360 257.780 L 186.400 258.720 185.460 257.680 C 184.584 256.711,184.320 256.493,184.320 256.740 M185.100 298.640 L 184.160 299.680 185.200 298.740 C 185.772 298.223,186.240 297.755,186.240 297.700 C 186.240 297.453,185.976 297.671,185.100 298.640 " stroke="none" fill="#ebc38b" fill-rule="evenodd"></path><path id="path3" d="M291.357 163.520 C 291.357 198.632,291.394 212.996,291.440 195.440 C 291.486 177.884,291.486 149.156,291.440 131.600 C 291.394 114.044,291.357 128.408,291.357 163.520 M104.140 106.960 L 103.200 108.000 104.240 107.060 C 105.209 106.184,105.427 105.920,105.180 105.920 C 105.125 105.920,104.657 106.388,104.140 106.960 M114.977 124.079 C 116.879 124.136,119.903 124.135,121.697 124.078 C 123.492 124.022,121.936 123.975,118.240 123.975 C 114.544 123.976,113.076 124.022,114.977 124.079 M182.800 141.360 C 195.252 141.406,215.628 141.406,228.080 141.360 C 240.532 141.314,230.344 141.276,205.440 141.276 C 180.536 141.276,170.348 141.314,182.800 141.360 M271.779 168.480 C 271.781 169.536,271.841 169.929,271.912 169.354 C 271.983 168.779,271.982 167.915,271.909 167.434 C 271.836 166.953,271.777 167.424,271.779 168.480 M105.907 171.280 C 107.233 172.693,107.520 172.947,107.520 172.707 C 107.520 172.655,106.836 171.971,106.000 171.187 L 104.480 169.760 105.907 171.280 M199.040 250.480 C 199.040 250.697,228.227 250.696,267.520 250.476 C 275.704 250.431,263.644 250.359,240.720 250.317 C 217.796 250.275,199.040 250.348,199.040 250.480 M163.671 258.560 L 163.680 266.720 168.080 266.734 L 172.481 266.748 168.166 266.645 L 163.851 266.542 163.757 258.471 L 163.663 250.400 163.671 258.560 M246.640 307.119 C 249.500 307.172,254.180 307.172,257.040 307.119 C 259.900 307.066,257.560 307.023,251.840 307.023 C 246.120 307.023,243.780 307.066,246.640 307.119 " stroke="none" fill="#8f7e6c" fill-rule="evenodd"></path><path id="path4" d="M171.786 93.680 C 192.612 93.725,226.596 93.725,247.306 93.680 C 268.016 93.635,250.976 93.597,209.440 93.597 C 167.904 93.597,150.960 93.635,171.786 93.680 M160.457 133.920 C 160.457 137.968,160.503 139.580,160.559 137.502 C 160.615 135.424,160.615 132.112,160.559 130.142 C 160.503 128.172,160.457 129.872,160.457 133.920 M160.394 168.400 L 160.467 175.840 160.560 168.561 L 160.652 161.282 213.526 161.200 L 266.400 161.118 213.360 161.039 L 160.320 160.960 160.394 168.400 M160.394 202.800 L 160.320 210.240 205.680 210.161 L 251.040 210.082 205.846 210.000 L 160.652 209.918 160.560 202.639 L 160.467 195.360 160.394 202.800 M148.942 258.080 C 148.942 263.536,148.986 265.813,149.039 263.140 C 149.093 260.467,149.093 256.003,149.039 253.220 C 148.986 250.437,148.942 252.624,148.942 258.080 M172.297 274.080 C 172.297 278.128,172.343 279.740,172.399 277.662 C 172.455 275.584,172.455 272.272,172.399 270.302 C 172.343 268.332,172.297 270.032,172.297 274.080 M208.750 278.880 C 208.751 280.288,208.807 280.824,208.875 280.072 C 208.942 279.319,208.941 278.167,208.873 277.512 C 208.804 276.856,208.749 277.472,208.750 278.880 M308.892 278.880 C 308.894 279.760,308.956 280.082,309.030 279.596 C 309.103 279.109,309.101 278.389,309.025 277.996 C 308.949 277.602,308.889 278.000,308.892 278.880 M226.020 307.120 C 228.980 307.172,233.732 307.172,236.580 307.119 C 239.429 307.066,237.008 307.023,231.200 307.023 C 225.392 307.023,223.061 307.067,226.020 307.120 " stroke="none" fill="#826550" fill-rule="evenodd"></path></g></svg>