<svg width="84" height="84" viewBox="0 0 84 84" fill="none" xmlns="http://www.w3.org/2000/svg">
<path d="M14 41.6714V28.3189C14 23.9509 16.7055 20.0379 20.79 18.4944L50.0255 7.45539C54.607 5.72989 59.5 9.11089 59.5 14.0074V25.7324" stroke="#0F7671" stroke-width="4" stroke-linecap="round" stroke-linejoin="round"/>
<path d="M60.3715 49.3535C59.8885 49.357 59.5 49.749 59.5 50.232C59.5 50.715 59.892 51.107 60.375 51.1035C60.858 51.1035 61.25 50.7115 61.25 50.2285C61.25 49.7455 60.858 49.3535 60.3715 49.3535" stroke="#0F7671" stroke-width="4" stroke-linecap="round" stroke-linejoin="round"/>
<path d="M37.317 73.5H63C68.775 73.5 73.5 68.775 73.5 63V36.2285C73.5 30.429 68.7995 25.7285 63 25.7285H21C17.1325 25.7285 14 28.861 14 32.7285V42.8995" stroke="#0F7671" stroke-width="4" stroke-linecap="round" stroke-linejoin="round"/>
<path d="M26.25 77C15.6205 77 7 68.3795 7 57.75C7 47.1205 15.6205 38.5 26.25 38.5C36.883 38.5 45.5 47.1205 45.5 57.75C45.5 68.3795 36.883 77 26.25 77" stroke="#0F7671" stroke-width="4" stroke-linecap="round" stroke-linejoin="round"/>
<path d="M26.25 50.0742V65.4287" stroke="#0F7671" stroke-width="4" stroke-linecap="round" stroke-linejoin="round"/>
<path d="M33.9255 57.75H18.5745" stroke="#0F7671" stroke-width="4" stroke-linecap="round" stroke-linejoin="round"/>
</svg>
