<svg width="114" height="28" viewBox="0 0 114 28" fill="none" xmlns="http://www.w3.org/2000/svg">
<path d="M32.7313 15.1515L37.7346 20.9538H35.5856L30.5659 15.1515L35.1099 10.0434H37.2424L32.7313 15.1515ZM30.5167 20.9538H28.7778V10.0434H30.5167V20.9538Z" fill="#31CB9E"/>
<path d="M42.2183 21.8796C41.8793 22.673 41.4692 23.2406 40.988 23.5822C40.5177 23.9349 39.9381 24.1112 39.2491 24.1112C39.0304 24.1112 38.8062 24.0947 38.5765 24.0616C38.3469 24.0396 38.1282 24.001 37.9204 23.9459V22.4747C38.1172 22.4967 38.2922 22.5132 38.4453 22.5243C38.5984 22.5353 38.7461 22.5408 38.8882 22.5408C39.2601 22.5408 39.5881 22.4636 39.8725 22.3094C40.1678 22.1551 40.4248 21.8355 40.6435 21.3506L40.9716 20.5901L37.7563 12.8372H39.61L41.9066 18.7552L44.3016 12.8372H46.1389L42.2183 21.8796Z" fill="#31CB9E"/>
<path d="M49.4169 13.829C49.7231 13.4653 50.1059 13.1788 50.5652 12.9694C51.0355 12.76 51.5495 12.6553 52.1072 12.6553C52.6759 12.6553 53.2008 12.7655 53.682 12.9859C54.1632 13.1953 54.5788 13.4929 54.9288 13.8786C55.2897 14.2533 55.5685 14.6996 55.7654 15.2176C55.9622 15.7356 56.0607 16.2976 56.0607 16.9038C56.0607 17.5099 55.9622 18.0719 55.7654 18.5899C55.5685 19.0969 55.2951 19.5432 54.9452 19.9289C54.5952 20.3036 54.1796 20.6012 53.6984 20.8216C53.2173 21.031 52.6923 21.1357 52.1236 21.1357C51.5221 21.1357 50.9699 21.0199 50.4668 20.7885C49.9747 20.5571 49.581 20.2265 49.2857 19.7967V20.9538H47.6945V8.55566H49.4169V13.829ZM51.8284 14.2423C51.5221 14.2423 51.2214 14.2974 50.9261 14.4076C50.6418 14.5068 50.3848 14.6666 50.1551 14.887C49.9255 15.1074 49.7396 15.3829 49.5974 15.7135C49.4661 16.0442 49.4005 16.4409 49.4005 16.9038C49.4005 17.3666 49.4716 17.7689 49.6138 18.1105C49.756 18.4411 49.9419 18.7166 50.1715 18.9371C50.4012 19.1464 50.6582 19.3007 50.9425 19.3999C51.2378 19.4991 51.5331 19.5487 51.8284 19.5487C52.1783 19.5487 52.5009 19.4826 52.7962 19.3503C53.1024 19.2181 53.3649 19.0362 53.5836 18.8048C53.8023 18.5734 53.9718 18.2979 54.0921 17.9783C54.2234 17.6476 54.289 17.284 54.289 16.8872C54.289 16.4905 54.2234 16.1323 54.0921 15.8127C53.9718 15.4821 53.7969 15.2011 53.5672 14.9696C53.3485 14.7382 53.086 14.5619 52.7798 14.4407C52.4845 14.3084 52.1674 14.2423 51.8284 14.2423Z" fill="#31CB9E"/>
<path d="M61.7014 12.6553C62.2373 12.6553 62.7349 12.749 63.1942 12.9363C63.6535 13.1237 64.0472 13.3827 64.3753 13.7133C64.7034 14.0439 64.9604 14.4407 65.1463 14.9035C65.3322 15.3554 65.4252 15.8458 65.4252 16.3748C65.4252 16.5952 65.4088 16.8046 65.376 17.0029C65.3541 17.2013 65.3267 17.3556 65.2939 17.4658H59.29C59.4103 18.1381 59.7056 18.6615 60.1758 19.0362C60.6461 19.4109 61.2257 19.5983 61.9147 19.5983C62.3849 19.5983 62.8114 19.5156 63.1942 19.3503C63.577 19.174 63.9324 18.9371 64.2605 18.6395L65.0971 19.8297C64.6706 20.2375 64.1894 20.5571 63.6535 20.7885C63.1286 21.0199 62.538 21.1357 61.8819 21.1357C61.2585 21.1357 60.6789 21.031 60.143 20.8216C59.6071 20.6012 59.1478 20.3036 58.765 19.9289C58.3823 19.5432 58.0815 19.0913 57.8628 18.5734C57.6441 18.0554 57.5347 17.4989 57.5347 16.9038C57.5347 16.3086 57.6386 15.7521 57.8464 15.2341C58.0651 14.7162 58.3604 14.2698 58.7322 13.8951C59.115 13.5094 59.5579 13.2064 60.061 12.9859C60.564 12.7655 61.1109 12.6553 61.7014 12.6553ZM61.6522 14.1266C61.0616 14.1266 60.5586 14.3084 60.143 14.6721C59.7274 15.0247 59.454 15.5041 59.3228 16.1103H63.7027C63.6918 15.7907 63.6262 15.5097 63.5059 15.2672C63.3965 15.0137 63.2489 14.8043 63.063 14.639C62.888 14.4737 62.6747 14.347 62.4232 14.2588C62.1826 14.1707 61.9256 14.1266 61.6522 14.1266Z" fill="#31CB9E"/>
<path d="M71.3522 12.7545C71.4944 12.7545 71.6147 12.7655 71.7131 12.7876C71.8225 12.7986 71.9209 12.8151 72.0084 12.8372V14.3745H71.4835C71.1663 14.3745 70.8601 14.4241 70.5648 14.5233C70.2805 14.6115 70.029 14.7492 69.8102 14.9366C69.6024 15.1239 69.4329 15.3609 69.3017 15.6474C69.1814 15.9229 69.1213 16.248 69.1213 16.6227V20.9538H67.3988V12.8372H68.99V13.9282C69.2744 13.5425 69.6189 13.2504 70.0235 13.0521C70.4391 12.8537 70.882 12.7545 71.3522 12.7545Z" fill="#31CB9E"/>
<path d="M76.9297 9.8616C77.728 9.8616 78.4279 10.049 79.0294 10.4237C79.6309 10.7873 80.0957 11.2502 80.4238 11.8122L79.2099 12.7545C78.9255 12.3357 78.592 12.0106 78.2092 11.7792C77.8264 11.5478 77.3999 11.432 76.9297 11.432C76.4922 11.432 76.1095 11.5422 75.7814 11.7627C75.4533 11.972 75.2893 12.3027 75.2893 12.7545C75.2893 12.9749 75.3275 13.1568 75.4041 13.3C75.4806 13.4433 75.5845 13.5755 75.7158 13.6968C75.847 13.807 76.0056 13.9117 76.1915 14.0109C76.3774 14.099 76.5797 14.1982 76.7984 14.3084L78.0124 14.8705C78.8326 15.2562 79.4723 15.686 79.9317 16.1599C80.391 16.6227 80.6206 17.2289 80.6206 17.9783C80.6206 18.4632 80.5277 18.904 80.3418 19.3007C80.1558 19.6865 79.8988 20.0171 79.5708 20.2926C79.2427 20.5571 78.8544 20.7665 78.4061 20.9208C77.9686 21.064 77.4929 21.1357 76.9789 21.1357C76.0602 21.1357 75.251 20.9263 74.5511 20.5075C73.8621 20.0777 73.3098 19.4991 72.8942 18.7717L74.1245 17.8295C74.2777 18.0609 74.4472 18.2813 74.6331 18.4907C74.819 18.7001 75.0268 18.8875 75.2564 19.0528C75.497 19.2071 75.754 19.3338 76.0274 19.433C76.3118 19.5211 76.6235 19.5652 76.9625 19.5652C77.5202 19.5652 77.9686 19.433 78.3076 19.1685C78.6576 18.893 78.8326 18.5183 78.8326 18.0444C78.8326 17.835 78.7943 17.6532 78.7177 17.4989C78.6412 17.3336 78.5318 17.1903 78.3897 17.0691C78.2475 16.9478 78.078 16.8376 77.8811 16.7384C77.6952 16.6282 77.4819 16.518 77.2414 16.4078L76.0438 15.8458C75.6939 15.6805 75.3658 15.5041 75.0596 15.3168C74.7534 15.1294 74.4854 14.9145 74.2558 14.6721C74.0261 14.4296 73.8457 14.1596 73.7144 13.8621C73.5832 13.5535 73.5176 13.2064 73.5176 12.8206C73.5176 12.3688 73.6051 11.961 73.7801 11.5973C73.966 11.2337 74.212 10.9251 74.5182 10.6716C74.8354 10.4071 75.1963 10.2088 75.6009 10.0765C76.0165 9.93324 76.4594 9.8616 76.9297 9.8616Z" fill="#31CB9E"/>
<path d="M91.2439 18.094L93.3273 12.8372H95.1481L91.5884 21.1357H90.9979L88.4552 15.7135L85.9453 21.1357H85.3548L81.7787 12.8372H83.6159L85.7321 18.1436L88.1763 12.6553H88.7669L91.2439 18.094Z" fill="#31CB9E"/>
<path d="M99.4786 12.6553C99.9707 12.6553 100.419 12.727 100.824 12.8702C101.228 13.0135 101.573 13.2284 101.857 13.5149C102.152 13.7904 102.382 14.1431 102.546 14.5729C102.71 14.9917 102.792 15.4821 102.792 16.0442V20.9538H101.185V20.0446C100.9 20.3863 100.539 20.6563 100.102 20.8546C99.6645 21.042 99.1669 21.1357 98.6092 21.1357C97.7561 21.1357 97.0726 20.9208 96.5586 20.491C96.0556 20.0612 95.804 19.4936 95.804 18.7883C95.804 18.0609 96.0665 17.4934 96.5914 17.0856C97.1273 16.6778 97.8546 16.474 98.7732 16.474H101.053V15.945C101.053 15.3829 100.906 14.9531 100.61 14.6556C100.315 14.358 99.8887 14.2092 99.331 14.2092C98.8607 14.2092 98.4506 14.3139 98.1006 14.5233C97.7507 14.7327 97.4117 15.0303 97.0836 15.416L96.0993 14.3911C96.5149 13.796 97.007 13.3606 97.5757 13.0851C98.1553 12.7986 98.7896 12.6553 99.4786 12.6553ZM98.9701 19.7967C99.2544 19.7967 99.5223 19.7526 99.7739 19.6644C100.025 19.5652 100.244 19.433 100.43 19.2677C100.627 19.0913 100.78 18.8875 100.889 18.656C100.999 18.4246 101.053 18.1656 101.053 17.8791V17.7303H98.9865C98.5271 17.7303 98.1717 17.813 97.9202 17.9783C97.6796 18.1436 97.5593 18.3915 97.5593 18.7222C97.5593 19.0748 97.696 19.3448 97.9694 19.5322C98.2428 19.7085 98.5764 19.7967 98.9701 19.7967Z" fill="#31CB9E"/>
<path d="M109.602 12.6553C110.171 12.6553 110.696 12.7655 111.177 12.9859C111.669 13.1953 112.09 13.4929 112.44 13.8786C112.79 14.2533 113.063 14.6996 113.26 15.2176C113.457 15.7246 113.556 16.2811 113.556 16.8872C113.556 17.4934 113.457 18.0554 113.26 18.5734C113.063 19.0913 112.785 19.5432 112.424 19.9289C112.074 20.3036 111.658 20.6012 111.177 20.8216C110.696 21.031 110.171 21.1357 109.602 21.1357C109.044 21.1357 108.53 21.0365 108.06 20.8381C107.601 20.6397 107.218 20.3532 106.912 19.9785V23.9294H105.189V12.8372H106.781V14.0109C107.076 13.5811 107.47 13.2504 107.962 13.019C108.454 12.7765 109.001 12.6553 109.602 12.6553ZM109.323 14.2423C109.028 14.2423 108.733 14.2974 108.437 14.4076C108.153 14.5068 107.896 14.6666 107.666 14.887C107.437 15.0964 107.251 15.3664 107.109 15.697C106.967 16.0276 106.895 16.4244 106.895 16.8872C106.895 17.3501 106.961 17.7468 107.092 18.0774C107.235 18.4081 107.42 18.6836 107.65 18.904C107.88 19.1244 108.137 19.2897 108.421 19.3999C108.716 19.4991 109.017 19.5487 109.323 19.5487C109.662 19.5487 109.979 19.4881 110.275 19.3669C110.581 19.2346 110.843 19.0528 111.062 18.8213C111.292 18.5899 111.467 18.3144 111.587 17.9948C111.718 17.6642 111.784 17.3005 111.784 16.9038C111.784 16.507 111.718 16.1488 111.587 15.8293C111.467 15.4986 111.297 15.2176 111.079 14.9862C110.86 14.7547 110.597 14.5729 110.291 14.4407C109.996 14.3084 109.673 14.2423 109.323 14.2423Z" fill="#31CB9E"/>
<path d="M20.0174 7.22037L13.3931 0.596109C13.0114 0.214427 12.4937 0 11.954 0C11.4142 0 10.8965 0.214427 10.5148 0.596109L3.89057 7.22037C2.67561 8.32782 1.7028 9.67457 1.03327 11.176C0.36374 12.6774 0.0119486 14.3011 0 15.945C0.0067099 19.0608 1.21653 22.0536 3.37695 24.2988C5.53737 26.544 8.48145 27.868 11.5947 27.9946C14.0345 28.068 16.4383 27.3928 18.483 26.0596C20.5277 24.7265 22.1153 22.7994 23.0325 20.5374C23.9496 18.2753 24.1523 15.7867 23.6133 13.406C23.0743 11.0254 21.8194 8.86679 20.0174 7.22037Z" fill="#31CB9E"/>
<path d="M11.0583 16.1228L17.5415 19.8396C17.5933 19.8691 17.652 19.8844 17.7115 19.8842C17.7711 19.8839 17.8296 19.8681 17.8812 19.8383C17.9328 19.8085 17.9757 19.7656 18.0056 19.7141C18.0355 19.6626 18.0514 19.6041 18.0518 19.5445V12.6961C18.0514 12.6365 18.0355 12.5781 18.0056 12.5265C17.9757 12.475 17.9328 12.4322 17.8812 12.4023C17.8296 12.3725 17.7711 12.3567 17.7115 12.3564C17.652 12.3562 17.5933 12.3716 17.5415 12.401L11.0583 16.1228Z" fill="white"/>
<path d="M17.1664 10.8002L12.8593 7.5136C12.8135 7.47895 12.7598 7.45639 12.703 7.448C12.6462 7.43962 12.5882 7.44567 12.5344 7.46561C12.4805 7.48555 12.4326 7.51873 12.395 7.56209C12.3573 7.60545 12.3312 7.65759 12.3191 7.7137L10.7483 15.0373L17.1314 11.3705C17.1801 11.3419 17.221 11.3018 17.2506 11.2537C17.2801 11.2057 17.2974 11.151 17.3009 11.0947C17.3043 11.0383 17.2939 10.982 17.2704 10.9306C17.247 10.8793 17.2113 10.8345 17.1664 10.8002Z" fill="white"/>
<path d="M12.8593 24.7319L17.1714 21.4403C17.2163 21.4066 17.252 21.3622 17.2755 21.3112C17.299 21.2603 17.3095 21.2043 17.306 21.1483C17.3025 21.0923 17.2852 21.038 17.2556 20.9903C17.226 20.9426 17.1851 20.903 17.1364 20.875L10.7483 17.2083L12.3241 24.5318C12.3352 24.588 12.3606 24.6403 12.3976 24.6839C12.4347 24.7275 12.4823 24.7609 12.5359 24.781C12.5896 24.801 12.6474 24.807 12.704 24.7985C12.7606 24.7899 12.8141 24.767 12.8593 24.7319Z" fill="white"/>
<path d="M9.39769 16.1227L11.0935 8.23381C11.1082 8.16569 11.1015 8.0947 11.0745 8.03048C11.0475 7.96625 11.0013 7.91189 10.9424 7.87476C10.8834 7.83763 10.8144 7.81953 10.7448 7.82291C10.6752 7.82629 10.6084 7.85098 10.5533 7.89364L6.21113 11.2103C6.10062 11.2939 6.01102 11.402 5.94938 11.5262C5.88775 11.6503 5.85577 11.787 5.85596 11.9256V20.3297C5.85577 20.4683 5.88775 20.605 5.94938 20.7292C6.01101 20.8533 6.10061 20.9614 6.21113 21.0451L10.5532 24.3567C10.6086 24.3983 10.6752 24.4222 10.7444 24.4251C10.8136 24.428 10.8821 24.4098 10.9407 24.3729C10.9993 24.336 11.0453 24.2821 11.0726 24.2185C11.0999 24.1549 11.1072 24.0844 11.0935 24.0165L9.39769 16.1227Z" fill="white"/>
</svg>
