<svg width="140" height="36" viewBox="0 0 140 36" fill="none" xmlns="http://www.w3.org/2000/svg">
<path d="M36.083 17.4803L42.5158 24.9405H39.7528L33.2989 17.4803L39.1412 10.9129H41.883L36.083 17.4803ZM33.2357 24.9405H31V10.9129H33.2357V24.9405Z" fill="#31CB9E"/>
<path d="M48.2806 26.1307C47.8447 27.1509 47.3174 27.8806 46.6988 28.3199C46.0941 28.7733 45.3489 29 44.4631 29C44.1819 29 43.8936 28.9787 43.5984 28.9362C43.3031 28.9079 43.0219 28.8583 42.7547 28.7875V26.8959C43.0078 26.9242 43.2328 26.9455 43.4296 26.9596C43.6265 26.9738 43.8163 26.9809 43.9991 26.9809C44.4771 26.9809 44.899 26.8817 45.2646 26.6833C45.6442 26.4849 45.9746 26.074 46.2558 25.4506L46.6777 24.4729L42.5438 14.5048H44.9271L47.8799 22.1137L50.9592 14.5048H53.3214L48.2806 26.1307Z" fill="#31CB9E"/>
<path d="M57.536 15.78C57.9297 15.3124 58.4218 14.944 59.0124 14.6748C59.617 14.4056 60.2778 14.271 60.9949 14.271C61.7261 14.271 62.401 14.4127 63.0197 14.6961C63.6384 14.9653 64.1727 15.3479 64.6226 15.8438C65.0866 16.3255 65.4452 16.8994 65.6983 17.5654C65.9514 18.2313 66.0779 18.954 66.0779 19.7333C66.0779 20.5126 65.9514 21.2352 65.6983 21.9012C65.4452 22.553 65.0937 23.1268 64.6437 23.6227C64.1938 24.1045 63.6595 24.4871 63.0408 24.7705C62.4221 25.0397 61.7472 25.1743 61.016 25.1743C60.2427 25.1743 59.5326 25.0255 58.8858 24.728C58.2531 24.4304 57.7469 24.0053 57.3673 23.4527V24.9405H55.3214V9H57.536V15.78ZM60.6364 16.3114C60.2427 16.3114 59.856 16.3822 59.4764 16.5239C59.1108 16.6514 58.7804 16.8569 58.4851 17.1403C58.1898 17.4237 57.9508 17.7779 57.768 18.203C57.5993 18.6281 57.5149 19.1382 57.5149 19.7333C57.5149 20.3284 57.6063 20.8456 57.7891 21.2848C57.9719 21.7099 58.2109 22.0641 58.5062 22.3475C58.8015 22.6167 59.1319 22.8151 59.4975 22.9426C59.8771 23.0701 60.2568 23.1339 60.6364 23.1339C61.0863 23.1339 61.5011 23.0489 61.8808 22.8789C62.2745 22.7088 62.6119 22.475 62.8931 22.1775C63.1744 21.8799 63.3923 21.5257 63.547 21.1148C63.7157 20.6897 63.8001 20.2221 63.8001 19.712C63.8001 19.2019 63.7157 18.7414 63.547 18.3305C63.3923 17.9054 63.1673 17.5441 62.8721 17.2465C62.5908 16.949 62.2534 16.7223 61.8597 16.5664C61.48 16.3964 61.0723 16.3114 60.6364 16.3114Z" fill="#31CB9E"/>
<path d="M73.3303 14.271C74.0193 14.271 74.6591 14.3914 75.2496 14.6323C75.8402 14.8732 76.3463 15.2062 76.7682 15.6312C77.19 16.0563 77.5204 16.5664 77.7595 17.1615C77.9985 17.7425 78.118 18.373 78.118 19.0531C78.118 19.3365 78.0969 19.6057 78.0547 19.8608C78.0266 20.1158 77.9915 20.3142 77.9493 20.4559H70.2299C70.3846 21.3202 70.7642 21.9933 71.3688 22.475C71.9734 22.9568 72.7187 23.1977 73.6045 23.1977C74.2091 23.1977 74.7575 23.0914 75.2496 22.8789C75.7417 22.6521 76.1987 22.3475 76.6205 21.9649L77.6962 23.4952C77.1478 24.0195 76.5291 24.4304 75.8402 24.728C75.1652 25.0255 74.406 25.1743 73.5623 25.1743C72.7609 25.1743 72.0156 25.0397 71.3267 24.7705C70.6377 24.4871 70.0471 24.1045 69.555 23.6227C69.0629 23.1268 68.6762 22.5459 68.395 21.8799C68.1138 21.214 67.9732 20.4984 67.9732 19.7333C67.9732 18.9681 68.1067 18.2526 68.3739 17.5866C68.6551 16.9207 69.0347 16.3468 69.5128 15.865C70.0049 15.3691 70.5744 14.9795 71.2212 14.6961C71.868 14.4127 72.571 14.271 73.3303 14.271ZM73.267 16.1626C72.5078 16.1626 71.861 16.3964 71.3267 16.864C70.7923 17.3174 70.4408 17.9338 70.2721 18.7131H75.9034C75.8894 18.3022 75.805 17.9408 75.6503 17.6291C75.5097 17.3032 75.3199 17.034 75.0809 16.8215C74.8559 16.6089 74.5817 16.446 74.2583 16.3326C73.949 16.2193 73.6186 16.1626 73.267 16.1626Z" fill="#31CB9E"/>
<path d="M85.7385 14.3985C85.9213 14.3985 86.076 14.4127 86.2025 14.441C86.3431 14.4552 86.4697 14.4764 86.5822 14.5048V16.4814H85.9072C85.4995 16.4814 85.1058 16.5452 84.7261 16.6727C84.3606 16.786 84.0372 16.9632 83.7559 17.204C83.4888 17.4449 83.2708 17.7496 83.1021 18.118C82.9475 18.4722 82.8701 18.8902 82.8701 19.3719V24.9405H80.6555V14.5048H82.7014V15.9075C83.067 15.4116 83.5099 15.0361 84.0301 14.7811C84.5644 14.526 85.1339 14.3985 85.7385 14.3985Z" fill="#31CB9E"/>
<path d="M92.9095 10.6791C93.9359 10.6791 94.8358 10.9199 95.6092 11.4017C96.3825 11.8693 96.9801 12.4644 97.4019 13.187L95.8412 14.3985C95.4756 13.8601 95.0467 13.4421 94.5546 13.1445C94.0625 12.847 93.5141 12.6982 92.9095 12.6982C92.3471 12.6982 91.855 12.8399 91.4331 13.1233C91.0113 13.3925 90.8004 13.8176 90.8004 14.3985C90.8004 14.6819 90.8496 14.9157 90.948 15.0999C91.0465 15.2841 91.18 15.4541 91.3488 15.61C91.5175 15.7517 91.7214 15.8863 91.9604 16.0138C92.1994 16.1272 92.4596 16.2547 92.7408 16.3964L94.3015 17.119C95.3561 17.6149 96.1786 18.1676 96.7692 18.7768C97.3597 19.3719 97.655 20.1513 97.655 21.1148C97.655 21.7382 97.5355 22.305 97.2965 22.8151C97.0574 23.311 96.727 23.7361 96.3052 24.0903C95.8834 24.4304 95.3842 24.6996 94.8077 24.898C94.2453 25.0822 93.6336 25.1743 92.9728 25.1743C91.7917 25.1743 90.7512 24.9051 89.8513 24.3666C88.9655 23.814 88.2554 23.0701 87.7211 22.135L89.3029 20.9235C89.4998 21.221 89.7177 21.5044 89.9567 21.7736C90.1958 22.0429 90.4629 22.2837 90.7582 22.4963C91.0675 22.6947 91.398 22.8576 91.7495 22.9851C92.1151 23.0985 92.5158 23.1552 92.9517 23.1552C93.6688 23.1552 94.2453 22.9851 94.6812 22.6451C95.1311 22.2908 95.3561 21.8091 95.3561 21.1998C95.3561 20.9306 95.3069 20.6968 95.2085 20.4984C95.11 20.2859 94.9694 20.1017 94.7866 19.9458C94.6038 19.7899 94.3859 19.6482 94.1328 19.5207C93.8938 19.379 93.6196 19.2373 93.3102 19.0956L91.7706 18.373C91.3206 18.1605 90.8988 17.9338 90.5051 17.6929C90.1114 17.452 89.7669 17.1757 89.4717 16.864C89.1764 16.5523 88.9444 16.2051 88.7756 15.8225C88.6069 15.4258 88.5225 14.9795 88.5225 14.4835C88.5225 13.9026 88.635 13.3783 88.86 12.9107C89.099 12.4431 89.4154 12.0464 89.8091 11.7205C90.2169 11.3804 90.6809 11.1254 91.2011 10.9554C91.7354 10.7712 92.3049 10.6791 92.9095 10.6791Z" fill="#31CB9E"/>
<path d="M111.314 21.2635L113.992 14.5048H116.333L111.756 25.1743H110.997L107.728 18.203L104.501 25.1743H103.742L99.1439 14.5048H101.506L104.227 21.3273L107.369 14.271H108.129L111.314 21.2635Z" fill="#31CB9E"/>
<path d="M121.901 14.271C122.534 14.271 123.11 14.3631 123.63 14.5473C124.151 14.7315 124.594 15.0078 124.959 15.3762C125.339 15.7304 125.634 16.1838 125.845 16.7365C126.056 17.2749 126.161 17.9054 126.161 18.6281V24.9405H124.094V23.7715C123.729 24.2108 123.265 24.5579 122.702 24.813C122.14 25.0538 121.5 25.1743 120.783 25.1743C119.686 25.1743 118.808 24.898 118.147 24.3454C117.5 23.7928 117.177 23.0631 117.177 22.1562C117.177 21.221 117.514 20.4913 118.189 19.9671C118.878 19.4428 119.813 19.1807 120.994 19.1807H123.926V18.5005C123.926 17.7779 123.736 17.2253 123.356 16.8427C122.977 16.4601 122.428 16.2689 121.711 16.2689C121.107 16.2689 120.579 16.4035 120.129 16.6727C119.679 16.9419 119.243 17.3245 118.822 17.8204L117.556 16.5027C118.091 15.7375 118.723 15.1778 119.454 14.8236C120.2 14.4552 121.015 14.271 121.901 14.271ZM121.247 23.4527C121.613 23.4527 121.957 23.396 122.281 23.2827C122.604 23.1552 122.885 22.9851 123.124 22.7726C123.377 22.5459 123.574 22.2837 123.715 21.9862C123.855 21.6886 123.926 21.3557 123.926 20.9872V20.796H121.268C120.678 20.796 120.221 20.9022 119.897 21.1148C119.588 21.3273 119.433 21.6461 119.433 22.0712C119.433 22.5246 119.609 22.8718 119.961 23.1126C120.312 23.3394 120.741 23.4527 121.247 23.4527Z" fill="#31CB9E"/>
<path d="M134.917 14.271C135.648 14.271 136.323 14.4127 136.942 14.6961C137.575 14.9653 138.116 15.3479 138.566 15.8438C139.016 16.3255 139.367 16.8994 139.62 17.5654C139.873 18.2171 140 18.9327 140 19.712C140 20.4913 139.873 21.214 139.62 21.8799C139.367 22.5459 139.009 23.1268 138.545 23.6227C138.095 24.1045 137.56 24.4871 136.942 24.7705C136.323 25.0397 135.648 25.1743 134.917 25.1743C134.2 25.1743 133.539 25.0468 132.934 24.7917C132.344 24.5367 131.852 24.1683 131.458 23.6865V28.7662H129.244V14.5048H131.289V16.0138C131.669 15.4612 132.175 15.0361 132.808 14.7386C133.441 14.4269 134.144 14.271 134.917 14.271ZM134.558 16.3114C134.179 16.3114 133.799 16.3822 133.42 16.5239C133.054 16.6514 132.724 16.8569 132.428 17.1403C132.133 17.4095 131.894 17.7566 131.711 18.1817C131.528 18.6068 131.437 19.1169 131.437 19.712C131.437 20.3071 131.521 20.8172 131.69 21.2423C131.873 21.6674 132.112 22.0216 132.407 22.305C132.702 22.5884 133.033 22.8009 133.398 22.9426C133.778 23.0701 134.165 23.1339 134.558 23.1339C134.994 23.1339 135.402 23.056 135.782 22.9001C136.175 22.7301 136.513 22.4963 136.794 22.1987C137.089 21.9012 137.314 21.5469 137.469 21.136C137.638 20.7109 137.722 20.2434 137.722 19.7333C137.722 19.2232 137.638 18.7627 137.469 18.3518C137.314 17.9267 137.096 17.5654 136.815 17.2678C136.534 16.9702 136.197 16.7365 135.803 16.5664C135.423 16.3964 135.008 16.3114 134.558 16.3114Z" fill="#31CB9E"/>
<path fill-rule="evenodd" clip-rule="evenodd" d="M14.5092 0.146088L23.4492 6.96916C23.8482 7.27856 23.8075 7.88921 23.3678 8.14162L10.1288 15.7463L13.3937 0.561334C13.4996 0.0565246 14.0939 -0.171454 14.5092 0.146088ZM24.2227 25.7123L10.7801 18.0017L24.2227 10.283C24.695 10.0143 25.2812 10.3481 25.2812 10.8937V25.1016C25.2812 25.639 24.695 25.981 24.2227 25.7123ZM14.5092 35.8575L23.4574 29.0345C23.8563 28.7251 23.8156 28.1144 23.3841 27.862L10.1369 20.2573L13.4019 35.4423C13.4996 35.9471 14.1021 36.1669 14.5092 35.8575ZM10.8534 1.63585L7.33602 18.0015L10.8534 34.3589C10.9918 35.0021 10.259 35.4662 9.73794 35.0673L0.732788 28.1953C0.268689 27.8452 0 27.2916 0 26.7135V9.28127C0 8.70319 0.268689 8.14952 0.732788 7.79941L9.73794 0.927492C10.259 0.52853 10.9918 0.992629 10.8534 1.63585Z" fill="#31CB9E"/>
</svg>
