<svg width="21" height="20" viewBox="0 0 21 20" fill="none" xmlns="http://www.w3.org/2000/svg">
<path d="M9.37484 7.58609L7.57016 5.78141C7.14286 5.35411 6.45016 5.35411 6.02359 5.78141C5.5963 6.2087 5.5963 6.90141 6.02359 7.32797L7.82828 9.13266" stroke="#A9A9A9" stroke-linecap="round" stroke-linejoin="round"/>
<path d="M8.08561 6.29672C7.65831 5.86943 7.65831 5.17672 8.08561 4.75016C8.5129 4.32286 9.20561 4.32286 9.63217 4.75016L10.9213 6.03932" stroke="#A9A9A9" stroke-linecap="round" stroke-linejoin="round"/>
<path d="M6.28104 10.6796L5.61458 11.3461C5.38125 11.5794 5.25 11.8959 5.25 12.2262C5.25 12.5565 5.38125 12.873 5.61458 13.1063L7.31208 14.8038C9.02052 16.5122 11.7906 16.5122 13.4991 14.8038L15.0456 13.2572C16.7541 11.5488 16.7541 8.7787 15.0456 7.07026L12.9835 5.00818L13.4991 5.5237L12.2099 4.23453C11.7826 3.80724 11.0899 3.80724 10.6633 4.23453C10.236 4.66182 10.236 5.35453 10.6633 5.78109L11.437 6.55474" stroke="#A9A9A9" stroke-linecap="round" stroke-linejoin="round"/>
<path d="M7.31304 11.7107L4.99283 9.39047C4.56554 8.96318 4.56554 8.27047 4.99283 7.84391C5.42012 7.41661 6.11283 7.41661 6.53939 7.84391" stroke="#A9A9A9" stroke-linecap="round" stroke-linejoin="round"/>
</svg>
