<svg width="36" height="36" viewBox="0 0 36 36" fill="none" xmlns="http://www.w3.org/2000/svg">
<path d="M18.0015 14.0625V12.75" stroke="#58B5EE" stroke-width="2" stroke-linecap="round" stroke-linejoin="round"/>
<path d="M18.0015 21.9375V23.25" stroke="#58B5EE" stroke-width="2" stroke-linecap="round" stroke-linejoin="round"/>
<path d="M15.7245 21C16.065 21.5565 16.6455 21.942 17.346 21.942H18.003H18.7845C19.803 21.942 20.6265 21.117 20.6265 20.1C20.6265 19.254 20.0505 18.5175 19.2315 18.3105L16.7715 17.6925C15.954 17.487 15.3765 16.749 15.3765 15.903C15.3765 14.8845 16.2015 14.061 17.2185 14.061H18H18.657C19.3575 14.061 19.9365 14.4435 20.277 14.9985" stroke="#58B5EE" stroke-width="2" stroke-linecap="round" stroke-linejoin="round"/>
<path fill-rule="evenodd" clip-rule="evenodd" d="M29.706 27.3194V27.3194C25.9485 26.5679 22.0725 26.6609 18.3555 27.5894L18 27.6794C14.049 28.6664 9.9285 28.7654 5.9355 27.9659L5.706 27.9194C5.004 27.7799 4.5 27.1634 4.5 26.4494V10.1909C4.5 9.24435 5.3655 8.53485 6.294 8.71935V8.71935C10.0515 9.47085 13.9275 9.37785 17.6445 8.44935L18.354 8.27235C22.071 7.34385 25.9485 7.25085 29.7045 8.00235L30.2925 8.11935C30.996 8.26035 31.5 8.87535 31.5 9.59085V25.8494C31.5 26.7959 30.6345 27.5054 29.706 27.3194V27.3194Z" stroke="#58B5EE" stroke-width="2" stroke-linecap="round" stroke-linejoin="round"/>
</svg>
