<svg width="20" height="20" viewBox="0 0 20 20" fill="none" xmlns="http://www.w3.org/2000/svg">
<path fill-rule="evenodd" clip-rule="evenodd" d="M7.06143 16.1621H4.76446C4.25155 16.1621 3.83586 15.7464 3.83586 15.2335V12.9356C3.83586 12.6894 3.73772 12.4533 3.56367 12.2792L1.93885 10.6544C1.57593 10.2915 1.57593 9.70357 1.93885 9.34158L3.58033 7.70009C3.7442 7.53622 3.83586 7.31495 3.83586 7.08349V4.76431C3.83586 4.2514 4.25155 3.83571 4.76446 3.83571H7.06235C7.30862 3.83571 7.54471 3.73757 7.71876 3.56352L9.34358 1.9387C9.7065 1.57577 10.2944 1.57577 10.6564 1.9387L12.2812 3.56352C12.4553 3.73757 12.6914 3.83571 12.9376 3.83571H15.2355C15.7484 3.83571 16.1641 4.2514 16.1641 4.76431V7.0622C16.1641 7.30847 16.2623 7.54455 16.4363 7.71861L18.0611 9.34343C18.4241 9.70635 18.4241 10.2942 18.0611 10.6562L16.4363 12.2811C16.2623 12.4551 16.1641 12.6912 16.1641 12.9375V15.2354C16.1641 15.7483 15.7484 16.164 15.2355 16.164H12.9376C12.6914 16.164 12.4553 16.2621 12.2812 16.4362L10.6564 18.061C10.2935 18.4239 9.70558 18.4239 9.34358 18.061L7.71876 16.4362C7.54378 16.2593 7.3077 16.1621 7.06143 16.1621Z" fill="#0095F0"/>
<path d="M13.75 7.5L9.375 12.1667L6.75 9.36667" stroke="#F0F1F1" stroke-width="1.25" stroke-linecap="round" stroke-linejoin="round"/>
</svg>
