<svg width="30" height="30" viewBox="0 0 30 30" fill="none" xmlns="http://www.w3.org/2000/svg">
<rect width="30" height="30" fill="#0B0E11"/>
<path d="M5 15L7.25806 12.7419L9.51613 15L7.25806 17.2581L5 15Z" fill="#F0B90B"/>
<path d="M8.87097 11.129L15 5L21.129 11.129L18.871 13.3871L15 9.51613L11.129 13.3871L8.87097 11.129Z" fill="#F0B90B"/>
<path d="M12.7419 15L15 12.7419L17.2581 15L15 17.2581L12.7419 15Z" fill="#F0B90B"/>
<path d="M11.129 16.6129L8.87097 18.871L15 25L21.129 18.871L18.871 16.6129L15 20.4839L11.129 16.6129Z" fill="#F0B90B"/>
<path d="M20.4839 15L22.7419 12.7419L25 15L22.7419 17.2581L20.4839 15Z" fill="#F0B90B"/>
</svg>
