<svg xmlns="http://www.w3.org/2000/svg" width="25" height="25" viewBox="0 0 25 25">
    <g fill="none" fill-rule="evenodd">
        <path fill="#1DE9B6"
            d="M12.924 14.416c.266-.005.484.206.49.471l.15 8.201c.005.233-.157.434-.385.48l-3.304.664c-.085.017-.174.01-.256-.019-.25-.089-.38-.363-.291-.613l3.153-8.865c.067-.188.244-.316.443-.32zm1.71.394c.195-.18.5-.167.679.028l5.18 5.633c.062.067.103.15.12.238.047.261-.126.511-.386.56l-5.06.929c-.025.005-.05.007-.077.008-.265.005-.484-.206-.489-.472l-.122-6.562c-.002-.137.054-.269.155-.362zm-2.898-.994c.024.093.02.19-.012.281l-2.498 7.055c-.088.25-.363.38-.613.292-.065-.023-.125-.06-.174-.108l-5.19-5.048c-.19-.185-.194-.49-.01-.68.062-.062.139-.107.223-.13l7.688-2.006c.256-.067.519.087.586.344zm4.497-1.101l7.87 1.621c.247.051.413.285.378.536l-.839 6.1c-.036.262-.278.446-.541.41-.111-.015-.214-.07-.29-.152l-7.03-7.722c-.179-.196-.165-.5.032-.678.113-.104.27-.146.42-.115zM.596 7.465c.095-.249.372-.373.62-.278l10.796 4.128c.145.055.254.178.293.328.067.256-.088.519-.344.585L.593 15.182c-.052.014-.106.018-.16.014-.264-.021-.46-.253-.44-.517l.573-7.082c.003-.045.014-.09.03-.133zm20.838-3.653c.088.07.149.17.17.28l1.63 8.145c.053.26-.116.513-.376.565-.063.013-.128.013-.19 0l-7.002-1.437c-.26-.054-.427-.308-.374-.567.016-.075.048-.145.096-.204l5.371-6.707c.166-.207.468-.24.675-.075zm-8-1.404c.042.073.065.156.065.24v7.414c0 .265-.215.48-.48.48-.06 0-.117-.01-.172-.032L5.159 7.564c-.248-.095-.371-.373-.277-.62.04-.103.113-.188.208-.244l7.687-4.466c.23-.134.523-.056.657.174zm1.05-2.119c.088-.25.363-.38.613-.291l5.128 1.823c.05.018.098.045.14.078.207.166.24.468.074.675l-5.129 6.4c-.09.114-.228.18-.374.18-.265 0-.48-.215-.48-.48V.45c0-.055.009-.109.027-.16z"
            transform="translate(-17.000000, -15.000000) translate(17.000000, 15.000000) translate(0.060727, 0.000000)" />
    </g>
</svg>