<?xml version="1.0" encoding="UTF-8"?>
<svg version="1.1" xmlns="http://www.w3.org/2000/svg" width="820" height="820">
<path d="M0 0 C1.96570477 -0.00174825 3.93140861 -0.0052578 5.89710754 -0.01035666 C11.25176495 -0.01923063 16.60609765 -0.00339819 21.96071374 0.01675558 C27.75256103 0.03412636 33.54439191 0.0281771 39.33625793 0.02514648 C49.3554978 0.02305518 59.37463298 0.03554123 69.39384651 0.05809784 C83.87969925 0.09068902 98.36550396 0.10104548 112.85138916 0.10604981 C136.35716683 0.11443577 159.86289005 0.14134124 183.36863708 0.17926025 C206.19415499 0.21603925 229.01965796 0.24435344 251.84519958 0.2612915 C252.54965209 0.26181761 253.25410459 0.26234371 253.97990413 0.26288576 C261.05475865 0.26816016 268.12961329 0.27326337 275.20446802 0.2782412 C289.61481826 0.28838414 304.02516753 0.29966914 318.43551636 0.31164551 C319.42920985 0.31246925 319.42920985 0.31246925 320.44297797 0.31330963 C364.62826271 0.35006864 408.8135169 0.41352787 452.99876404 0.48101807 C452.41394199 3.91333041 451.29807996 5.55612389 448.85153294 8.00018597 C448.17499654 8.6833122 447.49846015 9.36643844 446.80142266 10.07026547 C446.05085577 10.81277596 445.30028888 11.55528644 444.52697754 12.32029724 C443.33949886 13.51267918 443.33949886 13.51267918 442.12803072 14.72914964 C439.46191316 17.40257543 436.78517133 20.06510561 434.10838318 22.72784424 C432.19870478 24.63665033 430.29128339 26.54770607 428.38375854 28.45866394 C423.73245928 33.11560123 419.07321813 37.76451437 414.41130788 42.41082665 C408.98618866 47.81842624 403.56911768 53.23405801 398.15242391 58.65009502 C388.49015905 68.31067118 378.82084564 77.96416125 369.14744568 87.61358643 C359.75365012 96.98411695 350.36441873 106.35918783 340.98045349 115.73956299 C340.11332807 116.60635426 340.11332807 116.60635426 339.22868497 117.49065646 C338.06418368 118.65471516 336.89968267 119.81877414 335.73518195 120.9828334 C335.16078717 121.55700862 334.58639239 122.13118383 333.99459171 122.72275829 C333.42167946 123.29545456 332.8487672 123.86815084 332.25849396 124.45820154 C323.32494959 133.38804772 314.38757659 142.3140614 305.44967424 151.23954537 C302.20650431 154.47827594 298.96383596 157.71750772 295.72151215 160.95708533 C290.57969109 166.09447924 285.43621333 171.23020223 280.2893141 176.36250897 C277.93649054 178.70871351 275.5847185 181.05595449 273.23454666 183.40481567 C270.69118763 185.94643764 268.14479051 188.4849747 265.59753418 191.02268982 C264.47502993 192.14649379 264.47502993 192.14649379 263.32984883 193.29300088 C262.31113262 194.30595537 262.31113262 194.30595537 261.27183628 195.33937359 C260.68381184 195.92615153 260.0957874 196.51292947 259.48994404 197.11748856 C256.3803494 199.96089045 253.77670744 199.60680996 249.67700291 199.60851002 C249.01783667 199.61015385 248.35867043 199.61179768 247.67952946 199.61349133 C245.44913322 199.61783658 243.21880137 199.61502184 240.98840332 199.61231995 C239.38171937 199.61402089 237.77503583 199.61617002 236.16835302 199.6187312 C232.66376633 199.6233401 229.15919732 199.62474675 225.65460777 199.62376595 C219.9530149 199.62217727 214.25143966 199.62736658 208.54985046 199.63339233 C200.27053902 199.64151614 191.99123067 199.64645297 183.71191597 199.649683 C170.62379786 199.65517409 157.5357059 199.67206676 144.44760132 199.69102478 C139.97166924 199.69738208 135.4957371 199.70369046 131.01980495 199.71000195 C129.90108772 199.71158571 128.78237048 199.71316947 127.62975271 199.71480123 C114.88614053 199.73274915 102.1425265 199.74896911 89.39891052 199.76397705 C88.23359656 199.76535292 87.06828261 199.76672879 85.8676561 199.76814636 C66.99619174 199.79006207 48.12473408 199.80082861 29.25325925 199.8083478 C9.88357015 199.81642127 -9.48606145 199.83972107 -28.85571772 199.87630147 C-40.80490454 199.89832193 -52.75397311 199.90799247 -64.70317919 199.90180113 C-72.89687534 199.89862443 -81.09047063 199.90997068 -89.28413557 199.93269555 C-94.01053114 199.94535287 -98.73670196 199.95154587 -103.46310616 199.94027901 C-107.79437072 199.93008699 -112.12519962 199.93840832 -116.45641286 199.96114197 C-118.01911588 199.96612311 -119.58185824 199.96443355 -121.14454197 199.95520929 C-135.77914575 199.8756511 -146.18893456 202.78673855 -156.75123596 213.20758057 C-163.08934158 220.14780622 -167.24150328 228.9324148 -167.26294899 238.40427208 C-167.27041448 239.5727057 -167.27787997 240.74113932 -167.28557169 241.94498003 C-167.28363696 243.21929781 -167.28170223 244.4936156 -167.27970886 245.80654907 C-167.28471391 247.18116447 -167.29059032 248.55577692 -167.2972616 249.93038523 C-167.31305038 253.70216677 -167.31649166 257.47387379 -167.31791019 261.24568439 C-167.3216062 265.31516815 -167.33676269 269.38461113 -167.3505249 273.45407104 C-167.37279524 280.50285794 -167.38780989 287.55163033 -167.397892 294.60044479 C-167.41247951 304.79183339 -167.43801655 314.98317142 -167.46622328 325.17453034 C-167.51168995 341.70945948 -167.54830529 358.24439589 -167.57936096 374.77935791 C-167.60954701 390.84121987 -167.64389754 406.90306403 -167.68385315 422.96490479 C-167.6863147 423.95501098 -167.68877625 424.94511717 -167.69131239 425.96522658 C-167.703687 430.9323146 -167.71614353 435.89940241 -167.72864079 440.86649013 C-167.83220672 482.071308 -167.9214106 523.2761478 -168.00123596 564.48101807 C-170.93065976 563.15752701 -173.00863726 561.72445013 -175.27941418 559.45731544 C-175.90883928 558.83372253 -176.53826439 558.21012962 -177.18676299 557.56763995 C-177.86934324 556.88128037 -178.55192349 556.1949208 -179.25518799 555.48776245 C-179.98729502 554.75948097 -180.71940205 554.03119948 -181.47369415 553.28084886 C-183.9325745 550.83231022 -186.38422247 548.37665596 -188.83595276 545.92095947 C-190.59490887 544.16634942 -192.35428288 542.4121582 -194.11404419 540.65835571 C-198.40246206 536.3819616 -202.68610259 532.10083624 -206.96734109 527.81725855 C-210.45098644 524.33182959 -213.93639437 520.8481727 -217.42305946 517.36576462 C-217.91948402 516.86993525 -218.41590858 516.37410588 -218.9273763 515.86325138 C-219.93597742 514.85586206 -220.94457971 513.8484739 -221.95318315 512.84108691 C-231.41717724 503.38797467 -240.87463616 493.92834507 -250.33014182 484.46674339 C-258.96280235 475.82892444 -267.60362135 467.19932054 -276.24837627 458.57360716 C-285.13504875 449.70635812 -294.01609734 440.83351189 -302.89118892 431.95467126 C-307.86961644 426.97433707 -312.85018779 421.99619475 -317.83666039 417.02391434 C-322.53286564 412.34094008 -327.22108933 407.65007797 -331.90418053 402.95398331 C-333.61838694 401.23742036 -335.33512164 399.52337768 -337.05464554 397.81214142 C-360.14391009 374.82609415 -360.14391009 374.82609415 -364.00123596 363.48101807 C-364.37248596 362.42914307 -364.74373596 361.37726807 -365.12623596 360.29351807 C-369.41794121 346.49875118 -368.03185515 331.58536101 -361.64237833 318.75165951 C-356.99647453 310.29944403 -351.10770042 303.8804544 -344.32679749 297.17166138 C-343.1424478 295.98153926 -341.95918844 294.7903313 -340.77691698 293.59814465 C-337.54916994 290.34965465 -334.30617332 287.11678582 -331.06028128 283.88644004 C-327.55277915 280.39029943 -324.05975602 276.87974157 -320.56480408 273.37106323 C-313.72458739 266.50865871 -306.87097669 259.65978546 -300.01240665 252.81572901 C-294.43475766 247.24939254 -288.86203316 241.67816993 -283.29275513 236.1034584 C-282.49873036 235.30866748 -281.7047056 234.51387655 -280.88661948 233.69500104 C-279.27332904 232.0801119 -277.66004979 230.46521158 -276.0467816 228.85030021 C-260.93119159 213.720465 -245.80033705 198.60597019 -230.66418701 183.49670745 C-217.6959048 170.55074988 -204.74076934 157.59175759 -191.79518127 144.62310791 C-176.74297676 129.54410135 -161.68263666 114.47329687 -146.60936213 99.41535008 C-144.99964529 97.80722589 -143.38993885 96.19909131 -141.78024292 94.5909462 C-140.98835476 93.79982941 -140.1964666 93.00871263 -139.38058183 92.19362261 C-133.81899006 86.63633559 -128.26319592 81.07329334 -122.70965576 75.50796127 C-115.93293563 68.71716808 -109.14727708 61.93545781 -102.35026437 55.1649736 C-98.88696679 51.71475151 -95.42766577 48.26077315 -91.97922897 44.79569244 C-88.81415059 41.61557034 -85.63749651 38.44748393 -82.45173484 35.28808607 C-81.30940735 34.15128312 -80.17114303 33.01037705 -79.03772181 31.8646941 C-56.83483012 9.44037518 -31.34540491 -0.20999847 0 0 Z " fill="#4920EE" transform="translate(367.00123596191406,-0.48101806640625)"/>
<path d="M0 0 C2.93611564 1.3259244 5.01691411 2.76554797 7.29379559 5.03652668 C8.24315834 5.9762161 8.24315834 5.9762161 9.21170014 6.93488914 C10.24140694 7.96924174 10.24140694 7.96924174 11.29191589 9.02449036 C12.02810648 9.75614983 12.76429706 10.4878093 13.52279645 11.24164027 C15.99550065 13.70165558 18.46097139 16.16879456 20.92651367 18.63598633 C22.69532914 20.39881904 24.46455505 22.16124 26.23416138 23.92327881 C30.54672198 28.21997908 34.85445557 32.52146301 39.15964868 36.82554135 C42.66301154 40.32795325 46.16795081 43.82877973 49.67400551 47.32849693 C59.62546401 57.26233482 69.57271039 67.20036325 79.51461276 77.14376513 C80.05063283 77.67986512 80.58665291 78.2159651 81.13891602 78.76831055 C81.67559449 79.30507078 82.21227296 79.84183102 82.76521442 80.39485671 C91.44498385 89.07543741 100.13466301 97.74602127 108.82894572 106.41206352 C117.76720611 115.32152135 126.69791076 124.23849257 135.62092 133.16322535 C140.62598462 138.16895174 145.63403315 143.17160312 150.6502285 148.16617775 C155.37498989 152.87070464 160.08913666 157.58562303 164.79654312 162.30752563 C166.51954718 164.0326115 168.24592659 165.75433417 169.97603416 167.47229576 C198.41772402 195.72732106 198.41772402 195.72732106 198.59570312 217.33398438 C198.58474609 218.52314453 198.57378906 219.71230469 198.5625 220.9375 C198.58634766 222.12279297 198.61019531 223.30808594 198.63476562 224.52929688 C198.60627127 241.84436678 189.46154902 253.90087862 177.68085146 265.72970295 C176.58787008 266.81758197 175.49474424 267.90531586 174.40148926 268.99291992 C173.225816 270.17349004 172.05079225 271.35470726 170.87635756 272.53650951 C167.66698727 275.76220166 164.44840539 278.97855908 161.22813129 282.19336081 C157.7488157 285.66999657 154.27813577 289.15523588 150.80627441 292.63931274 C144.01013725 299.4564668 137.20580298 306.26538114 130.39825779 313.07114148 C124.86182129 318.60626832 119.32795453 324.14395166 113.79588318 329.68344116 C112.19992643 331.28149721 110.60396883 332.87955241 109.00801039 334.47760677 C107.8163185 335.67086396 107.8163185 335.67086396 106.60055202 336.88822734 C91.58649267 351.92117443 76.56248622 366.94414999 61.53556818 381.96424186 C47.80684535 395.68739193 34.09136264 409.4236887 20.38199669 423.16617382 C6.2875251 437.29442887 -7.81625791 451.41332783 -21.92993975 465.52239323 C-29.8464033 473.43661661 -37.75911741 481.35450315 -45.66197205 489.28231812 C-52.3912934 496.03271287 -59.12934869 502.7742401 -65.87863201 509.50467849 C-69.31767179 512.93459728 -72.75267255 516.3683064 -76.17675781 519.81315994 C-79.31961256 522.97486463 -82.47406702 526.12451968 -85.63763672 529.26549304 C-86.77190741 530.39561311 -87.90209881 531.52984794 -89.0274238 532.66887605 C-98.98463302 542.73889887 -110.08160314 551.4319894 -123.25 556.9375 C-123.85328125 557.20111328 -124.4565625 557.46472656 -125.078125 557.73632812 C-127.03248066 558.56082192 -129.00325118 559.28410896 -131 560 C-131.69772154 560.25983573 -132.39544308 560.51967146 -133.1143077 560.78738099 C-142.46146983 563.81197212 -151.83668987 563.40834409 -161.54545593 563.36076355 C-163.53485497 563.36207298 -165.5242535 563.36470194 -167.51364928 563.36853105 C-172.96161865 563.37522083 -178.40941018 563.36326404 -183.85735691 563.34819686 C-189.7392906 563.33521904 -195.62121459 563.3396272 -201.50315857 563.34190369 C-211.687821 563.34347531 -221.87242569 563.33407762 -232.05707359 563.31719017 C-242.73505472 563.29949625 -253.41301625 563.28788855 -264.09101295 563.28463173 C-264.75570327 563.28442551 -265.42039359 563.28421929 -266.10522604 563.28400682 C-269.48104903 563.28299178 -272.85687205 563.28208765 -276.23269508 563.2812262 C-300.12446537 563.27493013 -324.01620561 563.2547325 -347.90795898 563.22631836 C-371.11401205 563.19875163 -394.32005688 563.17750737 -417.52612305 563.16479492 C-418.2418231 563.16440034 -418.95752315 563.16400576 -419.69491108 563.16359923 C-426.88246716 563.15964356 -434.07002331 563.15581614 -441.25757951 563.15208265 C-455.89859288 563.14447464 -470.5396057 563.13601089 -485.18061829 563.12702942 C-485.85374278 563.12661755 -486.52686727 563.12620568 -487.22038948 563.12578133 C-532.14693892 563.09819371 -577.07347126 563.05059726 -622 563 C-617.59056266 557.72437965 -612.9466652 552.80460899 -608.07879639 547.95181274 C-607.29920602 547.17066239 -606.51961565 546.38951203 -605.71640134 545.58469045 C-603.11636184 542.98067789 -600.51278136 540.38023573 -597.90917969 537.77978516 C-596.0394347 535.90868455 -594.16988529 534.03739037 -592.30056763 532.16586304 C-587.75885257 527.61971248 -583.21445187 523.07625586 -578.66906688 518.53377493 C-574.97650368 514.8434731 -571.28492132 511.15219275 -567.59403229 507.46021652 C-567.06810404 506.93413504 -566.54217579 506.40805356 -566.00031032 505.86603021 C-564.93185875 504.79725891 -563.86340942 503.72848537 -562.79496232 502.65970962 C-552.78918843 492.6510878 -542.78035782 482.64552729 -532.77047125 472.64101891 C-524.17727188 464.05229349 -515.58670687 455.46094046 -506.99804688 446.86767578 C-497.02077822 436.88506045 -487.04189578 426.90406292 -477.06041646 416.92565763 C-475.99717709 415.86273681 -474.93393981 414.79981391 -473.87070465 413.73688889 C-473.34757505 413.21391356 -472.82444545 412.69093824 -472.28546344 412.15211517 C-468.59448306 408.46199919 -464.9046663 404.77072212 -461.21529388 401.07899857 C-456.25679764 396.11741177 -451.29566907 391.15847032 -446.33272934 386.20132828 C-444.50727545 384.37720175 -442.68268144 382.55221427 -440.85898972 380.72632599 C-438.37937821 378.24400228 -435.89674012 375.76474685 -433.41326904 373.2862854 C-432.68390727 372.5546929 -431.95454549 371.82310041 -431.20308185 371.06933844 C-430.54095478 370.40981912 -429.87882772 369.75029981 -429.1966362 369.07079506 C-428.62347317 368.49779439 -428.05031015 367.92479371 -427.45977855 367.33442938 C-424.37514242 364.51466669 -421.75872575 364.87419762 -417.69664955 364.87250805 C-416.71088215 364.8700423 -416.71088215 364.8700423 -415.70520025 364.86752674 C-413.48155667 364.86318153 -411.25797768 364.86599622 -409.03433228 364.86869812 C-407.43248581 364.86699717 -405.83063977 364.86484804 -404.22879446 364.86228687 C-400.73475048 364.85767797 -397.24072424 364.85627131 -393.7466774 364.85725212 C-388.0621699 364.85884081 -382.37768008 364.85365142 -376.69317627 364.84762573 C-368.43842194 364.8395018 -360.18367071 364.83456504 -351.92891312 364.83133507 C-338.87832587 364.82584358 -325.82776484 364.80895033 -312.77719116 364.78999329 C-308.31384473 364.78363596 -303.85049822 364.77732757 -299.38715172 364.77101612 C-298.27157108 364.76943236 -297.15599044 364.7678486 -296.00660432 364.76621684 C-283.29851284 364.74826868 -270.5904195 364.73204902 -257.88232422 364.71704102 C-256.72026319 364.71566514 -255.55820215 364.71428927 -254.36092715 364.71287171 C-235.54510383 364.69095932 -216.72928723 364.6801903 -197.91345342 364.67267027 C-178.59913002 364.6645952 -159.28486427 364.64128996 -139.97057378 364.6047166 C-128.05670567 364.5827023 -116.1429561 364.57302371 -104.22906868 364.57921693 C-96.05825885 364.58239501 -87.88755011 364.57103835 -79.71677156 364.54832252 C-75.00442878 364.53567221 -70.29231126 364.52946367 -65.57995987 364.54073906 C-61.26036208 364.55094156 -56.94120065 364.54258827 -52.6216542 364.5198761 C-51.06431694 364.51490071 -49.50694017 364.51657341 -47.94962235 364.52580877 C-33.09298634 364.60693997 -21.99082714 361.8902586 -11.25390625 351.2734375 C-2.14642016 341.3256098 -0.70162543 330.63047667 -0.7215271 317.59217834 C-0.71652047 316.22082469 -0.71064359 314.84947399 -0.70397437 313.47812742 C-0.68820478 309.72000672 -0.68474537 305.96196084 -0.68332577 302.20381105 C-0.6796264 298.14729656 -0.66446824 294.09082286 -0.65071106 290.03433228 C-0.62845127 283.00957226 -0.61343028 275.98482678 -0.60334396 268.96003914 C-0.58875041 258.80341558 -0.56321167 248.64684267 -0.53501268 238.49024885 C-0.489557 222.01133492 -0.45293712 205.53241369 -0.421875 189.0534668 C-0.39168445 173.04694335 -0.35733185 157.04043774 -0.31738281 141.03393555 C-0.31492126 140.04707908 -0.31245972 139.0602226 -0.30992357 138.04346139 C-0.29754887 133.09262807 -0.28509236 128.14179497 -0.27259517 123.19096196 C-0.1690457 82.1273328 -0.07983639 41.06368167 0 0 Z " fill="#4920EF" transform="translate(622,257)"/>
<path d="M0 0 C3.76687864 1.88343932 4.79421646 2.69132469 7 6 C5.68 5.34 4.36 4.68 3 4 C2.99864347 4.67385516 2.99728694 5.34771032 2.99588931 6.04198533 C2.91530069 45.94900315 2.82437147 85.85598535 2.71994839 125.76294823 C2.70742899 130.55086829 2.6949963 135.33878856 2.68261719 140.12670898 C2.6789182 141.55653776 2.6789182 141.55653776 2.67514448 143.01525196 C2.63538271 158.46498064 2.60265053 173.91471667 2.57250018 189.36446676 C2.54142471 205.20840725 2.50283215 221.05231647 2.45720994 236.89622182 C2.42927994 246.6787112 2.40726654 256.46117762 2.39273749 266.24369624 C2.38222386 272.94504317 2.36443189 279.64634572 2.34083296 286.34765927 C2.32741981 290.21832787 2.31729564 294.08893405 2.31578636 297.95962715 C2.31406914 302.14942079 2.29706655 306.33901017 2.2784729 310.52876282 C2.28040763 311.7612368 2.28234237 312.99371078 2.28433573 314.26353246 C2.27687024 315.38070879 2.26940475 316.49788513 2.26171303 317.64891529 C2.25943471 318.61682241 2.25715638 319.58472953 2.25480902 320.58196718 C2 323 2 323 0 326 C0 218.42 0 110.84 0 0 Z " fill="#401DE8" transform="translate(622,257)"/>
<path d="" fill="#000000" transform="translate(0,0)"/>
<path d="" fill="#000000" transform="translate(0,0)"/>
<path d="" fill="#000000" transform="translate(0,0)"/>
<path d="" fill="#000000" transform="translate(0,0)"/>
<path d="" fill="#000000" transform="translate(0,0)"/>
<path d="" fill="#000000" transform="translate(0,0)"/>
<path d="" fill="#000000" transform="translate(0,0)"/>
<path d="" fill="#000000" transform="translate(0,0)"/>
<path d="" fill="#000000" transform="translate(0,0)"/>
<path d="" fill="#000000" transform="translate(0,0)"/>
<path d="" fill="#000000" transform="translate(0,0)"/>
<path d="" fill="#000000" transform="translate(0,0)"/>
<path d="" fill="#000000" transform="translate(0,0)"/>
<path d="" fill="#000000" transform="translate(0,0)"/>
<path d="" fill="#000000" transform="translate(0,0)"/>
<path d="" fill="#000000" transform="translate(0,0)"/>
<path d="" fill="#000000" transform="translate(0,0)"/>
<path d="" fill="#000000" transform="translate(0,0)"/>
<path d="" fill="#000000" transform="translate(0,0)"/>
<path d="" fill="#000000" transform="translate(0,0)"/>
<path d="" fill="#000000" transform="translate(0,0)"/>
<path d="" fill="#000000" transform="translate(0,0)"/>
<path d="" fill="#000000" transform="translate(0,0)"/>
<path d="" fill="#000000" transform="translate(0,0)"/>
<path d="" fill="#0000FF" transform="translate(0,0)"/>
<path d="" fill="#0000FF" transform="translate(0,0)"/>
<path d="" fill="#000000" transform="translate(0,0)"/>
<path d="" fill="#000000" transform="translate(0,0)"/>
<path d="" fill="#000000" transform="translate(0,0)"/>
<path d="" fill="#000000" transform="translate(0,0)"/>
<path d="" fill="#000000" transform="translate(0,0)"/>
<path d="" fill="#000000" transform="translate(0,0)"/>
<path d="" fill="#000000" transform="translate(0,0)"/>
<path d="" fill="#000000" transform="translate(0,0)"/>
<path d="" fill="#000000" transform="translate(0,0)"/>
<path d="" fill="#000000" transform="translate(0,0)"/>
<path d="" fill="#000000" transform="translate(0,0)"/>
<path d="" fill="#000000" transform="translate(0,0)"/>
<path d="" fill="#000000" transform="translate(0,0)"/>
<path d="" fill="#000000" transform="translate(0,0)"/>
<path d="" fill="#000000" transform="translate(0,0)"/>
<path d="" fill="#000000" transform="translate(0,0)"/>
<path d="" fill="#000000" transform="translate(0,0)"/>
<path d="" fill="#000000" transform="translate(0,0)"/>
<path d="" fill="#000000" transform="translate(0,0)"/>
<path d="" fill="#000000" transform="translate(0,0)"/>
<path d="" fill="#000000" transform="translate(0,0)"/>
<path d="" fill="#000000" transform="translate(0,0)"/>
<path d="" fill="#000000" transform="translate(0,0)"/>
</svg>
