<svg width="24" height="24" viewBox="0 0 24 24" fill="none" xmlns="http://www.w3.org/2000/svg">
<path d="M12 24C18.6274 24 24 18.6274 24 12C24 5.37258 18.6274 0 12 0C5.37258 0 0 5.37258 0 12C0 18.6274 5.37258 24 12 24Z" fill="#5566E3"/>
<path d="M16.8888 7.66076C15.9279 7.22916 14.9135 6.92296 13.8715 6.75C13.729 7.00008 13.5999 7.25738 13.485 7.52082C12.3751 7.35673 11.2464 7.35673 10.1365 7.52082C10.0215 7.25741 9.89252 7.00011 9.74999 6.75C8.70734 6.92442 7.69228 7.23135 6.73043 7.66302C4.82092 10.4348 4.30329 13.1378 4.56211 15.8023C5.68036 16.613 6.93201 17.2294 8.26264 17.625C8.56226 17.2296 8.82739 16.8102 9.0552 16.3711C8.6225 16.2126 8.20486 16.017 7.80712 15.7865C7.9118 15.7121 8.01418 15.6353 8.1131 15.5608C9.27042 16.0948 10.5336 16.3717 11.8125 16.3717C13.0914 16.3717 14.3546 16.0948 15.5119 15.5608C15.612 15.641 15.7143 15.7177 15.8179 15.7865C15.4194 16.0173 15.0009 16.2133 14.5675 16.3723C14.795 16.8111 15.0602 17.2302 15.36 17.625C16.6918 17.231 17.9444 16.6148 19.0629 15.8035C19.3666 12.7134 18.5441 10.0353 16.8888 7.66076ZM9.38304 14.1636C8.6618 14.1636 8.06594 13.5215 8.06594 12.7315C8.06594 11.9415 8.64109 11.2937 9.38074 11.2937C10.1204 11.2937 10.7116 11.9415 10.699 12.7315C10.6863 13.5215 10.1181 14.1636 9.38304 14.1636ZM14.2419 14.1636C13.5195 14.1636 12.926 13.5215 12.926 12.7315C12.926 11.9415 13.5011 11.2937 14.2419 11.2937C14.9827 11.2937 15.5694 11.9415 15.5567 12.7315C15.5441 13.5215 14.977 14.1636 14.2419 14.1636Z" fill="white"/>
</svg>
