<svg width="20" height="20" viewBox="0 0 20 20" fill="none" xmlns="http://www.w3.org/2000/svg">
<g clip-path="url(#clip0_1286_26598)" transform="translate(-0.5)">
<path fill-rule="evenodd" clip-rule="evenodd" d="M17.375 13.7668L17.375 7.49862C17.375 6.92362 17.1417 6.39862 16.7667 6.02362L16.775 6.01528L14.1167 3.35695C13.875 3.11528 13.475 3.11528 13.2334 3.35695C12.9917 3.59862 12.9917 3.99862 13.2334 4.24028L14.55 5.55695C13.675 5.89028 13.0834 6.78195 13.2334 7.81528C13.3667 8.73195 14.15 9.47362 15.0667 9.57362C15.4584 9.61528 15.8 9.54862 16.125 9.40695V12.5168L17.375 13.7668ZM14.4584 7.49862C14.4584 7.95695 14.8334 8.33195 15.2917 8.33195C15.75 8.33195 16.125 7.95695 16.125 7.49862C16.125 7.04028 15.75 6.66528 15.2917 6.66528C14.8334 6.66528 14.4584 7.04028 14.4584 7.49862Z" fill="currentColor"/>
<path d="M11.9584 8.3501L11.9584 4.16528C11.9584 3.24862 11.2084 2.49862 10.2917 2.49862L6.10691 2.49862L7.77357 4.16528L9.45836 4.16528C9.9167 4.16528 10.2917 4.54028 10.2917 4.99862L10.2917 6.68343L11.9584 8.3501Z" fill="currentColor"/>
<path d="M5.2917 7.89955V8.33195H5.72409L11.9584 14.5663V16.6653C11.9584 17.1236 11.5834 17.4986 11.125 17.4986H4.45836C4.00003 17.4986 3.62503 17.1236 3.62503 16.6653L3.62503 6.23287L5.2917 7.89955Z" fill="currentColor"/>
<path d="M13.2873 15.8952C13.4918 16.6561 14.0767 17.2817 14.8454 17.4533L13.2873 15.8952Z" fill="currentColor"/>
<path fill-rule="evenodd" clip-rule="evenodd" d="M2.43755 1.93761C2.72631 1.64886 3.19447 1.64886 3.48322 1.93761L18.5625 17.0169C18.8513 17.3057 18.8513 17.7738 18.5625 18.0626C18.2738 18.3513 17.8056 18.3513 17.5169 18.0626L2.43755 2.98328C2.1488 2.69452 2.1488 2.22636 2.43755 1.93761Z" fill="currentColor"/>
</g>
<defs>
<clipPath id="clip0_1286_26598">
<rect width="20" height="20" fill="white" transform="translate(0.5)"/>
</clipPath>
</defs>
</svg>
