<svg width="24" height="24" viewBox="0 0 24 24" fill="none" xmlns="http://www.w3.org/2000/svg">
<path fill-rule="evenodd" clip-rule="evenodd" d="M16.75 14.221V8.11098C16.75 7.37598 16.05 6.84398 15.342 7.03998L7.482 9.22398C7.05 9.34498 6.75 9.73898 6.75 10.188V11.72C6.75 12.151 7.026 12.533 7.435 12.669L15.289 15.276C16.008 15.515 16.75 14.979 16.75 14.221Z" stroke="#FBB324" stroke-linecap="round" stroke-linejoin="round"/>
<path d="M12.53 17L9.75 16.08" stroke="#FBB324" stroke-linecap="round" stroke-linejoin="round"/>
<path fill-rule="evenodd" clip-rule="evenodd" d="M16 21H8C5.239 21 3 18.761 3 16V8C3 5.239 5.239 3 8 3H16C18.761 3 21 5.239 21 8V16C21 18.761 18.761 21 16 21Z" stroke="#FBB324" stroke-linecap="round" stroke-linejoin="round"/>
</svg>
