<svg width="32" height="32" viewBox="0 0 32 32" fill="none" xmlns="http://www.w3.org/2000/svg">
    <path fill-rule="evenodd" clip-rule="evenodd"
        d="M11.7693 24.876H8.46133C7.72267 24.876 7.124 24.2773 7.124 23.5387V20.2293C7.124 19.8747 6.98267 19.5347 6.732 19.284L4.392 16.944C3.86933 16.4213 3.86933 15.5747 4.392 15.0533L6.756 12.6893C6.992 12.4533 7.124 12.1347 7.124 11.8013V8.46133C7.124 7.72267 7.72267 7.124 8.46133 7.124H11.7707C12.1253 7.124 12.4653 6.98267 12.716 6.732L15.056 4.392C15.5787 3.86933 16.4253 3.86933 16.9467 4.392L19.2867 6.732C19.5373 6.98267 19.8773 7.124 20.232 7.124H23.5413C24.28 7.124 24.8787 7.72267 24.8787 8.46133V11.7707C24.8787 12.1253 25.02 12.4653 25.2707 12.716L27.6107 15.056C28.1333 15.5787 28.1333 16.4253 27.6107 16.9467L25.2707 19.2867C25.02 19.5373 24.8787 19.8773 24.8787 20.232V23.5413C24.8787 24.28 24.28 24.8787 23.5413 24.8787H20.232C19.8773 24.8787 19.5373 25.02 19.2867 25.2707L16.9467 27.6107C16.424 28.1333 15.5773 28.1333 15.056 27.6107L12.716 25.2707C12.464 25.016 12.124 24.876 11.7693 24.876Z"
        stroke="currentColor" stroke-linecap="round" stroke-linejoin="round" />
    <path d="M20 14L15 19L12 16" stroke="currentColor" stroke-linecap="round" stroke-linejoin="round" />
</svg>