<svg width="10" height="14" viewBox="0 0 10 14" fill="none" xmlns="http://www.w3.org/2000/svg">
<path d="M4.30981 6.99788L9.26206 9.85336C9.30168 9.87587 9.34643 9.88765 9.39193 9.88752C9.43744 9.8874 9.48213 9.87538 9.52161 9.85264C9.5611 9.82991 9.59403 9.79725 9.61717 9.75785C9.64031 9.71846 9.65287 9.6737 9.65361 9.62795L9.65446 4.36955C9.65395 4.32372 9.64154 4.27882 9.61847 4.23929C9.59539 4.19977 9.56245 4.16699 9.52289 4.1442C9.48334 4.12141 9.43855 4.10941 9.39296 4.10938C9.34738 4.10934 9.30257 4.12129 9.26299 4.14402L4.30981 6.99788Z" fill="currentColor"/>
<path d="M8.97438 2.91305L5.68692 0.386491C5.65184 0.360001 5.61074 0.342755 5.56734 0.336323C5.52394 0.32989 5.47963 0.334477 5.43844 0.349664C5.39726 0.364852 5.36051 0.390158 5.33154 0.423277C5.30257 0.456396 5.2823 0.496276 5.27258 0.539284L4.07056 6.16436L8.9477 3.34871C8.98542 3.32751 9.01724 3.29712 9.04024 3.26034C9.06324 3.22356 9.07669 3.18156 9.07934 3.1382C9.082 3.09484 9.07378 3.0515 9.05544 3.01216C9.0371 2.97282 9.00923 2.93874 8.97438 2.91305Z" fill="currentColor"/>
<path d="M5.68475 13.6124L8.98063 11.0831C9.0147 11.0569 9.04185 11.0227 9.05967 10.9834C9.07749 10.9442 9.08544 10.9012 9.08282 10.8581C9.08019 10.8151 9.06708 10.7734 9.04463 10.7366C9.02218 10.6999 8.99109 10.6692 8.95409 10.6474L4.07025 7.83398L5.27426 13.4594C5.28308 13.5026 5.30267 13.5427 5.33119 13.5762C5.35972 13.6096 5.39623 13.6351 5.4373 13.6504C5.47837 13.6657 5.52263 13.6703 5.56592 13.6636C5.60921 13.6569 5.65011 13.6393 5.68475 13.6124Z" fill="currentColor"/>
<path d="M3.04028 6.99723L4.3374 0.936529C4.34867 0.884035 4.34355 0.829323 4.32274 0.779862C4.30193 0.730401 4.26645 0.688601 4.22114 0.660169C4.17582 0.631736 4.12288 0.618056 4.06955 0.620997C4.01621 0.623937 3.96508 0.643355 3.92313 0.676598L0.60444 3.225C0.520359 3.28965 0.452254 3.37293 0.40543 3.46838C0.358605 3.56382 0.334325 3.66884 0.33448 3.77526L0.333436 10.2298C0.333247 10.3362 0.357493 10.4412 0.404286 10.5367C0.45108 10.6322 0.519158 10.7155 0.603218 10.7801L3.92109 13.3258C3.96334 13.3577 4.01419 13.3759 4.06696 13.3782C4.11972 13.3805 4.17195 13.3667 4.21676 13.3386C4.26158 13.3105 4.2969 13.2694 4.31808 13.2208C4.33926 13.1721 4.34531 13.1182 4.33544 13.066L3.04028 6.99723Z" fill="currentColor"/>
</svg>
