<svg width="136" height="136" viewBox="0 0 136 136" fill="none" xmlns="http://www.w3.org/2000/svg">
<path d="M104.667 101V111H94" stroke="#134E4B" stroke-width="4" stroke-linecap="round" stroke-linejoin="round"/>
<path d="M46 65.6667H88.6667" stroke="#134E4B" stroke-width="4" stroke-linecap="round" stroke-linejoin="round"/>
<path d="M46 47.96H88.6667" stroke="#134E4B" stroke-width="4" stroke-linecap="round" stroke-linejoin="round"/>
<path d="M46.2666 84.3333H67.3333" stroke="#134E4B" stroke-width="4" stroke-linecap="round" stroke-linejoin="round"/>
<path d="M102 133C115.253 133 126 122.253 126 109C126 95.7467 115.253 85 102 85C88.7413 85 78 95.7467 78 109C78 122.253 88.7413 133 102 133Z" stroke="#134E4B" stroke-width="4" stroke-linecap="round" stroke-linejoin="round"/>
<path d="M78.0853 111H40.6667C34.7733 111 30 106.227 30 100.333V36.3333C30 30.44 34.7733 25.6667 40.6667 25.6667H94C99.8933 25.6667 104.667 30.44 104.667 36.3333V85.144" stroke="#134E4B" stroke-width="4" stroke-linecap="round" stroke-linejoin="round"/>
</svg>
