<?xml version="1.0" encoding="UTF-8"?>
<svg id="Layer_2" data-name="Layer 2" xmlns="http://www.w3.org/2000/svg" viewBox="0 0 113.73 124.78">
  <defs>
    <style>
      .cls-1 {
        fill: #fff;
      }
    </style>
  </defs>
  <g id="Layer_1-2" data-name="Layer 1">
    <g>
      <path class="cls-1" d="M103.15,23.44L67.46,2.84c-6.55-3.79-14.62-3.79-21.18,0L10.6,23.44C4.04,27.23,0,34.22,0,41.78v41.21c0,7.56,4.04,14.56,10.6,18.35l35.68,20.6c6.56,3.79,14.63,3.79,21.18,0l35.69-20.6c6.55-3.79,10.59-10.78,10.59-18.35V41.78c0-7.56-4.04-14.56-10.59-18.35Zm-11.15,51.68c0,4.67-2.5,9-6.55,11.33l-22.04,12.73c-4.05,2.33-9.04,2.33-13.09,0l-22.04-12.73c-4.05-2.33-6.54-6.65-6.54-11.33v-25.45c0-4.67,2.49-9,6.54-11.34l22.04-12.72c4.05-2.34,9.04-2.34,13.09,0l22.04,12.72c4.05,2.34,6.55,6.67,6.55,11.34v25.45Z"/>
      <path class="cls-1" d="M74.68,53.49v16.64c0,1.69-.9,3.27-2.36,4.13l-13.03,7.67c-1.5,.89-3.36,.89-4.86,0l-13.02-7.67c-1.46-.86-2.36-2.43-2.36-4.13v-16.64c0-2.64,2.14-4.79,4.78-4.79h26.05c2.64,0,4.79,2.15,4.79,4.79Z"/>
    </g>
  </g>
</svg>