<svg width="12" height="12" viewBox="0 0 12 12" fill="none" xmlns="http://www.w3.org/2000/svg">
  <g id="Group">
    <path id="Vector"
      d="M8.75 3.75C8.06075 3.75 7.5 3.18925 7.5 2.5C7.5 1.409 8.529 0.3675 8.57275 0.32375C8.67025 0.226 8.82925 0.2255 8.92675 0.32325C8.97075 0.367 10 1.409 10 2.5C10 3.18925 9.43925 3.75 8.75 3.75Z"
      fill="#2C9CE4" />
    <path id="Vector_2"
      d="M3.25 3.25C2.6985 3.25 2.25 2.8015 2.25 2.25C2.25 1.65375 2.99425 0.892251 3.079 0.807251C3.126 0.760001 3.18725 0.736501 3.2575 0.734001C3.3245 0.734501 3.38825 0.761751 3.435 0.809751C3.5185 0.895751 4.25 1.6655 4.25 2.25C4.25 2.8015 3.8015 3.25 3.25 3.25Z"
      fill="#2C9CE4" />
    <path id="Vector_3"
      d="M5.75 4.75C5.3365 4.75 5 4.4135 5 4C5 3.41325 5.51475 2.88175 5.57325 2.82325C5.671 2.7255 5.829 2.7255 5.92675 2.82325C5.98525 2.88175 6.5 3.41325 6.5 4C6.5 4.4135 6.1635 4.75 5.75 4.75Z"
      fill="#2C9CE4" />
    <path id="Vector_4"
      d="M8.75 5.25C7.4495 5.25 6.31375 5.96425 5.7105 7.01975C5.47725 5.45525 4.1285 4.25 2.5 4.25H1C0.86175 4.25 0.75 4.36175 0.75 4.5V4.75C0.75 6.81775 2.43225 8.5 4.5 8.5H4.75C4.75 7.3645 3.81175 6.21775 2.701 5.9955C2.56575 5.9685 2.47775 5.83675 2.505 5.70125C2.53225 5.56575 2.6635 5.477 2.79925 5.50525C4.1505 5.7755 5.25 7.11875 5.25025 8.5V11.5C5.25025 11.6382 5.362 11.75 5.50025 11.75C5.6385 11.75 5.75025 11.6382 5.75025 11.5V10.25C5.75025 8.58875 6.846 7.284 8.68175 6.7595C8.81375 6.723 8.95275 6.79825 8.99075 6.9315C9.0285 7.064 8.95175 7.2025 8.81875 7.2405C7.21025 7.7 6.25025 8.825 6.25025 10.25H6.75025C9.2315 10.25 11.2502 8.23125 11.2502 5.75V5.25H8.75Z"
      fill="#2C9CE4" />
  </g>
</svg>