<svg width="16" height="16" viewBox="0 0 16 16" fill="none" xmlns="http://www.w3.org/2000/svg">
<path d="M12.6667 2L3.33333 2C2.6 2 2 2.6 2 3.33333L2 12.6667C2 13.4 2.6 14 3.33333 14L12.6667 14C13.4 14 14 13.4 14 12.6667L14 3.33333C14 2.6 13.4 2 12.6667 2ZM8.00667 12C7.54 12 7.16667 11.6267 7.16667 11.16C7.16667 10.6867 7.54 10.3267 8.00667 10.3267C8.48 10.3267 8.84 10.6867 8.84 11.16C8.83333 11.62 8.48 12 8.00667 12ZM10.0133 7.06667C9.50667 7.80667 9.02667 8.04 8.76667 8.51333C8.7 8.63333 8.66 8.72667 8.64 8.93333C8.60667 9.23333 8.34 9.45333 8.04 9.45333H8C7.65333 9.45333 7.38 9.16 7.41333 8.81333C7.43333 8.58667 7.48667 8.35333 7.61333 8.12667C7.94 7.54667 8.56 7.2 8.92 6.68667C9.3 6.14667 9.08667 5.13333 8.00667 5.13333C7.53333 5.13333 7.22 5.37333 7.02667 5.66C6.86 5.9 6.56667 6.01333 6.29333 5.9C5.94 5.76 5.81333 5.33333 6.02667 5.02667C6.43333 4.43333 7.11333 4 7.99333 4C8.98 4 9.65333 4.44667 10 5.01333C10.2933 5.49333 10.4667 6.39333 10.0133 7.06667Z" fill="currentColor"/>
</svg>
