<svg width="50" height="44" viewBox="0 0 50 44" fill="none" xmlns="http://www.w3.org/2000/svg">
<path d="M28.2315 0.0085298C15.7917 -0.333626 5.60042 9.66221 5.60042 22.0043H1.22573C0.125948 22.0043 -0.411723 23.324 0.370344 24.0816L7.189 30.9248C7.67779 31.4136 8.43542 31.4136 8.92421 30.9248L15.7429 24.0816C16.5005 23.324 15.9628 22.0043 14.863 22.0043H10.4883C10.4883 12.4728 18.2601 4.77427 27.8405 4.89647C36.932 5.01867 44.5816 12.6683 44.7038 21.7599C44.826 31.3158 37.1275 39.1121 27.5961 39.1121C23.6613 39.1121 20.0198 37.7679 17.1359 35.495C16.1583 34.7374 14.7897 34.8107 13.9099 35.6905C12.8834 36.717 12.9567 38.4522 14.1054 39.332C17.8202 42.2648 22.4882 44 27.5961 44C39.9381 44 49.9339 33.8086 49.5917 21.3688C49.274 9.90661 39.6937 0.326246 28.2315 0.0085298Z" fill="#31CB9E"/>
<path d="M28.0703 31.975C26.0804 31.975 24.4189 31.5901 23.086 30.8204C21.7719 30.0319 20.8614 28.8868 20.3545 27.3849L24.8038 25.47C24.8977 26.1458 25.0666 26.6903 25.3107 27.1033C25.5735 27.4975 25.9208 27.7885 26.3526 27.9762C26.7844 28.1452 27.2912 28.2297 27.8732 28.2297C28.3989 28.2297 28.84 28.1452 29.1967 27.9762C29.5722 27.7885 29.8632 27.5257 30.0697 27.1878C30.2762 26.8498 30.3795 26.4462 30.3795 25.9769C30.3795 25.4888 30.2762 25.0945 30.0697 24.7942C29.882 24.4938 29.6004 24.2779 29.2249 24.1465C28.8682 24.0151 28.427 23.9494 27.9014 23.9494C27.6573 23.9494 27.432 23.9588 27.2255 23.9775C27.019 23.9775 26.7844 23.9963 26.5215 24.0339V20.8799C26.6717 20.8987 26.8219 20.9175 26.9721 20.9363C27.1223 20.9363 27.3006 20.9363 27.5071 20.9363C28.3895 20.9363 29.0184 20.7579 29.3939 20.4012C29.7881 20.0258 29.9852 19.4438 29.9852 18.6553C29.9852 17.9795 29.7881 17.4632 29.3939 17.1065C29.0184 16.7498 28.4834 16.5715 27.7887 16.5715C27.0566 16.5715 26.4558 16.7686 25.9865 17.1628C25.5172 17.5383 25.2168 18.186 25.0854 19.1059L20.8332 17.6415C21.0397 16.609 21.4809 15.7361 22.1568 15.0227C22.8326 14.3093 23.6774 13.7649 24.6911 13.3894C25.7237 13.0139 26.8595 12.8262 28.0985 12.8262C29.5253 12.8262 30.7268 13.0327 31.703 13.4457C32.6792 13.8587 33.4207 14.4501 33.9276 15.2198C34.4345 15.9895 34.6879 16.8906 34.6879 17.9231C34.6879 18.7304 34.5565 19.4062 34.2937 19.9507C34.0496 20.4951 33.7305 20.9363 33.3363 21.2742C32.9608 21.6121 32.5759 21.8655 32.1817 22.0345C31.7875 22.1847 31.4589 22.2786 31.1961 22.3161V22.4006C31.534 22.4006 31.9189 22.4663 32.3507 22.5977C32.7824 22.7291 33.2048 22.945 33.6178 23.2454C34.0309 23.527 34.3688 23.9212 34.6316 24.4281C34.9132 24.935 35.054 25.5639 35.054 26.3148C35.054 27.4788 34.7442 28.4831 34.1247 29.3279C33.524 30.1727 32.698 30.8298 31.6467 31.2991C30.5953 31.7497 29.4032 31.975 28.0703 31.975Z" fill="#31CB9E"/>
</svg>
