<svg width="50" height="44" viewBox="0 0 50 44" fill="none" xmlns="http://www.w3.org/2000/svg">
<path d="M28.2315 0.0085298C15.7917 -0.333626 5.60042 9.66221 5.60042 22.0043H1.22573C0.125948 22.0043 -0.411723 23.324 0.370344 24.0816L7.189 30.9248C7.67779 31.4136 8.43542 31.4136 8.92421 30.9248L15.7429 24.0816C16.5005 23.324 15.9628 22.0043 14.863 22.0043H10.4883C10.4883 12.4728 18.2601 4.77427 27.8405 4.89647C36.932 5.01867 44.5816 12.6683 44.7038 21.7599C44.826 31.3158 37.1275 39.1121 27.5961 39.1121C23.6613 39.1121 20.0198 37.7679 17.1359 35.495C16.1583 34.7374 14.7897 34.8107 13.9099 35.6905C12.8834 36.717 12.9567 38.4522 14.1054 39.332C17.8202 42.2648 22.4882 44 27.5961 44C39.9381 44 49.9339 33.8086 49.5917 21.3688C49.274 9.90661 39.6937 0.326246 28.2315 0.0085298Z" fill="#31CB9E"/>
<path d="M21.2425 31.6934V28.5958C22.8383 27.6008 24.1993 26.6715 25.3257 25.8079C26.4521 24.9444 27.3626 24.1277 28.0573 23.358C28.7706 22.5883 29.2963 21.8562 29.6342 21.1615C29.9721 20.4669 30.1411 19.7911 30.1411 19.134C30.1411 18.4206 29.9252 17.8293 29.4934 17.3599C29.0804 16.8718 28.4609 16.6278 27.6349 16.6278C26.7525 16.6278 26.0673 16.9563 25.5792 17.6134C25.0911 18.2517 24.8282 19.1903 24.7907 20.4294L20.6512 19.1622C20.6887 17.773 21.0173 16.609 21.6368 15.6703C22.2751 14.7317 23.1386 14.0277 24.2275 13.5584C25.3163 13.0702 26.5554 12.8262 27.9446 12.8262C29.1649 12.8262 30.2162 13.0045 31.0985 13.3612C31.9996 13.6992 32.7318 14.1591 33.295 14.7411C33.8582 15.3043 34.2712 15.9426 34.534 16.6559C34.8156 17.3506 34.9564 18.0639 34.9564 18.7961C34.9564 19.9976 34.6467 21.124 34.0272 22.1753C33.4076 23.2078 32.5065 24.2122 31.3238 25.1884C30.1599 26.1458 28.7425 27.1127 27.0717 28.0889V28.117C27.3908 28.0983 27.7663 28.0795 28.198 28.0607C28.6298 28.042 29.0804 28.0326 29.5497 28.0326C30.0191 28.0138 30.4415 28.0044 30.8169 28.0044H35.1817V31.6934H21.2425Z" fill="#31CB9E"/>
</svg>
