<svg xmlns="http://www.w3.org/2000/svg" width="16" height="16" viewBox="0 0 16 16" fill="none">
<path d="M5.50033 3.99988L10.005 3.99121C11.1137 3.98921 12.013 4.88988 12.0083 5.99855V6.00788C12.0037 7.10921 11.1097 7.99988 10.009 7.99988H6.66633C5.56233 7.99988 4.66699 8.89521 4.66699 9.99921V9.99921C4.66699 11.1039 5.56299 11.9992 6.66766 11.9985L13.3337 11.9965" stroke="currentColor" stroke-linecap="round" stroke-linejoin="round"/>
<path d="M13.3333 11.9966L12.002 13.3279" stroke="currentColor" stroke-linecap="round" stroke-linejoin="round"/>
<path d="M12.002 10.6646L13.3333 11.9966" stroke="currentColor" stroke-linecap="round" stroke-linejoin="round"/>
<path d="M5.06066 2.93934C5.64645 3.52513 5.64645 4.47487 5.06066 5.06066C4.47487 5.64645 3.52513 5.64645 2.93934 5.06066C2.35355 4.47487 2.35355 3.52513 2.93934 2.93934C3.52513 2.35355 4.47487 2.35355 5.06066 2.93934" stroke="currentColor" stroke-linecap="round" stroke-linejoin="round"/>
</svg>
