<svg width="24" height="25" viewBox="0 0 24 25" fill="none" xmlns="http://www.w3.org/2000/svg">
<path d="M3.36328 10.9572C3.36328 9.75641 4.33673 8.78296 5.53755 8.78296L18.4624 8.78296C19.6632 8.78296 20.6366 9.75641 20.6366 10.9572V16.0909C20.6366 20.8608 16.7699 24.7276 12 24.7276C7.23005 24.7276 3.36328 20.8608 3.36328 16.0909L3.36328 10.9572Z" fill="#31CB9E"/>
<path fill-rule="evenodd" clip-rule="evenodd" d="M8.18307 2.30855C9.19537 1.29625 10.5684 0.727539 12 0.727539C13.4316 0.727539 14.8046 1.29625 15.8169 2.30855C16.8292 3.32086 17.3979 4.69384 17.3979 6.12546C17.3979 6.90516 16.7658 7.53723 15.9861 7.53723C15.2064 7.53723 14.5744 6.90516 14.5744 6.12546C14.5744 5.44269 14.3031 4.78788 13.8203 4.30509C13.3376 3.8223 12.6827 3.55107 12 3.55107C11.3172 3.55107 10.6624 3.8223 10.1796 4.30509C9.69681 4.78788 9.42558 5.44269 9.42558 6.12546C9.42558 6.90516 8.79351 7.53723 8.01382 7.53723C7.23412 7.53723 6.60205 6.90516 6.60205 6.12546C6.60205 4.69384 7.17076 3.32086 8.18307 2.30855Z" fill="#31CB9E"/>
<path d="M13.256 17.1287C13.1523 16.7141 13.3461 16.2925 13.6009 15.9494C13.8472 15.6178 13.993 15.207 13.993 14.7621C13.993 13.6614 13.1007 12.769 11.9999 12.769C10.8992 12.769 10.0068 13.6614 10.0068 14.7621C10.0068 15.207 10.1526 15.6179 10.399 15.9495C10.6538 16.2925 10.8476 16.7142 10.7439 17.1288L10.3175 18.8344C10.1597 19.4656 10.6371 20.077 11.2877 20.077H12.7123C13.3628 20.077 13.8402 19.4656 13.6824 18.8344L13.256 17.1287Z" fill="#065F44"/>
</svg>
