<?xml version="1.0" encoding="UTF-8"?>
<svg id="Layer_1" data-name="Layer 1" xmlns="http://www.w3.org/2000/svg" viewBox="0 0 1200 1200">
  <defs>
    <style>
      .cls-1 {
        fill: #00ff78;
      }
    </style>
  </defs>
  <rect class="cls-1" width="1200" height="1200"/>
  <g id="SOCKET_wordmark_Bl">
    <path d="M391.1,533.23c-11.59-6.73-24.62-10.09-39.08-10.09s-27.48,3.36-39.07,10.09c-11.59,6.59-20.68,15.75-27.27,27.48-6.59,11.59-9.87,24.69-9.87,39.29s3.29,27.77,9.87,39.5c6.59,11.59,15.68,20.75,27.27,27.48,11.59,6.59,24.62,9.87,39.07,9.87s27.48-3.29,39.08-9.87c11.59-6.73,20.68-15.89,27.27-27.48,6.73-11.73,10.09-24.91,10.09-39.5s-3.36-27.7-10.09-39.29c-6.59-11.74-15.68-20.9-27.27-27.48h0ZM393.02,626.63c-4.01,7.88-9.59,14.1-16.74,18.68-7.16,4.44-15.25,6.66-24.27,6.66s-16.97-2.22-24.26-6.66c-7.16-4.58-12.74-10.81-16.74-18.68-4.01-7.88-6.02-16.74-6.02-26.63s2-18.75,6.02-26.63c4.01-7.88,9.59-14.03,16.74-18.46,7.3-4.58,15.39-6.87,24.26-6.87s17.11,2.29,24.27,6.87c7.15,4.44,12.74,10.6,16.74,18.46,4.01,7.88,6.02,16.74,6.02,26.63s-2.01,18.75-6.02,26.63ZM580.33,621.69h29.2c-1.15,10.31-4.58,19.68-10.31,28.12-5.73,8.45-13.38,15.11-22.97,19.97-9.45,4.72-20.26,7.09-32.42,7.09-14.17,0-26.98-3-38.43-9.02-11.31-6.16-20.25-15.03-26.84-26.63-6.44-11.59-9.66-25.33-9.66-41.22s3.15-29.56,9.45-41.01c6.44-11.59,15.32-20.47,26.63-26.63,11.45-6.16,24.41-9.23,38.86-9.23,11.88,0,22.62,2.36,32.2,7.08,9.59,4.58,17.25,10.95,22.97,19.12,5.73,8.16,9.02,17.54,9.87,28.12h-29.2c-1.29-8.73-5.22-15.82-11.81-21.25-6.59-5.44-14.6-8.16-24.05-8.16-8.87,0-16.82,2.08-23.84,6.23-6.87,4.01-12.23,9.94-16.1,17.82s-5.8,17.18-5.8,27.91,1.93,20.04,5.8,27.91c4.01,7.73,9.45,13.67,16.32,17.82s14.75,6.23,23.61,6.23c6.16,0,11.81-1.29,16.97-3.87,5.29-2.58,9.66-6.16,13.1-10.74,3.44-4.72,5.58-9.95,6.44-15.68h0ZM227.54,606.01c5.15,6.44,7.73,15.11,7.73,25.99,0,8.87-2.36,16.74-7.08,23.61-4.58,6.87-10.95,12.16-19.12,15.89-8.16,3.58-17.54,5.36-28.12,5.36s-20.9-2.01-29.63-6.02c-8.73-4.15-15.75-10.17-21.04-18.04-5.15-7.88-8.23-17.32-9.23-28.35h28.56c.71,6.02,2.43,11.09,5.15,15.25,2.86,4.01,6.51,7.08,10.95,9.23,4.58,2.01,9.66,3,15.25,3,5.01,0,9.38-.71,13.1-2.15,3.72-1.58,6.66-3.73,8.8-6.44,2.15-2.86,3.22-6.09,3.22-9.66,0-4.44-1.44-8.09-4.3-10.95-2.72-2.86-6.16-5.08-10.31-6.66-4.15-1.72-9.87-3.51-17.18-5.36-10.17-2.86-18.46-5.73-24.91-8.59-6.44-2.86-12.02-7.23-16.74-13.1-4.58-5.87-6.87-13.74-6.87-23.61,0-8.16,2.22-15.46,6.66-21.9,4.58-6.59,10.74-11.59,18.46-15.03,7.86-3.58,16.59-5.36,26.18-5.36,16.17,0,29.27,4.08,39.29,12.23,10.02,8.02,15.82,19.26,17.39,33.71h-28.35c-1.44-6.44-4.65-11.52-9.66-15.25-5.01-3.87-11.24-5.8-18.68-5.8-4.44,0-8.3.64-11.59,1.93s-5.87,3.15-7.73,5.58c-1.86,2.43-2.79,5.29-2.79,8.59,0,3.58,1.22,6.59,3.65,9.02,2.57,2.29,5.73,4.15,9.44,5.58,3.73,1.29,8.88,2.79,15.46,4.51,10.6,2.86,19.33,5.8,26.2,8.8,6.87,2.86,12.81,7.51,17.82,13.96h.04ZM1078.94,524.85v24.91h-45.09v125.39h-29.2v-125.39h-45.3v-24.91h119.59ZM721.2,584.96l63.5,90.18h-35.86l-47.36-69.72-17.99,18.67.07,51.05h-29.41v-150.29h29.2l.08,59.88,57.03-59.88h38.65l-57.92,60.11h0ZM850.03,650.24h73.64v24.91h-102.84v-150.3h101.98v24.91h-72.78v34.78h58.83v24.91h-58.83v40.8h0Z"/>
  </g>
</svg>