<svg width="24" height="24" viewBox="0 0 24 24" fill="none" xmlns="http://www.w3.org/2000/svg">
<path fill-rule="evenodd" clip-rule="evenodd" d="M8.827 18.657H6.346C5.792 18.657 5.343 18.208 5.343 17.654V15.172C5.343 14.906 5.237 14.651 5.049 14.463L3.294 12.708C2.902 12.316 2.902 11.681 3.294 11.29L5.067 9.517C5.244 9.34 5.343 9.101 5.343 8.851V6.346C5.343 5.792 5.792 5.343 6.346 5.343H8.828C9.094 5.343 9.349 5.237 9.537 5.049L11.292 3.294C11.684 2.902 12.319 2.902 12.71 3.294L14.465 5.049C14.653 5.237 14.908 5.343 15.174 5.343H17.656C18.21 5.343 18.659 5.792 18.659 6.346V8.828C18.659 9.094 18.765 9.349 18.953 9.537L20.708 11.292C21.1 11.684 21.1 12.319 20.708 12.71L18.953 14.465C18.765 14.653 18.659 14.908 18.659 15.174V17.656C18.659 18.21 18.21 18.659 17.656 18.659H15.174C14.908 18.659 14.653 18.765 14.465 18.953L12.71 20.708C12.318 21.1 11.683 21.1 11.292 20.708L9.537 18.953C9.348 18.762 9.093 18.657 8.827 18.657Z" stroke="#FBB324" stroke-linecap="round" stroke-linejoin="round"/>
<path d="M15 10.5L11.25 14.25L9 12" stroke="#FBB324" stroke-linecap="round" stroke-linejoin="round"/>
</svg>
