<?xml version="1.0" encoding="UTF-8"?>
<svg version="1.1" xmlns="http://www.w3.org/2000/svg" width="79" height="99">
    <path
        d="M0 0 C0.66 0 1.32 0 2 0 C5.77580613 7.52819665 9.54930298 15.05754477 13.32004547 22.58827877 C15.07198136 26.08698447 16.82464077 29.58532334 18.57910156 33.08276367 C31.99886734 59.83728483 31.99886734 59.83728483 36.96875 70.25390625 C37.29089478 70.92042709 37.61303955 71.58694794 37.94494629 72.27366638 C39.2565098 75.06144521 40 76.87401052 40 80 C38.62988281 81.22338867 38.62988281 81.22338867 36.703125 82.41796875 C35.99687988 82.86422607 35.29063477 83.3104834 34.56298828 83.77026367 C33.79970215 84.23795166 33.03641602 84.70563965 32.25 85.1875 C30.68950368 86.16570939 29.12961147 87.14488312 27.5703125 88.125 C26.7959082 88.60839844 26.02150391 89.09179688 25.22363281 89.58984375 C21.17708865 92.15603162 17.25466508 94.9023985 13.3203125 97.63671875 C11 99 11 99 8 99 C7.61805616 92.88889855 7.70119845 87.3321612 11 82 C13.9676718 78.86240016 17.11722127 75.94138936 21 74 C19.5267833 69.09181715 17.46664437 64.77370855 15.0859375 60.265625 C14.71143463 59.54638855 14.33693176 58.8271521 13.95108032 58.08612061 C12.76321437 55.80521223 11.56977381 53.52729668 10.375 51.25 C8.79481358 48.23678282 7.22006652 45.22081244 5.6484375 42.203125 C5.28285736 41.51043518 4.91727722 40.81774536 4.5406189 40.10406494 C2 35.22543298 2 35.22543298 2 33 C1.34 33 0.68 33 0 33 C-0.27094482 33.87164795 -0.54188965 34.7432959 -0.82104492 35.64135742 C-1.95012326 38.85790964 -3.28276391 41.72199002 -4.86328125 44.73828125 C-5.42080078 45.80626953 -5.97832031 46.87425781 -6.55273438 47.97460938 C-7.13345703 49.07611328 -7.71417969 50.17761719 -8.3125 51.3125 C-8.88162109 52.40240234 -9.45074219 53.49230469 -10.03710938 54.61523438 C-13.27247798 60.79252254 -16.57482475 66.92584076 -20 73 C-18.96939453 73.76183594 -18.96939453 73.76183594 -17.91796875 74.5390625 C-8.39650873 81.81296758 -8.39650873 81.81296758 -7 87 C-6.78844548 91.01437597 -6.82458962 94.98505127 -7 99 C-11.12445356 97.52626639 -14.5254452 95.49551893 -18.17578125 93.0859375 C-18.74580368 92.71143463 -19.31582611 92.33693176 -19.90312195 91.95108032 C-21.70903967 90.76322813 -23.51079717 89.56923307 -25.3125 88.375 C-26.54204736 87.5646938 -27.77186243 86.75479365 -29.00195312 85.9453125 C-32.00441383 83.96823034 -35.00317739 81.98562091 -38 80 C-37.4357317 75.33144423 -36.14046033 71.79278096 -34.02832031 67.60253906 C-33.72409149 66.99349731 -33.41986267 66.38445557 -33.10641479 65.75695801 C-32.10452791 63.75595702 -31.09143582 61.76086172 -30.078125 59.765625 C-29.37338225 58.36361367 -28.66935338 56.96124329 -27.96600342 55.55853271 C-26.11399027 51.86974441 -24.25243513 48.18585393 -22.38879395 44.50292969 C-20.50870681 40.78346478 -18.63749208 37.05954405 -16.765625 33.3359375 C-14.01169469 27.8598429 -11.25305734 22.38615894 -8.48925781 16.91503906 C-5.64476246 11.28403277 -2.81463237 5.64599515 0 0 Z "
        fill="#fff" transform="translate(38,0)" />
</svg>