<svg width="16" height="16" viewBox="0 0 16 16" fill="none" xmlns="http://www.w3.org/2000/svg">
  <path
    d="M11.0953 7.52344C9.1229 7.52344 7.52393 9.12241 7.52393 11.0948C7.52393 13.0673 9.1229 14.6662 11.0953 14.6662C13.0678 14.6662 14.6667 13.0673 14.6667 11.0948C14.6645 9.12332 13.0668 7.52565 11.0953 7.52344ZM10.5494 12.3551C10.6113 12.4149 10.6361 12.5034 10.6143 12.5866C10.5925 12.6699 10.5275 12.7349 10.4442 12.7567C10.361 12.7784 10.2725 12.7536 10.2127 12.6917L9.66672 12.1458L9.12076 12.6917C9.02735 12.782 8.87884 12.7807 8.78699 12.6888C8.69514 12.597 8.69387 12.4485 8.7841 12.3551L9.33006 11.8091L8.7841 11.2631C8.69387 11.1697 8.69517 11.0212 8.78699 10.9294C8.87884 10.8375 9.02733 10.8363 9.12076 10.9265L9.66672 11.4724L10.2127 10.9265C10.3061 10.8363 10.4546 10.8376 10.5465 10.9294C10.6383 11.0212 10.6396 11.1697 10.5493 11.2631L10.0034 11.8091L10.5494 12.3551ZM13.2382 12.2853C13.3697 12.2853 13.4763 12.3919 13.4763 12.5234C13.4763 12.6549 13.3697 12.7615 13.2382 12.7615H11.3334C11.2019 12.7615 11.0953 12.6549 11.0953 12.5234C11.0953 12.0782 11.5513 11.7098 12.0337 11.3198C12.4868 10.9539 13.0001 10.5391 13.0001 10.1425C13.0001 9.748 12.6803 9.42819 12.2858 9.42819C11.8913 9.42819 11.5715 9.74798 11.5715 10.1425C11.5715 10.274 11.4649 10.3806 11.3334 10.3806C11.2019 10.3806 11.0953 10.274 11.0953 10.1425C11.0953 9.48501 11.6283 8.95202 12.2858 8.95202C12.9432 8.95202 13.4762 9.48501 13.4762 10.1425C13.4762 10.7665 12.8689 11.2575 12.3334 11.6901C12.0968 11.8665 11.8784 12.0659 11.6812 12.2853H13.2382V12.2853Z"
    fill="#31CB9E"
  />
  <path
    d="M11.0954 7.04739C11.3391 7.04846 11.5822 7.07148 11.8218 7.11619L12.5616 6.36596C12.7477 6.17406 12.8104 5.89388 12.7237 5.64097C12.6535 5.40694 12.4557 5.23366 12.2144 5.19478L9.61921 4.80191C9.25247 4.74507 8.93857 4.5084 8.78302 4.17145L7.61136 1.70433C7.51462 1.47905 7.29301 1.33301 7.0478 1.33301C6.80262 1.33301 6.58098 1.47905 6.48424 1.70433L5.31281 4.17098C5.15688 4.50871 4.84196 4.74577 4.47425 4.80217L1.88117 5.1948C1.63995 5.23366 1.44214 5.40696 1.37188 5.641C1.28521 5.89391 1.34787 6.17409 1.53401 6.36599L3.39803 8.25384C3.66019 8.52556 3.77905 8.9049 3.71874 9.27763L3.27569 11.96C3.22705 12.2232 3.33416 12.491 3.55092 12.6481C3.73691 12.7839 3.98504 12.7988 4.18592 12.6862L6.53353 11.4026C6.69431 11.3161 6.87478 11.2727 7.05733 11.2767C7.05447 11.2162 7.04803 11.1576 7.04803 11.095C7.05053 8.86069 8.86109 7.05002 11.0954 7.04739Z"
    fill="#31CB9E"
  />
</svg>
