<svg width="24" height="24" viewBox="0 0 24 24" fill="none" xmlns="http://www.w3.org/2000/svg">
<path d="M12 24C18.6274 24 24 18.6274 24 12C24 5.37258 18.6274 0 12 0C5.37258 0 0 5.37258 0 12C0 18.6274 5.37258 24 12 24Z" fill="url(#paint0_linear_424_21620)"/>
<path d="M8.12447 12.8764L9.54847 16.8177C9.54847 16.8177 9.72625 17.1857 9.91647 17.1857C10.1067 17.1857 12.9422 14.2364 12.9422 14.2364L16.0943 8.14746L8.17425 11.8595L8.1227 12.8764H8.12447Z" fill="#C8DAEA"/>
<path d="M10.0107 13.8862L9.73692 16.7911C9.73692 16.7911 9.62314 17.6818 10.512 16.7911C11.4027 15.9004 12.2543 15.2142 12.2543 15.2142L10.0107 13.8862Z" fill="#A9C6D8"/>
<path d="M8.14934 13.017L5.22134 12.0624C5.22134 12.0624 4.87112 11.9201 4.9849 11.5984C5.00801 11.5326 5.05423 11.4757 5.19468 11.3779C5.84356 10.9264 17.2053 6.84103 17.2053 6.84103C17.2053 6.84103 17.5253 6.73258 17.7156 6.80547C17.8027 6.83747 17.8578 6.8748 17.904 7.01169C17.9218 7.06146 17.9307 7.16635 17.9289 7.26947C17.9289 7.34413 17.9182 7.41524 17.9111 7.52369C17.8418 8.64013 15.7707 16.9726 15.7707 16.9726C15.7707 16.9726 15.6462 17.4597 15.2036 17.4775C15.0418 17.4828 14.8445 17.4508 14.6098 17.2481C13.7387 16.4979 10.7271 14.4748 10.0622 14.0304C10.0249 14.0055 10.0142 13.9735 10.0071 13.9415C9.99823 13.8952 10.048 13.8366 10.048 13.8366C10.048 13.8366 15.2907 9.17702 15.4293 8.68813C15.44 8.6508 15.3991 8.63124 15.344 8.64724C14.9956 8.77524 8.96001 12.5868 8.29334 13.0081C8.25423 13.033 8.14579 13.017 8.14579 13.017H8.14934Z" fill="white"/>
<defs>
<linearGradient id="paint0_linear_424_21620" x1="12" y1="24" x2="12" y2="0" gradientUnits="userSpaceOnUse">
<stop stop-color="#1D93D2"/>
<stop offset="1" stop-color="#38B0E3"/>
</linearGradient>
</defs>
</svg>
