<svg width="16" height="16" viewBox="0 0 16 16" fill="none" xmlns="http://www.w3.org/2000/svg">
<g clip-path="url(#clip0_1355_179532)">
<path d="M12.0708 9.88079H15.8851V6.81445H12.0708V9.88079ZM13.8011 7.75912C14.0791 7.75912 14.3045 8.02279 14.3045 8.34712C14.3045 8.67245 14.0791 8.93545 13.8011 8.93545C13.5231 8.93545 13.2978 8.67245 13.2978 8.34712C13.2981 8.02279 13.5231 7.75912 13.8011 7.75912Z" fill="#FF9901"/>
<path d="M11.7878 6.24823H15.8851V3.97623C15.8851 3.42457 15.4965 2.97557 15.0185 2.97557H14.1681L13.8218 1.04023C13.7515 0.645234 13.5418 0.316901 13.2475 0.137568C13.0171 -0.0024323 12.7521 -0.037099 12.5025 0.0405677L3.18347 2.92857C2.9398 3.00357 2.72413 3.18323 2.5768 3.43357L2.58413 3.43823C2.4978 3.5939 2.4458 3.7779 2.4458 3.97623V8.6699C2.82347 8.56057 3.22247 8.49957 3.6358 8.49957C5.9458 8.49957 7.82547 10.3316 7.82547 12.5836C7.82547 12.9476 7.7758 13.3046 7.67947 13.6512H15.0181C15.4961 13.6512 15.8848 13.2019 15.8848 12.6506V10.4466H11.7878C11.6315 10.4466 11.5048 10.3199 11.5048 10.1636V6.53123C11.5051 6.37457 11.6318 6.24823 11.7878 6.24823ZM4.9438 2.97557L12.6705 0.580901C12.7655 0.551568 12.8611 0.564901 12.9545 0.621234C13.1075 0.714568 13.2241 0.908234 13.2655 1.14023L13.5941 2.97557H4.9438Z" fill="#FF9901"/>
<path d="M3.6369 9.16797C1.6949 9.16797 0.115234 10.7006 0.115234 12.5843C0.115234 14.468 1.69457 16.0006 3.6369 16.0006C5.0949 16.0006 6.41957 15.1123 6.93357 13.7896C7.08323 13.4053 7.1589 12.9996 7.1589 12.5843C7.1589 10.7006 5.5789 9.16797 3.6369 9.16797ZM3.9699 14.4983C3.9699 14.683 3.82023 14.832 3.63623 14.832C3.4519 14.832 3.30257 14.683 3.30257 14.4983V14.034C3.30257 13.8496 3.4519 13.7003 3.63623 13.7003C3.82057 13.7003 3.9699 13.8496 3.9699 14.034V14.4983ZM3.97157 12.8306C3.97157 13.0153 3.82223 13.1646 3.6379 13.1646C3.45357 13.1646 3.30423 13.0153 3.30423 12.8306V10.6706C3.30423 10.486 3.45357 10.3366 3.6379 10.3366C3.82223 10.3366 3.97157 10.486 3.97157 10.6706V12.8306Z" fill="#FF9901"/>
</g>
<defs>
<clipPath id="clip0_1355_179532">
<rect width="16" height="16" fill="white"/>
</clipPath>
</defs>
</svg>
