<svg xmlns="http://www.w3.org/2000/svg" width="16" height="17" viewBox="0 0 16 17" fill="none">
    <path
        d="M10.6425 4.87995C11.5632 3.95929 13.0552 3.95929 13.9759 4.87995V4.87995C14.8965 5.80062 14.8965 7.29262 13.9759 8.21329L10.0565 12.1326C9.13588 13.0533 7.64388 13.0533 6.72321 12.1326V12.1326C5.80255 11.212 5.80255 9.71995 6.72321 8.79929L7.30921 8.21329"
        stroke="currentColor" stroke-linecap="round" stroke-linejoin="round" />
    <path
        d="M5.35733 13.4979C4.43666 14.4185 2.94466 14.4185 2.024 13.4979V13.4979C1.10333 12.5772 1.10333 11.0852 2.024 10.1645L5.94333 6.24519C6.864 5.32452 8.356 5.32452 9.27666 6.24519V6.24519C10.1973 7.16585 10.1973 8.65785 9.27666 9.57852L8.66666 10.1885"
        stroke="currentColor" stroke-linecap="round" stroke-linejoin="round" />
</svg>