<svg width="14" height="16" viewBox="0 0 14 16" fill="none" xmlns="http://www.w3.org/2000/svg">
<g id="Group">
<path id="Vector" d="M8.75 12.25H7.75V12.5C7.75 12.6989 7.67098 12.8897 7.53033 13.0303C7.38968 13.171 7.19891 13.25 7 13.25C6.80109 13.25 6.61032 13.171 6.46967 13.0303C6.32902 12.8897 6.25 12.6989 6.25 12.5V12.25H5.25C5.1837 12.25 5.12011 12.2763 5.07322 12.3232C5.02634 12.3701 5 12.4337 5 12.5V14.5C5.0004 14.8314 5.13222 15.1491 5.36655 15.3834C5.60089 15.6178 5.9186 15.7496 6.25 15.75H7.75C8.0814 15.7496 8.39911 15.6178 8.63344 15.3834C8.86778 15.1491 8.9996 14.8314 9 14.5V12.5C9 12.4337 8.97366 12.3701 8.92678 12.3232C8.87989 12.2763 8.8163 12.25 8.75 12.25Z" fill="currentColor"/>
<path id="Vector_2" d="M9.83325 6.375C9.67335 6.37472 9.51774 6.3232 9.38925 6.228L7.716 11.75H8.2385L9.86825 6.37175C9.8565 6.37225 9.84525 6.375 9.83325 6.375Z" fill="currentColo"/>
<path id="Vector_3" d="M4.1665 6.37099C4.15425 6.37099 4.1415 6.36774 4.13025 6.36724L5.7615 11.75H6.284L4.6105 6.22749C4.48138 6.32104 4.32594 6.37128 4.1665 6.37099Z" fill="currentColor"/>
<path id="Vector_4" d="M7 0.25C5.34297 0.251853 3.75433 0.910928 2.58263 2.08263C1.41093 3.25433 0.751853 4.84297 0.75 6.5C0.75 6.55409 0.767544 6.60673 0.8 6.65L4.76325 11.9342C4.89796 11.8161 5.07083 11.7507 5.25 11.75L1.25475 6.423C1.30275 5.76975 1.954 5.25 2.75 5.25C2.98073 5.24628 3.20955 5.29226 3.42093 5.38484C3.6323 5.47741 3.82127 5.6144 3.975 5.7865C3.99921 5.81318 4.02873 5.8345 4.06167 5.84908C4.0946 5.86367 4.13023 5.87121 4.16625 5.87121C4.20227 5.87121 4.2379 5.86367 4.27083 5.84908C4.30377 5.8345 4.33329 5.81318 4.3575 5.7865C4.51366 5.61747 4.70311 5.48259 4.91393 5.39034C5.12475 5.29808 5.35238 5.25046 5.5825 5.25046C5.81262 5.25046 6.04025 5.29808 6.25107 5.39034C6.46189 5.48259 6.65134 5.61747 6.8075 5.7865C6.83171 5.81318 6.86123 5.8345 6.89417 5.84908C6.9271 5.86367 6.96273 5.87121 6.99875 5.87121C7.03477 5.87121 7.0704 5.86367 7.10334 5.84908C7.13627 5.8345 7.16579 5.81318 7.19 5.7865C7.34616 5.61747 7.5356 5.48259 7.74643 5.39034C7.95725 5.29808 8.18488 5.25046 8.415 5.25046C8.64512 5.25046 8.87275 5.29808 9.08357 5.39034C9.2944 5.48259 9.48384 5.61747 9.64 5.7865C9.66347 5.81437 9.69274 5.83678 9.72578 5.85216C9.75882 5.86753 9.79481 5.87549 9.83125 5.87549C9.86769 5.87549 9.90368 5.86753 9.93672 5.85216C9.96976 5.83678 9.99903 5.81437 10.0225 5.7865C10.1765 5.61407 10.3659 5.47688 10.5777 5.38429C10.7895 5.2917 11.0189 5.2459 11.25 5.25C12.046 5.25 12.6972 5.76975 12.7452 6.423L8.75 11.75C8.92917 11.7507 9.10204 11.8161 9.23675 11.9342L13.2 6.65C13.2325 6.60673 13.25 6.55409 13.25 6.5C13.2481 4.84297 12.5891 3.25433 11.4174 2.08263C10.2457 0.910928 8.65703 0.251853 7 0.25Z" fill="currentColor"/>
</g>
</svg>
