<svg width="14" height="14" viewBox="0 0 14 14" fill="none" xmlns="http://www.w3.org/2000/svg">
<g id="Group">
<g id="Group_2">
<path id="Vector" d="M11.9737 4.33334L12.5004 3.16667L13.667 2.64C13.927 2.52 13.927 2.15334 13.667 2.03334L12.5004 1.50667L11.9737 0.333336C11.8537 0.0733362 11.487 0.0733362 11.367 0.333336L10.8404 1.5L9.66702 2.02667C9.40702 2.14667 9.40702 2.51334 9.66702 2.63334L10.8337 3.16L11.3604 4.33334C11.4804 4.59334 11.8537 4.59334 11.9737 4.33334ZM6.66702 5.33334L5.60702 3C5.37368 2.48 4.62702 2.48 4.39369 3L3.33368 5.33334L1.00035 6.39334C0.480352 6.63334 0.480352 7.37334 1.00035 7.60667L3.33368 8.66667L4.39369 11C4.63369 11.52 5.37368 11.52 5.60702 11L6.66702 8.66667L9.00035 7.60667C9.52035 7.36667 9.52035 6.62667 9.00035 6.39334L6.66702 5.33334ZM11.3604 9.66667L10.8337 10.8333L9.66702 11.36C9.40702 11.48 9.40702 11.8467 9.66702 11.9667L10.8337 12.4933L11.3604 13.6667C11.4804 13.9267 11.847 13.9267 11.967 13.6667L12.4937 12.5L13.667 11.9733C13.927 11.8533 13.927 11.4867 13.667 11.3667L12.5004 10.84L11.9737 9.66667C11.8537 9.40667 11.4804 9.40667 11.3604 9.66667Z" fill="url(#paint0_linear_2707_67510)"/>
</g>
</g>
<defs>
<linearGradient id="paint0_linear_2707_67510" x1="7.23619" y1="0.138336" x2="7.23619" y2="13.8617" gradientUnits="userSpaceOnUse">
<stop stop-color="#31CB9E"/>
<stop offset="1" stop-color="#8F92FF"/>
</linearGradient>
</defs>
</svg>
