<svg width="20" height="20" viewBox="0 0 20 20" fill="none" xmlns="http://www.w3.org/2000/svg">
<path d="M2.5 18.75C1.80969 18.75 1.25 18.1909 1.25 17.5V10C1.25 9.30908 1.80969 8.75 2.5 8.75C3.19031 8.75 3.75 9.30908 3.75 10V17.5C3.75 18.1909 3.19031 18.75 2.5 18.75Z" fill="#A9A9A9"/>
<path d="M7.5 18.75C6.80969 18.75 6.25 18.1909 6.25 17.5V2.5C6.25 1.80908 6.80969 1.25 7.5 1.25C8.19031 1.25 8.75 1.80908 8.75 2.5V17.5C8.75 18.1909 8.19031 18.75 7.5 18.75Z" fill="#A9A9A9"/>
<path d="M12.5 18.75C11.8091 18.75 11.25 18.1909 11.25 17.5V12.5C11.25 11.8091 11.8091 11.25 12.5 11.25C13.1909 11.25 13.75 11.8091 13.75 12.5V17.5C13.75 18.1909 13.1909 18.75 12.5 18.75Z" fill="#A9A9A9"/>
<path d="M17.5 18.75C16.8091 18.75 16.25 18.1909 16.25 17.5V7.5C16.25 6.80908 16.8091 6.25 17.5 6.25C18.1909 6.25 18.75 6.80908 18.75 7.5V17.5C18.75 18.1909 18.1909 18.75 17.5 18.75Z" fill="#A9A9A9"/>
</svg>
