<svg width="14" height="14" viewBox="0 0 14 14" fill="none" xmlns="http://www.w3.org/2000/svg">
<g id="Group">
<g id="Group_2">
<path id="Vector" d="M11.9734 4.33334L12.5001 3.16667L13.6668 2.64C13.9268 2.52 13.9268 2.15334 13.6668 2.03334L12.5001 1.50667L11.9734 0.333336C11.8534 0.0733362 11.4868 0.0733362 11.3668 0.333336L10.8401 1.5L9.66677 2.02667C9.40677 2.14667 9.40677 2.51334 9.66677 2.63334L10.8334 3.16L11.3601 4.33334C11.4801 4.59334 11.8534 4.59334 11.9734 4.33334ZM6.66677 5.33334L5.60677 3C5.37344 2.48 4.62677 2.48 4.39344 3L3.33344 5.33334L1.00011 6.39334C0.480107 6.63334 0.480107 7.37334 1.00011 7.60667L3.33344 8.66667L4.39344 11C4.63344 11.52 5.37344 11.52 5.60677 11L6.66677 8.66667L9.00011 7.60667C9.52011 7.36667 9.52011 6.62667 9.00011 6.39334L6.66677 5.33334ZM11.3601 9.66667L10.8334 10.8333L9.66677 11.36C9.40677 11.48 9.40677 11.8467 9.66677 11.9667L10.8334 12.4933L11.3601 13.6667C11.4801 13.9267 11.8468 13.9267 11.9668 13.6667L12.4934 12.5L13.6668 11.9733C13.9268 11.8533 13.9268 11.4867 13.6668 11.3667L12.5001 10.84L11.9734 9.66667C11.8534 9.40667 11.4801 9.40667 11.3601 9.66667Z" fill="url(#paint0_linear_2705_6465)"/>
</g>
</g>
<defs>
<linearGradient id="paint0_linear_2705_6465" x1="7.23594" y1="0.138336" x2="7.23594" y2="13.8617" gradientUnits="userSpaceOnUse">
<stop stop-color="#31CB9E"/>
<stop offset="1" stop-color="#8F92FF"/>
</linearGradient>
</defs>
</svg>
