<svg width="16" height="16" viewBox="0 0 16 16" xmlns="http://www.w3.org/2000/svg">
<g>
<path fill="currentColor" d="M6.00001 14.0007C6.00001 14.3673 6.30001 14.6673 6.66668 14.6673L9.33334 14.6673C9.70001 14.6673 10 14.3673 10 14.0007V13.334L6.00001 13.334V14.0007ZM8.00001 1.33398C5.42668 1.33398 3.33334 3.42732 3.33334 6.00065C3.33334 7.58732 4.12668 8.98065 5.33334 9.82732V11.334C5.33334 11.7007 5.63334 12.0007 6.00001 12.0007L10 12.0007C10.3667 12.0007 10.6667 11.7007 10.6667 11.334V9.82732C11.8733 8.98065 12.6667 7.58732 12.6667 6.00065C12.6667 3.42732 10.5733 1.33398 8.00001 1.33398ZM9.90001 8.73398L9.33334 9.13398L9.33334 10.6673L6.66668 10.6673V9.13398L6.10001 8.73398C5.20001 8.10732 4.66668 7.08732 4.66668 6.00065C4.66668 4.16065 6.16001 2.66732 8.00001 2.66732C9.84001 2.66732 11.3333 4.16065 11.3333 6.00065C11.3333 7.08732 10.8 8.10732 9.90001 8.73398Z"/>
</g>
</svg>
