<svg width="16" height="16" viewBox="0 0 16 16" fill="none" xmlns="http://www.w3.org/2000/svg">
<path fill-rule="evenodd" clip-rule="evenodd" d="M10 1.99992C10 1.63173 10.2985 1.33325 10.6667 1.33325H14C14.3682 1.33325 14.6667 1.63173 14.6667 1.99992V5.33325C14.6667 5.70144 14.3682 5.99992 14 5.99992C13.6318 5.99992 13.3333 5.70144 13.3333 5.33325V2.66659H10.6667C10.2985 2.66659 10 2.36811 10 1.99992Z" fill="currentColor"/>
<path fill-rule="evenodd" clip-rule="evenodd" d="M14.4714 1.52851C14.7317 1.78887 14.7317 2.21097 14.4714 2.47133L3.13807 13.8047C2.87772 14.065 2.45561 14.065 2.19526 13.8047C1.93491 13.5443 1.93491 13.1222 2.19526 12.8619L13.5286 1.52851C13.7889 1.26817 14.2111 1.26817 14.4714 1.52851Z" fill="currentColor"/>
<path fill-rule="evenodd" clip-rule="evenodd" d="M14 10C14.3682 10 14.6667 10.2985 14.6667 10.6667V14C14.6667 14.3682 14.3682 14.6667 14 14.6667H10.6667C10.2985 14.6667 10 14.3682 10 14C10 13.6318 10.2985 13.3333 10.6667 13.3333H13.3333V10.6667C13.3333 10.2985 13.6318 10 14 10Z" fill="currentColor"/>
<path fill-rule="evenodd" clip-rule="evenodd" d="M9.52862 9.5285C9.78896 9.26817 10.2111 9.26817 10.4714 9.5285L14.4714 13.5285C14.7318 13.7888 14.7318 14.211 14.4714 14.4713C14.2111 14.7316 13.789 14.7316 13.5286 14.4713L9.52862 10.4713C9.26829 10.211 9.26829 9.78884 9.52862 9.5285Z" fill="currentColor"/>
<path fill-rule="evenodd" clip-rule="evenodd" d="M2.19526 2.19526C2.45561 1.93491 2.87772 1.93491 3.13807 2.19526L6.47141 5.52859C6.73173 5.78895 6.73173 6.21105 6.47141 6.47141C6.21105 6.73173 5.78895 6.73173 5.52859 6.47141L2.19526 3.13807C1.93491 2.87772 1.93491 2.45561 2.19526 2.19526Z" fill="currentColor"/>
</svg>
