<svg width="20" height="14" viewBox="0 0 20 14" fill="none" xmlns="http://www.w3.org/2000/svg">
<path d="M3.33333 2.83301C3.33333 2.37467 3.70833 1.99967 4.16667 1.99967H17.5C17.9583 1.99967 18.3333 1.62467 18.3333 1.16634C18.3333 0.708008 17.9583 0.333008 17.5 0.333008H3.33333C2.41667 0.333008 1.66667 1.08301 1.66667 1.99967V11.1663H1.25C0.558333 11.1663 0 11.7247 0 12.4163C0 13.108 0.558333 13.6663 1.25 13.6663H11.6667V11.1663H3.33333V2.83301ZM19.1667 3.66634H14.1667C13.7083 3.66634 13.3333 4.04134 13.3333 4.49967V12.833C13.3333 13.2913 13.7083 13.6663 14.1667 13.6663H19.1667C19.625 13.6663 20 13.2913 20 12.833V4.49967C20 4.04134 19.625 3.66634 19.1667 3.66634ZM18.3333 11.1663H15V5.33301H18.3333V11.1663Z" fill="currentColor"/>
</svg>
