<svg xmlns="http://www.w3.org/2000/svg" width="16" height="16" viewBox="0 0 18 18" fill="none">
<path d="M8.99996 0.666504C4.39996 0.666504 0.666626 4.39984 0.666626 8.99984C0.666626 13.5998 4.39996 17.3332 8.99996 17.3332C13.6 17.3332 17.3333 13.5998 17.3333 8.99984C17.3333 4.39984 13.6 0.666504 8.99996 0.666504ZM10.175 14.0748V14.5582C10.175 15.1665 9.67496 15.6665 9.06663 15.6665H9.05829C8.44996 15.6665 7.94996 15.1665 7.94996 14.5582V14.0582C6.84163 13.8248 5.85829 13.2165 5.44163 12.1915C5.24996 11.7332 5.60829 11.2248 6.10829 11.2248H6.30829C6.61663 11.2248 6.86663 11.4332 6.98329 11.7248C7.22496 12.3498 7.85829 12.7832 9.07496 12.7832C10.7083 12.7832 11.075 11.9665 11.075 11.4582C11.075 10.7665 10.7083 10.1165 8.84996 9.67484C6.78329 9.17484 5.36663 8.32484 5.36663 6.6165C5.36663 5.18317 6.52496 4.24984 7.95829 3.9415V3.4415C7.95829 2.83317 8.45829 2.33317 9.06663 2.33317H9.07496C9.68329 2.33317 10.1833 2.83317 10.1833 3.4415V3.95817C11.3333 4.2415 12.0583 4.95817 12.375 5.8415C12.5416 6.29984 12.1916 6.78317 11.7 6.78317H11.4833C11.175 6.78317 10.925 6.5665 10.8416 6.2665C10.65 5.63317 10.125 5.22484 9.07496 5.22484C7.82496 5.22484 7.07496 5.7915 7.07496 6.5915C7.07496 7.2915 7.61663 7.74984 9.29996 8.18317C10.9833 8.6165 12.7833 9.34151 12.7833 11.4415C12.7666 12.9665 11.625 13.7998 10.175 14.0748Z" fill="#A9A9A9"/>
</svg>