<svg width="16" height="16" viewBox="0 0 16 16" fill="none" xmlns="http://www.w3.org/2000/svg">
<g clip-path="url(#clip0_382_14044)">
<path d="M2.65992 14.1935L8.68659 12.0401C9.60659 11.7135 9.87326 10.5335 9.17992 9.84012L6.15992 6.82012C5.46659 6.12679 4.29326 6.39346 3.95992 7.31346L1.80659 13.3401C1.61992 13.8735 2.12659 14.3801 2.65992 14.1935Z" fill="#31CB9E"/>
<path d="M10.0399 7.99976L13.4132 4.62643C13.7399 4.29977 14.2666 4.29977 14.5932 4.62643L14.6332 4.66643C14.8266 4.85977 15.1466 4.85977 15.3399 4.66643C15.5332 4.4731 15.5332 4.1531 15.3399 3.95977L15.2999 3.91977C14.5866 3.20643 13.4199 3.20643 12.7066 3.91977L9.33323 7.2931C9.1399 7.48643 9.1399 7.80643 9.33323 7.99976C9.52657 8.1931 9.84657 8.1931 10.0399 7.99976Z" fill="#31CB9E"/>
<path d="M6.70648 4.5866L6.66648 4.6266C6.47315 4.81993 6.47315 5.13994 6.66648 5.33327C6.85982 5.5266 7.17982 5.5266 7.37315 5.33327L7.41315 5.29327C8.12648 4.57993 8.12648 3.41327 7.41315 2.69994L7.37982 2.6666C7.17982 2.4666 6.85982 2.4666 6.66648 2.6666C6.47315 2.85993 6.47315 3.17993 6.66648 3.37327L6.70648 3.41327C7.02648 3.73327 7.02648 4.2666 6.70648 4.5866Z" fill="#31CB9E"/>
<path d="M11.3732 7.91977L10.6665 8.62643C10.4732 8.81977 10.4732 9.13977 10.6665 9.3331C10.8598 9.52643 11.1798 9.52643 11.3732 9.3331L12.0798 8.62643C12.4065 8.29977 12.9332 8.29977 13.2598 8.62643L13.9798 9.34643C14.1732 9.53977 14.4932 9.53977 14.6865 9.34643C14.8798 9.1531 14.8798 8.8331 14.6865 8.63977L13.9665 7.91977C13.2465 7.20643 12.0865 7.20643 11.3732 7.91977Z" fill="#31CB9E"/>
<path d="M10.04 3.91997L7.99998 5.95997C7.80665 6.15331 7.80665 6.47331 7.99998 6.66664C8.19331 6.85997 8.51331 6.85997 8.70665 6.66664L10.7466 4.62664C11.46 3.91331 11.46 2.74664 10.7466 2.03331L10.04 1.32664C9.84665 1.13331 9.52665 1.13331 9.33331 1.32664C9.13998 1.51997 9.13998 1.83997 9.33331 2.03331L10.04 2.73997C10.36 3.06664 10.36 3.59997 10.04 3.91997Z" fill="#31CB9E"/>
</g>
<defs>
<clipPath id="clip0_382_14044">
<rect width="16" height="16" fill="white"/>
</clipPath>
</defs>
</svg>
