<svg width="21" height="20" viewBox="0 0 21 20" fill="none" xmlns="http://www.w3.org/2000/svg">
<g clip-path="url(#clip0_1286_26598)">
<path fill-rule="evenodd" clip-rule="evenodd" d="M17.375 13.7668L17.375 7.49862C17.375 6.92362 17.1417 6.39862 16.7667 6.02362L16.775 6.01528L14.1167 3.35695C13.875 3.11528 13.475 3.11528 13.2334 3.35695C12.9917 3.59862 12.9917 3.99862 13.2334 4.24028L14.55 5.55695C13.675 5.89028 13.0834 6.78195 13.2334 7.81528C13.3667 8.73195 14.15 9.47362 15.0667 9.57362C15.4584 9.61528 15.8 9.54862 16.125 9.40695V12.5168L17.375 13.7668ZM14.4584 7.49862C14.4584 7.95695 14.8334 8.33195 15.2917 8.33195C15.75 8.33195 16.125 7.95695 16.125 7.49862C16.125 7.04028 15.75 6.66528 15.2917 6.66528C14.8334 6.66528 14.4584 7.04028 14.4584 7.49862Z" fill="#31CB9E"/>
<path d="M11.9584 8.3501L11.9584 4.16528C11.9584 3.24862 11.2084 2.49862 10.2917 2.49862L6.10691 2.49862L7.77357 4.16528L9.45836 4.16528C9.9167 4.16528 10.2917 4.54028 10.2917 4.99862L10.2917 6.68343L11.9584 8.3501Z" fill="#31CB9E"/>
<path d="M5.2917 7.89955V8.33195H5.72409L11.9584 14.5663V16.6653C11.9584 17.1236 11.5834 17.4986 11.125 17.4986H4.45836C4.00003 17.4986 3.62503 17.1236 3.62503 16.6653L3.62503 6.23287L5.2917 7.89955Z" fill="#31CB9E"/>
<path d="M13.2873 15.8952C13.4918 16.6561 14.0767 17.2817 14.8454 17.4533L13.2873 15.8952Z" fill="#31CB9E"/>
<path fill-rule="evenodd" clip-rule="evenodd" d="M1.13332 0.633068C1.42207 0.344315 1.89023 0.344316 2.17899 0.633071L19.8667 18.3209C20.1555 18.6097 20.1555 19.0779 19.8667 19.3666C19.578 19.6554 19.1098 19.6554 18.8211 19.3666L1.13331 1.67874C0.844559 1.38998 0.84456 0.921821 1.13332 0.633068Z" fill="#31CB9E"/>
</g>
<defs>
<clipPath id="clip0_1286_26598">
<rect width="20" height="20" fill="white" transform="translate(0.5)"/>
</clipPath>
</defs>
</svg>
