<svg width="16" height="16" viewBox="0 0 16 16" fill="none" xmlns="http://www.w3.org/2000/svg">
<path d="M13.4235 6.68688L12.8235 6.40022L12.7202 5.74355C12.6835 5.51688 12.5269 5.46688 12.3702 5.63355L11.9135 6.11689L11.2569 6.01355C11.0302 5.97689 10.9335 6.11355 11.0435 6.31355L11.3602 6.89689L11.0602 7.49022C10.9569 7.69355 11.0535 7.82688 11.2802 7.78355L11.9335 7.66355L12.4035 8.13355C12.5669 8.29688 12.7235 8.24355 12.7535 8.01688L12.8402 7.35688L13.4335 7.05355C13.6369 6.95022 13.6369 6.78355 13.4302 6.68688H13.4235ZM5.0902 5.97355L4.4202 6.08022L3.95353 5.59022C3.79353 5.42022 3.6302 5.47022 3.59353 5.70022L3.48687 6.37022L2.87353 6.66355C2.66353 6.76355 2.6602 6.93355 2.8702 7.04022L3.47353 7.34689L3.56353 8.02022C3.59353 8.25355 3.75353 8.30688 3.9202 8.14022L4.4002 7.66022L5.06687 7.78355C5.29687 7.82688 5.39687 7.69022 5.2902 7.48355L4.98353 6.88022L5.30687 6.28355C5.4202 6.07688 5.3202 5.94022 5.0902 5.97689V5.97355Z" fill="currentColor"/>
<path d="M5.42319 3.8969H5.78986V4.51357C5.78986 5.22023 6.26986 5.9269 6.81986 6.3769C6.81986 6.3769 6.82319 6.3769 6.82652 6.38023C7.18986 6.67357 7.42653 7.09357 7.42653 7.5569V7.58357C7.73319 7.5669 8.03653 7.55357 8.33986 7.55357C8.52986 7.55357 8.71986 7.56024 8.90652 7.5669V7.5569C8.90652 7.09023 9.14319 6.67023 9.50653 6.38023C9.50653 6.38023 9.50986 6.38023 9.51319 6.3769C10.0665 5.93023 10.5432 5.22023 10.5432 4.51357V3.8969H10.9099C11.1865 3.8969 11.4099 3.67357 11.4099 3.3969C11.4099 3.12023 11.1865 2.8969 10.9099 2.8969H10.5432V1.9369C10.5432 1.8269 10.4532 1.74023 10.3465 1.74023H5.98986C5.87986 1.74023 5.79319 1.83023 5.79319 1.9369V2.8969H5.42653C5.14986 2.8969 4.92653 3.12023 4.92653 3.3969C4.92653 3.67357 5.14986 3.8969 5.42653 3.8969H5.42319ZM7.19319 3.3869L7.75653 3.30357L8.00986 2.79357C8.09653 2.6169 8.23986 2.6169 8.32652 2.79357L8.57986 3.30357L9.14319 3.3869C9.33986 3.4169 9.38319 3.55023 9.23986 3.6869L8.82986 4.08357L8.92653 4.6469C8.95986 4.84023 8.84653 4.92357 8.66986 4.83357L8.16652 4.5669L7.66319 4.83357C7.48986 4.9269 7.37319 4.84357 7.40652 4.6469L7.50319 4.08357L7.09319 3.6869C6.95319 3.55023 6.99652 3.41357 7.18986 3.3869H7.19319ZM12.4099 12.4369C12.5365 12.4369 12.6565 12.3536 12.6932 12.2202C12.9599 11.2369 13.1232 10.6302 13.3932 9.63357C13.4332 9.49023 13.3565 9.3369 13.2199 9.28357C11.6532 8.6669 9.99986 8.38357 8.34653 8.38357C6.58319 8.38357 4.81319 8.7069 3.13652 9.29024C2.98986 9.34024 2.90986 9.4969 2.94986 9.64357C3.21652 10.6336 3.37986 11.2402 3.64652 12.2202C3.68319 12.3502 3.79986 12.4369 3.92986 12.4369C3.96319 12.4369 3.99653 12.4302 4.02986 12.4202C5.37652 11.9336 6.77319 11.6936 8.16986 11.6936C9.56653 11.6936 10.9632 11.9369 12.3099 12.4202C12.3432 12.4336 12.3765 12.4369 12.4099 12.4369ZM15.4265 11.5502C15.6065 11.3736 15.5332 11.0669 15.2899 10.9936L13.9932 10.5936L13.8065 11.2902L13.4965 12.4402C13.3632 12.9302 12.9165 13.2702 12.4099 13.2702C12.2799 13.2702 12.1499 13.2469 12.0265 13.2036C11.9532 13.1769 11.8799 13.1536 11.8032 13.1302L11.6999 13.4669C11.6465 13.6436 11.7432 13.8302 11.9199 13.8836L14.1832 14.5802C14.4265 14.6536 14.6599 14.4436 14.6065 14.1969L14.3299 12.8402C14.3065 12.7302 14.3432 12.6136 14.4232 12.5369L15.4232 11.5536L15.4265 11.5502ZM4.53652 13.1269C4.45986 13.1536 4.38652 13.1769 4.31319 13.2036C4.18986 13.2469 4.05986 13.2702 3.92986 13.2702C3.42319 13.2702 2.97652 12.9269 2.84319 12.4402L2.48319 11.1036L2.34652 10.5936L1.05319 10.9936C0.813191 11.0669 0.736525 11.3736 0.916525 11.5502L1.91652 12.5336C1.99652 12.6136 2.03319 12.7269 2.00986 12.8369L1.73319 14.1936C1.68319 14.4402 1.91652 14.6536 2.15652 14.5769L4.41986 13.8802C4.59652 13.8269 4.69319 13.6402 4.63986 13.4636L4.53652 13.1269Z" fill="currentColor"/>
</svg>
