<svg width="16" height="16" viewBox="0 0 16 16" fill="none" xmlns="http://www.w3.org/2000/svg">
<g id="Group">
<path id="Vector" d="M12.5 3.75C12.1539 3.75 11.8155 3.64736 11.5278 3.45507C11.24 3.26278 11.0157 2.98947 10.8832 2.6697C10.7508 2.34993 10.7161 1.99806 10.7836 1.65859C10.8512 1.31913 11.0178 1.00731 11.2626 0.762564C11.5073 0.517822 11.8191 0.351151 12.1586 0.283627C12.4981 0.216102 12.8499 0.250758 13.1697 0.383212C13.4895 0.515665 13.7628 0.739967 13.9551 1.02775C14.1474 1.31554 14.25 1.65388 14.25 2C14.2494 2.46395 14.0648 2.90872 13.7368 3.23678C13.4087 3.56484 12.9639 3.74941 12.5 3.75Z" fill="currentColor" fill-opacity="0.6"/>
<path id="Vector_2" d="M3.5 3.75C3.15388 3.75 2.81554 3.64736 2.52775 3.45507C2.23997 3.26278 2.01566 2.98947 1.88321 2.6697C1.75076 2.34993 1.7161 1.99806 1.78363 1.65859C1.85115 1.31913 2.01782 1.00731 2.26256 0.762564C2.50731 0.517822 2.81913 0.351151 3.15859 0.283627C3.49806 0.216102 3.84993 0.250758 4.1697 0.383212C4.48947 0.515665 4.76278 0.739967 4.95507 1.02775C5.14737 1.31554 5.25 1.65388 5.25 2C5.24941 2.46395 5.06484 2.90872 4.73678 3.23678C4.40872 3.56484 3.96395 3.74941 3.5 3.75Z" fill="currentColor" fill-opacity="0.6"/>
<path id="Vector_3" d="M15.1357 5.43076C14.3343 4.97106 13.4238 4.73589 12.5 4.75001C11.5743 4.73238 10.6613 4.96729 9.859 5.42951C9.67363 5.54097 9.52018 5.6984 9.41349 5.88655C9.3068 6.0747 9.25049 6.28721 9.25 6.50351V7.68026C10.3636 8.0052 11.3093 8.74637 11.891 9.75001H15.5C15.5663 9.75001 15.6299 9.72367 15.6768 9.67678C15.7237 9.6299 15.75 9.56631 15.75 9.50001V6.50851C15.7495 6.2911 15.6926 6.07753 15.585 5.88864C15.4773 5.69975 15.3226 5.54199 15.1357 5.43076Z" fill="currentColor" fill-opacity="0.6"/>
<path id="Vector_4" d="M6.75 7.68023V6.50347C6.74969 6.28704 6.69348 6.07435 6.58683 5.88601C6.48018 5.69767 6.3267 5.54007 6.14125 5.42848C5.33879 4.96665 4.4257 4.73209 3.5 4.74997C2.57609 4.73584 1.66545 4.9711 0.864 5.43098C0.677246 5.54218 0.522513 5.6999 0.4149 5.88875C0.307288 6.0776 0.250473 6.29112 0.25 6.50848V9.49998C0.25 9.56628 0.276339 9.62987 0.323223 9.67675C0.370107 9.72364 0.433696 9.74998 0.5 9.74998H4.109C4.69069 8.74634 5.63642 8.00517 6.75 7.68023Z" fill="currentColor" fill-opacity="0.6"/>
<path id="Vector_5" d="M8 8.25C7.25832 8.25 6.5333 8.46993 5.91661 8.88199C5.29993 9.29404 4.81928 9.87971 4.53545 10.5649C4.25162 11.2502 4.17736 12.0042 4.32206 12.7316C4.46675 13.459 4.8239 14.1272 5.34835 14.6517C5.8728 15.1761 6.54098 15.5333 7.26841 15.6779C7.99584 15.8226 8.74984 15.7484 9.43506 15.4645C10.1203 15.1807 10.706 14.7001 11.118 14.0834C11.5301 13.4667 11.75 12.7417 11.75 12C11.7489 11.0058 11.3534 10.0526 10.6504 9.34959C9.94739 8.64657 8.99422 8.25112 8 8.25ZM9.42675 12.1768L8.17675 13.4268C8.12987 13.4736 8.06629 13.4999 8 13.4999C7.93371 13.4999 7.87013 13.4736 7.82325 13.4268L6.57325 12.1768C6.52638 12.1299 6.50005 12.0663 6.50005 12C6.50005 11.9337 6.52638 11.8701 6.57325 11.8232L7.82325 10.5732C7.87013 10.5264 7.93371 10.5001 8 10.5001C8.06629 10.5001 8.12987 10.5264 8.17675 10.5732L9.42675 11.8232C9.47362 11.8701 9.49995 11.9337 9.49995 12C9.49995 12.0663 9.47362 12.1299 9.42675 12.1768Z" fill="currentColor" fill-opacity="0.6"/>
</g>
</svg>
