<svg width="36" height="36" viewBox="0 0 36 36" fill="none" xmlns="http://www.w3.org/2000/svg">
<circle cx="18" cy="18" r="18" fill="#31CB9E"/>
<path d="M15.8706 19.7463L27.1502 25.6449C27.5339 25.8315 27.5722 26.3169 27.2269 26.5409L19.5921 31.8794C19.2468 32.1407 18.7481 31.9541 18.633 31.5434L15.8706 19.7463ZM15.5254 4.70137C15.9857 4.40271 16.5996 4.7387 16.4845 5.26135L13.4536 17.9917L16.4461 30.7221C16.5612 31.2074 15.9474 31.5807 15.487 31.2821L7.81381 25.9435C7.43015 25.6822 7.19995 25.2342 7.19995 24.7862V11.1972C7.19995 10.7492 7.43015 10.3012 7.81381 10.0399L15.5254 4.70137ZM27.8792 11.9812C28.2628 11.7572 28.8 12.0185 28.8 12.4665V23.5169C28.8 23.9276 28.3012 24.1889 27.8792 24.0022L16.4078 17.9917L27.8792 11.9812ZM18.633 4.44004C18.7097 4.02938 19.2468 3.88005 19.5921 4.10405L27.2269 9.40526C27.5722 9.62925 27.5339 10.1146 27.1502 10.3012L15.8706 16.2371L18.633 4.44004Z" fill="white"/>
<path fill-rule="evenodd" clip-rule="evenodd" d="M26.3754 21.4823C22.7002 22.2606 19.4975 19.2053 20.3134 15.6991C20.7284 13.9148 22.1972 12.5137 24.0675 12.1176C27.743 11.3394 30.9454 14.3947 30.1298 17.9009C29.7146 19.6852 28.2458 21.0864 26.3754 21.4823ZM11.1324 21.4823C7.4571 22.2606 4.25446 19.2053 5.07025 15.6991C5.48539 13.9148 6.95416 12.5136 8.82448 12.1176C12.4998 11.3395 15.7024 14.3947 14.8867 17.9009C14.4715 19.6852 13.0028 21.0864 11.1324 21.4823ZM32 16.2587C31.4897 16.2587 31.0432 15.9278 30.9211 15.4551C30.2896 13.0119 27.9776 11.2 25.2215 11.2C22.6912 11.2 20.5351 12.7273 19.7102 14.8683C19.6349 15.064 19.3879 15.1401 19.2077 15.0222C18.8404 14.7823 18.2905 14.5341 17.5861 14.5374C16.8945 14.5406 16.3547 14.7848 15.9928 15.0215C15.8123 15.1395 15.5651 15.0638 15.4896 14.8679C14.6647 12.7271 12.5086 11.2 9.97843 11.2C7.22244 11.2 4.91029 13.0119 4.27897 15.4551C4.15682 15.9278 3.7103 16.2587 3.19995 16.2587V17.3413C3.7103 17.3413 4.15682 17.6722 4.27897 18.1449C4.91029 20.5881 7.22244 22.4 9.97843 22.4C13.2205 22.4 15.8486 19.8928 15.8486 16.8C15.8486 16.798 15.8486 16.7961 15.8486 16.7942C15.8482 16.355 16.104 15.9502 16.5181 15.7584C16.82 15.6186 17.1856 15.5185 17.6122 15.5204C18.0303 15.5223 18.3888 15.6217 18.6853 15.7593C19.098 15.9508 19.352 16.3556 19.3515 16.7934C19.3515 16.7956 19.3515 16.7978 19.3515 16.8C19.3515 19.8928 21.9796 22.4 25.2215 22.4C27.9776 22.4 30.2896 20.5881 30.9211 18.1449C31.0432 17.6722 31.4897 17.3413 32 17.3413V16.2587Z" fill="black"/>
<path d="M14.7 16.8C14.7 19.1379 12.6342 21.1 10 21.1C7.36588 21.1 5.30005 19.1379 5.30005 16.8C5.30005 14.4621 7.36588 12.5 10 12.5C12.6342 12.5 14.7 14.4621 14.7 16.8Z" fill="#FAFAFA" fill-opacity="0.6" stroke="black"/>
<path d="M29.9 16.8C29.9 19.1379 27.8342 21.1 25.2 21.1C22.5658 21.1 20.5 19.1379 20.5 16.8C20.5 14.4621 22.5658 12.5 25.2 12.5C27.8342 12.5 29.9 14.4621 29.9 16.8Z" fill="#FAFAFA" fill-opacity="0.6" stroke="black"/>
</svg>
