<svg width="24" height="24" viewBox="0 0 24 24" fill="none" xmlns="http://www.w3.org/2000/svg">
<circle cx="12" cy="12" r="12" fill="white"/>
<path d="M10.5804 13.1642L18.1001 17.0965C18.3559 17.221 18.3815 17.5445 18.1513 17.6939L13.0614 21.2529C12.8312 21.4271 12.4987 21.3027 12.422 21.0289L10.5804 13.1642ZM10.3502 3.1342C10.6571 2.9351 11.0664 3.15909 10.9896 3.50753L8.96902 11.9944L10.964 20.4814C11.0408 20.8049 10.6315 21.0538 10.3246 20.8547L5.20916 17.2957C4.95339 17.1214 4.79993 16.8228 4.79993 16.5241V7.46477C4.79993 7.16611 4.95339 6.86745 5.20916 6.69323L10.3502 3.1342ZM18.5861 7.98742C18.8418 7.83809 19.1999 8.01231 19.1999 8.31097V15.6779C19.1999 15.9517 18.8674 16.1259 18.5861 16.0015L10.9385 11.9944L18.5861 7.98742ZM12.422 2.95998C12.4731 2.68621 12.8312 2.58666 13.0614 2.73599L18.1513 6.27013C18.3815 6.41946 18.3559 6.74301 18.1001 6.86745L10.5804 10.8247L12.422 2.95998Z" fill="#31CB9E"/>
<path fill-rule="evenodd" clip-rule="evenodd" d="M17.5836 14.3216C15.1335 14.8404 12.9984 12.8036 13.5422 10.4661C13.8189 9.27659 14.7981 8.34249 16.045 8.07847C18.4953 7.55966 20.6303 9.59651 20.0866 11.934C19.8097 13.1235 18.8305 14.0576 17.5836 14.3216ZM7.42162 14.3216C4.9714 14.8404 2.8363 12.8036 3.38017 10.4661C3.65693 9.27658 4.6361 8.34247 5.88299 8.07847C8.3332 7.55968 10.4683 9.59649 9.92444 11.934C9.64768 13.1235 8.66851 14.0576 7.42162 14.3216ZM21.3333 10.8392C20.9931 10.8392 20.6955 10.6186 20.6141 10.3034C20.1931 8.67462 18.6517 7.46667 16.8143 7.46667C15.1274 7.46667 13.69 8.48492 13.1401 9.91224C13.0899 10.0427 12.9252 10.0934 12.8051 10.0149C12.5603 9.8549 12.1936 9.68943 11.7241 9.69163C11.263 9.69378 10.9032 9.85661 10.6619 10.0143C10.5415 10.093 10.3767 10.0426 10.3264 9.91197C9.77643 8.4848 8.33908 7.46667 6.65229 7.46667C4.81496 7.46667 3.27353 8.67462 2.85265 10.3034C2.77121 10.6186 2.47353 10.8392 2.1333 10.8392V11.5609C2.47353 11.5609 2.77121 11.7815 2.85265 12.0966C3.27353 13.7254 4.81496 14.9333 6.65229 14.9333C8.81364 14.9333 10.5657 13.2619 10.5657 11.2C10.5657 11.1987 10.5657 11.1974 10.5657 11.1961C10.5654 10.9034 10.736 10.6335 11.0121 10.5056C11.2133 10.4124 11.457 10.3457 11.7415 10.347C12.0202 10.3482 12.2592 10.4145 12.4569 10.5062C12.732 10.6339 12.9013 10.9038 12.901 11.1956C12.901 11.1971 12.901 11.1986 12.901 11.2C12.901 13.2619 14.6531 14.9333 16.8143 14.9333C18.6517 14.9333 20.1931 13.7254 20.6141 12.0966C20.6955 11.7815 20.9931 11.5609 21.3333 11.5609V10.8392Z" fill="black"/>
<path d="M9.63341 11.2001C9.63341 12.6543 8.34362 13.9001 6.66674 13.9001C4.98986 13.9001 3.70007 12.6543 3.70007 11.2001C3.70007 9.74582 4.98986 8.50006 6.66674 8.50006C8.34362 8.50006 9.63341 9.74582 9.63341 11.2001Z" fill="#FAFAFA" fill-opacity="0.6" stroke="black"/>
<path d="M19.7667 11.2001C19.7667 12.6543 18.4769 13.9001 16.8 13.9001C15.1232 13.9001 13.8334 12.6543 13.8334 11.2001C13.8334 9.74582 15.1232 8.50006 16.8 8.50006C18.4769 8.50006 19.7667 9.74582 19.7667 11.2001Z" fill="#FAFAFA" fill-opacity="0.6" stroke="black"/>
</svg>
