<svg>
  <defs>
    <symbol id="query-stats" width="36" height="36" viewBox="0 0 36 36" fill="none" xmlns="http://www.w3.org/2000/svg">
      <path
        d="M31.8245 33.9084L27.7777 29.8991C27.2669 30.2459 26.7158 30.5051 26.1245 30.6768C25.5332 30.8486 24.9337 30.9344 24.3261 30.9344C22.4946 30.9344 20.9318 30.291 19.6378 29.004C18.3438 27.7171 17.6968 26.1578 17.6968 24.3263C17.6968 22.4948 18.3438 20.9355 19.6378 19.6485C20.9318 18.3616 22.4946 17.7181 24.3261 17.7181C26.1577 17.7181 27.7169 18.3616 29.0038 19.6485C30.2908 20.9355 30.9343 22.4948 30.9343 24.3263C30.9343 24.948 30.8386 25.551 30.6473 26.1353C30.456 26.7195 30.2066 27.2795 29.899 27.8154L33.9082 31.8034C34.2039 32.1132 34.3579 32.4676 34.3704 32.8665C34.3829 33.2654 34.2414 33.6127 33.9457 33.9084C33.6642 34.2039 33.3106 34.3517 32.8851 34.3517C32.4595 34.3517 32.106 34.2039 31.8245 33.9084ZM24.3261 27.9638C25.3348 27.9638 26.1932 27.6097 26.9014 26.9015C27.6095 26.1934 27.9636 25.335 27.9636 24.3263C27.9636 23.3176 27.6095 22.4556 26.9014 21.7404C26.1932 21.0252 25.3348 20.6676 24.3261 20.6676C23.3174 20.6676 22.459 21.0252 21.7509 21.7404C21.0427 22.4556 20.6886 23.3176 20.6886 24.3263C20.6886 25.335 21.0427 26.1934 21.7509 26.9015C22.459 27.6097 23.3174 27.9638 24.3261 27.9638ZM2.15054 25.8442C1.82989 25.6268 1.63397 25.3187 1.56277 24.9197C1.49159 24.5208 1.55219 24.161 1.74457 23.8404L7.42829 14.7817C7.69894 14.3578 8.08807 14.1262 8.59567 14.0871C9.10329 14.048 9.52449 14.2154 9.85927 14.5893L12.7109 17.9561L17.1587 10.7774C17.4293 10.3143 17.838 10.0765 18.3848 10.064C18.9315 10.0515 19.3527 10.2768 19.6484 10.7399L22.8881 15.5643C22.375 15.6567 21.8851 15.798 21.4182 15.9882C20.9513 16.1785 20.4951 16.4122 20.0494 16.6893L18.4891 14.2926L14.2337 21.2366C13.9631 21.6746 13.5739 21.9097 13.0663 21.9417C12.5587 21.9738 12.1446 21.81 11.8239 21.4502L8.89241 18.0459L4.27177 25.4219C4.04024 25.7959 3.71878 26.0274 3.30738 26.1165C2.89596 26.2056 2.51034 26.1149 2.15054 25.8442ZM27.3979 15.9605C26.8816 15.7399 26.3528 15.6045 25.8115 15.5545C25.2702 15.5045 24.7234 15.4757 24.1713 15.4681L31.7495 3.39799C31.9669 3.02406 32.2849 2.79525 32.7033 2.71155C33.1218 2.62785 33.5109 2.71426 33.8707 2.97079C34.1914 3.20231 34.3936 3.51754 34.4773 3.91646C34.561 4.31539 34.4941 4.67518 34.2767 4.99583L27.3979 15.9605Z"
        fill="#31CB9E"
      />
    </symbol>
    <symbol
      id="quick-reference"
      width="36"
      height="36"
      viewBox="0 0 36 36"
      fill="none"
      xmlns="http://www.w3.org/2000/svg"
    >
      <path
        d="M6.94077 5.44059V16.2161V16.1248V30.5591V5.44059ZM11.7147 20.2922H17.506C17.8093 19.8107 18.1512 19.3651 18.5317 18.9554C18.9122 18.5457 19.3388 18.1636 19.8114 17.8091H11.704C11.3503 17.8091 11.055 17.9275 10.818 18.1643C10.581 18.4012 10.4625 18.6946 10.4625 19.0448C10.4625 19.3949 10.5825 19.6903 10.8225 19.9311C11.0625 20.1718 11.3599 20.2922 11.7147 20.2922ZM11.7147 26.6672H16.2277C16.1721 26.2498 16.1349 25.8324 16.1159 25.415C16.097 24.9976 16.1141 24.5873 16.1674 24.1841H11.6935C11.3447 24.1841 11.0524 24.3025 10.8164 24.5393C10.5805 24.7762 10.4625 25.0696 10.4625 25.4198C10.4625 25.7699 10.5825 26.0653 10.8225 26.3061C11.0625 26.5468 11.3599 26.6672 11.7147 26.6672ZM6.94077 33.5297C6.12809 33.5297 5.42982 33.2378 4.84594 32.6539C4.26204 32.07 3.97009 31.3717 3.97009 30.5591V5.44059C3.97009 4.62209 4.26204 3.91882 4.84594 3.33077C5.42982 2.74274 6.12809 2.44873 6.94077 2.44873H19.2652C19.6768 2.44873 20.0691 2.53242 20.4421 2.69979C20.8151 2.86719 21.137 3.08622 21.4076 3.35687L28.143 10.0922C28.4136 10.3629 28.6326 10.6847 28.8 11.0577C28.9674 11.4307 29.0511 11.823 29.0511 12.2346V17.0297C28.5739 16.7982 28.0843 16.6164 27.5821 16.4843C27.0799 16.3523 26.5723 16.2629 26.0592 16.2161V12.4156H20.4571C20.0394 12.4156 19.6874 12.2725 19.4012 11.9862C19.1149 11.6999 18.9717 11.3479 18.9717 10.9303V5.44059H6.94077V30.5591H18.2234C18.7092 31.2395 19.2862 31.8287 19.9544 32.3267C20.6225 32.8248 21.3694 33.2258 22.1951 33.5297H6.94077ZM25.0975 28.8748C26.168 28.8748 27.0617 28.5172 27.7785 27.8018C28.4954 27.0865 28.8538 26.1935 28.8538 25.123C28.8538 24.0525 28.4974 23.1553 27.7847 22.4314C27.0719 21.7075 26.1822 21.3455 25.1154 21.3455C24.0427 21.3455 23.1463 21.7046 22.4261 22.4229C21.7058 23.1411 21.3457 24.0376 21.3457 25.1123C21.3457 26.1869 21.7034 27.0827 22.4187 27.7996C23.1341 28.5164 24.027 28.8748 25.0975 28.8748ZM33.7931 33.802C33.4914 34.0977 33.1441 34.2456 32.7513 34.2456C32.3584 34.2456 32.0141 34.0977 31.7185 33.802L28.6842 30.789C28.1451 31.1107 27.5785 31.3673 26.9845 31.5586C26.3905 31.7499 25.7657 31.8455 25.1103 31.8455C23.2335 31.8455 21.6383 31.191 20.3245 29.8819C19.0107 28.5729 18.3538 26.9833 18.3538 25.1132C18.3538 23.2432 19.0111 21.6526 20.3258 20.3415C21.6404 19.0304 23.2367 18.3748 25.1148 18.3748C26.9869 18.3748 28.5768 19.0297 29.8844 20.3393C31.1919 21.649 31.8457 23.2392 31.8457 25.1102C31.8457 25.7694 31.7465 26.3978 31.5482 26.9955C31.3498 27.5931 31.0897 28.156 30.768 28.6841L33.8022 31.7183C34.0979 32.014 34.2457 32.3612 34.2457 32.7602C34.2457 33.1591 34.0948 33.5064 33.7931 33.802Z"
        fill="#31CB9E"
      />
    </symbol>
    <symbol id="timer-black" width="36" height="36" viewBox="0 0 36 36" fill="none" xmlns="http://www.w3.org/2000/svg">
      <g>
        <path
          d="M15 4.5H21C21.825 4.5 22.5 3.825 22.5 3C22.5 2.175 21.825 1.5 21 1.5H15C14.175 1.5 13.5 2.175 13.5 3C13.5 3.825 14.175 4.5 15 4.5Z"
          fill="#31CB9E"
        />
        <path
          d="M28.545 11.085L29.67 9.96C30.24 9.39 30.255 8.445 29.67 7.86L29.655 7.845C29.07 7.26 28.14 7.275 27.555 7.845L26.43 8.97C24.105 7.11 21.18 6 18 6C10.8 6 4.68003 11.94 4.50003 19.14C4.30503 26.76 10.41 33 18 33C25.47 33 31.5 26.955 31.5 19.5C31.5 16.32 30.39 13.395 28.545 11.085ZM19.5 19.5C19.5 20.325 18.825 21 18 21C17.175 21 16.5 20.325 16.5 19.5V13.5C16.5 12.675 17.175 12 18 12C18.825 12 19.5 12.675 19.5 13.5V19.5Z"
          fill="#31CB9E"
        />
      </g>
    </symbol>
    <symbol id="exhausted" width="30" height="30" viewBox="0 0 30 30" fill="none" xmlns="http://www.w3.org/2000/svg">
      <path
        d="M20.475 13.0125C21.06 13.0125 21.5437 12.8213 21.9262 12.4388C22.3087 12.0563 22.5 11.5725 22.5 10.9875C22.5 10.4025 22.3087 9.91875 21.9262 9.53625C21.5437 9.15375 21.06 8.9625 20.475 8.9625C19.89 8.9625 19.4062 9.15375 19.0237 9.53625C18.6412 9.91875 18.45 10.4025 18.45 10.9875C18.45 11.5725 18.6412 12.0563 19.0237 12.4388C19.4062 12.8213 19.89 13.0125 20.475 13.0125ZM9.525 13.0125C10.11 13.0125 10.5938 12.8213 10.9762 12.4388C11.3587 12.0563 11.55 11.5725 11.55 10.9875C11.55 10.4025 11.3587 9.91875 10.9762 9.53625C10.5938 9.15375 10.11 8.9625 9.525 8.9625C8.94 8.9625 8.45625 9.15375 8.07375 9.53625C7.69125 9.91875 7.5 10.4025 7.5 10.9875C7.5 11.5725 7.69125 12.0563 8.07375 12.4388C8.45625 12.8213 8.94 13.0125 9.525 13.0125ZM15.01 30C12.9416 30 10.9979 29.6063 9.17872 28.8188C7.35957 28.0313 5.76875 26.9563 4.40625 25.5938C3.04375 24.2313 1.96875 22.6395 1.18125 20.8185C0.39375 18.9975 0 17.0517 0 14.9813C0 12.9108 0.39375 10.965 1.18125 9.14404C1.96875 7.32301 3.04375 5.7375 4.40625 4.3875C5.76875 3.0375 7.36051 1.96875 9.18154 1.18125C11.0025 0.39375 12.9483 0 15.0187 0C17.0892 0 19.035 0.39375 20.856 1.18125C22.677 1.96875 24.2625 3.0375 25.6125 4.3875C26.9625 5.7375 28.0312 7.325 28.8187 9.15C29.6062 10.975 30 12.9217 30 14.99C30 17.0584 29.6062 19.0021 28.8187 20.8213C28.0312 22.6404 26.9625 24.229 25.6125 25.5869C24.2625 26.9447 22.675 28.0198 20.85 28.8118C19.025 29.604 17.0783 30 15.01 30ZM15.0182 27.75C18.5561 27.75 21.5625 26.5064 24.0375 24.0193C26.5125 21.5322 27.75 18.5196 27.75 14.9818C27.75 11.4439 26.5125 8.4375 24.0375 5.9625C21.5625 3.4875 18.5561 2.25 15.0182 2.25C11.4803 2.25 8.46785 3.4875 5.98072 5.9625C3.49357 8.4375 2.25 11.4439 2.25 14.9818C2.25 18.5196 3.49357 21.5322 5.98072 24.0193C8.46785 26.5064 11.4803 27.75 15.0182 27.75ZM8.68972 22.3125H21.3055C21.6518 22.3125 21.9062 22.2 22.0687 21.975C22.2312 21.75 22.2125 21.4875 22.0125 21.1875C21.2875 19.9875 20.2937 19.05 19.0312 18.375C17.7687 17.7 16.425 17.3625 15 17.3625C13.575 17.3625 12.2375 17.7 10.9875 18.375C9.7375 19.05 8.75 19.9875 8.025 21.1875C7.825 21.4875 7.79921 21.75 7.94764 21.975C8.09606 22.2 8.34342 22.3125 8.68972 22.3125Z"
        fill="#31CB9E"
      />
    </symbol>
  </defs>
</svg>
