<svg width="14" height="12" viewBox="0 0 14 12" fill="none" xmlns="http://www.w3.org/2000/svg">
<path d="M12.3333 0.666992H1.66668C0.933344 0.666992 0.333344 1.26699 0.333344 2.00033V10.0003C0.333344 10.7337 0.933344 11.3337 1.66668 11.3337H12.3333C13.0667 11.3337 13.6667 10.7337 13.6667 10.0003V2.00033C13.6667 1.26699 13.0667 0.666992 12.3333 0.666992ZM12.0667 3.50033L7.70668 6.22699C7.27334 6.50033 6.72668 6.50033 6.29334 6.22699L1.93334 3.50033C1.76668 3.39366 1.66668 3.21366 1.66668 3.02033C1.66668 2.57366 2.15334 2.30699 2.53334 2.54033L7.00001 5.33366L11.4667 2.54033C11.8467 2.30699 12.3333 2.57366 12.3333 3.02033C12.3333 3.21366 12.2333 3.39366 12.0667 3.50033Z" fill="currentColor"/>
</svg>
