<svg width="20" height="20" viewBox="0 0 20 20" fill="none" xmlns="http://www.w3.org/2000/svg">
<g id="left-icon">
<path id="Vector" d="M15.8333 2.5H4.16667C3.25 2.5 2.5 3.25 2.5 4.16667V15.8333C2.5 16.75 3.25 17.5 4.16667 17.5H15.8333C16.75 17.5 17.5 16.75 17.5 15.8333V4.16667C17.5 3.25 16.75 2.5 15.8333 2.5ZM6.66667 14.1667C6.20833 14.1667 5.83333 13.7917 5.83333 13.3333V10.8333C5.83333 10.375 6.20833 10 6.66667 10C7.125 10 7.5 10.375 7.5 10.8333V13.3333C7.5 13.7917 7.125 14.1667 6.66667 14.1667ZM10 14.1667C9.54167 14.1667 9.16667 13.7917 9.16667 13.3333V12.5C9.16667 12.0417 9.54167 11.6667 10 11.6667C10.4583 11.6667 10.8333 12.0417 10.8333 12.5V13.3333C10.8333 13.7917 10.4583 14.1667 10 14.1667ZM10 10C9.54167 10 9.16667 9.625 9.16667 9.16667C9.16667 8.70833 9.54167 8.33333 10 8.33333C10.4583 8.33333 10.8333 8.70833 10.8333 9.16667C10.8333 9.625 10.4583 10 10 10ZM13.3333 14.1667C12.875 14.1667 12.5 13.7917 12.5 13.3333V6.66667C12.5 6.20833 12.875 5.83333 13.3333 5.83333C13.7917 5.83333 14.1667 6.20833 14.1667 6.66667V13.3333C14.1667 13.7917 13.7917 14.1667 13.3333 14.1667Z" fill="currentColor"/>
</g>
</svg>
