<svg width="50" height="44" viewBox="0 0 50 44" fill="none" xmlns="http://www.w3.org/2000/svg">
<path d="M28.2315 0.0085298C15.7917 -0.333626 5.60042 9.66221 5.60042 22.0043H1.22573C0.125948 22.0043 -0.411723 23.324 0.370344 24.0816L7.189 30.9248C7.67779 31.4136 8.43542 31.4136 8.92421 30.9248L15.7429 24.0816C16.5005 23.324 15.9628 22.0043 14.863 22.0043H10.4883C10.4883 12.4728 18.2601 4.77427 27.8405 4.89647C36.932 5.01867 44.5816 12.6683 44.7038 21.7599C44.826 31.3158 37.1275 39.1121 27.5961 39.1121C23.6613 39.1121 20.0198 37.7679 17.1359 35.495C16.1583 34.7374 14.7897 34.8107 13.9099 35.6905C12.8834 36.717 12.9567 38.4522 14.1054 39.332C17.8202 42.2648 22.4882 44 27.5961 44C39.9381 44 49.9339 33.8086 49.5917 21.3688C49.274 9.90661 39.6937 0.326246 28.2315 0.0085298Z" fill="#31CB9E"/>
<path d="M27.2552 31.6934V20.9926C27.2552 20.5045 27.2552 20.007 27.2552 19.5001C27.274 18.9744 27.2834 18.4394 27.2834 17.895C26.6639 18.4582 25.9787 18.9557 25.2277 19.3875C24.4768 19.8005 23.6883 20.0821 22.8623 20.2323L22.4117 16.2335C22.8998 16.196 23.4161 16.074 23.9605 15.8675C24.5237 15.661 25.0775 15.4075 25.622 15.1071C26.1664 14.8068 26.6545 14.4876 27.0863 14.1497C27.5181 13.793 27.8466 13.4457 28.0719 13.1078H31.9298V31.6934H27.2552Z" fill="#31CB9E"/>
</svg>
