<svg xmlns="http://www.w3.org/2000/svg" xmlns:xlink="http://www.w3.org/1999/xlink">
  <defs>
    <symbol width="20" height="20" viewBox="0 0 20 20" fill="none" id="truesight-v2">
      <path
        d="M15.5456 9.41968C14.4955 9.41968 13.6465 10.2728 13.6465 11.3188C13.6465 11.569 13.8516 11.7741 14.1018 11.7741C14.352 11.7741 14.5571 11.569 14.5571 11.3188C14.5571 10.7732 15.0042 10.3262 15.5497 10.3262C15.7999 10.3262 16.005 10.1211 16.005 9.87087C16.0009 9.62066 15.7958 9.41968 15.5456 9.41968Z"
        fill="currentcolor"
      />
      <path
        d="M18.6423 8.11123C18.5315 8.00458 18.4126 7.90204 18.2895 7.8036L16.6078 6.3762C15.9598 5.91681 15.1886 5.62559 14.3519 5.56817L14.4421 5.6584L13.4208 4.63297H13.4126C13.1296 4.37457 12.7481 4.2146 12.3339 4.2146C11.6202 4.2146 11.0172 4.67809 10.8121 5.32206C10.607 5.19081 10.3691 5.11287 10.1107 5.09647C10.0697 5.09237 10.0246 5.09237 9.98357 5.09237C9.69235 5.09237 9.42164 5.1785 9.19194 5.32206C8.98275 4.6822 8.3798 4.2187 7.67021 4.2187C7.25593 4.2187 6.87857 4.37457 6.59145 4.63708H6.58325L5.56192 5.6625L5.65216 5.57227C4.81541 5.62969 4.04019 5.92501 3.39622 6.3803L1.71452 7.8077C1.59146 7.90204 1.47252 8.00458 1.36177 8.11533C0.520918 8.92747 0 10.0636 0 11.3229C0 13.7839 2.00164 15.7855 4.46267 15.7855C6.73501 15.7855 8.6177 14.0751 8.88841 11.8725C9.21655 12.0612 9.59801 12.1678 9.99998 12.1678C10.406 12.1678 10.7834 12.0612 11.1115 11.8725C11.3864 14.071 13.2649 15.7814 15.5373 15.7814C17.9983 15.7814 20 13.7798 20 11.3188C20.0041 10.0595 19.4831 8.92337 18.6423 8.11123ZM4.46267 14.3663C2.78096 14.3663 1.41919 13.0046 1.41919 11.3229C1.41919 9.64117 2.78096 8.2794 4.46267 8.2794C6.14437 8.2794 7.50614 9.64117 7.50614 11.3229C7.51024 13.0005 6.14437 14.3663 4.46267 14.3663ZM10.0041 10.9045C9.45855 10.9045 9.01557 10.4615 9.01557 9.91598C9.01557 9.37045 9.45855 8.92747 10.0041 8.92747C10.5496 8.92747 10.9926 9.37045 10.9926 9.91598C10.9926 10.4615 10.5496 10.9045 10.0041 10.9045ZM15.5455 14.3663C13.8638 14.3663 12.502 13.0046 12.502 11.3229C12.502 9.64117 13.8638 8.2794 15.5455 8.2794C17.2272 8.2794 18.589 9.64117 18.589 11.3229C18.589 13.0005 17.2272 14.3663 15.5455 14.3663Z"
        fill="currentcolor"
      />
      <path
        d="M4.46257 9.41968C3.41253 9.41968 2.56348 10.2728 2.56348 11.3188C2.56348 11.569 2.76856 11.7741 3.01877 11.7741C3.26897 11.7741 3.47406 11.569 3.47406 11.3188C3.47406 10.7732 3.92114 10.3262 4.46667 10.3262C4.71688 10.3262 4.92196 10.1211 4.92196 9.87087C4.91786 9.62066 4.71277 9.41968 4.46257 9.41968Z"
        fill="currentcolor"
      />
    </symbol>
    <symbol width="16" height="16" viewBox="0 0 16 16" fill="none" id="notification-2">
      <g clip-path="url(#clip0_201_508)">
        <path
          d="M12 10.6667V7.33342C12 5.28675 10.9067 3.57341 9.00003 3.12008V2.66675C9.00003 2.11341 8.54669 1.66675 7.99336 1.66675C7.44003 1.66675 7.00003 2.11341 7.00003 2.66675V3.12008C5.08669 3.57341 4.00003 5.28008 4.00003 7.33342L4.00003 10.6667L3.13336 11.5267C2.71336 11.9467 3.00669 12.6667 3.60003 12.6667L12.38 12.6667C12.9734 12.6667 13.2734 11.9467 12.8534 11.5267L12 10.6667ZM7.99336 14.6667C8.72669 14.6667 9.32669 14.0667 9.32669 13.3334L6.66003 13.3334C6.66003 14.0667 7.25336 14.6667 7.99336 14.6667ZM4.51336 3.15341C4.79336 2.90008 4.80003 2.46675 4.53336 2.20008C4.28003 1.94675 3.86669 1.94008 3.60669 2.18675C2.46669 3.22675 1.68003 4.64008 1.42669 6.22675C1.36669 6.63341 1.68003 7.00008 2.09336 7.00008C2.41336 7.00008 2.69336 6.76675 2.74669 6.44675C2.94669 5.15341 3.58669 4.00008 4.51336 3.15341ZM12.4 2.18675C12.1334 1.94008 11.72 1.94675 11.4667 2.20008C11.2 2.46675 11.2134 2.89341 11.4867 3.14675C12.4067 3.99341 13.0534 5.14675 13.2534 6.44008C13.3 6.76008 13.58 6.99341 13.9067 6.99341C14.3134 6.99341 14.6334 6.62675 14.5667 6.22008C14.3134 4.64008 13.5334 3.23341 12.4 2.18675Z"
          fill="currentcolor"
        />
      </g>
      <defs>
        <clipPath id="clip0_201_508">
          <rect width="16" height="16" fill="currentcolor" />
        </clipPath>
      </defs>
    </symbol>
    <symbol width="16" height="16" viewBox="0 0 16 16" fill="none" id="bullish">
      <path
        d="M12.5283 0C13.1769 3.98225 11.7713 3.82024 11.7713 3.82024L8.03056 3.67873V3.67623L8.00056 3.67723L7.96956 3.67623V3.67873L4.22832 3.82024C4.22832 3.82024 2.82274 3.98225 3.47128 0C-1.12301 6.50491 4.94887 5.51334 5.03938 5.74786C5.12988 5.98237 4.11982 7.35196 4.19282 8.16251C4.26533 8.97306 5.67942 9.40559 5.86893 9.94562C6.49047 11.7837 4.51734 13.5668 6.35396 14.0289C6.42746 14.0469 6.50497 14.0644 6.58247 14.0809C6.55947 14.1889 6.54747 14.2999 6.54747 14.4144C6.54747 15.2885 7.25851 16 8.13307 16C9.00712 16 9.71867 15.2885 9.71867 14.4144C9.71867 14.2789 9.70067 14.1484 9.66766 14.0229C11.4688 13.5538 9.51315 11.7767 10.1332 9.94612C10.3227 9.40609 11.7368 8.97356 11.8098 8.16301C11.8828 7.35246 10.8727 5.98287 10.9632 5.74836C11.0507 5.51335 17.1231 6.50491 12.5283 0ZM8.13157 15.5685C7.49603 15.5685 6.9775 15.0519 6.9775 14.4154C6.9775 14.3269 6.9895 14.2409 7.009 14.1589C7.43402 14.2234 7.82455 14.2549 7.96906 14.2669V14.2709C7.96906 14.2709 7.98106 14.2704 8.00006 14.2689C8.01756 14.2704 8.03056 14.2709 8.03056 14.2709V14.2669C8.20357 14.2544 8.72761 14.2114 9.24164 14.1169C9.26714 14.2114 9.28564 14.3114 9.28564 14.4154C9.28564 15.0519 8.76761 15.5685 8.13157 15.5685Z"
        fill="currentcolor"
      />
    </symbol>
    <symbol width="16" height="16" viewBox="0 0 16 16" fill="none" id="bearish">
      <path
        d="M0 4.91096C3.14713e-05 3.52406 1.17093 2.39578 2.61021 2.39578C3.30768 2.39578 3.96152 2.6599 4.44452 3.12106C5.48233 2.42706 6.72605 2.04956 8.00002 2.04956C9.27408 2.04956 10.5177 2.42706 11.5555 3.12109C12.0386 2.6599 12.6924 2.39581 13.3898 2.39581C14.8291 2.39578 16 3.52409 16 4.91096C16 5.55402 15.7483 6.16587 15.2913 6.63374C14.9804 6.95196 14.5941 7.18349 14.1695 7.31124C14.1971 7.53971 14.211 7.76996 14.211 8.00008C14.211 11.2811 11.4248 13.9505 8.00002 13.9505C4.57524 13.9505 1.78896 11.2812 1.78896 8.00008C1.78896 7.76971 1.80287 7.53924 1.8305 7.31052C0.767717 6.98802 0 6.02443 0 4.91096ZM6.3513 9.39661L7.45911 10.5044V11.2458C7.45911 11.5446 7.7013 11.7868 8.00008 11.7868C8.29886 11.7868 8.54105 11.5446 8.54105 11.2458V10.5044L9.64873 9.39658C9.80345 9.24186 9.8497 9.0092 9.76601 8.80705C9.68226 8.60492 9.48501 8.47311 9.26623 8.47311H6.7338C6.51499 8.47311 6.31777 8.60492 6.23402 8.80705C6.1503 9.00917 6.19658 9.24189 6.3513 9.39661Z"
        fill="currentcolor"
      />
    </symbol>
    <symbol width="16" height="16" viewBox="0 0 16 16" fill="none" id="trending-soon">
      <g clip-path="url(#clip0_4_6338)">
        <path
          d="M11.754 5.24119C12.0925 5.03198 12.1972 4.588 11.988 4.24954C11.7788 3.91107 11.3349 3.80628 10.9964 4.01549C10.6579 4.22469 10.5531 4.66867 10.7623 5.00714C10.9715 5.34561 11.4155 5.4504 11.754 5.24119Z"
          fill="currentcolor"
        />
        <path
          d="M0.882738 13.11C-0.23948 14.2322 0.0278326 15.9717 0.0278326 15.9717C0.0278326 15.9717 1.76727 16.239 2.88949 15.1167C3.53074 14.5195 3.65349 13.661 3.00836 12.9911C2.34796 12.325 1.42555 12.5051 0.882738 13.11Z"
          fill="currentcolor"
        />
        <path
          d="M15.9912 0.00899047C15.5721 -0.0150721 14.779 -0.00444709 13.7343 0.264304C12.2709 0.640555 10.0006 1.61525 7.49555 4.12057C5.99773 5.61807 5.0321 7.03776 4.16772 8.54121L5.48117 9.85465L5.98867 9.34683L6.65242 10.0106L6.14492 10.5181L7.45805 11.8315C8.96181 10.9672 10.3812 10.0015 11.8787 8.50402C15.8896 4.49307 16.0531 1.06431 15.9912 0.00899047ZM9.7065 4.62963C9.7065 3.70963 10.4512 2.964 11.3699 2.964C12.2884 2.964 13.0331 3.70963 13.0331 4.62963C13.0331 5.54963 12.2884 6.29557 11.3699 6.29557C10.4512 6.29557 9.7065 5.54963 9.7065 4.62963Z"
          fill="currentcolor"
        />
        <path
          d="M4.97377 11.6895L4.31018 11.0259L4.81777 10.5183L3.69202 9.39258C3.49059 9.76139 2.99421 10.6918 2.94824 10.7778L5.22187 13.0514C5.30787 13.0055 6.23821 12.5091 6.60712 12.3077L5.48137 11.1819L4.97377 11.6895Z"
          fill="currentcolor"
        />
        <path
          d="M9.04292 13.5132V15.1522L9.86238 15.9717L11.5014 14.3327L12.5324 9.17749C11.0119 10.6961 9.58395 11.6829 8.08423 12.5545L9.04292 13.5132Z"
          fill="currentcolor"
        />
        <path
          d="M2.48627 6.95627L3.44499 7.91498C4.31662 6.41523 5.3034 4.98733 6.82202 3.4668L1.6668 4.49786L0.027832 6.1368L0.847301 6.95627H2.48627Z"
          fill="currentcolor"
        />
      </g>
      <defs>
        <clipPath id="clip0_4_6338">
          <rect width="16" height="16" fill="currentcolor" />
        </clipPath>
      </defs>
    </symbol>
    <symbol width="16" height="16" viewBox="0 0 16 16" fill="none" id="flame">
      <g clip-path="url(#clip0_4_6334)">
        <path
          d="M2.03419 9.36778C2.21747 6.98156 3.32847 5.48622 4.30859 4.16665C5.21616 2.94503 6 1.89009 6 0.333904C6 0.208904 6.07 0.0946543 6.181 0.037373C6.29234 -0.020252 6.42613 -0.0108145 6.52734 0.062748C7.99934 1.11606 9.22753 2.89134 9.65656 4.58522C9.95441 5.7645 9.99381 7.09025 9.99934 7.96584C11.3587 7.6755 11.6667 5.64212 11.6699 5.61997C11.6852 5.5145 11.7497 5.42272 11.8434 5.37259C11.9381 5.32312 12.0495 5.31953 12.1455 5.36706C12.2168 5.40156 13.8952 6.25437 13.9928 9.65941C13.9997 9.77269 14 9.88631 14 9.99991C14 13.3079 11.3083 15.9995 8 15.9995C7.99544 15.9998 7.99056 16.0005 7.98666 15.9995C7.98534 15.9995 7.98406 15.9995 7.98244 15.9995C4.68228 15.99 2 13.3021 2 9.99991C2 9.83356 2.03419 9.36778 2.03419 9.36778ZM8 15.3329C9.10287 15.3329 10 14.3772 10 13.2025C10 13.1625 10.0003 13.1221 9.99741 13.0726C9.98406 12.5772 9.88997 12.239 9.78678 12.0141C9.59341 12.4294 9.24772 12.8112 8.68619 12.8112C8.50194 12.8112 8.35284 12.6622 8.35284 12.4779C8.35284 12.0034 8.34306 11.4559 8.22491 10.9617C8.11975 10.5236 7.86847 10.0575 7.55009 9.68384C7.4085 10.1688 7.13244 10.5614 6.86291 10.9445C6.47716 11.4926 6.07841 12.0593 6.00841 13.0258C6.00419 13.083 5.99994 13.1407 5.99994 13.2025C6 14.3772 6.89713 15.3329 8 15.3329Z"
          fill="currentcolor"
        />
      </g>
      <defs>
        <clipPath id="clip0_4_6334">
          <rect width="16" height="16" fill="white" transform="matrix(-1 0 0 1 16 0)" />
        </clipPath>
      </defs>
    </symbol>
    <symbol width="16" height="16" viewBox="0 0 16 16" fill="none" id="refund">
      <g>
        <path
          d="M7.96853 2.00241C4.45732 1.90583 1.58076 4.72721 1.58076 8.21083H0.345971C0.0355497 8.21083 -0.116212 8.58333 0.104532 8.79718L2.02914 10.7287C2.16711 10.8666 2.38095 10.8666 2.51892 10.7287L4.44353 8.79718C4.65737 8.58333 4.50561 8.21083 4.19519 8.21083H2.9604C2.9604 5.52051 5.15405 3.34756 7.85816 3.38206C10.4243 3.41655 12.5835 5.5757 12.6179 8.14184C12.6524 10.8391 10.4795 13.0396 7.78917 13.0396C6.67856 13.0396 5.65072 12.6602 4.83673 12.0187C4.5608 11.8048 4.17449 11.8255 3.92616 12.0738C3.63643 12.3636 3.65713 12.8533 3.98134 13.1017C5.02988 13.9295 6.34744 14.4192 7.78917 14.4192C11.2728 14.4192 14.0942 11.5427 13.9976 8.03147C13.9079 4.7962 11.2038 2.09208 7.96853 2.00241Z"
          fill="currentcolor"
        />
        <g>
          <path
            d="M7.80396 7.85043C7.34314 7.85043 6.96824 7.52594 6.96824 7.12711C6.96824 6.72824 7.34314 6.40375 7.80396 6.40375C8.26479 6.40375 8.63968 6.72824 8.63968 7.12711C8.63968 7.33687 8.80979 7.50698 9.01956 7.50698C9.22932 7.50698 9.39943 7.33687 9.39943 7.12711C9.39943 6.43099 8.88075 5.84568 8.18384 5.68682V5.48925C8.18384 5.27948 8.01373 5.10938 7.80396 5.10938C7.5942 5.10938 7.42409 5.27948 7.42409 5.48925V5.68682C6.72717 5.84568 6.2085 6.43099 6.2085 7.12711C6.2085 7.94486 6.92421 8.61017 7.80396 8.61017C8.26479 8.61017 8.63968 8.93466 8.63968 9.33353C8.63968 9.73239 8.26479 10.0569 7.80396 10.0569C7.34314 10.0569 6.96824 9.73239 6.96824 9.33353C6.96824 9.12376 6.79813 8.95365 6.58837 8.95365C6.3786 8.95365 6.2085 9.12376 6.2085 9.33353C6.2085 10.0296 6.72717 10.615 7.42409 10.7738V10.9379C7.42409 11.1477 7.5942 11.3178 7.80396 11.3178C8.01373 11.3178 8.18384 11.1477 8.18384 10.9379V10.7738C8.88075 10.615 9.39943 10.0296 9.39943 9.33353C9.39943 8.51573 8.68371 7.85043 7.80396 7.85043Z"
            fill="currentcolor"
          />
        </g>
      </g>
    </symbol>
    <symbol id="download" width="16" height="16" viewBox="0 0 16 16" fill="none">
      <g clip-path="url(#clip0_4_6331)">
        <path
          d="M11.0599 6H9.99992V2.66667C9.99992 2.3 9.69992 2 9.33325 2H6.66659C6.29992 2 5.99992 2.3 5.99992 2.66667V6H4.93992C4.34659 6 4.04659 6.72 4.46659 7.14L7.52659 10.2C7.78659 10.46 8.20659 10.46 8.46659 10.2L11.5266 7.14C11.9466 6.72 11.6533 6 11.0599 6ZM3.33325 12.6667C3.33325 13.0333 3.63325 13.3333 3.99992 13.3333H11.9999C12.3666 13.3333 12.6666 13.0333 12.6666 12.6667C12.6666 12.3 12.3666 12 11.9999 12H3.99992C3.63325 12 3.33325 12.3 3.33325 12.6667Z"
          fill="currentcolor"
        />
      </g>
      <defs>
        <clipPath id="clip0_4_6331">
          <rect width="16" height="16" fill="white" />
        </clipPath>
      </defs>
    </symbol>
    <symbol id="upload" width="16" height="16" viewBox="0 0 16 16" fill="none">
      <path
        d="M11.06 10L10 10L10 13.3333C10 13.7 9.70004 14 9.33337 14L6.66671 14C6.30004 14 6.00004 13.7 6.00004 13.3333L6.00004 10L4.94004 10C4.34671 10 4.04671 9.28 4.46671 8.86L7.52671 5.8C7.78671 5.54 8.20671 5.54 8.46671 5.8L11.5267 8.86C11.9467 9.28 11.6534 10 11.06 10ZM3.33338 3.33333C3.33338 2.96667 3.63338 2.66667 4.00004 2.66667L12 2.66667C12.3667 2.66667 12.6667 2.96667 12.6667 3.33334C12.6667 3.7 12.3667 4 12 4L4.00004 4C3.63338 4 3.33338 3.7 3.33338 3.33333Z"
        fill="currentcolor"
      />
    </symbol>
    <symbol id="coin-bag" width="16" height="16" viewBox="0 0 16 16" fill="none">
      <path
        d="M8.00004 4.74902C4.56745 4.74902 1.90576 8.52909 1.90576 11.7809C1.90576 15.5628 5.38417 16 8.00004 16C10.6159 16 14.0943 15.5628 14.0943 11.7809C14.0943 8.52909 11.4326 4.74902 8.00004 4.74902ZM8.48164 12.6337C8.47742 12.6353 8.47304 12.6346 8.46883 12.636V13.1872C8.46883 13.4463 8.25914 13.656 8.00004 13.656C7.74095 13.656 7.53126 13.4463 7.53126 13.1872V12.6328C7.22223 12.5285 6.9262 12.3307 6.67336 12.0294C6.50673 11.8312 6.53236 11.5355 6.73104 11.3688C6.92882 11.2022 7.22454 11.2274 7.3912 11.426C8.31551 12.53 8.93945 10.8432 8.00008 10.8432C7.22458 10.8432 6.5937 10.2124 6.5937 9.43687C6.5937 8.8759 6.91486 8.34099 7.53129 8.12159V7.56168C7.53129 7.30255 7.74098 7.0929 8.00008 7.0929C8.2592 7.0929 8.46886 7.30259 8.46886 7.56168V8.12312C8.71158 8.2049 8.94823 8.33481 9.15923 8.53909C9.34511 8.71943 9.35061 9.01612 9.17023 9.20199C8.98989 9.38834 8.6932 9.39334 8.50733 9.21299C7.64495 8.37993 7.06248 9.90565 8.00011 9.90565C8.77561 9.90565 9.40648 10.5365 9.40648 11.312C9.40642 11.9008 9.03467 12.4323 8.48164 12.6337Z"
        fill="currentcolor"
      />
      <path
        d="M10.6735 0.377672C8.94302 -0.125891 7.05686 -0.125891 5.32636 0.377672C5.03599 0.461703 4.89736 0.798859 5.05352 1.0653L5.76258 2.33467C6.99552 1.84408 8.82427 1.77083 10.2371 2.33489L10.9463 1.0653C11.1025 0.798859 10.9639 0.461734 10.6735 0.377672Z"
        fill="currentcolor"
      />
      <path
        d="M10.1766 3.35635C9.29947 2.73841 6.72647 2.71263 5.81791 3.35922C5.42838 3.63419 5.221 4.06619 5.22503 4.51747C6.12522 4.0406 7.18072 3.81138 7.99997 3.81138C8.99781 3.81138 9.93253 4.07119 10.775 4.51747C10.7788 4.08269 10.5856 3.64478 10.1766 3.35635Z"
        fill="currentcolor"
      />
    </symbol>
    <symbol id="speaker" width="16" height="16" viewBox="0 0 16 16" fill="none">
      <g clip-path="url(#clip0_4_6320)">
        <path
          d="M12 7.99992C12 8.36659 12.3 8.66659 12.6667 8.66659H14C14.3667 8.66659 14.6667 8.36659 14.6667 7.99992C14.6667 7.63325 14.3667 7.33325 14 7.33325H12.6667C12.3 7.33325 12 7.63325 12 7.99992Z"
          fill="currentcolor"
        />
        <path
          d="M11.06 11.2133C10.84 11.5066 10.9 11.9133 11.1933 12.1266C11.5467 12.3866 11.92 12.6666 12.2733 12.9333C12.5667 13.1533 12.98 13.0933 13.1933 12.7999C13.1933 12.7933 13.2 12.7933 13.2 12.7866C13.42 12.4933 13.36 12.0799 13.0667 11.8666C12.7133 11.5999 12.34 11.3199 11.9933 11.0599C11.7 10.8399 11.2867 10.9066 11.0667 11.1999C11.0667 11.2066 11.06 11.2133 11.06 11.2133Z"
          fill="currentcolor"
        />
        <path
          d="M13.2066 3.20678C13.2066 3.20011 13.2 3.20011 13.2 3.19344C12.98 2.90011 12.5666 2.84011 12.28 3.06011C11.9266 3.32678 11.5466 3.60678 11.2 3.87344C10.9066 4.09344 10.8533 4.50678 11.0733 4.79344C11.0733 4.80011 11.08 4.80011 11.08 4.80678C11.3 5.10011 11.7066 5.16011 12 4.94011C12.3533 4.68011 12.7266 4.39344 13.08 4.12678C13.3666 3.91344 13.42 3.50011 13.2066 3.20678Z"
          fill="currentcolor"
        />
        <path
          d="M5.33337 6H2.66671C1.93337 6 1.33337 6.6 1.33337 7.33333V8.66667C1.33337 9.4 1.93337 10 2.66671 10H3.33337V12C3.33337 12.3667 3.63337 12.6667 4.00004 12.6667C4.36671 12.6667 4.66671 12.3667 4.66671 12V10H5.33337L8.66671 12V4L5.33337 6Z"
          fill="currentcolor"
        />
        <path
          d="M10.3334 7.99993C10.3334 7.11327 9.94671 6.31327 9.33337 5.7666V10.2266C9.94671 9.6866 10.3334 8.8866 10.3334 7.99993Z"
          fill="currentcolor"
        />
      </g>
      <defs>
        <clipPath id="clip0_4_6320">
          <rect width="16" height="16" fill="white" />
        </clipPath>
      </defs>
    </symbol>
    <symbol
      id="share"
      width="16"
      height="16"
      viewBox="0 0 24 24"
      fill="currentcolor"
      stroke="currentcolor"
      stroke-width="2"
      stroke-linecap="round"
      stroke-linejoin="round"
    >
      <circle cx="18" cy="5" r="3"></circle>
      <circle cx="6" cy="12" r="3"></circle>
      <circle cx="18" cy="19" r="3"></circle>
      <line x1="8.59" y1="13.51" x2="15.42" y2="17.49"></line>
      <line x1="15.41" y1="6.51" x2="8.59" y2="10.49"></line>
    </symbol>
    <symbol id="swap" width="16" height="16" viewBox="0 0 16 16" fill="none">
      <path
        d="M11.3334 0.666626L14 3.33329L11.3334 5.99996"
        stroke="currentcolor"
        stroke-width="1.2"
        stroke-linecap="round"
        stroke-linejoin="round"
      />
      <path
        d="M2 7.33337V6.00004C2 5.2928 2.28095 4.61452 2.78105 4.11442C3.28115 3.61433 3.95942 3.33337 4.66667 3.33337H14"
        stroke="currentcolor"
        stroke-width="1.2"
        stroke-linecap="round"
        stroke-linejoin="round"
      />
      <path
        d="M4.66667 15.3333L2 12.6667L4.66667 10"
        stroke="currentcolor"
        stroke-width="1.2"
        stroke-linecap="round"
        stroke-linejoin="round"
      />
      <path
        d="M14 8.66663V9.99996C14 10.7072 13.719 11.3855 13.219 11.8856C12.7189 12.3857 12.0406 12.6666 11.3333 12.6666H2"
        stroke="currentcolor"
        stroke-width="1.2"
        stroke-linecap="round"
        stroke-linejoin="round"
      />
    </symbol>
    <symbol id="copy" width="16" height="16" viewBox="0 0 16 16" fill="none">
      <g clip-path="url(#clip0_201_6228)">
        <path
          d="M10 13.3334H3.33333V4.66671C3.33333 4.30004 3.03333 4.00004 2.66667 4.00004C2.3 4.00004 2 4.30004 2 4.66671V13.3334C2 14.0667 2.6 14.6667 3.33333 14.6667H10C10.3667 14.6667 10.6667 14.3667 10.6667 14C10.6667 13.6334 10.3667 13.3334 10 13.3334ZM13.3333 10.6667V2.66671C13.3333 1.93337 12.7333 1.33337 12 1.33337H6C5.26667 1.33337 4.66667 1.93337 4.66667 2.66671V10.6667C4.66667 11.4 5.26667 12 6 12H12C12.7333 12 13.3333 11.4 13.3333 10.6667ZM12 10.6667H6V2.66671H12V10.6667Z"
          fill="currentcolor"
        />
      </g>
      <defs>
        <clipPath id="clip0_201_6228">
          <rect width="16" height="16" fill="white" />
        </clipPath>
      </defs>
    </symbol>
    <symbol id="open-link" width="16" height="16" viewBox="0 0 16 16" fill="none">
      <g clip-path="url(#clip0_201_6300)">
        <path
          d="M12 12.6667H4C3.63333 12.6667 3.33333 12.3667 3.33333 12V4C3.33333 3.63333 3.63333 3.33333 4 3.33333H7.33333C7.7 3.33333 8 3.03333 8 2.66667C8 2.3 7.7 2 7.33333 2H3.33333C2.59333 2 2 2.6 2 3.33333V12.6667C2 13.4 2.6 14 3.33333 14H12.6667C13.4 14 14 13.4 14 12.6667V8.66667C14 8.3 13.7 8 13.3333 8C12.9667 8 12.6667 8.3 12.6667 8.66667V12C12.6667 12.3667 12.3667 12.6667 12 12.6667ZM9.33333 2.66667C9.33333 3.03333 9.63333 3.33333 10 3.33333H11.7267L5.64 9.42C5.38 9.68 5.38 10.1 5.64 10.36C5.9 10.62 6.32 10.62 6.58 10.36L12.6667 4.27333V6C12.6667 6.36667 12.9667 6.66667 13.3333 6.66667C13.7 6.66667 14 6.36667 14 6V2.66667C14 2.3 13.7 2 13.3333 2H10C9.63333 2 9.33333 2.3 9.33333 2.66667Z"
          fill="#A9A9A9"
        />
      </g>
      <defs>
        <clipPath id="clip0_201_6300">
          <rect width="16" height="16" fill="white" />
        </clipPath>
      </defs>
    </symbol>
    <symbol id="star" width="16" height="16" viewBox="0 0 16 16" fill="none">
      <path
        d="M14.9555 6.87512L11.841 9.91112L12.5765 14.1991C12.6085 14.3866 12.5315 14.5761 12.3775 14.6881C12.2905 14.7516 12.187 14.7836 12.0835 14.7836C12.004 14.7836 11.924 14.7646 11.851 14.7261L7.99995 12.7016L4.14946 14.7256C3.98146 14.8146 3.77696 14.8001 3.62296 14.6876C3.46896 14.5756 3.39196 14.3861 3.42396 14.1986L4.15946 9.91062L1.04446 6.87512C0.908456 6.74212 0.858956 6.54312 0.917956 6.36262C0.976956 6.18212 1.13346 6.04962 1.32196 6.02212L5.62646 5.39712L7.55145 1.49612C7.71995 1.15462 8.27995 1.15462 8.44845 1.49612L10.3735 5.39712L14.678 6.02212C14.8665 6.04962 15.023 6.18162 15.082 6.36262C15.141 6.54362 15.0915 6.74162 14.9555 6.87512Z"
        fill="currentcolor"
      />
    </symbol>
    <symbol id="fullscreen" width="16" height="16" viewBox="0 0 16 16" fill="none">
      <path
        d="M5.33333 2H3.33333C2.97971 2 2.64057 2.14048 2.39052 2.39052C2.14048 2.64057 2 2.97971 2 3.33333V5.33333M14 5.33333V3.33333C14 2.97971 13.8595 2.64057 13.6095 2.39052C13.3594 2.14048 13.0203 2 12.6667 2H10.6667M10.6667 14H12.6667C13.0203 14 13.3594 13.8595 13.6095 13.6095C13.8595 13.3594 14 13.0203 14 12.6667V10.6667M2 10.6667V12.6667C2 13.0203 2.14048 13.3594 2.39052 13.6095C2.64057 13.8595 2.97971 14 3.33333 14H5.33333"
        stroke="#A9A9A9"
        stroke-width="1.5"
        stroke-linecap="round"
        stroke-linejoin="round"
      />
    </symbol>
    <symbol id="leaderboard" width="20" height="20" viewBox="0 0 20 20" fill="none">
      <g clip-path="url(#clip0_2028_35985)">
        <path
          d="M5.41675 17.5H2.50008C2.04175 17.5 1.66675 17.125 1.66675 16.6667V8.33333C1.66675 7.875 2.04175 7.5 2.50008 7.5H5.41675C5.87508 7.5 6.25008 7.875 6.25008 8.33333V16.6667C6.25008 17.125 5.87508 17.5 5.41675 17.5ZM11.4584 2.5H8.54175C8.08342 2.5 7.70842 2.875 7.70842 3.33333V16.6667C7.70842 17.125 8.08342 17.5 8.54175 17.5H11.4584C11.9167 17.5 12.2917 17.125 12.2917 16.6667V3.33333C12.2917 2.875 11.9167 2.5 11.4584 2.5ZM17.5001 9.16667H14.5834C14.1251 9.16667 13.7501 9.54167 13.7501 10V16.6667C13.7501 17.125 14.1251 17.5 14.5834 17.5H17.5001C17.9584 17.5 18.3334 17.125 18.3334 16.6667V10C18.3334 9.54167 17.9584 9.16667 17.5001 9.16667Z"
          fill="currentcolor"
        />
      </g>
    </symbol>
    <symbol id="chart" width="20" height="20" viewBox="0 0 20 20" fill="none">
      <g clipPath="url(#clip0_2028_6178)">
        <path
          d="M6.17648 9.41176H6.76473C7.08961 9.41176 7.35297 9.67512 7.35297 10L7.35297 14.7059C7.35297 15.0308 7.08961 15.2941 6.76473 15.2941H6.17648V15.8824C6.17648 16.2073 5.91313 16.4706 5.58824 16.4706C5.26336 16.4706 5 16.2073 5 15.8824V15.2941H4.41176C4.08687 15.2941 3.82352 15.0308 3.82352 14.7059L3.82352 10C3.82352 9.67512 4.08687 9.41176 4.41176 9.41176H5V8.82352C5 8.49863 5.26336 8.23527 5.58824 8.23527C5.91313 8.23527 6.17648 8.49863 6.17648 8.82352V9.41176ZM12.0588 7.05883H12.6471C12.972 7.05883 13.2353 7.32219 13.2353 7.64707V13.5294C13.2353 13.8543 12.972 14.1177 12.6471 14.1177H12.0588V14.7059C12.0588 15.0308 11.7955 15.2941 11.4706 15.2941C11.1457 15.2941 10.8823 15.0308 10.8823 14.7059V14.1177H10.2941C9.96922 14.1177 9.70586 13.8543 9.70586 13.5294V7.64707C9.70586 7.32219 9.96922 7.05883 10.2941 7.05883H10.8823V6.47059C10.8823 6.1457 11.1457 5.88234 11.4706 5.88234C11.7955 5.88234 12.0588 6.1457 12.0588 6.47059V7.05883ZM17.9412 2.35293L18.5294 2.35293C18.8543 2.35293 19.1177 2.61629 19.1177 2.94117L19.1177 11.1765C19.1177 11.5014 18.8543 11.7647 18.5294 11.7647H17.9412V12.353C17.9412 12.6779 17.6778 12.9412 17.3529 12.9412C17.028 12.9412 16.7647 12.6779 16.7647 12.353V11.7647L16.1764 11.7647C15.8516 11.7647 15.5882 11.5014 15.5882 11.1765L15.5882 2.94117C15.5882 2.61629 15.8516 2.35293 16.1764 2.35293H16.7647V1.76469C16.7647 1.4398 17.028 1.17645 17.3529 1.17645C17.6778 1.17645 17.9412 1.4398 17.9412 1.76469V2.35293ZM4.11766 18.8235V18.2353C4.11766 17.9104 4.38102 17.647 4.7059 17.647C5.03078 17.647 5.29414 17.9104 5.29414 18.2353V18.8235H10V18.2353C10 17.9104 10.2634 17.647 10.5882 17.647C10.9131 17.647 11.1765 17.9104 11.1765 18.2353V18.8235H15.8824V18.2353C15.8824 17.9104 16.1457 17.647 16.4706 17.647C16.7955 17.647 17.0589 17.9104 17.0589 18.2353V18.8235H19.4118C19.7367 18.8235 20 19.0869 20 19.4118C20 19.7366 19.7367 20 19.4118 20L1.17648 20C0.526719 20 0 19.4733 0 18.8235L0 0.588242C0 0.263359 0.263359 0 0.588242 0C0.913125 0 1.17648 0.263359 1.17648 0.588242L1.17648 2.94117L1.76473 2.94117C2.08961 2.94117 2.35297 3.20453 2.35297 3.52941C2.35297 3.8543 2.08961 4.11766 1.76473 4.11766H1.17648L1.17648 8.82355H1.76473C2.08961 8.82355 2.35297 9.08691 2.35297 9.4118C2.35297 9.73668 2.08957 10 1.76469 10H1.17648L1.17648 14.7059H1.76473C2.08961 14.7059 2.35297 14.9693 2.35297 15.2941C2.35297 15.619 2.08961 15.8824 1.76473 15.8824H1.17648L1.17648 18.8236H4.11766V18.8235Z"
          fill="currentcolor"
        />
      </g>
    </symbol>
    <symbol id="liquid" width="16" height="16" viewBox="0 0 16 16" fill="none">
      <g clipPath="url(#clip0_2500_18502)">
        <path
          d="M8.43996 1.71999C8.18663 1.49999 7.80663 1.49999 7.55329 1.71999C4.29996 4.58666 2.66663 7.07999 2.66663 9.19999C2.66663 12.52 5.19996 14.6667 7.99996 14.6667C10.8 14.6667 13.3333 12.52 13.3333 9.19999C13.3333 7.07999 11.7 4.58666 8.43996 1.71999ZM5.21996 9.33333C5.46663 9.33333 5.66663 9.50666 5.71329 9.74666C5.98663 11.2267 7.23329 11.7333 8.13996 11.66C8.42663 11.6467 8.66663 11.8733 8.66663 12.16C8.66663 12.4267 8.45329 12.6467 8.18663 12.66C6.76663 12.7467 5.10663 11.9333 4.72663 9.91333C4.67329 9.61333 4.91329 9.33333 5.21996 9.33333Z"
          fill="currentcolor"
        />
      </g>
    </symbol>
    <symbol id="alarm" width="24" height="24" viewBox="0 0 24 24" fill="none">
      <g clipPath="url(#clip0_18_84831)">
        <path
          d="M15.8702 15.2501L12.5002 13.2501V8.72014C12.5002 8.32014 12.1802 8.00014 11.7802 8.00014H11.7203C11.3203 8.00014 11.0002 8.32014 11.0002 8.72014V13.4401C11.0002 13.7901 11.1802 14.1201 11.4902 14.3001L15.1403 16.4901C15.4803 16.6901 15.9203 16.5901 16.1203 16.2501C16.3303 15.9001 16.2203 15.4501 15.8702 15.2501ZM21.1803 5.01014L18.1003 2.45014C17.6803 2.10014 17.0503 2.15014 16.6903 2.58014C16.3403 3.00014 16.4002 3.63014 16.8202 3.99014L19.8902 6.55014C20.3102 6.90014 20.9402 6.85014 21.3002 6.42014C21.6602 6.00014 21.6003 5.37014 21.1803 5.01014ZM4.10025 6.55014L7.17025 3.99014C7.60025 3.63014 7.66025 3.00014 7.30025 2.58014C6.95025 2.15014 6.32025 2.10014 5.90025 2.45014L2.82025 5.01014C2.40025 5.37014 2.34025 6.00014 2.70025 6.42014C3.05025 6.85014 3.68025 6.90014 4.10025 6.55014ZM12.0002 4.00014C7.03025 4.00014 3.00025 8.03014 3.00025 13.0001C3.00025 17.9701 7.03025 22.0001 12.0002 22.0001C16.9702 22.0001 21.0002 17.9701 21.0002 13.0001C21.0002 8.03014 16.9702 4.00014 12.0002 4.00014ZM12.0002 20.0001C8.14025 20.0001 5.00025 16.8601 5.00025 13.0001C5.00025 9.14014 8.14025 6.00014 12.0002 6.00014C15.8602 6.00014 19.0002 9.14014 19.0002 13.0001C19.0002 16.8601 15.8602 20.0001 12.0002 20.0001Z"
          fill="currentcolor"
        />
      </g>
      <defs>
        <clipPath id="clip0_18_84831">
          <rect width="24" height="24" fill="white" />
        </clipPath>
      </defs>
    </symbol>
    <symbol id="on-chain" width="16" height="16" viewBox="0 0 16 16" fill="none">
      <g clipPath="url(#clip0_2524_9050)">
        <path
          d="M8.64667 1.69344C8.24667 1.46677 7.75333 1.46677 7.35333 1.69344L2.68667 4.28677L6.06667 6.1601C6.55333 5.65344 7.24 5.33344 8 5.33344C8.76 5.33344 9.44667 5.65344 9.93333 6.1601L13.3133 4.2801L8.64667 1.69344ZM6.66667 8.0001C6.66667 7.26677 7.26667 6.66677 8 6.66677C8.73333 6.66677 9.33333 7.26677 9.33333 8.0001C9.33333 8.73344 8.73333 9.33344 8 9.33344C7.26667 9.33344 6.66667 8.73344 6.66667 8.0001ZM2 5.42677L5.42 7.32677C5.36 7.5401 5.33333 7.76677 5.33333 8.0001C5.33333 9.2401 6.18 10.2868 7.33333 10.5801V14.2934L2.68667 11.7134C2.26 11.4801 2 11.0334 2 10.5468V5.42677ZM8.66667 14.2934V10.5801C9.82 10.2868 10.6667 9.2401 10.6667 8.0001C10.6667 7.76677 10.64 7.5401 10.58 7.32677L14 5.42677V10.5468C14 11.0334 13.74 11.4801 13.3133 11.7134L8.66667 14.2934Z"
          fill="currentcolor"
        />
      </g>
      <defs>
        <clipPath id="clip0_2524_9050">
          <rect width="16" height="16" fill="white" />
        </clipPath>
      </defs>
    </symbol>
    <symbol
      id="technical-analysis"
      width="16"
      height="16"
      viewBox="0 0 16 16"
      fill="none"
      xmlns="http://www.w3.org/2000/svg"
    >
      <g>
        <path
          d="M14.6666 7.99992C14.6666 4.31992 11.6799 1.33325 7.99992 1.33325C4.31992 1.33325 1.33325 4.31992 1.33325 7.99992C1.33325 8.88659 1.50659 9.73992 1.82659 10.5133L4.89992 7.43325C5.14659 7.18659 5.53325 7.17325 5.79992 7.39325L7.53325 8.85325L9.71992 6.66659H9.33325C8.96659 6.66659 8.66659 6.36659 8.66659 5.99992C8.66659 5.63325 8.96659 5.33325 9.33325 5.33325H11.3333C11.6999 5.33325 11.9999 5.63325 11.9999 5.99992V7.99992C11.9999 8.36659 11.6999 8.66659 11.3333 8.66659C10.9666 8.66659 10.6666 8.36659 10.6666 7.99992V7.61325L8.03992 10.2333C7.79325 10.4799 7.39992 10.4933 7.13992 10.2666L5.41325 8.80659L2.47992 11.7399C3.67992 13.5066 5.70659 14.6666 7.99992 14.6666H13.3333C14.0666 14.6666 14.6666 14.0666 14.6666 13.3333V7.99992ZM12.9999 13.6666C12.6333 13.6666 12.3333 13.3666 12.3333 12.9999C12.3333 12.6333 12.6333 12.3333 12.9999 12.3333C13.3666 12.3333 13.6666 12.6333 13.6666 12.9999C13.6666 13.3666 13.3666 13.6666 12.9999 13.6666Z"
          fill="currentcolor"
        />
      </g>
    </symbol>
    <symbol id="news" width="16" height="16" viewBox="0 0 16 16" fill="none">
      <g>
        <path
          d="M14.1 2.56665L13.5534 3.11332L12.92 2.47332C12.66 2.21332 12.24 2.21332 11.9734 2.47332L11.3334 3.11332L10.6934 2.47332C10.4334 2.21332 10.0067 2.21332 9.74671 2.47332L9.11337 3.11332L8.47337 2.47332C8.21337 2.21332 7.79337 2.21332 7.53337 2.47332L6.89337 3.11332L6.25337 2.47332C5.99337 2.21332 5.57337 2.21332 5.30671 2.47332L4.66671 3.11332L4.02671 2.47332C3.76671 2.21332 3.34004 2.21332 3.08004 2.47332L2.44671 3.11332L1.90004 2.56665C1.69337 2.35999 1.33337 2.50665 1.33337 2.80665V12.6667C1.33337 13.4 1.93337 14 2.66671 14H13.3334C14.0667 14 14.6667 13.4 14.6667 12.6667V2.80665C14.6667 2.50665 14.3067 2.35999 14.1 2.56665ZM7.33337 12.6667H2.66671V8.66665H7.33337V12.6667ZM13.3334 12.6667H8.66671V11.3333H13.3334V12.6667ZM13.3334 9.99999H8.66671V8.66665H13.3334V9.99999ZM13.3334 7.33332H2.66671V5.33332H13.3334V7.33332Z"
          fill="currentcolor"
        />
      </g>
    </symbol>
    <symbol id="search" width="24" height="24" viewBox="0 0 24 24" fill="none">
      <g>
        <path
          d="M15.5 14H14.71L14.43 13.73C15.63 12.33 16.25 10.42 15.91 8.39002C15.44 5.61002 13.12 3.39002 10.32 3.05002C6.09001 2.53002 2.53002 6.09001 3.05002 10.32C3.39002 13.12 5.61002 15.44 8.39002 15.91C10.42 16.25 12.33 15.63 13.73 14.43L14 14.71V15.5L18.25 19.75C18.66 20.16 19.33 20.16 19.74 19.75C20.15 19.34 20.15 18.67 19.74 18.26L15.5 14ZM9.50002 14C7.01002 14 5.00002 11.99 5.00002 9.50002C5.00002 7.01002 7.01002 5.00002 9.50002 5.00002C11.99 5.00002 14 7.01002 14 9.50002C14 11.99 11.99 14 9.50002 14Z"
          fill="currentcolor"
        />
      </g>
    </symbol>
    <symbol id="eth-mono" width="12" height="12" viewBox="0 0 32 32" fill="none">
      <g fill="none" fill-rule="evenodd">
        <circle cx="16" cy="16" r="16" fill="#627EEA" />
        <g fill="#FFF" fill-rule="nonzero">
          <path fill-opacity=".602" d="M16.498 4v8.87l7.497 3.35z" />
          <path d="M16.498 4L9 16.22l7.498-3.35z" />
          <path fill-opacity=".602" d="M16.498 21.968v6.027L24 17.616z" />
          <path d="M16.498 27.995v-6.028L9 17.616z" />
          <path fill-opacity=".2" d="M16.498 20.573l7.497-4.353-7.497-3.348z" />
          <path fill-opacity=".602" d="M9 16.22l7.498 4.353v-7.701z" />
        </g>
      </g>
    </symbol>
    <symbol id="bnb-mono" width="12" height="12" viewBox="0 0 20 20" fill="none">
      <path
        d="M11.9213 16.6097V18.8507L9.97226 20L8.08059 18.8507V16.6097L9.97226 17.7589L11.9213 16.6097ZM1.48655 8.85027L3.37822 9.99954V13.8505L6.64658 15.8043V18.0453L1.48655 14.9998V8.85027ZM18.4571 8.85027V14.9998L13.2397 18.0453V15.8043L16.5081 13.8505V9.99954L18.4571 8.85027ZM13.2397 5.80472L15.1887 6.95398V9.19505L11.9203 11.1488V15.0572L10.0287 16.2065L8.13699 15.0572V11.1488L4.75398 9.19505V6.95398L6.70298 5.80472L9.97134 7.75847L13.2397 5.80472ZM4.75491 10.8049L6.64658 11.9542V14.1953L4.75491 13.046V10.8049ZM15.1896 10.8049V13.046L13.2979 14.1953V11.9542L15.1896 10.8049ZM3.37822 3.85097L5.32722 5.00023L3.37822 6.1495V8.39056L1.48655 7.2413V5.00023L3.37822 3.85097ZM16.5645 3.85097L18.5135 5.00023V7.2413L16.5645 8.39056V6.1495L14.6728 5.00023L16.5645 3.85097ZM9.97134 3.85097L11.9203 5.00023L9.97134 6.1495L8.07967 5.00023L9.97134 3.85097ZM9.97134 0L15.1887 3.04555L13.297 4.19482L10.0287 2.24107L6.70298 4.19482L4.81131 3.04555L9.97134 0Z"
        fill="#F3BA2F"
      />
    </symbol>
    <symbol id="ava-mono" width="12" height="12" viewBox="0 0 1503 1504" fill="none">
      <rect x="287" y="258" width="928" height="844" fill="white" />
      <path
        fill-rule="evenodd"
        clip-rule="evenodd"
        d="M1502.5 752C1502.5 1166.77 1166.27 1503 751.5 1503C336.734 1503 0.5 1166.77 0.5 752C0.5 337.234 336.734 1 751.5 1C1166.27 1 1502.5 337.234 1502.5 752ZM538.688 1050.86H392.94C362.314 1050.86 347.186 1050.86 337.962 1044.96C327.999 1038.5 321.911 1027.8 321.173 1015.99C320.619 1005.11 328.184 991.822 343.312 965.255L703.182 330.935C718.495 303.999 726.243 290.531 736.021 285.55C746.537 280.2 759.083 280.2 769.599 285.55C779.377 290.531 787.126 303.999 802.438 330.935L876.42 460.079L876.797 460.738C893.336 489.635 901.723 504.289 905.385 519.669C909.443 536.458 909.443 554.169 905.385 570.958C901.695 586.455 893.393 601.215 876.604 630.549L687.573 964.702L687.084 965.558C670.436 994.693 661.999 1009.46 650.306 1020.6C637.576 1032.78 622.263 1041.63 605.474 1046.62C590.161 1050.86 573.004 1050.86 538.688 1050.86ZM906.75 1050.86H1115.59C1146.4 1050.86 1161.9 1050.86 1171.13 1044.78C1181.09 1038.32 1187.36 1027.43 1187.92 1015.63C1188.45 1005.1 1181.05 992.33 1166.55 967.307C1166.05 966.455 1165.55 965.588 1165.04 964.706L1060.43 785.75L1059.24 783.735C1044.54 758.877 1037.12 746.324 1027.59 741.472C1017.08 736.121 1004.71 736.121 994.199 741.472C984.605 746.453 976.857 759.552 961.544 785.934L857.306 964.891L856.949 965.507C841.69 991.847 834.064 1005.01 834.614 1015.81C835.352 1027.62 841.44 1038.5 851.402 1044.96C860.443 1050.86 875.94 1050.86 906.75 1050.86Z"
        fill="#E84142"
      />
    </symbol>
    <symbol id="matic-mono" xmlns="http://www.w3.org/2000/svg" width="20" height="20" viewBox="0 0 20 20" fill="none">
      <g>
        <path
          d="M10 20C15.5228 20 20 15.5228 20 10C20 4.47715 15.5228 0 10 0C4.47715 0 0 4.47715 0 10C0 15.5228 4.47715 20 10 20Z"
          fill="white"
        />
        <path
          d="M12.8277 12.0406L15.5975 10.4947C15.7454 10.4135 15.8333 10.2589 15.8333 10.0966V7.00483C15.8333 6.84251 15.7414 6.68792 15.5975 6.60676L12.8277 5.06087C12.6799 4.97971 12.5 4.97971 12.3521 5.06087L9.58234 6.60676C9.43445 6.68792 9.34652 6.84251 9.34652 7.00483V12.5314L7.40408 13.6135L5.46163 12.5314V10.3633L7.40408 9.28116L8.68705 9.99613V8.543L7.64389 7.95942C7.57194 7.92077 7.48801 7.89758 7.40808 7.89758C7.32814 7.89758 7.24421 7.91691 7.17226 7.95942L4.40248 9.50531C4.2546 9.58647 4.16667 9.74106 4.16667 9.90338V12.9952C4.16667 13.1575 4.25859 13.3121 4.40248 13.3932L7.17226 14.9391C7.32014 15.0203 7.5 15.0203 7.64788 14.9391L10.4177 13.3932C10.5655 13.3121 10.6535 13.1575 10.6535 12.9952V7.4686L10.6895 7.44928L12.5959 6.38647L14.5384 7.4686V9.63671L12.5959 10.7227L11.3169 10.0077V11.4609L12.3601 12.0406C12.508 12.1217 12.6879 12.1217 12.8357 12.0406H12.8277Z"
          fill="#94469B"
        />
      </g>
    </symbol>
    <symbol id="fantom-mono" width="12" height="12" viewBox="0 0 1024 1024" fill="none">
      <g id="circle" stroke="none" stroke-width="1" fill="none" fill-rule="evenodd">
        <g id="Fantom-circle">
          <circle id="Oval" fill="#1969FF" cx="512" cy="512" r="512" />
          <path
            d="M480.952632,162.820404 C498.202214,153.726532 524.449007,153.726532 541.698589,162.820404 L717.715301,255.615438 C728.104233,261.091936 733.809736,269.25319 734.831811,277.678216 L735,277.678216 L735,744.110155 C734.770819,753.300673 729.011717,762.429399 717.715301,768.384559 L541.698589,861.179741 C524.449007,870.27342 498.202214,870.27342 480.952632,861.179741 L304.936382,768.384559 C293.687466,762.4543 288.288954,753.261937 288.021607,744.110155 C287.994161,743.171274 287.991758,742.397481 288.020775,741.760186 L288.021607,280.818578 C287.995362,280.170216 287.995085,279.52462 288.02096,278.881791 L288.021607,277.678216 L288.100249,277.678216 C288.882053,269.16004 294.328618,261.207221 304.936382,255.615438 L480.952632,162.820404 Z M707,537 L541.644818,624.459967 C524.420262,633.571112 498.21155,633.571112 480.986994,624.459967 L316,537.194955 L316,742.669239 L480.986994,829.471349 C490.737056,834.688013 500.874684,839.770703 510.746553,839.992453 L511.315906,840 C521.168396,840.032183 530.733903,835.022485 540.433212,830.279812 L707,741.920834 L707,537 Z M260.423841,734 C260.423841,751.880605 262.483542,763.633063 266.573125,771.912197 C269.962755,778.774873 275.048664,784.019001 284.335203,790.400911 L284.865291,790.762639 C286.903313,792.149569 289.148339,793.602016 291.881192,795.308227 L295.103883,797.299574 L305,803.325293 L290.80629,827 L279.729986,820.250826 L277.868233,819.097358 C274.665666,817.102319 272.011205,815.389649 269.535301,813.704662 C243.068452,795.702251 233.197716,776.074834 233.002947,735.2439 L233,734 L260.423841,734 Z M498,413 C496.719282,413.440417 495.51884,413.951152 494.424509,414.530355 L318.676529,507.623888 C318.49208,507.721039 318.316212,507.818189 318.148833,507.91349 L318,507.999537 L318.275982,508.15868 L318.676529,508.376112 L494.424509,601.469645 C495.51884,602.048848 496.719282,602.559583 498,603 L498,413 Z M526,413 L526,603 C527.281635,602.559583 528.482071,602.048848 529.576397,601.469645 L705.322736,508.376112 C705.507277,508.278961 705.683513,508.181811 705.850522,508.08651 L706,507.999537 L705.724112,507.84132 L705.322736,507.623888 L529.576397,414.530355 C528.482071,413.951152 527.281635,413.440417 526,413 Z M707,311 L549,394 L707,477 L707,311 Z M316,311 L316,477 L474,394 L316,311 Z M529.422488,187.627114 C520.27514,182.790962 503.724952,182.790962 494.577605,187.627114 L318.677116,280.623711 C318.492507,280.721685 318.316486,280.817811 318.148962,280.913937 L318,280.999896 L318.276221,281.157949 L318.677116,281.376081 L494.577605,374.3724 C503.724952,379.2092 520.27514,379.2092 529.422488,374.3724 L705.322145,281.376081 C705.506847,281.278107 705.683237,281.181981 705.850392,281.086779 L706,280.999896 L705.723871,280.841843 L705.322145,280.623711 L529.422488,187.627114 Z M733.193821,197 L744.270251,203.749273 L746.131721,204.902466 C749.33418,206.896953 751.988718,208.610547 754.464885,210.294705 C780.931599,228.297503 790.802419,247.925124 790.997256,288.756099 L791,290 L763.576481,290 C763.576481,272.118455 761.516516,260.366907 757.426771,252.086842 C754.037707,245.224806 748.951824,239.980488 739.665515,233.599218 L739.134973,233.236751 C737.096961,231.850558 734.852221,230.398109 732.119016,228.691528 L728.896433,226.700086 L719,220.674731 L733.193821,197 Z"
            id="Shape"
            fill="#FFFFFF"
            fill-rule="nonzero"
          />
        </g>
      </g>
    </symbol>
    <symbol id="arbitrum-mono" width="12" height="12" viewBox="0 0 470.287 514.251">
      <path
        fill="#2D374B"
        d="M291.134,237.469l35.654-60.5l96.103,149.684l0.046,28.727l-0.313-197.672     c-0.228-4.832-2.794-9.252-6.887-11.859L242.715,46.324c-4.045-1.99-9.18-1.967-13.22,0.063c-0.546,0.272-1.06,0.57-1.548,0.895     l-0.604,0.379L59.399,144.983l-0.651,0.296c-0.838,0.385-1.686,0.875-2.48,1.444c-3.185,2.283-5.299,5.66-5.983,9.448     c-0.103,0.574-0.179,1.158-0.214,1.749l0.264,161.083l89.515-138.745c11.271-18.397,35.825-24.323,58.62-24.001l26.753,0.706     L67.588,409.765l18.582,10.697L245.692,157.22l70.51-0.256L157.091,426.849l66.306,38.138l7.922,4.556     c3.351,1.362,7.302,1.431,10.681,0.21l175.453-101.678l-33.544,19.438L291.134,237.469z M304.736,433.395l-66.969-105.108     l40.881-69.371l87.952,138.628L304.736,433.395z"
      />
      <polygon fill="#28A0F0" points="237.768,328.286 304.736,433.395 366.601,397.543 278.648,258.915    " />
      <path
        fill="#28A0F0"
        d="M422.937,355.379l-0.046-28.727l-96.103-149.684l-35.654,60.5l92.774,150.043l33.544-19.438     c3.29-2.673,5.281-6.594,5.49-10.825L422.937,355.379z"
      />
      <path
        fill="#FFFFFF"
        d="M20.219,382.469l47.369,27.296l157.634-252.801l-26.753-0.706c-22.795-0.322-47.35,5.604-58.62,24.001     L50.334,319.004l-30.115,46.271V382.469z"
      />
      <polygon
        fill="#FFFFFF"
        points="316.202,156.964 245.692,157.22 86.17,420.462 141.928,452.565 157.091,426.849    "
      />
      <path
        fill="#96BEDC"
        d="M452.65,156.601c-0.59-14.746-8.574-28.245-21.08-36.104L256.28,19.692     c-12.371-6.229-27.825-6.237-40.218-0.004c-1.465,0.739-170.465,98.752-170.465,98.752c-2.339,1.122-4.592,2.458-6.711,3.975     c-11.164,8.001-17.969,20.435-18.668,34.095v208.765l30.115-46.271L50.07,157.921c0.035-0.589,0.109-1.169,0.214-1.741     c0.681-3.79,2.797-7.171,5.983-9.456c0.795-0.569,172.682-100.064,173.228-100.337c4.04-2.029,9.175-2.053,13.22-0.063     l173.022,99.523c4.093,2.607,6.659,7.027,6.887,11.859v199.542c-0.209,4.231-1.882,8.152-5.172,10.825l-33.544,19.438     l-17.308,10.031l-61.864,35.852l-62.737,36.357c-3.379,1.221-7.33,1.152-10.681-0.21l-74.228-42.693l-15.163,25.717     l66.706,38.406c2.206,1.255,4.171,2.367,5.784,3.272c2.497,1.4,4.199,2.337,4.8,2.629c4.741,2.303,11.563,3.643,17.71,3.643     c5.636,0,11.132-1.035,16.332-3.072l182.225-105.531c10.459-8.104,16.612-20.325,17.166-33.564V156.601z"
      />
    </symbol>
    <symbol id="optimism-mono" width="12" height="12" viewBox="0 0 500 500" fill="none">
      <circle cx="250" cy="250" r="250" fill="#FF0420" />
      <path
        d="M177.133 316.446C162.247 316.446 150.051 312.943 140.544 305.938C131.162 298.808 126.471 288.676 126.471 275.541C126.471 272.789 126.784 269.411 127.409 265.408C129.036 256.402 131.35 245.581 134.352 232.947C142.858 198.547 164.812 181.347 200.213 181.347C209.845 181.347 218.476 182.973 226.107 186.225C233.738 189.352 239.742 194.106 244.12 200.486C248.498 206.74 250.688 214.246 250.688 223.002C250.688 225.629 250.375 228.944 249.749 232.947C247.873 244.08 245.621 254.901 242.994 265.408C238.616 282.546 231.048 295.368 220.29 303.874C209.532 312.255 195.147 316.446 177.133 316.446ZM179.76 289.426C186.766 289.426 192.707 287.362 197.586 283.234C202.59 279.106 206.155 272.789 208.281 264.283C211.158 252.524 213.348 242.266 214.849 233.51C215.349 230.883 215.599 228.194 215.599 225.441C215.599 214.058 209.657 208.366 197.774 208.366C190.768 208.366 184.764 210.43 179.76 214.558C174.882 218.687 171.379 225.004 169.253 233.51C167.001 241.891 164.749 252.149 162.498 264.283C161.997 266.784 161.747 269.411 161.747 272.163C161.747 283.672 167.752 289.426 179.76 289.426Z"
        fill="white"
      />
      <path
        d="M259.303 314.57C257.927 314.57 256.863 314.132 256.113 313.256C255.487 312.255 255.3 311.13 255.55 309.879L281.444 187.914C281.694 186.538 282.382 185.412 283.508 184.536C284.634 183.661 285.822 183.223 287.073 183.223H336.985C350.87 183.223 362.003 186.1 370.384 191.854C378.891 197.609 383.144 205.927 383.144 216.81C383.144 219.937 382.769 223.19 382.018 226.567C378.891 240.953 372.574 251.586 363.067 258.466C353.685 265.346 340.8 268.786 324.413 268.786H299.082L290.451 309.879C290.2 311.255 289.512 312.38 288.387 313.256C287.261 314.132 286.072 314.57 284.822 314.57H259.303ZM325.727 242.892C330.98 242.892 335.546 241.453 339.424 238.576C343.427 235.699 346.054 231.571 347.305 226.192C347.68 224.065 347.868 222.189 347.868 220.563C347.868 216.935 346.805 214.183 344.678 212.307C342.551 210.305 338.924 209.305 333.795 209.305H311.278L304.148 242.892H325.727Z"
        fill="white"
      />
    </symbol>
    <symbol id="arrow" width="16" height="16" viewBox="0 0 16 16" fill="none">
      <g>
        <path
          d="M4.91991 14.0062C5.24658 14.3329 5.77325 14.3329 6.09991 14.0062L11.6399 8.46621C11.8999 8.20621 11.8999 7.78621 11.6399 7.52621L6.09991 1.98621C5.77325 1.65954 5.24658 1.65954 4.91991 1.98621C4.59325 2.31288 4.59325 2.83954 4.91991 3.16621L9.74658 7.99954L4.91325 12.8329C4.59325 13.1529 4.59325 13.6862 4.91991 14.0062Z"
          fill="currentcolor"
        />
      </g>
    </symbol>
    <symbol id="lightbulb" width="16" height="16" viewBox="0 0 16 16" fill="none">
      <g>
        <path
          d="M5.99992 14.0002C5.99992 14.3668 6.29992 14.6668 6.66659 14.6668L9.33325 14.6668C9.69992 14.6668 9.99992 14.3668 9.99992 14.0002V13.3335L5.99992 13.3335V14.0002ZM7.99992 1.3335C5.42659 1.3335 3.33325 3.42683 3.33325 6.00016C3.33325 7.58683 4.12659 8.98016 5.33325 9.82683V11.3335C5.33325 11.7002 5.63325 12.0002 5.99992 12.0002L9.99992 12.0002C10.3666 12.0002 10.6666 11.7002 10.6666 11.3335V9.82683C11.8733 8.98016 12.6666 7.58683 12.6666 6.00016C12.6666 3.42683 10.5733 1.3335 7.99992 1.3335ZM9.89992 8.7335L9.33325 9.1335L9.33325 10.6668L6.66659 10.6668V9.1335L6.09992 8.7335C5.19992 8.10683 4.66659 7.08683 4.66659 6.00016C4.66659 4.16016 6.15992 2.66683 7.99992 2.66683C9.83992 2.66683 11.3333 4.16016 11.3333 6.00016C11.3333 7.08683 10.7999 8.10683 9.89992 8.7335Z"
          fill="currentcolor"
        />
      </g>
    </symbol>
    <symbol id="info" width="16" height="16" viewBox="0 0 16 16" fill="none">
      <g>
        <path
          d="M7.99992 1.33337C4.31992 1.33337 1.33325 4.32004 1.33325 8.00004C1.33325 11.68 4.31992 14.6667 7.99992 14.6667C11.6799 14.6667 14.6666 11.68 14.6666 8.00004C14.6666 4.32004 11.6799 1.33337 7.99992 1.33337ZM7.99992 11.3334C7.63325 11.3334 7.33325 11.0334 7.33325 10.6667V8.00004C7.33325 7.63337 7.63325 7.33337 7.99992 7.33337C8.36659 7.33337 8.66659 7.63337 8.66659 8.00004V10.6667C8.66659 11.0334 8.36659 11.3334 7.99992 11.3334ZM8.66659 6.00004H7.33325V4.66671H8.66659V6.00004Z"
          fill="currentcolor"
        />
      </g>
    </symbol>
    <symbol id="timer" width="24" height="24" viewBox="0 0 24 24" fill="none">
      <g clip-path="url(#clip0_4025_2445138)">
        <path
          d="M11.99 2C6.47 2 2 6.48 2 12C2 17.52 6.47 22 11.99 22C17.52 22 22 17.52 22 12C22 6.48 17.52 2 11.99 2ZM12 20C7.58 20 4 16.42 4 12C4 7.58 7.58 4 12 4C16.42 4 20 7.58 20 12C20 16.42 16.42 20 12 20ZM11.78 7H11.72C11.32 7 11 7.32 11 7.72V12.44C11 12.79 11.18 13.12 11.49 13.3L15.64 15.79C15.98 15.99 16.42 15.89 16.62 15.55C16.83 15.21 16.72 14.76 16.37 14.56L12.5 12.26V7.72C12.5 7.32 12.18 7 11.78 7Z"
          fill="currentcolor"
        />
      </g>
    </symbol>
    <symbol id="check" width="8" height="8" viewBox="0 0 8 8" fill="none" xmlns="http://www.w3.org/2000/svg">
      <path
        d="M6.66658 2L2.99992 5.66667L1.33325 4"
        stroke="currentcolor"
        strokeLinecap="round"
        strokeLinejoin="round"
      />
    </symbol>
    <symbol id="telegram" width="20" height="20" viewBox="0 0 20 20" fill="none">
      <path
        d="M16.46 17.7263C16.46 17.7302 15.8871 19.2302 14.3543 18.5271C13.521 18.1443 8.33129 13.7029 7.17057 12.7732C9.43248 10.6404 11.6907 8.50366 13.9526 6.37085L5.46298 12.0232C4.07534 11.531 2.68396 11.0466 1.29632 10.5505C0.0574797 10.1326 -0.0838892 8.68726 1.30004 8.13648L17.4161 1.50366C17.5723 1.43335 19.3655 0.718509 19.3655 2.39429L16.46 17.7263ZM15.6043 17.3904L18.4503 2.32007C18.4019 2.09741 17.7659 2.38648 17.7621 2.38648L1.61254 9.03882C1.10658 9.2146 1.09542 9.4646 1.59766 9.6521L5.34022 10.9724L15.4146 4.25757C15.7569 4.03882 16.274 3.88257 16.5717 4.26148C16.873 4.64429 16.6199 5.11304 16.326 5.4021C16.0359 5.68726 10.3365 11.0662 8.59543 12.7107L14.7673 17.6677C15.3067 17.8904 15.5448 17.5115 15.6043 17.3904Z"
        fill="currentcolor"
      />
    </symbol>
    <symbol id="twitter" width="20" height="20" viewBox="0 0 20 20" fill="none">
      <path
        d="M17.6665 7.79387C17.6665 7.49471 17.424 7.2522 17.1248 7.2522C16.8256 7.2522 16.5831 7.49471 16.5831 7.79387H17.6665ZM2.93648 13.944C2.75952 13.7028 2.42053 13.6507 2.17933 13.8277C1.93814 14.0047 1.88607 14.3437 2.06304 14.5849L2.93648 13.944ZM2.40813 13.7307C2.11329 13.7814 1.91529 14.0614 1.9659 14.3562C2.0165 14.6511 2.29655 14.8491 2.59139 14.7985L2.40813 13.7307ZM4.93726 13.4558L5.10866 13.9696C5.28643 13.9103 5.42092 13.7633 5.46425 13.581C5.50758 13.3987 5.45359 13.2069 5.3215 13.074L4.93726 13.4558ZM4.12476 3.74992L4.60136 3.49252C4.51268 3.32832 4.34572 3.22133 4.15948 3.20937C3.97325 3.1974 3.79398 3.28215 3.68501 3.43365L4.12476 3.74992ZM8.99976 7.79404L8.87239 8.32051C9.03074 8.35883 9.19792 8.32383 9.32761 8.22522C9.4573 8.1266 9.53572 7.97486 9.54113 7.81203L8.99976 7.79404ZM16.3123 5.36757L15.8607 5.66662C15.961 5.81812 16.1306 5.90923 16.3123 5.90923V5.36757ZM18.7498 5.36757L19.1999 5.66897C19.3111 5.50282 19.3218 5.28888 19.2276 5.11248C19.1335 4.93607 18.9498 4.8259 18.7498 4.8259V5.36757ZM16.6747 7.49263C16.5083 7.74119 16.5748 8.07764 16.8234 8.2441C17.072 8.41056 17.4084 8.34401 17.5749 8.09544L16.6747 7.49263ZM16.5831 7.79387C16.5831 10.5244 15.7999 12.8126 14.3835 14.4107C12.9743 16.0005 10.8942 16.9581 8.18726 16.9581V18.0414C11.1679 18.0414 13.5566 16.9769 15.1942 15.1292C16.8247 13.2898 17.6665 10.725 17.6665 7.79387H16.5831ZM8.18726 16.9581C6.66613 16.9581 5.63853 16.5661 4.86224 16.0192C4.06955 15.4609 3.50641 14.7208 2.93648 13.944L2.06304 14.5849C2.62791 15.3547 3.28351 16.2323 4.23837 16.9049C5.20964 17.5891 6.45839 18.0414 8.18726 18.0414V16.9581ZM2.59139 14.7985C2.6085 14.7955 2.62176 14.7924 2.62636 14.7913C2.63262 14.7898 2.6377 14.7884 2.64077 14.7876C2.64692 14.786 2.65197 14.7845 2.65468 14.7837C2.66043 14.782 2.66581 14.7804 2.66956 14.7792C2.67752 14.7768 2.68709 14.7737 2.69718 14.7705C2.71777 14.7639 2.74618 14.7546 2.78066 14.7433C2.8499 14.7206 2.94686 14.6886 3.06186 14.6506C3.29201 14.5744 3.59621 14.4733 3.89932 14.3725C4.20249 14.2716 4.50482 14.1709 4.73134 14.0954C4.84461 14.0577 4.93893 14.0262 5.00494 14.0042C5.03794 13.9932 5.06387 13.9846 5.08154 13.9787C5.09038 13.9757 5.09716 13.9735 5.10173 13.9719C5.10401 13.9712 5.10574 13.9706 5.1069 13.9702C5.10748 13.97 5.10792 13.9699 5.10821 13.9698C5.10836 13.9697 5.10847 13.9697 5.10855 13.9697C5.10858 13.9696 5.10861 13.9696 5.10863 13.9696C5.10865 13.9696 5.10866 13.9696 4.93726 13.4558C4.76586 12.9419 4.76585 12.9419 4.76584 12.942C4.76582 12.942 4.76579 12.942 4.76575 12.942C4.76568 12.942 4.76557 12.942 4.76543 12.9421C4.76514 12.9422 4.7647 12.9423 4.76412 12.9425C4.76296 12.9429 4.76124 12.9435 4.75896 12.9443C4.7544 12.9458 4.74763 12.948 4.7388 12.951C4.72115 12.9569 4.69524 12.9655 4.66226 12.9765C4.59629 12.9985 4.50203 13.0299 4.38882 13.0676C4.1624 13.1431 3.86026 13.2438 3.55734 13.3445C3.25435 13.4453 2.9508 13.5462 2.72147 13.6221C2.60672 13.6601 2.51101 13.6917 2.44336 13.7138C2.40941 13.7249 2.38333 13.7334 2.36572 13.7391C2.35671 13.742 2.35125 13.7437 2.34856 13.7445C2.34697 13.745 2.34811 13.7447 2.35075 13.7439C2.35191 13.7436 2.35569 13.7425 2.36084 13.7411C2.36342 13.7404 2.36808 13.7392 2.37399 13.7378C2.37825 13.7367 2.39123 13.7336 2.40813 13.7307L2.59139 14.7985ZM5.3215 13.074C2.798 10.5343 2.60902 6.78514 4.56451 4.06619L3.68501 3.43365C1.42633 6.57418 1.64902 10.915 4.55302 13.8376L5.3215 13.074ZM3.64816 4.00732C4.70075 5.95626 6.67734 7.78945 8.87239 8.32051L9.12713 7.26756C7.30301 6.82624 5.54752 5.2444 4.60136 3.49252L3.64816 4.00732ZM9.54113 7.81203C9.57599 6.76286 9.94844 5.88632 10.549 5.27548C11.1467 4.66742 12.0004 4.29159 13.0623 4.29159V3.20825C11.731 3.20825 10.5922 3.68618 9.77637 4.51603C8.96333 5.34309 8.50117 6.48861 8.45839 7.77605L9.54113 7.81203ZM13.0623 4.29159C13.8075 4.29159 14.3635 4.43252 14.7961 4.66234C15.2274 4.89149 15.5693 5.22667 15.8607 5.66662L16.7639 5.06851C16.3935 4.50912 15.9252 4.03547 15.3043 3.70564C14.6848 3.37647 13.9466 3.20825 13.0623 3.20825V4.29159ZM16.3123 5.90923H18.7498V4.8259H16.3123V5.90923ZM18.2997 5.06616L16.6747 7.49263L17.5749 8.09544L19.1999 5.66897L18.2997 5.06616Z"
        fill="currentcolor"
      />
    </symbol>
    <symbol id="facebook" width="20" height="20" viewBox="0 0 20 20" fill="none">
      <path
        d="M11.3502 19.9609H8.14106C7.60504 19.9609 7.16901 19.5258 7.16901 18.9908V11.7667H5.29676C4.76074 11.7667 4.32471 11.3313 4.32471 10.7965V7.70096C4.32471 7.16599 4.76074 6.7308 5.29676 6.7308H7.16901V5.18066C7.16901 3.64365 7.65259 2.33597 8.56731 1.39923C9.48616 0.458221 10.7703 -0.0390625 12.2808 -0.0390625L14.7282 -0.0350952C15.2633 -0.0341797 15.6986 0.401001 15.6986 0.935059V3.8092C15.6986 4.34418 15.2627 4.77936 14.7268 4.77936L13.079 4.77997C12.5765 4.77997 12.4485 4.88052 12.4211 4.91135C12.376 4.96246 12.3224 5.10696 12.3224 5.50598V6.73065H14.603C14.7747 6.73065 14.941 6.77292 15.084 6.85257C15.3923 7.02454 15.5841 7.3497 15.5841 7.70111L15.5828 10.7967C15.5828 11.3313 15.1468 11.7665 14.6108 11.7665H12.3224V18.9908C12.3224 19.5258 11.8862 19.9609 11.3502 19.9609ZM8.34379 18.7885H11.1474V11.2418C11.1474 10.8846 11.4387 10.594 11.7964 10.594H14.4081L14.4091 7.90329H11.7963C11.4385 7.90329 11.1474 7.61276 11.1474 7.25555V5.50598C11.1474 5.04791 11.1941 4.52698 11.5405 4.13544C11.9591 3.66211 12.6188 3.60748 13.0787 3.60748L14.5238 3.60687V1.13709L12.2799 1.13342C9.85232 1.13342 8.34379 2.68433 8.34379 5.18066V7.25555C8.34379 7.61261 8.05269 7.90329 7.69494 7.90329H5.49949V10.594H7.69494C8.05269 10.594 8.34379 10.8846 8.34379 11.2418V18.7885ZM14.7259 1.13739H14.7261H14.7259Z"
        fill="currentcolor"
      />
    </symbol>
    <symbol id="discord" width="20" height="20" viewBox="0 -2.5 20 20" fill="none">
      <path
        d="M7.9062 0.45426C8.2431 0.461072 8.56096 0.604135 8.7812 0.847114L8.92406 1.0038L8.96453 1.05603C9.66693 0.99585 10.3765 0.987902 11.0907 1.03332L11.3395 1.05489L11.555 0.826677C11.7836 0.588239 12.1074 0.451989 12.4455 0.45426H12.5288C12.9812 0.465614 13.5622 0.537145 14.2288 0.708593C15.2169 0.964058 16.199 1.39211 17.1312 2.03249C17.2681 2.12673 17.3812 2.24821 17.4669 2.38674C17.7574 2.86702 18.1728 3.69474 18.5847 4.79382C19.2705 6.62411 19.6824 8.5634 19.6824 10.5368C19.6824 10.9024 19.5431 11.1794 19.3336 11.369L19.3181 11.3793L19.1336 11.5927C18.8598 11.889 18.5241 12.1809 18.1241 12.4499C17.0741 13.1561 15.7574 13.5933 14.1717 13.6398C13.8146 13.6512 13.4717 13.507 13.2371 13.2492L12.4146 12.3353L12.2765 12.3625C11.0347 12.5771 9.81217 12.5828 8.60144 12.4193L8.14906 12.3489L7.93239 12.3069L7.58358 12.7042L7.07763 13.2651C6.8431 13.5207 6.50144 13.6625 6.14429 13.6535C4.55382 13.607 3.23239 13.1652 2.18239 12.4545C1.48953 11.9844 1.0431 11.4973 0.807385 11.1272C0.694289 10.9466 0.634766 10.7434 0.634766 10.5368C0.634766 8.5634 1.04667 6.62411 1.73239 4.79382C2.06929 3.89457 2.40858 3.17699 2.68001 2.68194L2.85025 2.38674C2.93596 2.24594 3.05144 2.12559 3.18953 2.03135C4.19786 1.34215 5.25977 0.899343 6.31215 0.655229C6.97644 0.501947 7.51929 0.450854 7.88953 0.45426H7.9062ZM7.8812 1.58967C7.8812 1.58967 5.93834 1.54993 3.8812 2.95444C3.88239 2.95444 1.82525 6.35161 1.82525 10.5368C1.82525 10.5368 3.02525 12.4261 6.1812 12.518C6.1812 12.518 6.3812 12.299 6.63477 12.0151L7.13834 11.4428C5.65382 11.0341 4.92525 10.2666 4.70977 10.0009L4.63834 9.90776C4.63834 9.90776 4.68596 9.93728 4.77286 9.98724L5.03834 10.1303C5.0431 10.1303 5.04786 10.1314 5.05382 10.1348L5.49191 10.3528C5.75858 10.4766 6.02048 10.5799 6.26572 10.6685L6.56929 10.7775C7.08834 10.9557 7.68834 11.1124 8.36691 11.2317C9.43834 11.4156 10.6943 11.4815 12.0657 11.2453C12.736 11.1272 13.4228 10.9569 14.136 10.6809L14.3907 10.5901C14.8228 10.4243 15.2907 10.203 15.7788 9.90776C15.7788 9.90776 15.0646 10.9705 13.1931 11.4553L14.136 12.5044C16.7479 12.4295 18.0205 11.1215 18.3812 10.6809L18.4919 10.5368C18.4919 7.03059 17.0479 4.07624 16.58 3.21105L16.4347 2.95444C14.6122 1.70094 12.8562 1.59762 12.5014 1.58967H12.436L12.2371 1.79859C14.1788 2.33337 15.2895 3.07026 15.6562 3.34389L15.7931 3.45176C14.3074 2.71714 12.8503 2.3504 11.4943 2.20507C10.4657 2.10061 9.48001 2.12559 8.60858 2.23118C8.52286 2.23118 8.45144 2.24481 8.36572 2.2573C7.86572 2.31066 6.65144 2.46735 5.12406 3.08388C4.85977 3.18948 4.64906 3.28144 4.50501 3.34616L4.2812 3.45176C4.2812 3.45176 5.45263 2.41512 8.02406 1.74636L7.8812 1.58967ZM12.7074 6.43109C13.5074 6.43109 14.1646 7.07374 14.1646 7.87307C14.1646 8.67467 13.5217 9.31735 12.7074 9.31735C11.9086 9.31735 11.2514 8.67467 11.2514 7.8742C11.2514 7.07374 11.8943 6.43109 12.7074 6.43109ZM7.49548 6.43109C8.30858 6.43109 8.96572 7.07374 8.95144 7.87307C8.95144 8.67467 8.30858 9.31735 7.49548 9.31735C6.69548 9.31735 6.03834 8.67467 6.03834 7.8742C6.03834 7.07374 6.6812 6.43109 7.49548 6.43109Z"
        fill="currentcolor"
      />
    </symbol>
    <symbol id="devices" width="20" height="20" viewBox="0 0 20 20" fill="none">
      <path
        d="M3.33333 5.83325C3.33333 5.37492 3.70833 4.99992 4.16667 4.99992H17.5C17.9583 4.99992 18.3333 4.62492 18.3333 4.16659C18.3333 3.70825 17.9583 3.33325 17.5 3.33325H3.33333C2.41667 3.33325 1.66667 4.08325 1.66667 4.99992V14.1666H1.25C0.558333 14.1666 0 14.7249 0 15.4166C0 16.1083 0.558333 16.6666 1.25 16.6666H11.6667V14.1666H3.33333V5.83325ZM19.1667 6.66659H14.1667C13.7083 6.66659 13.3333 7.04159 13.3333 7.49992V15.8333C13.3333 16.2916 13.7083 16.6666 14.1667 16.6666H19.1667C19.625 16.6666 20 16.2916 20 15.8333V7.49992C20 7.04159 19.625 6.66659 19.1667 6.66659ZM18.3333 14.1666H15V8.33325H18.3333V14.1666Z"
        fill="currentcolor"
      />
    </symbol>
    <symbol id="question" width="16" height="16" viewBox="0 0 16 16" fill="none">
      <g>
        <path
          d="M12.6667 2L3.33333 2C2.6 2 2 2.6 2 3.33333L2 12.6667C2 13.4 2.6 14 3.33333 14L12.6667 14C13.4 14 14 13.4 14 12.6667L14 3.33333C14 2.6 13.4 2 12.6667 2ZM8.00667 12C7.54 12 7.16667 11.6267 7.16667 11.16C7.16667 10.6867 7.54 10.3267 8.00667 10.3267C8.48 10.3267 8.84 10.6867 8.84 11.16C8.83333 11.62 8.48 12 8.00667 12ZM10.0133 7.06667C9.50667 7.80667 9.02667 8.04 8.76667 8.51333C8.7 8.63333 8.66 8.72667 8.64 8.93333C8.60667 9.23333 8.34 9.45333 8.04 9.45333H8C7.65333 9.45333 7.38 9.16 7.41333 8.81333C7.43333 8.58667 7.48667 8.35333 7.61333 8.12667C7.94 7.54667 8.56 7.2 8.92 6.68667C9.3 6.14667 9.08667 5.13333 8.00667 5.13333C7.53333 5.13333 7.22 5.37333 7.02667 5.66C6.86 5.9 6.56667 6.01333 6.29333 5.9C5.94 5.76 5.81333 5.33333 6.02667 5.02667C6.43333 4.43333 7.11333 4 7.99333 4C8.98 4 9.65333 4.44667 10 5.01333C10.2933 5.49333 10.4667 6.39333 10.0133 7.06667Z"
          fill="currentcolor"
        />
      </g>
    </symbol>

    <symbol
      id="liquid-outline"
      width="16"
      height="16"
      viewBox="0 0 16 16"
      fill="none"
      xmlns="http://www.w3.org/2000/svg"
    >
      <g>
        <path
          d="M7.99996 1.3335C4.44663 4.36683 2.66663 6.98683 2.66663 9.20016C2.66663 12.5202 5.19996 14.6668 7.99996 14.6668C10.8 14.6668 13.3333 12.5202 13.3333 9.20016C13.3333 6.98683 11.5533 4.36683 7.99996 1.3335ZM7.99996 13.3335C5.76663 13.3335 3.99996 11.6202 3.99996 9.20016C3.99996 7.64016 5.29996 5.5735 7.99996 3.10683C10.7 5.5735 12 7.6335 12 9.20016C12 11.6202 10.2333 13.3335 7.99996 13.3335ZM5.21996 9.3335C5.46663 9.3335 5.66663 9.50683 5.71329 9.74683C5.98663 11.2268 7.23329 11.7335 8.13996 11.6602C8.42663 11.6468 8.66663 11.8735 8.66663 12.1602C8.66663 12.4268 8.45329 12.6468 8.18663 12.6602C6.76663 12.7468 5.10663 11.9335 4.72663 9.9135C4.67329 9.6135 4.91329 9.3335 5.21996 9.3335Z"
          fill="currentcolor"
        />
      </g>
    </symbol>
    <symbol id="pig" width="16" height="16" viewBox="0 0 16 16" fill="none">
      <g>
        <path
          d="M13.22 4.99977L11.7067 3.48644C11.7534 3.20644 11.8267 2.94644 11.92 2.71977C11.9934 2.54644 12.02 2.34644 11.98 2.13977C11.8934 1.65977 11.4267 1.32644 10.9334 1.33311C9.87337 1.35311 8.93337 1.87311 8.33337 2.66644H5.00004C2.97337 2.66644 1.33337 4.30644 1.33337 6.33311C1.33337 7.83311 2.24671 11.3198 2.72004 13.0264C2.88004 13.5998 3.40671 13.9998 4.00671 13.9998H5.33337C6.06671 13.9998 6.66671 13.3998 6.66671 12.6664H8.00004C8.00004 13.3998 8.60004 13.9998 9.33337 13.9998H10.6734C11.26 13.9998 11.78 13.6131 11.9534 13.0464L12.7867 10.2731L14.2134 9.79311C14.4867 9.69977 14.6667 9.44644 14.6667 9.15977V5.66644C14.6667 5.29977 14.3667 4.99977 14 4.99977H13.22ZM8.00004 5.99977H6.00004C5.63337 5.99977 5.33337 5.69977 5.33337 5.33311C5.33337 4.96644 5.63337 4.66644 6.00004 4.66644H8.00004C8.36671 4.66644 8.66671 4.96644 8.66671 5.33311C8.66671 5.69977 8.36671 5.99977 8.00004 5.99977ZM10.6667 7.33311C10.3 7.33311 10 7.03311 10 6.66644C10 6.29977 10.3 5.99977 10.6667 5.99977C11.0334 5.99977 11.3334 6.29977 11.3334 6.66644C11.3334 7.03311 11.0334 7.33311 10.6667 7.33311Z"
          fill="currentcolor"
        />
      </g>
    </symbol>
    <symbol id="assignment" width="20" height="20" viewBox="0 0 20 20" fill="none">
      <path
        d="M15.8333 3.33317L12.35 3.33317C12 2.3665 11.0833 1.6665 10 1.6665C8.91667 1.6665 8 2.3665 7.65 3.33317L4.16667 3.33317C3.25 3.33317 2.5 4.08317 2.5 4.99984L2.5 16.6665C2.5 17.5832 3.25 18.3332 4.16667 18.3332L15.8333 18.3332C16.75 18.3332 17.5 17.5832 17.5 16.6665V4.99984C17.5 4.08317 16.75 3.33317 15.8333 3.33317ZM10 3.33317C10.4583 3.33317 10.8333 3.70817 10.8333 4.1665C10.8333 4.62484 10.4583 4.99984 10 4.99984C9.54167 4.99984 9.16667 4.62484 9.16667 4.1665C9.16667 3.70817 9.54167 3.33317 10 3.33317ZM10.8333 14.9998L6.66667 14.9998C6.20833 14.9998 5.83333 14.6248 5.83333 14.1665C5.83333 13.7082 6.20833 13.3332 6.66667 13.3332L10.8333 13.3332C11.2917 13.3332 11.6667 13.7082 11.6667 14.1665C11.6667 14.6248 11.2917 14.9998 10.8333 14.9998ZM13.3333 11.6665L6.66667 11.6665C6.20833 11.6665 5.83333 11.2915 5.83333 10.8332C5.83333 10.3748 6.20833 9.99984 6.66667 9.99984L13.3333 9.99984C13.7917 9.99984 14.1667 10.3748 14.1667 10.8332C14.1667 11.2915 13.7917 11.6665 13.3333 11.6665ZM13.3333 8.33317L6.66667 8.33317C6.20833 8.33317 5.83333 7.95817 5.83333 7.49984C5.83333 7.0415 6.20833 6.6665 6.66667 6.6665L13.3333 6.6665C13.7917 6.6665 14.1667 7.0415 14.1667 7.49984C14.1667 7.95817 13.7917 8.33317 13.3333 8.33317Z"
        fill="currentcolor"
      />
    </symbol>
    <symbol id="drag-indicator" width="20" height="20" viewBox="0 0 20 20" fill="none">
      <path
        d="M9.16634 15.0002C9.16634 15.9168 8.41634 16.6668 7.49967 16.6668C6.58301 16.6668 5.83301 15.9168 5.83301 15.0002C5.83301 14.0835 6.58301 13.3335 7.49967 13.3335C8.41634 13.3335 9.16634 14.0835 9.16634 15.0002ZM7.49967 8.3335C6.58301 8.3335 5.83301 9.0835 5.83301 10.0002C5.83301 10.9168 6.58301 11.6668 7.49967 11.6668C8.41634 11.6668 9.16634 10.9168 9.16634 10.0002C9.16634 9.0835 8.41634 8.3335 7.49967 8.3335ZM7.49967 3.3335C6.58301 3.3335 5.83301 4.0835 5.83301 5.00016C5.83301 5.91683 6.58301 6.66683 7.49967 6.66683C8.41634 6.66683 9.16634 5.91683 9.16634 5.00016C9.16634 4.0835 8.41634 3.3335 7.49967 3.3335ZM12.4997 6.66683C13.4163 6.66683 14.1663 5.91683 14.1663 5.00016C14.1663 4.0835 13.4163 3.3335 12.4997 3.3335C11.583 3.3335 10.833 4.0835 10.833 5.00016C10.833 5.91683 11.583 6.66683 12.4997 6.66683ZM12.4997 8.3335C11.583 8.3335 10.833 9.0835 10.833 10.0002C10.833 10.9168 11.583 11.6668 12.4997 11.6668C13.4163 11.6668 14.1663 10.9168 14.1663 10.0002C14.1663 9.0835 13.4163 8.3335 12.4997 8.3335ZM12.4997 13.3335C11.583 13.3335 10.833 14.0835 10.833 15.0002C10.833 15.9168 11.583 16.6668 12.4997 16.6668C13.4163 16.6668 14.1663 15.9168 14.1663 15.0002C14.1663 14.0835 13.4163 13.3335 12.4997 13.3335Z"
        fill="currentcolor"
      />
    </symbol>
    <symbol id="pencil" width="16" height="16" viewBox="0 0 16 16" fill="none">
      <path
        d="M2 11.5002L2 14.0002H4.5L11.8733 6.62687L9.37333 4.12687L2 11.5002ZM13.8067 4.69354C14.0667 4.43354 14.0667 4.01354 13.8067 3.75354L12.2467 2.19354C11.9867 1.93354 11.5667 1.93354 11.3067 2.19354L10.0867 3.41354L12.5867 5.91354L13.8067 4.69354Z"
        fill="currentcolor"
      />
    </symbol>
    <symbol id="trash" width="16" height="16" viewBox="0 0 16 16" fill="none">
      <g clip-path="url(#clip0_7938_31839)">
        <path
          d="M3.99967 12.6667C3.99967 13.4 4.59967 14 5.33301 14L10.6663 14C11.3997 14 11.9997 13.4 11.9997 12.6667L11.9997 6C11.9997 5.26667 11.3997 4.66667 10.6663 4.66667L5.33301 4.66667C4.59967 4.66667 3.99967 5.26667 3.99967 6L3.99967 12.6667ZM11.9997 2.66667L10.333 2.66667L9.85967 2.19333C9.73967 2.07333 9.56634 2 9.39301 2L6.60634 2C6.43301 2 6.25967 2.07333 6.13967 2.19333L5.66634 2.66667L3.99967 2.66667C3.63301 2.66667 3.33301 2.96667 3.33301 3.33333C3.33301 3.7 3.63301 4 3.99967 4L11.9997 4C12.3663 4 12.6663 3.7 12.6663 3.33333C12.6663 2.96667 12.3663 2.66667 11.9997 2.66667Z"
          fill="currentcolor"
        />
      </g>
    </symbol>
  </defs>
</svg>
