<svg xmlns="http://www.w3.org/2000/svg" xmlns:xlink="http://www.w3.org/1999/xlink">
  <defs>
    <symbol xmlns="http://www.w3.org/2000/svg" width="20" height="20" viewBox="0 0 20 20" fill="none" id="truesight-v2">
      <path
        d="M15.5456 9.41968C14.4955 9.41968 13.6465 10.2728 13.6465 11.3188C13.6465 11.569 13.8516 11.7741 14.1018 11.7741C14.352 11.7741 14.5571 11.569 14.5571 11.3188C14.5571 10.7732 15.0042 10.3262 15.5497 10.3262C15.7999 10.3262 16.005 10.1211 16.005 9.87087C16.0009 9.62066 15.7958 9.41968 15.5456 9.41968Z"
        fill="currentcolor"
      />
      <path
        d="M18.6423 8.11123C18.5315 8.00458 18.4126 7.90204 18.2895 7.8036L16.6078 6.3762C15.9598 5.91681 15.1886 5.62559 14.3519 5.56817L14.4421 5.6584L13.4208 4.63297H13.4126C13.1296 4.37457 12.7481 4.2146 12.3339 4.2146C11.6202 4.2146 11.0172 4.67809 10.8121 5.32206C10.607 5.19081 10.3691 5.11287 10.1107 5.09647C10.0697 5.09237 10.0246 5.09237 9.98357 5.09237C9.69235 5.09237 9.42164 5.1785 9.19194 5.32206C8.98275 4.6822 8.3798 4.2187 7.67021 4.2187C7.25593 4.2187 6.87857 4.37457 6.59145 4.63708H6.58325L5.56192 5.6625L5.65216 5.57227C4.81541 5.62969 4.04019 5.92501 3.39622 6.3803L1.71452 7.8077C1.59146 7.90204 1.47252 8.00458 1.36177 8.11533C0.520918 8.92747 0 10.0636 0 11.3229C0 13.7839 2.00164 15.7855 4.46267 15.7855C6.73501 15.7855 8.6177 14.0751 8.88841 11.8725C9.21655 12.0612 9.59801 12.1678 9.99998 12.1678C10.406 12.1678 10.7834 12.0612 11.1115 11.8725C11.3864 14.071 13.2649 15.7814 15.5373 15.7814C17.9983 15.7814 20 13.7798 20 11.3188C20.0041 10.0595 19.4831 8.92337 18.6423 8.11123ZM4.46267 14.3663C2.78096 14.3663 1.41919 13.0046 1.41919 11.3229C1.41919 9.64117 2.78096 8.2794 4.46267 8.2794C6.14437 8.2794 7.50614 9.64117 7.50614 11.3229C7.51024 13.0005 6.14437 14.3663 4.46267 14.3663ZM10.0041 10.9045C9.45855 10.9045 9.01557 10.4615 9.01557 9.91598C9.01557 9.37045 9.45855 8.92747 10.0041 8.92747C10.5496 8.92747 10.9926 9.37045 10.9926 9.91598C10.9926 10.4615 10.5496 10.9045 10.0041 10.9045ZM15.5455 14.3663C13.8638 14.3663 12.502 13.0046 12.502 11.3229C12.502 9.64117 13.8638 8.2794 15.5455 8.2794C17.2272 8.2794 18.589 9.64117 18.589 11.3229C18.589 13.0005 17.2272 14.3663 15.5455 14.3663Z"
        fill="currentcolor"
      />
      <path
        d="M4.46257 9.41968C3.41253 9.41968 2.56348 10.2728 2.56348 11.3188C2.56348 11.569 2.76856 11.7741 3.01877 11.7741C3.26897 11.7741 3.47406 11.569 3.47406 11.3188C3.47406 10.7732 3.92114 10.3262 4.46667 10.3262C4.71688 10.3262 4.92196 10.1211 4.92196 9.87087C4.91786 9.62066 4.71277 9.41968 4.46257 9.41968Z"
        fill="currentcolor"
      />
    </symbol>
    <symbol width="16" height="16" viewBox="0 0 16 16" fill="none" id="notification-2">
      <g clip-path="url(#clip0_201_508)">
        <path
          d="M12 10.6667V7.33342C12 5.28675 10.9067 3.57341 9.00003 3.12008V2.66675C9.00003 2.11341 8.54669 1.66675 7.99336 1.66675C7.44003 1.66675 7.00003 2.11341 7.00003 2.66675V3.12008C5.08669 3.57341 4.00003 5.28008 4.00003 7.33342L4.00003 10.6667L3.13336 11.5267C2.71336 11.9467 3.00669 12.6667 3.60003 12.6667L12.38 12.6667C12.9734 12.6667 13.2734 11.9467 12.8534 11.5267L12 10.6667ZM7.99336 14.6667C8.72669 14.6667 9.32669 14.0667 9.32669 13.3334L6.66003 13.3334C6.66003 14.0667 7.25336 14.6667 7.99336 14.6667ZM4.51336 3.15341C4.79336 2.90008 4.80003 2.46675 4.53336 2.20008C4.28003 1.94675 3.86669 1.94008 3.60669 2.18675C2.46669 3.22675 1.68003 4.64008 1.42669 6.22675C1.36669 6.63341 1.68003 7.00008 2.09336 7.00008C2.41336 7.00008 2.69336 6.76675 2.74669 6.44675C2.94669 5.15341 3.58669 4.00008 4.51336 3.15341ZM12.4 2.18675C12.1334 1.94008 11.72 1.94675 11.4667 2.20008C11.2 2.46675 11.2134 2.89341 11.4867 3.14675C12.4067 3.99341 13.0534 5.14675 13.2534 6.44008C13.3 6.76008 13.58 6.99341 13.9067 6.99341C14.3134 6.99341 14.6334 6.62675 14.5667 6.22008C14.3134 4.64008 13.5334 3.23341 12.4 2.18675Z"
          fill="currentcolor"
        />
      </g>
      <defs>
        <clipPath id="clip0_201_508">
          <rect width="16" height="16" fill="currentcolor" />
        </clipPath>
      </defs>
    </symbol>
    <symbol width="16" height="16" viewBox="0 0 16 16" fill="none" id="bullish">
      <path
        d="M12.5283 0C13.1769 3.98225 11.7713 3.82024 11.7713 3.82024L8.03056 3.67873V3.67623L8.00056 3.67723L7.96956 3.67623V3.67873L4.22832 3.82024C4.22832 3.82024 2.82274 3.98225 3.47128 0C-1.12301 6.50491 4.94887 5.51334 5.03938 5.74786C5.12988 5.98237 4.11982 7.35196 4.19282 8.16251C4.26533 8.97306 5.67942 9.40559 5.86893 9.94562C6.49047 11.7837 4.51734 13.5668 6.35396 14.0289C6.42746 14.0469 6.50497 14.0644 6.58247 14.0809C6.55947 14.1889 6.54747 14.2999 6.54747 14.4144C6.54747 15.2885 7.25851 16 8.13307 16C9.00712 16 9.71867 15.2885 9.71867 14.4144C9.71867 14.2789 9.70067 14.1484 9.66766 14.0229C11.4688 13.5538 9.51315 11.7767 10.1332 9.94612C10.3227 9.40609 11.7368 8.97356 11.8098 8.16301C11.8828 7.35246 10.8727 5.98287 10.9632 5.74836C11.0507 5.51335 17.1231 6.50491 12.5283 0ZM8.13157 15.5685C7.49603 15.5685 6.9775 15.0519 6.9775 14.4154C6.9775 14.3269 6.9895 14.2409 7.009 14.1589C7.43402 14.2234 7.82455 14.2549 7.96906 14.2669V14.2709C7.96906 14.2709 7.98106 14.2704 8.00006 14.2689C8.01756 14.2704 8.03056 14.2709 8.03056 14.2709V14.2669C8.20357 14.2544 8.72761 14.2114 9.24164 14.1169C9.26714 14.2114 9.28564 14.3114 9.28564 14.4154C9.28564 15.0519 8.76761 15.5685 8.13157 15.5685Z"
        fill="currentcolor"
      />
    </symbol>
    <symbol width="16" height="16" viewBox="0 0 16 16" fill="none" id="bearish">
      <path
        d="M0 4.91096C3.14713e-05 3.52406 1.17093 2.39578 2.61021 2.39578C3.30768 2.39578 3.96152 2.6599 4.44452 3.12106C5.48233 2.42706 6.72605 2.04956 8.00002 2.04956C9.27408 2.04956 10.5177 2.42706 11.5555 3.12109C12.0386 2.6599 12.6924 2.39581 13.3898 2.39581C14.8291 2.39578 16 3.52409 16 4.91096C16 5.55402 15.7483 6.16587 15.2913 6.63374C14.9804 6.95196 14.5941 7.18349 14.1695 7.31124C14.1971 7.53971 14.211 7.76996 14.211 8.00008C14.211 11.2811 11.4248 13.9505 8.00002 13.9505C4.57524 13.9505 1.78896 11.2812 1.78896 8.00008C1.78896 7.76971 1.80287 7.53924 1.8305 7.31052C0.767717 6.98802 0 6.02443 0 4.91096ZM6.3513 9.39661L7.45911 10.5044V11.2458C7.45911 11.5446 7.7013 11.7868 8.00008 11.7868C8.29886 11.7868 8.54105 11.5446 8.54105 11.2458V10.5044L9.64873 9.39658C9.80345 9.24186 9.8497 9.0092 9.76601 8.80705C9.68226 8.60492 9.48501 8.47311 9.26623 8.47311H6.7338C6.51499 8.47311 6.31777 8.60492 6.23402 8.80705C6.1503 9.00917 6.19658 9.24189 6.3513 9.39661Z"
        fill="currentcolor"
      />
    </symbol>
    <symbol width="16" height="16" viewBox="0 0 16 16" fill="none" id="trending-soon">
      <g clip-path="url(#clip0_4_6338)">
        <path
          d="M11.754 5.24119C12.0925 5.03198 12.1972 4.588 11.988 4.24954C11.7788 3.91107 11.3349 3.80628 10.9964 4.01549C10.6579 4.22469 10.5531 4.66867 10.7623 5.00714C10.9715 5.34561 11.4155 5.4504 11.754 5.24119Z"
          fill="currentcolor"
        />
        <path
          d="M0.882738 13.11C-0.23948 14.2322 0.0278326 15.9717 0.0278326 15.9717C0.0278326 15.9717 1.76727 16.239 2.88949 15.1167C3.53074 14.5195 3.65349 13.661 3.00836 12.9911C2.34796 12.325 1.42555 12.5051 0.882738 13.11Z"
          fill="currentcolor"
        />
        <path
          d="M15.9912 0.00899047C15.5721 -0.0150721 14.779 -0.00444709 13.7343 0.264304C12.2709 0.640555 10.0006 1.61525 7.49555 4.12057C5.99773 5.61807 5.0321 7.03776 4.16772 8.54121L5.48117 9.85465L5.98867 9.34683L6.65242 10.0106L6.14492 10.5181L7.45805 11.8315C8.96181 10.9672 10.3812 10.0015 11.8787 8.50402C15.8896 4.49307 16.0531 1.06431 15.9912 0.00899047ZM9.7065 4.62963C9.7065 3.70963 10.4512 2.964 11.3699 2.964C12.2884 2.964 13.0331 3.70963 13.0331 4.62963C13.0331 5.54963 12.2884 6.29557 11.3699 6.29557C10.4512 6.29557 9.7065 5.54963 9.7065 4.62963Z"
          fill="currentcolor"
        />
        <path
          d="M4.97377 11.6895L4.31018 11.0259L4.81777 10.5183L3.69202 9.39258C3.49059 9.76139 2.99421 10.6918 2.94824 10.7778L5.22187 13.0514C5.30787 13.0055 6.23821 12.5091 6.60712 12.3077L5.48137 11.1819L4.97377 11.6895Z"
          fill="currentcolor"
        />
        <path
          d="M9.04292 13.5132V15.1522L9.86238 15.9717L11.5014 14.3327L12.5324 9.17749C11.0119 10.6961 9.58395 11.6829 8.08423 12.5545L9.04292 13.5132Z"
          fill="currentcolor"
        />
        <path
          d="M2.48627 6.95627L3.44499 7.91498C4.31662 6.41523 5.3034 4.98733 6.82202 3.4668L1.6668 4.49786L0.027832 6.1368L0.847301 6.95627H2.48627Z"
          fill="currentcolor"
        />
      </g>
      <defs>
        <clipPath id="clip0_4_6338">
          <rect width="16" height="16" fill="currentcolor" />
        </clipPath>
      </defs>
    </symbol>
    <symbol width="16" height="16" viewBox="0 0 16 16" fill="none" id="flame">
      <g clip-path="url(#clip0_4_6334)">
        <path
          d="M2.03419 9.36778C2.21747 6.98156 3.32847 5.48622 4.30859 4.16665C5.21616 2.94503 6 1.89009 6 0.333904C6 0.208904 6.07 0.0946543 6.181 0.037373C6.29234 -0.020252 6.42613 -0.0108145 6.52734 0.062748C7.99934 1.11606 9.22753 2.89134 9.65656 4.58522C9.95441 5.7645 9.99381 7.09025 9.99934 7.96584C11.3587 7.6755 11.6667 5.64212 11.6699 5.61997C11.6852 5.5145 11.7497 5.42272 11.8434 5.37259C11.9381 5.32312 12.0495 5.31953 12.1455 5.36706C12.2168 5.40156 13.8952 6.25437 13.9928 9.65941C13.9997 9.77269 14 9.88631 14 9.99991C14 13.3079 11.3083 15.9995 8 15.9995C7.99544 15.9998 7.99056 16.0005 7.98666 15.9995C7.98534 15.9995 7.98406 15.9995 7.98244 15.9995C4.68228 15.99 2 13.3021 2 9.99991C2 9.83356 2.03419 9.36778 2.03419 9.36778ZM8 15.3329C9.10287 15.3329 10 14.3772 10 13.2025C10 13.1625 10.0003 13.1221 9.99741 13.0726C9.98406 12.5772 9.88997 12.239 9.78678 12.0141C9.59341 12.4294 9.24772 12.8112 8.68619 12.8112C8.50194 12.8112 8.35284 12.6622 8.35284 12.4779C8.35284 12.0034 8.34306 11.4559 8.22491 10.9617C8.11975 10.5236 7.86847 10.0575 7.55009 9.68384C7.4085 10.1688 7.13244 10.5614 6.86291 10.9445C6.47716 11.4926 6.07841 12.0593 6.00841 13.0258C6.00419 13.083 5.99994 13.1407 5.99994 13.2025C6 14.3772 6.89713 15.3329 8 15.3329Z"
          fill="currentcolor"
        />
      </g>
      <defs>
        <clipPath id="clip0_4_6334">
          <rect width="16" height="16" fill="white" transform="matrix(-1 0 0 1 16 0)" />
        </clipPath>
      </defs>
    </symbol>
    <symbol id="download" width="16" height="16" viewBox="0 0 16 16" fill="none">
      <g clip-path="url(#clip0_4_6331)">
        <path
          d="M11.0599 6H9.99992V2.66667C9.99992 2.3 9.69992 2 9.33325 2H6.66659C6.29992 2 5.99992 2.3 5.99992 2.66667V6H4.93992C4.34659 6 4.04659 6.72 4.46659 7.14L7.52659 10.2C7.78659 10.46 8.20659 10.46 8.46659 10.2L11.5266 7.14C11.9466 6.72 11.6533 6 11.0599 6ZM3.33325 12.6667C3.33325 13.0333 3.63325 13.3333 3.99992 13.3333H11.9999C12.3666 13.3333 12.6666 13.0333 12.6666 12.6667C12.6666 12.3 12.3666 12 11.9999 12H3.99992C3.63325 12 3.33325 12.3 3.33325 12.6667Z"
          fill="currentcolor"
        />
      </g>
      <defs>
        <clipPath id="clip0_4_6331">
          <rect width="16" height="16" fill="white" />
        </clipPath>
      </defs>
    </symbol>
    <symbol id="upload" width="16" height="16" viewBox="0 0 16 16" fill="none">
      <path
        d="M11.06 10L10 10L10 13.3333C10 13.7 9.70004 14 9.33337 14L6.66671 14C6.30004 14 6.00004 13.7 6.00004 13.3333L6.00004 10L4.94004 10C4.34671 10 4.04671 9.28 4.46671 8.86L7.52671 5.8C7.78671 5.54 8.20671 5.54 8.46671 5.8L11.5267 8.86C11.9467 9.28 11.6534 10 11.06 10ZM3.33338 3.33333C3.33338 2.96667 3.63338 2.66667 4.00004 2.66667L12 2.66667C12.3667 2.66667 12.6667 2.96667 12.6667 3.33334C12.6667 3.7 12.3667 4 12 4L4.00004 4C3.63338 4 3.33338 3.7 3.33338 3.33333Z"
        fill="currentcolor"
      />
    </symbol>
    <symbol id="coin-bag" width="16" height="16" viewBox="0 0 16 16" fill="none">
      <path
        d="M8.00004 4.74902C4.56745 4.74902 1.90576 8.52909 1.90576 11.7809C1.90576 15.5628 5.38417 16 8.00004 16C10.6159 16 14.0943 15.5628 14.0943 11.7809C14.0943 8.52909 11.4326 4.74902 8.00004 4.74902ZM8.48164 12.6337C8.47742 12.6353 8.47304 12.6346 8.46883 12.636V13.1872C8.46883 13.4463 8.25914 13.656 8.00004 13.656C7.74095 13.656 7.53126 13.4463 7.53126 13.1872V12.6328C7.22223 12.5285 6.9262 12.3307 6.67336 12.0294C6.50673 11.8312 6.53236 11.5355 6.73104 11.3688C6.92882 11.2022 7.22454 11.2274 7.3912 11.426C8.31551 12.53 8.93945 10.8432 8.00008 10.8432C7.22458 10.8432 6.5937 10.2124 6.5937 9.43687C6.5937 8.8759 6.91486 8.34099 7.53129 8.12159V7.56168C7.53129 7.30255 7.74098 7.0929 8.00008 7.0929C8.2592 7.0929 8.46886 7.30259 8.46886 7.56168V8.12312C8.71158 8.2049 8.94823 8.33481 9.15923 8.53909C9.34511 8.71943 9.35061 9.01612 9.17023 9.20199C8.98989 9.38834 8.6932 9.39334 8.50733 9.21299C7.64495 8.37993 7.06248 9.90565 8.00011 9.90565C8.77561 9.90565 9.40648 10.5365 9.40648 11.312C9.40642 11.9008 9.03467 12.4323 8.48164 12.6337Z"
        fill="currentcolor"
      />
      <path
        d="M10.6735 0.377672C8.94302 -0.125891 7.05686 -0.125891 5.32636 0.377672C5.03599 0.461703 4.89736 0.798859 5.05352 1.0653L5.76258 2.33467C6.99552 1.84408 8.82427 1.77083 10.2371 2.33489L10.9463 1.0653C11.1025 0.798859 10.9639 0.461734 10.6735 0.377672Z"
        fill="currentcolor"
      />
      <path
        d="M10.1766 3.35635C9.29947 2.73841 6.72647 2.71263 5.81791 3.35922C5.42838 3.63419 5.221 4.06619 5.22503 4.51747C6.12522 4.0406 7.18072 3.81138 7.99997 3.81138C8.99781 3.81138 9.93253 4.07119 10.775 4.51747C10.7788 4.08269 10.5856 3.64478 10.1766 3.35635Z"
        fill="currentcolor"
      />
    </symbol>
    <symbol id="speaker" width="16" height="16" viewBox="0 0 16 16" fill="none">
      <g clip-path="url(#clip0_4_6320)">
        <path
          d="M12 7.99992C12 8.36659 12.3 8.66659 12.6667 8.66659H14C14.3667 8.66659 14.6667 8.36659 14.6667 7.99992C14.6667 7.63325 14.3667 7.33325 14 7.33325H12.6667C12.3 7.33325 12 7.63325 12 7.99992Z"
          fill="currentcolor"
        />
        <path
          d="M11.06 11.2133C10.84 11.5066 10.9 11.9133 11.1933 12.1266C11.5467 12.3866 11.92 12.6666 12.2733 12.9333C12.5667 13.1533 12.98 13.0933 13.1933 12.7999C13.1933 12.7933 13.2 12.7933 13.2 12.7866C13.42 12.4933 13.36 12.0799 13.0667 11.8666C12.7133 11.5999 12.34 11.3199 11.9933 11.0599C11.7 10.8399 11.2867 10.9066 11.0667 11.1999C11.0667 11.2066 11.06 11.2133 11.06 11.2133Z"
          fill="currentcolor"
        />
        <path
          d="M13.2066 3.20678C13.2066 3.20011 13.2 3.20011 13.2 3.19344C12.98 2.90011 12.5666 2.84011 12.28 3.06011C11.9266 3.32678 11.5466 3.60678 11.2 3.87344C10.9066 4.09344 10.8533 4.50678 11.0733 4.79344C11.0733 4.80011 11.08 4.80011 11.08 4.80678C11.3 5.10011 11.7066 5.16011 12 4.94011C12.3533 4.68011 12.7266 4.39344 13.08 4.12678C13.3666 3.91344 13.42 3.50011 13.2066 3.20678Z"
          fill="currentcolor"
        />
        <path
          d="M5.33337 6H2.66671C1.93337 6 1.33337 6.6 1.33337 7.33333V8.66667C1.33337 9.4 1.93337 10 2.66671 10H3.33337V12C3.33337 12.3667 3.63337 12.6667 4.00004 12.6667C4.36671 12.6667 4.66671 12.3667 4.66671 12V10H5.33337L8.66671 12V4L5.33337 6Z"
          fill="currentcolor"
        />
        <path
          d="M10.3334 7.99993C10.3334 7.11327 9.94671 6.31327 9.33337 5.7666V10.2266C9.94671 9.6866 10.3334 8.8866 10.3334 7.99993Z"
          fill="currentcolor"
        />
      </g>
      <defs>
        <clipPath id="clip0_4_6320">
          <rect width="16" height="16" fill="white" />
        </clipPath>
      </defs>
    </symbol>
    <symbol
      id="share"
      width="16"
      height="16"
      viewBox="0 0 24 24"
      fill="currentcolor"
      stroke="currentcolor"
      stroke-width="2"
      stroke-linecap="round"
      stroke-linejoin="round"
    >
      <circle cx="18" cy="5" r="3"></circle>
      <circle cx="6" cy="12" r="3"></circle>
      <circle cx="18" cy="19" r="3"></circle>
      <line x1="8.59" y1="13.51" x2="15.42" y2="17.49"></line>
      <line x1="15.41" y1="6.51" x2="8.59" y2="10.49"></line>
    </symbol>
    <symbol id="swap" width="16" height="16" viewBox="0 0 16 16" fill="none">
      <path
        d="M11.3334 0.666626L14 3.33329L11.3334 5.99996"
        stroke="currentcolor"
        stroke-width="1.2"
        stroke-linecap="round"
        stroke-linejoin="round"
      />
      <path
        d="M2 7.33337V6.00004C2 5.2928 2.28095 4.61452 2.78105 4.11442C3.28115 3.61433 3.95942 3.33337 4.66667 3.33337H14"
        stroke="currentcolor"
        stroke-width="1.2"
        stroke-linecap="round"
        stroke-linejoin="round"
      />
      <path
        d="M4.66667 15.3333L2 12.6667L4.66667 10"
        stroke="currentcolor"
        stroke-width="1.2"
        stroke-linecap="round"
        stroke-linejoin="round"
      />
      <path
        d="M14 8.66663V9.99996C14 10.7072 13.719 11.3855 13.219 11.8856C12.7189 12.3857 12.0406 12.6666 11.3333 12.6666H2"
        stroke="currentcolor"
        stroke-width="1.2"
        stroke-linecap="round"
        stroke-linejoin="round"
      />
    </symbol>
    <symbol id="copy" width="16" height="16" viewBox="0 0 16 16" fill="none">
      <g clip-path="url(#clip0_201_6228)">
        <path
          d="M10 13.3334H3.33333V4.66671C3.33333 4.30004 3.03333 4.00004 2.66667 4.00004C2.3 4.00004 2 4.30004 2 4.66671V13.3334C2 14.0667 2.6 14.6667 3.33333 14.6667H10C10.3667 14.6667 10.6667 14.3667 10.6667 14C10.6667 13.6334 10.3667 13.3334 10 13.3334ZM13.3333 10.6667V2.66671C13.3333 1.93337 12.7333 1.33337 12 1.33337H6C5.26667 1.33337 4.66667 1.93337 4.66667 2.66671V10.6667C4.66667 11.4 5.26667 12 6 12H12C12.7333 12 13.3333 11.4 13.3333 10.6667ZM12 10.6667H6V2.66671H12V10.6667Z"
          fill="currentcolor"
        />
      </g>
      <defs>
        <clipPath id="clip0_201_6228">
          <rect width="16" height="16" fill="white" />
        </clipPath>
      </defs>
    </symbol>
    <symbol id="open-link" width="16" height="16" viewBox="0 0 16 16" fill="none">
      <g clip-path="url(#clip0_201_6300)">
        <path
          d="M12 12.6667H4C3.63333 12.6667 3.33333 12.3667 3.33333 12V4C3.33333 3.63333 3.63333 3.33333 4 3.33333H7.33333C7.7 3.33333 8 3.03333 8 2.66667C8 2.3 7.7 2 7.33333 2H3.33333C2.59333 2 2 2.6 2 3.33333V12.6667C2 13.4 2.6 14 3.33333 14H12.6667C13.4 14 14 13.4 14 12.6667V8.66667C14 8.3 13.7 8 13.3333 8C12.9667 8 12.6667 8.3 12.6667 8.66667V12C12.6667 12.3667 12.3667 12.6667 12 12.6667ZM9.33333 2.66667C9.33333 3.03333 9.63333 3.33333 10 3.33333H11.7267L5.64 9.42C5.38 9.68 5.38 10.1 5.64 10.36C5.9 10.62 6.32 10.62 6.58 10.36L12.6667 4.27333V6C12.6667 6.36667 12.9667 6.66667 13.3333 6.66667C13.7 6.66667 14 6.36667 14 6V2.66667C14 2.3 13.7 2 13.3333 2H10C9.63333 2 9.33333 2.3 9.33333 2.66667Z"
          fill="#A9A9A9"
        />
      </g>
      <defs>
        <clipPath id="clip0_201_6300">
          <rect width="16" height="16" fill="white" />
        </clipPath>
      </defs>
    </symbol>
    <symbol id="star" width="16" height="16" viewBox="0 0 16 16" fill="none">
      <path
        d="M14.9555 6.87512L11.841 9.91112L12.5765 14.1991C12.6085 14.3866 12.5315 14.5761 12.3775 14.6881C12.2905 14.7516 12.187 14.7836 12.0835 14.7836C12.004 14.7836 11.924 14.7646 11.851 14.7261L7.99995 12.7016L4.14946 14.7256C3.98146 14.8146 3.77696 14.8001 3.62296 14.6876C3.46896 14.5756 3.39196 14.3861 3.42396 14.1986L4.15946 9.91062L1.04446 6.87512C0.908456 6.74212 0.858956 6.54312 0.917956 6.36262C0.976956 6.18212 1.13346 6.04962 1.32196 6.02212L5.62646 5.39712L7.55145 1.49612C7.71995 1.15462 8.27995 1.15462 8.44845 1.49612L10.3735 5.39712L14.678 6.02212C14.8665 6.04962 15.023 6.18162 15.082 6.36262C15.141 6.54362 15.0915 6.74162 14.9555 6.87512Z"
        fill="currentcolor"
      />
    </symbol>
    <symbol id="fullscreen" width="16" height="16" viewBox="0 0 16 16" fill="none" xmlns="http://www.w3.org/2000/svg">
      <path
        d="M5.33333 2H3.33333C2.97971 2 2.64057 2.14048 2.39052 2.39052C2.14048 2.64057 2 2.97971 2 3.33333V5.33333M14 5.33333V3.33333C14 2.97971 13.8595 2.64057 13.6095 2.39052C13.3594 2.14048 13.0203 2 12.6667 2H10.6667M10.6667 14H12.6667C13.0203 14 13.3594 13.8595 13.6095 13.6095C13.8595 13.3594 14 13.0203 14 12.6667V10.6667M2 10.6667V12.6667C2 13.0203 2.14048 13.3594 2.39052 13.6095C2.64057 13.8595 2.97971 14 3.33333 14H5.33333"
        stroke="#A9A9A9"
        stroke-width="1.5"
        stroke-linecap="round"
        stroke-linejoin="round"
      />
    </symbol>
    <symbol id="leaderboard" width="20" height="20" viewBox="0 0 20 20" fill="none" xmlns="http://www.w3.org/2000/svg">
      <g clip-path="url(#clip0_2028_35985)">
        <path
          d="M5.41675 17.5H2.50008C2.04175 17.5 1.66675 17.125 1.66675 16.6667V8.33333C1.66675 7.875 2.04175 7.5 2.50008 7.5H5.41675C5.87508 7.5 6.25008 7.875 6.25008 8.33333V16.6667C6.25008 17.125 5.87508 17.5 5.41675 17.5ZM11.4584 2.5H8.54175C8.08342 2.5 7.70842 2.875 7.70842 3.33333V16.6667C7.70842 17.125 8.08342 17.5 8.54175 17.5H11.4584C11.9167 17.5 12.2917 17.125 12.2917 16.6667V3.33333C12.2917 2.875 11.9167 2.5 11.4584 2.5ZM17.5001 9.16667H14.5834C14.1251 9.16667 13.7501 9.54167 13.7501 10V16.6667C13.7501 17.125 14.1251 17.5 14.5834 17.5H17.5001C17.9584 17.5 18.3334 17.125 18.3334 16.6667V10C18.3334 9.54167 17.9584 9.16667 17.5001 9.16667Z"
          fill="currentcolor"
        />
      </g>
      <defs>
        <clipPath id="clip0_2028_35985">
          <rect width="20" height="20" fill="white" />
        </clipPath>
      </defs>
    </symbol>
    <symbol id="chart" width="20" height="20" viewBox="0 0 20 20" fill="none" xmlns="http://www.w3.org/2000/svg">
      <g clipPath="url(#clip0_2028_6178)">
        <path
          d="M6.17648 9.41176H6.76473C7.08961 9.41176 7.35297 9.67512 7.35297 10L7.35297 14.7059C7.35297 15.0308 7.08961 15.2941 6.76473 15.2941H6.17648V15.8824C6.17648 16.2073 5.91313 16.4706 5.58824 16.4706C5.26336 16.4706 5 16.2073 5 15.8824V15.2941H4.41176C4.08687 15.2941 3.82352 15.0308 3.82352 14.7059L3.82352 10C3.82352 9.67512 4.08687 9.41176 4.41176 9.41176H5V8.82352C5 8.49863 5.26336 8.23527 5.58824 8.23527C5.91313 8.23527 6.17648 8.49863 6.17648 8.82352V9.41176ZM12.0588 7.05883H12.6471C12.972 7.05883 13.2353 7.32219 13.2353 7.64707V13.5294C13.2353 13.8543 12.972 14.1177 12.6471 14.1177H12.0588V14.7059C12.0588 15.0308 11.7955 15.2941 11.4706 15.2941C11.1457 15.2941 10.8823 15.0308 10.8823 14.7059V14.1177H10.2941C9.96922 14.1177 9.70586 13.8543 9.70586 13.5294V7.64707C9.70586 7.32219 9.96922 7.05883 10.2941 7.05883H10.8823V6.47059C10.8823 6.1457 11.1457 5.88234 11.4706 5.88234C11.7955 5.88234 12.0588 6.1457 12.0588 6.47059V7.05883ZM17.9412 2.35293L18.5294 2.35293C18.8543 2.35293 19.1177 2.61629 19.1177 2.94117L19.1177 11.1765C19.1177 11.5014 18.8543 11.7647 18.5294 11.7647H17.9412V12.353C17.9412 12.6779 17.6778 12.9412 17.3529 12.9412C17.028 12.9412 16.7647 12.6779 16.7647 12.353V11.7647L16.1764 11.7647C15.8516 11.7647 15.5882 11.5014 15.5882 11.1765L15.5882 2.94117C15.5882 2.61629 15.8516 2.35293 16.1764 2.35293H16.7647V1.76469C16.7647 1.4398 17.028 1.17645 17.3529 1.17645C17.6778 1.17645 17.9412 1.4398 17.9412 1.76469V2.35293ZM4.11766 18.8235V18.2353C4.11766 17.9104 4.38102 17.647 4.7059 17.647C5.03078 17.647 5.29414 17.9104 5.29414 18.2353V18.8235H10V18.2353C10 17.9104 10.2634 17.647 10.5882 17.647C10.9131 17.647 11.1765 17.9104 11.1765 18.2353V18.8235H15.8824V18.2353C15.8824 17.9104 16.1457 17.647 16.4706 17.647C16.7955 17.647 17.0589 17.9104 17.0589 18.2353V18.8235H19.4118C19.7367 18.8235 20 19.0869 20 19.4118C20 19.7366 19.7367 20 19.4118 20L1.17648 20C0.526719 20 0 19.4733 0 18.8235L0 0.588242C0 0.263359 0.263359 0 0.588242 0C0.913125 0 1.17648 0.263359 1.17648 0.588242L1.17648 2.94117L1.76473 2.94117C2.08961 2.94117 2.35297 3.20453 2.35297 3.52941C2.35297 3.8543 2.08961 4.11766 1.76473 4.11766H1.17648L1.17648 8.82355H1.76473C2.08961 8.82355 2.35297 9.08691 2.35297 9.4118C2.35297 9.73668 2.08957 10 1.76469 10H1.17648L1.17648 14.7059H1.76473C2.08961 14.7059 2.35297 14.9693 2.35297 15.2941C2.35297 15.619 2.08961 15.8824 1.76473 15.8824H1.17648L1.17648 18.8236H4.11766V18.8235Z"
          fill="#222222"
        />
      </g>
      <defs>
        <clipPath id="clip0_2028_6178">
          <rect width="20" height="20" fill="white" />
        </clipPath>
      </defs>
    </symbol>
    <symbol id="liquid" width="16" height="16" viewBox="0 0 16 16" fill="none" xmlns="http://www.w3.org/2000/svg">
      <g clipPath="url(#clip0_2500_18502)">
        <path
          d="M8.43996 1.71999C8.18663 1.49999 7.80663 1.49999 7.55329 1.71999C4.29996 4.58666 2.66663 7.07999 2.66663 9.19999C2.66663 12.52 5.19996 14.6667 7.99996 14.6667C10.8 14.6667 13.3333 12.52 13.3333 9.19999C13.3333 7.07999 11.7 4.58666 8.43996 1.71999ZM5.21996 9.33333C5.46663 9.33333 5.66663 9.50666 5.71329 9.74666C5.98663 11.2267 7.23329 11.7333 8.13996 11.66C8.42663 11.6467 8.66663 11.8733 8.66663 12.16C8.66663 12.4267 8.45329 12.6467 8.18663 12.66C6.76663 12.7467 5.10663 11.9333 4.72663 9.91333C4.67329 9.61333 4.91329 9.33333 5.21996 9.33333Z"
          fill="currentcolor"
        />
      </g>
      <defs>
        <clipPath id="clip0_2500_18502">
          <rect width="16" height="16" fill="white" />
        </clipPath>
      </defs>
    </symbol>
    <symbol id="alarm" width="24" height="24" viewBox="0 0 24 24" fill="none" xmlns="http://www.w3.org/2000/svg">
      <g clipPath="url(#clip0_18_84831)">
        <path
          d="M15.8702 15.2501L12.5002 13.2501V8.72014C12.5002 8.32014 12.1802 8.00014 11.7802 8.00014H11.7203C11.3203 8.00014 11.0002 8.32014 11.0002 8.72014V13.4401C11.0002 13.7901 11.1802 14.1201 11.4902 14.3001L15.1403 16.4901C15.4803 16.6901 15.9203 16.5901 16.1203 16.2501C16.3303 15.9001 16.2203 15.4501 15.8702 15.2501ZM21.1803 5.01014L18.1003 2.45014C17.6803 2.10014 17.0503 2.15014 16.6903 2.58014C16.3403 3.00014 16.4002 3.63014 16.8202 3.99014L19.8902 6.55014C20.3102 6.90014 20.9402 6.85014 21.3002 6.42014C21.6602 6.00014 21.6003 5.37014 21.1803 5.01014ZM4.10025 6.55014L7.17025 3.99014C7.60025 3.63014 7.66025 3.00014 7.30025 2.58014C6.95025 2.15014 6.32025 2.10014 5.90025 2.45014L2.82025 5.01014C2.40025 5.37014 2.34025 6.00014 2.70025 6.42014C3.05025 6.85014 3.68025 6.90014 4.10025 6.55014ZM12.0002 4.00014C7.03025 4.00014 3.00025 8.03014 3.00025 13.0001C3.00025 17.9701 7.03025 22.0001 12.0002 22.0001C16.9702 22.0001 21.0002 17.9701 21.0002 13.0001C21.0002 8.03014 16.9702 4.00014 12.0002 4.00014ZM12.0002 20.0001C8.14025 20.0001 5.00025 16.8601 5.00025 13.0001C5.00025 9.14014 8.14025 6.00014 12.0002 6.00014C15.8602 6.00014 19.0002 9.14014 19.0002 13.0001C19.0002 16.8601 15.8602 20.0001 12.0002 20.0001Z"
          fill="currentcolor"
        />
      </g>
      <defs>
        <clipPath id="clip0_18_84831">
          <rect width="24" height="24" fill="white" />
        </clipPath>
      </defs>
    </symbol>
    <symbol id="on-chain" width="16" height="16" viewBox="0 0 16 16" fill="none" xmlns="http://www.w3.org/2000/svg">
      <g clipPath="url(#clip0_2524_9050)">
        <path
          d="M8.64667 1.69344C8.24667 1.46677 7.75333 1.46677 7.35333 1.69344L2.68667 4.28677L6.06667 6.1601C6.55333 5.65344 7.24 5.33344 8 5.33344C8.76 5.33344 9.44667 5.65344 9.93333 6.1601L13.3133 4.2801L8.64667 1.69344ZM6.66667 8.0001C6.66667 7.26677 7.26667 6.66677 8 6.66677C8.73333 6.66677 9.33333 7.26677 9.33333 8.0001C9.33333 8.73344 8.73333 9.33344 8 9.33344C7.26667 9.33344 6.66667 8.73344 6.66667 8.0001ZM2 5.42677L5.42 7.32677C5.36 7.5401 5.33333 7.76677 5.33333 8.0001C5.33333 9.2401 6.18 10.2868 7.33333 10.5801V14.2934L2.68667 11.7134C2.26 11.4801 2 11.0334 2 10.5468V5.42677ZM8.66667 14.2934V10.5801C9.82 10.2868 10.6667 9.2401 10.6667 8.0001C10.6667 7.76677 10.64 7.5401 10.58 7.32677L14 5.42677V10.5468C14 11.0334 13.74 11.4801 13.3133 11.7134L8.66667 14.2934Z"
          fill="currentcolor"
        />
      </g>
      <defs>
        <clipPath id="clip0_2524_9050">
          <rect width="16" height="16" fill="white" />
        </clipPath>
      </defs>
    </symbol>
    <symbol
      id="technical-analysis"
      width="16"
      height="16"
      viewBox="0 0 16 16"
      fill="none"
      xmlns="http://www.w3.org/2000/svg"
    >
      <g>
        <path
          d="M14.6666 7.99992C14.6666 4.31992 11.6799 1.33325 7.99992 1.33325C4.31992 1.33325 1.33325 4.31992 1.33325 7.99992C1.33325 8.88659 1.50659 9.73992 1.82659 10.5133L4.89992 7.43325C5.14659 7.18659 5.53325 7.17325 5.79992 7.39325L7.53325 8.85325L9.71992 6.66659H9.33325C8.96659 6.66659 8.66659 6.36659 8.66659 5.99992C8.66659 5.63325 8.96659 5.33325 9.33325 5.33325H11.3333C11.6999 5.33325 11.9999 5.63325 11.9999 5.99992V7.99992C11.9999 8.36659 11.6999 8.66659 11.3333 8.66659C10.9666 8.66659 10.6666 8.36659 10.6666 7.99992V7.61325L8.03992 10.2333C7.79325 10.4799 7.39992 10.4933 7.13992 10.2666L5.41325 8.80659L2.47992 11.7399C3.67992 13.5066 5.70659 14.6666 7.99992 14.6666H13.3333C14.0666 14.6666 14.6666 14.0666 14.6666 13.3333V7.99992ZM12.9999 13.6666C12.6333 13.6666 12.3333 13.3666 12.3333 12.9999C12.3333 12.6333 12.6333 12.3333 12.9999 12.3333C13.3666 12.3333 13.6666 12.6333 13.6666 12.9999C13.6666 13.3666 13.3666 13.6666 12.9999 13.6666Z"
          fill="currentcolor"
        />
      </g>
    </symbol>
    <symbol id="news" width="16" height="16" viewBox="0 0 16 16" fill="none" xmlns="http://www.w3.org/2000/svg">
      <g>
        <path
          d="M14.1 2.56665L13.5534 3.11332L12.92 2.47332C12.66 2.21332 12.24 2.21332 11.9734 2.47332L11.3334 3.11332L10.6934 2.47332C10.4334 2.21332 10.0067 2.21332 9.74671 2.47332L9.11337 3.11332L8.47337 2.47332C8.21337 2.21332 7.79337 2.21332 7.53337 2.47332L6.89337 3.11332L6.25337 2.47332C5.99337 2.21332 5.57337 2.21332 5.30671 2.47332L4.66671 3.11332L4.02671 2.47332C3.76671 2.21332 3.34004 2.21332 3.08004 2.47332L2.44671 3.11332L1.90004 2.56665C1.69337 2.35999 1.33337 2.50665 1.33337 2.80665V12.6667C1.33337 13.4 1.93337 14 2.66671 14H13.3334C14.0667 14 14.6667 13.4 14.6667 12.6667V2.80665C14.6667 2.50665 14.3067 2.35999 14.1 2.56665ZM7.33337 12.6667H2.66671V8.66665H7.33337V12.6667ZM13.3334 12.6667H8.66671V11.3333H13.3334V12.6667ZM13.3334 9.99999H8.66671V8.66665H13.3334V9.99999ZM13.3334 7.33332H2.66671V5.33332H13.3334V7.33332Z"
          fill="currentcolor"
        />
      </g>
    </symbol>
    <symbol id="search" width="24" height="24" viewBox="0 0 24 24" fill="none" xmlns="http://www.w3.org/2000/svg">
      <g>
        <path
          d="M15.5 14H14.71L14.43 13.73C15.63 12.33 16.25 10.42 15.91 8.39002C15.44 5.61002 13.12 3.39002 10.32 3.05002C6.09001 2.53002 2.53002 6.09001 3.05002 10.32C3.39002 13.12 5.61002 15.44 8.39002 15.91C10.42 16.25 12.33 15.63 13.73 14.43L14 14.71V15.5L18.25 19.75C18.66 20.16 19.33 20.16 19.74 19.75C20.15 19.34 20.15 18.67 19.74 18.26L15.5 14ZM9.50002 14C7.01002 14 5.00002 11.99 5.00002 9.50002C5.00002 7.01002 7.01002 5.00002 9.50002 5.00002C11.99 5.00002 14 7.01002 14 9.50002C14 11.99 11.99 14 9.50002 14Z"
          fill="currentcolor"
        />
      </g>
    </symbol>
    <symbol id="eth-mono" width="12" height="12" viewBox="0 0 12 12" fill="none" xmlns="http://www.w3.org/2000/svg">
      <g>
        <path d="M6.14941 0V4.43589L9.89867 6.11123L6.14941 0Z" fill="currentcolor" fillOpacity="0.602" />
        <path d="M6.14966 0L2.3999 6.11123L6.14966 4.43589V0Z" fill="currentcolor" />
        <path d="M6.14941 8.98601V12.0001L9.90117 6.80957L6.14941 8.98601Z" fill="currentcolor" fillOpacity="0.602" />
        <path d="M6.14966 12.0001V8.98551L2.3999 6.80957L6.14966 12.0001Z" fill="currentcolor" />
        <path d="M6.14941 8.28804L9.89867 6.1111L6.14941 4.43677V8.28804Z" fill="currentcolor" fillOpacity="0.2" />
        <path d="M2.3999 6.1111L6.14966 8.28804V4.43677L2.3999 6.1111Z" fill="currentcolor" fillOpacity="0.602" />
      </g>
    </symbol>
    <symbol id="bnb-mono" width="12" height="12" viewBox="0 0 12 12" fill="none">
      <g>
        <path
          d="M3.6695 5.0425L6 2.712L8.3316 5.0435L9.6876 3.6875L6 0L2.3136 3.6864L3.66955 5.0424L3.6695 5.0425ZM0 6L1.35605 4.64376L2.712 5.99971L1.35595 7.35576L0 6ZM3.6695 6.95765L6 9.288L8.33155 6.95654L9.68827 8.31182L9.6876 8.31254L6 12L2.3136 8.3136L2.31168 8.31168L3.66965 6.9575L3.6695 6.95765ZM9.288 6.00058L10.644 4.64453L12 6.00048L10.644 7.35653L9.288 6.00058Z"
          fill="currentcolor"
        />
        <path
          d="M7.37528 5.99926H7.37585L5.99998 4.62329L4.983 5.63998L4.86617 5.75686L4.62521 5.99787L4.62329 5.99974L4.62521 6.00171L5.99998 7.37667L7.37595 6.0007L7.37662 5.99993L7.37538 5.99926"
          fill="currentcolor"
        />
      </g>
    </symbol>
    <symbol id="ava-mono" width="12" height="12" viewBox="0 0 12 12" fill="none">
      <g>
        <path
          d="M2.08139 11.1643C1.58692 11.1643 1.09244 11.1656 0.597974 11.1643C0.370746 11.1628 0.163322 11.1194 0.0486868 10.8873C-0.0365491 10.7158 -0.000719378 10.5557 0.0856394 10.4005C0.326035 9.9683 0.566738 9.5363 0.811217 9.10634C2.27299 6.53593 3.73544 3.96588 5.19857 1.39621C5.2539 1.29914 5.31004 1.20226 5.37211 1.10978C5.61311 0.751892 5.99091 0.747707 6.22508 1.11213C6.41464 1.40714 6.58297 1.71593 6.75711 2.02063C7.08428 2.59319 7.40817 3.16749 7.73544 3.74036C8.0332 4.26147 8.03412 4.78034 7.73656 5.30217C6.76967 6.99763 5.80332 8.6934 4.83752 10.3895C4.53526 10.9195 4.07376 11.1681 3.46905 11.1653C3.00653 11.1622 2.54401 11.1643 2.08139 11.1643Z"
          fill="currentcolor"
        />
        <path
          d="M9.53608 11.1646C8.94075 11.1646 8.34543 11.1655 7.7497 11.1636C7.65944 11.1638 7.56933 11.1561 7.48041 11.1406C7.18204 11.0865 7.01667 10.798 7.12528 10.5143C7.16877 10.4008 7.22991 10.2931 7.29106 10.1876C7.8563 9.21215 8.4227 8.23739 8.99026 7.26335C9.04024 7.17555 9.09532 7.09074 9.15522 7.00938C9.36377 6.73142 9.71717 6.72724 9.92418 7.00346C10.0099 7.11789 10.0828 7.24273 10.1553 7.36656C10.7056 8.30759 11.2547 9.2493 11.8027 10.1917C11.864 10.2971 11.9236 10.4056 11.9667 10.5192C12.0743 10.8026 11.9078 11.0933 11.607 11.1401C11.4557 11.1637 11.3 11.164 11.1464 11.1648C10.6094 11.1675 10.0726 11.1658 9.53567 11.1658L9.53608 11.1646Z"
          fill="currentcolor"
        />
      </g>
    </symbol>
    <symbol id="matic-mono" width="12" height="12" viewBox="0 0 12 12" fill="none">
      <g>
        <path
          d="M3.59924 0.780029C3.80716 0.900992 4.01548 1.02192 4.22422 1.14281C4.42883 1.26165 4.63366 1.38005 4.8376 1.50001C5.05681 1.62888 5.2749 1.7602 5.49421 1.88863C5.71352 2.01705 5.93707 2.14704 6.15861 2.27613C6.33538 2.37927 6.47438 2.51694 6.54121 2.71443C6.56349 2.78126 6.58209 2.85265 6.58287 2.92227C6.58699 3.27669 6.58398 3.63122 6.58588 3.98576C6.58588 4.02652 6.57129 4.04735 6.53821 4.06617C6.31225 4.19508 6.08681 4.32503 5.86189 4.45602C5.71096 4.54356 5.56115 4.63267 5.41034 4.72066C5.4011 4.72466 5.39147 4.72769 5.3816 4.72969V4.01906C5.3816 3.91146 5.38049 3.80376 5.3816 3.69605C5.38439 3.47328 5.30207 3.28393 5.14224 3.13412C5.06783 3.06439 4.97282 3.01583 4.88483 2.96136C4.68434 2.83706 4.48281 2.71398 4.28024 2.59213C4.07819 2.4696 3.88004 2.33962 3.67153 2.22935C3.40332 2.08756 3.13188 2.09046 2.8659 2.25163C2.64803 2.38328 2.4256 2.50725 2.20573 2.63557C2.01582 2.74628 1.8258 2.85722 1.63767 2.97038C1.56772 3.01238 1.49376 3.05281 1.43584 3.10861C1.32446 3.21632 1.24026 3.34575 1.21675 3.50257C1.20199 3.60435 1.19454 3.70704 1.19448 3.80988C1.19217 4.26834 1.19217 4.72679 1.19448 5.18524C1.19537 5.31467 1.21742 5.44143 1.27701 5.56072C1.35019 5.70663 1.46068 5.81244 1.59947 5.89487C1.87715 6.06072 2.1526 6.23047 2.42916 6.39843C2.58933 6.49567 2.74404 6.60405 2.91123 6.68725C3.19581 6.82893 3.47683 6.81913 3.75128 6.64036C3.96636 6.50024 4.19169 6.37571 4.41212 6.24372C4.56204 6.15461 4.71118 6.06283 4.86133 5.97328C5.0518 5.85945 5.24126 5.74383 5.43406 5.63412C5.72979 5.46582 6.02863 5.30298 6.32513 5.13568C6.605 4.97737 6.88394 4.81753 7.16195 4.65617C7.43685 4.49578 7.70896 4.33082 7.98263 4.16854C8.09535 4.10171 8.20773 4.03488 8.32279 3.97206C8.42938 3.91425 8.54444 3.88662 8.66641 3.87493C8.85576 3.85677 9.01883 3.92093 9.17632 4.0136C9.35353 4.11774 9.53163 4.22033 9.70907 4.32392C9.95411 4.46715 10.1982 4.6114 10.4435 4.75386C10.687 4.8952 10.9326 5.03309 11.1753 5.17611C11.3617 5.28582 11.5526 5.3903 11.7271 5.51694C11.8925 5.63679 11.9954 5.81256 11.9963 6.02073C12.0012 7.07115 12.0012 8.12168 11.9963 9.17233C11.9963 9.31189 11.9287 9.43307 11.8477 9.54613C11.7524 9.67912 11.6116 9.74974 11.4765 9.82882C11.2066 9.98661 10.9366 10.1442 10.6664 10.3016C10.3957 10.4586 10.1237 10.6135 9.85331 10.7705C9.6194 10.9063 9.38684 11.0452 9.15159 11.1802C9.08933 11.216 9.02161 11.2422 8.95634 11.2727H8.44398C8.32591 11.2059 8.2074 11.1401 8.08989 11.0722C7.91502 10.9719 7.74104 10.8695 7.56639 10.7683C7.41368 10.68 7.26064 10.5924 7.10793 10.504C6.91821 10.3937 6.7283 10.2832 6.53821 10.1724C6.38227 10.0822 6.22544 9.99422 6.07118 9.90133C5.93573 9.81991 5.79383 9.74539 5.6722 9.64615C5.53854 9.53722 5.45612 9.38585 5.42838 9.21175C5.4204 9.16102 5.4163 9.10974 5.41613 9.05838C5.41513 8.73915 5.41613 8.41982 5.41457 8.10048C5.41457 8.05593 5.42682 8.03142 5.46592 8.00915C5.71564 7.86658 5.96347 7.72066 6.21219 7.57687C6.34384 7.50079 6.47672 7.4265 6.61562 7.34775C6.61684 7.37371 6.6184 7.39309 6.6184 7.41258C6.6184 7.7318 6.61138 8.05125 6.61974 8.37048C6.62731 8.66542 6.76944 8.88674 7.02684 9.03343C7.2006 9.13249 7.37388 9.23229 7.54667 9.33283C7.71809 9.4324 7.88884 9.53332 8.06015 9.63278C8.13556 9.67667 8.21163 9.71944 8.28759 9.76232C8.58142 9.92828 8.87147 9.9294 9.16206 9.74996C9.42059 9.5909 9.68289 9.43809 9.9432 9.28215C10.1163 9.17823 10.2934 9.08021 10.46 8.96671C10.6371 8.84619 10.7385 8.67166 10.7623 8.45646C10.7695 8.39069 10.7732 8.32459 10.7734 8.25842C10.7743 7.76644 10.7794 7.27446 10.7718 6.7827C10.7673 6.48843 10.627 6.26555 10.3689 6.11864C10.1919 6.01772 10.0165 5.91414 9.84017 5.812C9.64825 5.70061 9.45701 5.58856 9.26376 5.47985C9.15638 5.41948 9.05012 5.35265 8.93518 5.31144C8.70662 5.22924 8.4843 5.24918 8.27089 5.37827C8.00925 5.5361 7.74115 5.68324 7.47739 5.83684C7.21798 5.98765 6.96002 6.14125 6.70049 6.29195C6.42983 6.44922 6.1575 6.60382 5.88661 6.76087C5.60036 6.92684 5.31544 7.09502 5.02896 7.26132C4.73936 7.42917 4.44977 7.59547 4.16017 7.7631C3.99978 7.85611 3.84206 7.9539 3.67966 8.04301C3.57576 8.10008 3.46075 8.13401 3.34251 8.14247C3.14814 8.15673 2.97862 8.09569 2.81566 7.99222C2.63979 7.88039 2.45311 7.78371 2.27222 7.6789C2.09924 7.57865 1.92771 7.47596 1.75485 7.37549C1.56472 7.265 1.37314 7.15662 1.18312 7.0459C0.903543 6.88284 0.6223 6.72289 0.346292 6.55348C0.153822 6.43575 0.0461139 6.25464 0.00189472 6.03521C-0.00023432 6.01672 -0.000570034 5.99807 0.000892269 5.97952C0.000892269 4.96043 0.00115216 3.94135 0.00167195 2.92227C0.00167195 2.70084 0.101917 2.52129 0.28013 2.39743C0.430387 2.29295 0.594454 2.20808 0.75273 2.11507C0.912677 2.02129 1.0734 1.9285 1.23346 1.83494C1.42846 1.72118 1.62304 1.60716 1.81722 1.49288C2.08666 1.33416 2.35487 1.17344 2.6252 1.01638C2.7661 0.934407 2.91056 0.858555 3.05335 0.780029H3.59924Z"
          fill="currentcolor"
        />
      </g>
    </symbol>
    <symbol id="fantom-mono" width="12" height="12" viewBox="0 0 12 12" fill="none">
      <path
        d="M5.4796 0.11495C5.7716 -0.0383168 6.21591 -0.0383168 6.50791 0.11495L9.48754 1.6789C9.6634 1.77121 9.75998 1.90876 9.77729 2.05075H9.78013V9.91198C9.77626 10.0669 9.67877 10.2207 9.48754 10.3211L6.50791 11.885C6.21591 12.0383 5.7716 12.0383 5.4796 11.885L2.49997 10.3211C2.30955 10.2212 2.21817 10.0662 2.21364 9.91198C2.21319 9.89679 2.21313 9.88414 2.21357 9.87364L2.21355 2.10124C2.21325 2.09273 2.21322 2.08423 2.21346 2.07576L2.21364 2.05075L2.21497 2.05074C2.22821 1.90719 2.32041 1.77316 2.49997 1.6789L5.4796 0.11495ZM9.31106 6.43649L6.50791 7.90782C6.21591 8.06109 5.7716 8.06109 5.4796 7.90782L2.68257 6.43977V9.89642L5.4796 11.3568C5.63754 11.4407 5.80146 11.5224 5.96175 11.5328L5.99376 11.5339C6.16078 11.5344 6.32294 11.4501 6.48738 11.3704L9.31106 9.88386V6.43649ZM1.72901 9.74107C1.72901 10.0422 1.76423 10.2402 1.83417 10.3797C1.89214 10.4953 1.97912 10.5836 2.13793 10.6911L2.147 10.6972C2.18185 10.7206 2.22025 10.745 2.26698 10.7737L2.3221 10.8073L2.49134 10.9088L2.2486 11.3076L2.05918 11.1939L2.02734 11.1745C1.97257 11.1409 1.92717 11.1121 1.88483 11.0837C1.4322 10.7804 1.26339 10.4498 1.26006 9.76198L1.26001 9.74107H1.72901ZM5.75919 4.32944C5.7375 4.33685 5.71717 4.34541 5.69863 4.35514L2.71901 5.91909C2.71588 5.92073 2.7129 5.92235 2.71006 5.92396L2.70754 5.92542L2.71221 5.92807L2.71901 5.93174L5.69863 7.49569C5.71717 7.50542 5.7375 7.51398 5.75919 7.52139V4.32944ZM6.22833 4.32944V7.52139C6.25002 7.51398 6.27035 7.50542 6.28888 7.49569L9.26851 5.93174C9.27163 5.9301 9.27462 5.92848 9.27745 5.92687L9.27998 5.92542L9.27529 5.92276L9.26851 5.91909L6.28888 4.35514C6.27035 4.34541 6.25002 4.33685 6.22833 4.32944ZM9.31106 2.6084L6.63817 4.01137L9.31106 5.41433V2.6084ZM2.68257 2.61168V5.41105L5.34927 4.01137L2.68257 2.61168ZM6.28888 0.527076C6.13393 0.445746 5.85359 0.445746 5.69863 0.527076L2.71901 2.09103C2.71588 2.09267 2.7129 2.0943 2.71006 2.0959L2.70754 2.09735L2.71221 2.10001L2.71901 2.10368L5.69863 3.66763C5.85359 3.74896 6.13393 3.74896 6.28888 3.66763L9.26851 2.10368C9.27163 2.10204 9.27462 2.10042 9.27745 2.09881L9.27998 2.09735L9.27529 2.09469L9.26851 2.09103L6.28888 0.527076ZM9.75141 0.69858L9.94085 0.812271L9.97268 0.831697C10.0275 0.865294 10.0728 0.894158 10.1152 0.922527C10.5678 1.22578 10.7366 1.55641 10.7399 2.24419L10.74 2.26515H10.271C10.271 1.96395 10.2358 1.76598 10.1658 1.62651C10.1079 1.51092 10.0209 1.42258 9.86209 1.31508L9.85302 1.30898C9.81817 1.28563 9.77977 1.26117 9.73304 1.23242L9.67792 1.19887L9.50868 1.09738L9.75141 0.69858Z"
        fill="currentcolor"
      />
    </symbol>
    <symbol id="arbitrum-mono" width="12" height="12" viewBox="0 0 12 12" fill="none">
      <g>
        <path
          d="M6.03711 7.74296L7.69235 10.3409L9.22146 9.45478L7.04753 6.02832L6.03711 7.74296Z"
          fill="currentcolor"
        />
        <path
          d="M10.614 8.41269L10.6128 7.70265L8.23746 4.00293L7.3562 5.4983L9.64929 9.20689L10.4784 8.72645C10.5597 8.66038 10.6089 8.56346 10.6141 8.45889L10.614 8.41269Z"
          fill="currentcolor"
        />
        <path
          d="M0.659912 9.08226L1.83073 9.75693L5.72695 3.50848L5.0657 3.49103C4.50227 3.48307 3.89535 3.62954 3.61679 4.08426L1.40426 7.5136L0.659912 8.65728V9.08226Z"
          fill="currentcolor"
        />
        <path
          d="M7.97571 3.50854L6.23292 3.51487L2.29004 10.0214L3.6682 10.8149L4.04298 10.1793L7.97571 3.50854Z"
          fill="currentcolor"
        />
        <path
          d="M11.3483 3.49952C11.3337 3.13505 11.1364 2.80139 10.8273 2.60714L6.49463 0.115558C6.18886 -0.0384038 5.80688 -0.0386015 5.50056 0.115459C5.46435 0.133725 1.2872 2.5563 1.2872 2.5563C1.22939 2.58403 1.1737 2.61705 1.12133 2.65455C0.845388 2.85231 0.677189 3.15964 0.659912 3.49727V8.65729L1.40426 7.51361L1.39776 3.53215C1.39863 3.51759 1.40045 3.50325 1.40305 3.48911C1.41988 3.39544 1.47218 3.31187 1.55093 3.25539C1.57058 3.24133 5.81909 0.782122 5.83259 0.775375C5.93244 0.725224 6.05936 0.724631 6.15934 0.773817L10.4359 3.23371C10.5371 3.29815 10.6005 3.4074 10.6061 3.52683V8.45889C10.601 8.56346 10.5596 8.66038 10.4783 8.72645L9.64919 9.20689L9.22139 9.45483L7.69231 10.341L6.14165 11.2396C6.05813 11.2698 5.96047 11.2681 5.87765 11.2344L4.04296 10.1792L3.66818 10.8148L5.31694 11.7641C5.37147 11.7951 5.42004 11.8226 5.45991 11.845C5.52162 11.8796 5.56369 11.9027 5.57855 11.91C5.69573 11.9669 5.86435 12 6.01628 12C6.15559 12 6.29143 11.9744 6.41996 11.9241L10.924 9.31567C11.1825 9.11537 11.3346 8.8133 11.3483 8.48608V3.49952Z"
          fill="currentcolor"
        />
      </g>
    </symbol>
    <symbol id="optimism-mono" width="12" height="12" viewBox="0 0 12 12" fill="none">
      <g clip-path="url(#clip0_2942_37018)">
        <path
          d="M8.34884 5.29344C8.34884 5.33256 8.34428 5.37768 8.33516 5.42856C8.30516 5.55768 8.24228 5.6568 8.14604 5.72592C8.05316 5.7948 7.94348 5.82936 7.81748 5.82936H7.29956L7.47068 5.02344H8.01116C8.13404 5.02344 8.22116 5.04744 8.27228 5.09544C8.32316 5.14032 8.34884 5.20656 8.34884 5.29344Z"
          fill="white"
        />
        <path
          d="M6 0C2.68632 0 0 2.68632 0 6C0 9.31368 2.68632 12 6 12C9.31368 12 12 9.31368 12 6C12 2.68632 9.31368 0 6 0ZM5.994 5.5908C5.94888 5.85792 5.89488 6.1176 5.83176 6.36984C5.72688 6.7812 5.5452 7.08888 5.28696 7.29288C5.02872 7.49424 4.6836 7.5948 4.25112 7.5948C3.894 7.5948 3.6012 7.51056 3.37296 7.34256C3.14472 7.17456 3.03528 6.92832 3.03528 6.61296C3.03528 6.54696 3.04272 6.46584 3.05784 6.36984C3.09696 6.1536 3.1524 5.89392 3.2244 5.5908C3.42864 4.7652 3.95544 4.3524 4.80504 4.3524C5.0364 4.3524 5.24352 4.39128 5.42664 4.46952C5.60976 4.5444 5.75376 4.65864 5.85888 4.81176C5.964 4.96176 6.01656 5.142 6.01656 5.352C6.01656 5.41512 6.00912 5.49456 5.994 5.5908ZM9.16848 5.43768C9.09336 5.7828 8.94168 6.03816 8.71368 6.20328C8.48832 6.3684 8.1792 6.45096 7.78584 6.45096H7.17792L6.9708 7.43712C6.9648 7.47024 6.94824 7.49712 6.92136 7.51824C6.89424 7.53912 6.86568 7.54968 6.83568 7.54968H6.2232C6.19032 7.54968 6.16464 7.53912 6.14664 7.51824C6.13176 7.49424 6.1272 7.46712 6.1332 7.43712L6.75456 4.50984C6.76056 4.47696 6.77712 4.44984 6.80424 4.42896C6.83112 4.40784 6.85968 4.39728 6.88968 4.39728H8.08752C8.42088 4.39728 8.688 4.4664 8.88912 4.6044C9.09336 4.74264 9.19536 4.94232 9.19536 5.20344C9.19536 5.27856 9.18648 5.35656 9.16848 5.43768ZM4.74648 5.00088C4.57848 5.00088 4.43424 5.05032 4.31424 5.14944C4.19712 5.24856 4.11312 5.4 4.062 5.60424C4.008 5.80536 3.954 6.0516 3.9 6.34272C3.888 6.40272 3.882 6.46584 3.882 6.53184C3.882 6.80808 4.02 6.94632 4.31424 6.94632C4.48248 6.94632 4.62504 6.89664 4.74216 6.79752C4.86216 6.69864 4.9476 6.54696 4.99872 6.34272C5.06784 6.06048 5.1204 5.81448 5.1564 5.60424C5.1684 5.54112 5.1744 5.47656 5.1744 5.41056C5.1744 5.13744 5.04 5.00088 4.74648 5.00088Z"
          fill="white"
        />
      </g>
    </symbol>
    <symbol id="arrow" width="16" height="16" viewBox="0 0 16 16" fill="none" xmlns="http://www.w3.org/2000/svg">
      <g>
        <path
          d="M4.91991 14.0062C5.24658 14.3329 5.77325 14.3329 6.09991 14.0062L11.6399 8.46621C11.8999 8.20621 11.8999 7.78621 11.6399 7.52621L6.09991 1.98621C5.77325 1.65954 5.24658 1.65954 4.91991 1.98621C4.59325 2.31288 4.59325 2.83954 4.91991 3.16621L9.74658 7.99954L4.91325 12.8329C4.59325 13.1529 4.59325 13.6862 4.91991 14.0062Z"
          fill="currentcolor"
        />
      </g>
    </symbol>
  </defs>
</svg>
