<svg xmlns="http://www.w3.org/2000/svg" xmlns:xlink="http://www.w3.org/1999/xlink">
  <defs>
    <symbol xmlns="http://www.w3.org/2000/svg" width="20" height="20" viewBox="0 0 20 20" fill="none" id="truesight-v2">
      <path
        d="M15.5456 9.41968C14.4955 9.41968 13.6465 10.2728 13.6465 11.3188C13.6465 11.569 13.8516 11.7741 14.1018 11.7741C14.352 11.7741 14.5571 11.569 14.5571 11.3188C14.5571 10.7732 15.0042 10.3262 15.5497 10.3262C15.7999 10.3262 16.005 10.1211 16.005 9.87087C16.0009 9.62066 15.7958 9.41968 15.5456 9.41968Z"
        fill="currentcolor"
      />
      <path
        d="M18.6423 8.11123C18.5315 8.00458 18.4126 7.90204 18.2895 7.8036L16.6078 6.3762C15.9598 5.91681 15.1886 5.62559 14.3519 5.56817L14.4421 5.6584L13.4208 4.63297H13.4126C13.1296 4.37457 12.7481 4.2146 12.3339 4.2146C11.6202 4.2146 11.0172 4.67809 10.8121 5.32206C10.607 5.19081 10.3691 5.11287 10.1107 5.09647C10.0697 5.09237 10.0246 5.09237 9.98357 5.09237C9.69235 5.09237 9.42164 5.1785 9.19194 5.32206C8.98275 4.6822 8.3798 4.2187 7.67021 4.2187C7.25593 4.2187 6.87857 4.37457 6.59145 4.63708H6.58325L5.56192 5.6625L5.65216 5.57227C4.81541 5.62969 4.04019 5.92501 3.39622 6.3803L1.71452 7.8077C1.59146 7.90204 1.47252 8.00458 1.36177 8.11533C0.520918 8.92747 0 10.0636 0 11.3229C0 13.7839 2.00164 15.7855 4.46267 15.7855C6.73501 15.7855 8.6177 14.0751 8.88841 11.8725C9.21655 12.0612 9.59801 12.1678 9.99998 12.1678C10.406 12.1678 10.7834 12.0612 11.1115 11.8725C11.3864 14.071 13.2649 15.7814 15.5373 15.7814C17.9983 15.7814 20 13.7798 20 11.3188C20.0041 10.0595 19.4831 8.92337 18.6423 8.11123ZM4.46267 14.3663C2.78096 14.3663 1.41919 13.0046 1.41919 11.3229C1.41919 9.64117 2.78096 8.2794 4.46267 8.2794C6.14437 8.2794 7.50614 9.64117 7.50614 11.3229C7.51024 13.0005 6.14437 14.3663 4.46267 14.3663ZM10.0041 10.9045C9.45855 10.9045 9.01557 10.4615 9.01557 9.91598C9.01557 9.37045 9.45855 8.92747 10.0041 8.92747C10.5496 8.92747 10.9926 9.37045 10.9926 9.91598C10.9926 10.4615 10.5496 10.9045 10.0041 10.9045ZM15.5455 14.3663C13.8638 14.3663 12.502 13.0046 12.502 11.3229C12.502 9.64117 13.8638 8.2794 15.5455 8.2794C17.2272 8.2794 18.589 9.64117 18.589 11.3229C18.589 13.0005 17.2272 14.3663 15.5455 14.3663Z"
        fill="currentcolor"
      />
      <path
        d="M4.46257 9.41968C3.41253 9.41968 2.56348 10.2728 2.56348 11.3188C2.56348 11.569 2.76856 11.7741 3.01877 11.7741C3.26897 11.7741 3.47406 11.569 3.47406 11.3188C3.47406 10.7732 3.92114 10.3262 4.46667 10.3262C4.71688 10.3262 4.92196 10.1211 4.92196 9.87087C4.91786 9.62066 4.71277 9.41968 4.46257 9.41968Z"
        fill="currentcolor"
      />
    </symbol>
    <symbol width="16" height="16" viewBox="0 0 16 16" fill="none" id="notification-2">
      <g clip-path="url(#clip0_201_508)">
        <path
          d="M12 10.6667V7.33342C12 5.28675 10.9067 3.57341 9.00003 3.12008V2.66675C9.00003 2.11341 8.54669 1.66675 7.99336 1.66675C7.44003 1.66675 7.00003 2.11341 7.00003 2.66675V3.12008C5.08669 3.57341 4.00003 5.28008 4.00003 7.33342L4.00003 10.6667L3.13336 11.5267C2.71336 11.9467 3.00669 12.6667 3.60003 12.6667L12.38 12.6667C12.9734 12.6667 13.2734 11.9467 12.8534 11.5267L12 10.6667ZM7.99336 14.6667C8.72669 14.6667 9.32669 14.0667 9.32669 13.3334L6.66003 13.3334C6.66003 14.0667 7.25336 14.6667 7.99336 14.6667ZM4.51336 3.15341C4.79336 2.90008 4.80003 2.46675 4.53336 2.20008C4.28003 1.94675 3.86669 1.94008 3.60669 2.18675C2.46669 3.22675 1.68003 4.64008 1.42669 6.22675C1.36669 6.63341 1.68003 7.00008 2.09336 7.00008C2.41336 7.00008 2.69336 6.76675 2.74669 6.44675C2.94669 5.15341 3.58669 4.00008 4.51336 3.15341ZM12.4 2.18675C12.1334 1.94008 11.72 1.94675 11.4667 2.20008C11.2 2.46675 11.2134 2.89341 11.4867 3.14675C12.4067 3.99341 13.0534 5.14675 13.2534 6.44008C13.3 6.76008 13.58 6.99341 13.9067 6.99341C14.3134 6.99341 14.6334 6.62675 14.5667 6.22008C14.3134 4.64008 13.5334 3.23341 12.4 2.18675Z"
          fill="currentcolor"
        />
      </g>
      <defs>
        <clipPath id="clip0_201_508">
          <rect width="16" height="16" fill="currentcolor" />
        </clipPath>
      </defs>
    </symbol>
    <symbol width="16" height="16" viewBox="0 0 16 16" fill="none" id="bullish">
      <path
        d="M12.5283 0C13.1769 3.98225 11.7713 3.82024 11.7713 3.82024L8.03056 3.67873V3.67623L8.00056 3.67723L7.96956 3.67623V3.67873L4.22832 3.82024C4.22832 3.82024 2.82274 3.98225 3.47128 0C-1.12301 6.50491 4.94887 5.51334 5.03938 5.74786C5.12988 5.98237 4.11982 7.35196 4.19282 8.16251C4.26533 8.97306 5.67942 9.40559 5.86893 9.94562C6.49047 11.7837 4.51734 13.5668 6.35396 14.0289C6.42746 14.0469 6.50497 14.0644 6.58247 14.0809C6.55947 14.1889 6.54747 14.2999 6.54747 14.4144C6.54747 15.2885 7.25851 16 8.13307 16C9.00712 16 9.71867 15.2885 9.71867 14.4144C9.71867 14.2789 9.70067 14.1484 9.66766 14.0229C11.4688 13.5538 9.51315 11.7767 10.1332 9.94612C10.3227 9.40609 11.7368 8.97356 11.8098 8.16301C11.8828 7.35246 10.8727 5.98287 10.9632 5.74836C11.0507 5.51335 17.1231 6.50491 12.5283 0ZM8.13157 15.5685C7.49603 15.5685 6.9775 15.0519 6.9775 14.4154C6.9775 14.3269 6.9895 14.2409 7.009 14.1589C7.43402 14.2234 7.82455 14.2549 7.96906 14.2669V14.2709C7.96906 14.2709 7.98106 14.2704 8.00006 14.2689C8.01756 14.2704 8.03056 14.2709 8.03056 14.2709V14.2669C8.20357 14.2544 8.72761 14.2114 9.24164 14.1169C9.26714 14.2114 9.28564 14.3114 9.28564 14.4154C9.28564 15.0519 8.76761 15.5685 8.13157 15.5685Z"
        fill="currentcolor"
      />
    </symbol>
    <symbol width="16" height="16" viewBox="0 0 16 16" fill="none" id="bearish">
      <path
        d="M0 4.91096C3.14713e-05 3.52406 1.17093 2.39578 2.61021 2.39578C3.30768 2.39578 3.96152 2.6599 4.44452 3.12106C5.48233 2.42706 6.72605 2.04956 8.00002 2.04956C9.27408 2.04956 10.5177 2.42706 11.5555 3.12109C12.0386 2.6599 12.6924 2.39581 13.3898 2.39581C14.8291 2.39578 16 3.52409 16 4.91096C16 5.55402 15.7483 6.16587 15.2913 6.63374C14.9804 6.95196 14.5941 7.18349 14.1695 7.31124C14.1971 7.53971 14.211 7.76996 14.211 8.00008C14.211 11.2811 11.4248 13.9505 8.00002 13.9505C4.57524 13.9505 1.78896 11.2812 1.78896 8.00008C1.78896 7.76971 1.80287 7.53924 1.8305 7.31052C0.767717 6.98802 0 6.02443 0 4.91096ZM6.3513 9.39661L7.45911 10.5044V11.2458C7.45911 11.5446 7.7013 11.7868 8.00008 11.7868C8.29886 11.7868 8.54105 11.5446 8.54105 11.2458V10.5044L9.64873 9.39658C9.80345 9.24186 9.8497 9.0092 9.76601 8.80705C9.68226 8.60492 9.48501 8.47311 9.26623 8.47311H6.7338C6.51499 8.47311 6.31777 8.60492 6.23402 8.80705C6.1503 9.00917 6.19658 9.24189 6.3513 9.39661Z"
        fill="currentcolor"
      />
    </symbol>
    <symbol width="16" height="16" viewBox="0 0 16 16" fill="none" id="trending-soon">
      <g clip-path="url(#clip0_4_6338)">
        <path
          d="M11.754 5.24119C12.0925 5.03198 12.1972 4.588 11.988 4.24954C11.7788 3.91107 11.3349 3.80628 10.9964 4.01549C10.6579 4.22469 10.5531 4.66867 10.7623 5.00714C10.9715 5.34561 11.4155 5.4504 11.754 5.24119Z"
          fill="currentcolor"
        />
        <path
          d="M0.882738 13.11C-0.23948 14.2322 0.0278326 15.9717 0.0278326 15.9717C0.0278326 15.9717 1.76727 16.239 2.88949 15.1167C3.53074 14.5195 3.65349 13.661 3.00836 12.9911C2.34796 12.325 1.42555 12.5051 0.882738 13.11Z"
          fill="currentcolor"
        />
        <path
          d="M15.9912 0.00899047C15.5721 -0.0150721 14.779 -0.00444709 13.7343 0.264304C12.2709 0.640555 10.0006 1.61525 7.49555 4.12057C5.99773 5.61807 5.0321 7.03776 4.16772 8.54121L5.48117 9.85465L5.98867 9.34683L6.65242 10.0106L6.14492 10.5181L7.45805 11.8315C8.96181 10.9672 10.3812 10.0015 11.8787 8.50402C15.8896 4.49307 16.0531 1.06431 15.9912 0.00899047ZM9.7065 4.62963C9.7065 3.70963 10.4512 2.964 11.3699 2.964C12.2884 2.964 13.0331 3.70963 13.0331 4.62963C13.0331 5.54963 12.2884 6.29557 11.3699 6.29557C10.4512 6.29557 9.7065 5.54963 9.7065 4.62963Z"
          fill="currentcolor"
        />
        <path
          d="M4.97377 11.6895L4.31018 11.0259L4.81777 10.5183L3.69202 9.39258C3.49059 9.76139 2.99421 10.6918 2.94824 10.7778L5.22187 13.0514C5.30787 13.0055 6.23821 12.5091 6.60712 12.3077L5.48137 11.1819L4.97377 11.6895Z"
          fill="currentcolor"
        />
        <path
          d="M9.04292 13.5132V15.1522L9.86238 15.9717L11.5014 14.3327L12.5324 9.17749C11.0119 10.6961 9.58395 11.6829 8.08423 12.5545L9.04292 13.5132Z"
          fill="currentcolor"
        />
        <path
          d="M2.48627 6.95627L3.44499 7.91498C4.31662 6.41523 5.3034 4.98733 6.82202 3.4668L1.6668 4.49786L0.027832 6.1368L0.847301 6.95627H2.48627Z"
          fill="currentcolor"
        />
      </g>
      <defs>
        <clipPath id="clip0_4_6338">
          <rect width="16" height="16" fill="currentcolor" />
        </clipPath>
      </defs>
    </symbol>
    <symbol width="16" height="16" viewBox="0 0 16 16" fill="none" id="flame">
      <g clip-path="url(#clip0_4_6334)">
        <path
          d="M2.03419 9.36778C2.21747 6.98156 3.32847 5.48622 4.30859 4.16665C5.21616 2.94503 6 1.89009 6 0.333904C6 0.208904 6.07 0.0946543 6.181 0.037373C6.29234 -0.020252 6.42613 -0.0108145 6.52734 0.062748C7.99934 1.11606 9.22753 2.89134 9.65656 4.58522C9.95441 5.7645 9.99381 7.09025 9.99934 7.96584C11.3587 7.6755 11.6667 5.64212 11.6699 5.61997C11.6852 5.5145 11.7497 5.42272 11.8434 5.37259C11.9381 5.32312 12.0495 5.31953 12.1455 5.36706C12.2168 5.40156 13.8952 6.25437 13.9928 9.65941C13.9997 9.77269 14 9.88631 14 9.99991C14 13.3079 11.3083 15.9995 8 15.9995C7.99544 15.9998 7.99056 16.0005 7.98666 15.9995C7.98534 15.9995 7.98406 15.9995 7.98244 15.9995C4.68228 15.99 2 13.3021 2 9.99991C2 9.83356 2.03419 9.36778 2.03419 9.36778ZM8 15.3329C9.10287 15.3329 10 14.3772 10 13.2025C10 13.1625 10.0003 13.1221 9.99741 13.0726C9.98406 12.5772 9.88997 12.239 9.78678 12.0141C9.59341 12.4294 9.24772 12.8112 8.68619 12.8112C8.50194 12.8112 8.35284 12.6622 8.35284 12.4779C8.35284 12.0034 8.34306 11.4559 8.22491 10.9617C8.11975 10.5236 7.86847 10.0575 7.55009 9.68384C7.4085 10.1688 7.13244 10.5614 6.86291 10.9445C6.47716 11.4926 6.07841 12.0593 6.00841 13.0258C6.00419 13.083 5.99994 13.1407 5.99994 13.2025C6 14.3772 6.89713 15.3329 8 15.3329Z"
          fill="currentcolor"
        />
      </g>
      <defs>
        <clipPath id="clip0_4_6334">
          <rect width="16" height="16" fill="white" transform="matrix(-1 0 0 1 16 0)" />
        </clipPath>
      </defs>
    </symbol>
    <symbol id="download" width="16" height="16" viewBox="0 0 16 16" fill="none">
      <g clip-path="url(#clip0_4_6331)">
        <path
          d="M11.0599 6H9.99992V2.66667C9.99992 2.3 9.69992 2 9.33325 2H6.66659C6.29992 2 5.99992 2.3 5.99992 2.66667V6H4.93992C4.34659 6 4.04659 6.72 4.46659 7.14L7.52659 10.2C7.78659 10.46 8.20659 10.46 8.46659 10.2L11.5266 7.14C11.9466 6.72 11.6533 6 11.0599 6ZM3.33325 12.6667C3.33325 13.0333 3.63325 13.3333 3.99992 13.3333H11.9999C12.3666 13.3333 12.6666 13.0333 12.6666 12.6667C12.6666 12.3 12.3666 12 11.9999 12H3.99992C3.63325 12 3.33325 12.3 3.33325 12.6667Z"
          fill="currentcolor"
        />
      </g>
      <defs>
        <clipPath id="clip0_4_6331">
          <rect width="16" height="16" fill="white" />
        </clipPath>
      </defs>
    </symbol>
    <symbol id="upload" width="16" height="16" viewBox="0 0 16 16" fill="none">
      <path
        d="M11.06 10L10 10L10 13.3333C10 13.7 9.70004 14 9.33337 14L6.66671 14C6.30004 14 6.00004 13.7 6.00004 13.3333L6.00004 10L4.94004 10C4.34671 10 4.04671 9.28 4.46671 8.86L7.52671 5.8C7.78671 5.54 8.20671 5.54 8.46671 5.8L11.5267 8.86C11.9467 9.28 11.6534 10 11.06 10ZM3.33338 3.33333C3.33338 2.96667 3.63338 2.66667 4.00004 2.66667L12 2.66667C12.3667 2.66667 12.6667 2.96667 12.6667 3.33334C12.6667 3.7 12.3667 4 12 4L4.00004 4C3.63338 4 3.33338 3.7 3.33338 3.33333Z"
        fill="currentcolor"
      />
    </symbol>
    <symbol id="coin-bag" width="16" height="16" viewBox="0 0 16 16" fill="none">
      <path
        d="M8.00004 4.74902C4.56745 4.74902 1.90576 8.52909 1.90576 11.7809C1.90576 15.5628 5.38417 16 8.00004 16C10.6159 16 14.0943 15.5628 14.0943 11.7809C14.0943 8.52909 11.4326 4.74902 8.00004 4.74902ZM8.48164 12.6337C8.47742 12.6353 8.47304 12.6346 8.46883 12.636V13.1872C8.46883 13.4463 8.25914 13.656 8.00004 13.656C7.74095 13.656 7.53126 13.4463 7.53126 13.1872V12.6328C7.22223 12.5285 6.9262 12.3307 6.67336 12.0294C6.50673 11.8312 6.53236 11.5355 6.73104 11.3688C6.92882 11.2022 7.22454 11.2274 7.3912 11.426C8.31551 12.53 8.93945 10.8432 8.00008 10.8432C7.22458 10.8432 6.5937 10.2124 6.5937 9.43687C6.5937 8.8759 6.91486 8.34099 7.53129 8.12159V7.56168C7.53129 7.30255 7.74098 7.0929 8.00008 7.0929C8.2592 7.0929 8.46886 7.30259 8.46886 7.56168V8.12312C8.71158 8.2049 8.94823 8.33481 9.15923 8.53909C9.34511 8.71943 9.35061 9.01612 9.17023 9.20199C8.98989 9.38834 8.6932 9.39334 8.50733 9.21299C7.64495 8.37993 7.06248 9.90565 8.00011 9.90565C8.77561 9.90565 9.40648 10.5365 9.40648 11.312C9.40642 11.9008 9.03467 12.4323 8.48164 12.6337Z"
        fill="currentcolor"
      />
      <path
        d="M10.6735 0.377672C8.94302 -0.125891 7.05686 -0.125891 5.32636 0.377672C5.03599 0.461703 4.89736 0.798859 5.05352 1.0653L5.76258 2.33467C6.99552 1.84408 8.82427 1.77083 10.2371 2.33489L10.9463 1.0653C11.1025 0.798859 10.9639 0.461734 10.6735 0.377672Z"
        fill="currentcolor"
      />
      <path
        d="M10.1766 3.35635C9.29947 2.73841 6.72647 2.71263 5.81791 3.35922C5.42838 3.63419 5.221 4.06619 5.22503 4.51747C6.12522 4.0406 7.18072 3.81138 7.99997 3.81138C8.99781 3.81138 9.93253 4.07119 10.775 4.51747C10.7788 4.08269 10.5856 3.64478 10.1766 3.35635Z"
        fill="currentcolor"
      />
    </symbol>
    <symbol id="speaker" width="16" height="16" viewBox="0 0 16 16" fill="none">
      <g clip-path="url(#clip0_4_6320)">
        <path
          d="M12 7.99992C12 8.36659 12.3 8.66659 12.6667 8.66659H14C14.3667 8.66659 14.6667 8.36659 14.6667 7.99992C14.6667 7.63325 14.3667 7.33325 14 7.33325H12.6667C12.3 7.33325 12 7.63325 12 7.99992Z"
          fill="currentcolor"
        />
        <path
          d="M11.06 11.2133C10.84 11.5066 10.9 11.9133 11.1933 12.1266C11.5467 12.3866 11.92 12.6666 12.2733 12.9333C12.5667 13.1533 12.98 13.0933 13.1933 12.7999C13.1933 12.7933 13.2 12.7933 13.2 12.7866C13.42 12.4933 13.36 12.0799 13.0667 11.8666C12.7133 11.5999 12.34 11.3199 11.9933 11.0599C11.7 10.8399 11.2867 10.9066 11.0667 11.1999C11.0667 11.2066 11.06 11.2133 11.06 11.2133Z"
          fill="currentcolor"
        />
        <path
          d="M13.2066 3.20678C13.2066 3.20011 13.2 3.20011 13.2 3.19344C12.98 2.90011 12.5666 2.84011 12.28 3.06011C11.9266 3.32678 11.5466 3.60678 11.2 3.87344C10.9066 4.09344 10.8533 4.50678 11.0733 4.79344C11.0733 4.80011 11.08 4.80011 11.08 4.80678C11.3 5.10011 11.7066 5.16011 12 4.94011C12.3533 4.68011 12.7266 4.39344 13.08 4.12678C13.3666 3.91344 13.42 3.50011 13.2066 3.20678Z"
          fill="currentcolor"
        />
        <path
          d="M5.33337 6H2.66671C1.93337 6 1.33337 6.6 1.33337 7.33333V8.66667C1.33337 9.4 1.93337 10 2.66671 10H3.33337V12C3.33337 12.3667 3.63337 12.6667 4.00004 12.6667C4.36671 12.6667 4.66671 12.3667 4.66671 12V10H5.33337L8.66671 12V4L5.33337 6Z"
          fill="currentcolor"
        />
        <path
          d="M10.3334 7.99993C10.3334 7.11327 9.94671 6.31327 9.33337 5.7666V10.2266C9.94671 9.6866 10.3334 8.8866 10.3334 7.99993Z"
          fill="currentcolor"
        />
      </g>
      <defs>
        <clipPath id="clip0_4_6320">
          <rect width="16" height="16" fill="white" />
        </clipPath>
      </defs>
    </symbol>
    <symbol id="share" width="17" height="16" viewBox="0 0 17 16" fill="none">
      <g clip-path="url(#clip0_201_1473)">
        <path
          d="M11.1278 12.465L11.1984 12.1685L11.4122 11.9752C11.5941 11.8108 11.814 11.72 12.0483 11.72C12.5694 11.72 12.995 12.1457 12.995 12.6667C12.995 13.1878 12.5694 13.6134 12.0483 13.6134C11.5273 13.6134 11.1017 13.1878 11.1017 12.6667C11.1017 12.6095 11.1097 12.5412 11.1278 12.465ZM5.01116 8.25428L4.95382 8.51805L4.72893 8.72628C4.53959 8.9016 4.30439 9.00004 4.04834 9.00004C3.49396 9.00004 3.04834 8.55442 3.04834 8.00004C3.04834 7.44566 3.49396 7.00004 4.04834 7.00004C4.30439 7.00004 4.53959 7.09848 4.72893 7.2738L4.95382 7.48203L5.01116 7.7458C5.03974 7.87727 5.04834 7.94784 5.04834 8.00004C5.04834 8.05224 5.03974 8.12281 5.01116 8.25428ZM11.3677 4.05961L11.1429 3.85138L11.0855 3.58761C11.0569 3.45615 11.0483 3.38557 11.0483 3.33337C11.0483 2.77899 11.494 2.33337 12.0483 2.33337C12.6027 2.33337 13.0483 2.77899 13.0483 3.33337C13.0483 3.88776 12.6027 4.33337 12.0483 4.33337C11.7923 4.33337 11.5571 4.23493 11.3677 4.05961Z"
          fill="currentcolor"
          stroke="currentcolor"
          stroke-width="2"
        />
      </g>
      <defs>
        <clipPath id="clip0_201_1473">
          <rect width="16" height="16" fill="white" transform="translate(0.0483398)" />
        </clipPath>
      </defs>
    </symbol>
    <symbol id="swap" width="16" height="16" viewBox="0 0 16 16" fill="none">
      <path
        d="M11.3334 0.666626L14 3.33329L11.3334 5.99996"
        stroke="currentcolor"
        stroke-width="1.2"
        stroke-linecap="round"
        stroke-linejoin="round"
      />
      <path
        d="M2 7.33337V6.00004C2 5.2928 2.28095 4.61452 2.78105 4.11442C3.28115 3.61433 3.95942 3.33337 4.66667 3.33337H14"
        stroke="currentcolor"
        stroke-width="1.2"
        stroke-linecap="round"
        stroke-linejoin="round"
      />
      <path
        d="M4.66667 15.3333L2 12.6667L4.66667 10"
        stroke="currentcolor"
        stroke-width="1.2"
        stroke-linecap="round"
        stroke-linejoin="round"
      />
      <path
        d="M14 8.66663V9.99996C14 10.7072 13.719 11.3855 13.219 11.8856C12.7189 12.3857 12.0406 12.6666 11.3333 12.6666H2"
        stroke="currentcolor"
        stroke-width="1.2"
        stroke-linecap="round"
        stroke-linejoin="round"
      />
    </symbol>
    <symbol id="copy" width="16" height="16" viewBox="0 0 16 16" fill="none">
      <g clip-path="url(#clip0_201_6228)">
        <path
          d="M10 13.3334H3.33333V4.66671C3.33333 4.30004 3.03333 4.00004 2.66667 4.00004C2.3 4.00004 2 4.30004 2 4.66671V13.3334C2 14.0667 2.6 14.6667 3.33333 14.6667H10C10.3667 14.6667 10.6667 14.3667 10.6667 14C10.6667 13.6334 10.3667 13.3334 10 13.3334ZM13.3333 10.6667V2.66671C13.3333 1.93337 12.7333 1.33337 12 1.33337H6C5.26667 1.33337 4.66667 1.93337 4.66667 2.66671V10.6667C4.66667 11.4 5.26667 12 6 12H12C12.7333 12 13.3333 11.4 13.3333 10.6667ZM12 10.6667H6V2.66671H12V10.6667Z"
          fill="currentcolor"
        />
      </g>
      <defs>
        <clipPath id="clip0_201_6228">
          <rect width="16" height="16" fill="white" />
        </clipPath>
      </defs>
    </symbol>
    <symbol id="open-link" width="16" height="16" viewBox="0 0 16 16" fill="none">
      <g clip-path="url(#clip0_201_6300)">
        <path
          d="M12 12.6667H4C3.63333 12.6667 3.33333 12.3667 3.33333 12V4C3.33333 3.63333 3.63333 3.33333 4 3.33333H7.33333C7.7 3.33333 8 3.03333 8 2.66667C8 2.3 7.7 2 7.33333 2H3.33333C2.59333 2 2 2.6 2 3.33333V12.6667C2 13.4 2.6 14 3.33333 14H12.6667C13.4 14 14 13.4 14 12.6667V8.66667C14 8.3 13.7 8 13.3333 8C12.9667 8 12.6667 8.3 12.6667 8.66667V12C12.6667 12.3667 12.3667 12.6667 12 12.6667ZM9.33333 2.66667C9.33333 3.03333 9.63333 3.33333 10 3.33333H11.7267L5.64 9.42C5.38 9.68 5.38 10.1 5.64 10.36C5.9 10.62 6.32 10.62 6.58 10.36L12.6667 4.27333V6C12.6667 6.36667 12.9667 6.66667 13.3333 6.66667C13.7 6.66667 14 6.36667 14 6V2.66667C14 2.3 13.7 2 13.3333 2H10C9.63333 2 9.33333 2.3 9.33333 2.66667Z"
          fill="#A9A9A9"
        />
      </g>
      <defs>
        <clipPath id="clip0_201_6300">
          <rect width="16" height="16" fill="white" />
        </clipPath>
      </defs>
    </symbol>
    <symbol id="star" width="16" height="16" viewBox="0 0 16 16" fill="none">
      <path
        d="M14.9555 6.87512L11.841 9.91112L12.5765 14.1991C12.6085 14.3866 12.5315 14.5761 12.3775 14.6881C12.2905 14.7516 12.187 14.7836 12.0835 14.7836C12.004 14.7836 11.924 14.7646 11.851 14.7261L7.99995 12.7016L4.14946 14.7256C3.98146 14.8146 3.77696 14.8001 3.62296 14.6876C3.46896 14.5756 3.39196 14.3861 3.42396 14.1986L4.15946 9.91062L1.04446 6.87512C0.908456 6.74212 0.858956 6.54312 0.917956 6.36262C0.976956 6.18212 1.13346 6.04962 1.32196 6.02212L5.62646 5.39712L7.55145 1.49612C7.71995 1.15462 8.27995 1.15462 8.44845 1.49612L10.3735 5.39712L14.678 6.02212C14.8665 6.04962 15.023 6.18162 15.082 6.36262C15.141 6.54362 15.0915 6.74162 14.9555 6.87512Z"
        fill="currentcolor"
      />
    </symbol>
    <symbol id="fullscreen" width="24" height="24" viewBox="0 0 24 24" fill="none">
      <g clip-path="url(#clip0_283_21738)">
        <path
          d="M15 3L17.3 5.3L14.41 8.17L15.83 9.59L18.7 6.7L21 9V3H15ZM3 9L5.3 6.7L8.17 9.59L9.59 8.17L6.7 5.3L9 3H3V9ZM9 21L6.7 18.7L9.59 15.83L8.17 14.41L5.3 17.3L3 15V21H9ZM21 15L18.7 17.3L15.83 14.41L14.41 15.83L17.3 18.7L15 21H21V15Z"
          fill="currentcolor"
        />
      </g>
      <defs>
        <clipPath id="clip0_283_21738">
          <rect width="24" height="24" fill="white" />
        </clipPath>
      </defs>
    </symbol>
  </defs>
</svg>
