<svg width="20" height="20" viewBox="0 0 20 20" fill="none" xmlns="http://www.w3.org/2000/svg">
<g id="left-icon">
<path id="Vector" d="M12.5 3.33203C8.81671 3.33203 5.83337 6.31536 5.83337 9.9987C5.83337 13.682 8.81671 16.6654 12.5 16.6654C16.1834 16.6654 19.1667 13.682 19.1667 9.9987C19.1667 6.31536 16.1834 3.33203 12.5 3.33203ZM12.5 14.9987C9.74171 14.9987 7.50004 12.757 7.50004 9.9987C7.50004 7.24036 9.74171 4.9987 12.5 4.9987C15.2584 4.9987 17.5 7.24036 17.5 9.9987C17.5 12.757 15.2584 14.9987 12.5 14.9987ZM2.50004 9.9987C2.50004 7.8237 3.89171 5.9737 5.83337 5.29036V3.5487C2.95837 4.29036 0.833374 6.89036 0.833374 9.9987C0.833374 13.107 2.95837 15.707 5.83337 16.4487V14.707C3.89171 14.0237 2.50004 12.1737 2.50004 9.9987Z" fill="currentColor"/>
</g>
</svg>
