<svg width="16" height="16" viewBox="0 0 16 16" fill="none" xmlns="http://www.w3.org/2000/svg">
<path d="M9.77145 9.09522L10.125 8.74167L9.77145 9.09522C10.0713 9.39504 10.442 9.56667 10.8667 9.56667C11.2913 9.56667 11.6621 9.39504 11.9619 9.09522C12.266 8.7911 12.4333 8.4135 12.4333 7.98333C12.4333 7.55797 12.261 7.18784 11.9573 6.89188C11.6564 6.59869 11.287 6.43333 10.8667 6.43333C10.4463 6.43333 10.077 6.59869 9.77607 6.89188L10.125 7.25L9.77607 6.89189C9.47233 7.18784 9.3 7.55797 9.3 7.98333C9.3 8.4135 9.46733 8.7911 9.77145 9.09522ZM8.96667 10.6167C8.69283 10.6167 8.53018 10.5397 8.42022 10.4298C8.3074 10.317 8.23333 10.1579 8.23333 9.9V6.11667C8.23333 5.84237 8.31035 5.68574 8.41572 5.583C8.52505 5.47641 8.68924 5.4 8.96667 5.4H13.45C13.7274 5.4 13.8916 5.47641 14.001 5.583C14.1063 5.68574 14.1833 5.84237 14.1833 6.11667L14.1833 9.9C14.1833 10.1579 14.1093 10.317 13.9964 10.4298C13.8865 10.5397 13.7238 10.6167 13.45 10.6167H8.96667ZM3 13.5C2.89103 13.5 2.78164 13.4629 2.65701 13.3416C2.54009 13.2279 2.5 13.1208 2.5 13L2.5 3C2.5 2.89566 2.53607 2.7877 2.66189 2.66189C2.7877 2.53607 2.89566 2.5 3 2.5L13 2.5C13.1208 2.5 13.2279 2.54009 13.3416 2.65701C13.4629 2.78164 13.5 2.89103 13.5 3V3.4L8.96667 3.4C8.20122 3.4 7.53701 3.65589 7.01311 4.17978C6.49099 4.7019 6.23333 5.35965 6.23333 6.11667V9.9C6.23333 10.657 6.49099 11.3148 7.01311 11.8369C7.53701 12.3608 8.20122 12.6167 8.96667 12.6167H13.5V13C13.5 13.1254 13.459 13.2339 13.3464 13.3464C13.2339 13.459 13.1254 13.5 13 13.5L3 13.5Z" fill="currentColor" stroke="currentColor"/>
</svg>
