<svg width="16" height="16" viewBox="0 0 16 16" fill="none" xmlns="http://www.w3.org/2000/svg">
<g clip-path="url(#clip0_842_50828)">
<path d="M12.071 9.88079H15.8854V6.81445H12.071V9.88079ZM13.8014 7.75912C14.0794 7.75912 14.3047 8.02279 14.3047 8.34712C14.3047 8.67245 14.0794 8.93545 13.8014 8.93545C13.5234 8.93545 13.298 8.67245 13.298 8.34712C13.2984 8.02279 13.5234 7.75912 13.8014 7.75912Z" fill="#A9A9A9"/>
<path d="M11.788 6.24823H15.8854V3.97623C15.8854 3.42457 15.4967 2.97557 15.0187 2.97557H14.1684L13.822 1.04023C13.7517 0.645234 13.542 0.316901 13.2477 0.137568C13.0174 -0.0024323 12.7524 -0.037099 12.5027 0.0405677L3.18371 2.92857C2.94004 3.00357 2.72438 3.18323 2.57704 3.43357L2.58438 3.43823C2.49804 3.5939 2.44604 3.7779 2.44604 3.97623V8.6699C2.82371 8.56057 3.22271 8.49957 3.63605 8.49957C5.94605 8.49957 7.82571 10.3316 7.82571 12.5836C7.82571 12.9476 7.77605 13.3046 7.67971 13.6512H15.0184C15.4964 13.6512 15.885 13.2019 15.885 12.6506V10.4466H11.788C11.6317 10.4466 11.505 10.3199 11.505 10.1636V6.53123C11.5054 6.37457 11.632 6.24823 11.788 6.24823ZM4.94405 2.97557L12.6707 0.580901C12.7657 0.551568 12.8614 0.564901 12.9547 0.621234C13.1077 0.714568 13.2244 0.908234 13.2657 1.14023L13.5944 2.97557H4.94405Z" fill="#A9A9A9"/>
<path d="M3.63666 9.16797C1.69466 9.16797 0.11499 10.7006 0.11499 12.5843C0.11499 14.468 1.69432 16.0006 3.63666 16.0006C5.09466 16.0006 6.41932 15.1123 6.93332 13.7896C7.08299 13.4053 7.15866 12.9996 7.15866 12.5843C7.15866 10.7006 5.57866 9.16797 3.63666 9.16797ZM3.96966 14.4983C3.96966 14.683 3.81999 14.832 3.63599 14.832C3.45166 14.832 3.30232 14.683 3.30232 14.4983V14.034C3.30232 13.8496 3.45166 13.7003 3.63599 13.7003C3.82032 13.7003 3.96966 13.8496 3.96966 14.034V14.4983ZM3.97132 12.8306C3.97132 13.0153 3.82199 13.1646 3.63766 13.1646C3.45332 13.1646 3.30399 13.0153 3.30399 12.8306V10.6706C3.30399 10.486 3.45332 10.3366 3.63766 10.3366C3.82199 10.3366 3.97132 10.486 3.97132 10.6706V12.8306Z" fill="#A9A9A9"/>
</g>
<defs>
<clipPath id="clip0_842_50828">
<rect width="16" height="16" fill="white"/>
</clipPath>
</defs>
</svg>
