<svg width="14" height="14" viewBox="0 0 14 14" fill="none" xmlns="http://www.w3.org/2000/svg">
<path d="M7.00004 0.333984C3.32004 0.333984 0.333374 3.32065 0.333374 7.00065C0.333374 10.6807 3.32004 13.6673 7.00004 13.6673C10.68 13.6673 13.6667 10.6807 13.6667 7.00065C13.6667 3.32065 10.68 0.333984 7.00004 0.333984ZM7.00004 10.334C6.63337 10.334 6.33337 10.034 6.33337 9.66732V7.00065C6.33337 6.63398 6.63337 6.33398 7.00004 6.33398C7.36671 6.33398 7.66671 6.63398 7.66671 7.00065V9.66732C7.66671 10.034 7.36671 10.334 7.00004 10.334ZM7.66671 5.00065H6.33337V3.66732H7.66671V5.00065Z" fill="#A9A9A9"/>
</svg>
