<svg width="221" height="53" viewBox="0 0 221 53" fill="none" xmlns="http://www.w3.org/2000/svg">
<path fill-rule="evenodd" clip-rule="evenodd" d="M98.2675 37.2989C99.4726 33.8816 100.064 30.2767 100.015 26.6519C100.062 23.039 99.4708 19.4462 98.2675 16.0408C97.1938 13.0086 95.5201 10.2257 93.3472 7.85965C91.2137 5.58259 88.6173 3.7927 85.734 2.61162C82.6238 1.35447 79.2961 0.728968 75.9436 0.771153C72.5957 0.727534 69.2734 1.36072 66.1746 2.63313C63.3025 3.82413 60.7132 5.60993 58.5756 7.87399C56.4014 10.2336 54.7274 13.0121 53.6554 16.0408C52.4521 19.4462 51.8605 23.039 51.9079 26.6519C51.8586 30.2767 52.4502 33.8816 53.6554 37.2989C54.7274 40.3277 56.4014 43.1062 58.5756 45.4658C60.71 47.7299 63.3005 49.5116 66.1746 50.6922C72.4652 53.1459 79.4433 53.1459 85.734 50.6922C88.6133 49.5137 91.2089 47.7318 93.3472 45.4658C95.5216 43.1062 97.1954 40.3277 98.2675 37.2989ZM94.7782 17.1266C95.7822 20.1993 96.2663 23.4189 96.2106 26.6521C96.2696 29.8902 95.7854 33.1152 94.7782 36.1921C93.8969 38.8313 92.4856 41.261 90.6314 43.3308C88.8461 45.2918 86.6427 46.8229 84.1856 47.8096C78.8832 49.852 73.0153 49.852 67.713 47.8096C65.2591 46.8168 63.057 45.2866 61.2672 43.3308C59.4041 41.2625 57.9831 38.8329 57.0917 36.1921C56.0663 33.1186 55.5674 29.893 55.6164 26.6521C55.5769 23.4278 56.0781 20.2199 57.0989 17.1626C57.984 14.5038 59.4054 12.0565 61.2744 9.9734C63.0673 8.01785 65.2683 6.48363 67.7202 5.4803C73.0172 3.40955 78.8956 3.40955 84.1928 5.4803C86.6479 6.47748 88.8501 8.01262 90.6386 9.9734C92.4918 12.048 93.9008 14.4828 94.7782 17.1266Z" fill="#0364FF"/>
<path fill-rule="evenodd" clip-rule="evenodd" d="M139.361 52.7675C139.754 52.7675 139.976 52.3178 139.737 52.0069L123.074 30.366C122.655 29.7939 122.138 29.3064 121.547 28.9281C123.592 28.7027 125.593 28.1749 127.492 27.3609C129.156 26.6409 130.681 25.6181 131.994 24.3414C133.224 23.1228 134.194 21.654 134.844 20.0279C135.524 18.3102 135.862 16.4695 135.841 14.6145C135.827 10.1524 134.383 6.76873 131.506 4.46341C128.63 2.15808 124.309 1.00537 118.544 1.00537H106.18C105.918 1.00537 105.706 1.21701 105.706 1.47811V52.2948C105.706 52.5559 105.918 52.7675 106.18 52.7675H108.884C109.145 52.7675 109.358 52.5559 109.358 52.2948V29.8322C109.358 29.5711 109.57 29.3595 109.832 29.3595H115.937C116.359 29.3555 116.781 29.382 117.198 29.4386C117.504 29.4712 117.801 29.5512 118.083 29.6759C118.341 29.7814 118.577 29.935 118.78 30.1287C118.995 30.3502 119.192 30.5907 119.366 30.8476L135.465 51.8472C135.652 52.1512 135.914 52.3991 136.225 52.5662C136.542 52.7107 136.888 52.7795 137.235 52.7675H139.361ZM123.994 25.7506C122.054 26.3286 120.042 26.6072 118.022 26.5774H109.833C109.571 26.5774 109.359 26.3658 109.359 26.1047V4.44017C109.359 4.17907 109.571 3.96743 109.833 3.96743H118.552C123.007 3.97224 126.396 4.86365 128.719 6.64177C131.043 8.41988 132.204 11.1494 132.204 14.8303C132.229 16.5046 131.904 18.1648 131.249 19.6973C130.611 21.1357 129.656 22.4008 128.461 23.3926C127.138 24.4759 125.62 25.2774 123.994 25.7506Z" fill="#0364FF"/>
<path d="M164.721 49.4713C166.971 49.5128 169.204 49.0773 171.275 48.1928C173.139 47.3767 174.805 46.1637 176.161 44.637C177.527 43.0726 178.568 41.248 179.225 39.271C179.937 37.1255 180.288 34.8748 180.264 32.6121V1.71443C180.264 1.32288 180.582 1.00537 180.976 1.00537H183.208C183.6 1.00537 183.918 1.32288 183.918 1.71443V32.6121C183.942 35.3041 183.493 37.9791 182.593 40.5138C181.756 42.8799 180.457 45.0533 178.775 46.907C177.085 48.7595 175.024 50.2286 172.728 51.2169C167.587 53.2861 161.855 53.2861 156.715 51.2169C154.418 50.2306 152.356 48.7612 150.668 46.907C148.984 45.0552 147.685 42.8812 146.85 40.5138C145.95 37.9791 145.501 35.3041 145.525 32.6121V1.71443C145.525 1.32288 145.843 1.00537 146.235 1.00537H148.482C148.875 1.00537 149.193 1.32288 149.193 1.71443V32.569C149.172 34.8348 149.528 37.0881 150.247 39.2352C150.903 41.2088 151.94 43.0324 153.296 44.601C154.64 46.1405 156.299 47.3662 158.161 48.1928C160.232 49.0849 162.469 49.5208 164.721 49.4713Z" fill="#0364FF"/>
<path d="M217.928 7.72857C217.772 8.09974 217.411 8.34025 217.012 8.33954C216.553 8.26234 216.134 8.02899 215.824 7.6782C215.208 7.14966 214.551 6.66903 213.862 6.24063C212.89 5.62793 211.849 5.13103 210.763 4.75986C207.707 3.80671 204.434 3.83179 201.393 4.83174C200.103 5.30314 198.923 6.03708 197.924 6.98819C197.002 7.87377 196.275 8.94671 195.791 10.1366C195.313 11.328 195.072 12.603 195.081 13.8887C195.02 15.3827 195.393 16.8619 196.154 18.1441C196.894 19.2915 197.863 20.2707 198.997 21.0194C200.254 21.8409 201.602 22.5069 203.014 23.0032C204.507 23.5351 206.05 24.067 207.628 24.5918C209.206 25.1166 210.749 25.6987 212.242 26.3241C213.683 26.9251 215.035 27.7259 216.258 28.7034C217.438 29.6646 218.406 30.8642 219.102 32.2255C219.868 33.8481 220.235 35.6331 220.175 37.4297C220.194 39.4749 219.835 41.5056 219.116 43.4174C218.421 45.2483 217.352 46.9111 215.981 48.2982C214.546 49.7236 212.838 50.8367 210.962 51.5688C208.792 52.3996 206.486 52.8045 204.166 52.762C201.226 52.8412 198.307 52.2361 195.635 50.9937C193.462 49.9136 191.501 48.4459 189.847 46.6631C189.564 46.3581 189.531 45.9015 189.752 45.5497L190.368 44.5748C190.593 44.2464 190.961 44.0462 191.356 44.0356C191.668 44.0836 191.956 44.2353 192.173 44.4669L193.375 45.5163C193.844 45.9405 194.412 46.3933 195.074 46.8821C195.794 47.4093 196.562 47.8644 197.369 48.2407C199.522 49.2447 201.867 49.7506 204.237 49.7214C206.048 49.7529 207.849 49.4433 209.548 48.8085C211.013 48.2481 212.35 47.3921 213.478 46.2927C214.551 45.2392 215.388 43.9643 215.931 42.5549C216.506 41.0814 216.796 39.5098 216.785 37.9257C216.845 36.3785 216.47 34.8456 215.703 33.5051C214.973 32.3497 214.003 31.3686 212.86 30.6298C211.606 29.8203 210.259 29.1662 208.85 28.6819C207.35 28.1571 205.816 27.6467 204.229 27.1436C202.644 26.6404 201.116 26.0869 199.616 25.4616C198.17 24.8743 196.816 24.075 195.6 23.0895C194.409 22.1102 193.44 20.8847 192.757 19.4955C191.98 17.7996 191.61 15.943 191.675 14.0757C191.675 12.3945 191.999 10.7293 192.629 9.17341C193.265 7.60611 194.217 6.18923 195.422 5.01143C196.737 3.75899 198.283 2.78188 199.972 2.1362C201.941 1.3651 204.038 0.982055 206.149 1.00765C208.536 0.970178 210.908 1.39469 213.137 2.25846C215.048 3.04502 216.797 4.18279 218.294 5.61206C218.588 5.89179 218.65 6.33156 218.464 6.69146L217.928 7.72857Z" fill="#0364FF"/>
<path fill-rule="evenodd" clip-rule="evenodd" d="M4.86502 1.00537C2.17815 1.00537 0 3.17503 0 5.85142V11.4966C0 14.173 2.17815 16.3427 4.86502 16.3427H13.4726V47.9228C13.4726 50.5992 15.6507 52.7688 18.3375 52.7688H24.005C26.6918 52.7688 28.87 50.5992 28.87 47.9228V11.5377C28.8701 11.5241 28.8702 11.5103 28.8702 11.4966V5.85142C28.8702 3.17503 26.692 1.00537 24.0051 1.00537H18.3375H4.86502Z" fill="#0364FF"/>
<path d="M40.4189 16.3427C44.6707 16.3427 48.1176 12.9093 48.1176 8.67402C48.1176 4.43873 44.6707 1.00537 40.4189 1.00537C36.167 1.00537 32.7202 4.43873 32.7202 8.67402C32.7202 12.9093 36.167 16.3427 40.4189 16.3427Z" fill="#0016DE"/>
</svg>
