<svg width="176" height="176" viewBox="0 0 176 176" fill="none" xmlns="http://www.w3.org/2000/svg">
<g clip-path="url(#clip0_1704_1423)">
<path d="M126.233 176H49.7672C22.287 176 0 153.723 0 126.233V49.7673C0 22.287 22.2769 0 49.7672 0H126.233C153.713 0 176 22.277 176 49.7673V126.233C176 153.723 153.713 176 126.233 176Z" fill="#2461ED"/>
<path fill-rule="evenodd" clip-rule="evenodd" d="M100.667 85.6591C83.4133 76.3353 62.4196 64.2443 46.6192 54.3891C41.9573 51.0306 44.3234 43.9023 49.9578 43.9023H128.138C132.499 43.9023 135.416 48.7648 133.231 52.4442C127.977 61.5174 120.308 73.0368 113.901 82.1702C110.462 87.0727 104.858 87.9149 100.667 85.6591ZM75.5031 88.6867C92.1858 97.5795 115.566 111.104 132.178 121.33C137.311 124.498 135.266 132.098 129.271 132.098C119.46 132.098 103.518 132.1 87.6592 132.103C71.9639 132.105 56.3497 132.108 46.8398 132.108C42.0476 132.108 39.5913 127.135 41.6265 123.666C48.5041 111.946 56.2338 100.116 62.6603 91.2834C65.5176 87.3433 71.3325 86.461 75.5031 88.6867Z" fill="white"/>
</g>
<defs>
<clipPath id="clip0_1704_1423">
<rect width="176" height="176" fill="white"/>
</clipPath>
</defs>
</svg>
