<svg width="92" height="92" viewBox="0 0 92 92" fill="none" xmlns="http://www.w3.org/2000/svg">
<path d="M40.4664 14.797L7.99811 69.0003C7.32869 70.1596 6.97448 71.4739 6.97073 72.8126C6.96698 74.1513 7.31382 75.4676 7.97674 76.6306C8.63966 77.7937 9.59556 78.7628 10.7493 79.4417C11.9031 80.1206 13.2145 80.4856 14.5531 80.5003H79.4898C80.8284 80.4856 82.1398 80.1206 83.2936 79.4417C84.4473 78.7628 85.4032 77.7937 86.0661 76.6306C86.7291 75.4676 87.0759 74.1513 87.0722 72.8126C87.0684 71.4739 86.7142 70.1596 86.0448 69.0003L53.5764 14.797C52.8931 13.6704 51.9309 12.7389 50.7827 12.0925C49.6345 11.446 48.3391 11.1064 47.0214 11.1064C45.7038 11.1064 44.4084 11.446 43.2602 12.0925C42.112 12.7389 41.1498 13.6704 40.4664 14.797V14.797Z" stroke="#FF537B" stroke-width="2" stroke-linecap="round" stroke-linejoin="round"/>
<path d="M47.0225 34.5V49.8333" stroke="currentColor" stroke-width="2" stroke-linecap="round" stroke-linejoin="round"/>
<path d="M47.0225 65.1665H47.06" stroke="currentColor" stroke-width="4" stroke-linecap="round" stroke-linejoin="round"/>
</svg>
