<svg width="61" height="20" viewBox="0 0 61 20" fill="none" xmlns="http://www.w3.org/2000/svg">
<g opacity="0.5">
<path d="M6.01758 9.99596L13.5114 14.2792C13.5713 14.313 13.639 14.3306 13.7079 14.3304C13.7768 14.3302 13.8444 14.3122 13.9041 14.2781C13.9639 14.244 14.0137 14.195 14.0487 14.1359C14.0837 14.0768 14.1027 14.0097 14.1039 13.9411L14.1051 6.05348C14.1044 5.98473 14.0856 5.91738 14.0507 5.85809C14.0158 5.79879 13.9659 5.74962 13.9061 5.71544C13.8462 5.68126 13.7784 5.66325 13.7095 5.66321C13.6405 5.66316 13.5727 5.68108 13.5128 5.71518L6.01758 9.99596Z" fill="currentColor"/>
<path d="M13.0758 3.86933L8.10117 0.0794926C8.04809 0.0397578 7.98589 0.0138881 7.92022 0.00423986C7.85455 -0.00540841 7.7875 0.00147132 7.72517 0.0242526C7.66285 0.0470339 7.60724 0.0849927 7.56341 0.134671C7.51957 0.18435 7.4889 0.24417 7.47419 0.308682L5.65527 8.7463L13.0354 4.52282C13.0925 4.49102 13.1407 4.44544 13.1755 4.39027C13.2103 4.3351 13.2306 4.2721 13.2346 4.20706C13.2386 4.14201 13.2262 4.077 13.1985 4.01799C13.1707 3.95898 13.1285 3.90787 13.0758 3.86933Z" fill="currentColor"/>
<path d="M8.09737 19.9187L13.0847 16.1247C13.1363 16.0854 13.1774 16.0341 13.2043 15.9753C13.2313 15.9164 13.2433 15.8519 13.2394 15.7873C13.2354 15.7228 13.2155 15.6602 13.1816 15.605C13.1476 15.5499 13.1006 15.504 13.0446 15.4712L5.6543 11.2511L7.47622 19.6893C7.48956 19.754 7.51921 19.8142 7.56237 19.8644C7.60553 19.9145 7.66079 19.9528 7.72293 19.9758C7.78507 19.9987 7.85205 20.0055 7.91756 19.9955C7.98307 19.9855 8.04495 19.9591 8.09737 19.9187Z" fill="currentColor"/>
<path d="M4.09602 9.9957L6.05884 0.904641C6.07589 0.825899 6.06815 0.743831 6.03666 0.66964C6.00517 0.595448 5.95148 0.532749 5.88291 0.4901C5.81434 0.447452 5.73423 0.426932 5.65353 0.431343C5.57282 0.435754 5.49544 0.46488 5.43196 0.514745L0.410088 4.33735C0.282855 4.43432 0.179798 4.55925 0.108943 4.70241C0.0380878 4.84557 0.00134694 5.0031 0.00158152 5.16273L1.66608e-06 14.8445C-0.000284921 15.0042 0.0364046 15.1617 0.107213 15.3049C0.178021 15.4481 0.281037 15.573 0.408239 15.6701L5.42887 19.4886C5.49281 19.5364 5.56975 19.5638 5.6496 19.5672C5.72945 19.5706 5.80848 19.5499 5.8763 19.5077C5.94411 19.4656 5.99756 19.404 6.0296 19.331C6.06165 19.258 6.07081 19.1771 6.05587 19.0989L4.09602 9.9957Z" fill="currentColor"/>
<path d="M43.1801 7.34494C43.5389 7.33762 43.8933 7.4251 44.2072 7.59846C44.521 7.77183 44.7833 8.02492 44.9672 8.332L44.3463 8.80862C44.2137 8.60905 44.039 8.44065 43.8344 8.31515C43.6367 8.19754 43.4102 8.13671 43.1799 8.13939C42.9723 8.13484 42.768 8.19155 42.5926 8.30239C42.5095 8.35695 42.4423 8.43253 42.3981 8.52141C42.3539 8.6103 42.3341 8.70929 42.3409 8.80827C42.3382 8.90224 42.3583 8.99546 42.3996 9.07999C42.4394 9.15634 42.4934 9.22444 42.5588 9.28068C42.6327 9.34389 42.7145 9.39734 42.8021 9.43971C42.8972 9.48722 43.0007 9.53879 43.1125 9.59441L43.7334 9.87889C43.9273 9.96675 44.1151 10.0674 44.2956 10.1801C44.451 10.2757 44.5923 10.3925 44.7153 10.5271C44.8248 10.6494 44.9127 10.7895 44.9752 10.9412C45.0388 11.1037 45.0702 11.2769 45.0675 11.4513C45.071 11.6808 45.0221 11.9081 44.9245 12.1161C44.8321 12.3104 44.6974 12.4818 44.5302 12.6177C44.3542 12.7588 44.1537 12.8665 43.9386 12.9353C43.7016 13.0123 43.4536 13.0504 43.2043 13.0481C42.7713 13.0564 42.3444 12.9449 41.971 12.7261C41.6147 12.5133 41.3199 12.2121 41.1152 11.852L41.7446 11.3755C41.8238 11.4937 41.9122 11.6056 42.009 11.71C42.1058 11.8152 42.2141 11.9091 42.3319 11.9902C42.4521 12.0725 42.5834 12.1373 42.722 12.1827C42.8751 12.2317 43.0352 12.2557 43.1961 12.2537C43.4434 12.2654 43.6874 12.1932 43.8882 12.0489C43.9746 11.983 44.0437 11.8973 44.0898 11.7991C44.1359 11.7008 44.1575 11.593 44.1528 11.4846C44.1547 11.388 44.1347 11.2923 44.0941 11.2045C44.0539 11.1223 43.9966 11.0496 43.9262 10.9911C43.8469 10.9255 43.7611 10.868 43.6702 10.8196C43.5723 10.7667 43.4619 10.7124 43.3389 10.6566L42.7267 10.3721C42.5541 10.292 42.386 10.2027 42.2232 10.1044C42.0722 10.0143 41.9339 9.90458 41.812 9.77815C41.6959 9.65758 41.6021 9.51745 41.5351 9.36426C41.4656 9.19888 41.4314 9.02091 41.4346 8.84164C41.4314 8.62736 41.4789 8.41534 41.5731 8.22272C41.6641 8.04046 41.7928 7.87949 41.9508 7.75043C42.1152 7.61681 42.303 7.51472 42.5047 7.44934C42.7228 7.37848 42.9508 7.34323 43.1801 7.34494Z" fill="currentColor"/>
<path d="M50.0013 11.5106L51.0674 8.85145L51.9988 8.85169L50.1771 13.0493H49.8752L48.5749 10.3062L47.2908 13.0488H46.9886L45.1602 8.85052L46.1 8.85063L47.1818 11.5352L48.4326 8.75912H48.7346L50.0013 11.5106Z" fill="currentColor"/>
<path d="M54.0459 8.76021C54.2798 8.75747 54.5124 8.79427 54.734 8.86904C54.9328 8.93674 55.1145 9.04661 55.2666 9.19108C55.4205 9.34206 55.5393 9.52479 55.6148 9.72645C55.703 9.96598 55.7457 10.2198 55.7407 10.4749L55.7402 12.9585L54.9178 12.9584V12.4985C54.7675 12.6748 54.5778 12.8137 54.3641 12.9039C54.1224 13.0048 53.8624 13.0547 53.6004 13.0502C53.4001 13.0526 53.2006 13.0243 53.0088 12.9664C52.8431 12.9164 52.6891 12.8339 52.5558 12.7238C52.4325 12.6213 52.3336 12.4928 52.2663 12.3475C52.1975 12.1951 52.1632 12.0295 52.1658 11.8624C52.1595 11.697 52.1936 11.5326 52.2653 11.3833C52.3369 11.234 52.4439 11.1043 52.577 11.0054C52.9011 10.7813 53.2908 10.6711 53.6847 10.692L54.8509 10.6921L54.8511 10.4245C54.8653 10.3057 54.8523 10.1854 54.813 10.0724C54.7738 9.95938 54.7093 9.85674 54.6245 9.77219C54.5397 9.68764 54.4367 9.62337 54.3233 9.58423C54.21 9.54509 54.0892 9.5321 53.97 9.54624C53.7497 9.54115 53.5322 9.59606 53.3409 9.70504C53.144 9.82637 52.9682 9.9789 52.8205 10.1566L52.317 9.6381C52.5096 9.35434 52.7729 9.12527 53.081 8.9733C53.3822 8.83011 53.7122 8.75723 54.0459 8.76021ZM53.785 12.3729C53.9252 12.3738 54.0645 12.3497 54.1962 12.3018C54.3211 12.2568 54.4363 12.1887 54.536 12.1011C54.6338 12.0151 54.7125 11.9098 54.7671 11.7917C54.8234 11.6699 54.852 11.5371 54.8509 11.4029V11.3276L53.7937 11.3275C53.6049 11.316 53.4168 11.3596 53.2524 11.4528C53.1906 11.4936 53.1407 11.5498 53.1075 11.6159C53.0744 11.6819 53.0593 11.7555 53.0636 11.8292C53.0596 11.9092 53.0769 11.9889 53.1137 12.0601C53.1505 12.1313 53.2056 12.1916 53.2733 12.2348C53.4263 12.3305 53.6044 12.3786 53.785 12.3729H53.785Z" fill="currentColor"/>
<path d="M58.8868 8.76073C59.1652 8.75824 59.441 8.81385 59.6966 8.92397C59.9395 9.02866 60.158 9.18243 60.3384 9.37555C60.5202 9.57271 60.6626 9.80269 60.7578 10.0531C60.8607 10.3242 60.9118 10.612 60.9085 10.9018C60.9114 11.193 60.8602 11.4822 60.7575 11.7548C60.6626 12.0075 60.5185 12.2391 60.3337 12.4363C60.1483 12.6331 59.9239 12.7893 59.6747 12.8951C59.4255 13.0008 59.157 13.0538 58.8861 13.0507C58.6171 13.0538 58.3502 13.0025 58.1016 12.9001C57.8717 12.8054 57.6686 12.6561 57.51 12.4651L57.5098 14.4637L56.6289 14.4636L56.6298 8.85236L57.4435 8.85247L57.4433 9.44624C57.5964 9.22732 57.805 9.05276 58.0478 8.94036C58.3103 8.81827 58.5971 8.75686 58.8868 8.76073ZM58.7441 9.56349C58.5909 9.56385 58.439 9.5907 58.2951 9.64283C58.147 9.69579 58.0114 9.77834 57.8965 9.88541C57.7735 10.002 57.6763 10.1429 57.6112 10.2992C57.5339 10.4903 57.4967 10.6952 57.502 10.9013C57.4968 11.1069 57.5324 11.3116 57.6068 11.5035C57.6701 11.6609 57.7659 11.8034 57.8879 11.9217C58.0017 12.031 58.1374 12.1151 58.2861 12.1684C58.4328 12.2211 58.5876 12.248 58.7436 12.2479C58.912 12.2489 59.0789 12.2162 59.2344 12.1519C59.3859 12.0895 59.523 11.997 59.6374 11.88C59.7546 11.7588 59.846 11.6152 59.906 11.4578C60.0343 11.1038 60.0344 10.7163 59.9063 10.3623C59.8466 10.2056 59.7568 10.0622 59.6418 9.93994C59.5289 9.82224 59.3934 9.7284 59.2433 9.664C59.0857 9.59624 58.9157 9.56201 58.7441 9.5635V9.56349Z" fill="currentColor"/>
<path d="M20.6715 12.9526L19.7822 12.9525L19.7832 7.43326L20.6725 7.43338L20.6715 12.9526ZM21.8049 10.0175L24.3636 12.9532L23.2644 12.953L20.6971 10.0174L23.022 7.43373L24.1128 7.43397L21.8049 10.0175Z" fill="currentColor"/>
<path d="M26.3188 13.4222C26.1891 13.7586 25.9735 14.0554 25.6934 14.2833C25.4326 14.4671 25.1188 14.561 24.7996 14.5508C24.6846 14.5505 24.5698 14.5435 24.4556 14.5299C24.3424 14.5166 24.2303 14.4957 24.12 14.4672V13.7229C24.2208 13.7339 24.3103 13.7423 24.3887 13.748C24.4669 13.7535 24.5423 13.7562 24.615 13.7563C24.7914 13.7596 24.9658 13.7195 25.1228 13.6394C25.3022 13.5242 25.4393 13.354 25.5133 13.1544L25.681 12.7698L24.0371 8.84738L24.9851 8.84762L26.1595 11.8416L27.3851 8.84797L28.3247 8.84809L26.3188 13.4222Z" fill="currentColor"/>
<path d="M29.6675 9.3499C29.8292 9.16227 30.0316 9.01363 30.2593 8.91516C30.5065 8.80734 30.774 8.75321 31.0438 8.75637C31.3146 8.75335 31.5831 8.80644 31.8323 8.91228C32.0814 9.01811 32.3058 9.17439 32.4911 9.37119C32.6759 9.56851 32.8198 9.80017 32.9148 10.053C33.0173 10.3256 33.0684 10.6148 33.0655 10.9059C33.0686 11.1957 33.0174 11.4836 32.9145 11.7547C32.8193 12.005 32.6768 12.2349 32.4949 12.432C32.3156 12.6244 32.0985 12.7781 31.8571 12.8834C31.6031 12.9937 31.3286 13.0493 31.0516 13.0463C30.761 13.0499 30.4731 12.9899 30.2083 12.8706C29.9635 12.7615 29.7531 12.588 29.5998 12.3688V12.9541L28.7861 12.954L28.7871 6.68207L29.6679 6.68218L29.6675 9.3499ZM30.9011 9.55912C30.7451 9.55905 30.5903 9.58589 30.4436 9.63846C30.2948 9.69187 30.1591 9.77593 30.0451 9.88514C29.9231 10.0034 29.8274 10.1459 29.764 10.3033C29.6895 10.4951 29.6539 10.6997 29.659 10.9053C29.654 11.1127 29.691 11.3189 29.768 11.5116C29.8323 11.6696 29.9295 11.8121 30.0533 11.9298C30.1675 12.0367 30.3033 12.118 30.4516 12.1682C30.5961 12.2178 30.7478 12.2433 30.9006 12.2436C31.0722 12.245 31.2422 12.2109 31.3998 12.1433C31.55 12.0789 31.6856 11.985 31.7986 11.8673C31.9136 11.7452 32.0034 11.6017 32.063 11.4451C32.1913 11.0912 32.1914 10.7037 32.0633 10.3497C32.0032 10.1923 31.9118 10.0486 31.7946 9.92727C31.6803 9.81036 31.5432 9.71787 31.3919 9.65544C31.2364 9.59095 31.0695 9.5582 30.9011 9.55913V9.55912Z" fill="currentColor"/>
<path d="M35.7842 8.7573C36.0456 8.75491 36.3049 8.80324 36.5477 8.8996C36.7735 8.98759 36.9786 9.121 37.1504 9.29151C37.3221 9.46202 37.4568 9.66597 37.546 9.89064C37.6424 10.1284 37.6908 10.3827 37.6885 10.6391C37.6888 10.7454 37.6817 10.8516 37.6674 10.9569C37.6576 11.0359 37.6423 11.1141 37.6214 11.191L34.5502 11.1905C34.5956 11.5027 34.7574 11.7865 35.0034 11.9851C35.2579 12.1794 35.5721 12.2799 35.8925 12.2695C36.1174 12.2728 36.3404 12.2286 36.547 12.14C36.7467 12.0512 36.9309 11.9313 37.0927 11.7847L37.5204 12.3869C37.3053 12.5912 37.0552 12.7554 36.782 12.8718C36.4952 12.9913 36.1868 13.0511 35.8758 13.0473C35.5716 13.0499 35.2696 12.9946 34.9863 12.8842C34.7249 12.784 34.4867 12.6319 34.2862 12.437C34.0858 12.2422 33.9272 12.0086 33.8203 11.7507C33.7073 11.4835 33.6502 11.1961 33.6524 10.9062C33.6502 10.6166 33.7059 10.3294 33.8163 10.0615C33.9205 9.8067 34.0745 9.57507 34.2693 9.38011C34.4636 9.18702 34.6929 9.0324 34.9449 8.92443C35.2101 8.81139 35.4959 8.75448 35.7842 8.7573ZM35.7586 9.50155C35.4766 9.49442 35.2017 9.59116 34.9867 9.77327C34.7688 9.96353 34.6211 10.2211 34.5673 10.5049L36.8076 10.5052C36.8108 10.3653 36.7836 10.2263 36.7279 10.0978C36.6721 9.9693 36.5891 9.85436 36.4845 9.76086C36.2825 9.58881 36.0243 9.49655 35.7586 9.50155Z" fill="currentColor"/>
<path d="M40.5502 8.8081C40.6134 8.8075 40.6765 8.81173 40.739 8.82074C40.7921 8.82905 40.841 8.8388 40.8858 8.84999L40.8855 9.62771L40.6171 9.62759C40.4591 9.62692 40.302 9.65093 40.1515 9.69874C40.0094 9.74254 39.878 9.81508 39.7654 9.91183C39.6537 10.01 39.5649 10.1313 39.5052 10.2672C39.4379 10.4244 39.4049 10.594 39.4084 10.7648L39.4082 12.9558L38.5273 12.9556L38.5281 8.84965L39.3418 8.84977L39.3415 9.40176C39.48 9.21261 39.6631 9.06037 39.8746 8.95848C40.0855 8.85803 40.3165 8.80661 40.5502 8.8081Z" fill="currentColor"/>
</g>
</svg>
