<svg width="24" height="25" viewBox="0 0 24 25" fill="none" xmlns="http://www.w3.org/2000/svg">
<g clip-path="url(#clip0_134_4060)">
<mask id="mask0_134_4060" style="mask-type:alpha" maskUnits="userSpaceOnUse" x="0" y="0" width="24" height="25">
<mask id="mask1_134_4060" style="mask-type:alpha" maskUnits="userSpaceOnUse" x="0" y="0" width="24" height="25">
<rect y="0.5" width="24" height="24" fill="#D9D9D9"/>
</mask>
<g mask="url(#mask1_134_4060)">
<path d="M10.8864 22.3032C10.583 22.3032 10.3244 22.2149 10.1104 22.0382C9.89653 21.8616 9.76462 21.63 9.71462 21.3435L9.33962 19.3875C8.98812 19.2495 8.64612 19.0884 8.31362 18.9042C7.98128 18.7202 7.6687 18.5049 7.37587 18.2582L5.50687 18.9082C5.24103 18.9956 4.96895 18.9924 4.69062 18.8987C4.41228 18.8051 4.20253 18.6316 4.06137 18.3782L2.94762 16.419C2.80628 16.1697 2.76161 15.9069 2.81361 15.6307C2.86561 15.3544 2.99962 15.1206 3.21562 14.9292L4.68462 13.6292C4.65528 13.4452 4.63228 13.2612 4.61562 13.0772C4.59895 12.8931 4.59062 12.7007 4.59062 12.5C4.59062 12.2993 4.59895 12.1069 4.61562 11.9227C4.63228 11.7387 4.65528 11.5547 4.68462 11.3707L3.21562 10.0767C2.99562 9.88541 2.86061 9.65158 2.81061 9.37525C2.76061 9.09891 2.80628 8.83416 2.94762 8.581L4.06137 6.62775C4.20253 6.37841 4.41128 6.20591 4.68762 6.11025C4.96395 6.01458 5.23503 6.01041 5.50086 6.09775L7.38787 6.74775C7.6807 6.50108 7.99028 6.28666 8.31662 6.1045C8.64312 5.9225 8.98412 5.7625 9.33962 5.6245L9.71462 3.6625C9.76462 3.372 9.89653 3.13841 10.1104 2.96175C10.3244 2.78508 10.583 2.69675 10.8864 2.69675H13.1134C13.4167 2.69675 13.6754 2.78508 13.8894 2.96175C14.1032 3.13841 14.2351 3.372 14.2851 3.6625L14.6601 5.6245C15.0116 5.7625 15.3536 5.9225 15.6861 6.1045C16.0184 6.28666 16.331 6.50108 16.6239 6.74775L18.4929 6.09775C18.7587 6.01041 19.0308 6.01458 19.3091 6.11025C19.5874 6.20591 19.7972 6.37841 19.9384 6.62775L21.0521 8.581C21.1934 8.83416 21.2391 9.09891 21.1891 9.37525C21.1391 9.65158 21.0041 9.88541 20.7841 10.0767L19.3091 11.3707C19.3384 11.5547 19.3614 11.7387 19.3781 11.9227C19.3948 12.1069 19.4031 12.2993 19.4031 12.5C19.4031 12.7007 19.3938 12.8931 19.3751 13.0772C19.3564 13.2612 19.3344 13.4452 19.3091 13.6292L20.7841 14.9232C21.0041 15.1146 21.1391 15.3484 21.1891 15.6247C21.2391 15.9011 21.1934 16.1658 21.0521 16.419L19.9384 18.3782C19.7972 18.6276 19.5884 18.8001 19.3121 18.8957C19.0358 18.9914 18.7647 18.9956 18.4989 18.9082L16.6119 18.2582C16.319 18.5049 16.0094 18.7202 15.6831 18.9042C15.3566 19.0884 15.0156 19.2495 14.6601 19.3875L14.2851 21.3435C14.2351 21.63 14.1032 21.8616 13.8894 22.0382C13.6754 22.2149 13.4167 22.3032 13.1134 22.3032H10.8864ZM11.9819 16.1C12.9819 16.1 13.8319 15.75 14.5319 15.05C15.2319 14.35 15.5819 13.5 15.5819 12.5C15.5819 11.5 15.2319 10.65 14.5319 9.95C13.8319 9.25 12.9819 8.9 11.9819 8.9C10.9859 8.9 10.1369 9.25 9.43486 9.95C8.73286 10.65 8.38187 11.5 8.38187 12.5C8.38187 13.5 8.73286 14.35 9.43486 15.05C10.1369 15.75 10.9859 16.1 11.9819 16.1Z" fill="#1C1B1F"/>
</g>
</mask>
<g mask="url(#mask0_134_4060)">
<rect y="0.5" width="24" height="24" fill="#B8ADD2"/>
</g>
</g>
<defs>
<clipPath id="clip0_134_4060">
<rect width="24" height="24" fill="white" transform="translate(0 0.5)"/>
</clipPath>
</defs>
</svg>

