<svg xmlns="http://www.w3.org/2000/svg" width="20" height="20" viewBox="0 0 20 20" fill="none">
  <g>
    <path
      d="M10 20C15.5228 20 20 15.5228 20 10C20 4.47715 15.5228 0 10 0C4.47715 0 0 4.47715 0 10C0 15.5228 4.47715 20 10 20Z"
      fill="white"
    />
    <path
      d="M12.8277 12.0406L15.5975 10.4947C15.7454 10.4135 15.8333 10.2589 15.8333 10.0966V7.00483C15.8333 6.84251 15.7414 6.68792 15.5975 6.60676L12.8277 5.06087C12.6799 4.97971 12.5 4.97971 12.3521 5.06087L9.58234 6.60676C9.43445 6.68792 9.34652 6.84251 9.34652 7.00483V12.5314L7.40408 13.6135L5.46163 12.5314V10.3633L7.40408 9.28116L8.68705 9.99613V8.543L7.64389 7.95942C7.57194 7.92077 7.48801 7.89758 7.40808 7.89758C7.32814 7.89758 7.24421 7.91691 7.17226 7.95942L4.40248 9.50531C4.2546 9.58647 4.16667 9.74106 4.16667 9.90338V12.9952C4.16667 13.1575 4.25859 13.3121 4.40248 13.3932L7.17226 14.9391C7.32014 15.0203 7.5 15.0203 7.64788 14.9391L10.4177 13.3932C10.5655 13.3121 10.6535 13.1575 10.6535 12.9952V7.4686L10.6895 7.44928L12.5959 6.38647L14.5384 7.4686V9.63671L12.5959 10.7227L11.3169 10.0077V11.4609L12.3601 12.0406C12.508 12.1217 12.6879 12.1217 12.8357 12.0406H12.8277Z"
      fill="#94469B"
    />
  </g>
</svg>
