<svg width="24" height="24" viewBox="0 0 24 24" fill="none" xmlns="http://www.w3.org/2000/svg">
<path d="M18.1038 9.34996C18.0438 9.27562 17.9712 9.29023 17.9331 9.3054C17.9012 9.3182 17.8281 9.35911 17.8382 9.46163C17.8504 9.58474 17.8572 9.71025 17.8585 9.83473C17.8639 10.3511 17.6547 10.857 17.2844 11.2227C16.9165 11.5861 16.4326 11.7818 15.9174 11.7762C15.2136 11.7673 14.6298 11.4039 14.2292 10.7253C13.898 10.1642 14.0436 9.44045 14.1977 8.67419C14.2879 8.22568 14.3812 7.76188 14.3812 7.32046C14.3812 3.88345 12.0471 1.90054 10.6557 1.02445C10.6269 1.00636 10.5996 1 10.5753 1C10.5358 1 10.5046 1.01684 10.4892 1.02716C10.4593 1.04718 10.4115 1.09281 10.4269 1.17359C10.9587 3.96921 9.37246 5.65062 7.69306 7.43072C5.96201 9.26561 4 11.3453 4 15.0961C4 19.4544 7.58177 23 11.9844 23C15.6094 23 18.8054 20.4982 19.7565 16.9161C20.4051 14.4736 19.7255 11.3623 18.1038 9.34996ZM12.1836 21.3129C11.0811 21.3627 10.0327 20.9713 9.23191 20.2133C8.4397 19.4634 7.98532 18.4169 7.98532 17.3421C7.98532 15.3251 8.76438 13.8444 10.8598 11.8787C10.8941 11.8465 10.9292 11.8363 10.9598 11.8363C10.9875 11.8363 11.0116 11.8447 11.0281 11.8526C11.063 11.8692 11.1203 11.9104 11.1125 11.9994C11.0376 12.8624 11.0389 13.5788 11.1164 14.1286C11.3143 15.533 12.3529 16.4766 13.7009 16.4766C14.3618 16.4766 14.9913 16.2304 15.4735 15.7833C15.5294 15.7314 15.5919 15.7381 15.6159 15.7431C15.6476 15.7499 15.6901 15.7691 15.7124 15.8223C15.9123 16.3001 16.0145 16.8074 16.0161 17.3298C16.0224 19.4321 14.3032 21.2189 12.1836 21.3129Z" stroke="#FF007A"/>
</svg>
