<svg width="20" height="20" viewBox="0 0 20 20" fill="none" xmlns="http://www.w3.org/2000/svg">
<path d="M11.3334 16.6667H8.66675" stroke="#31CB9E" stroke-linecap="round" stroke-linejoin="round"/>
<path fill-rule="evenodd" clip-rule="evenodd" d="M14.1667 8.36008V8.33341V8.33341C14.1667 6.03258 12.3009 4.16675 10.0001 4.16675V4.16675C7.69925 4.16675 5.83341 6.03258 5.83341 8.33341V8.33341V8.36008V10.4201C5.83341 10.6901 5.68091 10.9359 5.44008 11.0567L5.02091 11.2659C4.49758 11.5284 4.16675 12.0634 4.16675 12.6484V12.6484C4.16675 13.5017 4.85841 14.1934 5.71175 14.1934L14.2884 14.1934C15.1417 14.1934 15.8334 13.5017 15.8334 12.6484V12.6484C15.8334 12.0634 15.5026 11.5284 14.9792 11.2667L14.5601 11.0576C14.3192 10.9359 14.1667 10.6901 14.1667 10.4201L14.1667 8.36008Z" stroke="#31CB9E" stroke-linecap="round" stroke-linejoin="round"/>
<path d="M15.7925 5.04077C15.1991 3.9991 14.3341 3.1341 13.2925 2.54077" stroke="#31CB9E" stroke-linecap="round" stroke-linejoin="round"/>
<path d="M4.20752 5.04077C4.80085 3.9991 5.66585 3.1341 6.70752 2.54077" stroke="#31CB9E" stroke-linecap="round" stroke-linejoin="round"/>
</svg>
