<svg width="12" height="12" viewBox="0 0 12 12" fill="none" xmlns="http://www.w3.org/2000/svg">
<path fill-rule="evenodd" clip-rule="evenodd" d="M8.25 3.5H3.75C3.474 3.5 3.25 3.724 3.25 4V4.5C3.25 4.776 3.474 5 3.75 5H8.25C8.526 5 8.75 4.776 8.75 4.5V4C8.75 3.724 8.526 3.5 8.25 3.5Z" stroke="#FCD04D" stroke-linecap="round" stroke-linejoin="round"/>
<path d="M7.79541 3.49992L8.29341 2.50392C8.61041 1.86992 7.95191 1.19042 7.30841 1.48742L5.99991 2.09142L4.69141 1.48742C4.04791 1.19042 3.38941 1.86942 3.70641 2.50392L4.20441 3.49992" stroke="#FCD04D" stroke-linecap="round" stroke-linejoin="round"/>
<path d="M3.87489 5.00002L3.01639 6.37352C2.40589 7.35052 2.46839 8.60452 3.17339 9.51602V9.51602C3.69439 10.19 4.49839 10.584 5.35039 10.584H6.64989C7.50139 10.584 8.30539 10.1895 8.82639 9.51602V9.51602C9.53189 8.60452 9.59439 7.35052 8.98389 6.37302C8.71139 5.93652 8.41239 5.45852 8.12539 4.99902" stroke="#FCD04D" stroke-linecap="round" stroke-linejoin="round"/>
<path d="M6.21436 6.4285V6.0715" stroke="#FCD04D" stroke-linecap="round" stroke-linejoin="round"/>
<path d="M6.21436 8.57004V8.92704" stroke="#FCD04D" stroke-linecap="round" stroke-linejoin="round"/>
<path d="M5.595 8.31522C5.6875 8.46672 5.8455 8.57122 6.036 8.57122H6.2145H6.427C6.704 8.57122 6.928 8.34672 6.928 8.07022C6.928 7.84022 6.7715 7.63972 6.5485 7.58372L5.8795 7.41572C5.657 7.35972 5.5 7.15922 5.5 6.92922C5.5 6.65222 5.7245 6.42822 6.001 6.42822H6.2135H6.392C6.5825 6.42822 6.74 6.53222 6.8325 6.68322" stroke="#FCD04D" stroke-linecap="round" stroke-linejoin="round"/>
</svg>
