<svg width="16" height="16" viewBox="0 0 16 16" fill="none" xmlns="http://www.w3.org/2000/svg">
<path fill-rule="evenodd" clip-rule="evenodd" d="M10.9999 4.66675H4.99992C4.63192 4.66675 4.33325 4.96541 4.33325 5.33341V6.00008C4.33325 6.36808 4.63192 6.66675 4.99992 6.66675H10.9999C11.3679 6.66675 11.6666 6.36808 11.6666 6.00008V5.33341C11.6666 4.96541 11.3679 4.66675 10.9999 4.66675Z" stroke="#FCD04D" stroke-linecap="round" stroke-linejoin="round"/>
<path d="M10.394 4.66664L11.058 3.33864C11.4807 2.49331 10.6027 1.58731 9.74471 1.98331L8.00004 2.78864L6.25538 1.98331C5.39738 1.58731 4.51938 2.49264 4.94204 3.33864L5.60604 4.66664" stroke="#FCD04D" stroke-linecap="round" stroke-linejoin="round"/>
<path d="M5.16668 6.66662L4.02201 8.49795C3.20801 9.80062 3.29135 11.4726 4.23135 12.688V12.688C4.92601 13.5866 5.99801 14.112 7.13401 14.112H8.86668C10.002 14.112 11.074 13.586 11.7687 12.688V12.688C12.7093 11.4726 12.7927 9.80062 11.9787 8.49728C11.6153 7.91528 11.2167 7.27795 10.834 6.66528" stroke="#FCD04D" stroke-linecap="round" stroke-linejoin="round"/>
<path d="M8.28597 8.57133V8.09533" stroke="#FCD04D" stroke-linecap="round" stroke-linejoin="round"/>
<path d="M8.28597 11.4266V11.9026" stroke="#FCD04D" stroke-linecap="round" stroke-linejoin="round"/>
<path d="M7.45992 11.0868C7.58325 11.2888 7.79392 11.4281 8.04792 11.4281H8.28592H8.56925C8.93859 11.4281 9.23725 11.1288 9.23725 10.7601C9.23725 10.4535 9.02859 10.1861 8.73125 10.1115L7.83925 9.88747C7.54259 9.8128 7.33325 9.54547 7.33325 9.2388C7.33325 8.86947 7.63259 8.5708 8.00125 8.5708H8.28459H8.52259C8.77659 8.5708 8.98659 8.70947 9.10992 8.9108" stroke="#FCD04D" stroke-linecap="round" stroke-linejoin="round"/>
</svg>
