<svg width="16" height="16" viewBox="0 0 16 16" fill="none" xmlns="http://www.w3.org/2000/svg">
    <path
        d="M11.5937 6.9515C12.9467 8.36551 14.3016 9.70407 15.474 11.125L15.4999 11.0991C15.5096 8.85207 14.5864 6.82278 13.1701 4.93934L13.3391 3.97449L12.0255 2.66084L11.0607 2.82987C9.1871 1.42105 7.16884 0.500117 4.9359 0.5C4.92411 0.5 4.91273 0.500029 4.90093 0.500088L4.875 0.526021C6.29593 1.69845 7.63451 3.05335 9.04846 4.40631L8.78694 5.89947L10.1006 7.21309L11.5937 6.9515Z"
        stroke="#A9A9A9" stroke-linecap="round" stroke-linejoin="round" />
    <path
        d="M11.8838 2.66498L12.8497 1.69907C13.2502 1.29854 13.8996 1.29854 14.3001 1.69907V1.69907C14.7007 2.09959 14.7007 2.74897 14.3001 3.1495L13.3342 4.11541L11.8838 2.66498Z"
        stroke="#A9A9A9" stroke-linecap="round" stroke-linejoin="round" />
    <path
        d="M1.22397 14.7735C0.82346 14.373 0.82346 13.7237 1.22397 13.3231L8.66025 5.88687L10.1106 7.33726L2.67436 14.7735C2.27385 15.174 1.62449 15.174 1.22397 14.7735V14.7735Z"
        stroke="#A9A9A9" stroke-linecap="round" stroke-linejoin="round" />
</svg>