<svg xmlns="http://www.w3.org/2000/svg" width="20" height="20" viewBox="0 0 20 20" fill="none">
    <path fill-rule="evenodd" clip-rule="evenodd"
        d="M5 17.4999H3.33333C2.87333 17.4999 2.5 17.1266 2.5 16.6666V11.6666C2.5 11.2066 2.87333 10.8333 3.33333 10.8333H5C5.46 10.8333 5.83333 11.2066 5.83333 11.6666V16.6666C5.83333 17.1266 5.46 17.4999 5 17.4999Z"
        stroke="currentColor" stroke-linecap="round" stroke-linejoin="round" />
    <path
        d="M10.8333 14.1666H12.7774C13.1383 14.1666 13.4891 14.05 13.7774 13.8333L15.7908 12.3233C16.2933 11.9466 16.9966 11.9966 17.4408 12.4408V12.4408C17.9341 12.9341 17.9341 13.7333 17.4408 14.2258L15.7133 15.9533C15.2483 16.4183 14.6549 16.7358 14.0099 16.865L11.5683 17.3533C11.0841 17.45 10.5849 17.4383 10.1058 17.3183L7.89742 16.7666C7.63325 16.7 7.36242 16.6666 7.08992 16.6666H5.83325"
        stroke="currentColor" stroke-linecap="round" stroke-linejoin="round" />
    <path
        d="M10.8333 14.1666H12.0708C12.7683 14.1666 13.3333 13.6016 13.3333 12.9041V12.6516C13.3333 12.0724 12.9391 11.5674 12.3774 11.4274L10.4674 10.9499C10.1566 10.8724 9.83825 10.8333 9.51825 10.8333V10.8333C8.74575 10.8333 7.98992 11.0616 7.34742 11.4908L5.83325 12.4999"
        stroke="currentColor" stroke-linecap="round" stroke-linejoin="round" />
    <path
        d="M14.3073 4.29597C15.2309 5.21956 15.2309 6.71699 14.3073 7.64058C13.3837 8.56417 11.8863 8.56417 10.9627 7.64058C10.0391 6.71699 10.0391 5.21956 10.9627 4.29597C11.8863 3.37237 13.3837 3.37237 14.3073 4.29597"
        stroke="currentColor" stroke-linecap="round" stroke-linejoin="round" />
    <path
        d="M12.1925 3.64591C12.115 3.17508 11.9 2.72258 11.5367 2.35925C10.6133 1.43591 9.11583 1.43591 8.1925 2.35925C7.26917 3.28258 7.26917 4.78008 8.1925 5.70341C8.7675 6.27841 9.56417 6.49425 10.3067 6.35341"
        stroke="currentColor" stroke-linecap="round" stroke-linejoin="round" />
</svg>