<svg width="16" height="16" viewBox="0 0 16 16" fill="none" xmlns="http://www.w3.org/2000/svg">
    <path
        d="M13.2152 5.28745C13.2259 5.31976 13.2312 5.35238 13.2312 5.38469C13.2312 5.51361 13.1493 5.63361 13.0204 5.67669C12.9884 5.68745 12.9555 5.69238 12.9235 5.69238C12.7946 5.69238 12.6742 5.61084 12.6315 5.48192C12.6207 5.44961 12.6155 5.41669 12.6155 5.38438C12.6155 5.25576 12.697 5.13576 12.8259 5.09269C12.9872 5.03915 13.1613 5.12622 13.2152 5.28745Z"
        fill="currentColor" />
    <path
        d="M13.2152 14.2105C13.2259 14.2429 13.2312 14.2755 13.2312 14.3078C13.2312 14.4367 13.1493 14.5567 13.0204 14.5998C12.9884 14.6105 12.9555 14.6155 12.9235 14.6155C12.7946 14.6155 12.6742 14.5339 12.6315 14.405C12.6207 14.3727 12.6155 14.3398 12.6155 14.3075C12.6155 14.1788 12.697 14.0589 12.8259 14.0158C12.9872 13.9622 13.1613 14.0493 13.2152 14.2105Z"
        fill="currentColor" />
    <path
        d="M10.4459 1.59507C10.4567 1.62738 10.4619 1.65999 10.4619 1.6923C10.4619 1.82123 10.38 1.94123 10.2511 1.9843C10.2191 1.99507 10.1862 1.99999 10.1542 1.99999C10.0253 1.99999 9.90496 1.91846 9.86219 1.78953C9.85142 1.75723 9.84619 1.7243 9.84619 1.69199C9.84619 1.56338 9.92773 1.44338 10.0567 1.4003C10.2179 1.34676 10.392 1.43384 10.4459 1.59507Z"
        fill="currentColor" />
    <path
        d="M6.13827 12.0565C6.14904 12.0888 6.15427 12.1214 6.15427 12.1537C6.15427 12.2827 6.07242 12.4027 5.9435 12.4457C5.91119 12.4565 5.87857 12.4614 5.84627 12.4614C5.71734 12.4614 5.59734 12.3799 5.55427 12.251C5.5435 12.2187 5.53857 12.186 5.53857 12.1537C5.53857 12.0248 5.62011 11.9048 5.74904 11.8617C5.91027 11.8082 6.08442 11.8953 6.13827 12.0565Z"
        fill="currentColor" />
    <path
        d="M2.7535 7.74888C2.76427 7.78119 2.7695 7.8138 2.7695 7.84611C2.7695 7.97503 2.68765 8.09503 2.55873 8.13811C2.52642 8.14888 2.49381 8.1538 2.4615 8.1538C2.33258 8.1538 2.21258 8.07227 2.1695 7.94334C2.15873 7.91103 2.15381 7.87842 2.15381 7.84611C2.15381 7.71719 2.23535 7.59719 2.36427 7.55411C2.5255 7.50057 2.69965 7.58765 2.7535 7.74888Z"
        fill="currentColor" />
    <path
        d="M2.44588 2.21039C2.45665 2.2427 2.46158 2.27532 2.46158 2.30762C2.46158 2.43655 2.38004 2.55655 2.25111 2.59962C2.21881 2.61039 2.18588 2.61562 2.15388 2.61562C2.02496 2.61562 1.90496 2.53378 1.86188 2.40516C1.85111 2.37285 1.84619 2.34024 1.84619 2.30793C1.84619 2.17901 1.92773 2.0587 2.05665 2.01593C2.21788 1.96209 2.39204 2.04916 2.44588 2.21039Z"
        fill="currentColor" />
    <path
        d="M12.2304 11.9024C12.1613 11.9024 12.0921 11.8791 12.0355 11.8328C11.947 11.7603 11.8622 11.683 11.7833 11.6027C11.1967 11.0083 10.8762 10.226 10.8812 9.40022C10.8835 9.04717 10.9433 8.70096 11.0587 8.37093C11.253 7.81204 11.597 7.32431 12.0532 6.96102C12.1666 6.87074 12.3277 6.87182 12.4398 6.9637C13.1765 7.56711 13.6126 8.48551 13.6064 9.42037C13.6008 10.3603 13.1691 11.2406 12.4221 11.8354C12.366 11.8801 12.2981 11.9024 12.2304 11.9024ZM12.2425 7.61468C11.9732 7.88053 11.767 8.20776 11.6398 8.57357C11.5466 8.84004 11.4984 9.1193 11.4965 9.40416C11.4926 10.0655 11.7501 10.693 12.2217 11.1709C12.2256 11.1748 12.2294 11.1787 12.2333 11.1826C12.7138 10.7148 12.987 10.0841 12.991 9.41656C12.9954 8.75059 12.7194 8.09422 12.2425 7.61468Z"
        fill="currentColor" />
    <path
        d="M10.0166 12.991C9.08934 12.991 8.1782 12.555 7.57928 11.8246C7.48731 11.7124 7.48617 11.5512 7.57654 11.4378C7.94017 10.9812 8.42792 10.6371 8.987 10.4428C9.31648 10.3276 9.66281 10.2678 10.0158 10.2654L10.0347 10.2654C10.8527 10.2654 11.6284 10.5859 12.2188 11.1678C12.2989 11.2466 12.3763 11.3315 12.4486 11.4198C12.5404 11.532 12.5415 11.693 12.4512 11.8063C11.8565 12.5533 10.9761 12.9851 10.0358 12.991L10.0166 12.991ZM8.23023 11.6269C8.70617 12.0996 9.35678 12.3757 10.0166 12.3757L10.0319 12.3756C10.6997 12.3714 11.3306 12.0981 11.7984 11.6176C11.7946 11.6138 11.7908 11.6101 11.787 11.6064C11.3122 11.1384 10.69 10.8808 10.0347 10.8808L10.0197 10.8808C9.73485 10.8827 9.45549 10.9309 9.18958 11.0239C8.82361 11.1511 8.49629 11.3574 8.23023 11.6269Z"
        fill="currentColor" />
    <path
        d="M10.4171 10.0892C10.348 10.0892 10.2789 10.0659 10.2222 10.0196C10.1339 9.9472 10.049 9.86981 9.97005 9.78947C9.3835 9.19507 9.06297 8.41273 9.06793 7.58698C9.0703 7.23378 9.13005 6.88744 9.2455 6.55738C9.44017 5.99836 9.78411 5.51079 10.24 5.14781C10.3534 5.0575 10.5144 5.05858 10.6266 5.15049C11.3633 5.7539 11.7993 6.67227 11.7932 7.60716C11.7911 7.93553 11.7375 8.25883 11.6338 8.56793C11.442 9.1383 11.0876 9.6411 10.6088 10.0222C10.5526 10.0669 10.4849 10.0892 10.4171 10.0892ZM10.4292 5.80147C10.1601 6.06716 9.9539 6.39433 9.82645 6.76021C9.73331 7.02652 9.68516 7.30587 9.68328 7.59092C9.67928 8.25221 9.93682 8.87975 10.4085 9.35766C10.4123 9.3616 10.4162 9.36553 10.4201 9.36944C10.7078 9.08944 10.9237 8.74883 11.0504 8.37203C11.1333 8.1251 11.1761 7.86639 11.1777 7.60329C11.1822 6.93738 10.9061 6.28104 10.4292 5.80147Z"
        fill="currentColor" />
    <path
        d="M8.2034 11.1778C7.2761 11.1778 6.36497 10.7417 5.76604 10.0113C5.67411 9.89916 5.67294 9.73809 5.76321 9.62464C6.12598 9.16873 6.61355 8.82464 7.17321 8.62966C7.5034 8.51427 7.8498 8.45458 8.20257 8.45221L8.22155 8.45215C9.03946 8.45215 9.81509 8.77264 10.4055 9.35461C10.4856 9.43332 10.563 9.51815 10.6353 9.60655C10.7271 9.7187 10.7282 9.87975 10.6379 9.99313C10.2565 10.472 9.75358 10.8264 9.18358 11.018C8.8737 11.122 8.55038 11.1757 8.2225 11.1777L8.2034 11.1778ZM6.41697 9.81363C6.8929 10.2863 7.54355 10.5624 8.20343 10.5624L8.21869 10.5624C8.48121 10.5607 8.73992 10.5178 8.98767 10.4347C9.36426 10.3081 9.70494 10.0922 9.98512 9.80436C9.98137 9.80064 9.97761 9.79692 9.97383 9.7932C9.49897 9.32516 8.87681 9.06756 8.22158 9.06756L8.2065 9.06763C7.9218 9.0695 7.64232 9.11766 7.37598 9.2107C7.00977 9.33827 6.68254 9.54461 6.41697 9.81363Z"
        fill="currentColor" />
    <path
        d="M8.60374 8.27541C8.5346 8.27541 8.46549 8.25218 8.40885 8.20581C8.32038 8.13338 8.23552 8.056 8.15663 7.97572C7.57023 7.38187 7.24958 6.59966 7.2542 5.77369C7.25657 5.4204 7.31632 5.07406 7.43177 4.74397C7.62654 4.18464 7.97045 3.69698 8.42623 3.33409C8.53968 3.24378 8.70069 3.24486 8.81288 3.33677C9.54989 3.94046 9.98598 4.85889 9.97943 5.79357C9.97777 6.12061 9.92414 6.44403 9.82005 6.75421C9.62878 7.32397 9.27451 7.8268 8.79543 8.2084C8.73931 8.2531 8.67149 8.27541 8.60374 8.27541ZM8.61552 3.98772C8.34654 4.25341 8.14026 4.5807 8.01278 4.94674C7.91962 5.2131 7.87146 5.49246 7.86958 5.77747C7.86589 6.43892 8.12349 7.06637 8.59497 7.54384C8.59885 7.54778 8.60275 7.55172 8.60666 7.55563C8.89451 7.27541 9.11029 6.93486 9.23666 6.5584C9.31986 6.31046 9.36275 6.05187 9.36408 5.78984C9.36872 5.12378 9.09266 4.46744 8.61552 3.98772Z"
        fill="currentColor" />
    <path
        d="M6.38968 9.36406C5.46239 9.36406 4.55125 8.92797 3.95233 8.19757C3.86033 8.08538 3.85922 7.92415 3.94965 7.8107C4.31316 7.35455 4.80082 7.01058 5.35986 6.81587C5.68956 6.70055 6.03602 6.64083 6.38916 6.63846L6.40808 6.63843C7.22599 6.63843 8.00156 6.95904 8.59186 7.54123C8.67193 7.61994 8.74934 7.7048 8.82165 7.79317C8.91343 7.90535 8.91451 8.06637 8.8242 8.17972C8.44294 8.65834 7.9402 9.01258 7.3702 9.20427C7.05993 9.30827 6.73657 9.362 6.40879 9.364L6.38968 9.36406ZM4.60337 8C5.07928 8.47258 5.72993 8.74867 6.38968 8.74867L6.40494 8.74861C6.6674 8.74698 6.92626 8.70403 7.17429 8.62089C7.55076 8.4943 7.89131 8.27855 8.17137 7.99089C8.16762 7.98717 8.16386 7.98341 8.16008 7.97972C7.68531 7.51147 7.06322 7.25381 6.40808 7.25381L6.39303 7.25384C6.10805 7.25575 5.82857 7.30384 5.56263 7.39689C5.19669 7.52434 4.8694 7.7307 4.60337 8Z"
        fill="currentColor" />
    <path
        d="M4.30816 5.45474C4.24349 5.45474 4.17832 5.43444 4.12278 5.39244C4.00376 5.30244 3.8905 5.20317 3.78607 5.09739C3.12004 4.42305 2.78496 3.46853 2.88976 2.5441C2.9061 2.40004 3.02075 2.28696 3.16503 2.27259C4.11275 2.17813 5.07069 2.51924 5.72746 3.18477C5.82844 3.28714 5.92324 3.39767 6.00921 3.51333C6.11059 3.64973 6.08223 3.84247 5.94583 3.94382C5.80946 4.0452 5.61669 4.01684 5.51533 3.88044C5.44638 3.78767 5.37035 3.69902 5.28939 3.61696C4.82183 3.14311 4.16244 2.87425 3.48613 2.87234C3.48355 3.52988 3.74967 4.18477 4.22395 4.66493C4.3077 4.74976 4.39856 4.82936 4.49404 4.9016C4.62958 5.00413 4.65632 5.19711 4.55379 5.33262C4.49327 5.41265 4.40127 5.45474 4.30816 5.45474Z"
        fill="currentColor" />
    <path
        d="M6.78996 6.46189C6.72082 6.46189 6.65171 6.43866 6.5951 6.39232C6.50667 6.31996 6.42181 6.24254 6.34285 6.1622C5.7563 5.56786 5.43581 4.78553 5.44073 3.95974C5.44141 3.86026 5.44673 3.76143 5.45648 3.66577C5.53858 2.82248 5.96011 2.04008 6.61282 1.52054C6.72627 1.43029 6.88728 1.43143 6.99941 1.52325C7.73608 2.12666 8.17218 3.04506 8.16596 3.97996C8.16396 4.30873 8.11021 4.63214 8.00621 4.941C7.81501 5.51048 7.4607 6.01331 6.98168 6.39485C6.92553 6.43959 6.85774 6.46189 6.78996 6.46189ZM6.80211 2.17432C6.3899 2.58223 6.12642 3.13516 6.06879 3.72682C6.06085 3.80463 6.05661 3.88386 6.05608 3.96374C6.05211 4.625 6.30965 5.25251 6.78125 5.73039C6.7851 5.73429 6.78898 5.7382 6.79285 5.74211C7.08073 5.46189 7.29648 5.12134 7.42288 4.74491C7.50605 4.49796 7.54898 4.23934 7.55054 3.97605C7.55501 3.31017 7.27898 2.65386 6.80211 2.17432Z"
        fill="currentColor" />
    <path
        d="M4.57596 7.55058C3.64866 7.55058 2.73753 7.11452 2.1386 6.38409C2.04666 6.27194 2.04549 6.11086 2.13577 5.99741C2.65405 5.34612 3.43479 4.92458 4.27783 4.84095C4.37229 4.8311 4.47279 4.82569 4.57503 4.82501L4.59402 4.82495C5.41199 4.82495 6.18762 5.14544 6.77805 5.72738C6.85817 5.80618 6.93556 5.89101 7.00783 5.97932C7.09965 6.0915 7.10072 6.25252 7.01039 6.3659C6.62897 6.84477 6.1262 7.19914 5.55642 7.39077C5.24608 7.49477 4.92273 7.54849 4.59497 7.55049L4.57596 7.55058ZM2.78968 6.18655C3.26559 6.65917 3.9162 6.9352 4.57596 6.9352L4.59122 6.93514C4.85368 6.93354 5.11251 6.89055 5.3606 6.80741C5.73694 6.68083 6.07749 6.46501 6.35768 6.17714C6.35389 6.17338 6.35011 6.16963 6.34632 6.1659C5.87152 5.69794 5.24931 5.44034 4.59402 5.44034L4.57897 5.44037C4.49679 5.44092 4.41629 5.44523 4.34005 5.45317C3.74848 5.51187 3.19666 5.77535 2.78968 6.18655Z"
        fill="currentColor" />
    <path
        d="M13.0939 12.8059C13.0151 12.8059 12.9364 12.7758 12.8763 12.7158L11.9929 11.8324C11.8728 11.7122 11.8728 11.5174 11.9929 11.3972C12.1131 11.2771 12.3079 11.2771 12.4281 11.3972L13.3115 12.2806C13.4317 12.4008 13.4317 12.5956 13.3115 12.7158C13.2514 12.7759 13.1726 12.8059 13.0939 12.8059Z"
        fill="currentColor" />
    <path
        d="M3.07689 11.8462C2.5679 11.8462 2.15381 11.4321 2.15381 10.9231C2.15381 10.4141 2.5679 10 3.07689 10C3.58587 10 3.99996 10.4141 3.99996 10.9231C3.99996 11.4321 3.58587 11.8462 3.07689 11.8462ZM3.07689 10.6154C2.90722 10.6154 2.76919 10.7534 2.76919 10.9231C2.76919 11.0927 2.90722 11.2308 3.07689 11.2308C3.24655 11.2308 3.38458 11.0927 3.38458 10.9231C3.38458 10.7534 3.24655 10.6154 3.07689 10.6154Z"
        fill="currentColor" />
    <path
        d="M6.92304 14.923C6.49889 14.923 6.15381 14.5779 6.15381 14.1538C6.15381 13.7296 6.49889 13.3845 6.92304 13.3845C7.34719 13.3845 7.69227 13.7296 7.69227 14.1538C7.69227 14.5779 7.34719 14.923 6.92304 14.923ZM6.92304 13.9999C6.83821 13.9999 6.76919 14.0689 6.76919 14.1538C6.76919 14.2386 6.83821 14.3076 6.92304 14.3076C7.00787 14.3076 7.07689 14.2386 7.07689 14.1538C7.07689 14.0689 7.00787 13.9999 6.92304 13.9999Z"
        fill="currentColor" />
    <path
        d="M12.9232 3.84606C12.2445 3.84606 11.6924 3.29394 11.6924 2.61529C11.6924 1.93664 12.2445 1.38452 12.9232 1.38452C13.6018 1.38452 14.1539 1.93664 14.1539 2.61529C14.1539 3.29394 13.6018 3.84606 12.9232 3.84606ZM12.9232 1.99991C12.5838 1.99991 12.3078 2.27597 12.3078 2.61529C12.3078 2.95461 12.5838 3.23068 12.9232 3.23068C13.2625 3.23068 13.5385 2.95461 13.5385 2.61529C13.5385 2.27597 13.2625 1.99991 12.9232 1.99991Z"
        fill="currentColor" />
</svg>