<svg xmlns="http://www.w3.org/2000/svg" width="12" height="12" viewBox="0 0 12 12" fill="none">
    <g clip-path="url(#clip0_14523_20026)">
        <path
            d="M6 12C9.31371 12 12 9.31371 12 6C12 2.68629 9.31371 0 6 0C2.68629 0 0 2.68629 0 6C0 9.31371 2.68629 12 6 12Z"
            fill="black" />
        <path
            d="M10.2889 6.61641C10.2889 6.61406 10.2889 6.61406 10.2889 6.61641C10.2889 6.61172 10.2889 6.60938 10.2912 6.60938C10.2936 6.60234 10.2936 6.59531 10.2936 6.58594C10.2936 6.58359 10.2936 6.58125 10.2936 6.57656C10.2936 6.56953 10.2936 6.5625 10.2912 6.55547C10.2912 6.55313 10.2912 6.55313 10.2912 6.55078L9.98652 5.27813C9.9748 5.23125 9.93965 5.19609 9.89277 5.18438L8.63184 4.87969C8.62949 4.87969 8.62715 4.87969 8.6248 4.87969C8.61777 4.87734 8.61309 4.87734 8.60606 4.87734C8.60371 4.87734 8.59902 4.87734 8.59668 4.87734C8.58965 4.87734 8.58262 4.87969 8.57324 4.87969C8.5709 4.87969 8.56855 4.87969 8.56621 4.87969H8.56387C8.55449 4.88203 8.54746 4.88672 8.53809 4.89141C8.53574 4.89141 8.53574 4.89375 8.5334 4.89375C8.52637 4.89844 8.51934 4.90313 8.51465 4.90781L8.51231 4.91016L6.98652 6.39141C6.97246 6.39609 6.9584 6.40547 6.94902 6.41484C6.9373 6.42656 6.92793 6.44063 6.92324 6.45469L6.37715 6.98672L6.07246 5.93906C6.07246 5.93672 6.07012 5.93203 6.06777 5.92969C6.06543 5.925 6.06543 5.92266 6.06309 5.92031C6.05606 5.90625 6.04902 5.89453 6.0373 5.88516C6.02559 5.87578 6.01387 5.86875 5.9998 5.86172C5.99746 5.85938 5.99277 5.85938 5.99043 5.85703C5.98809 5.85703 5.9834 5.85469 5.98105 5.85234L4.96152 5.60625L7.11777 3.45938L6.78965 2.02266L5.3998 1.71094L1.70605 5.39063L2.01777 6.77813L3.28105 7.10625L3.59043 8.32734C3.60215 8.37422 3.63965 8.40938 3.68652 8.41875L4.85605 8.65313L5.20059 9.88359C5.20059 9.88594 5.20293 9.88828 5.20527 9.89297C5.20762 9.89531 5.20762 9.9 5.20996 9.90234C5.21699 9.91406 5.22402 9.92813 5.2334 9.9375V9.93984C5.24277 9.94922 5.25684 9.95859 5.2709 9.96328C5.27559 9.96563 5.27793 9.96563 5.28262 9.96797C5.28496 9.97031 5.28965 9.97031 5.29199 9.97266L6.52949 10.2891C6.53887 10.2914 6.55059 10.2938 6.55996 10.2938C6.57168 10.2938 6.58105 10.2914 6.59043 10.2891C6.59277 10.2891 6.59277 10.2891 6.59512 10.2891C6.59746 10.2891 6.5998 10.2867 6.5998 10.2867C6.60449 10.2844 6.60918 10.2844 6.61152 10.282C6.61621 10.2797 6.61855 10.2773 6.62324 10.2773C6.62559 10.275 6.63027 10.2727 6.63262 10.2703C6.63496 10.268 6.63965 10.2656 6.64199 10.2633C6.64434 10.2609 6.64434 10.2609 6.64668 10.2586L10.2537 6.675L10.2561 6.67266C10.2607 6.66797 10.2654 6.66094 10.2701 6.65391C10.2701 6.65156 10.2725 6.65156 10.2725 6.64922C10.2818 6.63281 10.2865 6.62344 10.2889 6.61641ZM8.64824 7.91016L8.40684 6.93984L9.00215 6.34453L9.93262 6.63281L8.64824 7.91016ZM6.6209 9.92578L6.35137 8.99766L7.43652 7.9125L8.34824 8.21016L6.6209 9.92578ZM5.13965 8.73047L5.99746 8.99297L5.38574 9.60469L5.13965 8.73047ZM6.9748 6.75938L7.23496 7.75781L6.19668 8.79609L5.19355 8.48906L6.9748 6.75938ZM8.54277 5.23594L8.82402 6.16875L8.23809 6.75469L7.28887 6.45469L8.54277 5.23594ZM8.40449 7.96406L7.63574 7.71328L8.20059 7.14844L8.40449 7.96406ZM7.44121 7.55156L7.21855 6.69609L8.03887 6.95391L7.44121 7.55156ZM6.14746 9.19922L6.37715 9.98672L5.56621 9.78047L6.14746 9.19922ZM9.9959 6.39375L9.06777 6.10547L8.78887 5.175L9.76152 5.40938L9.9959 6.39375ZM5.02715 8.30156L4.7998 7.36641L5.14668 7.00313L6.08652 7.27266L5.02715 8.30156ZM5.16543 6.61875L4.91465 5.85234L5.71387 6.04453L5.16543 6.61875ZM5.34355 6.79688L5.89434 6.21797L6.12871 7.01953L5.34355 6.79688ZM4.96855 6.825L4.62168 7.18828L3.63027 6.93516L4.66621 5.90391L4.96855 6.825ZM3.80605 3.65391L4.0709 4.53281L2.98105 5.63203L2.0834 5.36953L3.80605 3.65391ZM5.61074 2.97891L5.03887 3.55781L4.11309 3.34922L5.37637 2.09297L5.61074 2.97891ZM5.48652 4.73203L5.24277 3.70781L5.78418 3.16172L6.74512 3.47812L5.48652 4.73203ZM4.27246 4.33125L4.0498 3.59297L4.83027 3.76875L4.27246 4.33125ZM5.03418 3.91641L5.2334 4.75781L4.45293 4.50469L5.03418 3.91641ZM2.95293 6.01641L3.19902 6.825L2.36699 6.60938L2.95293 6.01641ZM3.15449 5.81484L4.25371 4.70625L5.20293 5.01563L3.44512 6.76641L3.15449 5.81484ZM6.8084 3.23203L5.85449 2.91797L5.61309 2.01563L6.57871 2.23359L6.8084 3.23203ZM2.01309 5.61094L2.77949 5.83594L2.1959 6.42422L2.01309 5.61094ZM3.81309 8.18672L3.55762 7.17656L4.55605 7.43203L4.78809 8.38125L3.81309 8.18672Z"
            fill="url(#paint0_linear_14523_20026)" />
    </g>
    <defs>
        <linearGradient id="paint0_linear_14523_20026" x1="3.62487" y1="8.38525" x2="8.38786" y2="3.62226"
            gradientUnits="userSpaceOnUse">
            <stop stop-color="#34A3ED" />
            <stop offset="0.9988" stop-color="#8165F5" />
        </linearGradient>
        <clipPath id="clip0_14523_20026">
            <rect width="12" height="12" fill="white" />
        </clipPath>
    </defs>
</svg>