<svg xmlns="http://www.w3.org/2000/svg" width="16" height="16" viewBox="0 0 16 16" fill="none">
    <g clip-path="url(#clip0_16200_15793)">
        <path
            d="M8 16C12.4183 16 16 12.4183 16 8C16 3.58172 12.4183 0 8 0C3.58172 0 0 3.58172 0 8C0 12.4183 3.58172 16 8 16Z"
            fill="black" />
        <path
            d="M13.7187 8.82188C13.7187 8.81875 13.7187 8.81875 13.7187 8.82188C13.7187 8.81563 13.7187 8.8125 13.7218 8.8125C13.7249 8.80313 13.7249 8.79375 13.7249 8.78125C13.7249 8.77813 13.7249 8.775 13.7249 8.76875C13.7249 8.75938 13.7249 8.75 13.7218 8.74063C13.7218 8.7375 13.7218 8.7375 13.7218 8.73438L13.3155 7.0375C13.2999 6.975 13.253 6.92813 13.1905 6.9125L11.5093 6.50625C11.5062 6.50625 11.503 6.50625 11.4999 6.50625C11.4905 6.50313 11.4843 6.50313 11.4749 6.50313C11.4718 6.50313 11.4655 6.50313 11.4624 6.50313C11.453 6.50313 11.4437 6.50625 11.4312 6.50625C11.428 6.50625 11.4249 6.50625 11.4218 6.50625H11.4187C11.4062 6.50938 11.3968 6.51563 11.3843 6.52188C11.3812 6.52188 11.3812 6.525 11.378 6.525C11.3687 6.53125 11.3593 6.5375 11.353 6.54375L11.3499 6.54688L9.31553 8.52188C9.29678 8.52813 9.27803 8.54063 9.26553 8.55313C9.2499 8.56875 9.2374 8.5875 9.23115 8.60625L8.50303 9.31563L8.09678 7.91875C8.09678 7.91563 8.09365 7.90938 8.09053 7.90625C8.0874 7.9 8.0874 7.89688 8.08428 7.89375C8.0749 7.875 8.06553 7.85938 8.0499 7.84688C8.03428 7.83438 8.01865 7.825 7.9999 7.81563C7.99678 7.8125 7.99053 7.8125 7.9874 7.80938C7.98428 7.80938 7.97803 7.80625 7.9749 7.80313L6.61553 7.475L9.49053 4.6125L9.05303 2.69688L7.1999 2.28125L2.2749 7.1875L2.69053 9.0375L4.3749 9.475L4.7874 11.1031C4.80303 11.1656 4.85303 11.2125 4.91553 11.225L6.4749 11.5375L6.93428 13.1781C6.93428 13.1813 6.9374 13.1844 6.94053 13.1906C6.94365 13.1938 6.94365 13.2 6.94678 13.2031C6.95615 13.2188 6.96553 13.2375 6.97803 13.25V13.2531C6.99053 13.2656 7.00928 13.2781 7.02803 13.2844C7.03428 13.2875 7.0374 13.2875 7.04365 13.2906C7.04678 13.2938 7.05303 13.2938 7.05615 13.2969L8.70615 13.7188C8.71865 13.7219 8.73428 13.725 8.74678 13.725C8.7624 13.725 8.7749 13.7219 8.7874 13.7188C8.79053 13.7188 8.79053 13.7188 8.79365 13.7188C8.79678 13.7188 8.7999 13.7156 8.7999 13.7156C8.80615 13.7125 8.8124 13.7125 8.81553 13.7094C8.82178 13.7063 8.8249 13.7031 8.83115 13.7031C8.83428 13.7 8.84053 13.6969 8.84365 13.6938C8.84678 13.6906 8.85303 13.6875 8.85615 13.6844C8.85928 13.6813 8.85928 13.6813 8.8624 13.6781L13.6718 8.9L13.6749 8.89688C13.6812 8.89063 13.6874 8.88125 13.6937 8.87188C13.6937 8.86875 13.6968 8.86875 13.6968 8.86563C13.7093 8.84375 13.7155 8.83125 13.7187 8.82188ZM11.5312 10.5469L11.2093 9.25313L12.003 8.45938L13.2437 8.84375L11.5312 10.5469ZM8.82803 13.2344L8.46865 11.9969L9.91553 10.55L11.1312 10.9469L8.82803 13.2344ZM6.85303 11.6406L7.99678 11.9906L7.18115 12.8063L6.85303 11.6406ZM9.2999 9.0125L9.64678 10.3438L8.2624 11.7281L6.9249 11.3188L9.2999 9.0125ZM11.3905 6.98125L11.7655 8.225L10.9843 9.00625L9.71865 8.60625L11.3905 6.98125ZM11.2062 10.6188L10.1812 10.2844L10.9343 9.53125L11.2062 10.6188ZM9.92178 10.0688L9.6249 8.92813L10.7187 9.27188L9.92178 10.0688ZM8.19678 12.2656L8.50303 13.3156L7.42178 13.0406L8.19678 12.2656ZM13.328 8.525L12.0905 8.14063L11.7187 6.9L13.0155 7.2125L13.328 8.525ZM6.70303 11.0688L6.3999 9.82188L6.8624 9.3375L8.11553 9.69688L6.70303 11.0688ZM6.8874 8.825L6.55303 7.80313L7.61865 8.05938L6.8874 8.825ZM7.1249 9.0625L7.85928 8.29063L8.17178 9.35938L7.1249 9.0625ZM6.6249 9.1L6.1624 9.58438L4.84053 9.24688L6.22178 7.87188L6.6249 9.1ZM5.0749 4.87188L5.42803 6.04375L3.9749 7.50938L2.77803 7.15938L5.0749 4.87188ZM7.48115 3.97188L6.71865 4.74375L5.48428 4.46563L7.16865 2.79063L7.48115 3.97188ZM7.31553 6.30938L6.99053 4.94375L7.7124 4.21563L8.99365 4.6375L7.31553 6.30938ZM5.69678 5.775L5.3999 4.79063L6.44053 5.025L5.69678 5.775ZM6.7124 5.22188L6.97803 6.34375L5.9374 6.00625L6.7124 5.22188ZM3.9374 8.02188L4.26553 9.1L3.15615 8.8125L3.9374 8.02188ZM4.20615 7.75313L5.67178 6.275L6.9374 6.6875L4.59365 9.02188L4.20615 7.75313ZM9.07803 4.30938L7.80615 3.89063L7.48428 2.6875L8.77178 2.97813L9.07803 4.30938ZM2.68428 7.48125L3.70615 7.78125L2.92803 8.56563L2.68428 7.48125ZM5.08428 10.9156L4.74365 9.56875L6.0749 9.90938L6.38428 11.175L5.08428 10.9156Z"
            fill="url(#paint0_linear_16200_15793)" />
    </g>
    <defs>
        <linearGradient id="paint0_linear_16200_15793" x1="4.83333" y1="11.1803" x2="11.184" y2="4.82968"
            gradientUnits="userSpaceOnUse">
            <stop stop-color="#34A3ED" />
            <stop offset="0.9988" stop-color="#8165F5" />
        </linearGradient>
        <clipPath id="clip0_16200_15793">
            <rect width="16" height="16" fill="white" />
        </clipPath>
    </defs>
</svg>