<svg width="32" height="32" viewBox="0 0 32 32" fill="none" xmlns="http://www.w3.org/2000/svg">
    <path d="M17.2533 14.7471L7.82666 24.1737" stroke="currentColor" stroke-linecap="round" stroke-linejoin="round" />
    <path
        d="M8.84394 17.3318L4.2266 16.2411C3.7186 16.1211 3.53994 15.4905 3.90794 15.1211L7.57994 11.4491C7.8266 11.2025 8.16127 11.0611 8.51194 11.0585L12.6519 11.0225"
        stroke="currentColor" stroke-linecap="round" stroke-linejoin="round" />
    <path fill-rule="evenodd" clip-rule="evenodd"
        d="M26.5053 11.9665L27.5827 6.7825C27.876 5.37183 26.628 4.12383 25.2173 4.41716L20.0333 5.4945C18.5067 5.81183 17.1067 6.56783 16.0053 7.6705L11.752 11.9225C10.1293 13.5452 9.07335 15.6492 8.74001 17.9198L8.72535 18.0172C8.51468 19.4665 9.00001 20.9292 10.0347 21.9652V21.9652C11.0693 22.9998 12.5333 23.4852 13.9827 23.2732L14.08 23.2585C16.3507 22.9265 18.4547 21.8692 20.0773 20.2465L24.3293 15.9945C25.432 14.8932 26.188 13.4932 26.5053 11.9665V11.9665Z"
        stroke="currentColor" stroke-linecap="round" stroke-linejoin="round" />
    <path d="M17.8667 6.28516C20.948 8.38649 23.6134 11.0518 25.7147 14.1332" stroke="currentColor"
        stroke-linecap="round" stroke-linejoin="round" />
    <path
        d="M14.6667 23.1557L15.7574 27.773C15.8774 28.281 16.5081 28.4597 16.8774 28.0917L20.5494 24.4197C20.7961 24.173 20.9374 23.8383 20.9401 23.4877L20.9761 19.3477"
        stroke="currentColor" stroke-linecap="round" stroke-linejoin="round" />
</svg>