<svg width="20" height="20" viewBox="0 0 20 20" fill="none" xmlns="http://www.w3.org/2000/svg">
    <path
        d="M15.0864 7.7913C15.0365 7.72936 14.9759 7.74153 14.9442 7.75417C14.9176 7.76484 14.8567 7.79893 14.8651 7.88437C14.8752 7.98695 14.8809 8.09155 14.882 8.19528C14.8865 8.62561 14.7121 9.0472 14.4036 9.35196C14.097 9.65474 13.6937 9.81788 13.2644 9.81315C12.6779 9.80574 12.1915 9.50292 11.8576 8.93742C11.5816 8.46981 11.7029 7.86671 11.8314 7.22817C11.9065 6.85441 11.9843 6.46791 11.9843 6.10006C11.9843 3.23588 10.0391 1.58345 8.87969 0.853382C8.85571 0.838307 8.83288 0.833008 8.81266 0.833008C8.77978 0.833008 8.75374 0.847044 8.7409 0.855638C8.71601 0.872324 8.67618 0.910351 8.68899 0.977669C9.13217 3.30735 7.8103 4.70852 6.4108 6.19194C4.96826 7.72101 3.33325 9.45412 3.33325 12.5798C3.33325 16.2116 6.31806 19.1663 9.98691 19.1663C13.0077 19.1663 15.6711 17.0815 16.4637 14.0964C17.0042 12.061 16.4378 9.4683 15.0864 7.7913ZM10.1529 17.7604C9.23421 17.8019 8.36051 17.4757 7.69317 16.8441C7.033 16.2192 6.65435 15.3471 6.65435 14.4514C6.65435 12.7706 7.30357 11.5367 9.04973 9.89859C9.07831 9.87177 9.10757 9.86328 9.13307 9.86328C9.15619 9.86328 9.17623 9.87027 9.19001 9.87682C9.21905 9.89068 9.2668 9.92498 9.26036 9.99917C9.19793 10.7184 9.19901 11.3153 9.26355 11.7735C9.42849 12.9438 10.294 13.7302 11.4173 13.7302C11.9681 13.7302 12.4927 13.525 12.8945 13.1525C12.9411 13.1092 12.9932 13.1147 13.0132 13.1189C13.0396 13.1246 13.075 13.1406 13.0936 13.1849C13.2602 13.5831 13.3453 14.0058 13.3466 14.4412C13.352 16.1931 11.9193 17.6821 10.1529 17.7604Z"
        stroke="currentColor" />
</svg>