<svg width="16" height="16" viewBox="0 0 16 16" fill="none" xmlns="http://www.w3.org/2000/svg">
<path d="M10.5793 6.087C11.362 5.30433 12.63 5.30433 13.4127 6.087V6.087C14.1953 6.86967 14.1953 8.13767 13.4127 8.92033L10.0813 12.2517C9.29868 13.0343 8.03068 13.0343 7.24801 12.2517V12.2517C6.46534 11.469 6.46534 10.201 7.24801 9.41833L7.74601 8.92033" stroke="currentColor" stroke-width="1.4" stroke-linecap="round" stroke-linejoin="round"/>
<path d="M6.08736 13.4138C5.30469 14.1964 4.03669 14.1964 3.25402 13.4138V13.4138C2.47136 12.6311 2.47136 11.3631 3.25402 10.5804L6.58536 7.24911C7.36802 6.46644 8.63602 6.46644 9.41869 7.24911V7.24911C10.2014 8.03178 10.2014 9.29978 9.41869 10.0824L8.90002 10.6004" stroke="currentColor" stroke-width="1.4" stroke-linecap="round" stroke-linejoin="round"/>
<path d="M2.66669 3.66732H6.00002" stroke="currentColor" stroke-width="1.4" stroke-linecap="round" stroke-linejoin="round"/>
<path d="M4.33333 5.33333V2" stroke="currentColor" stroke-width="1.4" stroke-linecap="round" stroke-linejoin="round"/>
</svg>
