<svg width="20" height="20" viewBox="0 0 20 20" fill="none" xmlns="http://www.w3.org/2000/svg">
    <path fill-rule="evenodd" clip-rule="evenodd"
        d="M11.85 1.94558C14.5816 2.35641 16.7416 4.51558 17.1516 7.24725C17.2266 7.74641 16.825 8.19391 16.32 8.19391H11.7358C11.2758 8.19391 10.9025 7.82058 10.9025 7.36058V2.77641C10.9025 2.27141 11.3508 1.87058 11.85 1.94558V1.94558Z"
        stroke="#31CB9E" stroke-linecap="round" stroke-linejoin="round" />
    <path fill-rule="evenodd" clip-rule="evenodd"
        d="M15.9867 14.6575C16.5859 13.8483 16.9959 12.8908 17.1517 11.85C17.2267 11.3508 16.825 10.9033 16.32 10.9033H12.9142C12.1717 10.9033 11.8 11.8008 12.325 12.3258L14.7342 14.735C15.0892 15.0892 15.6875 15.0608 15.9867 14.6575V14.6575Z"
        stroke="#31CB9E" stroke-linecap="round" stroke-linejoin="round" />
    <path fill-rule="evenodd" clip-rule="evenodd"
        d="M7.25755 5.55456C3.81338 6.06622 1.27588 9.35706 1.99838 13.0729C2.47922 15.5454 4.47755 17.5346 6.95172 18.0054C8.82755 18.3621 10.5925 17.8896 11.945 16.8904C12.35 16.5912 12.3809 15.9912 12.025 15.6354L8.43838 12.0487C8.28172 11.8921 8.19422 11.6804 8.19422 11.4596V6.38456C8.19422 5.88372 7.75338 5.48122 7.25755 5.55456V5.55456Z"
        stroke="#31CB9E" stroke-linecap="round" stroke-linejoin="round" />
</svg>