<svg width="40" height="40" viewBox="0 0 40 40" fill="none" xmlns="http://www.w3.org/2000/svg">
<path d="M5 27.6968C6.91 26.8485 9.09 26.8485 11 27.6968C12.91 28.5451 15.09 28.5451 17 27.6968C18.91 26.8485 21.09 26.8485 23 27.6968C24.91 28.5451 27.09 28.5451 29 27.6968C30.91 26.8485 33.09 26.8485 35 27.6968" stroke="#A9A9A9" stroke-width="2" stroke-linecap="round" stroke-linejoin="round"/>
<path d="M5 34.3648C6.91 33.5164 9.09 33.5164 11 34.3648C12.91 35.2131 15.09 35.2131 17 34.3648C18.91 33.5164 21.09 33.5164 23 34.3648C24.91 35.2131 27.09 35.2131 29 34.3648C30.91 33.5164 33.09 33.5164 35 34.3648" stroke="#A9A9A9" stroke-width="2" stroke-linecap="round" stroke-linejoin="round"/>
<path d="M25.2814 11.9284C27.1286 13.7755 27.1286 16.7704 25.2814 18.6176C23.4342 20.4648 20.4394 20.4648 18.5922 18.6176C16.745 16.7704 16.745 13.7755 18.5922 11.9284C20.4394 10.0812 23.4342 10.0812 25.2814 11.9284" stroke="#A9A9A9" stroke-width="2" stroke-linecap="round" stroke-linejoin="round"/>
<path d="M21.0517 10.6263C20.8967 9.68464 20.4667 8.77964 19.7401 8.05297C17.8934 6.2063 14.8984 6.2063 13.0517 8.05297C11.2051 9.89964 11.2051 12.8946 13.0517 14.7413C14.2017 15.8913 15.7951 16.323 17.2801 16.0413" stroke="#A9A9A9" stroke-width="2" stroke-linecap="round" stroke-linejoin="round"/>
</svg>
