<svg width="40" height="40" viewBox="0 0 40 40" fill="none" xmlns="http://www.w3.org/2000/svg">
<path fill-rule="evenodd" clip-rule="evenodd" d="M10 35.0013H6.66667C5.74667 35.0013 5 34.2546 5 33.3346V23.3346C5 22.4146 5.74667 21.668 6.66667 21.668H10C10.92 21.668 11.6667 22.4146 11.6667 23.3346V33.3346C11.6667 34.2546 10.92 35.0013 10 35.0013Z" stroke="#A9A9A9" stroke-width="2" stroke-linecap="round" stroke-linejoin="round"/>
<path d="M21.6665 28.3338H25.5548C26.2765 28.3338 26.9782 28.1004 27.5548 27.6671L31.5815 24.6471C32.5865 23.8938 33.9932 23.9938 34.8815 24.8821V24.8821C35.8682 25.8688 35.8682 27.4671 34.8815 28.4521L31.4265 31.9071C30.4965 32.8371 29.3098 33.4721 28.0198 33.7304L23.1365 34.7071C22.1682 34.9004 21.1698 34.8771 20.2115 34.6371L15.7948 33.5338C15.2665 33.4004 14.7248 33.3338 14.1798 33.3338H11.6665" stroke="#A9A9A9" stroke-width="2" stroke-linecap="round" stroke-linejoin="round"/>
<path d="M21.6665 28.3346H24.1415C25.5365 28.3346 26.6665 27.2046 26.6665 25.8096V25.3046C26.6665 24.1463 25.8782 23.1363 24.7548 22.8563L20.9348 21.9013C20.3132 21.7463 19.6765 21.668 19.0365 21.668V21.668C17.4915 21.668 15.9798 22.1246 14.6948 22.983L11.6665 25.0013" stroke="#A9A9A9" stroke-width="2" stroke-linecap="round" stroke-linejoin="round"/>
<path d="M22.667 5.53499L25.6621 9.80955C28.1259 13.3241 25.7771 18.3333 21.667 18.3333C17.5569 18.3333 15.2081 13.3241 17.6706 9.80955L20.667 5.53499C21.167 4.82167 22.167 4.82167 22.667 5.53499Z" stroke="#A9A9A9" stroke-width="2" stroke-linecap="round" stroke-linejoin="round"/>
</svg>
