<?xml version="1.0" encoding="UTF-8"?>
<svg version="1.1" xmlns="http://www.w3.org/2000/svg" width="2019" height="2019">
<path d="M0 0 C0.89412598 0.16097168 1.78825195 0.32194336 2.70947266 0.48779297 C25.30811678 4.57557551 47.39713105 11.85135471 68 22 C68.88606934 22.43151367 69.77213867 22.86302734 70.68505859 23.30761719 C93.75982297 34.6380243 114.57327433 48.91834508 133.31640625 66.50390625 C135.60284973 68.63059822 137.92987084 70.67072561 140.3125 72.6875 C143.5722257 75.51796141 146.38623437 78.56944943 149.171875 81.86328125 C151.1168342 84.13655621 153.14860655 86.31075649 155.1875 88.5 C186.53365184 123.35862386 207.0080056 167.77123863 215.8125 213.5625 C216.00763184 214.56474609 216.20276367 215.56699219 216.40380859 216.59960938 C220.23975314 238.03756249 220.28976277 259.71172522 220.23213124 281.4141258 C220.22336298 285.56986069 220.22642619 289.72559084 220.22793579 293.8813324 C220.22897633 301.05370533 220.22278767 308.22604141 220.21146011 315.39840508 C220.19509389 325.76798969 220.18998583 336.13755679 220.18748413 346.50715292 C220.18312432 363.3377051 220.16986212 380.16823772 220.15087891 396.9987793 C220.13247547 413.33243717 220.11834091 429.66608969 220.10986328 445.99975586 C220.10907511 447.51405964 220.10907511 447.51405964 220.10827102 449.05895542 C220.10566064 454.12431502 220.10313329 459.18967466 220.10064721 464.25503433 C220.07996817 506.17003648 220.04478981 548.08501711 220 590 C220.75378433 589.84014618 221.50756866 589.68029236 222.28419495 589.51559448 C225.67056237 588.87269401 229.02979711 588.71608967 232.46484375 588.5703125 C233.98381557 588.49818069 235.50277669 588.42582327 237.02172852 588.35327148 C237.82184357 588.31628143 238.62195862 588.27929138 239.44631958 588.24118042 C255.51607125 587.49174032 271.53965232 586.42319178 287.56811523 585.05322266 C306.22945758 583.47381284 324.83629008 582.81838803 343.5625 582.875 C344.99524765 582.87782486 344.99524765 582.87782486 346.4569397 582.88070679 C368.19234817 582.93065454 389.78147628 583.49537689 411.4375 585.4375 C412.12564789 585.49894196 412.81379578 585.56038391 413.52279663 585.62368774 C420.31188352 586.24002331 427.01809501 586.98483651 433.75379944 588.03041077 C434.92371964 588.21164521 436.09363985 588.39287966 437.29901218 588.57960606 C438.19033816 588.71833606 439.08166414 588.85706606 440 589 C439.99886084 588.27026016 439.99772168 587.54052031 439.996548 586.78866714 C439.92928985 543.45675354 439.87787788 500.12484566 439.84680401 456.79289025 C439.84305227 451.58010708 439.83916927 446.36732402 439.83520508 441.15454102 C439.83441815 440.1168496 439.83363122 439.07915818 439.83282044 438.01002157 C439.81979669 421.24814017 439.79615969 404.4862899 439.76854161 387.72442692 C439.7404028 370.5017988 439.7238059 353.27918689 439.71773452 336.05653673 C439.71363558 325.4449094 439.70072973 314.83337009 439.6762506 304.22176988 C439.66028856 296.9269285 439.65562309 289.63213208 439.65949587 282.33727454 C439.66140128 278.1400377 439.65865838 273.94295376 439.64238358 269.74574471 C439.43590788 213.64405528 452.75261527 158.17018208 486 112 C486.42861328 111.40300293 486.85722656 110.80600586 487.29882812 110.19091797 C502.04377008 89.77050635 518.92709378 70.34986946 539 55 C540.0003125 54.2059375 541.000625 53.411875 542.03125 52.59375 C576.31718384 25.48602242 616.29063688 8.51496909 659 0 C660.31436035 -0.27118652 660.31436035 -0.27118652 661.65527344 -0.54785156 C689.72253648 -6.07775102 722.98930703 -5.53834043 751 0 C752.34118896 0.24145752 752.34118896 0.24145752 753.70947266 0.48779297 C777.12311558 4.72299754 799.68173811 12.47826326 821 23 C821.7930957 23.38768555 822.58619141 23.77537109 823.40332031 24.17480469 C840.48692645 32.60271705 856.22351053 42.99208019 871 55 C871.52416504 55.42120117 872.04833008 55.84240234 872.58837891 56.27636719 C888.76325812 69.36264955 903.70281469 84.20639489 916 101 C916.73734375 101.94230469 917.4746875 102.88460937 918.234375 103.85546875 C949.34392604 143.84558312 968.19324251 193.69672397 973 244 C973.11085938 245.05703125 973.22171875 246.1140625 973.3359375 247.203125 C974.01241803 254.77239361 974.13016461 262.34173108 974.1875 269.9375 C974.20707764 271.35470337 974.20707764 271.35470337 974.22705078 272.80053711 C974.24852654 291.50438838 971.61037815 309.96954669 968.296875 328.33203125 C967.90406714 330.55129366 967.51198766 332.77068508 967.12054443 334.9901886 C965.8868564 341.96119441 964.63402891 348.92870617 963.37877274 355.89585209 C962.72193587 359.54469424 962.0675734 363.1939803 961.4128418 366.84320068 C957.56186141 388.29855847 953.67866527 409.74804895 949.78934669 431.19648486 C947.87250876 441.76791085 945.95858555 452.33986424 944.04492188 462.91186523 C943.86867153 463.88555231 943.69242119 464.85923938 943.51082993 465.86243212 C942.61355215 470.81947625 941.7163217 475.77652895 940.81912231 480.73358727 C940.09491652 484.73478637 939.37060832 488.73596692 938.64620972 492.73713112 C930.73257966 536.44773873 922.85324485 580.16450256 914.98244286 623.88283968 C914.17752236 628.35365624 913.3725093 632.82445612 912.56750488 637.29525757 C909.04415035 656.86335156 905.52155274 676.43158167 902 696 C904.50126382 697.25708198 907.00323572 698.51272048 909.50561523 699.76757812 C910.55088505 700.29318329 910.55088505 700.29318329 911.61727142 700.82940674 C916.34821967 703.2000549 921.11063774 705.49035717 925.91015625 707.71875 C926.64960983 708.06274338 927.38906342 708.40673676 928.15092468 708.76115417 C928.73493546 709.03099625 929.31894623 709.30083832 929.9206543 709.57885742 C965.86943301 726.23420028 1000.28293585 745.20763791 1034 766 C1034.90266602 766.55574707 1035.80533203 767.11149414 1036.73535156 767.68408203 C1067.32802044 786.57814311 1096.45272766 807.72853767 1124.2265625 830.546875 C1125.8432593 831.87156929 1127.46808288 833.1863296 1129.09375 834.5 C1134.43198015 838.81856821 1139.60295589 843.27136343 1144.6796875 847.89453125 C1146.70154184 849.72917685 1148.74678522 851.52768786 1150.8125 853.3125 C1161.40501102 862.56852694 1171.4859131 872.32320435 1181.41357422 882.28320312 C1183.3904601 884.26550244 1185.37271039 886.24232633 1187.35546875 888.21875 C1193.45012019 894.31020602 1199.44219533 900.40770591 1205 907 C1206.45445517 908.60768373 1207.91220895 910.21239715 1209.375 911.8125 C1214.10571502 917.06175883 1218.57083694 922.49558996 1223 928 C1223.91374442 929.12135302 1224.82782139 930.24243511 1225.7421875 931.36328125 C1237.62801268 945.9982904 1248.77460637 961.15973438 1259 977 C1259.45020508 977.68932617 1259.90041016 978.37865234 1260.36425781 979.08886719 C1283.93513525 1015.22872519 1302.77437585 1053.92155491 1316 1095 C1316.3295166 1096.0111084 1316.6590332 1097.0222168 1316.99853516 1098.06396484 C1326.21438347 1126.64587603 1331.91455518 1156.14414357 1335 1186 C1335.08222998 1186.75397442 1335.16445995 1187.50794884 1335.24918175 1188.28477097 C1336.19961073 1198.0573435 1336.15569738 1207.80505799 1336.16113281 1217.61279297 C1336.16577022 1219.57571504 1336.17079609 1221.53863623 1336.17617798 1223.5015564 C1336.18922414 1228.80847567 1336.19573285 1234.11538234 1336.20018864 1239.42231512 C1336.2031349 1242.75337863 1336.20724273 1246.08443882 1336.21169281 1249.41550064 C1336.22535367 1259.88173431 1336.23502452 1270.34796023 1336.2388947 1280.81420219 C1336.24335767 1292.81159901 1336.26082924 1304.8088809 1336.2898953 1316.80624282 C1336.31168656 1326.13171958 1336.32160834 1335.45716444 1336.32293582 1344.78266633 C1336.32397243 1350.32679377 1336.32962977 1355.87081302 1336.34775543 1361.41491318 C1336.42092975 1385.13547038 1336.17733185 1408.45627122 1333 1432 C1332.88793276 1432.84427897 1332.77586552 1433.68855795 1332.6604023 1434.55842113 C1332.08834839 1438.80646867 1331.43267495 1443.02891805 1330.6875 1447.25 C1330.47512695 1448.47775146 1330.26275391 1449.70550293 1330.04394531 1450.97045898 C1313.00302406 1546.98949606 1264.42812597 1632.70951394 1199 1704 C1198.51901855 1704.52609863 1198.03803711 1705.05219727 1197.54248047 1705.59423828 C1190.39920149 1713.39193093 1183.09001429 1721.00953417 1175.625 1728.5 C1174.88838135 1729.24121094 1174.1517627 1729.98242188 1173.39282227 1730.74609375 C1169.33448747 1734.79299404 1165.18137412 1738.66412202 1160.83984375 1742.40527344 C1158.22989975 1744.66750197 1155.71487522 1747.02082952 1153.1875 1749.375 C1148.54442811 1753.66430703 1143.76558383 1757.72678619 1138.83984375 1761.69140625 C1136.2818121 1763.77090653 1133.76857206 1765.89052282 1131.26489258 1768.03442383 C1124.36317253 1773.93946851 1117.2720284 1779.55779315 1110 1785 C1109.30664551 1785.51933105 1108.61329102 1786.03866211 1107.89892578 1786.57373047 C1064.38596121 1819.07796245 1017.9233119 1847.48437202 970 1873 C968.75790771 1873.66443115 968.75790771 1873.66443115 967.49072266 1874.34228516 C962.01501023 1877.26963768 956.51790653 1880.15299504 951 1883 C950.12537109 1883.45165527 949.25074219 1883.90331055 948.34960938 1884.36865234 C864.49892416 1927.46104994 773.88387056 1957.4000096 464.30078125 2011.90234375 C463.56740036 2011.96321671 462.83401947 2012.02408966 462.07841492 2012.08680725 C421.54815092 2015.33575942 381.04089968 2016.33662636 340.39160156 2016.26074219 C334.23447877 2016.24934877 328.07752898 2016.25613739 321.92041206 2016.26762009 C291.89231281 2016.31511198 261.97791801 2015.7707445 232 2014 C230.05172302 2013.88658264 230.05172302 2013.88658264 228.06408691 2013.77087402 C220.74522993 2013.33378917 213.43459241 2012.82041141 206.125 2012.25 C204.51415024 2012.12644638 204.51415024 2012.12644638 202.87075806 2012.00039673 C106.44897806 2004.53902651 10.77824959 1988.14000909 -130 1947 C-130.77454529 1946.7462561 -131.54909058 1946.49251221 -132.34710693 1946.2310791 C-168.61767236 1934.33813123 -204.17262276 1920.62406896 -239 1905 C-240.02818848 1904.54302734 -241.05637695 1904.08605469 -242.11572266 1903.61523438 C-271.09275201 1890.70333543 -299.91607078 1876.68082212 -327.27148438 1860.59521484 C-330.32958922 1858.80730709 -333.40547078 1857.05261823 -336.484375 1855.30078125 C-354.88776335 1844.81138255 -372.6772449 1833.59495844 -390.3125 1821.875 C-391.25216614 1821.2513707 -391.25216614 1821.2513707 -392.21081543 1820.61514282 C-404.03952714 1812.75477937 -415.65795441 1804.61346583 -427 1796.0625 C-427.99036255 1795.31746216 -427.99036255 1795.31746216 -429.00073242 1794.55737305 C-448.00926731 1780.20723583 -466.47473993 1765.15287798 -483.88671875 1748.89453125 C-485.80965844 1747.09904016 -487.74728181 1745.33035785 -489.70703125 1743.57421875 C-496.79986408 1737.21197814 -503.56840779 1730.53976501 -510.3125 1723.8125 C-510.78871796 1723.33887024 -511.26493591 1722.86524048 -511.75558472 1722.3772583 C-516.85058727 1717.30410668 -521.8325566 1712.19097443 -526.51342773 1706.73168945 C-528.57561888 1704.32946877 -530.72686543 1702.01283759 -532.875 1699.6875 C-536.91402153 1695.25368689 -540.77506878 1690.71945416 -544.5390625 1686.05078125 C-546.33280236 1683.82711326 -548.13872383 1681.61801522 -549.9609375 1679.41796875 C-614.02573061 1601.82335306 -660.1454234 1502.20088212 -664.40297651 1359.5506649 C-664.39524185 1353.97945128 -664.40246297 1348.40825053 -664.40713501 1342.83703613 C-664.41255322 1333.491102 -664.40550556 1324.14523959 -664.39111328 1314.79931641 C-664.37479451 1304.08036629 -664.38008583 1293.36158753 -664.3965925 1282.64264154 C-664.41032084 1273.34651326 -664.41207227 1264.05043577 -664.40427649 1254.75430059 C-664.39966161 1249.24287463 -664.39880013 1243.73152848 -664.40888596 1238.22010803 C-664.56260202 1140.82269498 -638.20096495 1050.39789042 -560 936 C-559.13174131 934.87582652 -558.26458572 933.75080035 -557.3984375 932.625 C-547.71898125 920.09389054 -537.27820658 908.26135405 -526.51342773 896.65698242 C-525.37405866 895.40953962 -524.24821794 894.14972007 -523.12915039 892.8840332 C-517.19769593 886.19229196 -510.9842873 879.83034614 -504.65209961 873.52172852 C-502.9329133 871.80792767 -501.21917417 870.08880918 -499.50585938 868.36914062 C-494.36784057 863.22801335 -489.22180983 858.16312286 -483.68823242 853.44311523 C-481.11684661 851.24507308 -478.6627842 848.93064933 -476.1875 846.625 C-471.61567543 842.40601746 -466.92745156 838.38852532 -462.078125 834.48828125 C-459.77859241 832.62939514 -457.50086452 830.75385224 -455.234375 828.85546875 C-445.2070301 820.47461867 -434.91983092 812.51367288 -424.39648438 804.765625 C-422.22219333 803.16370234 -420.0559709 801.55147489 -417.890625 799.9375 C-363.9520934 760.0667734 -304.7912116 727.54159813 -243.6962738 700.11947632 C-240.32636244 698.60601905 -240.32636244 698.60601905 -237 697 C-237.59331099 688.35268223 -238.96325105 679.92490255 -240.52734375 671.40722656 C-240.79030743 669.95501162 -241.05284325 668.50271915 -241.31499195 667.05035686 C-242.03217998 663.08380383 -242.75529023 659.11835054 -243.47937799 655.15305209 C-244.26177318 650.86225003 -245.03848531 646.57041904 -245.81584167 642.27870178 C-247.16408947 634.83920151 -248.51567166 627.40031349 -249.86947632 619.96182251 C-252.01623922 608.16583692 -254.15581503 596.36855364 -256.29418945 584.57104492 C-257.02854527 580.51999803 -257.76294493 576.46895908 -258.49736023 572.41792297 C-258.68100799 571.40489442 -258.86465575 570.39186586 -259.05386859 569.34813946 C-260.37602199 562.05542022 -261.69908081 554.76286557 -263.02253723 547.47038269 C-270.34235256 507.13539043 -277.63569905 466.79563678 -284.9139843 426.45313072 C-286.8992022 415.44951685 -288.88583743 404.44616127 -290.87470454 393.44320637 C-292.24296165 385.87313141 -293.60974143 378.30279067 -294.97539121 370.73224491 C-295.76065293 366.37933772 -296.54650347 362.02653935 -297.33412743 357.67405891 C-300.2399572 341.61328588 -303.11727795 325.54864537 -305.8293457 309.45385742 C-306.03163127 308.26436399 -306.23391684 307.07487055 -306.44233227 305.84933186 C-317.67688913 238.36916452 -302.63933495 167.15137489 -263.1875 110.95703125 C-257.77363371 103.39017831 -252.03618656 96.08069971 -246 89 C-245.04673828 87.87851563 -245.04673828 87.87851563 -244.07421875 86.734375 C-232.79731305 73.85899528 -220.67256705 61.44991403 -206.82666016 51.34375 C-204.86672324 49.90195732 -202.93994554 48.42139025 -201.01171875 46.9375 C-168.85491834 22.54727479 -131.33874287 7.84296826 -92 0 C-90.68563965 -0.27118652 -90.68563965 -0.27118652 -89.34472656 -0.54785156 C-61.27746352 -6.07775102 -28.01069297 -5.53834043 0 0 Z " fill="#D0874E" transform="translate(673,3)"/>
<path d="M0 0 C0.89412598 0.16097168 1.78825195 0.32194336 2.70947266 0.48779297 C25.30811678 4.57557551 47.39713105 11.85135471 68 22 C68.88606934 22.43151367 69.77213867 22.86302734 70.68505859 23.30761719 C93.75982297 34.6380243 114.57327433 48.91834508 133.31640625 66.50390625 C135.60284973 68.63059822 137.92987084 70.67072561 140.3125 72.6875 C143.5722257 75.51796141 146.38623437 78.56944943 149.171875 81.86328125 C151.1168342 84.13655621 153.14860655 86.31075649 155.1875 88.5 C186.53365184 123.35862386 207.0080056 167.77123863 215.8125 213.5625 C216.00763184 214.56474609 216.20276367 215.56699219 216.40380859 216.59960938 C220.23975314 238.03756249 220.28976277 259.71172522 220.23213124 281.4141258 C220.22336298 285.56986069 220.22642619 289.72559084 220.22793579 293.8813324 C220.22897633 301.05370533 220.22278767 308.22604141 220.21146011 315.39840508 C220.19509389 325.76798969 220.18998583 336.13755679 220.18748413 346.50715292 C220.18312432 363.3377051 220.16986212 380.16823772 220.15087891 396.9987793 C220.13247547 413.33243717 220.11834091 429.66608969 220.10986328 445.99975586 C220.10907511 447.51405964 220.10907511 447.51405964 220.10827102 449.05895542 C220.10566064 454.12431502 220.10313329 459.18967466 220.10064721 464.25503433 C220.07996817 506.17003648 220.04478981 548.08501711 220 590 C220.75378433 589.84014618 221.50756866 589.68029236 222.28419495 589.51559448 C225.67056237 588.87269401 229.02979711 588.71608967 232.46484375 588.5703125 C233.98381557 588.49818069 235.50277669 588.42582327 237.02172852 588.35327148 C237.82184357 588.31628143 238.62195862 588.27929138 239.44631958 588.24118042 C255.51607125 587.49174032 271.53965232 586.42319178 287.56811523 585.05322266 C306.22945758 583.47381284 324.83629008 582.81838803 343.5625 582.875 C344.99524765 582.87782486 344.99524765 582.87782486 346.4569397 582.88070679 C368.19234817 582.93065454 389.78147628 583.49537689 411.4375 585.4375 C412.12564789 585.49894196 412.81379578 585.56038391 413.52279663 585.62368774 C420.31188352 586.24002331 427.01809501 586.98483651 433.75379944 588.03041077 C434.92371964 588.21164521 436.09363985 588.39287966 437.29901218 588.57960606 C438.19033816 588.71833606 439.08166414 588.85706606 440 589 C439.99886084 588.27026016 439.99772168 587.54052031 439.996548 586.78866714 C439.92928985 543.45675354 439.87787788 500.12484566 439.84680401 456.79289025 C439.84305227 451.58010708 439.83916927 446.36732402 439.83520508 441.15454102 C439.83441815 440.1168496 439.83363122 439.07915818 439.83282044 438.01002157 C439.81979669 421.24814017 439.79615969 404.4862899 439.76854161 387.72442692 C439.7404028 370.5017988 439.7238059 353.27918689 439.71773452 336.05653673 C439.71363558 325.4449094 439.70072973 314.83337009 439.6762506 304.22176988 C439.66028856 296.9269285 439.65562309 289.63213208 439.65949587 282.33727454 C439.66140128 278.1400377 439.65865838 273.94295376 439.64238358 269.74574471 C439.43590788 213.64405528 452.75261527 158.17018208 486 112 C486.42861328 111.40300293 486.85722656 110.80600586 487.29882812 110.19091797 C502.04377008 89.77050635 518.92709378 70.34986946 539 55 C540.0003125 54.2059375 541.000625 53.411875 542.03125 52.59375 C576.31718384 25.48602242 616.29063688 8.51496909 659 0 C660.31436035 -0.27118652 660.31436035 -0.27118652 661.65527344 -0.54785156 C689.72253648 -6.07775102 722.98930703 -5.53834043 751 0 C752.34118896 0.24145752 752.34118896 0.24145752 753.70947266 0.48779297 C777.12311558 4.72299754 799.68173811 12.47826326 821 23 C821.7930957 23.38768555 822.58619141 23.77537109 823.40332031 24.17480469 C840.48692645 32.60271705 856.22351053 42.99208019 871 55 C871.52416504 55.42120117 872.04833008 55.84240234 872.58837891 56.27636719 C888.76325812 69.36264955 903.70281469 84.20639489 916 101 C916.73734375 101.94230469 917.4746875 102.88460937 918.234375 103.85546875 C949.34392604 143.84558312 968.19324251 193.69672397 973 244 C973.11085938 245.05703125 973.22171875 246.1140625 973.3359375 247.203125 C974.01241803 254.77239361 974.13016461 262.34173108 974.1875 269.9375 C974.20707764 271.35470337 974.20707764 271.35470337 974.22705078 272.80053711 C974.24852654 291.50438838 971.61037815 309.96954669 968.296875 328.33203125 C967.90406714 330.55129366 967.51198766 332.77068508 967.12054443 334.9901886 C965.8868564 341.96119441 964.63402891 348.92870617 963.37877274 355.89585209 C962.72193587 359.54469424 962.0675734 363.1939803 961.4128418 366.84320068 C957.56186141 388.29855847 953.67866527 409.74804895 949.78934669 431.19648486 C947.87250876 441.76791085 945.95858555 452.33986424 944.04492188 462.91186523 C943.86867153 463.88555231 943.69242119 464.85923938 943.51082993 465.86243212 C942.61355215 470.81947625 941.7163217 475.77652895 940.81912231 480.73358727 C940.09491652 484.73478637 939.37060832 488.73596692 938.64620972 492.73713112 C930.73257966 536.44773873 922.85324485 580.16450256 914.98244286 623.88283968 C914.17752236 628.35365624 913.3725093 632.82445612 912.56750488 637.29525757 C909.04415035 656.86335156 905.52155274 676.43158167 902 696 C904.50126382 697.25708198 907.00323572 698.51272048 909.50561523 699.76757812 C910.55088505 700.29318329 910.55088505 700.29318329 911.61727142 700.82940674 C916.34821967 703.2000549 921.11063774 705.49035717 925.91015625 707.71875 C926.64960983 708.06274338 927.38906342 708.40673676 928.15092468 708.76115417 C928.73493546 709.03099625 929.31894623 709.30083832 929.9206543 709.57885742 C965.86943301 726.23420028 1000.28293585 745.20763791 1034 766 C1034.90266602 766.55574707 1035.80533203 767.11149414 1036.73535156 767.68408203 C1067.32802044 786.57814311 1096.45272766 807.72853767 1124.2265625 830.546875 C1125.8432593 831.87156929 1127.46808288 833.1863296 1129.09375 834.5 C1134.43198015 838.81856821 1139.60295589 843.27136343 1144.6796875 847.89453125 C1146.70154184 849.72917685 1148.74678522 851.52768786 1150.8125 853.3125 C1161.40501102 862.56852694 1171.4859131 872.32320435 1181.41357422 882.28320312 C1183.3904601 884.26550244 1185.37271039 886.24232633 1187.35546875 888.21875 C1193.45012019 894.31020602 1199.44219533 900.40770591 1205 907 C1206.45445517 908.60768373 1207.91220895 910.21239715 1209.375 911.8125 C1214.10571502 917.06175883 1218.57083694 922.49558996 1223 928 C1223.91374442 929.12135302 1224.82782139 930.24243511 1225.7421875 931.36328125 C1237.62801268 945.9982904 1248.77460637 961.15973438 1259 977 C1259.45020508 977.68932617 1259.90041016 978.37865234 1260.36425781 979.08886719 C1283.93513525 1015.22872519 1302.77437585 1053.92155491 1316 1095 C1316.3295166 1096.0111084 1316.6590332 1097.0222168 1316.99853516 1098.06396484 C1326.21438347 1126.64587603 1331.91455518 1156.14414357 1335 1186 C1335.08222998 1186.75397442 1335.16445995 1187.50794884 1335.24918175 1188.28477097 C1336.19961073 1198.0573435 1336.15569738 1207.80505799 1336.16113281 1217.61279297 C1336.16577022 1219.57571504 1336.17079609 1221.53863623 1336.17617798 1223.5015564 C1336.18922414 1228.80847567 1336.19573285 1234.11538234 1336.20018864 1239.42231512 C1336.2031349 1242.75337863 1336.20724273 1246.08443882 1336.21169281 1249.41550064 C1336.22535367 1259.88173431 1336.23502452 1270.34796023 1336.2388947 1280.81420219 C1336.24335767 1292.81159901 1336.26082924 1304.8088809 1336.2898953 1316.80624282 C1336.31168656 1326.13171958 1336.32160834 1335.45716444 1336.32293582 1344.78266633 C1336.32397243 1350.32679377 1336.32962977 1355.87081302 1336.34775543 1361.41491318 C1336.42092975 1385.13547038 1336.17733185 1408.45627122 1333 1432 C1332.88793276 1432.84427897 1332.77586552 1433.68855795 1332.6604023 1434.55842113 C1332.08834839 1438.80646867 1331.43267495 1443.02891805 1330.6875 1447.25 C1330.47512695 1448.47775146 1330.26275391 1449.70550293 1330.04394531 1450.97045898 C1313.00302406 1546.98949606 1264.42812597 1632.70951394 1199 1704 C1198.51901855 1704.52609863 1198.03803711 1705.05219727 1197.54248047 1705.59423828 C1190.39920149 1713.39193093 1183.09001429 1721.00953417 1175.625 1728.5 C1174.88838135 1729.24121094 1174.1517627 1729.98242188 1173.39282227 1730.74609375 C1169.33448747 1734.79299404 1165.18137412 1738.66412202 1160.83984375 1742.40527344 C1158.22989975 1744.66750197 1155.71487522 1747.02082952 1153.1875 1749.375 C1148.54442811 1753.66430703 1143.76558383 1757.72678619 1138.83984375 1761.69140625 C1136.2818121 1763.77090653 1133.76857206 1765.89052282 1131.26489258 1768.03442383 C1124.36317253 1773.93946851 1117.2720284 1779.55779315 1110 1785 C1109.30664551 1785.51933105 1108.61329102 1786.03866211 1107.89892578 1786.57373047 C1064.38596121 1819.07796245 1017.9233119 1847.48437202 970 1873 C968.75790771 1873.66443115 968.75790771 1873.66443115 967.49072266 1874.34228516 C962.01501023 1877.26963768 956.51790653 1880.15299504 951 1883 C950.12537109 1883.45165527 949.25074219 1883.90331055 948.34960938 1884.36865234 C864.49892416 1927.46104994 773.88387056 1957.4000096 464.30078125 2011.90234375 C463.56740036 2011.96321671 462.83401947 2012.02408966 462.07841492 2012.08680725 C421.54815092 2015.33575942 381.04089968 2016.33662636 340.39160156 2016.26074219 C334.23447877 2016.24934877 328.07752898 2016.25613739 321.92041206 2016.26762009 C291.89231281 2016.31511198 261.97791801 2015.7707445 232 2014 C230.05172302 2013.88658264 230.05172302 2013.88658264 228.06408691 2013.77087402 C220.74522993 2013.33378917 213.43459241 2012.82041141 206.125 2012.25 C204.51415024 2012.12644638 204.51415024 2012.12644638 202.87075806 2012.00039673 C106.44897806 2004.53902651 10.77824959 1988.14000909 -130 1947 C-130.77454529 1946.7462561 -131.54909058 1946.49251221 -132.34710693 1946.2310791 C-168.61767236 1934.33813123 -204.17262276 1920.62406896 -239 1905 C-240.02818848 1904.54302734 -241.05637695 1904.08605469 -242.11572266 1903.61523438 C-271.09275201 1890.70333543 -299.91607078 1876.68082212 -327.27148438 1860.59521484 C-330.32958922 1858.80730709 -333.40547078 1857.05261823 -336.484375 1855.30078125 C-354.88776335 1844.81138255 -372.6772449 1833.59495844 -390.3125 1821.875 C-391.25216614 1821.2513707 -391.25216614 1821.2513707 -392.21081543 1820.61514282 C-404.03952714 1812.75477937 -415.65795441 1804.61346583 -427 1796.0625 C-427.99036255 1795.31746216 -427.99036255 1795.31746216 -429.00073242 1794.55737305 C-448.00926731 1780.20723583 -466.47473993 1765.15287798 -483.88671875 1748.89453125 C-485.80965844 1747.09904016 -487.74728181 1745.33035785 -489.70703125 1743.57421875 C-496.79986408 1737.21197814 -503.56840779 1730.53976501 -510.3125 1723.8125 C-510.78871796 1723.33887024 -511.26493591 1722.86524048 -511.75558472 1722.3772583 C-516.85058727 1717.30410668 -521.8325566 1712.19097443 -526.51342773 1706.73168945 C-528.57561888 1704.32946877 -530.72686543 1702.01283759 -532.875 1699.6875 C-536.91402153 1695.25368689 -540.77506878 1690.71945416 -544.5390625 1686.05078125 C-546.33280236 1683.82711326 -548.13872383 1681.61801522 -549.9609375 1679.41796875 C-614.02573061 1601.82335306 -660.1454234 1502.20088212 -664.40297651 1359.5506649 C-664.39524185 1353.97945128 -664.40246297 1348.40825053 -664.40713501 1342.83703613 C-664.41255322 1333.491102 -664.40550556 1324.14523959 -664.39111328 1314.79931641 C-664.37479451 1304.08036629 -664.38008583 1293.36158753 -664.3965925 1282.64264154 C-664.41032084 1273.34651326 -664.41207227 1264.05043577 -664.40427649 1254.75430059 C-664.39966161 1249.24287463 -664.39880013 1243.73152848 -664.40888596 1238.22010803 C-664.56260202 1140.82269498 -638.20096495 1050.39789042 -560 936 C-559.13174131 934.87582652 -558.26458572 933.75080035 -557.3984375 932.625 C-547.71898125 920.09389054 -537.27820658 908.26135405 -526.51342773 896.65698242 C-525.37405866 895.40953962 -524.24821794 894.14972007 -523.12915039 892.8840332 C-517.19769593 886.19229196 -510.9842873 879.83034614 -504.65209961 873.52172852 C-502.9329133 871.80792767 -501.21917417 870.08880918 -499.50585938 868.36914062 C-494.36784057 863.22801335 -489.22180983 858.16312286 -483.68823242 853.44311523 C-481.11684661 851.24507308 -478.6627842 848.93064933 -476.1875 846.625 C-471.61567543 842.40601746 -466.92745156 838.38852532 -462.078125 834.48828125 C-459.77859241 832.62939514 -457.50086452 830.75385224 -455.234375 828.85546875 C-445.2070301 820.47461867 -434.91983092 812.51367288 -424.39648438 804.765625 C-422.22219333 803.16370234 -420.0559709 801.55147489 -417.890625 799.9375 C-363.9520934 760.0667734 -304.7912116 727.54159813 -243.6962738 700.11947632 C-240.32636244 698.60601905 -240.32636244 698.60601905 -237 697 C-237.59331099 688.35268223 -238.96325105 679.92490255 -240.52734375 671.40722656 C-240.79030743 669.95501162 -241.05284325 668.50271915 -241.31499195 667.05035686 C-242.03217998 663.08380383 -242.75529023 659.11835054 -243.47937799 655.15305209 C-244.26177318 650.86225003 -245.03848531 646.57041904 -245.81584167 642.27870178 C-247.16408947 634.83920151 -248.51567166 627.40031349 -249.86947632 619.96182251 C-252.01623922 608.16583692 -254.15581503 596.36855364 -256.29418945 584.57104492 C-257.02854527 580.51999803 -257.76294493 576.46895908 -258.49736023 572.41792297 C-258.68100799 571.40489442 -258.86465575 570.39186586 -259.05386859 569.34813946 C-260.37602199 562.05542022 -261.69908081 554.76286557 -263.02253723 547.47038269 C-270.34235256 507.13539043 -277.63569905 466.79563678 -284.9139843 426.45313072 C-286.8992022 415.44951685 -288.88583743 404.44616127 -290.87470454 393.44320637 C-292.24296165 385.87313141 -293.60974143 378.30279067 -294.97539121 370.73224491 C-295.76065293 366.37933772 -296.54650347 362.02653935 -297.33412743 357.67405891 C-300.2399572 341.61328588 -303.11727795 325.54864537 -305.8293457 309.45385742 C-306.03163127 308.26436399 -306.23391684 307.07487055 -306.44233227 305.84933186 C-317.67688913 238.36916452 -302.63933495 167.15137489 -263.1875 110.95703125 C-257.77363371 103.39017831 -252.03618656 96.08069971 -246 89 C-245.04673828 87.87851563 -245.04673828 87.87851563 -244.07421875 86.734375 C-232.79731305 73.85899528 -220.67256705 61.44991403 -206.82666016 51.34375 C-204.86672324 49.90195732 -202.93994554 48.42139025 -201.01171875 46.9375 C-168.85491834 22.54727479 -131.33874287 7.84296826 -92 0 C-90.68563965 -0.27118652 -90.68563965 -0.27118652 -89.34472656 -0.54785156 C-61.27746352 -6.07775102 -28.01069297 -5.53834043 0 0 Z M656.625 78.6875 C655.75834717 78.94241211 654.89169434 79.19732422 653.9987793 79.45996094 C632.03027279 86.11551788 612.23136498 96.06635133 594 110 C593.10539062 110.6703125 592.21078125 111.340625 591.2890625 112.03125 C560.37729913 136.16656074 539.12753578 169.63310875 528 207 C527.69449219 207.97324219 527.38898438 208.94648438 527.07421875 209.94921875 C520.44080736 233.25120234 521.57655581 258.09300148 521.65180314 282.05451751 C521.66490931 287.30158764 521.66036387 292.54864866 521.65809631 297.79573059 C521.65653268 306.85937177 521.66584591 315.92294754 521.68280983 324.98657227 C521.70731985 338.09061148 521.7150173 351.19461946 521.7187738 364.29867911 C521.72531959 385.56551098 521.74522959 406.83230808 521.77368164 428.09912109 C521.80127092 448.74267403 521.8224806 469.38621748 521.83520508 490.02978516 C521.83599325 491.3049009 521.83678142 492.58001663 521.83759347 493.89377224 C521.84150894 500.29144353 521.84529998 506.68911488 521.84902918 513.08678627 C521.88006668 566.05788152 521.93285106 619.02893905 522 672 C521.25420181 671.79150421 520.50840363 671.58300842 519.74000549 671.36819458 C518.7566069 671.09603119 517.77320831 670.8238678 516.76000977 670.54345703 C515.78733658 670.27308624 514.81466339 670.00271545 513.81251526 669.72415161 C498.06063792 665.66844122 480.57756835 665.98920979 464.40625 665.82421875 C463.37969803 665.81368469 462.35314606 665.80315063 461.29548645 665.79229736 C460.24310287 665.78156189 459.1907193 665.77082642 458.10644531 665.75976562 C429.05300979 665.4577029 399.87862247 664.35044753 371.01742935 660.75287056 C365.63989526 660.09853228 360.37237816 659.85665386 354.95800781 659.87060547 C354.1028508 659.86885315 353.24769379 659.86710083 352.36662292 659.86529541 C349.56210243 659.86092492 346.75764605 659.86380107 343.953125 659.8671875 C341.97605375 659.86651234 339.99898259 659.86554056 338.02191162 659.86428833 C333.87967132 659.8628172 329.73745263 659.86494433 325.59521484 659.86962891 C320.34786852 659.87528087 315.10057388 659.87207246 309.85322952 659.86605644 C305.76566193 659.86239636 301.67810602 659.8636148 297.59053802 659.86618423 C295.65971622 659.86684091 293.72889328 659.86607041 291.79807281 659.86370468 C281.76601974 659.85412119 271.75955597 659.98067938 261.73730469 660.44970703 C260.89817661 660.48895231 260.05904854 660.52819759 259.19449234 660.56863213 C248.60252912 661.11445997 238.09692912 662.33965668 227.625 664 C219.5029613 665.20846943 211.33199914 665.63920704 203.14306641 666.1796875 C193.86325559 666.81353771 184.65284786 667.77025715 175.41755676 668.86558533 C167.00884394 669.83693923 158.60071835 670.52158328 150.15625 671.09375 C148.24440918 671.22668457 148.24440918 671.22668457 146.29394531 671.36230469 C143.19612585 671.57735032 140.09815691 671.78988201 137 672 C137.00227832 670.64829992 137.00227832 670.64829992 137.00460267 669.26929277 C137.09422848 615.79158801 137.1628035 562.31389126 137.20426132 508.83612635 C137.2092638 502.40661992 137.21444112 495.97711363 137.21972656 489.54760742 C137.2207758 488.26767621 137.22182505 486.987745 137.22290608 485.66902799 C137.24028364 464.97872455 137.27180668 444.28846583 137.30861118 423.59818887 C137.34609443 402.3481974 137.36825143 381.09822927 137.37635398 359.8482061 C137.38182646 346.74909533 137.39907417 333.65011099 137.43166587 320.55103917 C137.45290501 311.55318606 137.45917889 302.55539777 137.45400551 293.55752145 C137.45145829 288.37597875 137.45520062 283.19465607 137.4768219 278.01315308 C137.70054144 221.54309493 123.95901506 172.79663038 83.52734375 131.453125 C78.96722731 126.91874424 74.11296275 122.89383146 69 119 C68.06671875 118.22785156 67.1334375 117.45570312 66.171875 116.66015625 C40.81249023 96.08004015 9.98968734 84.87028099 -22 80 C-23.36644653 79.74307373 -23.36644653 79.74307373 -24.76049805 79.48095703 C-67.70996239 73.10440682 -114.42722673 86.16055847 -149.34033203 111.41894531 C-157.01512033 117.14694905 -164.11385569 123.34935995 -171 130 C-171.9827632 130.91960193 -172.9658395 131.83886937 -173.94921875 132.7578125 C-205.74155581 162.95819159 -225.85758587 208.26740204 -227.23828125 252.0546875 C-227.69318556 279.36504875 -222.2650746 305.20810205 -217.05712891 331.87744141 C-213.84850979 348.34541127 -210.86392612 364.84381892 -208 381.375 C-204.75990627 400.06404747 -201.42066112 418.72967465 -197.9375 437.375 C-194.6527969 454.96286563 -191.46037975 472.56355578 -188.375 490.1875 C-185.66532349 505.66184854 -182.89521924 521.12174974 -180 536.5625 C-177.13200174 551.86520096 -174.31868197 567.17673766 -171.5625 582.5 C-171.37543488 583.53981018 -171.18836975 584.57962036 -170.99563599 585.65093994 C-168.29690253 600.66524724 -165.64322911 615.68724772 -163.00408936 630.71212769 C-162.81711487 631.77650055 -162.63014038 632.84087341 -162.4375 633.9375 C-162.25068665 635.00098663 -162.06387329 636.06447327 -161.87139893 637.16018677 C-159.30305166 651.76726248 -156.66448302 666.35921895 -153.9375 680.9375 C-153.61383289 682.67024403 -153.29018371 684.40299141 -152.96655273 686.13574219 C-152.31766095 689.60812496 -151.66846819 693.08045133 -151.01904297 696.55273438 C-150.77139191 697.87688354 -150.77139191 697.87688354 -150.51873779 699.2277832 C-150.16145218 701.13717401 -149.80389217 703.04651348 -149.44610596 704.95581055 C-148.30407515 711.05234212 -147.16935181 717.15015774 -146.04397583 723.24978638 C-145.6854994 725.18571998 -145.3244563 727.12118033 -144.96066284 729.05612183 C-144.45670441 731.73805279 -143.9617273 734.42150074 -143.46875 737.10546875 C-143.3191835 737.88996399 -143.169617 738.67445923 -143.01551819 739.48272705 C-142.12468834 744.39942832 -141.86679645 749.00238696 -142 754 C-143.56004761 754.63276855 -143.56004761 754.63276855 -145.15161133 755.27832031 C-166.25602763 763.84747694 -187.3029608 772.47849899 -208 782 C-208.64628357 782.29692749 -209.29256714 782.59385498 -209.95843506 782.89978027 C-236.47983499 795.09452534 -262.50280541 807.92550492 -287.62890625 822.83203125 C-292.08324899 825.4743851 -296.58586578 828.00737457 -301.125 830.5 C-311.37816183 836.17834176 -321.17420715 842.62068758 -331 849 C-331.60295898 849.3904248 -332.20591797 849.78084961 -332.82714844 850.18310547 C-354.78191243 864.44604504 -376.11309308 879.8782939 -396.27636719 896.57617188 C-398.71230065 898.58840473 -401.17042475 900.5730775 -403.625 902.5625 C-421.16452675 916.96530066 -437.50070766 932.41560694 -453.5625 948.4375 C-454.17522766 949.04754883 -454.78795532 949.65759766 -455.41925049 950.28613281 C-461.83382253 956.6794254 -468.15932307 963.07009695 -474 970 C-474.94864142 971.08367935 -475.89911786 972.16575552 -476.8515625 973.24609375 C-484.03250763 981.47868996 -490.76169194 989.99617265 -497.30712891 998.74072266 C-499.03406644 1001.04546449 -500.77293334 1003.34090736 -502.51171875 1005.63671875 C-515.49335838 1022.8890106 -526.52974838 1041.13681215 -537 1060 C-537.43022461 1060.76715332 -537.86044922 1061.53430664 -538.30371094 1062.32470703 C-571.38137682 1121.59854157 -582.56072353 1185.58859052 -582.37004495 1252.60834265 C-582.35849914 1257.63783024 -582.36285511 1262.66731077 -582.36479187 1267.69680786 C-582.36566722 1276.12635685 -582.35475156 1284.55582425 -582.33618164 1292.98535156 C-582.31498445 1302.66147964 -582.31151764 1312.33748889 -582.3177436 1322.01363552 C-582.32348152 1331.42158278 -582.31774252 1340.8294892 -582.30657005 1350.23743057 C-582.30198646 1354.19769184 -582.3010225 1358.15792761 -582.3031559 1362.11819077 C-582.31125415 1387.53013305 -582.20065795 1412.70712611 -577.42529297 1437.76513672 C-576.97848713 1440.11304751 -576.55401025 1442.46447724 -576.12890625 1444.81640625 C-573.99759385 1456.29773765 -571.09073744 1467.45177795 -567.71289062 1478.62646484 C-567.0867662 1480.71111609 -566.48380647 1482.800338 -565.890625 1484.89453125 C-552.12443066 1531.72951853 -527.55242862 1575.38452933 -498 1614 C-497.55350098 1614.58394531 -497.10700195 1615.16789062 -496.64697266 1615.76953125 C-487.97260794 1627.06065753 -478.86081985 1637.96756563 -469.265625 1648.48828125 C-467.41730937 1650.5373622 -465.60989686 1652.61076114 -463.80737305 1654.69970703 C-460.28707662 1658.72472396 -456.60265903 1662.54257806 -452.81640625 1666.31640625 C-452.15720688 1666.97656235 -451.49800751 1667.63671844 -450.8188324 1668.31687927 C-449.43603165 1669.70035506 -448.05198924 1671.08259083 -446.66674805 1672.46362305 C-444.56769657 1674.55731669 -442.4740406 1676.65629874 -440.38085938 1678.75585938 C-439.02636214 1680.10969571 -437.67155469 1681.46322175 -436.31640625 1682.81640625 C-435.70156876 1683.43326797 -435.08673126 1684.0501297 -434.45326233 1684.6856842 C-430.67585226 1688.4431644 -426.7792348 1692.01273245 -422.74493408 1695.49317932 C-420.52153512 1697.41317364 -418.35559783 1699.3929561 -416.1875 1701.375 C-410.93834825 1706.10561852 -405.50577537 1710.57267547 -400 1715 C-398.84364408 1715.93736935 -397.6873992 1716.8748757 -396.53125 1717.8125 C-323.28451946 1777.02392888 -238.401126 1822.45813728 -118.93084717 1867.32293701 C-115.98424225 1868.35618147 -113.04124807 1869.39961453 -110.09765625 1870.44140625 C-101.62019912 1873.42941701 -93.13971056 1876.38242874 -84.5234375 1878.94921875 C-81.64662423 1879.80715974 -78.77977899 1880.68812369 -75.9140625 1881.58203125 C-65.15694933 1884.92268061 -54.37631067 1888.02497408 -43.46044922 1890.8046875 C-38.17582867 1892.15463619 -32.93250073 1893.58569133 -27.70605469 1895.14526367 C-12.52494799 1899.65583305 2.92957912 1903.02576149 18.38842773 1906.42523193 C21.09862966 1907.02170692 23.80810704 1907.62140605 26.51757812 1908.22119141 C72.67920461 1918.4149908 118.94017039 1925.95044263 165.90470886 1931.30049133 C170.28230623 1931.79976878 174.65722197 1932.3177933 179.03125 1932.84765625 C192.76906069 1934.48322973 206.48372198 1935.59051791 220.29345703 1936.35400391 C231.11769292 1936.95830592 231.11769292 1936.95830592 235.16015625 1937.5234375 C240.51421825 1938.18792943 245.86064495 1938.3248946 251.25 1938.5 C253.38029861 1938.57022962 255.51051056 1938.64314006 257.640625 1938.71875 C259.04103027 1938.76418945 259.04103027 1938.76418945 260.46972656 1938.81054688 C263.50446033 1938.97340672 266.50835144 1939.22470274 269.53401184 1939.50177002 C275.36303148 1939.9905046 281.13899417 1940.15417624 286.98608398 1940.16113281 C288.01460983 1940.16609772 289.04313568 1940.17106262 290.10282898 1940.17617798 C293.48392441 1940.19068736 296.86497236 1940.19759565 300.24609375 1940.203125 C301.42664904 1940.20595238 302.60720432 1940.20877975 303.82353401 1940.21169281 C310.11567528 1940.22666686 316.40779387 1940.23589806 322.69995117 1940.24023438 C327.78498778 1940.24455301 332.86984836 1940.25818433 337.95483398 1940.28125 C369.68817846 1940.42235758 401.24102417 1939.78223886 432.91430664 1937.74511719 C433.85339182 1937.6854351 434.792477 1937.62575302 435.7600193 1937.56426239 C440.23631601 1937.26008578 444.57797619 1936.78627405 449 1936 C450.77406493 1935.83108536 452.55062451 1935.6867255 454.32861328 1935.56591797 C455.8511824 1935.45777267 455.8511824 1935.45777267 457.4045105 1935.34744263 C458.49047516 1935.27145844 459.57643982 1935.19547424 460.6953125 1935.1171875 C474.46039571 1934.10354038 488.16158014 1932.67776841 501.875 1931.125 C503.05244781 1930.99272003 504.22989563 1930.86044006 505.44302368 1930.72415161 C530.69592992 1927.88181742 555.67101041 1924.43298891 580.63671875 1919.64111328 C585.14518609 1918.78170306 589.65893154 1917.95217123 594.1730957 1917.12329102 C598.67716954 1916.29501899 603.17915957 1915.45570981 607.68115234 1914.61621094 C609.86840231 1914.21010391 612.05621893 1913.8070354 614.24462891 1913.40722656 C631.66026859 1910.22534499 648.82701105 1906.29729111 666 1902 C666.84336914 1901.78956055 667.68673828 1901.57912109 668.55566406 1901.36230469 C671.84051089 1900.54217021 675.12413986 1899.71776587 678.40625 1898.88671875 C680.94499677 1898.26031058 683.48108378 1897.65715191 686.03125 1897.08203125 C696.41233508 1894.73440383 706.54554167 1891.81554432 716.71826172 1888.69189453 C719.88390749 1887.73197156 723.06542865 1886.83236817 726.25 1885.9375 C733.18126318 1883.97215933 740.05074152 1881.82879165 746.91796875 1879.65332031 C748.92095461 1879.02480364 750.9281382 1878.41246971 752.9375 1877.8046875 C793.35205143 1865.47660334 833.28494357 1850.37211852 871.60253906 1832.57666016 C875.09081074 1830.95785745 878.58752948 1829.35848459 882.0859375 1827.76171875 C904.9609169 1817.28310751 927.37673295 1806.19335544 949.17333984 1793.61621094 C952.01462102 1791.99164008 954.87254999 1790.40130496 957.73828125 1788.8203125 C970.50547885 1781.75845971 982.7863703 1774.15617255 994.91796875 1766.05371094 C997.62145129 1764.25224586 1000.33229659 1762.46255506 1003.04734802 1760.67858887 C1021.97632881 1748.23839733 1040.33915783 1735.19416791 1058 1721 C1058.928125 1720.25492188 1059.85625 1719.50984375 1060.8125 1718.7421875 C1071.97195589 1709.69134973 1082.80890526 1700.30014515 1093.3347168 1690.52172852 C1094.56187086 1689.4003605 1095.8023762 1688.29356112 1097.05004883 1687.19506836 C1104.37592104 1680.72098888 1111.28710867 1673.86531575 1118.18725586 1666.94311523 C1120.19076986 1664.93422136 1122.19960152 1662.93075611 1124.20898438 1660.92773438 C1130.35142459 1654.78881666 1136.41265493 1648.65589484 1142 1642 C1143.03270346 1640.81946444 1144.06787645 1639.64108474 1145.10546875 1638.46484375 C1166.94916764 1613.51864549 1186.35217523 1586.90866421 1202.80273438 1558.09326172 C1203.6034042 1556.69339568 1204.40943843 1555.29658477 1205.22070312 1553.90283203 C1216.57798433 1534.38756714 1225.42552518 1513.88397703 1233.04052734 1492.65087891 C1233.88316901 1490.32278648 1234.75459924 1488.00952402 1235.64453125 1485.69921875 C1242.65227141 1467.21953161 1247.02147683 1447.66334007 1249.67089844 1428.10864258 C1250.03255415 1425.79141674 1250.51241674 1423.51574204 1251.00390625 1421.22265625 C1252.16746887 1415.5329168 1252.68555941 1409.84786617 1253.125 1404.0625 C1253.20991699 1402.98234619 1253.29483398 1401.90219238 1253.38232422 1400.78930664 C1254.08619688 1391.18080745 1254.20656046 1381.62801278 1254 1372 C1255.98 1372 1257.96 1372 1260 1372 C1260 1324.15 1260 1276.3 1260 1227 C1258.02 1227 1256.04 1227 1254 1227 C1254.03480469 1226.14664062 1254.06960938 1225.29328125 1254.10546875 1224.4140625 C1256.00577555 1136.6379865 1210.07253967 1045.59899674 1156 979 C1154.93652344 977.67355469 1154.93652344 977.67355469 1153.8515625 976.3203125 C1149.26437458 970.63863763 1144.50981006 965.16465971 1139.5546875 959.80078125 C1137.59991996 957.65771041 1135.69584123 955.49243441 1133.80297852 953.29589844 C1130.2172254 949.19394083 1126.45520048 945.31016295 1122.59765625 941.46484375 C1121.91626083 940.78249161 1121.23486542 940.10013947 1120.53282166 939.39710999 C1119.10294259 937.96655563 1117.67182089 936.53724233 1116.23950195 935.10913086 C1114.06802289 932.94300926 1111.90193675 930.77159826 1109.73632812 928.59960938 C1108.33625798 927.20020013 1106.93587762 925.80110116 1105.53515625 924.40234375 C1104.89844498 923.76360825 1104.2617337 923.12487274 1103.60572815 922.46678162 C1099.23083075 918.11421804 1094.67712079 914.02406666 1090 910 C1088.80870459 908.95448078 1087.61842218 907.90780481 1086.4296875 906.859375 C1078.77290951 900.14729905 1070.97303925 893.69742174 1062.91015625 887.48046875 C1060.8369806 885.87365163 1058.77727566 884.25053809 1056.71875 882.625 C1046.70611348 874.7363552 1036.53181555 867.18069599 1026 860 C1024.40647705 858.91307861 1024.40647705 858.91307861 1022.78076172 857.80419922 C958.25469077 813.90406479 888.73806993 779.21855112 816.00976562 751.16650391 C813.33234223 750.12880688 810.66371978 749.07230208 808 748 C809.98372252 733.9414876 812.40822196 719.99655249 815.04202271 706.04620361 C818.52301496 687.59600655 821.89031401 669.13073117 825.0625 650.625 C827.77262159 634.8256153 830.64184063 619.06259665 833.625 603.3125 C836.21405716 589.64226735 838.7492514 575.96977778 841.0625 562.25 C843.20633481 549.54643771 845.44102212 536.86214686 847.75 524.1875 C847.9154129 523.27913391 848.08082581 522.37076782 848.25125122 521.43487549 C850.29537556 510.22179433 852.36608132 499.01376138 854.453125 487.80859375 C855.30236766 483.24744871 856.15137289 478.68625961 857 474.125 C857.21199036 472.98568024 857.42398071 471.84636047 857.64239502 470.67251587 C860.5694077 454.92328218 863.40357356 439.16103326 866.125 423.375 C868.64855543 408.73875472 871.21547938 394.11220451 873.875 379.5 C874.03529694 378.61723389 874.19559387 377.73446777 874.36074829 376.82495117 C876.18553113 366.78277018 878.0420655 356.74714269 879.94415283 346.71929932 C880.84986609 341.94166391 881.74923233 337.1628398 882.64874268 332.3840332 C883.08158227 330.09577446 883.51774436 327.80814095 883.95770264 325.52124023 C888.00571345 304.47958822 891.63986074 283.18255679 891.375 261.6875 C891.36557373 260.43388672 891.35614746 259.18027344 891.34643555 257.88867188 C891.17239748 247.05532206 890.08507203 236.62237484 888 226 C887.83371094 225.11441406 887.66742187 224.22882813 887.49609375 223.31640625 C878.59771478 176.84709386 852.08137638 135.0360038 814 107 C813.16637939 106.37593262 813.16637939 106.37593262 812.31591797 105.73925781 C795.33545878 93.16963114 775.3802428 84.3346687 755 79 C754.26845703 78.80470703 753.53691406 78.60941406 752.78320312 78.40820312 C737.45948052 74.37707326 722.43139102 72.64145601 706.62182617 72.68432617 C704.19989808 72.68748384 701.77920024 72.66392172 699.35742188 72.63867188 C684.77082732 72.57874695 670.62632783 74.51496717 656.625 78.6875 Z " fill="#633001" transform="translate(673,3)"/>
<path d="M0 0 C1.98 0 3.96 0 6 0 C6 47.52 6 95.04 6 144 C4.02 144 2.04 144 0 144 C0.03480469 145.0003125 0.06960938 146.000625 0.10546875 147.03125 C0.58694367 168.25318293 -1.35570793 190.28728671 -6 211 C-6.37731618 212.83155562 -6.75210643 214.66363259 -7.125 216.49609375 C-9.30683588 227.07669387 -11.71311221 237.43647365 -15.20751953 247.66992188 C-16.1446013 250.42516168 -17.05299857 253.18943272 -17.96484375 255.953125 C-24.54299626 275.64917428 -32.41258056 294.66586037 -42.00683594 313.08740234 C-43.03036209 315.05847016 -44.03498283 317.03849635 -45.0390625 319.01953125 C-56.25830513 340.92302844 -69.98655046 361.52584814 -85 381 C-85.62575928 381.81500977 -85.62575928 381.81500977 -86.26416016 382.64648438 C-95.27187934 394.35418312 -104.79965707 405.58713227 -114.74487305 416.50952148 C-116.12716813 418.03607687 -117.50108817 419.57033304 -118.86035156 421.11743164 C-125.30860531 428.42571923 -132.15639061 435.30874588 -139.05688477 442.18725586 C-141.06577864 444.19076986 -143.06924389 446.19960152 -145.07226562 448.20898438 C-151.21333633 454.3532448 -157.36245489 460.38785807 -164 466 C-165.77570221 467.61967817 -167.54708307 469.24411718 -169.3125 470.875 C-173.72353173 474.89380593 -178.23735358 478.72865324 -182.8828125 482.47265625 C-185.21237942 484.35047916 -187.51257397 486.26024117 -189.8046875 488.18359375 C-200.22574526 496.90527068 -210.97180639 505.06338217 -222 513 C-222.68465332 513.49677246 -223.36930664 513.99354492 -224.07470703 514.50537109 C-277.08251901 552.93246107 -335.0369555 584.04042754 -394.9777832 610.11846924 C-396.81954733 610.92133654 -398.65893026 611.7296607 -400.49804688 612.53857422 C-421.00084455 621.55034237 -441.98231717 629.2878109 -463 637 C-463.71891418 637.26419739 -464.43782837 637.52839478 -465.17852783 637.80059814 C-478.11447554 642.5515 -491.03018622 647.21381592 -504.3046875 650.93359375 C-507.89693074 651.97025591 -511.40675532 653.14674318 -514.9375 654.375 C-526.11971489 658.16194817 -537.58566585 661.00656963 -549 664 C-549.92554688 664.24282715 -550.85109375 664.4856543 -551.8046875 664.73583984 C-552.66320313 664.96094238 -553.52171875 665.18604492 -554.40625 665.41796875 C-555.23157227 665.63453125 -556.05689453 665.85109375 -556.90722656 666.07421875 C-558.38258995 666.46043309 -559.85843672 666.8448101 -561.33496094 667.2265625 C-565.77692536 668.38295039 -570.1811695 669.63827129 -574.5859375 670.9296875 C-582.11647641 673.08998062 -589.71607615 674.80358079 -597.375 676.4375 C-598.78529982 676.74173662 -600.19553648 677.0462661 -601.60571289 677.35107422 C-605.73552808 678.24168154 -609.8673804 679.1225089 -614 680 C-615.12422363 680.23895996 -616.24844727 680.47791992 -617.40673828 680.72412109 C-623.3028647 681.97291828 -629.20322495 683.19956421 -635.10791016 684.40722656 C-637.06125072 684.80759047 -639.01403978 685.2106532 -640.96630859 685.61621094 C-662.42671722 690.07307856 -684.02123182 693.77136315 -705.71099854 696.9286499 C-709.57675984 697.49146382 -713.43973494 698.06437052 -717.29736328 698.68066406 C-730.6715474 700.79625461 -744.09167147 702.31543412 -757.55566406 703.73486328 C-761.25911632 704.12596272 -764.96160097 704.52542266 -768.6640625 704.92578125 C-779.73088678 706.11041419 -790.76976958 707.25712738 -801.88964844 707.78466797 C-804.92210341 707.9369101 -804.92210341 707.9369101 -807.56404114 708.46688843 C-812.06107292 709.16463243 -816.54622533 709.45661843 -821.08569336 709.74511719 C-822.09067179 709.8097541 -823.09565022 709.87439102 -824.13108253 709.94098663 C-856.0368299 711.94219914 -887.82500563 712.40925765 -919.78582764 712.26428223 C-924.91362122 712.24489047 -930.04138026 712.2411018 -935.16920567 712.2375679 C-941.36412199 712.23241767 -947.55900694 712.21796151 -953.75390625 712.203125 C-955.47895984 712.20030392 -955.47895984 712.20030392 -957.23886299 712.19742584 C-960.49725735 712.19050473 -963.75555366 712.17686159 -967.01391602 712.16113281 C-967.95349152 712.16001495 -968.89306702 712.15889709 -969.8611145 712.15774536 C-975.67621386 712.12081458 -981.41175798 711.77758014 -987.2019949 711.23711777 C-992.00197389 710.83034213 -996.81152443 710.7165625 -1001.625 710.5625 C-1022.73620138 709.78763193 -1043.73947578 707.8037477 -1064.75390625 705.7109375 C-1068.96820205 705.29195651 -1073.18181481 704.88962892 -1077.40234375 704.5390625 C-1092.30620304 703.282986 -1107.06606267 701.06394342 -1121.85758972 698.89073181 C-1126.71545044 698.17953017 -1131.57747965 697.51537309 -1136.44677734 696.88671875 C-1187.49231218 690.24209316 -1239.50588721 680.43080989 -1288.7421875 665.265625 C-1293.19759574 663.9091571 -1297.7007245 662.74779414 -1302.20556641 661.56811523 C-1313.04245857 658.72530287 -1323.70582629 655.59831909 -1334.29321289 651.9284668 C-1339.84580068 650.01059107 -1345.4220605 648.28131602 -1351.06640625 646.66015625 C-1360.3021707 643.98881502 -1369.33683126 640.83346605 -1378.375 637.5625 C-1379.20783508 637.26242035 -1380.04067017 636.9623407 -1380.89874268 636.65316772 C-1407.34819644 627.10784177 -1433.38836348 616.61134016 -1459 605 C-1460.4859668 604.33315186 -1460.4859668 604.33315186 -1462.00195312 603.65283203 C-1488.91232629 591.5656038 -1515.60787012 578.63721095 -1541.06787109 563.71191406 C-1543.73680862 562.15366344 -1546.41582894 560.61423691 -1549.0993042 559.08119202 C-1566.57256291 549.09004411 -1583.38282731 538.35454733 -1600 527 C-1601.52408646 525.97038671 -1603.0487484 524.9416243 -1604.57421875 523.9140625 C-1620.02118077 513.46536144 -1634.91438911 502.31745989 -1649.27636719 490.42382812 C-1651.71230065 488.41159527 -1654.17042475 486.4269225 -1656.625 484.4375 C-1674.16452675 470.03469934 -1690.50070766 454.58439306 -1706.5625 438.5625 C-1707.17522766 437.95245117 -1707.78795532 437.34240234 -1708.41925049 436.71386719 C-1714.83382253 430.3205746 -1721.15932307 423.92990305 -1727 417 C-1727.94864142 415.91632065 -1728.89911786 414.83424448 -1729.8515625 413.75390625 C-1737.06807021 405.4796294 -1743.80670512 396.90440358 -1750.39746094 388.12597656 C-1751.9535982 386.06155802 -1753.52508951 384.00985192 -1755.1015625 381.9609375 C-1762.25467657 372.62064996 -1768.78133245 362.98469842 -1775 353 C-1775.56533447 352.09894531 -1775.56533447 352.09894531 -1776.14208984 351.1796875 C-1797.31106776 317.29412752 -1814.83932119 280.26754297 -1824.41210938 241.38378906 C-1824.9696724 239.12297288 -1825.55051112 236.86969537 -1826.140625 234.6171875 C-1829.47103747 221.81316325 -1831.96103077 209.05361266 -1833.625 195.9375 C-1833.74818604 194.96876953 -1833.87137207 194.00003906 -1833.99829102 193.00195312 C-1836.03977181 176.1734922 -1836.13288858 159.53260905 -1836.09765625 142.6015625 C-1836.0957883 139.95356157 -1836.09431689 137.30556336 -1836.09336853 134.65756226 C-1836.0902813 128.43543446 -1836.08210369 122.21332458 -1836.07201904 115.99120462 C-1836.06077612 108.89790981 -1836.055327 101.80461406 -1836.05032361 94.71131253 C-1836.03991839 80.14086585 -1836.02237037 65.57043318 -1836 51 C-1834.02 51 -1832.04 51 -1830 51 C-1830 40.11 -1830 29.22 -1830 18 C-1829.67 18 -1829.34 18 -1829 18 C-1828.93530518 18.94915283 -1828.87061035 19.89830566 -1828.80395508 20.8762207 C-1826.51858545 53.73407956 -1822.25502134 86.56495527 -1810.84472656 117.68603516 C-1810.20920298 119.42692893 -1809.58555644 121.17216558 -1808.96777344 122.91943359 C-1799.31766532 150.13176617 -1787.20976085 176.42481498 -1772 201 C-1771.53174805 201.76876465 -1771.06349609 202.5375293 -1770.58105469 203.32958984 C-1760.17958427 220.38897279 -1748.52499598 236.44492225 -1736 252 C-1735.26523438 252.9178125 -1734.53046875 253.835625 -1733.7734375 254.78125 C-1720.24366275 271.50897151 -1705.73398328 287.31620137 -1690.5625 302.5625 C-1689.60573364 303.52627563 -1689.60573364 303.52627563 -1688.62963867 304.50952148 C-1684.84888174 308.27748398 -1680.94769678 311.84793774 -1676.90844727 315.33666992 C-1674.10357703 317.78128818 -1671.40101995 320.33011205 -1668.6875 322.875 C-1663.94500684 327.28226211 -1659.09950345 331.49064391 -1654.046875 335.54296875 C-1651.74471342 337.39945546 -1649.46817659 339.27495624 -1647.203125 341.17578125 C-1636.78131763 349.90090063 -1626.03669351 358.06986202 -1615 366 C-1614.28875977 366.51272461 -1613.57751953 367.02544922 -1612.84472656 367.55371094 C-1578.54726813 392.22156008 -1542.41969388 414.44958591 -1504.75439453 433.5859375 C-1502.24603917 434.87368739 -1499.75795222 436.19101102 -1497.27734375 437.53125 C-1461.04841177 457.10292941 -1422.57973165 472.74327763 -1384 487 C-1382.80922852 487.44150391 -1381.61845703 487.88300781 -1380.39160156 488.33789062 C-1348.23900665 500.20036684 -1315.43166366 511.12085121 -1282.12133789 519.23486328 C-1277.69888892 520.31303633 -1273.3103918 521.45685321 -1268.93676758 522.71826172 C-1246.67751144 529.13377734 -1223.91438694 534.00526758 -1201.17724609 538.37597656 C-1197.77496559 539.04419763 -1194.38171824 539.74920886 -1190.98828125 540.4609375 C-1173.30179034 544.14400927 -1155.59794818 546.9732424 -1137.71411133 549.47216797 C-1133.24450217 550.1073678 -1128.78407182 550.79416919 -1124.32299805 551.48632812 C-1101.3562994 555.03654001 -1078.41814545 557.78187979 -1055.25952148 559.74365234 C-1053.88943436 559.86040817 -1053.88943436 559.86040817 -1052.4916687 559.97952271 C-1050.7798718 560.12428818 -1049.06782507 560.26614137 -1047.35549927 560.4045105 C-1043.49158911 560.72780326 -1039.80351075 561.23454054 -1036 562 C-1033.68616121 562.18946461 -1031.36901288 562.34014856 -1029.05078125 562.46484375 C-1028.36163132 562.50307755 -1027.67248138 562.54131134 -1026.96244812 562.58070374 C-1024.74596793 562.70301099 -1022.52926446 562.82046963 -1020.3125 562.9375 C-1018.2240653 563.05063484 -1016.13569492 563.16485513 -1014.04736328 563.27987671 C-1012.49587786 563.36445222 -1010.94427305 563.44685587 -1009.39257812 563.52749634 C-1004.25895034 563.79957813 -999.13313939 564.1297188 -994.00585938 564.50341797 C-970.21372914 566.16983316 -946.46980962 566.30949262 -922.62597656 566.26074219 C-917.01981069 566.24939019 -911.41383559 566.25611094 -905.80767632 566.2676115 C-878.47958269 566.31529551 -851.27151811 565.80192144 -824 564 C-823.30001137 563.95393867 -822.60002274 563.90787735 -821.87882233 563.86042023 C-812.28705832 563.22359905 -802.705099 562.47977291 -793.125 561.6875 C-791.81599731 561.58084015 -790.50699463 561.4741803 -789.1583252 561.36428833 C-758.524125 558.86221032 -727.97631424 555.63068955 -697.64453125 550.59960938 C-694.97629451 550.16062295 -692.30752304 549.7293974 -689.63671875 549.30664062 C-651.41804643 543.25630301 -613.46822116 536.00888911 -575.875 526.8125 C-574.89030731 526.57246246 -573.90561462 526.33242493 -572.89108276 526.08511353 C-559.0527543 522.69434966 -545.36930122 518.87079273 -531.71459961 514.80627441 C-529.25506776 514.07575873 -526.79343032 513.35325067 -524.33007812 512.63574219 C-439.09608808 487.80050853 -356.67014943 453.98897008 -223 372 C-222.22962402 371.44070801 -221.45924805 370.88141602 -220.66552734 370.30517578 C-206.43029661 359.95773014 -192.53609281 349.24830247 -179 338 C-178.49114258 337.57750977 -177.98228516 337.15501953 -177.45800781 336.71972656 C-170.45229692 330.88944193 -163.62327106 324.9106601 -156.94921875 318.703125 C-154.84243561 316.74777929 -152.68029098 314.87531658 -150.4921875 313.01171875 C-144.82030616 308.06686398 -139.55412081 302.70325842 -134.24536133 297.37573242 C-132.44137915 295.56639067 -130.63211335 293.76245681 -128.82226562 291.95898438 C-123.00087236 286.14129805 -117.31259411 280.29227129 -112 274 C-110.95539153 272.8079059 -109.90851197 271.6177981 -108.859375 270.4296875 C-48.33814073 201.39990798 -6.02646949 115.96364498 0 0 Z " fill="#FDDB8F" transform="translate(1927,1231)"/>
<path d="M0 0 C26.93584113 20.40707078 42.75535295 49.61830932 51 82 C51.33644531 83.20140625 51.67289063 84.4028125 52.01953125 85.640625 C62.39103438 124.01907103 60.09966607 165.31107643 48 203 C47.61569824 204.21042969 47.61569824 204.21042969 47.22363281 205.4453125 C41.2515009 223.84877043 32.65259798 241.28335667 20 256 C19.26136719 256.88816406 18.52273438 257.77632812 17.76171875 258.69140625 C6.053927 272.31237178 -8.58855315 282.34715204 -26 287 C-26.78246094 287.22429687 -27.56492187 287.44859375 -28.37109375 287.6796875 C-47.86540474 292.47929864 -66.29760087 287.22658996 -83.09619141 277.20117188 C-87.79634659 274.23569823 -91.93382976 270.77114843 -96 267 C-96.83789062 266.24203125 -97.67578125 265.4840625 -98.5390625 264.703125 C-114.29676107 249.77477899 -124.46089111 230.10429036 -132 210 C-132.39614502 208.97712891 -132.39614502 208.97712891 -132.80029297 207.93359375 C-136.51223807 198.25544869 -138.89243274 188.49518635 -140.8125 178.3125 C-141.01955566 177.2208252 -141.22661133 176.12915039 -141.43994141 175.00439453 C-147.11891356 143.00216647 -146.01863556 107.04365947 -136 76 C-135.70319336 75.04867188 -135.70319336 75.04867188 -135.40039062 74.078125 C-125.32710534 42.09156987 -107.57100325 12.16019532 -78 -5 C-77.15824219 -5.50402344 -76.31648438 -6.00804687 -75.44921875 -6.52734375 C-51.31492906 -19.87218629 -22.06591383 -15.22616795 0 0 Z " fill="#633001" transform="translate(1396,1055)"/>
<path d="M0 0 C2.42660277 1.91085692 4.74507786 3.89949259 7.0546875 5.94921875 C7.71339844 6.46613281 8.37210938 6.98304687 9.05078125 7.515625 C30.04871425 24.37312051 42.60823251 52.79243067 50.0546875 77.94921875 C50.25046387 78.60180664 50.44624023 79.25439453 50.64794922 79.92675781 C56.07520748 98.42209557 57.33256733 117.14978855 57.3671875 136.32421875 C57.37077271 137.12120178 57.37435791 137.91818481 57.37805176 138.73931885 C57.48000889 180.86605541 46.12411865 224.02944741 19.0546875 256.94921875 C18.49910156 257.64660156 17.94351563 258.34398437 17.37109375 259.0625 C5.02138265 274.15659135 -13.51550418 285.07247483 -32.6328125 288.63671875 C-34.06799655 288.76902029 -35.50631386 288.8683494 -36.9453125 288.94921875 C-38.02425781 289.01367188 -39.10320312 289.078125 -40.21484375 289.14453125 C-61.01603764 289.7979719 -79.75821427 282.13112775 -94.9453125 267.94921875 C-95.46722168 267.4682373 -95.98913086 266.98725586 -96.52685547 266.49169922 C-104.5784366 259.01168823 -111.11949915 251.31054478 -116.9453125 241.94921875 C-117.95851563 240.35207031 -117.95851563 240.35207031 -118.9921875 238.72265625 C-124.8864481 228.9674265 -128.98891079 218.61363004 -132.9453125 207.94921875 C-133.19941895 207.27745605 -133.45352539 206.60569336 -133.71533203 205.91357422 C-136.50955837 198.45906769 -138.52123513 190.98195826 -140.1328125 183.19921875 C-140.36532715 182.09416992 -140.36532715 182.09416992 -140.60253906 180.96679688 C-143.55031261 165.74626679 -144.35842848 150.29353261 -144.3203125 134.82421875 C-144.31976868 133.98159485 -144.31922485 133.13897095 -144.31866455 132.27081299 C-144.19810604 91.36482774 -132.38373592 49.77665879 -105.9453125 17.94921875 C-105.39101563 17.25441406 -104.83671875 16.55960938 -104.265625 15.84375 C-78.24360662 -16.01564008 -33.7134746 -23.4742363 0 0 Z " fill="#633001" transform="translate(695.9453125,1055.05078125)"/>
</svg>
