<svg id="svg" version="1.1" xmlns="http://www.w3.org/2000/svg" xmlns:xlink="http://www.w3.org/1999/xlink" width="400" height="400" viewBox="0, 0, 400,400"><g id="svgg"><path id="path0" d="M275.935 18.217 C 275.674 18.477,275.469 18.962,275.349 19.601 C 273.458 29.667,262.927 49.663,253.430 61.223 C 252.689 62.125,251.905 63.081,251.687 63.347 C 250.640 64.630,252.005 64.600,256.173 63.248 C 259.491 62.172,261.833 61.724,261.833 62.166 C 261.833 62.748,254.804 71.409,251.180 75.291 C 241.676 85.477,228.844 94.477,217.500 98.914 C 214.899 99.931,214.734 100.100,213.870 102.620 C 211.499 109.534,208.254 115.095,203.980 119.571 C 201.608 122.057,201.744 122.172,205.356 120.741 C 214.915 116.954,226.915 110.384,234.417 104.832 C 236.403 103.362,238.202 102.167,238.430 102.167 C 238.525 102.167,239.057 101.715,242.649 98.586 C 252.963 89.600,261.303 78.365,266.690 66.198 C 268.695 61.671,271.184 54.974,271.410 53.500 C 271.473 53.087,271.781 51.768,272.094 50.569 C 274.493 41.373,276.094 30.549,276.464 21.026 C 276.591 17.766,276.558 17.593,275.935 18.217 M196.166 98.346 C 194.327 99.730,191.046 101.589,187.407 103.310 L 183.925 104.957 183.386 106.520 C 180.260 115.588,173.129 121.229,160.546 124.590 C 159.535 124.860,158.884 125.114,158.946 125.213 C 159.174 125.583,167.660 124.956,170.886 124.331 C 183.767 121.834,193.375 112.946,197.074 100.106 C 197.833 97.473,197.691 97.199,196.166 98.346 M256.333 129.155 C 256.002 129.252,256.174 129.321,257.167 129.488 C 272.546 132.087,289.089 138.440,301.667 146.577 C 302.537 147.141,304.569 148.439,306.182 149.462 L 309.113 151.322 311.015 151.498 C 323.875 152.686,344.129 158.497,350.793 162.910 C 351.888 163.635,353.167 164.265,353.167 164.079 C 353.167 163.650,351.947 162.504,350.954 162.000 C 350.322 161.679,349.305 161.002,348.694 160.494 C 339.929 153.213,325.156 143.488,315.750 138.807 C 307.336 134.620,307.378 134.611,310.507 139.917 C 311.761 142.044,312.808 144.167,312.604 144.167 C 312.572 144.167,311.429 143.633,310.065 142.981 C 298.992 137.692,289.813 134.432,279.167 132.010 C 270.837 130.115,258.376 128.557,256.333 129.155 M183.836 149.375 C 183.838 149.490,184.494 149.901,185.294 150.288 C 195.416 155.190,205.100 163.178,210.988 171.483 C 212.876 174.146,212.604 174.505,209.298 173.704 C 200.342 171.534,198.526 171.149,192.250 170.082 C 166.387 165.684,142.424 167.113,121.333 174.310 C 117.582 175.591,115.548 176.440,109.972 179.054 C 107.339 180.289,101.669 183.551,97.786 186.066 C 95.790 187.359,93.620 188.749,92.966 189.155 C 90.748 190.531,88.759 192.675,89.379 193.022 C 89.536 193.110,90.242 193.910,90.949 194.799 C 99.273 205.277,114.084 212.167,128.286 212.167 L 128.706 212.167 128.262 211.584 C 127.829 211.017,127.404 210.160,126.029 207.083 C 123.361 201.114,125.652 196.140,132.357 193.342 C 145.592 187.819,166.684 186.914,183.337 191.154 C 201.206 195.704,207.707 198.400,211.977 203.031 C 237.178 230.358,219.292 268.642,174.167 283.964 C 131.977 298.290,86.350 283.143,56.619 244.941 C 47.638 233.403,36.130 213.250,33.667 204.750 L 33.377 203.750 33.247 204.917 C 33.077 206.450,33.263 213.115,33.584 217.000 C 36.517 252.391,50.774 285.949,74.084 312.333 C 77.939 316.697,88.778 327.282,90.722 328.583 C 91.133 328.858,92.245 329.784,93.193 330.641 C 103.059 339.556,123.837 352.011,137.167 357.001 C 137.854 357.258,139.917 358.043,141.750 358.746 C 183.635 374.793,239.817 371.642,273.333 351.365 C 281.436 346.464,291.067 338.969,293.674 335.537 C 294.112 334.962,295.002 333.998,295.653 333.395 C 303.371 326.249,312.690 309.251,316.506 295.357 C 325.855 261.323,315.349 219.576,290.327 191.322 C 268.834 167.054,240.348 152.801,207.250 149.755 C 200.635 149.146,183.829 148.873,183.836 149.375 M101.500 152.814 C 97.463 154.119,93.613 158.534,91.840 163.892 C 91.260 165.642,91.720 166.047,92.508 164.480 C 94.346 160.823,96.544 158.466,99.566 156.912 C 103.590 154.841,105.715 155.966,105.705 160.161 C 105.701 161.795,105.901 161.736,106.485 159.934 C 108.080 155.015,105.609 151.486,101.500 152.814 " stroke="none" fill="#1a235b" fill-rule="evenodd"></path><path id="path1" d="M195.000 37.445 C 183.266 37.876,170.207 39.705,160.000 42.349 C 158.212 42.812,155.770 43.445,154.572 43.755 C 153.374 44.066,150.411 45.004,147.988 45.840 C 145.566 46.676,143.043 47.542,142.382 47.765 C 141.721 47.987,139.659 48.815,137.799 49.603 C 135.939 50.392,133.817 51.281,133.083 51.578 C 131.048 52.403,122.556 56.654,119.811 58.223 C 118.469 58.989,117.244 59.665,117.090 59.725 C 115.736 60.244,105.814 66.794,101.417 70.071 C 98.984 71.884,97.859 72.761,94.667 75.331 C 89.145 79.776,80.066 88.567,75.242 94.140 C 71.348 98.637,64.990 106.781,63.575 109.083 C 63.294 109.542,62.580 110.598,61.990 111.431 C 58.355 116.559,47.833 135.635,47.833 137.096 C 47.833 137.143,47.077 138.997,46.152 141.215 C 43.366 147.901,40.915 155.340,38.980 162.985 C 37.550 168.637,36.120 175.459,35.833 178.000 C 35.735 178.871,35.549 180.333,35.421 181.250 C 34.939 184.681,34.492 189.280,34.169 194.106 C 33.985 196.843,33.797 199.346,33.749 199.667 C 33.099 204.042,33.530 205.609,37.720 214.085 C 55.840 250.740,79.455 273.554,110.084 283.995 C 151.890 298.245,202.700 281.502,219.408 247.969 C 226.309 234.121,224.360 218.195,214.241 205.750 C 210.532 201.188,209.375 200.246,204.917 198.159 C 201.449 196.536,195.024 194.196,194.657 194.422 C 194.571 194.476,194.500 194.432,194.500 194.325 C 194.500 194.218,194.387 194.174,194.250 194.227 C 194.112 194.280,194.000 194.245,194.000 194.150 C 194.000 194.053,193.854 194.024,193.667 194.083 C 193.480 194.143,193.333 194.113,193.333 194.016 C 193.333 193.921,193.221 193.887,193.083 193.940 C 192.946 193.992,192.833 193.971,192.833 193.893 C 192.833 193.814,192.595 193.733,192.304 193.713 C 192.013 193.692,191.732 193.617,191.679 193.546 C 191.626 193.475,191.359 193.392,191.085 193.362 C 190.812 193.333,190.549 193.258,190.502 193.196 C 190.455 193.134,190.192 193.059,189.917 193.030 C 189.642 193.001,189.392 192.906,189.361 192.821 C 189.330 192.735,189.236 192.707,189.152 192.759 C 189.069 192.811,188.906 192.794,188.792 192.722 C 188.677 192.651,188.402 192.567,188.180 192.536 C 187.957 192.506,187.645 192.411,187.485 192.325 C 186.933 192.030,180.407 190.485,177.333 189.922 C 163.111 187.317,146.518 188.379,134.223 192.681 C 126.763 195.291,123.908 199.384,125.587 205.062 C 125.719 205.509,125.791 205.934,125.746 206.006 C 125.701 206.079,125.749 206.166,125.851 206.200 C 125.954 206.235,126.060 206.447,126.088 206.673 C 126.180 207.434,127.611 210.629,128.249 211.499 L 128.882 212.361 128.149 212.262 C 127.279 212.145,121.546 211.660,119.997 211.573 C 117.257 211.419,108.347 208.661,107.815 207.803 C 107.759 207.712,107.664 207.647,107.604 207.657 C 107.544 207.667,106.448 207.144,105.167 206.494 C 99.834 203.788,94.842 199.739,91.183 195.152 C 89.723 193.322,89.404 193.000,89.053 193.000 C 88.788 193.000,84.870 195.939,83.833 196.916 C 81.437 199.174,80.556 199.580,80.074 198.648 C 79.308 197.167,77.669 186.514,77.667 183.000 L 77.667 182.083 66.453 182.138 L 55.239 182.193 55.295 181.471 C 55.869 174.154,58.358 162.623,61.233 153.964 C 73.687 116.449,101.149 86.618,137.500 71.116 C 167.507 58.318,202.490 57.025,233.771 67.557 L 236.460 68.462 239.355 65.958 C 248.871 57.729,258.167 47.971,257.128 47.304 C 256.721 47.044,248.356 44.327,246.479 43.845 C 245.436 43.578,242.971 42.943,241.000 42.434 C 226.715 38.743,209.758 36.904,195.000 37.445 M270.851 55.542 C 265.171 73.083,255.143 88.104,241.280 99.836 C 238.215 102.430,238.196 102.251,241.560 102.493 C 254.182 103.401,274.781 108.869,288.083 114.843 C 289.550 115.502,291.387 116.322,292.167 116.665 C 313.380 126.021,341.174 147.160,351.772 162.000 C 352.263 162.688,352.821 163.456,353.013 163.708 C 353.591 164.469,352.242 163.968,350.507 162.779 C 347.573 160.768,336.426 156.631,329.131 154.846 C 322.928 153.329,314.060 151.717,311.083 151.565 L 309.417 151.480 310.162 152.115 C 310.572 152.464,312.245 153.866,313.880 155.230 C 327.883 166.911,337.579 178.876,345.770 194.585 C 353.177 208.790,357.985 226.108,358.971 242.131 C 359.173 245.427,359.460 245.572,360.140 242.725 C 368.171 209.131,366.030 175.489,353.827 143.500 C 339.989 107.227,313.642 76.908,279.500 57.967 C 276.657 56.390,271.665 53.833,271.428 53.833 C 271.415 53.833,271.155 54.602,270.851 55.542 M183.417 105.183 C 183.233 105.261,181.501 105.884,179.566 106.566 C 164.717 111.807,158.992 115.850,157.968 121.817 C 157.786 122.880,157.941 124.830,158.230 125.119 C 158.336 125.225,162.822 123.936,165.417 123.053 C 174.462 119.976,180.582 114.351,183.318 106.601 C 183.893 104.971,183.892 104.981,183.417 105.183 M142.001 126.458 C 142.003 128.264,142.210 129.838,142.608 131.059 C 143.198 132.871,148.090 133.915,152.083 133.082 C 154.004 132.681,154.005 132.685,151.828 132.073 C 147.589 130.880,144.097 128.491,142.665 125.805 C 141.997 124.551,142.000 124.548,142.001 126.458 M112.117 137.574 C 111.244 137.885,110.444 138.439,109.066 139.686 C 108.418 140.271,107.445 141.071,106.903 141.464 C 104.914 142.903,104.768 143.072,104.980 143.681 C 105.640 145.573,108.208 147.039,111.310 147.295 L 112.370 147.382 112.227 146.816 C 111.916 145.589,112.082 142.026,112.553 139.835 C 113.157 137.023,113.189 137.191,112.117 137.574 M101.863 156.012 C 98.189 156.733,93.481 161.399,91.897 165.889 C 91.668 166.538,91.697 166.519,93.236 165.031 C 97.963 160.458,103.106 159.359,104.669 162.587 C 105.099 163.476,105.086 163.472,105.429 162.810 C 105.886 161.926,105.713 158.316,105.166 157.342 C 104.511 156.175,103.372 155.716,101.863 156.012 " stroke="none" fill="#5092cc" fill-rule="evenodd"></path><path id="path2" d="M199.548 37.290 C 200.078 37.323,200.903 37.323,201.381 37.289 C 201.859 37.256,201.425 37.229,200.417 37.229 C 199.408 37.229,199.017 37.257,199.548 37.290 M193.625 37.456 C 194.106 37.490,194.894 37.490,195.375 37.456 C 195.856 37.423,195.463 37.395,194.500 37.395 C 193.537 37.395,193.144 37.423,193.625 37.456 M205.625 37.456 C 206.106 37.490,206.894 37.490,207.375 37.456 C 207.856 37.423,207.463 37.395,206.500 37.395 C 205.537 37.395,205.144 37.423,205.625 37.456 M190.208 37.621 C 190.552 37.657,191.115 37.657,191.458 37.621 C 191.802 37.585,191.521 37.556,190.833 37.556 C 190.146 37.556,189.865 37.585,190.208 37.621 M209.455 37.620 C 209.750 37.657,210.275 37.658,210.621 37.622 C 210.967 37.586,210.725 37.555,210.083 37.555 C 209.442 37.554,209.159 37.583,209.455 37.620 M187.792 37.787 C 188.090 37.824,188.577 37.824,188.875 37.787 C 189.173 37.750,188.929 37.720,188.333 37.720 C 187.737 37.720,187.494 37.750,187.792 37.787 M212.128 37.787 C 212.428 37.825,212.878 37.824,213.128 37.786 C 213.378 37.748,213.133 37.717,212.583 37.718 C 212.033 37.719,211.828 37.750,212.128 37.787 M185.708 37.953 C 185.960 37.991,186.373 37.991,186.625 37.953 C 186.877 37.915,186.671 37.883,186.167 37.883 C 185.662 37.883,185.456 37.915,185.708 37.953 M215.167 38.019 C 218.223 38.325,222.566 38.876,225.657 39.349 C 227.439 39.622,229.014 39.823,229.157 39.795 C 230.039 39.623,216.068 37.793,214.353 37.855 C 214.022 37.868,214.387 37.941,215.167 38.019 M183.000 38.115 C 178.905 38.549,170.711 39.763,171.522 39.816 C 171.671 39.825,173.321 39.604,175.188 39.323 C 177.056 39.042,180.083 38.637,181.917 38.422 C 183.750 38.208,184.875 38.037,184.417 38.043 C 183.958 38.049,183.321 38.081,183.000 38.115 M158.333 42.589 C 154.531 43.587,153.812 43.798,154.142 43.819 C 154.265 43.827,155.915 43.424,157.808 42.924 C 162.530 41.676,162.458 41.697,162.083 41.694 C 161.900 41.693,160.212 42.095,158.333 42.589 M238.417 41.752 C 239.173 42.019,246.534 43.855,246.597 43.792 C 246.683 43.706,246.320 43.605,241.640 42.415 C 240.021 42.003,238.596 41.673,238.473 41.680 C 238.350 41.687,238.325 41.720,238.417 41.752 M146.000 46.322 C 142.504 47.545,141.823 47.806,142.083 47.823 C 142.175 47.828,143.938 47.236,146.000 46.507 C 148.063 45.778,149.637 45.182,149.500 45.182 C 149.362 45.183,147.787 45.696,146.000 46.322 M253.939 46.160 C 257.731 47.446,257.472 47.233,256.701 48.426 C 254.507 51.817,247.403 58.998,239.355 65.958 L 236.460 68.462 233.771 67.557 C 175.564 47.960,111.566 69.790,77.345 120.917 C 71.755 129.267,67.549 137.341,63.496 147.500 C 59.711 156.985,56.014 172.300,55.295 181.471 L 55.239 182.193 66.453 182.138 L 77.667 182.083 77.687 183.250 C 77.699 183.892,77.757 184.942,77.817 185.583 C 77.877 186.225,77.895 184.350,77.856 181.417 C 77.597 161.568,83.783 147.753,97.798 136.884 C 98.956 135.985,100.554 134.677,101.348 133.977 C 102.934 132.580,103.904 131.955,104.907 131.686 C 105.764 131.455,105.744 131.355,105.265 133.438 C 104.364 137.350,104.078 140.838,104.514 142.571 L 104.695 143.290 105.306 142.726 C 105.642 142.416,106.360 141.844,106.901 141.456 C 107.442 141.068,108.482 140.213,109.212 139.557 C 110.540 138.364,111.681 137.637,112.542 137.435 C 113.111 137.301,113.111 137.239,112.553 139.835 C 112.087 142.003,111.914 145.590,112.219 146.780 C 112.345 147.274,112.322 147.316,111.886 147.386 C 111.628 147.428,112.017 147.434,112.752 147.400 C 119.033 147.108,131.150 139.604,138.552 131.422 C 139.886 129.947,139.945 129.937,141.342 130.928 C 143.041 132.133,143.017 132.128,142.664 131.199 C 142.236 130.074,141.971 128.001,142.032 126.250 L 142.083 124.750 142.633 125.763 C 143.946 128.183,148.059 131.213,150.750 131.742 C 151.367 131.863,151.177 131.766,149.099 130.894 C 144.845 129.110,142.464 126.400,141.650 122.417 C 139.205 110.450,147.066 102.438,169.635 93.895 C 182.485 89.031,186.627 86.990,191.917 82.919 C 198.250 78.043,205.918 70.030,209.540 64.502 C 209.989 63.815,210.383 63.228,210.414 63.197 C 210.445 63.166,210.785 63.765,211.169 64.528 C 211.552 65.292,212.453 67.042,213.170 68.417 C 215.345 72.585,216.290 75.387,217.349 80.800 C 217.770 82.954,217.605 82.888,219.458 81.640 C 229.716 74.728,243.899 62.797,251.876 54.372 C 255.050 51.019,257.772 47.549,257.467 47.244 C 257.333 47.111,251.476 45.163,251.256 45.180 C 251.161 45.187,252.368 45.628,253.939 46.160 M135.703 50.283 C 133.844 51.069,132.357 51.746,132.398 51.786 C 132.464 51.853,139.150 49.065,139.319 48.901 C 139.529 48.697,138.758 48.992,135.703 50.283 M129.667 53.000 C 128.979 53.358,128.492 53.650,128.583 53.650 C 128.675 53.650,129.313 53.358,130.000 53.000 C 130.688 52.642,131.175 52.350,131.083 52.350 C 130.992 52.350,130.354 52.642,129.667 53.000 M125.792 54.843 C 124.531 55.481,123.500 56.035,123.500 56.075 C 123.500 56.228,126.741 54.690,127.875 53.998 C 128.970 53.331,128.023 53.715,125.792 54.843 M271.500 53.749 C 271.500 53.860,274.520 55.369,274.594 55.295 C 274.627 55.262,273.944 54.883,273.077 54.452 C 272.210 54.021,271.500 53.705,271.500 53.749 M122.125 56.761 C 121.690 56.988,121.333 57.210,121.333 57.256 C 121.333 57.302,121.708 57.149,122.167 56.917 C 122.625 56.684,123.000 56.458,123.000 56.414 C 123.000 56.304,123.015 56.298,122.125 56.761 M277.667 56.908 C 277.667 56.954,277.892 57.108,278.167 57.250 C 278.442 57.392,278.667 57.471,278.667 57.425 C 278.667 57.379,278.442 57.226,278.167 57.083 C 277.892 56.941,277.667 56.862,277.667 56.908 M119.079 58.436 C 117.144 59.506,116.373 60.002,117.089 59.718 C 117.543 59.538,121.167 57.474,121.167 57.395 C 121.167 57.286,121.108 57.316,119.079 58.436 M279.250 57.783 C 279.342 57.876,280.017 58.273,280.750 58.667 C 281.483 59.060,282.008 59.305,281.917 59.211 C 281.825 59.117,281.150 58.719,280.417 58.327 C 279.683 57.935,279.158 57.690,279.250 57.783 M113.389 61.796 C 111.210 63.137,109.897 64.017,110.500 63.730 C 110.944 63.519,115.833 60.464,115.833 60.397 C 115.833 60.290,115.825 60.295,113.389 61.796 M286.652 62.118 C 286.874 62.282,287.361 62.589,287.736 62.799 C 288.110 63.009,288.236 63.047,288.014 62.882 C 287.793 62.718,287.305 62.411,286.931 62.201 C 286.556 61.991,286.431 61.953,286.652 62.118 M106.819 66.019 C 104.569 67.548,103.440 68.434,104.833 67.577 C 105.555 67.133,108.750 64.919,109.075 64.637 C 109.593 64.188,108.777 64.688,106.819 66.019 M291.583 65.284 C 291.864 65.564,295.000 67.697,295.000 67.608 C 295.000 67.562,294.306 67.045,293.458 66.458 C 291.840 65.337,291.294 64.996,291.583 65.284 M101.082 70.128 C 96.554 73.517,89.861 79.025,89.172 79.929 C 88.853 80.346,89.185 80.076,91.250 78.235 C 93.766 75.992,97.332 73.124,101.125 70.293 C 103.611 68.438,104.166 67.989,103.958 68.003 C 103.935 68.004,102.641 68.960,101.082 70.128 M297.000 69.044 C 297.000 69.089,297.431 69.449,297.958 69.843 C 298.485 70.238,299.160 70.743,299.458 70.967 C 299.756 71.190,300.000 71.336,300.000 71.290 C 300.000 71.244,299.569 70.884,299.042 70.490 C 298.515 70.096,297.840 69.590,297.542 69.367 C 297.244 69.143,297.000 68.998,297.000 69.044 M301.667 72.567 C 301.667 72.613,302.417 73.258,303.333 74.000 C 304.250 74.742,305.000 75.312,305.000 75.266 C 305.000 75.221,304.250 74.576,303.333 73.833 C 302.417 73.091,301.667 72.521,301.667 72.567 M306.167 76.219 C 306.167 76.248,306.410 76.491,306.708 76.760 L 307.250 77.250 306.760 76.708 C 306.304 76.203,306.167 76.090,306.167 76.219 M307.500 77.379 C 307.500 77.423,308.078 77.975,308.783 78.605 C 309.489 79.235,310.015 79.665,309.952 79.560 C 309.808 79.323,307.500 77.270,307.500 77.379 M310.917 80.500 C 311.368 80.958,311.775 81.333,311.821 81.333 C 311.867 81.333,311.535 80.958,311.083 80.500 C 310.632 80.042,310.225 79.667,310.179 79.667 C 310.133 79.667,310.465 80.042,310.917 80.500 M84.300 84.482 C 81.884 86.855,79.169 89.612,78.267 90.607 C 77.364 91.602,78.003 91.002,79.688 89.273 C 81.372 87.544,84.137 84.791,85.833 83.155 C 87.529 81.519,88.866 80.178,88.804 80.174 C 88.743 80.170,86.716 82.109,84.300 84.482 M313.997 83.375 C 314.958 84.360,315.764 85.167,315.789 85.167 C 315.909 85.167,315.706 84.953,314.042 83.330 L 312.250 81.583 313.997 83.375 M318.083 87.500 C 319.180 88.600,320.116 89.500,320.161 89.500 C 320.207 89.500,319.347 88.600,318.250 87.500 C 317.153 86.400,316.218 85.500,316.172 85.500 C 316.126 85.500,316.986 86.400,318.083 87.500 M321.250 90.833 C 321.701 91.292,322.108 91.667,322.154 91.667 C 322.200 91.667,321.868 91.292,321.417 90.833 C 320.965 90.375,320.558 90.000,320.513 90.000 C 320.467 90.000,320.799 90.375,321.250 90.833 M322.833 92.583 C 323.144 92.904,323.436 93.167,323.482 93.167 C 323.528 93.167,323.311 92.904,323.000 92.583 C 322.689 92.263,322.397 92.000,322.351 92.000 C 322.305 92.000,322.522 92.263,322.833 92.583 M75.725 93.385 C 72.725 96.667,67.708 102.971,64.756 107.167 C 63.405 109.087,64.723 107.449,67.038 104.333 C 69.407 101.142,72.674 97.091,75.335 94.042 C 76.785 92.380,77.049 91.936,75.725 93.385 M324.562 94.549 C 325.100 95.164,325.576 95.667,325.620 95.667 C 325.731 95.667,324.010 93.692,323.775 93.549 C 323.669 93.484,324.024 93.935,324.562 94.549 M329.407 100.458 C 330.210 101.490,330.901 102.333,330.943 102.333 C 331.056 102.333,328.532 99.067,328.217 98.807 C 328.069 98.684,328.604 99.427,329.407 100.458 M239.542 102.448 C 239.702 102.490,239.965 102.490,240.125 102.448 C 240.285 102.406,240.154 102.372,239.833 102.372 C 239.512 102.372,239.381 102.406,239.542 102.448 M241.708 102.619 C 241.960 102.658,242.373 102.658,242.625 102.619 C 242.877 102.581,242.671 102.550,242.167 102.550 C 241.662 102.550,241.456 102.581,241.708 102.619 M256.514 104.894 C 256.644 105.008,260.694 105.861,260.766 105.790 C 260.805 105.751,259.917 105.518,258.794 105.273 C 256.812 104.840,256.369 104.767,256.514 104.894 M333.572 106.008 C 334.513 107.323,334.848 107.607,333.995 106.366 C 333.598 105.788,333.193 105.267,333.097 105.207 C 333.001 105.147,333.214 105.508,333.572 106.008 M179.365 106.447 C 178.969 106.587,178.675 106.731,178.711 106.767 C 178.787 106.843,180.333 106.335,180.333 106.234 C 180.333 106.130,180.144 106.172,179.365 106.447 M177.750 107.089 C 177.333 107.290,177.319 107.313,177.667 107.228 C 178.139 107.113,178.670 106.842,178.417 106.846 C 178.325 106.847,178.025 106.957,177.750 107.089 M62.727 110.042 C 61.399 111.980,61.282 112.167,61.394 112.167 C 61.489 112.167,63.527 109.255,63.814 108.708 C 64.211 107.954,63.870 108.372,62.727 110.042 M272.907 109.262 C 273.544 109.485,274.144 109.661,274.241 109.654 C 274.338 109.647,273.896 109.460,273.259 109.238 C 272.623 109.015,272.023 108.839,271.926 108.846 C 271.829 108.853,272.271 109.040,272.907 109.262 M337.018 110.958 C 337.832 112.180,338.394 112.908,338.078 112.333 C 337.774 111.779,336.318 109.667,336.240 109.667 C 336.194 109.667,336.544 110.248,337.018 110.958 M170.167 110.167 C 169.846 110.342,169.658 110.486,169.750 110.486 C 169.842 110.486,170.179 110.342,170.500 110.167 C 170.821 109.991,171.008 109.847,170.917 109.847 C 170.825 109.847,170.487 109.991,170.167 110.167 M168.667 110.833 C 168.346 111.009,168.158 111.153,168.250 111.153 C 168.342 111.153,168.679 111.009,169.000 110.833 C 169.321 110.658,169.508 110.514,169.417 110.514 C 169.325 110.514,168.987 110.658,168.667 110.833 M338.421 113.094 C 338.576 113.375,338.851 113.788,339.032 114.011 L 339.361 114.417 339.079 113.906 C 338.924 113.625,338.649 113.212,338.468 112.989 L 338.139 112.583 338.421 113.094 M283.181 112.900 C 283.323 113.037,286.227 114.162,286.286 114.102 C 286.320 114.069,285.669 113.769,284.840 113.437 C 283.431 112.873,283.012 112.738,283.181 112.900 M59.700 114.631 C 59.044 115.654,57.802 117.682,56.389 120.042 C 56.347 120.110,56.349 120.167,56.393 120.167 C 56.437 120.167,57.315 118.798,58.344 117.125 C 59.374 115.452,60.326 113.915,60.460 113.708 C 60.595 113.502,60.666 113.333,60.619 113.333 C 60.571 113.333,60.158 113.917,59.700 114.631 M161.789 115.208 C 160.608 116.363,160.602 116.373,161.652 115.428 C 162.256 114.884,162.860 114.340,162.994 114.220 C 163.128 114.099,163.190 114.000,163.132 114.000 C 163.073 114.000,162.469 114.544,161.789 115.208 M286.833 114.417 C 287.063 114.548,287.325 114.655,287.417 114.655 C 287.508 114.655,287.396 114.548,287.167 114.417 C 286.938 114.286,286.675 114.178,286.583 114.178 C 286.492 114.178,286.604 114.286,286.833 114.417 M340.549 116.458 C 341.052 117.368,342.055 119.000,342.112 119.000 C 342.199 119.000,342.239 119.075,341.338 117.542 C 340.948 116.877,340.595 116.333,340.555 116.333 C 340.514 116.333,340.511 116.390,340.549 116.458 M294.167 117.750 C 294.946 118.153,295.658 118.483,295.750 118.483 C 295.842 118.483,295.279 118.153,294.500 117.750 C 293.721 117.347,293.008 117.017,292.917 117.017 C 292.825 117.017,293.387 117.347,294.167 117.750 M158.557 119.427 C 158.324 119.937,158.162 120.384,158.197 120.419 C 158.233 120.455,158.459 120.038,158.700 119.492 C 158.941 118.946,159.103 118.500,159.060 118.500 C 159.017 118.500,158.791 118.917,158.557 119.427 M298.750 119.949 C 298.842 120.041,299.967 120.660,301.250 121.326 C 302.533 121.992,303.508 122.459,303.417 122.366 C 303.325 122.272,302.200 121.652,300.917 120.989 C 299.633 120.325,298.658 119.858,298.750 119.949 M55.289 121.958 C 54.318 123.652,52.412 127.279,52.563 127.145 C 52.681 127.041,55.246 122.477,55.853 121.292 C 56.414 120.197,56.056 120.620,55.289 121.958 M157.940 121.035 C 157.884 121.245,157.844 121.567,157.852 121.750 C 157.860 121.933,157.935 121.791,158.019 121.433 C 158.182 120.741,158.112 120.392,157.940 121.035 M157.709 122.917 C 157.711 123.283,157.745 123.414,157.785 123.206 C 157.824 122.999,157.823 122.699,157.781 122.540 C 157.739 122.380,157.707 122.550,157.709 122.917 M344.583 123.500 C 344.816 123.958,345.043 124.333,345.089 124.333 C 345.135 124.333,344.982 123.958,344.750 123.500 C 344.518 123.042,344.290 122.667,344.244 122.667 C 344.199 122.667,344.351 123.042,344.583 123.500 M345.750 125.667 C 346.073 126.308,346.375 126.833,346.421 126.833 C 346.467 126.833,346.240 126.308,345.917 125.667 C 345.594 125.025,345.292 124.500,345.246 124.500 C 345.200 124.500,345.427 125.025,345.750 125.667 M307.500 124.721 C 307.500 124.762,308.044 125.116,308.708 125.509 C 309.373 125.901,310.085 126.331,310.292 126.464 C 310.498 126.596,310.667 126.664,310.667 126.614 C 310.667 126.563,310.010 126.131,309.208 125.652 C 307.450 124.602,307.500 124.629,307.500 124.721 M159.958 125.454 C 160.256 125.491,160.744 125.491,161.042 125.454 C 161.340 125.417,161.096 125.387,160.500 125.387 C 159.904 125.387,159.660 125.417,159.958 125.454 M50.571 130.918 C 48.980 134.225,48.713 135.008,50.117 132.250 C 51.305 129.918,52.185 128.000,52.067 128.000 C 52.016 128.000,51.343 129.313,50.571 130.918 M313.417 128.420 C 313.600 128.569,313.900 128.765,314.083 128.855 L 314.417 129.018 314.083 128.747 C 313.900 128.598,313.600 128.402,313.417 128.312 L 313.083 128.148 313.417 128.420 M314.500 129.052 C 314.500 129.091,314.819 129.333,315.208 129.590 C 315.598 129.846,315.829 129.950,315.721 129.820 C 315.514 129.570,314.500 128.932,314.500 129.052 M348.516 131.083 C 348.516 131.175,348.734 131.662,349.000 132.167 C 349.266 132.671,349.484 133.008,349.484 132.917 C 349.484 132.825,349.266 132.337,349.000 131.833 C 348.734 131.329,348.516 130.992,348.516 131.083 M143.167 132.104 C 143.167 132.461,146.266 133.405,148.007 133.578 C 149.822 133.758,154.579 132.994,153.924 132.628 C 153.725 132.516,153.592 132.517,153.521 132.632 C 152.869 133.688,146.922 133.549,144.127 132.413 C 143.599 132.199,143.167 132.060,143.167 132.104 M319.167 132.227 C 319.167 132.295,320.224 133.069,322.000 134.299 L 322.583 134.704 322.083 134.270 C 321.455 133.726,319.167 132.122,319.167 132.227 M349.515 133.250 C 349.515 133.342,349.696 133.754,349.917 134.167 C 350.138 134.579,350.318 134.842,350.318 134.750 C 350.318 134.658,350.138 134.246,349.917 133.833 C 349.696 133.421,349.515 133.158,349.515 133.250 M48.531 135.258 C 48.029 136.292,48.085 136.436,48.603 135.442 C 48.834 134.998,48.994 134.606,48.960 134.571 C 48.925 134.536,48.732 134.845,48.531 135.258 M325.500 136.890 C 325.500 136.934,326.006 137.356,326.625 137.827 C 327.336 138.369,327.504 138.461,327.083 138.077 C 326.337 137.397,325.500 136.769,325.500 136.890 M47.621 137.201 C 47.573 137.320,47.076 138.535,46.516 139.902 C 45.956 141.268,45.524 142.413,45.556 142.445 C 45.588 142.477,46.119 141.295,46.736 139.819 C 47.352 138.343,47.823 137.101,47.782 137.060 C 47.741 137.019,47.669 137.083,47.621 137.201 M329.667 140.209 C 329.667 140.248,330.285 140.785,331.042 141.402 C 331.798 142.019,332.079 142.210,331.667 141.827 C 330.804 141.025,329.667 140.105,329.667 140.209 M353.274 141.999 C 353.333 142.228,353.521 142.716,353.691 143.083 C 353.861 143.450,353.952 143.563,353.893 143.334 C 353.833 143.105,353.646 142.618,353.475 142.251 C 353.305 141.884,353.215 141.771,353.274 141.999 M334.000 143.917 C 334.311 144.237,334.603 144.500,334.649 144.500 C 334.695 144.500,334.478 144.237,334.167 143.917 C 333.856 143.596,333.564 143.333,333.518 143.333 C 333.472 143.333,333.689 143.596,334.000 143.917 M105.458 144.833 C 105.784 145.393,107.175 146.500,107.551 146.500 C 107.651 146.500,107.394 146.286,106.981 146.024 C 106.568 145.762,105.980 145.256,105.674 144.899 L 105.117 144.250 105.458 144.833 M335.500 145.170 C 335.912 145.562,337.075 146.630,338.083 147.544 C 339.585 148.904,339.675 148.967,338.580 147.894 C 337.845 147.173,336.683 146.105,335.997 145.520 C 335.311 144.935,335.087 144.777,335.500 145.170 M42.854 149.421 C 42.017 151.809,41.553 153.438,42.095 152.083 C 42.626 150.758,43.842 147.119,43.776 147.053 C 43.738 147.016,43.324 148.082,42.854 149.421 M343.160 152.417 C 347.451 156.840,347.842 157.224,346.042 155.250 C 345.207 154.333,343.489 152.571,342.225 151.333 C 340.500 149.644,340.733 149.915,343.160 152.417 M310.167 152.229 C 310.167 152.274,310.729 152.772,311.417 153.333 C 312.104 153.895,312.667 154.317,312.667 154.271 C 312.667 154.226,312.104 153.728,311.417 153.167 C 310.729 152.605,310.167 152.183,310.167 152.229 M357.026 152.500 C 357.026 152.637,357.164 153.125,357.333 153.583 C 357.502 154.042,357.641 154.304,357.641 154.167 C 357.641 154.029,357.502 153.542,357.333 153.083 C 357.164 152.625,357.026 152.362,357.026 152.500 M41.182 154.515 C 41.069 154.891,41.008 155.230,41.045 155.267 C 41.083 155.305,41.205 155.028,41.318 154.652 C 41.431 154.275,41.492 153.937,41.455 153.899 C 41.417 153.862,41.295 154.139,41.182 154.515 M357.692 154.667 C 357.692 154.804,357.793 155.179,357.917 155.500 C 358.040 155.821,358.141 155.971,358.141 155.833 C 358.141 155.696,358.040 155.321,357.917 155.000 C 357.793 154.679,357.692 154.529,357.692 154.667 M313.833 155.219 C 313.833 155.248,314.077 155.491,314.375 155.760 L 314.917 156.250 314.427 155.708 C 313.971 155.203,313.833 155.090,313.833 155.219 M315.512 156.690 C 316.834 157.933,318.884 159.694,318.417 159.185 C 318.142 158.886,317.242 158.076,316.417 157.385 C 315.592 156.695,315.185 156.382,315.512 156.690 M348.000 157.583 C 348.311 157.904,348.603 158.167,348.649 158.167 C 348.695 158.167,348.478 157.904,348.167 157.583 C 347.856 157.262,347.564 157.000,347.518 157.000 C 347.472 157.000,347.689 157.262,348.000 157.583 M348.667 158.385 C 348.667 158.414,348.910 158.658,349.208 158.927 L 349.750 159.417 349.260 158.875 C 348.804 158.370,348.667 158.257,348.667 158.385 M39.634 159.667 C 39.580 159.896,39.152 161.583,38.684 163.417 C 38.217 165.250,37.839 166.862,37.845 167.000 C 37.852 167.137,38.300 165.563,38.842 163.500 C 39.385 161.438,39.807 159.637,39.781 159.500 C 39.755 159.362,39.689 159.437,39.634 159.667 M350.567 160.625 C 351.101 161.290,351.572 161.833,351.613 161.833 C 351.724 161.833,350.163 159.870,349.857 159.625 C 349.714 159.510,350.034 159.960,350.567 160.625 M321.493 162.103 C 322.643 163.213,324.513 165.088,325.650 166.269 C 326.900 167.569,327.184 167.824,326.370 166.917 C 325.022 165.416,321.824 162.238,320.243 160.831 C 319.781 160.420,320.343 160.992,321.493 162.103 M101.460 160.785 C 101.668 160.824,101.968 160.823,102.127 160.781 C 102.286 160.739,102.117 160.707,101.750 160.709 C 101.383 160.711,101.253 160.745,101.460 160.785 M102.999 161.099 C 103.319 161.238,103.768 161.516,103.998 161.717 L 104.414 162.083 104.083 161.691 C 103.723 161.266,102.980 160.829,102.633 160.840 C 102.514 160.843,102.679 160.960,102.999 161.099 M98.865 161.281 C 98.469 161.420,98.175 161.564,98.211 161.600 C 98.247 161.636,98.683 161.521,99.180 161.345 C 99.677 161.169,99.971 161.025,99.833 161.025 C 99.696 161.026,99.260 161.141,98.865 161.281 M97.125 162.011 C 96.781 162.193,96.500 162.379,96.500 162.424 C 96.500 162.498,97.816 161.883,97.986 161.730 C 98.178 161.556,97.677 161.720,97.125 162.011 M105.689 161.967 C 105.658 162.499,105.186 163.365,104.993 163.246 C 104.905 163.191,104.833 163.222,104.833 163.314 C 104.833 163.405,104.896 163.519,104.973 163.567 C 105.194 163.703,105.864 162.372,105.784 161.957 L 105.712 161.583 105.689 161.967 M92.996 165.282 C 92.219 166.078,91.883 166.472,92.250 166.157 C 92.948 165.557,94.602 163.833,94.480 163.833 C 94.441 163.833,93.773 164.485,92.996 165.282 M360.842 166.514 C 360.859 166.946,361.972 171.922,361.986 171.627 C 361.994 171.468,361.767 170.230,361.482 168.877 C 361.003 166.600,360.820 165.923,360.842 166.514 M328.417 169.333 C 328.775 169.700,329.105 170.000,329.151 170.000 C 329.197 170.000,328.941 169.700,328.583 169.333 C 328.225 168.967,327.895 168.667,327.849 168.667 C 327.803 168.667,328.059 168.967,328.417 169.333 M330.315 171.542 C 330.987 172.344,331.571 173.000,331.613 173.000 C 331.722 173.000,329.687 170.556,329.363 170.297 C 329.215 170.180,329.644 170.740,330.315 171.542 M334.993 177.458 C 335.470 178.123,335.898 178.667,335.944 178.667 C 336.056 178.667,334.868 177.008,334.452 176.583 C 334.273 176.400,334.516 176.794,334.993 177.458 M35.367 180.275 C 34.629 185.514,33.975 192.410,34.021 194.476 C 34.032 194.993,34.141 194.044,34.263 192.366 C 34.529 188.695,34.865 185.505,35.435 181.208 C 35.669 179.443,35.833 177.916,35.800 177.816 C 35.766 177.715,35.571 178.822,35.367 180.275 M338.265 182.042 C 338.604 182.569,338.912 183.000,338.950 183.000 C 339.061 183.000,338.458 182.034,338.038 181.539 C 337.825 181.288,337.927 181.515,338.265 182.042 M78.045 187.500 C 78.045 187.912,78.078 188.081,78.118 187.875 C 78.157 187.669,78.157 187.331,78.118 187.125 C 78.078 186.919,78.045 187.088,78.045 187.500 M342.245 188.417 C 342.501 188.875,342.788 189.325,342.883 189.417 C 342.977 189.508,342.845 189.208,342.589 188.750 C 342.332 188.292,342.045 187.842,341.950 187.750 C 341.856 187.658,341.988 187.958,342.245 188.417 M78.205 189.000 C 78.205 189.321,78.240 189.452,78.282 189.292 C 78.323 189.131,78.323 188.869,78.282 188.708 C 78.240 188.548,78.205 188.679,78.205 189.000 M364.372 189.333 C 364.372 189.654,364.406 189.785,364.448 189.625 C 364.490 189.465,364.490 189.202,364.448 189.042 C 364.406 188.881,364.372 189.012,364.372 189.333 M78.372 190.167 C 78.372 190.487,78.406 190.619,78.448 190.458 C 78.490 190.298,78.490 190.035,78.448 189.875 C 78.406 189.715,78.372 189.846,78.372 190.167 M343.250 190.167 C 343.392 190.442,343.546 190.667,343.592 190.667 C 343.638 190.667,343.559 190.442,343.417 190.167 C 343.274 189.892,343.121 189.667,343.075 189.667 C 343.029 189.667,343.108 189.892,343.250 190.167 M364.550 191.667 C 364.550 192.171,364.581 192.377,364.619 192.125 C 364.658 191.873,364.658 191.460,364.619 191.208 C 364.581 190.956,364.550 191.162,364.550 191.667 M87.480 193.830 C 86.712 194.379,85.746 195.132,85.333 195.505 C 84.921 195.879,85.558 195.457,86.750 194.569 C 89.216 192.730,89.084 192.833,88.966 192.833 C 88.916 192.833,88.248 193.282,87.480 193.830 M346.119 195.576 C 346.826 196.992,347.430 198.125,347.462 198.094 C 347.535 198.020,345.026 193.000,344.916 193.000 C 344.871 193.000,345.413 194.159,346.119 195.576 M364.725 194.667 C 364.725 195.446,364.754 195.765,364.789 195.375 C 364.824 194.985,364.824 194.348,364.789 193.958 C 364.754 193.569,364.725 193.887,364.725 194.667 M33.889 196.667 C 33.889 197.354,33.919 197.635,33.955 197.292 C 33.991 196.948,33.991 196.385,33.955 196.042 C 33.919 195.698,33.889 195.979,33.889 196.667 M83.000 197.422 C 81.247 198.948,80.796 199.166,80.305 198.730 C 79.955 198.419,79.953 198.420,80.148 198.792 C 80.544 199.547,82.200 198.657,84.073 196.683 C 84.837 195.877,84.537 196.084,83.000 197.422 M364.909 203.167 C 364.909 206.696,364.931 208.140,364.958 206.375 C 364.985 204.610,364.985 201.723,364.958 199.958 C 364.931 198.194,364.909 199.637,364.909 203.167 M33.714 198.917 C 33.716 199.375,33.748 199.543,33.786 199.289 C 33.825 199.036,33.824 198.661,33.784 198.456 C 33.744 198.251,33.713 198.458,33.714 198.917 M33.539 200.500 C 33.539 200.821,33.573 200.952,33.615 200.792 C 33.657 200.631,33.657 200.369,33.615 200.208 C 33.573 200.048,33.539 200.179,33.539 200.500 M33.381 202.083 C 33.382 202.542,33.415 202.709,33.453 202.456 C 33.491 202.203,33.490 201.828,33.451 201.623 C 33.411 201.418,33.380 201.625,33.381 202.083 M125.088 203.087 C 125.158 204.195,125.607 206.115,125.761 205.961 C 125.800 205.922,125.721 205.516,125.585 205.059 C 125.450 204.602,125.266 203.708,125.177 203.072 L 125.014 201.917 125.088 203.087 M349.882 203.708 C 349.929 203.823,350.211 204.536,350.510 205.293 C 350.809 206.050,351.082 206.640,351.117 206.605 C 351.199 206.524,349.995 203.500,349.881 203.500 C 349.835 203.500,349.836 203.594,349.882 203.708 M108.883 208.333 C 110.553 209.404,119.446 211.951,119.908 211.491 C 120.008 211.392,119.941 211.333,119.726 211.333 C 119.539 211.333,118.043 211.001,116.401 210.595 C 113.887 209.973,112.597 209.570,108.917 208.260 C 108.612 208.152,108.609 208.158,108.883 208.333 M364.725 211.500 C 364.725 212.279,364.754 212.598,364.789 212.208 C 364.824 211.819,364.824 211.181,364.789 210.792 C 364.754 210.402,364.725 210.721,364.725 211.500 M364.550 214.500 C 364.550 215.004,364.581 215.210,364.619 214.958 C 364.658 214.706,364.658 214.294,364.619 214.042 C 364.581 213.790,364.550 213.996,364.550 214.500 M353.692 214.167 C 353.692 214.304,353.793 214.679,353.917 215.000 C 354.040 215.321,354.141 215.471,354.141 215.333 C 354.141 215.196,354.040 214.821,353.917 214.500 C 353.793 214.179,353.692 214.029,353.692 214.167 M354.190 215.833 C 354.190 215.971,354.255 216.233,354.333 216.417 C 354.424 216.627,354.477 216.658,354.477 216.500 C 354.477 216.362,354.412 216.100,354.333 215.917 C 354.243 215.707,354.190 215.676,354.190 215.833 M364.372 216.833 C 364.372 217.154,364.406 217.285,364.448 217.125 C 364.490 216.965,364.490 216.702,364.448 216.542 C 364.406 216.381,364.372 216.512,364.372 216.833 M354.604 217.333 C 354.662 217.654,354.776 218.067,354.856 218.250 C 354.956 218.479,354.968 218.400,354.896 218.000 C 354.838 217.679,354.724 217.267,354.644 217.083 C 354.544 216.855,354.532 216.933,354.604 217.333 M357.872 232.667 C 357.872 232.987,357.906 233.119,357.948 232.958 C 357.990 232.798,357.990 232.535,357.948 232.375 C 357.906 232.215,357.872 232.346,357.872 232.667 M358.034 233.667 C 358.028 233.896,358.166 235.208,358.340 236.583 C 358.580 238.477,358.634 238.720,358.561 237.583 C 358.460 235.998,358.051 232.958,358.034 233.667 M361.608 235.858 C 361.354 237.147,361.178 238.234,361.217 238.273 C 361.255 238.311,361.495 237.288,361.750 236.000 C 362.005 234.712,362.181 233.625,362.141 233.585 C 362.101 233.546,361.861 234.568,361.608 235.858 M360.926 239.093 C 360.863 239.427,360.845 239.734,360.886 239.775 C 360.927 239.816,361.011 239.575,361.074 239.241 C 361.137 238.906,361.155 238.599,361.114 238.559 C 361.073 238.518,360.989 238.758,360.926 239.093 M358.718 240.083 C 358.719 240.633,358.750 240.838,358.787 240.539 C 358.825 240.239,358.824 239.789,358.786 239.539 C 358.748 239.288,358.717 239.533,358.718 240.083 M358.890 242.417 C 358.891 243.150,358.920 243.429,358.956 243.037 C 358.991 242.645,358.990 242.045,358.954 241.704 C 358.919 241.363,358.890 241.683,358.890 242.417 M359.002 245.492 C 359.000 247.169,359.161 247.323,359.518 245.984 C 359.721 245.222,359.706 245.128,359.246 244.333 C 359.023 243.948,359.005 244.036,359.002 245.492 M195.125 369.118 C 195.331 369.157,195.669 369.157,195.875 369.118 C 196.081 369.078,195.912 369.045,195.500 369.045 C 195.088 369.045,194.919 369.078,195.125 369.118 M204.794 369.118 C 205.001 369.158,205.301 369.156,205.460 369.115 C 205.620 369.073,205.450 369.040,205.083 369.042 C 204.717 369.044,204.586 369.078,204.794 369.118 " stroke="none" fill="#5c9cd3" fill-rule="evenodd"></path><path id="path3" d="M188.167 0.108 C 179.865 0.645,171.063 1.767,162.917 3.324 C 161.083 3.675,159.058 4.050,158.417 4.157 C 156.702 4.445,150.387 6.013,146.750 7.053 C 145.008 7.551,143.321 8.012,143.000 8.078 C 141.887 8.305,132.904 11.307,132.322 11.646 C 132.178 11.730,131.606 11.915,131.052 12.057 C 130.497 12.199,128.740 12.854,127.147 13.512 C 125.554 14.170,123.425 15.042,122.417 15.450 C 119.413 16.666,118.729 16.967,115.417 18.538 C 111.211 20.533,108.362 21.932,107.750 22.304 C 107.475 22.471,106.060 23.225,104.607 23.980 C 103.153 24.735,101.465 25.658,100.857 26.033 C 99.481 26.879,97.222 28.187,96.667 28.459 C 96.107 28.734,92.357 31.154,91.762 31.625 C 91.502 31.831,91.216 32.000,91.128 32.000 C 90.891 32.000,85.679 35.559,82.344 38.000 C 81.404 38.688,80.323 39.475,79.943 39.751 C 78.429 40.845,76.720 42.167,76.167 42.671 C 75.846 42.963,75.021 43.620,74.333 44.130 C 73.646 44.640,72.521 45.558,71.833 46.172 C 71.146 46.785,70.158 47.616,69.638 48.018 C 68.698 48.746,66.409 50.795,63.271 53.718 C 60.117 56.655,52.445 64.404,52.083 65.017 C 51.992 65.173,51.054 66.238,50.000 67.383 C 48.946 68.529,47.842 69.793,47.547 70.192 C 47.251 70.590,46.591 71.367,46.080 71.917 C 45.569 72.467,44.910 73.242,44.617 73.639 C 44.323 74.036,43.768 74.749,43.382 75.222 C 41.757 77.216,36.428 84.306,36.095 84.917 C 35.835 85.393,34.131 87.901,34.000 88.000 C 33.814 88.140,32.163 90.649,32.052 90.959 C 31.994 91.119,31.706 91.587,31.410 92.000 C 30.485 93.292,28.477 96.531,27.820 97.791 C 27.474 98.456,26.963 99.336,26.686 99.747 C 24.389 103.151,18.321 115.360,15.419 122.417 C 13.186 127.845,12.000 130.841,12.000 131.048 C 12.000 131.180,11.704 132.077,11.342 133.040 C 10.240 135.974,8.156 142.276,8.009 143.121 C 7.933 143.559,7.556 144.967,7.171 146.250 C 6.233 149.382,4.403 156.689,4.155 158.293 C 4.045 159.003,3.744 160.638,3.486 161.928 C 2.130 168.692,0.956 177.194,0.300 185.000 C -0.003 188.609,-0.004 211.442,0.299 214.833 C 0.795 220.382,1.081 222.910,1.838 228.417 C 2.100 230.325,2.745 234.107,3.402 237.583 C 3.714 239.233,4.054 241.108,4.158 241.750 C 4.405 243.270,6.287 250.765,7.171 253.750 C 7.551 255.033,7.924 256.429,8.000 256.851 C 8.138 257.611,10.052 263.470,11.299 266.947 C 11.655 267.939,12.140 269.313,12.378 270.000 C 12.849 271.363,14.094 274.458,15.227 277.083 C 15.623 278.000,16.119 279.200,16.330 279.750 C 16.541 280.300,17.494 282.400,18.448 284.417 C 21.083 289.987,21.502 290.840,22.086 291.833 C 22.382 292.337,23.153 293.775,23.800 295.028 C 24.886 297.133,25.725 298.618,27.031 300.750 C 27.312 301.208,27.781 302.033,28.075 302.583 C 28.682 303.724,31.303 307.874,31.495 308.000 C 31.565 308.046,31.793 308.421,32.002 308.833 C 32.210 309.246,32.746 310.108,33.193 310.750 C 33.639 311.392,34.492 312.629,35.088 313.500 C 36.419 315.445,39.202 319.294,39.614 319.758 C 39.780 319.946,40.021 320.281,40.148 320.501 C 40.434 320.997,41.650 322.558,42.725 323.809 C 43.169 324.327,43.785 325.125,44.094 325.583 C 44.402 326.042,45.302 327.129,46.094 328.000 C 46.887 328.871,47.705 329.846,47.912 330.167 C 48.120 330.487,48.721 331.200,49.248 331.750 C 49.774 332.300,50.852 333.500,51.642 334.417 C 53.465 336.532,63.637 346.704,65.507 348.282 C 66.282 348.936,67.367 349.901,67.917 350.425 C 68.467 350.949,69.179 351.573,69.500 351.811 C 70.336 352.432,72.074 353.896,72.135 354.031 C 72.218 354.212,74.467 356.000,74.616 356.003 C 74.690 356.004,75.260 356.454,75.883 357.001 C 77.308 358.253,79.595 360.000,79.810 360.000 C 79.899 360.000,79.997 360.065,80.028 360.144 C 80.101 360.333,83.817 363.058,85.870 364.428 C 86.761 365.023,88.024 365.910,88.676 366.401 C 89.328 366.892,90.280 367.505,90.791 367.764 C 91.303 368.022,91.915 368.391,92.152 368.584 C 92.389 368.776,92.996 369.189,93.500 369.502 C 94.004 369.815,95.033 370.468,95.786 370.954 C 96.539 371.440,97.339 371.907,97.565 371.993 C 97.790 372.079,98.749 372.626,99.696 373.209 C 102.436 374.896,107.106 377.386,111.667 379.590 C 113.454 380.454,115.269 381.347,115.699 381.575 C 116.748 382.131,120.929 384.000,121.122 384.000 C 121.207 384.000,121.983 384.310,122.846 384.689 C 126.220 386.170,128.751 387.161,132.000 388.274 C 132.412 388.415,133.575 388.826,134.583 389.187 C 137.886 390.371,141.897 391.681,142.917 391.909 C 143.467 392.032,145.079 392.472,146.500 392.887 C 150.884 394.166,157.325 395.753,159.092 395.989 C 159.729 396.074,161.787 396.444,163.667 396.810 C 171.221 398.283,179.394 399.316,187.667 399.845 C 192.175 400.133,212.229 399.963,216.083 399.605 C 224.411 398.830,231.684 397.806,238.072 396.508 C 239.362 396.246,240.829 395.983,241.333 395.923 C 242.567 395.777,249.488 394.068,253.489 392.922 C 255.270 392.412,256.957 391.954,257.239 391.906 C 257.895 391.792,262.573 390.251,265.583 389.156 C 266.867 388.689,268.329 388.192,268.833 388.052 C 269.913 387.750,271.960 386.951,276.083 385.221 C 281.433 382.977,281.888 382.777,284.000 381.744 C 285.146 381.183,286.411 380.580,286.811 380.404 C 287.846 379.948,291.610 378.066,292.500 377.559 C 292.912 377.325,293.925 376.791,294.750 376.373 C 296.808 375.331,298.670 374.285,300.230 373.295 C 300.952 372.836,302.039 372.206,302.646 371.894 C 303.253 371.583,304.762 370.656,306.000 369.834 C 307.237 369.012,308.475 368.230,308.750 368.096 C 309.025 367.961,309.850 367.433,310.583 366.921 C 311.317 366.409,312.779 365.411,313.833 364.702 C 315.702 363.446,319.327 360.802,319.838 360.323 C 319.979 360.191,320.292 359.971,320.534 359.833 C 321.035 359.549,323.290 357.788,324.167 356.997 C 324.487 356.707,325.125 356.217,325.583 355.907 C 326.042 355.597,327.054 354.770,327.833 354.069 C 328.612 353.368,329.795 352.383,330.460 351.881 C 331.126 351.379,331.763 350.835,331.877 350.674 C 331.990 350.512,332.765 349.788,333.598 349.065 C 337.417 345.750,346.569 336.649,348.331 334.417 C 348.620 334.050,349.395 333.182,350.053 332.488 C 351.319 331.154,351.620 330.805,352.408 329.757 C 352.678 329.397,353.450 328.499,354.124 327.760 C 354.798 327.021,355.603 326.037,355.913 325.573 C 356.223 325.108,356.805 324.358,357.207 323.906 C 358.194 322.795,360.000 320.392,360.000 320.190 C 360.000 320.101,360.066 320.003,360.146 319.972 C 360.227 319.942,360.942 319.026,361.735 317.937 C 362.528 316.848,363.329 315.761,363.514 315.520 C 363.700 315.280,364.300 314.408,364.849 313.583 C 365.398 312.758,366.227 311.558,366.692 310.917 C 367.157 310.275,367.681 309.435,367.857 309.049 C 368.032 308.664,368.347 308.139,368.557 307.882 C 368.767 307.626,369.382 306.704,369.923 305.833 C 370.464 304.962,371.075 304.021,371.281 303.741 C 371.488 303.461,371.775 302.947,371.921 302.599 C 372.066 302.251,372.655 301.205,373.229 300.275 C 374.817 297.702,377.189 293.272,379.355 288.833 C 382.753 281.870,382.653 282.089,384.970 276.500 C 387.102 271.359,387.825 269.530,387.976 268.902 C 388.063 268.543,388.587 266.993,389.141 265.457 C 390.453 261.822,392.000 257.055,392.000 256.650 C 392.000 256.474,392.332 255.225,392.737 253.874 C 394.009 249.632,395.776 242.527,396.000 240.750 C 396.070 240.200,396.356 238.588,396.638 237.167 C 397.966 230.453,398.872 223.967,399.618 215.833 C 400.000 211.679,400.061 189.212,399.702 185.167 C 398.916 176.305,398.140 170.570,396.679 162.833 C 396.324 160.954,395.948 158.892,395.843 158.250 C 395.590 156.710,393.889 149.939,392.911 146.583 C 392.484 145.117,392.068 143.545,391.988 143.091 C 391.836 142.225,389.310 134.624,388.481 132.537 C 388.217 131.870,388.000 131.208,388.000 131.066 C 388.000 130.803,386.149 126.040,385.428 124.449 C 385.213 123.973,384.795 122.983,384.500 122.250 C 383.348 119.385,382.740 117.995,381.659 115.750 C 381.040 114.467,380.223 112.742,379.843 111.917 C 378.462 108.920,374.773 102.080,372.833 98.917 C 372.383 98.183,372.011 97.519,372.007 97.441 C 371.997 97.236,369.020 92.525,368.466 91.837 C 368.210 91.518,368.000 91.173,368.000 91.071 C 368.000 90.884,366.232 88.156,366.009 88.000 C 365.944 87.954,365.318 87.054,364.617 86.000 C 363.917 84.946,362.685 83.196,361.880 82.112 C 361.075 81.028,360.102 79.698,359.717 79.156 C 359.332 78.614,358.582 77.640,358.050 76.992 C 356.661 75.300,355.995 74.460,355.342 73.575 C 355.025 73.147,354.570 72.587,354.330 72.330 C 353.217 71.138,351.833 69.528,351.833 69.423 C 351.833 69.360,351.086 68.507,350.172 67.529 C 349.258 66.550,348.377 65.571,348.214 65.352 C 347.405 64.269,340.204 56.978,336.727 53.721 C 333.909 51.082,331.173 48.607,330.777 48.342 C 330.579 48.209,329.654 47.443,328.722 46.640 C 327.790 45.837,326.403 44.704,325.639 44.121 C 324.875 43.538,324.025 42.852,323.750 42.597 C 323.278 42.160,321.593 40.861,320.057 39.751 C 319.677 39.475,318.599 38.688,317.662 38.000 C 314.526 35.697,309.101 32.000,308.857 32.000 C 308.777 32.000,308.501 31.831,308.244 31.625 C 307.445 30.983,303.819 28.714,302.333 27.926 C 301.554 27.512,300.528 26.917,300.053 26.604 C 298.840 25.804,296.608 24.566,294.167 23.341 C 293.021 22.766,291.971 22.197,291.833 22.078 C 291.696 21.958,290.608 21.395,289.417 20.827 C 288.225 20.259,286.237 19.307,285.000 18.711 C 282.749 17.626,279.963 16.401,278.083 15.668 C 277.533 15.454,276.688 15.100,276.204 14.882 C 274.427 14.082,269.945 12.314,269.110 12.085 C 268.637 11.955,267.313 11.503,266.167 11.080 C 263.004 9.914,258.205 8.328,257.083 8.079 C 256.533 7.956,254.996 7.545,253.667 7.166 C 248.197 5.603,242.792 4.266,240.891 4.005 C 240.263 3.919,238.213 3.551,236.333 3.186 C 230.251 2.006,223.526 1.071,216.250 0.396 C 213.445 0.135,191.257 -0.092,188.167 0.108 M276.593 20.375 C 276.162 30.800,274.819 40.194,272.408 49.643 C 271.909 51.601,271.500 53.307,271.500 53.433 C 271.500 53.560,272.343 54.086,273.375 54.604 C 323.029 79.495,356.800 127.327,363.732 182.583 C 366.234 202.523,365.126 222.001,360.329 242.417 C 359.963 243.975,359.585 245.588,359.489 246.000 C 359.166 247.382,359.052 247.032,358.936 244.299 C 357.516 211.037,342.048 179.643,316.012 157.182 C 310.130 152.107,309.087 151.354,300.750 146.160 C 288.080 138.268,273.742 132.672,259.578 130.094 C 254.405 129.152,254.380 128.900,259.474 129.048 C 273.859 129.467,294.716 135.174,310.175 142.921 C 311.382 143.525,312.400 143.989,312.439 143.950 C 312.576 143.813,311.853 142.367,310.709 140.492 C 310.069 139.442,309.414 138.321,309.253 138.000 C 309.093 137.679,308.787 137.229,308.573 137.000 C 308.173 136.570,307.262 134.682,307.393 134.552 C 307.590 134.355,311.472 136.157,313.917 137.581 C 314.742 138.062,316.842 139.229,318.583 140.175 C 328.401 145.509,338.828 152.456,347.869 159.688 C 349.675 161.133,352.018 162.613,351.731 162.126 C 349.119 157.712,336.269 145.356,325.833 137.225 C 301.404 118.191,269.012 104.911,241.320 102.578 L 238.309 102.324 237.280 102.944 C 236.713 103.285,235.367 104.229,234.287 105.041 C 227.851 109.882,217.215 115.805,207.528 119.943 C 201.514 122.512,201.032 122.471,203.773 119.618 C 208.171 115.040,211.410 109.534,213.672 102.792 C 214.577 100.094,214.680 99.991,217.786 98.669 C 233.593 91.939,246.801 81.539,258.322 66.750 C 260.998 63.316,261.713 62.324,261.597 62.208 C 261.258 61.869,255.671 63.327,252.167 64.669 C 250.202 65.422,249.765 65.235,250.864 64.113 C 255.426 59.456,263.415 47.470,267.856 38.621 C 270.503 33.346,275.163 21.507,275.168 20.043 C 275.170 19.423,275.544 18.441,275.923 18.062 C 276.670 17.315,276.713 17.463,276.593 20.375 M205.271 37.333 C 222.996 37.910,239.960 41.053,256.292 46.786 C 257.650 47.262,257.652 47.266,257.099 48.141 C 252.799 54.953,233.271 72.332,219.458 81.640 C 217.605 82.888,217.770 82.954,217.349 80.800 C 216.290 75.387,215.345 72.585,213.170 68.417 C 212.453 67.042,211.552 65.292,211.169 64.528 C 210.785 63.765,210.445 63.166,210.414 63.197 C 210.383 63.228,209.989 63.815,209.540 64.502 C 205.918 70.030,198.250 78.043,191.917 82.919 C 186.627 86.990,182.485 89.031,169.635 93.895 C 147.066 102.438,139.205 110.450,141.650 122.417 C 142.628 127.205,145.515 129.859,152.104 132.026 C 153.245 132.402,154.151 132.738,154.116 132.773 C 153.822 133.067,150.664 133.545,149.000 133.547 C 146.070 133.551,144.522 133.054,141.819 131.239 C 139.838 129.909,139.925 129.905,138.552 131.422 C 130.807 139.983,118.527 147.416,112.167 147.394 C 104.899 147.368,102.961 143.450,105.265 133.438 C 105.744 131.355,105.764 131.455,104.907 131.686 C 103.904 131.955,102.934 132.580,101.348 133.977 C 100.554 134.677,98.956 135.985,97.798 136.884 C 80.672 150.166,74.342 170.412,79.423 195.649 C 80.258 199.797,80.188 199.781,83.932 196.654 C 85.346 195.473,87.033 194.135,87.679 193.681 C 88.324 193.227,89.061 192.570,89.315 192.220 C 89.922 191.386,91.714 189.736,92.386 189.393 C 92.678 189.244,94.004 188.393,95.333 187.501 C 111.536 176.631,126.569 171.021,146.000 168.594 C 163.012 166.470,182.700 167.549,200.695 171.593 C 214.060 174.597,213.087 174.597,210.917 171.592 C 204.811 163.139,195.513 155.379,185.917 150.729 C 182.358 149.004,182.370 149.000,190.309 149.002 C 230.656 149.012,260.599 160.778,286.006 186.606 C 315.580 216.671,327.352 262.009,315.327 299.534 C 311.336 311.991,302.685 326.987,295.748 333.477 C 295.133 334.053,294.366 334.875,294.046 335.304 C 290.649 339.843,277.942 349.268,268.649 354.140 C 235.819 371.354,185.897 374.025,146.751 360.663 C 126.300 353.682,105.713 342.113,92.333 330.083 C 91.646 329.465,90.708 328.718,90.250 328.423 C 88.568 327.341,77.244 316.117,73.428 311.750 C 53.984 289.498,40.841 262.051,35.441 232.417 C 33.283 220.575,32.516 207.993,33.507 200.667 C 33.587 200.071,33.770 197.708,33.912 195.417 C 35.495 169.969,41.477 148.109,52.705 126.750 C 81.111 72.714,136.058 38.604,196.833 37.280 C 197.887 37.257,199.125 37.224,199.583 37.206 C 200.042 37.189,202.601 37.246,205.271 37.333 M198.000 97.515 C 198.000 97.684,197.894 98.068,197.764 98.369 C 197.633 98.670,197.289 99.704,196.997 100.667 C 192.823 114.458,182.225 123.205,167.630 124.907 C 164.355 125.289,160.167 125.521,159.083 125.380 L 158.083 125.250 157.873 124.250 C 156.462 117.529,163.688 111.801,180.994 105.924 C 186.055 104.205,194.984 99.501,196.927 97.530 C 197.604 96.844,198.000 96.838,198.000 97.515 M104.947 152.808 C 107.099 153.911,107.728 157.874,106.227 160.869 C 106.011 161.302,105.833 161.827,105.832 162.036 C 105.832 162.245,105.654 162.711,105.436 163.070 L 105.041 163.723 104.679 162.905 C 103.056 159.236,97.689 160.560,92.552 165.898 C 90.376 168.159,90.365 168.145,91.529 164.583 C 93.141 159.650,95.540 156.220,99.029 153.861 C 101.091 152.467,103.460 152.046,104.947 152.808 " stroke="none" fill="#fbfbfb" fill-rule="evenodd"></path><path id="path4" d="M276.550 19.000 C 276.550 19.504,276.581 19.710,276.619 19.458 C 276.658 19.206,276.658 18.794,276.619 18.542 C 276.581 18.290,276.550 18.496,276.550 19.000 M276.379 23.000 C 276.379 23.412,276.411 23.581,276.451 23.375 C 276.491 23.169,276.491 22.831,276.451 22.625 C 276.411 22.419,276.379 22.587,276.379 23.000 M276.205 25.667 C 276.205 25.988,276.240 26.119,276.282 25.958 C 276.323 25.798,276.323 25.535,276.282 25.375 C 276.240 25.215,276.205 25.346,276.205 25.667 M270.194 33.590 C 269.914 34.203,269.968 34.334,270.270 33.777 C 270.411 33.517,270.495 33.273,270.457 33.235 C 270.419 33.196,270.300 33.357,270.194 33.590 M266.000 42.167 C 265.813 42.533,265.697 42.833,265.743 42.833 C 265.789 42.833,265.980 42.533,266.167 42.167 C 266.354 41.800,266.469 41.500,266.423 41.500 C 266.378 41.500,266.187 41.800,266.000 42.167 M261.897 49.208 C 261.323 50.182,261.286 50.265,261.578 49.917 C 261.916 49.513,262.208 49.000,262.099 49.000 C 262.055 49.000,261.964 49.094,261.897 49.208 M258.500 54.333 C 258.304 54.608,258.181 54.833,258.227 54.833 C 258.273 54.833,258.471 54.608,258.667 54.333 C 258.862 54.058,258.985 53.833,258.939 53.833 C 258.894 53.833,258.696 54.058,258.500 54.333 M340.833 57.719 C 340.833 57.748,341.077 57.991,341.375 58.260 L 341.917 58.750 341.427 58.208 C 340.971 57.703,340.833 57.590,340.833 57.719 M261.125 62.121 C 261.712 62.193,261.780 62.306,261.458 62.667 C 261.281 62.866,261.294 62.868,261.542 62.680 C 262.050 62.295,261.898 61.997,261.208 62.027 C 260.593 62.053,260.592 62.054,261.125 62.121 M250.872 64.121 C 250.260 64.649,250.202 65.235,250.773 65.119 C 251.749 64.920,252.638 64.441,252.167 64.368 C 251.938 64.332,251.629 64.195,251.482 64.064 C 251.248 63.855,251.171 63.862,250.872 64.121 M253.573 72.542 L 253.083 73.083 253.625 72.594 C 253.923 72.325,254.167 72.081,254.167 72.052 C 254.167 71.923,254.029 72.037,253.573 72.542 M252.077 74.208 L 251.250 75.083 252.125 74.256 C 252.606 73.801,253.000 73.408,253.000 73.381 C 253.000 73.257,252.846 73.395,252.077 74.208 M248.748 77.708 L 246.583 79.917 248.792 77.752 C 250.006 76.562,251.000 75.568,251.000 75.544 C 251.000 75.424,250.758 75.657,248.748 77.708 M244.909 81.375 L 244.250 82.083 244.958 81.425 C 245.348 81.062,245.667 80.743,245.667 80.716 C 245.667 80.590,245.522 80.716,244.909 81.375 M243.573 82.542 L 243.083 83.083 243.625 82.594 C 243.923 82.325,244.167 82.081,244.167 82.052 C 244.167 81.923,244.029 82.037,243.573 82.542 M233.704 90.069 C 232.689 90.765,232.159 91.197,232.667 90.914 C 233.198 90.619,234.833 89.484,234.833 89.410 C 234.833 89.296,234.833 89.296,233.704 90.069 M227.458 93.929 C 226.835 94.267,226.873 94.407,227.500 94.083 C 227.775 93.941,228.000 93.789,228.000 93.746 C 228.000 93.638,227.982 93.645,227.458 93.929 M225.625 94.929 C 225.002 95.267,225.040 95.407,225.667 95.083 C 225.942 94.941,226.167 94.789,226.167 94.746 C 226.167 94.638,226.149 94.645,225.625 94.929 M197.148 97.368 C 196.936 97.670,196.879 97.824,197.022 97.710 C 197.356 97.442,197.499 97.597,197.506 98.236 L 197.512 98.750 197.750 98.333 C 198.331 97.317,197.791 96.452,197.148 97.368 M220.667 97.417 C 220.438 97.548,220.325 97.655,220.417 97.655 C 220.508 97.655,220.771 97.548,221.000 97.417 C 221.229 97.286,221.342 97.178,221.250 97.178 C 221.158 97.178,220.896 97.286,220.667 97.417 M196.000 98.354 C 195.419 98.863,195.419 98.864,195.953 98.508 C 196.248 98.312,196.534 98.080,196.588 97.992 C 196.749 97.732,196.616 97.814,196.000 98.354 M219.167 98.083 C 218.938 98.214,218.825 98.322,218.917 98.322 C 219.008 98.322,219.271 98.214,219.500 98.083 C 219.729 97.952,219.842 97.845,219.750 97.845 C 219.658 97.845,219.396 97.952,219.167 98.083 M218.000 98.583 C 217.771 98.714,217.658 98.822,217.750 98.822 C 217.842 98.822,218.104 98.714,218.333 98.583 C 218.563 98.452,218.675 98.345,218.583 98.345 C 218.492 98.345,218.229 98.452,218.000 98.583 M189.833 102.000 C 188.963 102.449,188.308 102.820,188.378 102.825 C 188.555 102.837,191.500 101.349,191.500 101.248 C 191.500 101.135,191.586 101.096,189.833 102.000 M226.875 109.853 C 226.307 110.216,226.123 110.461,226.625 110.185 C 227.007 109.975,227.606 109.511,227.500 109.508 C 227.454 109.507,227.173 109.662,226.875 109.853 M209.917 111.333 C 209.774 111.608,209.696 111.833,209.741 111.833 C 209.787 111.833,209.941 111.608,210.083 111.333 C 210.226 111.058,210.304 110.833,210.259 110.833 C 210.213 110.833,210.059 111.058,209.917 111.333 M221.292 113.095 C 220.669 113.433,220.707 113.574,221.333 113.250 C 221.608 113.108,221.833 112.956,221.833 112.912 C 221.833 112.805,221.815 112.811,221.292 113.095 M219.125 114.261 C 218.690 114.488,218.333 114.710,218.333 114.756 C 218.333 114.802,218.708 114.649,219.167 114.417 C 219.625 114.184,220.000 113.958,220.000 113.914 C 220.000 113.804,220.015 113.798,219.125 114.261 M188.412 115.208 L 187.250 116.417 188.458 115.254 C 189.581 114.175,189.743 114.000,189.621 114.000 C 189.595 114.000,189.051 114.544,188.412 115.208 M212.333 117.667 C 212.012 117.842,211.825 117.986,211.917 117.986 C 212.008 117.986,212.346 117.842,212.667 117.667 C 212.987 117.491,213.175 117.347,213.083 117.347 C 212.992 117.347,212.654 117.491,212.333 117.667 M203.579 119.875 L 202.250 121.250 203.625 119.921 C 204.902 118.686,205.076 118.500,204.954 118.500 C 204.929 118.500,204.311 119.119,203.579 119.875 M178.167 122.083 C 177.938 122.214,177.825 122.322,177.917 122.322 C 178.008 122.322,178.271 122.214,178.500 122.083 C 178.729 121.952,178.842 121.845,178.750 121.845 C 178.658 121.845,178.396 121.952,178.167 122.083 M165.042 125.115 C 165.202 125.157,165.465 125.157,165.625 125.115 C 165.785 125.073,165.654 125.039,165.333 125.039 C 165.012 125.039,164.881 125.073,165.042 125.115 M162.628 125.287 C 162.928 125.325,163.378 125.324,163.628 125.286 C 163.878 125.248,163.633 125.217,163.083 125.218 C 162.533 125.219,162.328 125.250,162.628 125.287 M255.833 129.144 C 255.833 129.223,256.021 129.251,256.250 129.207 C 256.479 129.164,256.667 129.099,256.667 129.064 C 256.667 129.029,256.479 129.000,256.250 129.000 C 256.021 129.000,255.833 129.065,255.833 129.144 M259.958 129.118 C 260.165 129.157,260.502 129.157,260.708 129.118 C 260.915 129.078,260.746 129.045,260.333 129.045 C 259.921 129.045,259.752 129.078,259.958 129.118 M262.208 129.282 C 262.369 129.323,262.631 129.323,262.792 129.282 C 262.952 129.240,262.821 129.205,262.500 129.205 C 262.179 129.205,262.048 129.240,262.208 129.282 M265.208 129.615 C 265.369 129.657,265.631 129.657,265.792 129.615 C 265.952 129.573,265.821 129.539,265.500 129.539 C 265.179 129.539,265.048 129.573,265.208 129.615 M267.708 129.948 C 267.869 129.990,268.131 129.990,268.292 129.948 C 268.452 129.906,268.321 129.872,268.000 129.872 C 267.679 129.872,267.548 129.906,267.708 129.948 M273.500 133.583 C 273.821 133.707,274.196 133.808,274.333 133.808 C 274.471 133.808,274.321 133.707,274.000 133.583 C 273.679 133.460,273.304 133.359,273.167 133.359 C 273.029 133.359,273.179 133.460,273.500 133.583 M307.333 134.572 C 307.333 134.869,308.390 136.832,308.695 137.099 C 309.052 137.412,309.055 137.412,308.917 137.083 C 308.258 135.506,308.868 135.403,311.358 136.672 C 314.255 138.149,315.334 138.435,313.125 137.140 C 311.363 136.107,307.333 134.320,307.333 134.572 M285.500 138.083 C 285.729 138.214,285.992 138.322,286.083 138.322 C 286.175 138.322,286.063 138.214,285.833 138.083 C 285.604 137.952,285.342 137.845,285.250 137.845 C 285.158 137.845,285.271 137.952,285.500 138.083 M314.500 138.079 C 314.500 138.124,314.950 138.389,315.500 138.667 C 316.050 138.944,316.500 139.134,316.500 139.088 C 316.500 139.042,316.050 138.778,315.500 138.500 C 314.950 138.222,314.500 138.033,314.500 138.079 M308.667 142.333 C 309.171 142.600,309.658 142.818,309.750 142.818 C 309.842 142.818,309.504 142.600,309.000 142.333 C 308.496 142.067,308.008 141.849,307.917 141.849 C 307.825 141.849,308.162 142.067,308.667 142.333 M321.833 142.075 C 321.833 142.121,322.058 142.274,322.333 142.417 C 322.608 142.559,322.833 142.638,322.833 142.592 C 322.833 142.546,322.608 142.392,322.333 142.250 C 322.058 142.108,321.833 142.029,321.833 142.075 M294.167 142.241 C 294.167 142.287,294.392 142.441,294.667 142.583 C 294.942 142.726,295.167 142.804,295.167 142.759 C 295.167 142.713,294.942 142.559,294.667 142.417 C 294.392 142.274,294.167 142.196,294.167 142.241 M328.250 145.920 C 328.433 146.069,328.733 146.265,328.917 146.355 L 329.250 146.518 328.917 146.247 C 328.733 146.098,328.433 145.902,328.250 145.812 L 327.917 145.648 328.250 145.920 M187.303 149.125 C 189.257 149.152,192.407 149.151,194.303 149.125 C 196.199 149.098,194.600 149.076,190.750 149.076 C 186.900 149.076,185.349 149.098,187.303 149.125 M200.292 149.287 C 200.590 149.324,201.077 149.324,201.375 149.287 C 201.673 149.250,201.429 149.220,200.833 149.220 C 200.237 149.220,199.994 149.250,200.292 149.287 M203.377 149.453 C 203.631 149.491,204.006 149.490,204.211 149.451 C 204.416 149.411,204.208 149.380,203.750 149.381 C 203.292 149.382,203.124 149.415,203.377 149.453 M205.625 149.618 C 205.831 149.657,206.169 149.657,206.375 149.618 C 206.581 149.578,206.412 149.545,206.000 149.545 C 205.588 149.545,205.419 149.578,205.625 149.618 M207.627 149.785 C 207.834 149.824,208.134 149.823,208.294 149.781 C 208.453 149.739,208.283 149.707,207.917 149.709 C 207.550 149.711,207.420 149.745,207.627 149.785 M209.294 149.951 C 209.501 149.991,209.801 149.990,209.960 149.948 C 210.120 149.906,209.950 149.874,209.583 149.875 C 209.217 149.877,209.086 149.911,209.294 149.951 M184.681 150.063 C 184.851 150.217,186.167 150.831,186.167 150.757 C 186.167 150.662,184.909 150.000,184.729 150.000 C 184.664 150.000,184.642 150.028,184.681 150.063 M210.794 150.118 C 211.001 150.158,211.301 150.156,211.460 150.115 C 211.620 150.073,211.450 150.040,211.083 150.042 C 210.717 150.044,210.586 150.078,210.794 150.118 M212.208 150.282 C 212.369 150.323,212.631 150.323,212.792 150.282 C 212.952 150.240,212.821 150.205,212.500 150.205 C 212.179 150.205,212.048 150.240,212.208 150.282 M230.917 154.000 C 231.100 154.079,231.362 154.143,231.500 154.143 C 231.658 154.143,231.627 154.090,231.417 154.000 C 231.233 153.921,230.971 153.857,230.833 153.857 C 230.676 153.857,230.707 153.910,230.917 154.000 M96.406 156.042 L 95.917 156.583 96.458 156.094 C 96.756 155.825,97.000 155.581,97.000 155.552 C 97.000 155.423,96.862 155.537,96.406 156.042 M201.826 161.375 C 202.517 162.111,202.667 162.243,202.667 162.118 C 202.667 162.091,202.310 161.735,201.875 161.326 L 201.083 160.583 201.826 161.375 M349.667 161.241 C 349.667 161.287,349.892 161.441,350.167 161.583 C 350.442 161.726,350.667 161.804,350.667 161.759 C 350.667 161.713,350.442 161.559,350.167 161.417 C 349.892 161.274,349.667 161.196,349.667 161.241 M250.847 161.398 C 251.017 161.555,255.000 163.494,255.000 163.419 C 255.000 163.327,251.073 161.333,250.891 161.333 C 250.829 161.333,250.809 161.362,250.847 161.398 M91.203 165.617 C 91.099 165.965,90.969 166.587,90.913 167.000 L 90.811 167.750 91.197 167.261 C 91.869 166.410,92.062 165.654,91.699 165.291 C 91.400 164.992,91.386 165.001,91.203 165.617 M206.417 166.000 C 206.775 166.367,207.105 166.667,207.151 166.667 C 207.197 166.667,206.941 166.367,206.583 166.000 C 206.225 165.633,205.895 165.333,205.849 165.333 C 205.803 165.333,206.059 165.633,206.417 166.000 M159.375 167.623 C 159.810 167.657,160.523 167.657,160.958 167.623 C 161.394 167.588,161.037 167.560,160.167 167.560 C 159.296 167.560,158.940 167.588,159.375 167.623 M166.464 167.623 C 166.948 167.657,167.698 167.656,168.131 167.622 C 168.563 167.588,168.167 167.560,167.250 167.561 C 166.333 167.561,165.980 167.589,166.464 167.623 M155.460 167.785 C 155.668 167.824,155.968 167.823,156.127 167.781 C 156.286 167.739,156.117 167.707,155.750 167.709 C 155.383 167.711,155.253 167.745,155.460 167.785 M171.625 167.784 C 171.831 167.824,172.169 167.824,172.375 167.784 C 172.581 167.745,172.412 167.712,172.000 167.712 C 171.588 167.712,171.419 167.745,171.625 167.784 M174.542 167.948 C 174.702 167.990,174.965 167.990,175.125 167.948 C 175.285 167.906,175.154 167.872,174.833 167.872 C 174.512 167.872,174.381 167.906,174.542 167.948 M210.500 171.000 C 210.696 171.275,210.894 171.500,210.939 171.500 C 210.985 171.500,210.862 171.275,210.667 171.000 C 210.471 170.725,210.273 170.500,210.227 170.500 C 210.181 170.500,210.304 170.725,210.500 171.000 M211.908 173.821 C 211.821 173.905,211.525 174.006,211.250 174.046 L 210.750 174.117 211.271 174.142 C 211.559 174.155,211.886 174.054,212.000 173.917 C 212.227 173.643,212.162 173.574,211.908 173.821 M112.833 177.583 C 112.604 177.714,112.492 177.822,112.583 177.822 C 112.675 177.822,112.938 177.714,113.167 177.583 C 113.396 177.452,113.508 177.345,113.417 177.345 C 113.325 177.345,113.063 177.452,112.833 177.583 M110.500 178.667 C 109.996 178.933,109.658 179.151,109.750 179.151 C 109.842 179.151,110.329 178.933,110.833 178.667 C 111.337 178.400,111.675 178.182,111.583 178.182 C 111.492 178.182,111.004 178.400,110.500 178.667 M280.750 181.667 C 281.108 182.033,281.438 182.333,281.484 182.333 C 281.530 182.333,281.275 182.033,280.917 181.667 C 280.559 181.300,280.228 181.000,280.182 181.000 C 280.137 181.000,280.392 181.300,280.750 181.667 M104.292 181.929 C 103.669 182.267,103.707 182.407,104.333 182.083 C 104.608 181.941,104.833 181.789,104.833 181.746 C 104.833 181.638,104.815 181.645,104.292 181.929 M103.125 182.595 C 102.502 182.933,102.540 183.074,103.167 182.750 C 103.442 182.608,103.667 182.456,103.667 182.412 C 103.667 182.305,103.649 182.311,103.125 182.595 M284.917 185.667 C 286.657 187.408,288.118 188.833,288.163 188.833 C 288.209 188.833,286.823 187.408,285.083 185.667 C 283.343 183.925,281.882 182.500,281.837 182.500 C 281.791 182.500,283.177 183.925,284.917 185.667 M97.042 186.353 C 96.474 186.716,96.290 186.961,96.792 186.685 C 97.174 186.475,97.773 186.011,97.667 186.008 C 97.621 186.007,97.340 186.162,97.042 186.353 M155.875 188.615 C 156.035 188.657,156.298 188.657,156.458 188.615 C 156.619 188.573,156.487 188.539,156.167 188.539 C 155.846 188.539,155.715 188.573,155.875 188.615 M165.375 188.615 C 165.535 188.657,165.798 188.657,165.958 188.615 C 166.119 188.573,165.987 188.539,165.667 188.539 C 165.346 188.539,165.215 188.573,165.375 188.615 M289.417 190.333 C 289.775 190.700,290.105 191.000,290.151 191.000 C 290.197 191.000,289.941 190.700,289.583 190.333 C 289.225 189.967,288.895 189.667,288.849 189.667 C 288.803 189.667,289.059 189.967,289.417 190.333 M90.328 191.125 L 89.417 192.083 90.375 191.172 C 90.902 190.671,91.333 190.240,91.333 190.214 C 91.333 190.090,91.174 190.235,90.328 191.125 M191.917 193.500 C 192.100 193.579,192.362 193.643,192.500 193.643 C 192.658 193.643,192.627 193.590,192.417 193.500 C 192.233 193.421,191.971 193.357,191.833 193.357 C 191.676 193.357,191.707 193.410,191.917 193.500 M193.083 193.833 C 193.267 193.912,193.529 193.977,193.667 193.977 C 193.824 193.977,193.793 193.924,193.583 193.833 C 193.400 193.755,193.137 193.690,193.000 193.690 C 192.842 193.690,192.873 193.743,193.083 193.833 M94.000 198.417 C 94.311 198.737,94.603 199.000,94.649 199.000 C 94.695 199.000,94.478 198.737,94.167 198.417 C 93.856 198.096,93.564 197.833,93.518 197.833 C 93.472 197.833,93.689 198.096,94.000 198.417 M297.500 200.333 C 297.696 200.608,297.894 200.833,297.939 200.833 C 297.985 200.833,297.862 200.608,297.667 200.333 C 297.471 200.058,297.273 199.833,297.227 199.833 C 297.181 199.833,297.304 200.058,297.500 200.333 M125.076 204.185 C 125.154 204.951,125.803 206.919,125.935 206.787 C 125.973 206.749,125.883 206.427,125.734 206.070 C 125.585 205.714,125.359 204.972,125.231 204.420 C 125.021 203.514,125.006 203.491,125.076 204.185 M33.167 204.250 C 33.167 204.571,33.196 204.833,33.232 204.833 C 33.268 204.833,33.328 204.571,33.365 204.250 C 33.402 203.929,33.373 203.667,33.300 203.667 C 33.227 203.667,33.167 203.929,33.167 204.250 M33.062 207.917 C 33.063 208.925,33.090 209.316,33.123 208.786 C 33.157 208.255,33.156 207.430,33.123 206.952 C 33.089 206.474,33.062 206.908,33.062 207.917 M112.917 209.667 C 113.375 209.836,113.862 209.974,114.000 209.974 C 114.138 209.974,113.875 209.836,113.417 209.667 C 112.958 209.498,112.471 209.359,112.333 209.359 C 112.196 209.359,112.458 209.498,112.917 209.667 M33.218 212.583 C 33.219 213.133,33.250 213.338,33.287 213.039 C 33.325 212.739,33.324 212.289,33.286 212.039 C 33.248 211.788,33.217 212.033,33.218 212.583 M305.167 212.500 C 305.354 212.867,305.544 213.167,305.590 213.167 C 305.636 213.167,305.520 212.867,305.333 212.500 C 305.146 212.133,304.956 211.833,304.910 211.833 C 304.864 211.833,304.980 212.133,305.167 212.500 M33.381 215.417 C 33.382 215.875,33.415 216.043,33.453 215.789 C 33.491 215.536,33.490 215.161,33.451 214.956 C 33.411 214.751,33.380 214.958,33.381 215.417 M33.545 217.667 C 33.545 218.079,33.578 218.248,33.618 218.042 C 33.657 217.835,33.657 217.498,33.618 217.292 C 33.578 217.085,33.545 217.254,33.545 217.667 M33.709 219.583 C 33.711 219.950,33.745 220.080,33.785 219.873 C 33.824 219.666,33.823 219.366,33.781 219.206 C 33.739 219.047,33.707 219.217,33.709 219.583 M33.875 221.250 C 33.877 221.617,33.911 221.747,33.951 221.540 C 33.991 221.332,33.990 221.032,33.948 220.873 C 33.906 220.714,33.874 220.883,33.875 221.250 M34.042 222.750 C 34.044 223.117,34.078 223.247,34.118 223.040 C 34.158 222.832,34.156 222.532,34.115 222.373 C 34.073 222.214,34.040 222.383,34.042 222.750 M34.205 224.167 C 34.205 224.487,34.240 224.619,34.282 224.458 C 34.323 224.298,34.323 224.035,34.282 223.875 C 34.240 223.715,34.205 223.846,34.205 224.167 M34.372 225.500 C 34.372 225.821,34.406 225.952,34.448 225.792 C 34.490 225.631,34.490 225.369,34.448 225.208 C 34.406 225.048,34.372 225.179,34.372 225.500 M313.692 232.167 C 313.692 232.304,313.793 232.679,313.917 233.000 C 314.040 233.321,314.141 233.471,314.141 233.333 C 314.141 233.196,314.040 232.821,313.917 232.500 C 313.793 232.179,313.692 232.029,313.692 232.167 M38.190 244.833 C 38.190 244.971,38.255 245.233,38.333 245.417 C 38.424 245.627,38.477 245.658,38.477 245.500 C 38.477 245.362,38.412 245.100,38.333 244.917 C 38.243 244.707,38.190 244.676,38.190 244.833 M64.750 254.500 C 65.201 254.958,65.608 255.333,65.654 255.333 C 65.700 255.333,65.368 254.958,64.917 254.500 C 64.465 254.042,64.058 253.667,64.013 253.667 C 63.967 253.667,64.299 254.042,64.750 254.500 M69.993 259.708 C 70.402 260.144,70.758 260.500,70.785 260.500 C 70.910 260.500,70.778 260.350,70.042 259.660 L 69.250 258.917 69.993 259.708 M319.705 263.000 C 319.705 263.321,319.740 263.452,319.782 263.292 C 319.823 263.131,319.823 262.869,319.782 262.708 C 319.740 262.548,319.705 262.679,319.705 263.000 M207.833 263.917 C 207.428 264.329,207.135 264.667,207.181 264.667 C 207.226 264.667,207.595 264.329,208.000 263.917 C 208.405 263.504,208.699 263.167,208.653 263.167 C 208.607 263.167,208.238 263.504,207.833 263.917 M319.888 266.583 C 319.889 267.225,319.919 267.467,319.955 267.121 C 319.991 266.775,319.990 266.250,319.954 265.955 C 319.917 265.659,319.887 265.942,319.888 266.583 M45.845 267.417 C 45.845 267.508,45.952 267.771,46.083 268.000 C 46.214 268.229,46.322 268.342,46.322 268.250 C 46.322 268.158,46.214 267.896,46.083 267.667 C 45.952 267.438,45.845 267.325,45.845 267.417 M319.888 272.750 C 319.889 273.392,319.919 273.634,319.955 273.288 C 319.991 272.942,319.990 272.417,319.954 272.121 C 319.917 271.825,319.887 272.108,319.888 272.750 M319.709 276.250 C 319.711 276.617,319.745 276.747,319.785 276.540 C 319.824 276.332,319.823 276.032,319.781 275.873 C 319.739 275.714,319.707 275.883,319.709 276.250 M49.833 276.226 C 49.833 276.407,51.161 279.000,51.254 279.000 C 51.328 279.000,50.053 276.350,49.897 276.181 C 49.862 276.142,49.833 276.163,49.833 276.226 M53.667 283.667 C 53.854 284.033,54.044 284.333,54.090 284.333 C 54.136 284.333,54.020 284.033,53.833 283.667 C 53.646 283.300,53.456 283.000,53.410 283.000 C 53.364 283.000,53.480 283.300,53.667 283.667 M137.544 289.120 C 137.797 289.158,138.172 289.157,138.377 289.117 C 138.582 289.078,138.375 289.046,137.917 289.048 C 137.458 289.049,137.291 289.081,137.544 289.120 M144.877 289.120 C 145.131 289.158,145.506 289.157,145.711 289.117 C 145.916 289.078,145.708 289.046,145.250 289.048 C 144.792 289.049,144.624 289.081,144.877 289.120 M310.860 310.424 C 310.581 311.037,310.634 311.167,310.936 310.610 C 311.077 310.350,311.162 310.106,311.123 310.068 C 311.085 310.030,310.967 310.190,310.860 310.424 M72.500 310.719 C 72.500 310.748,72.744 310.991,73.042 311.260 L 73.583 311.750 73.094 311.208 C 72.638 310.703,72.500 310.590,72.500 310.719 M74.167 312.583 C 74.478 312.904,74.770 313.167,74.815 313.167 C 74.861 313.167,74.644 312.904,74.333 312.583 C 74.022 312.262,73.730 312.000,73.685 312.000 C 73.639 312.000,73.856 312.262,74.167 312.583 M75.660 314.208 C 76.068 314.644,76.425 315.000,76.451 315.000 C 76.577 315.000,76.444 314.850,75.708 314.160 L 74.917 313.417 75.660 314.208 M80.583 319.333 C 82.415 321.167,83.951 322.667,83.997 322.667 C 84.043 322.667,82.582 321.167,80.750 319.333 C 78.918 317.500,77.382 316.000,77.336 316.000 C 77.291 316.000,78.752 317.500,80.583 319.333 M85.583 324.167 C 86.035 324.625,86.442 325.000,86.487 325.000 C 86.533 325.000,86.201 324.625,85.750 324.167 C 85.299 323.708,84.892 323.333,84.846 323.333 C 84.800 323.333,85.132 323.708,85.583 324.167 M88.167 326.583 C 88.942 327.362,89.613 328.000,89.659 328.000 C 89.705 328.000,89.108 327.362,88.333 326.583 C 87.558 325.804,86.887 325.167,86.841 325.167 C 86.795 325.167,87.392 325.804,88.167 326.583 M89.833 328.075 C 89.833 328.121,90.058 328.274,90.333 328.417 C 90.608 328.559,90.833 328.638,90.833 328.592 C 90.833 328.546,90.608 328.392,90.333 328.250 C 90.058 328.108,89.833 328.029,89.833 328.075 M91.826 329.542 C 92.235 329.977,92.591 330.333,92.618 330.333 C 92.743 330.333,92.611 330.184,91.875 329.493 L 91.083 328.750 91.826 329.542 M298.073 330.875 L 297.583 331.417 298.125 330.927 C 298.630 330.471,298.743 330.333,298.615 330.333 C 298.586 330.333,298.342 330.577,298.073 330.875 M93.500 331.083 C 93.811 331.404,94.103 331.667,94.149 331.667 C 94.195 331.667,93.978 331.404,93.667 331.083 C 93.356 330.762,93.064 330.500,93.018 330.500 C 92.972 330.500,93.189 330.762,93.500 331.083 M296.328 332.792 L 295.417 333.750 296.375 332.839 C 296.902 332.338,297.333 331.907,297.333 331.881 C 297.333 331.757,297.174 331.901,296.328 332.792 M95.500 332.722 C 95.500 332.768,95.800 333.043,96.167 333.333 C 96.533 333.624,96.833 333.824,96.833 333.778 C 96.833 333.732,96.533 333.457,96.167 333.167 C 95.800 332.876,95.500 332.676,95.500 332.722 M97.000 333.889 C 97.000 333.934,97.300 334.210,97.667 334.500 C 98.033 334.790,98.333 334.991,98.333 334.945 C 98.333 334.899,98.033 334.624,97.667 334.333 C 97.300 334.043,97.000 333.843,97.000 333.889 M293.740 335.445 C 293.483 335.782,293.358 336.004,293.462 335.940 C 293.675 335.808,294.397 334.833,294.281 334.833 C 294.240 334.833,293.996 335.109,293.740 335.445 M291.913 337.542 L 290.583 338.917 291.958 337.587 C 293.235 336.353,293.409 336.167,293.288 336.167 C 293.263 336.167,292.644 336.785,291.913 337.542 M101.000 336.894 C 101.000 336.940,101.225 337.138,101.500 337.333 C 101.775 337.529,102.000 337.652,102.000 337.606 C 102.000 337.560,101.775 337.362,101.500 337.167 C 101.225 336.971,101.000 336.848,101.000 336.894 M102.167 337.727 C 102.167 337.773,102.392 337.971,102.667 338.167 C 102.942 338.362,103.167 338.485,103.167 338.439 C 103.167 338.394,102.942 338.196,102.667 338.000 C 102.392 337.804,102.167 337.681,102.167 337.727 M108.750 342.253 C 108.933 342.402,109.233 342.598,109.417 342.688 L 109.750 342.852 109.417 342.580 C 109.233 342.431,108.933 342.235,108.750 342.145 L 108.417 341.982 108.750 342.253 M113.250 345.082 C 113.622 345.391,114.678 345.962,114.417 345.712 C 114.325 345.625,113.950 345.385,113.583 345.179 C 113.217 344.973,113.067 344.929,113.250 345.082 M282.083 345.513 C 281.095 346.261,280.961 346.472,281.889 345.822 C 282.589 345.331,282.970 344.989,282.802 345.005 C 282.773 345.007,282.450 345.236,282.083 345.513 M276.542 349.353 C 275.974 349.716,275.790 349.961,276.292 349.685 C 276.674 349.475,277.273 349.011,277.167 349.008 C 277.121 349.007,276.840 349.162,276.542 349.353 M120.833 349.411 C 120.833 349.457,121.208 349.684,121.667 349.917 C 122.125 350.149,122.500 350.301,122.500 350.256 C 122.500 350.210,122.125 349.982,121.667 349.750 C 121.208 349.518,120.833 349.365,120.833 349.411 M128.667 353.417 C 129.079 353.638,129.492 353.818,129.583 353.818 C 129.675 353.818,129.412 353.638,129.000 353.417 C 128.587 353.196,128.175 353.015,128.083 353.015 C 127.992 353.015,128.254 353.196,128.667 353.417 M269.625 353.428 C 269.190 353.654,268.833 353.877,268.833 353.923 C 268.833 353.968,269.208 353.816,269.667 353.583 C 270.125 353.351,270.500 353.125,270.500 353.081 C 270.500 352.970,270.515 352.964,269.625 353.428 M130.500 354.250 C 130.729 354.381,130.992 354.488,131.083 354.488 C 131.175 354.488,131.063 354.381,130.833 354.250 C 130.604 354.119,130.342 354.012,130.250 354.012 C 130.158 354.012,130.271 354.119,130.500 354.250 M261.833 357.250 C 261.604 357.381,261.492 357.488,261.583 357.488 C 261.675 357.488,261.938 357.381,262.167 357.250 C 262.396 357.119,262.508 357.012,262.417 357.012 C 262.325 357.012,262.063 357.119,261.833 357.250 M149.667 361.583 C 149.987 361.707,150.362 361.808,150.500 361.808 C 150.637 361.808,150.487 361.707,150.167 361.583 C 149.846 361.460,149.471 361.359,149.333 361.359 C 149.196 361.359,149.346 361.460,149.667 361.583 M249.083 362.000 C 248.873 362.090,248.842 362.143,249.000 362.143 C 249.137 362.143,249.400 362.079,249.583 362.000 C 249.793 361.910,249.824 361.857,249.667 361.857 C 249.529 361.857,249.267 361.921,249.083 362.000 M163.167 365.167 C 163.396 365.240,163.733 365.300,163.917 365.300 C 164.181 365.300,164.163 365.272,163.833 365.167 C 163.604 365.093,163.267 365.033,163.083 365.033 C 162.819 365.033,162.837 365.061,163.167 365.167 M236.167 365.333 C 235.837 365.439,235.819 365.467,236.083 365.467 C 236.267 365.467,236.604 365.407,236.833 365.333 C 237.163 365.228,237.181 365.200,236.917 365.200 C 236.733 365.200,236.396 365.260,236.167 365.333 M186.708 368.615 C 186.869 368.657,187.131 368.657,187.292 368.615 C 187.452 368.573,187.321 368.539,187.000 368.539 C 186.679 368.539,186.548 368.573,186.708 368.615 M213.294 368.618 C 213.501 368.658,213.801 368.656,213.960 368.615 C 214.120 368.573,213.950 368.540,213.583 368.542 C 213.217 368.544,213.086 368.578,213.294 368.618 M189.125 368.787 C 189.423 368.824,189.910 368.824,190.208 368.787 C 190.506 368.750,190.262 368.720,189.667 368.720 C 189.071 368.720,188.827 368.750,189.125 368.787 M210.461 368.787 C 210.761 368.825,211.211 368.824,211.461 368.786 C 211.712 368.748,211.467 368.717,210.917 368.718 C 210.367 368.719,210.162 368.750,210.461 368.787 M192.464 368.956 C 192.948 368.990,193.698 368.990,194.131 368.956 C 194.563 368.921,194.167 368.894,193.250 368.894 C 192.333 368.895,191.980 368.923,192.464 368.956 M206.631 368.956 C 207.115 368.990,207.865 368.990,208.297 368.956 C 208.730 368.921,208.333 368.894,207.417 368.894 C 206.500 368.895,206.146 368.923,206.631 368.956 M198.208 369.125 C 199.377 369.153,201.290 369.153,202.458 369.125 C 203.627 369.096,202.671 369.072,200.333 369.072 C 197.996 369.072,197.040 369.096,198.208 369.125 " stroke="none" fill="#777c95" fill-rule="evenodd"></path></g></svg>