<svg id="svg" version="1.1" xmlns="http://www.w3.org/2000/svg" xmlns:xlink="http://www.w3.org/1999/xlink" width="400" height="400" viewBox="0, 0, 400,400"><g id="svgg"><path id="path0" d="M89.200 131.766 L 89.200 143.931 103.700 144.097 C 119.768 144.280,119.936 144.303,125.400 147.121 C 129.392 149.179,133.823 153.674,135.730 157.600 C 138.586 163.478,138.400 158.513,138.400 228.690 L 138.400 292.012 150.700 291.906 L 163.000 291.800 163.101 217.900 L 163.202 144.000 175.401 144.000 L 187.600 144.000 187.600 230.200 L 187.600 316.400 200.000 316.400 L 212.400 316.400 212.400 230.200 L 212.400 144.000 224.599 144.000 L 236.798 144.000 236.899 217.900 L 237.000 291.800 249.300 291.906 L 261.600 292.012 261.600 228.870 C 261.600 167.299,261.620 165.651,262.390 162.638 C 264.501 154.385,270.967 147.746,279.600 144.970 C 281.492 144.361,283.833 144.239,296.300 144.097 L 310.800 143.931 310.800 131.766 L 310.800 119.600 200.000 119.600 L 89.200 119.600 89.200 131.766 " stroke="none" fill="#fbfbfb" fill-rule="evenodd"></path><path id="path1" d="M185.400 0.254 C 114.884 5.718,53.390 46.645,21.403 109.400 C -1.177 153.701,-6.237 206.245,7.402 254.800 C 37.159 360.740,148.143 422.557,254.800 392.598 C 360.740 362.841,422.557 251.857,392.598 145.200 C 370.704 67.255,304.565 11.211,222.400 0.979 C 217.244 0.337,190.974 -0.178,185.400 0.254 M310.800 131.774 L 310.800 144.348 295.900 144.483 C 281.033 144.619,280.994 144.621,278.352 145.641 C 270.690 148.598,265.626 153.774,262.929 161.404 L 261.800 164.600 261.691 228.300 L 261.581 292.000 249.191 292.000 L 236.800 292.000 236.800 218.200 L 236.800 144.400 224.600 144.400 L 212.400 144.400 212.400 230.600 L 212.400 316.800 200.000 316.800 L 187.600 316.800 187.600 230.600 L 187.600 144.400 175.400 144.400 L 163.200 144.400 163.200 218.200 L 163.200 292.000 150.808 292.000 L 138.417 292.000 138.308 228.300 L 138.200 164.600 137.104 161.369 C 134.604 153.996,128.977 148.301,121.473 145.548 C 119.100 144.678,118.401 144.635,104.100 144.494 L 89.200 144.348 89.200 131.774 L 89.200 119.200 200.000 119.200 L 310.800 119.200 310.800 131.774 " stroke="none" fill="#d444dc" fill-rule="evenodd"></path><path id="path2" d="M144.500 119.500 C 175.025 119.557,224.975 119.557,255.500 119.500 C 286.025 119.443,261.050 119.397,200.000 119.397 C 138.950 119.397,113.975 119.443,144.500 119.500 M194.125 316.699 C 197.604 316.766,203.184 316.766,206.525 316.699 C 209.866 316.632,207.020 316.578,200.200 316.578 C 193.380 316.578,190.646 316.633,194.125 316.699 " stroke="none" fill="#e474e4" fill-rule="evenodd"></path><path id="path3" d="M95.700 144.299 C 99.385 144.365,105.415 144.365,109.100 144.299 C 112.785 144.233,109.770 144.179,102.400 144.179 C 95.030 144.179,92.015 144.233,95.700 144.299 M169.325 144.299 C 172.804 144.366,178.384 144.366,181.725 144.299 C 185.066 144.232,182.220 144.178,175.400 144.178 C 168.580 144.178,165.846 144.233,169.325 144.299 M218.525 144.299 C 222.004 144.366,227.584 144.366,230.925 144.299 C 234.266 144.232,231.420 144.178,224.600 144.178 C 217.780 144.178,215.046 144.233,218.525 144.299 M290.900 144.299 C 294.585 144.365,300.615 144.365,304.300 144.299 C 307.985 144.233,304.970 144.179,297.600 144.179 C 290.230 144.179,287.215 144.233,290.900 144.299 " stroke="none" fill="#eca4ec" fill-rule="evenodd"></path><path id="path4" d="" stroke="none" fill="#dc5ae0" fill-rule="evenodd"></path></g></svg>