<?xml version="1.0" encoding="UTF-8"?>
<svg version="1.1" xmlns="http://www.w3.org/2000/svg" width="600" height="599">
<path d="M0 0 C2.97325963 1.3262774 4.94079346 2.73033112 7.13671875 5.125 C7.99547607 6.0533667 7.99547607 6.0533667 8.87158203 7.00048828 C9.47083496 7.66032715 10.07008789 8.32016602 10.6875 9 C11.62505127 10.01876221 11.62505127 10.01876221 12.58154297 11.05810547 C16.66490771 15.50415481 20.71091967 19.98406571 24.734375 24.484375 C27.42379266 27.47055599 30.14634956 30.42469812 32.875 33.375 C33.38216553 33.92341553 33.88933105 34.47183105 34.41186523 35.03686523 C34.91919189 35.58544189 35.42651855 36.13401855 35.94921875 36.69921875 C42.15316761 43.4078422 48.33686793 50.1346369 54.4375 56.9375 C58.43517373 61.39286804 62.49200885 65.79083519 66.55834961 70.18334961 C70.29526882 74.22449884 73.98299106 78.30710596 77.65625 82.40625 C80.41468387 85.45891681 83.20502044 88.48082656 86 91.5 C90.27977624 96.12350101 94.51758655 100.78092388 98.72265625 105.47265625 C101.29809775 108.33082203 103.89685764 111.16710261 106.5 114 C110.59169207 118.45332617 114.64822977 122.93659888 118.6875 127.4375 C121.27615003 130.30600409 123.88585146 133.1547665 126.5 136 C130.58917448 140.45064847 134.64369084 144.93078083 138.6796875 149.4296875 C141.31079783 152.34428447 143.96652475 155.23539224 146.625 158.125 C149.6022264 161.36213091 152.55952966 164.61137856 155.4375 167.9375 C158.54964295 171.52958789 161.76875835 175.01548282 165 178.5 C168.82368053 182.62412933 172.61553069 186.76252851 176.26953125 191.0390625 C177.60210838 192.54911604 178.98460334 194.01522112 180.38671875 195.4609375 C186.66217718 202.02209184 186.66217718 202.02209184 188.1875 206.4375 C187.63863385 216.8659568 185.63527414 224.91822403 177.8125 232.1875 C170.0522131 238.22778547 161.81233823 240.83127929 152.25 242.5625 C142.89672853 244.08356109 142.89672853 244.08356109 135 249 C131.11545298 255.35339245 130.96713802 262.73430512 130.125 270 C128.11206653 285.65454019 123.94848554 298.52652313 117.21020508 312.77563477 C112.3700791 323.10859427 108.88443527 333.19252928 112.0625 344.5625 C116.14370215 355.2945501 125.07988406 361.71093641 134.0625 368.21875 C141.22234268 373.44543516 148.35019757 378.66516469 152 387 C153.22035322 395.1865767 153.727203 406.06117806 148.796875 413.02734375 C132.4352015 430.98961574 108.84146217 440.61312562 85 444 C84.01 443.67 83.02 443.34 82 443 C81.27490234 441.31591797 81.27490234 441.31591797 80.7109375 439.1171875 C78.91881007 433.22344204 75.85196112 428.33610614 72.625 423.125 C63.17787299 407.7895952 56.68625119 393.44870462 56.5625 375.25 C56.5524292 374.2919043 56.5423584 373.33380859 56.53198242 372.34667969 C56.72447266 356.51606424 64.10420332 343.95425056 74.265625 332.20703125 C91.92445111 311.73535149 104.02297959 290.74009039 108.33398438 263.92236328 C110.56679472 250.21252056 114.07145106 239.53017619 123.3046875 228.88671875 C125.0481686 225.9179802 125.4629539 224.42946235 124.72119141 221.06958008 C123.0631038 216.31141873 120.62953983 211.92797169 118.25 207.5 C117.66581299 206.3955957 117.08162598 205.29119141 116.47973633 204.15332031 C111.62832031 195.03763135 106.5698148 186.04450521 101.44921875 177.078125 C97.21380581 169.64740343 93.10245447 162.1487734 88.98516846 154.6522522 C85.40689096 148.13906929 81.80984598 141.63958388 78.12890625 135.18359375 C77.52626953 134.1265625 76.92363281 133.06953125 76.30273438 131.98046875 C75.17167864 130.00270799 74.0364863 128.02730513 72.89648438 126.0546875 C72.39568359 125.17941406 71.89488281 124.30414063 71.37890625 123.40234375 C70.9413501 122.64429443 70.50379395 121.88624512 70.05297852 121.10522461 C69.03349858 119.06697386 68.45340611 117.22606962 68 115 C73.30055463 119.6506782 76.66332105 125.43423885 80.375 131.375 C81.44198423 133.06288675 82.50898665 134.75076254 83.57737732 136.4377594 C84.3070639 137.59017068 85.03603245 138.7430369 85.76429749 139.89634705 C89.35026481 145.57128669 93.01111924 151.19587387 96.6875 156.8125 C97.93235662 158.71610336 99.17714908 160.61974867 100.421875 162.5234375 C101.32196289 163.89967285 101.32196289 163.89967285 102.24023438 165.30371094 C103.9208154 167.87867443 105.59482345 170.45774516 107.265625 173.0390625 C113.28427657 182.33684148 119.36155303 191.59327664 125.5 200.8125 C126.17087646 201.82111084 126.84175293 202.82972168 127.53295898 203.86889648 C129.34603531 206.58565268 131.1700278 209.29460509 133 212 C133.47655029 212.71470459 133.95310059 213.42940918 134.4440918 214.16577148 C137.72624063 218.96534574 140.50659741 221.26793836 146 223 C153.53483054 223.9881745 161.24017588 221.85141024 167.328125 217.234375 C169.20646534 215.06889388 169.20646534 215.06889388 169.52734375 212.13671875 C168.8607656 208.17181314 167.07722105 205.81083886 164.5625 202.8125 C164.10657471 202.24571533 163.65064941 201.67893066 163.1809082 201.0949707 C161.80061715 199.38522944 160.40201224 197.69194391 159 196 C158.27039063 195.10023438 157.54078125 194.20046875 156.7890625 193.2734375 C155.35411188 191.50775476 153.91238948 189.7475593 152.46484375 187.9921875 C149.54332845 184.44562534 146.64569098 180.88015242 143.75 177.3125 C142.63021625 175.93358732 141.5104245 174.55468114 140.390625 173.17578125 C139.82923828 172.48436035 139.26785156 171.79293945 138.68945312 171.08056641 C135.9604131 167.71974572 133.23017536 164.3598984 130.5 161 C127.20249585 156.94191675 123.90530237 152.8835828 120.609375 148.82421875 C114.42134436 141.20370734 108.22184335 133.59295328 102 126 C100.49985719 124.16678352 98.99985918 122.33344854 97.5 120.5 C96.7575 119.5925 96.015 118.685 95.25 117.75 C84 104 72.75 90.25 61.5 76.5 C60.75105469 75.58476563 60.00210938 74.66953125 59.23046875 73.7265625 C57.79500065 71.97182216 56.36006204 70.21664845 54.92578125 68.4609375 C49.68432888 62.04718247 44.42108858 55.65162647 39.15356445 49.25927734 C35.22449888 44.49012423 31.30619358 39.71241927 27.3984375 34.92578125 C25.51360913 32.62653621 23.62245339 30.33307084 21.7265625 28.04296875 C15.96375068 21.07766178 10.22569641 14.09674746 4.625 7 C4.15465332 6.40662842 3.68430664 5.81325684 3.19970703 5.2019043 C0 1.12176136 0 1.12176136 0 0 Z M76 369 C76.57344937 371.86724686 76.8614515 372.8614515 79 375 C78.67027174 377.50593475 78.09063033 379.74321405 77.25 382.125 C76.80210451 384.06594438 76.80210451 384.06594438 78 385.8125 C80.11406132 387.30478319 80.11406132 387.30478319 83.5 386.9375 C86.95723617 386.29520662 86.95723617 386.29520662 88.875 384.3125 C90.292095 381.3995825 90.8699287 379.25178241 91 376 C89.47126129 372.02527937 88.57219503 370.38146335 85 368 C80.34582831 367.65777555 80.34582831 367.65777555 76 369 Z " fill="#FF0079" transform="translate(37,0)"/>
<path d="M0 0 C3.39810137 1.24479061 6.09812006 2.66442871 9 4.8125 C25.09243509 15.59312318 46.09503357 17.28425293 64.79971313 20.1875 C94.3496642 24.77534776 122.8459591 32.17863764 143 56 C156.43536137 75.07650887 159.79922092 97.25875457 155.9375 120 C154.18975175 127.54556698 151.05634784 134.41210013 147 141 C146.34 141.33 145.68 141.66 145 142 C144.79246094 140.90042969 144.58492187 139.80085937 144.37109375 138.66796875 C141.11366906 122.57417512 134.48871252 112.07279171 120.703125 102.7109375 C104.40751519 92.23842459 85.63315703 85.38366513 67.78515625 78.01171875 C42.94051099 67.7324729 15.0689478 55.80596156 3 30 C-0.80926942 20.28026272 -0.30762149 10.25404959 0 0 Z " fill="#FF0079" transform="translate(321,223)"/>
<path d="M0 0 C31.24049054 0.20689067 53.75984306 14.59114665 75.04418945 35.95874023 C79.96452555 40.9759261 79.96452555 40.9759261 81.109375 43.265625 C82.37007813 43.12125 83.63078125 42.976875 84.9296875 42.828125 C121.48582411 38.85539957 159.76310729 41.40786341 190.56005859 63.70385742 C195.65258996 68.83731522 194.42242052 78.60904727 194.42163086 85.34960938 C194.27506268 91.78940081 192.98584353 97.51268795 190.109375 103.265625 C189.73322374 107.39627126 189.73322374 107.39627126 191.234375 111.140625 C193.93543586 112.76126151 196.01596492 112.52340917 199.109375 112.265625 C202.17030291 111.61272901 202.17030291 111.61272901 203.14453125 109.484375 C203.46292969 108.7521875 203.78132812 108.02 204.109375 107.265625 C204.49996094 106.5540625 204.89054688 105.8425 205.29296875 105.109375 C208.72556906 98.69329965 210.60798171 92.3697786 212.109375 85.265625 C215.109375 85.265625 215.109375 85.265625 217.2734375 87.328125 C224.05220467 95.41960581 229.29854286 103.87990757 234.109375 113.265625 C234.62628906 114.26980469 235.14320313 115.27398437 235.67578125 116.30859375 C239.44164349 124.09886997 242.41143249 132.52185563 242.109375 141.265625 C241.449375 141.265625 240.789375 141.265625 240.109375 141.265625 C238.9869213 139.76704565 237.93623128 138.214386 236.921875 136.640625 C230.03103131 126.60857535 221.55192744 121.3154772 209.48535156 119.00683594 C199.60474775 117.35345511 189.62646509 116.7396696 179.64596558 116.01309204 C140.78068203 113.17905309 115.11103903 104.08794816 88.63720703 74.07226562 C84.84506893 69.58811383 81.42843749 64.80658785 77.9453125 60.08203125 C74.18385086 54.98760006 70.18539043 50.11057156 66.109375 45.265625 C65.65062988 44.71132812 65.19188477 44.15703125 64.71923828 43.5859375 C47.88732181 23.25222766 29.97513301 10.55807958 4.109375 4.265625 C2.46342135 3.84943386 0.81755884 3.43288172 -0.828125 3.015625 C-1.83875 2.768125 -2.849375 2.520625 -3.890625 2.265625 C-1.890625 0.265625 -1.890625 0.265625 0 0 Z " fill="#FF0079" transform="translate(208.890625,112.734375)"/>
<path d="M0 0 C21.35612079 10.19513304 43.68029405 21.96232606 62 37 C62.72960937 37.5671875 63.45921875 38.134375 64.2109375 38.71875 C76.40888931 48.62666488 85.00508067 64.42621803 87 80 C88.45365142 104.3378669 84.24161646 126.44065735 68.1796875 145.59375 C60.47268808 154.10183538 52.04192254 159.68964615 42 165 C40.66291231 160.98873694 41.78693806 159.42736898 43.375 155.5625 C49.01318061 141.71903421 48.59447945 126.89029327 43 113 C35.76517195 97.05792915 25.39116796 82.46704012 15.625 68 C5.21186537 52.48664048 -3.13754391 37.29097813 -3.25 18.1875 C-3.2809375 16.89102539 -3.2809375 16.89102539 -3.3125 15.56835938 C-3.34804239 9.68165029 -2.37891814 5.39012768 0 0 Z " fill="#FF0079" transform="translate(375,306)"/>
<path d="M0 0 C14.79374346 13.22773909 17.18811673 33.9751592 20.12182617 52.41455078 C21.94249727 63.37528138 24.43707383 73.99684015 33.87109375 80.8046875 C41.88838222 85.18747186 52.21041497 84.68130773 60.86328125 82.546875 C63.08262934 81.83519578 65.2887033 81.07946945 67.47265625 80.265625 C70.046875 79.48828125 70.046875 79.48828125 73.046875 80.48828125 C61.19974061 89.94078209 50.43645826 93.71118931 35.046875 92.48828125 C23.22791079 90.24493645 15.51776163 82.16725772 8.93408203 72.57470703 C4.7010036 65.65173451 1.48179449 58.15851166 -1.89819336 50.79248047 C-9.38359653 34.38551849 -9.38359653 34.38551849 -22.578125 22.48828125 C-23.45726562 21.95203125 -24.33640625 21.41578125 -25.2421875 20.86328125 C-32.75677393 17.05184836 -40.85960701 15.28426385 -49.04296875 17.7734375 C-54.95038546 19.98418854 -58.8977061 22.53193105 -62.07421875 28.140625 C-64.14374021 33.66854676 -63.6312593 39.24196139 -61.953125 44.80078125 C-58.0311114 50.07098703 -52.49527138 54.28666253 -45.953125 55.48828125 C-41.22536815 55.62506987 -37.32658134 55.19200536 -33.515625 52.23828125 C-29.44495696 47.86975945 -28.51994461 44.25776868 -28.70703125 38.4140625 C-29.08769914 35.43518522 -30.00562778 33.76036134 -31.953125 31.48828125 C-36.74155282 28.25887644 -40.36481927 28.03761143 -45.953125 28.48828125 C-48.64596713 29.33865245 -49.58409253 29.99623796 -51.265625 32.23828125 C-52.23619819 35.41470261 -51.94186957 37.32429863 -50.953125 40.48828125 C-48.51703707 42.87217041 -48.51703707 42.87217041 -45.953125 44.48828125 C-51.42704697 43.8800677 -51.42704697 43.8800677 -53.62109375 42.24609375 C-55.83571938 39.32356726 -55.48120827 36.55019222 -55.3671875 33 C-54.67596153 28.80699719 -53.15725393 27.27448032 -49.953125 24.48828125 C-44.29230179 21.78093102 -38.73963604 21.72009339 -32.828125 23.67578125 C-27.94766485 25.69593303 -25.16451459 28.775627 -22.140625 33.05078125 C-20.03881787 39.13495977 -19.76921236 46.27891397 -22.140625 52.36328125 C-26.68258485 60.1942465 -31.56705139 63.69292338 -39.953125 66.48828125 C-49.99911101 67.52342508 -58.55799576 65.34755954 -66.640625 59.23828125 C-70.59023026 55.89872649 -74.18355552 52.25669077 -77.79736328 48.56445312 C-93.82089203 32.19331809 -108.78670494 27.32827938 -130.953125 23.48828125 C-130.953125 20.48828125 -130.953125 20.48828125 -129.51171875 18.796875 C-95.17493788 -11.49284514 -39.93472181 -30.90947468 0 0 Z " fill="#FF0079" transform="translate(309.953125,414.51171875)"/>
<path d="M0 0 C12.7492909 2.39930162 24.453633 5.87573891 32.1875 17.125 C37.36267219 26.52919102 39.71551356 37.88652564 41.94921875 48.3203125 C44.49020786 60.02231136 49.3556657 70.03349855 56 80 C55.48275862 83.51724138 55.48275862 83.51724138 54 85 C44.49483112 86.07605685 36.25103083 82.01575925 28.8125 76.3125 C27.18147614 74.90554651 25.57677503 73.46749359 24 72 C22.85917969 70.94039062 22.85917969 70.94039062 21.6953125 69.859375 C8.91694907 56.85993262 -0.2001107 35.8198156 -0.09765625 17.48046875 C-0.09443359 16.45888672 -0.09121094 15.43730469 -0.08789062 14.38476562 C-0.07951172 13.32966797 -0.07113281 12.27457031 -0.0625 11.1875 C-0.05798828 10.11306641 -0.05347656 9.03863281 -0.04882812 7.93164062 C-0.03707729 5.28770317 -0.02064787 2.64388048 0 0 Z " fill="#FF0079" transform="translate(204,125)"/>
<path d="M0 0 C7.75189986 7.0874513 12.92080334 15.97617551 13.46875 26.609375 C13.70789607 40.75904125 13.17249647 51.27705539 3.625 62.375 C2.10341767 63.93649269 0.56330086 65.48027547 -1 67 C-1.55429687 67.57492187 -2.10859375 68.14984375 -2.6796875 68.7421875 C-17.15330693 82.63974248 -39.3421446 83.13927669 -58.11328125 84.42578125 C-74.79637096 85.59414095 -90.7057258 88.34011523 -107 92 C-107 91.34 -107 90.68 -107 90 C-88.41536116 78.61761482 -69.54586372 74.71291462 -48.31640625 70.75 C-30.4506087 67.37849796 -14.11032357 63.79908398 -3 48 C1.38700611 40.68832316 3.37511105 33.36966984 3.3125 24.8125 C3.31121094 24.07362549 3.30992187 23.33475098 3.30859375 22.57348633 C3.21087296 16.93682921 2.30381862 11.82596018 0.65625 6.41796875 C0 4 0 4 0 0 Z " fill="#FF0079" transform="translate(351,294)"/>
<path d="M0 0 C4.1553095 3.19360031 7.14087899 7.43044947 8.7890625 12.375 C9.2736311 17.30144748 9.41027808 19.36552469 6.7890625 23.625 C0.34071276 30.30948649 -8.90463845 32.40382256 -17.87670898 32.65332031 C-27.73329951 32.81995751 -27.73329951 32.81995751 -32.2109375 29.375 C-35.17931204 24.92243819 -35.35645948 20.66229866 -35.2109375 15.375 C-33.63552213 7.65434738 -29.66942708 2.72278946 -23.2109375 -1.625 C-16.18835549 -5.37037707 -6.77642254 -3.7925657 0 0 Z M-21.2109375 3.375 C-22.71546207 5.91868999 -22.71546207 5.91868999 -23.2109375 8.375 C-18.85825737 13.11374963 -18.85825737 13.11374963 -12.8984375 14.625 C-8.04695074 14.29608564 -5.5936728 12.7577353 -2.2109375 9.375 C-2.36527764 6.36536719 -2.77169958 4.84802545 -4.8359375 2.625 C-10.78151268 -0.5042501 -15.49889499 0.01497499 -21.2109375 3.375 Z " fill="#FF0079" transform="translate(252.2109375,247.625)"/>
<path d="M0 0 C1.01230341 3.14938838 0.79318273 4.84779173 0 8 C-0.21827385 11.22641762 -0.18513142 14.45439183 -0.1875 17.6875 C-0.20586914 18.97817383 -0.20586914 18.97817383 -0.22460938 20.29492188 C-0.2501326 31.58469392 2.11963844 39.70216855 9.92578125 48.0625 C11.27093029 49.39981322 12.62787341 50.72536327 13.99609375 52.0390625 C16.55316583 54.54130457 18.87171443 57.20690187 21.203125 59.91796875 C23.82666191 62.95784956 26.51819129 65.93622872 29.203125 68.921875 C30.90207488 70.88674747 32.46935476 72.90244912 34 75 C33.67 75.66 33.34 76.32 33 77 C32.14341797 76.19949219 32.14341797 76.19949219 31.26953125 75.3828125 C26.39138011 70.90018713 21.41515854 66.62987153 16.1875 62.5625 C15.64907471 62.13791504 15.11064941 61.71333008 14.5559082 61.27587891 C11.50410198 58.93299219 8.64772176 57.2338874 5 56 C4.96132813 57.77890625 4.96132813 57.77890625 4.921875 59.59375 C4.06181251 87.11003484 4.06181251 87.11003484 -4 96 C-3.83991455 94.98196289 -3.6798291 93.96392578 -3.51489258 92.91503906 C-2.71893324 86.86287977 -2.73373729 80.84715691 -2.6875 74.75 C-2.65849609 73.49058594 -2.62949219 72.23117188 -2.59960938 70.93359375 C-2.54093913 62.24137067 -3.09705132 53.69814511 -8.86572266 46.75415039 C-17.73149128 37.91250474 -30.83518229 32.34086232 -42 27 C-38.82117012 25.95986652 -36.99364506 26.04693571 -33.83984375 27.109375 C-33.04513672 27.36976563 -32.25042969 27.63015625 -31.43164062 27.8984375 C-30.60857422 28.17945313 -29.78550781 28.46046875 -28.9375 28.75 C-22.00959004 31.0611732 -15.06339937 33.13878379 -8 35 C-7.93530518 34.36610352 -7.87061035 33.73220703 -7.80395508 33.07910156 C-5.3433771 9.82083143 -5.3433771 9.82083143 0 0 Z " fill="#FF0078" transform="translate(411,121)"/>
</svg>
